G04 #@! TF.GenerationSoftware,KiCad,Pcbnew,8.0.8*
G04 #@! TF.CreationDate,2025-03-24T19:57:08+01:00*
G04 #@! TF.ProjectId,cheap-wled-controller,63686561-702d-4776-9c65-642d636f6e74,rev?*
G04 #@! TF.SameCoordinates,Original*
G04 #@! TF.FileFunction,Other,Comment*
%FSLAX46Y46*%
G04 Gerber Fmt 4.6, Leading zero omitted, Abs format (unit mm)*
G04 Created by KiCad (PCBNEW 8.0.8) date 2025-03-24 19:57:08*
%MOMM*%
%LPD*%
G01*
G04 APERTURE LIST*
%ADD10C,0.150000*%
%ADD11C,0.250000*%
%ADD12C,0.500000*%
%ADD13C,0.300000*%
G04 APERTURE END LIST*
D10*
G04 #@! TO.C,H3*
X18200000Y-57000000D02*
G75*
G02*
X11800000Y-57000000I-3200000J0D01*
G01*
X11800000Y-57000000D02*
G75*
G02*
X18200000Y-57000000I3200000J0D01*
G01*
D11*
G04 #@! TO.C,J2*
X17600000Y-31030000D02*
G75*
G02*
X17360000Y-31030000I-120000J0D01*
G01*
X17360000Y-31030000D02*
G75*
G02*
X17600000Y-31030000I120000J0D01*
G01*
X17600000Y-36830000D02*
G75*
G02*
X17360000Y-36830000I-120000J0D01*
G01*
X17360000Y-36830000D02*
G75*
G02*
X17600000Y-36830000I120000J0D01*
G01*
G04 #@! TO.C,SW1*
X19842500Y-13785000D02*
G75*
G02*
X19602500Y-13785000I-120000J0D01*
G01*
X19602500Y-13785000D02*
G75*
G02*
X19842500Y-13785000I120000J0D01*
G01*
X21542500Y-13785000D02*
G75*
G02*
X21302500Y-13785000I-120000J0D01*
G01*
X21302500Y-13785000D02*
G75*
G02*
X21542500Y-13785000I120000J0D01*
G01*
D12*
G04 #@! TO.C,U5*
X28250000Y-13837500D02*
G75*
G02*
X27750000Y-13837500I-250000J0D01*
G01*
X27750000Y-13837500D02*
G75*
G02*
X28250000Y-13837500I250000J0D01*
G01*
D13*
G04 #@! TO.C,Q3*
X48450345Y-54440345D02*
G75*
G02*
X48150345Y-54440345I-150000J0D01*
G01*
X48150345Y-54440345D02*
G75*
G02*
X48450345Y-54440345I150000J0D01*
G01*
G04 #@! TO.C,U3*
X23340000Y-42840000D02*
G75*
G02*
X23040000Y-42840000I-150000J0D01*
G01*
X23040000Y-42840000D02*
G75*
G02*
X23340000Y-42840000I150000J0D01*
G01*
D10*
G04 #@! TO.C,H2*
X60200000Y-15000000D02*
G75*
G02*
X53800000Y-15000000I-3200000J0D01*
G01*
X53800000Y-15000000D02*
G75*
G02*
X60200000Y-15000000I3200000J0D01*
G01*
D13*
G04 #@! TO.C,U4*
X38250000Y-48590000D02*
G75*
G02*
X37950000Y-48590000I-150000J0D01*
G01*
X37950000Y-48590000D02*
G75*
G02*
X38250000Y-48590000I150000J0D01*
G01*
D12*
G04 #@! TO.C,U9*
X33640000Y-51350000D02*
G75*
G02*
X33140000Y-51350000I-250000J0D01*
G01*
X33140000Y-51350000D02*
G75*
G02*
X33640000Y-51350000I250000J0D01*
G01*
G04 #@! TD*
M02*
