M48
; DRILL file {KiCad 8.0.8} date 2025-03-24T19:57:08+0100
; FORMAT={-:-/ absolute / metric / decimal}
; #@! TF.CreationDate,2025-03-24T19:57:08+01:00
; #@! TF.GenerationSoftware,Kicad,Pcbnew,8.0.8
; #@! TF.FileFunction,Plated,1,2,PTH
FMAT,2
METRIC
; #@! TA.AperFunction,Plated,PTH,ViaDrill
T1C0.300
; #@! TA.AperFunction,Plated,PTH,ComponentDrill
T2C0.700
; #@! TA.AperFunction,Plated,PTH,ComponentDrill
T3C0.700
; #@! TA.AperFunction,Plated,PTH,ComponentDrill
T4C0.750
; #@! TA.AperFunction,Plated,PTH,ComponentDrill
T5C0.800
; #@! TA.AperFunction,Plated,PTH,ComponentDrill
T6C0.800
; #@! TA.AperFunction,Plated,PTH,ComponentDrill
T7C1.000
; #@! TA.AperFunction,Plated,PTH,ComponentDrill
T8C1.000
; #@! TA.AperFunction,Plated,PTH,ComponentDrill
T9C1.400
%
G90
G05
T1
X13.7Y-51.014
X14.2Y-47.3
X14.7Y-39.5
X14.8Y-40.5
X15.0Y-36.1
X15.715Y-32.296
X15.99Y-46.262
X16.9Y-35.6
X17.2Y-52.2
X17.6Y-44.9
X18.3Y-28.4
X18.3Y-49.4
X18.5Y-43.5
X18.6Y-20.8
X18.8Y-24.0
X19.0Y-39.9
X19.2Y-46.2
X20.626Y-29.725
X20.8Y-40.5
X21.1Y-27.1
X21.449Y-28.6
X21.6Y-37.1
X21.9Y-30.749
X22.0Y-49.9
X22.3Y-46.4
X22.5Y-28.8
X22.762Y-32.454
X23.176Y-39.524
X23.4Y-18.4
X23.7Y-28.688
X24.0Y-29.9
X24.1Y-37.3
X24.2Y-16.8
X24.4Y-42.3
X24.7Y-31.851
X24.8Y-48.1
X24.824Y-51.576
X24.925Y-52.525
X25.39Y-35.8
X25.6Y-42.0
X26.0Y-47.7
X26.0Y-50.2
X26.7Y-36.7
X26.9Y-38.2
X27.05Y-51.1
X27.05Y-53.65
X28.05Y-51.5
X28.05Y-53.5
X28.1Y-55.2
X28.2Y-42.1
X28.7Y-14.4
X29.5Y-54.0
X29.7Y-55.2
X30.1Y-39.9
X30.1Y-52.0
X30.1Y-52.991
X31.204Y-41.705
X31.4Y-33.1
X32.0Y-45.6
X32.394Y-58.843
X32.5Y-55.326
X32.776Y-52.176
X33.1Y-38.2
X33.2Y-45.6
X33.7Y-33.5
X33.7Y-40.8
X33.9Y-42.1
X34.6Y-30.1
X34.699Y-50.252
X35.1Y-40.981
X35.7Y-30.1
X36.0Y-38.0
X36.2Y-15.8
X36.2Y-18.2
X36.3Y-44.8
X36.8Y-30.1
X37.1Y-47.7
X37.2Y-46.7
X37.2Y-46.7
X37.7Y-33.2
X37.9Y-30.1
X38.5Y-47.3
X38.7Y-45.2
X39.076Y-30.124
X40.534Y-39.7
X40.7Y-52.4
X41.0Y-35.3
X41.5Y-42.0
X42.392Y-46.708
X43.0Y-36.6
X43.4Y-42.2
X43.475Y-40.403
X43.5Y-38.9
X44.5Y-33.8
X45.3Y-37.4
X45.4Y-16.9
X45.5Y-20.5
X45.5Y-25.5
X45.7Y-41.6
X46.0Y-19.0
X46.2Y-24.0
X46.6Y-50.1
X46.7Y-40.5
X46.751Y-47.5
X47.2Y-52.6
X48.3Y-32.9
X48.6Y-46.1
X49.537Y-30.662
X50.7Y-46.9
X51.2Y-43.3
X51.6Y-24.0
X51.9Y-35.5
X53.0Y-45.9
X53.4Y-52.6
T2
X19.723Y-13.785
X21.422Y-13.785
T3
X20.7Y-53.4
X20.7Y-55.4
X55.6Y-48.0
X55.6Y-50.0
T4
X17.48Y-31.03
X17.48Y-36.83
X54.5Y-24.05
X56.5Y-24.05
T6
X14.5Y-16.5
X14.5Y-18.5
X14.5Y-20.5
X14.5Y-22.5
X14.5Y-24.5
X16.5Y-16.5
X16.5Y-18.5
X16.5Y-20.5
X16.5Y-22.5
X16.5Y-24.5
T7
X52.96Y-20.0
X55.5Y-20.0
X58.04Y-20.0
T8
X23.76Y-57.475
X26.3Y-57.475
X28.84Y-57.475
X31.38Y-57.475
X33.92Y-57.475
X36.46Y-57.475
X39.0Y-57.475
X43.95Y-57.5
X46.49Y-57.5
X49.03Y-57.5
X51.57Y-57.5
X54.11Y-57.5
T9
X55.5Y-28.88
X55.5Y-32.69
X55.5Y-36.5
X55.5Y-40.31
X55.5Y-44.12
T5
X14.1Y-29.6G85X13.5Y-29.6
G05
X14.1Y-38.26G85X13.5Y-38.26
G05
X18.38Y-29.6G85X17.58Y-29.6
G05
X18.38Y-38.26G85X17.58Y-38.26
G05
M30
