G04 #@! TF.GenerationSoftware,KiCad,Pcbnew,8.0.8*
G04 #@! TF.CreationDate,2025-03-24T19:57:08+01:00*
G04 #@! TF.ProjectId,cheap-wled-controller,63686561-702d-4776-9c65-642d636f6e74,rev?*
G04 #@! TF.SameCoordinates,Original*
G04 #@! TF.FileFunction,Copper,L1,Top*
G04 #@! TF.FilePolarity,Positive*
%FSLAX46Y46*%
G04 Gerber Fmt 4.6, Leading zero omitted, Abs format (unit mm)*
G04 Created by KiCad (PCBNEW 8.0.8) date 2025-03-24 19:57:08*
%MOMM*%
%LPD*%
G01*
G04 APERTURE LIST*
G04 Aperture macros list*
%AMRoundRect*
0 Rectangle with rounded corners*
0 $1 Rounding radius*
0 $2 $3 $4 $5 $6 $7 $8 $9 X,Y pos of 4 corners*
0 Add a 4 corners polygon primitive as box body*
4,1,4,$2,$3,$4,$5,$6,$7,$8,$9,$2,$3,0*
0 Add four circle primitives for the rounded corners*
1,1,$1+$1,$2,$3*
1,1,$1+$1,$4,$5*
1,1,$1+$1,$6,$7*
1,1,$1+$1,$8,$9*
0 Add four rect primitives between the rounded corners*
20,1,$1+$1,$2,$3,$4,$5,0*
20,1,$1+$1,$4,$5,$6,$7,0*
20,1,$1+$1,$6,$7,$8,$9,0*
20,1,$1+$1,$8,$9,$2,$3,0*%
G04 Aperture macros list end*
G04 #@! TA.AperFunction,SMDPad,CuDef*
%ADD10R,1.410000X1.350000*%
G04 #@! TD*
G04 #@! TA.AperFunction,SMDPad,CuDef*
%ADD11R,1.380000X1.130000*%
G04 #@! TD*
G04 #@! TA.AperFunction,SMDPad,CuDef*
%ADD12R,1.130000X1.380000*%
G04 #@! TD*
G04 #@! TA.AperFunction,ComponentPad*
%ADD13R,1.350000X1.350000*%
G04 #@! TD*
G04 #@! TA.AperFunction,ComponentPad*
%ADD14O,1.350000X1.350000*%
G04 #@! TD*
G04 #@! TA.AperFunction,SMDPad,CuDef*
%ADD15RoundRect,0.150000X-0.512500X-0.150000X0.512500X-0.150000X0.512500X0.150000X-0.512500X0.150000X0*%
G04 #@! TD*
G04 #@! TA.AperFunction,SMDPad,CuDef*
%ADD16RoundRect,0.250000X-0.375000X-0.850000X0.375000X-0.850000X0.375000X0.850000X-0.375000X0.850000X0*%
G04 #@! TD*
G04 #@! TA.AperFunction,ComponentPad*
%ADD17C,0.750000*%
G04 #@! TD*
G04 #@! TA.AperFunction,ComponentPad*
%ADD18O,2.000000X1.200000*%
G04 #@! TD*
G04 #@! TA.AperFunction,ComponentPad*
%ADD19O,1.800000X1.200000*%
G04 #@! TD*
G04 #@! TA.AperFunction,SMDPad,CuDef*
%ADD20R,1.300000X0.300000*%
G04 #@! TD*
G04 #@! TA.AperFunction,ComponentPad*
%ADD21C,0.700000*%
G04 #@! TD*
G04 #@! TA.AperFunction,SMDPad,CuDef*
%ADD22R,0.800000X1.300000*%
G04 #@! TD*
G04 #@! TA.AperFunction,SMDPad,CuDef*
%ADD23R,1.000000X1.200000*%
G04 #@! TD*
G04 #@! TA.AperFunction,ComponentPad*
%ADD24R,1.700000X1.700000*%
G04 #@! TD*
G04 #@! TA.AperFunction,ComponentPad*
%ADD25O,1.700000X1.700000*%
G04 #@! TD*
G04 #@! TA.AperFunction,ComponentPad*
%ADD26C,1.100000*%
G04 #@! TD*
G04 #@! TA.AperFunction,SMDPad,CuDef*
%ADD27R,1.500000X0.900000*%
G04 #@! TD*
G04 #@! TA.AperFunction,SMDPad,CuDef*
%ADD28R,0.900000X1.500000*%
G04 #@! TD*
G04 #@! TA.AperFunction,SMDPad,CuDef*
%ADD29R,0.900000X0.900000*%
G04 #@! TD*
G04 #@! TA.AperFunction,SMDPad,CuDef*
%ADD30R,0.600000X1.000000*%
G04 #@! TD*
G04 #@! TA.AperFunction,SMDPad,CuDef*
%ADD31R,4.410000X4.000000*%
G04 #@! TD*
G04 #@! TA.AperFunction,SMDPad,CuDef*
%ADD32R,1.500000X0.600000*%
G04 #@! TD*
G04 #@! TA.AperFunction,SMDPad,CuDef*
%ADD33R,2.100000X3.300000*%
G04 #@! TD*
G04 #@! TA.AperFunction,ComponentPad*
%ADD34C,1.600000*%
G04 #@! TD*
G04 #@! TA.AperFunction,SMDPad,CuDef*
%ADD35RoundRect,0.112500X-0.237500X0.112500X-0.237500X-0.112500X0.237500X-0.112500X0.237500X0.112500X0*%
G04 #@! TD*
G04 #@! TA.AperFunction,ComponentPad*
%ADD36RoundRect,0.250000X0.350000X0.625000X-0.350000X0.625000X-0.350000X-0.625000X0.350000X-0.625000X0*%
G04 #@! TD*
G04 #@! TA.AperFunction,ComponentPad*
%ADD37O,1.200000X1.750000*%
G04 #@! TD*
G04 #@! TA.AperFunction,SMDPad,CuDef*
%ADD38R,1.000000X1.400000*%
G04 #@! TD*
G04 #@! TA.AperFunction,SMDPad,CuDef*
%ADD39R,1.350000X1.410000*%
G04 #@! TD*
G04 #@! TA.AperFunction,ComponentPad*
%ADD40C,2.200000*%
G04 #@! TD*
G04 #@! TA.AperFunction,SMDPad,CuDef*
%ADD41O,2.050000X0.590000*%
G04 #@! TD*
G04 #@! TA.AperFunction,ViaPad*
%ADD42C,0.600000*%
G04 #@! TD*
G04 #@! TA.AperFunction,Conductor*
%ADD43C,0.200000*%
G04 #@! TD*
G04 #@! TA.AperFunction,Conductor*
%ADD44C,0.250000*%
G04 #@! TD*
G04 #@! TA.AperFunction,Conductor*
%ADD45C,0.400000*%
G04 #@! TD*
G04 #@! TA.AperFunction,Conductor*
%ADD46C,0.800000*%
G04 #@! TD*
G04 #@! TA.AperFunction,Conductor*
%ADD47C,0.600000*%
G04 #@! TD*
G04 #@! TA.AperFunction,Conductor*
%ADD48C,0.350000*%
G04 #@! TD*
G04 APERTURE END LIST*
D10*
G04 #@! TO.P,C8,1,1*
G04 #@! TO.N,GND*
X47230449Y-38716816D03*
G04 #@! TO.P,C8,2,2*
G04 #@! TO.N,+5V*
X49230449Y-38716816D03*
G04 #@! TD*
D11*
G04 #@! TO.P,R4,1,1*
G04 #@! TO.N,Net-(U3-VBUS)*
X25000000Y-40500000D03*
G04 #@! TO.P,R4,2,2*
G04 #@! TO.N,/VBUS_C*
X25000000Y-38500000D03*
G04 #@! TD*
G04 #@! TO.P,R5,1,1*
G04 #@! TO.N,Net-(U3-PG)*
X28000000Y-40500000D03*
G04 #@! TO.P,R5,2,2*
G04 #@! TO.N,/VDD_C*
X28000000Y-38500000D03*
G04 #@! TD*
D12*
G04 #@! TO.P,R14,1,1*
G04 #@! TO.N,Net-(D2-A)*
X14000000Y-45000000D03*
G04 #@! TO.P,R14,2,2*
G04 #@! TO.N,+3.3V*
X16000000Y-45000000D03*
G04 #@! TD*
D10*
G04 #@! TO.P,C29,1,1*
G04 #@! TO.N,/SW_5V*
X37500000Y-35500000D03*
G04 #@! TO.P,C29,2,2*
G04 #@! TO.N,/BOOT*
X39500000Y-35500000D03*
G04 #@! TD*
D13*
G04 #@! TO.P,J4,1,Pin_1*
G04 #@! TO.N,unconnected-(J4-Pin_1-Pad1)*
X14500000Y-16500000D03*
D14*
G04 #@! TO.P,J4,2,Pin_2*
G04 #@! TO.N,unconnected-(J4-Pin_2-Pad2)*
X16500000Y-16500000D03*
G04 #@! TO.P,J4,3,Pin_3*
G04 #@! TO.N,Net-(J4-Pin_3)*
X14500000Y-18500000D03*
G04 #@! TO.P,J4,4,Pin_4*
G04 #@! TO.N,Net-(J4-Pin_10)*
X16500000Y-18500000D03*
G04 #@! TO.P,J4,5,Pin_5*
G04 #@! TO.N,Net-(J4-Pin_5)*
X14500000Y-20500000D03*
G04 #@! TO.P,J4,6,Pin_6*
G04 #@! TO.N,Net-(J4-Pin_10)*
X16500000Y-20500000D03*
G04 #@! TO.P,J4,7,Pin_7*
G04 #@! TO.N,Net-(J4-Pin_7)*
X14500000Y-22500000D03*
G04 #@! TO.P,J4,8,Pin_8*
G04 #@! TO.N,Net-(J4-Pin_10)*
X16500000Y-22500000D03*
G04 #@! TO.P,J4,9,Pin_9*
G04 #@! TO.N,/VDD_C*
X14500000Y-24500000D03*
G04 #@! TO.P,J4,10,Pin_10*
G04 #@! TO.N,Net-(J4-Pin_10)*
X16500000Y-24500000D03*
G04 #@! TD*
D15*
G04 #@! TO.P,U1,1,I/O1*
G04 #@! TO.N,/D-*
X14862500Y-49050000D03*
G04 #@! TO.P,U1,2,GND*
G04 #@! TO.N,GND*
X14862500Y-50000000D03*
G04 #@! TO.P,U1,3,I/O2*
G04 #@! TO.N,/D+*
X14862500Y-50950000D03*
G04 #@! TO.P,U1,4,I/O2*
G04 #@! TO.N,/D+_OUT*
X17137500Y-50950000D03*
G04 #@! TO.P,U1,5,VBUS*
G04 #@! TO.N,unconnected-(U1-VBUS-Pad5)*
X17137500Y-50000000D03*
G04 #@! TO.P,U1,6,I/O1*
G04 #@! TO.N,/D-_OUT*
X17137500Y-49050000D03*
G04 #@! TD*
D12*
G04 #@! TO.P,R6,1,1*
G04 #@! TO.N,+3.3V*
X47500000Y-19000000D03*
G04 #@! TO.P,R6,2,2*
G04 #@! TO.N,Net-(U5-EN)*
X49500000Y-19000000D03*
G04 #@! TD*
G04 #@! TO.P,R20,1,1*
G04 #@! TO.N,/FB*
X47230449Y-35616816D03*
G04 #@! TO.P,R20,2,2*
G04 #@! TO.N,+5V*
X49230449Y-35616816D03*
G04 #@! TD*
D10*
G04 #@! TO.P,C4,1,1*
G04 #@! TO.N,GND*
X47230449Y-44616816D03*
G04 #@! TO.P,C4,2,2*
G04 #@! TO.N,+5V*
X49230449Y-44616816D03*
G04 #@! TD*
G04 #@! TO.P,C1,1,1*
G04 #@! TO.N,GND*
X33200000Y-48900000D03*
G04 #@! TO.P,C1,2,2*
G04 #@! TO.N,/VBUS_C*
X35200000Y-48900000D03*
G04 #@! TD*
D16*
G04 #@! TO.P,L2,1,1*
G04 #@! TO.N,/SW_5V*
X37483856Y-42375092D03*
G04 #@! TO.P,L2,2,2*
G04 #@! TO.N,+5V*
X39633856Y-42375092D03*
G04 #@! TD*
D17*
G04 #@! TO.P,J2,*
G04 #@! TO.N,*
X17480000Y-31030000D03*
X17480000Y-36830000D03*
D18*
G04 #@! TO.P,J2,0*
G04 #@! TO.N,GND*
X17980000Y-29600000D03*
G04 #@! TO.P,J2,1*
X17980000Y-38260000D03*
D19*
G04 #@! TO.P,J2,2*
X13800000Y-38260000D03*
G04 #@! TO.P,J2,3*
X13800000Y-29600000D03*
D20*
G04 #@! TO.P,J2,A1,GND*
X18740000Y-30580000D03*
G04 #@! TO.P,J2,A4,VBUS*
G04 #@! TO.N,/VBUS_C*
X18740000Y-31380000D03*
G04 #@! TO.P,J2,A5,CC1*
G04 #@! TO.N,Net-(D1-K2)*
X18740000Y-32680000D03*
G04 #@! TO.P,J2,A6,D+*
G04 #@! TO.N,/D+*
X18740000Y-33680000D03*
G04 #@! TO.P,J2,A7,D-*
G04 #@! TO.N,/D-*
X18740000Y-34180000D03*
G04 #@! TO.P,J2,A8,SBU1*
G04 #@! TO.N,unconnected-(J2-SBU1-PadA8)*
X18740000Y-35180000D03*
G04 #@! TO.P,J2,A9,VBUS*
G04 #@! TO.N,/VBUS_C*
X18740000Y-36480000D03*
G04 #@! TO.P,J2,A12,GND*
G04 #@! TO.N,GND*
X18740000Y-37280000D03*
G04 #@! TO.P,J2,B1,GND*
X18740000Y-36980000D03*
G04 #@! TO.P,J2,B4,VBUS*
G04 #@! TO.N,/VBUS_C*
X18740000Y-36180000D03*
G04 #@! TO.P,J2,B5,CC2*
G04 #@! TO.N,Net-(D1-K1)*
X18740000Y-35680000D03*
G04 #@! TO.P,J2,B6,D+*
G04 #@! TO.N,/D+*
X18740000Y-34680000D03*
G04 #@! TO.P,J2,B7,D-*
G04 #@! TO.N,/D-*
X18740000Y-33180000D03*
G04 #@! TO.P,J2,B8,SBU2*
G04 #@! TO.N,unconnected-(J2-SBU2-PadB8)*
X18740000Y-32180000D03*
G04 #@! TO.P,J2,B9,VBUS*
G04 #@! TO.N,/VBUS_C*
X18740000Y-31680000D03*
G04 #@! TO.P,J2,B12,GND*
G04 #@! TO.N,GND*
X18740000Y-30880000D03*
G04 #@! TD*
D21*
G04 #@! TO.P,SW1,*
G04 #@! TO.N,*
X19722500Y-13785000D03*
X21422500Y-13785000D03*
D22*
G04 #@! TO.P,SW1,1,1*
G04 #@! TO.N,GND*
X18892500Y-14985000D03*
G04 #@! TO.P,SW1,2,2*
G04 #@! TO.N,Net-(U5-IO0)*
X22252500Y-14985000D03*
D23*
G04 #@! TO.P,SW1,3*
G04 #@! TO.N,N/C*
X22672500Y-13285000D03*
G04 #@! TO.P,SW1,4*
X18472500Y-13285000D03*
G04 #@! TD*
D12*
G04 #@! TO.P,R13,1,1*
G04 #@! TO.N,GND*
X42500000Y-43300000D03*
G04 #@! TO.P,R13,2,2*
G04 #@! TO.N,/FB*
X44500000Y-43300000D03*
G04 #@! TD*
D11*
G04 #@! TO.P,R3,1,1*
G04 #@! TO.N,/VDD_C*
X22000000Y-40500000D03*
G04 #@! TO.P,R3,2,2*
G04 #@! TO.N,/VBUS_C*
X22000000Y-38500000D03*
G04 #@! TD*
D24*
G04 #@! TO.P,J6,1,Pin_1*
G04 #@! TO.N,/GPIO6*
X43950000Y-57500000D03*
D25*
G04 #@! TO.P,J6,2,Pin_2*
G04 #@! TO.N,/GPIO5*
X46490000Y-57500000D03*
G04 #@! TO.P,J6,3,Pin_3*
G04 #@! TO.N,/GPIO4*
X49030000Y-57500000D03*
G04 #@! TO.P,J6,4,Pin_4*
G04 #@! TO.N,GND*
X51570000Y-57500000D03*
G04 #@! TO.P,J6,5,Pin_5*
G04 #@! TO.N,+3.3V*
X54110000Y-57500000D03*
G04 #@! TD*
D12*
G04 #@! TO.P,R10,1,1*
G04 #@! TO.N,/VOLT_OUT*
X27000000Y-35000000D03*
G04 #@! TO.P,R10,2,2*
G04 #@! TO.N,Net-(R10-Pad2)*
X29000000Y-35000000D03*
G04 #@! TD*
D26*
G04 #@! TO.P,C11,1,1*
G04 #@! TO.N,+5V*
X20700000Y-53400000D03*
G04 #@! TO.P,C11,2,2*
G04 #@! TO.N,GND*
X20700000Y-55400000D03*
G04 #@! TD*
D12*
G04 #@! TO.P,R15,1,1*
G04 #@! TO.N,Net-(R10-Pad2)*
X33500000Y-35000000D03*
G04 #@! TO.P,R15,2,2*
G04 #@! TO.N,/VBUS_C*
X31500000Y-35000000D03*
G04 #@! TD*
D26*
G04 #@! TO.P,C10,1,1*
G04 #@! TO.N,+3.3V*
X55600000Y-50000000D03*
G04 #@! TO.P,C10,2,2*
G04 #@! TO.N,GND*
X55600000Y-48000000D03*
G04 #@! TD*
D24*
G04 #@! TO.P,J8,1,Pin_1*
G04 #@! TO.N,+3.3V*
X23760000Y-57475000D03*
D25*
G04 #@! TO.P,J8,2,Pin_2*
G04 #@! TO.N,/TX*
X26300000Y-57475000D03*
G04 #@! TO.P,J8,3,Pin_3*
G04 #@! TO.N,/RX*
X28840000Y-57475000D03*
G04 #@! TO.P,J8,4,Pin_4*
G04 #@! TO.N,GND*
X31380000Y-57475000D03*
G04 #@! TO.P,J8,5,Pin_5*
G04 #@! TO.N,/GPIO38*
X33920000Y-57475000D03*
G04 #@! TO.P,J8,6,Pin_6*
G04 #@! TO.N,/GPIO37*
X36460000Y-57475000D03*
G04 #@! TO.P,J8,7,Pin_7*
G04 #@! TO.N,/GPIO36*
X39000000Y-57475000D03*
G04 #@! TD*
D10*
G04 #@! TO.P,C7,1,1*
G04 #@! TO.N,GND*
X47500000Y-15500000D03*
G04 #@! TO.P,C7,2,2*
G04 #@! TO.N,Net-(U5-EN)*
X49500000Y-15500000D03*
G04 #@! TD*
D12*
G04 #@! TO.P,R2,1,1*
G04 #@! TO.N,GND*
X20000000Y-24500000D03*
G04 #@! TO.P,R2,2,2*
G04 #@! TO.N,Net-(J4-Pin_3)*
X22000000Y-24500000D03*
G04 #@! TD*
D27*
G04 #@! TO.P,U5,1,GND*
G04 #@! TO.N,GND*
X26250000Y-14047500D03*
G04 #@! TO.P,U5,2,3V3*
G04 #@! TO.N,+3.3V*
X26250000Y-15317500D03*
G04 #@! TO.P,U5,3,EN*
G04 #@! TO.N,Net-(U5-EN)*
X26250000Y-16587500D03*
G04 #@! TO.P,U5,4,IO4*
G04 #@! TO.N,/GPIO4*
X26250000Y-17857500D03*
G04 #@! TO.P,U5,5,IO5*
G04 #@! TO.N,/GPIO5*
X26250000Y-19127500D03*
G04 #@! TO.P,U5,6,IO6*
G04 #@! TO.N,/GPIO6*
X26250000Y-20397500D03*
G04 #@! TO.P,U5,7,IO7*
G04 #@! TO.N,/VOLT_OUT*
X26250000Y-21667500D03*
G04 #@! TO.P,U5,8,IO15*
G04 #@! TO.N,unconnected-(U5-IO15-Pad8)*
X26250000Y-22937500D03*
G04 #@! TO.P,U5,9,IO16*
G04 #@! TO.N,unconnected-(U5-IO16-Pad9)*
X26250000Y-24207500D03*
G04 #@! TO.P,U5,10,IO17*
G04 #@! TO.N,unconnected-(U5-IO17-Pad10)*
X26250000Y-25477500D03*
G04 #@! TO.P,U5,11,IO18*
G04 #@! TO.N,/GPIO18*
X26250000Y-26747500D03*
G04 #@! TO.P,U5,12,IO8*
G04 #@! TO.N,/GPIO12*
X26250000Y-28017500D03*
G04 #@! TO.P,U5,13,IO19*
G04 #@! TO.N,/D-_OUT*
X26250000Y-29287500D03*
G04 #@! TO.P,U5,14,IO20*
G04 #@! TO.N,/D+_OUT*
X26250000Y-30557500D03*
D28*
G04 #@! TO.P,U5,15,IO3*
G04 #@! TO.N,unconnected-(U5-IO3-Pad15)*
X28010000Y-31827500D03*
G04 #@! TO.P,U5,16,IO46*
G04 #@! TO.N,unconnected-(U5-IO46-Pad16)*
X29280000Y-31827500D03*
G04 #@! TO.P,U5,17,IO9*
G04 #@! TO.N,unconnected-(U5-IO9-Pad17)*
X30550000Y-31827500D03*
G04 #@! TO.P,U5,18,IO10*
G04 #@! TO.N,unconnected-(U5-IO10-Pad18)*
X31820000Y-31827500D03*
G04 #@! TO.P,U5,19,IO11*
G04 #@! TO.N,unconnected-(U5-IO11-Pad19)*
X33090000Y-31827500D03*
G04 #@! TO.P,U5,20,IO12*
G04 #@! TO.N,unconnected-(U5-IO12-Pad20)*
X34370000Y-31827500D03*
G04 #@! TO.P,U5,21,IO13*
G04 #@! TO.N,unconnected-(U5-IO13-Pad21)*
X35630000Y-31827500D03*
G04 #@! TO.P,U5,22,IO14*
G04 #@! TO.N,unconnected-(U5-IO14-Pad22)*
X36900000Y-31827500D03*
G04 #@! TO.P,U5,23,IO21*
G04 #@! TO.N,unconnected-(U5-IO21-Pad23)*
X38170000Y-31827500D03*
G04 #@! TO.P,U5,24,IO47*
G04 #@! TO.N,/MOS_1*
X39450000Y-31827500D03*
G04 #@! TO.P,U5,25,IO48*
G04 #@! TO.N,unconnected-(U5-IO48-Pad25)*
X40720000Y-31827500D03*
G04 #@! TO.P,U5,26,IO45*
G04 #@! TO.N,unconnected-(U5-IO45-Pad26)*
X41990000Y-31797500D03*
D27*
G04 #@! TO.P,U5,27,IO0*
G04 #@! TO.N,Net-(U5-IO0)*
X43750000Y-30557500D03*
G04 #@! TO.P,U5,28,IO35*
G04 #@! TO.N,/GPIO35*
X43750000Y-29287500D03*
G04 #@! TO.P,U5,29,IO36*
G04 #@! TO.N,/GPIO36*
X43750000Y-28017500D03*
G04 #@! TO.P,U5,30,IO37*
G04 #@! TO.N,/GPIO37*
X43750000Y-26747500D03*
G04 #@! TO.P,U5,31,IO38*
G04 #@! TO.N,/GPIO38*
X43750000Y-25477500D03*
G04 #@! TO.P,U5,32,IO39*
G04 #@! TO.N,/GPIO39*
X43750000Y-24207500D03*
G04 #@! TO.P,U5,33,IO40*
G04 #@! TO.N,/GPIO40*
X43750000Y-22937500D03*
G04 #@! TO.P,U5,34,IO41*
G04 #@! TO.N,/GPIO41*
X43750000Y-21667500D03*
G04 #@! TO.P,U5,35,IO42*
G04 #@! TO.N,/GPIO42*
X43750000Y-20397500D03*
G04 #@! TO.P,U5,36,RXD0*
G04 #@! TO.N,/RX*
X43750000Y-19127500D03*
G04 #@! TO.P,U5,37,TXD0*
G04 #@! TO.N,/TX*
X43750000Y-17857500D03*
G04 #@! TO.P,U5,38,IO2*
G04 #@! TO.N,unconnected-(U5-IO2-Pad38)*
X43750000Y-16587500D03*
G04 #@! TO.P,U5,39,IO1*
G04 #@! TO.N,/LED_DATA*
X43750000Y-15317500D03*
G04 #@! TO.P,U5,40,GND*
G04 #@! TO.N,GND*
X43750000Y-14047500D03*
D29*
G04 #@! TO.P,U5,41,EPAD*
X32100000Y-20367500D03*
X32100000Y-21767500D03*
X32100000Y-23167500D03*
X33500000Y-20367500D03*
X33500000Y-21767500D03*
X33500000Y-23167500D03*
X34900000Y-20367500D03*
X34900000Y-21767500D03*
X34900000Y-23167500D03*
G04 #@! TD*
D30*
G04 #@! TO.P,Q3,1,G*
G04 #@! TO.N,Net-(Q3-G)*
X52150345Y-54280345D03*
G04 #@! TO.P,Q3,2,D*
G04 #@! TO.N,/VBUS_C*
X48340345Y-48440345D03*
X49620345Y-48440345D03*
D31*
X50250345Y-50750345D03*
D30*
X50880345Y-48440345D03*
X52150345Y-48440345D03*
G04 #@! TO.P,Q3,3,S*
G04 #@! TO.N,/LED_1_VCC*
X48340345Y-54280345D03*
X49620345Y-54280345D03*
X50880345Y-54280345D03*
G04 #@! TD*
D12*
G04 #@! TO.P,R7,1,1*
G04 #@! TO.N,+3.3V*
X47500000Y-28500000D03*
G04 #@! TO.P,R7,2,2*
G04 #@! TO.N,Net-(U5-IO0)*
X49500000Y-28500000D03*
G04 #@! TD*
G04 #@! TO.P,R22,1,1*
G04 #@! TO.N,GND*
X42500000Y-45500000D03*
G04 #@! TO.P,R22,2,2*
G04 #@! TO.N,/FB*
X44500000Y-45500000D03*
G04 #@! TD*
D32*
G04 #@! TO.P,U3,1,VDD*
G04 #@! TO.N,/VDD_C*
X24000000Y-43000000D03*
G04 #@! TO.P,U3,2,CFG2*
G04 #@! TO.N,unconnected-(U3-CFG2-Pad2)*
X24000000Y-44000000D03*
G04 #@! TO.P,U3,3,CFG3*
G04 #@! TO.N,unconnected-(U3-CFG3-Pad3)*
X24000000Y-45000000D03*
G04 #@! TO.P,U3,4,DP*
G04 #@! TO.N,unconnected-(U3-DP-Pad4)*
X24000000Y-46000000D03*
G04 #@! TO.P,U3,5,DM*
G04 #@! TO.N,unconnected-(U3-DM-Pad5)*
X24000000Y-47000000D03*
G04 #@! TO.P,U3,6,CC2*
G04 #@! TO.N,Net-(D1-K1)*
X30000000Y-47000000D03*
G04 #@! TO.P,U3,7,CC1*
G04 #@! TO.N,Net-(D1-K2)*
X30000000Y-46000000D03*
G04 #@! TO.P,U3,8,VBUS*
G04 #@! TO.N,Net-(U3-VBUS)*
X30000000Y-45000000D03*
G04 #@! TO.P,U3,9,CFG1*
G04 #@! TO.N,Net-(J4-Pin_10)*
X30000000Y-44000000D03*
G04 #@! TO.P,U3,10,PG*
G04 #@! TO.N,Net-(U3-PG)*
X30000000Y-43000000D03*
D33*
G04 #@! TO.P,U3,11*
G04 #@! TO.N,GND*
X27000000Y-45000000D03*
G04 #@! TD*
D12*
G04 #@! TO.P,R16,1,1*
G04 #@! TO.N,GND*
X22000000Y-21500000D03*
G04 #@! TO.P,R16,2,2*
G04 #@! TO.N,Net-(J4-Pin_5)*
X20000000Y-21500000D03*
G04 #@! TD*
D15*
G04 #@! TO.P,U7,1,GND*
G04 #@! TO.N,GND*
X42362500Y-38550000D03*
G04 #@! TO.P,U7,2,SW*
G04 #@! TO.N,/SW_5V*
X42362500Y-39500000D03*
G04 #@! TO.P,U7,3,VIN*
G04 #@! TO.N,/VBUS_C*
X42362500Y-40450000D03*
G04 #@! TO.P,U7,4,FB*
G04 #@! TO.N,/FB*
X44637500Y-40450000D03*
G04 #@! TO.P,U7,5,EN*
G04 #@! TO.N,unconnected-(U7-EN-Pad5)*
X44637500Y-39500000D03*
G04 #@! TO.P,U7,6,BOOT*
G04 #@! TO.N,/BOOT*
X44637500Y-38550000D03*
G04 #@! TD*
D12*
G04 #@! TO.P,R17,1,1*
G04 #@! TO.N,GND*
X22000000Y-18500000D03*
G04 #@! TO.P,R17,2,2*
G04 #@! TO.N,Net-(J4-Pin_7)*
X20000000Y-18500000D03*
G04 #@! TD*
D34*
G04 #@! TO.P,LED1,1,OUT*
G04 #@! TO.N,/GPIO41*
X58040000Y-20000000D03*
G04 #@! TO.P,LED1,2,GND*
G04 #@! TO.N,GND*
X55500000Y-20000000D03*
G04 #@! TO.P,LED1,3,VS*
G04 #@! TO.N,+3.3V*
X52960000Y-20000000D03*
G04 #@! TD*
D12*
G04 #@! TO.P,R11,1,1*
G04 #@! TO.N,GND*
X22500000Y-35000000D03*
G04 #@! TO.P,R11,2,2*
G04 #@! TO.N,/VOLT_OUT*
X24500000Y-35000000D03*
G04 #@! TD*
D10*
G04 #@! TO.P,C6,1,1*
G04 #@! TO.N,GND*
X47500000Y-25500000D03*
G04 #@! TO.P,C6,2,2*
G04 #@! TO.N,+3.3V*
X49500000Y-25500000D03*
G04 #@! TD*
D35*
G04 #@! TO.P,D1,1,K1*
G04 #@! TO.N,Net-(D1-K1)*
X21000000Y-49350000D03*
G04 #@! TO.P,D1,2,K2*
G04 #@! TO.N,Net-(D1-K2)*
X21000000Y-50650000D03*
G04 #@! TO.P,D1,3,A*
G04 #@! TO.N,GND*
X23000000Y-50000000D03*
G04 #@! TD*
D10*
G04 #@! TO.P,C5,1,1*
G04 #@! TO.N,GND*
X42500000Y-35500000D03*
G04 #@! TO.P,C5,2,2*
G04 #@! TO.N,/VBUS_C*
X44500000Y-35500000D03*
G04 #@! TD*
D36*
G04 #@! TO.P,J7,1,Pin_1*
G04 #@! TO.N,+5V*
X56500000Y-24050000D03*
D37*
G04 #@! TO.P,J7,2,Pin_2*
G04 #@! TO.N,GND*
X54500000Y-24050000D03*
G04 #@! TD*
D38*
G04 #@! TO.P,D2,1,K*
G04 #@! TO.N,GND*
X16050000Y-42400000D03*
G04 #@! TO.P,D2,2,A*
G04 #@! TO.N,Net-(D2-A)*
X13950000Y-42400000D03*
G04 #@! TD*
D10*
G04 #@! TO.P,C3,1,1*
G04 #@! TO.N,GND*
X47500000Y-22500000D03*
G04 #@! TO.P,C3,2,2*
G04 #@! TO.N,+3.3V*
X49500000Y-22500000D03*
G04 #@! TD*
D39*
G04 #@! TO.P,C2,1,1*
G04 #@! TO.N,GND*
X31500000Y-40500000D03*
G04 #@! TO.P,C2,2,2*
G04 #@! TO.N,/VDD_C*
X31500000Y-38500000D03*
G04 #@! TD*
D10*
G04 #@! TO.P,C9,1,1*
G04 #@! TO.N,GND*
X47230449Y-41666816D03*
G04 #@! TO.P,C9,2,2*
G04 #@! TO.N,+5V*
X49230449Y-41666816D03*
G04 #@! TD*
D40*
G04 #@! TO.P,J10,1,Pin_1*
G04 #@! TO.N,/LED_1_VCC*
X55500000Y-28880000D03*
G04 #@! TO.P,J10,2,Pin_2*
X55500000Y-32690000D03*
G04 #@! TO.P,J10,3,Pin_3*
G04 #@! TO.N,/LED_DATA*
X55500000Y-36500000D03*
G04 #@! TO.P,J10,4,Pin_4*
G04 #@! TO.N,GND*
X55500000Y-40310000D03*
G04 #@! TO.P,J10,5,Pin_5*
X55500000Y-44120000D03*
G04 #@! TD*
D10*
G04 #@! TO.P,C30,1,1*
G04 #@! TO.N,/FB*
X37500000Y-38400000D03*
G04 #@! TO.P,C30,2,2*
G04 #@! TO.N,+5V*
X39500000Y-38400000D03*
G04 #@! TD*
D41*
G04 #@! TO.P,U4,1,V+*
G04 #@! TO.N,/VBUS_C*
X38730000Y-48590000D03*
G04 #@! TO.P,U4,2,Input*
G04 #@! TO.N,/MOS_1*
X38730000Y-49870000D03*
G04 #@! TO.P,U4,3,Source*
G04 #@! TO.N,/LED_1_VCC*
X38730000Y-51130000D03*
G04 #@! TO.P,U4,4,GND*
G04 #@! TO.N,GND*
X38730000Y-52400000D03*
G04 #@! TO.P,U4,5,Gate*
G04 #@! TO.N,Net-(Q3-G)*
X44270000Y-52400000D03*
G04 #@! TO.P,U4,6,NC*
G04 #@! TO.N,unconnected-(U4-NC-Pad6)*
X44270000Y-51130000D03*
G04 #@! TO.P,U4,7,NC*
G04 #@! TO.N,unconnected-(U4-NC-Pad7)*
X44270000Y-49870000D03*
G04 #@! TO.P,U4,8,NC*
G04 #@! TO.N,unconnected-(U4-NC-Pad8)*
X44270000Y-48590000D03*
G04 #@! TD*
D42*
G04 #@! TO.N,Net-(D1-K1)*
X24824265Y-51575735D03*
X15000000Y-36100000D03*
X14700000Y-39500000D03*
X24800000Y-48100000D03*
X16900000Y-35600000D03*
G04 #@! TO.N,Net-(D1-K2)*
X26000000Y-50200000D03*
X26000000Y-47700000D03*
X15715133Y-32295510D03*
G04 #@! TO.N,/VDD_C*
X20800000Y-40500000D03*
X25600000Y-42000000D03*
X26900000Y-38200000D03*
X24400000Y-42300000D03*
G04 #@! TO.N,/LED_DATA*
X45400000Y-16900000D03*
X51900000Y-35500000D03*
G04 #@! TO.N,/D+*
X18300000Y-49400000D03*
X19200000Y-46200000D03*
G04 #@! TO.N,/D-*
X18500000Y-43500000D03*
X14200000Y-47300000D03*
G04 #@! TO.N,GND*
X22000000Y-49900000D03*
X18300000Y-28400000D03*
X22761584Y-32453849D03*
X18600000Y-20800000D03*
X30100000Y-52990895D03*
X46200000Y-24000000D03*
X32775735Y-52175735D03*
X21900000Y-30748527D03*
X40700000Y-52400000D03*
X14800000Y-40500000D03*
X18800000Y-24000000D03*
X43500000Y-38900000D03*
X30100000Y-39900000D03*
X51600000Y-24000000D03*
X28200000Y-42100000D03*
X13700001Y-51013922D03*
X36200000Y-15800000D03*
X23400000Y-18400000D03*
X43000000Y-36600000D03*
X36200000Y-18200000D03*
X43400000Y-42200000D03*
X22300000Y-46400000D03*
X30100000Y-52000000D03*
X46700000Y-40500000D03*
X17600000Y-44900000D03*
X32500000Y-55325735D03*
G04 #@! TO.N,+3.3V*
X28700000Y-14400000D03*
X49537500Y-30662500D03*
X46000000Y-19000000D03*
X27050000Y-53650000D03*
X27050000Y-51100000D03*
G04 #@! TO.N,/VBUS_C*
X41500000Y-42000000D03*
X37100000Y-47700000D03*
X24700000Y-31851472D03*
X23175735Y-39524265D03*
X31400000Y-33100000D03*
X43475000Y-40402661D03*
X44500000Y-33800000D03*
X34699151Y-50252320D03*
X24100000Y-37300000D03*
X19000000Y-39900000D03*
X33100000Y-38200000D03*
G04 #@! TO.N,/FB*
X45700000Y-41600000D03*
X36000000Y-38000000D03*
G04 #@! TO.N,+5V*
X38700000Y-45200000D03*
X37200000Y-46700000D03*
X48600000Y-46100000D03*
X37200000Y-46700000D03*
G04 #@! TO.N,/GPIO4*
X28050000Y-51500000D03*
X28050000Y-53500000D03*
X32000000Y-45600000D03*
X31203528Y-41704999D03*
X29500000Y-54000000D03*
X21100000Y-27100000D03*
G04 #@! TO.N,/GPIO6*
X34600000Y-30100000D03*
X36300000Y-44800000D03*
X46751472Y-47500000D03*
X42391942Y-46708058D03*
X35099999Y-40981185D03*
G04 #@! TO.N,/GPIO5*
X21599991Y-37099992D03*
X28100000Y-55200000D03*
X21448527Y-28600000D03*
X20626396Y-29725074D03*
X24925000Y-52525000D03*
X32394017Y-58842547D03*
X29700000Y-55200000D03*
G04 #@! TO.N,/TX*
X40533856Y-39700000D03*
X38500000Y-47300000D03*
X35700000Y-30100000D03*
G04 #@! TO.N,/GPIO37*
X33200000Y-45600000D03*
X37700000Y-33200000D03*
X33700000Y-40800000D03*
X33700000Y-33500000D03*
X37900000Y-30100000D03*
G04 #@! TO.N,/GPIO36*
X46600000Y-50100000D03*
X51200000Y-43300000D03*
X39075735Y-30124265D03*
X41000000Y-35300000D03*
X45300000Y-37400000D03*
G04 #@! TO.N,/RX*
X36800000Y-30100000D03*
X33900000Y-42100000D03*
G04 #@! TO.N,/GPIO38*
X53000000Y-45900000D03*
X50700000Y-46900000D03*
X45500000Y-25500000D03*
G04 #@! TO.N,Net-(Q3-G)*
X53400000Y-52600000D03*
X47200000Y-52600000D03*
G04 #@! TO.N,Net-(U5-IO0)*
X24200000Y-16800000D03*
X48300000Y-32900000D03*
G04 #@! TO.N,/VOLT_OUT*
X26700000Y-36700000D03*
X23700000Y-28687500D03*
X25390000Y-35800000D03*
G04 #@! TO.N,/D-_OUT*
X22500000Y-28800000D03*
X15989649Y-46262440D03*
G04 #@! TO.N,/D+_OUT*
X17200000Y-52200000D03*
X24000000Y-29900000D03*
G04 #@! TO.N,/GPIO41*
X45500000Y-20500000D03*
G04 #@! TD*
D43*
G04 #@! TO.N,Net-(D1-K1)*
X17890000Y-35680000D02*
X18740000Y-35680000D01*
X24728885Y-58800000D02*
X17800000Y-58800000D01*
X28513480Y-48486520D02*
X25186520Y-48486520D01*
X13100000Y-51262448D02*
X13100000Y-41100000D01*
X18740000Y-35680000D02*
X18733000Y-35673000D01*
X20300000Y-50886480D02*
X20300000Y-50050000D01*
X25186520Y-48486520D02*
X24800000Y-48100000D01*
X20989255Y-51575735D02*
X20300000Y-50886480D01*
X17500000Y-55662448D02*
X13100000Y-51262448D01*
X21900000Y-51575735D02*
X20989255Y-51575735D01*
X17500000Y-58500000D02*
X17500000Y-55662448D01*
X25028885Y-53625278D02*
X25028885Y-58500000D01*
X25028885Y-58500000D02*
X24728885Y-58800000D01*
X13100000Y-41100000D02*
X14700000Y-39500000D01*
X24824265Y-51575735D02*
X21900000Y-51575735D01*
X21900000Y-51575735D02*
X22979342Y-51575735D01*
X22979342Y-51575735D02*
X25028885Y-53625278D01*
X20300000Y-50050000D02*
X21000000Y-49350000D01*
X17810000Y-35600000D02*
X17890000Y-35680000D01*
X17800000Y-58800000D02*
X17500000Y-58500000D01*
X16900000Y-35600000D02*
X17810000Y-35600000D01*
X30000000Y-47000000D02*
X28513480Y-48486520D01*
G04 #@! TO.N,Net-(D1-K2)*
X21250000Y-50900000D02*
X21000000Y-50650000D01*
X16099623Y-32680000D02*
X18740000Y-32680000D01*
X26000000Y-47700000D02*
X27600000Y-47700000D01*
X26000000Y-50200000D02*
X25300000Y-50900000D01*
X28600000Y-46450000D02*
X29050000Y-46000000D01*
X25300000Y-50900000D02*
X21250000Y-50900000D01*
X15715133Y-32295510D02*
X16099623Y-32680000D01*
X28600000Y-46700000D02*
X28600000Y-46450000D01*
X29050000Y-46000000D02*
X30000000Y-46000000D01*
X27600000Y-47700000D02*
X28600000Y-46700000D01*
D44*
G04 #@! TO.N,/VDD_C*
X28000000Y-38500000D02*
X27200000Y-38500000D01*
D43*
X20026396Y-28726396D02*
X20026396Y-29973603D01*
X24000000Y-43000000D02*
X24000000Y-42700000D01*
X20725074Y-30325074D02*
X20900000Y-30500000D01*
X14500000Y-24500000D02*
X14552792Y-24500000D01*
X14552792Y-24500000D02*
X17352792Y-27300000D01*
X18600000Y-27300000D02*
X20026396Y-28726396D01*
X20026396Y-29973603D02*
X20377867Y-30325074D01*
X24000000Y-43000000D02*
X24600000Y-43000000D01*
D44*
X28000000Y-38500000D02*
X31500000Y-38500000D01*
D43*
X24600000Y-43000000D02*
X25600000Y-42000000D01*
X20900000Y-39400000D02*
X22000000Y-40500000D01*
X24000000Y-42700000D02*
X24400000Y-42300000D01*
X20800000Y-40500000D02*
X22000000Y-40500000D01*
D44*
X27200000Y-38500000D02*
X26900000Y-38200000D01*
D43*
X17352792Y-27300000D02*
X18600000Y-27300000D01*
X20377867Y-30325074D02*
X20725074Y-30325074D01*
X20900000Y-30500000D02*
X20900000Y-39400000D01*
G04 #@! TO.N,/LED_DATA*
X44280000Y-15317500D02*
X43750000Y-15317500D01*
X45400000Y-16437500D02*
X44280000Y-15317500D01*
X55500000Y-36500000D02*
X52900000Y-36500000D01*
X52900000Y-36500000D02*
X51900000Y-35500000D01*
X45400000Y-16900000D02*
X45400000Y-16437500D01*
G04 #@! TO.N,/D+*
X14862500Y-52062500D02*
X14862500Y-50950000D01*
X15600000Y-52800000D02*
X14862500Y-52062500D01*
X18740000Y-34680000D02*
X19640000Y-34680000D01*
X20200000Y-45200000D02*
X19200000Y-46200000D01*
X19640000Y-34680000D02*
X20573000Y-35613000D01*
X18740000Y-34680000D02*
X17840000Y-34680000D01*
X18300000Y-51948529D02*
X17448529Y-52800000D01*
X20573000Y-35613000D02*
X20573000Y-39878471D01*
X17448529Y-52800000D02*
X15600000Y-52800000D01*
X17790000Y-33730000D02*
X17840000Y-33680000D01*
X17840000Y-34680000D02*
X17790000Y-34630000D01*
X20200000Y-40251471D02*
X20200000Y-45200000D01*
X17840000Y-33680000D02*
X18740000Y-33680000D01*
X17790000Y-34630000D02*
X17790000Y-33730000D01*
X20573000Y-39878471D02*
X20200000Y-40251471D01*
X18300000Y-49400000D02*
X18300000Y-51948529D01*
G04 #@! TO.N,/D-*
X19640000Y-34180000D02*
X19690000Y-34130000D01*
X19580000Y-33180000D02*
X18740000Y-33180000D01*
X18740000Y-34180000D02*
X19640000Y-34180000D01*
X14200000Y-48387500D02*
X14200000Y-47300000D01*
X16259531Y-39573875D02*
X16259531Y-34798021D01*
X18500000Y-41814344D02*
X16259531Y-39573875D01*
X18500000Y-43500000D02*
X18500000Y-41814344D01*
X17877552Y-33180000D02*
X18740000Y-33180000D01*
X16259531Y-34798021D02*
X17877552Y-33180000D01*
X19690000Y-33290000D02*
X19580000Y-33180000D01*
X19690000Y-34130000D02*
X19690000Y-33290000D01*
X14862500Y-49050000D02*
X14200000Y-48387500D01*
G04 #@! TO.N,GND*
X43400000Y-42200000D02*
X43300000Y-42200000D01*
X15939748Y-40500000D02*
X14800000Y-40500000D01*
X19500000Y-30300000D02*
X19500000Y-28900000D01*
D45*
X21900000Y-30748527D02*
X21900000Y-31592265D01*
D43*
X19500000Y-28900000D02*
X19000000Y-28400000D01*
X17400000Y-41960252D02*
X15939748Y-40500000D01*
X17600000Y-44900000D02*
X17400000Y-44700000D01*
X46200000Y-23900000D02*
X46200000Y-24000000D01*
X17400000Y-44700000D02*
X17400000Y-41960252D01*
X14200001Y-50000000D02*
X13700001Y-50500000D01*
X32500000Y-55325735D02*
X30165160Y-52990895D01*
X22600000Y-42800000D02*
X22600000Y-46100000D01*
X27500000Y-41400000D02*
X24000000Y-41400000D01*
X14862500Y-50000000D02*
X14200001Y-50000000D01*
X42362500Y-38550000D02*
X43150000Y-38550000D01*
X22600000Y-46100000D02*
X22300000Y-46400000D01*
X38730000Y-52400000D02*
X40700000Y-52400000D01*
X22100000Y-50000000D02*
X23000000Y-50000000D01*
X18740000Y-30580000D02*
X19220000Y-30580000D01*
X28200000Y-42100000D02*
X27500000Y-41400000D01*
X22000000Y-49900000D02*
X22100000Y-50000000D01*
X20000000Y-24500000D02*
X19300000Y-24500000D01*
X43150000Y-38550000D02*
X43500000Y-38900000D01*
X13700001Y-50500000D02*
X13700001Y-51013922D01*
X19220000Y-30580000D02*
X19500000Y-30300000D01*
X43300000Y-42200000D02*
X42500000Y-43000000D01*
D45*
X21900000Y-31592265D02*
X22761584Y-32453849D01*
D43*
X30165160Y-52990895D02*
X30100000Y-52990895D01*
X19000000Y-28400000D02*
X18300000Y-28400000D01*
X32500000Y-55325735D02*
X32325735Y-55325735D01*
X19300000Y-24500000D02*
X18800000Y-24000000D01*
X24000000Y-41400000D02*
X22600000Y-42800000D01*
D46*
G04 #@! TO.N,+3.3V*
X19200000Y-48200000D02*
X16000000Y-45000000D01*
X18350000Y-53023654D02*
X19200000Y-52173654D01*
X18350000Y-57350000D02*
X18350000Y-53023654D01*
X51760000Y-21200000D02*
X52960000Y-20000000D01*
X49500000Y-21920000D02*
X47500000Y-19920000D01*
X49537500Y-30662500D02*
X49162500Y-30662500D01*
X49162500Y-30662500D02*
X47500000Y-29000000D01*
X18714456Y-57714456D02*
X18350000Y-57350000D01*
X50800000Y-21200000D02*
X51760000Y-21200000D01*
X23520544Y-57714456D02*
X18714456Y-57714456D01*
X49500000Y-25500000D02*
X49500000Y-22500000D01*
X49500000Y-22500000D02*
X50800000Y-21200000D01*
X47500000Y-19920000D02*
X47500000Y-19000000D01*
X27782500Y-15317500D02*
X26250000Y-15317500D01*
X47500000Y-29000000D02*
X47500000Y-28500000D01*
X47500000Y-28500000D02*
X47500000Y-28000000D01*
X47500000Y-19000000D02*
X46000000Y-19000000D01*
X28700000Y-14400000D02*
X27782500Y-15317500D01*
X49500000Y-26000000D02*
X49500000Y-25500000D01*
X19200000Y-52173654D02*
X19200000Y-48200000D01*
X27050000Y-51100000D02*
X27050000Y-53650000D01*
X47500000Y-28000000D02*
X49500000Y-26000000D01*
X23760000Y-57475000D02*
X23520544Y-57714456D01*
X49500000Y-22500000D02*
X49500000Y-21920000D01*
D44*
G04 #@! TO.N,/VBUS_C*
X41500000Y-42000000D02*
X41400000Y-41900000D01*
X18005731Y-44200000D02*
X18805410Y-44200000D01*
X19715000Y-36505000D02*
X19690000Y-36480000D01*
X45800000Y-50200000D02*
X46350345Y-50750345D01*
X34699151Y-50252320D02*
X34699151Y-49400849D01*
X16608259Y-31600000D02*
X15151471Y-31600000D01*
X41400000Y-41412500D02*
X41400000Y-45920000D01*
D43*
X44500000Y-35500000D02*
X44500000Y-33800000D01*
D44*
X15673000Y-39735448D02*
X17800000Y-41862448D01*
X33100000Y-38183884D02*
X31500000Y-36583884D01*
X24200000Y-38500000D02*
X25000000Y-38500000D01*
X45800000Y-48200000D02*
X45800000Y-50200000D01*
X19151530Y-41986022D02*
X19611294Y-41526258D01*
D43*
X43475000Y-40402661D02*
X42409839Y-40402661D01*
D44*
X25000000Y-38500000D02*
X25000000Y-38200000D01*
X45200000Y-47600000D02*
X45800000Y-48200000D01*
X46350345Y-50750345D02*
X50250345Y-50750345D01*
X31500000Y-36583884D02*
X31500000Y-35000000D01*
X19000000Y-39900000D02*
X19000000Y-39500000D01*
X14800000Y-34727000D02*
X15673000Y-35600000D01*
X41060000Y-46260000D02*
X38730000Y-48590000D01*
X42362500Y-40450000D02*
X41400000Y-41412500D01*
D43*
X34699151Y-49400849D02*
X35200000Y-48900000D01*
D44*
X19611294Y-40511294D02*
X19000000Y-39900000D01*
X25000000Y-38200000D02*
X24100000Y-37300000D01*
X37100000Y-47700000D02*
X37840000Y-47700000D01*
X33100000Y-38200000D02*
X33100000Y-38183884D01*
X23175735Y-39524265D02*
X24200000Y-38500000D01*
X41400000Y-41900000D02*
X41400000Y-41412500D01*
X16970619Y-31962360D02*
X16608259Y-31600000D01*
X18740000Y-31680000D02*
X17971191Y-31680000D01*
X41400000Y-45920000D02*
X41060000Y-46260000D01*
X19611294Y-41526258D02*
X19611294Y-40511294D01*
X18805410Y-44200000D02*
X19151530Y-43853880D01*
X14800000Y-31951471D02*
X14800000Y-34727000D01*
X24700000Y-31851472D02*
X25948528Y-33100000D01*
X15673000Y-35600000D02*
X15673000Y-39735448D01*
X17688831Y-31962360D02*
X16970619Y-31962360D01*
X17800000Y-43994269D02*
X18005731Y-44200000D01*
D43*
X42409839Y-40402661D02*
X42362500Y-40450000D01*
D44*
X37840000Y-47700000D02*
X38730000Y-48590000D01*
X15151471Y-31600000D02*
X14800000Y-31951471D01*
X18740000Y-36480000D02*
X18268442Y-36480000D01*
X42400000Y-47600000D02*
X45200000Y-47600000D01*
X41060000Y-46260000D02*
X42400000Y-47600000D01*
X19715000Y-38785000D02*
X19715000Y-36505000D01*
X18268442Y-31380000D02*
X18268442Y-31395332D01*
X19000000Y-39500000D02*
X19715000Y-38785000D01*
X23175735Y-39524265D02*
X23024265Y-39524265D01*
X17800000Y-41862448D02*
X17800000Y-43994269D01*
X17971191Y-31680000D02*
X17688831Y-31962360D01*
X23024265Y-39524265D02*
X22000000Y-38500000D01*
X19690000Y-36480000D02*
X18740000Y-36480000D01*
X25948528Y-33100000D02*
X31400000Y-33100000D01*
X19151530Y-43853880D02*
X19151530Y-41986022D01*
D43*
G04 #@! TO.N,Net-(U5-EN)*
X41797367Y-13202633D02*
X47202633Y-13202633D01*
X49500000Y-19000000D02*
X49500000Y-15500000D01*
X47202633Y-13202633D02*
X49500000Y-15500000D01*
X26250000Y-16587500D02*
X26562500Y-16900000D01*
X38100000Y-16900000D02*
X41797367Y-13202633D01*
X26562500Y-16900000D02*
X38100000Y-16900000D01*
G04 #@! TO.N,/BOOT*
X41950000Y-37950000D02*
X39500000Y-35500000D01*
X44637500Y-38550000D02*
X44037500Y-37950000D01*
X44037500Y-37950000D02*
X41950000Y-37950000D01*
D45*
G04 #@! TO.N,/SW_5V*
X40225000Y-37025000D02*
X40800000Y-37600000D01*
D43*
X40105000Y-37025000D02*
X39025000Y-37025000D01*
D45*
X37483856Y-42375092D02*
X35200000Y-40091236D01*
X40800000Y-38599999D02*
X41700001Y-39500000D01*
X35200000Y-37751471D02*
X35926471Y-37025000D01*
X35926471Y-37025000D02*
X40105000Y-37025000D01*
X39025000Y-37025000D02*
X37500000Y-35500000D01*
D43*
X40105000Y-37025000D02*
X40225000Y-37025000D01*
X41700001Y-39500000D02*
X42362500Y-39500000D01*
D45*
X40800000Y-37600000D02*
X40800000Y-38599999D01*
X35200000Y-40091236D02*
X35200000Y-37751471D01*
D43*
G04 #@! TO.N,/FB*
X45299999Y-40450000D02*
X46000000Y-39749999D01*
X46000000Y-36847265D02*
X47230449Y-35616816D01*
X44500000Y-40587500D02*
X44637500Y-40450000D01*
X44637500Y-40450000D02*
X45299999Y-40450000D01*
X45700000Y-42700000D02*
X45400000Y-43000000D01*
X45400000Y-43000000D02*
X44500000Y-43000000D01*
X45700000Y-41600000D02*
X45700000Y-42700000D01*
X37500000Y-38000000D02*
X36000000Y-38000000D01*
X46000000Y-39749999D02*
X46000000Y-36847265D01*
X44500000Y-45500000D02*
X44500000Y-40587500D01*
D46*
G04 #@! TO.N,+5V*
X56500000Y-25500000D02*
X56000000Y-26000000D01*
X48700000Y-46100000D02*
X49300000Y-45500000D01*
X52500000Y-32347265D02*
X49230449Y-35616816D01*
X56500000Y-24050000D02*
X56500000Y-25500000D01*
X38700000Y-45200000D02*
X39000000Y-44900000D01*
X56000000Y-26000000D02*
X52500000Y-26000000D01*
X49300000Y-45500000D02*
X49300000Y-44686367D01*
X49230449Y-44616816D02*
X49230449Y-41666816D01*
X39633856Y-44266144D02*
X38700000Y-45200000D01*
X39633856Y-42375092D02*
X39633856Y-38133856D01*
X49230449Y-38716816D02*
X49230449Y-35616816D01*
X49300000Y-44686367D02*
X49230449Y-44616816D01*
X49230449Y-41666816D02*
X49230449Y-38716816D01*
D47*
X39633856Y-38133856D02*
X39500000Y-38000000D01*
D46*
X39633856Y-42375092D02*
X39633856Y-44266144D01*
X52500000Y-26000000D02*
X52500000Y-32347265D01*
D47*
X39500000Y-42241236D02*
X39633856Y-42375092D01*
D46*
X48600000Y-46100000D02*
X48700000Y-46100000D01*
X38700000Y-45200000D02*
X37200000Y-46700000D01*
D43*
G04 #@! TO.N,Net-(D2-A)*
X14000000Y-42100000D02*
X13900000Y-42000000D01*
X14000000Y-45000000D02*
X14000000Y-42100000D01*
G04 #@! TO.N,Net-(J4-Pin_3)*
X21010000Y-23510000D02*
X22000000Y-24500000D01*
X19510000Y-23510000D02*
X21010000Y-23510000D01*
X17600000Y-21600000D02*
X19510000Y-23510000D01*
X16999193Y-17499193D02*
X17600000Y-18100000D01*
X15500807Y-17499193D02*
X16999193Y-17499193D01*
X17600000Y-18100000D02*
X17600000Y-21600000D01*
X14500000Y-18500000D02*
X15500807Y-17499193D01*
G04 #@! TO.N,Net-(J4-Pin_10)*
X27010000Y-39635000D02*
X28990000Y-39635000D01*
X25990000Y-38615000D02*
X27010000Y-39635000D01*
X30650000Y-44000000D02*
X30000000Y-44000000D01*
X31100000Y-43550000D02*
X30650000Y-44000000D01*
X28990000Y-40340000D02*
X31100000Y-42450000D01*
X31100000Y-42450000D02*
X31100000Y-43550000D01*
X16500000Y-18500000D02*
X16500000Y-20500000D01*
X25990000Y-33990000D02*
X25990000Y-38615000D01*
X16500000Y-24500000D02*
X16500000Y-22500000D01*
X28990000Y-39635000D02*
X28990000Y-40340000D01*
X16500000Y-24500000D02*
X25990000Y-33990000D01*
G04 #@! TO.N,Net-(J4-Pin_5)*
X18000000Y-22621141D02*
X18000000Y-24355000D01*
X22800000Y-23300000D02*
X21800000Y-23300000D01*
X14500000Y-20500000D02*
X15502242Y-21502242D01*
X15502242Y-21502242D02*
X16881101Y-21502242D01*
X22800000Y-23300000D02*
X23000000Y-23500000D01*
X19345000Y-25700000D02*
X22655000Y-25700000D01*
X21800000Y-23300000D02*
X20000000Y-21500000D01*
X18000000Y-24355000D02*
X19345000Y-25700000D01*
X23000000Y-25355000D02*
X23000000Y-23500000D01*
X22655000Y-25700000D02*
X23000000Y-25355000D01*
X16881101Y-21502242D02*
X18000000Y-22621141D01*
G04 #@! TO.N,Net-(J4-Pin_7)*
X14500000Y-22500000D02*
X13300000Y-21300000D01*
X20000000Y-18100000D02*
X20000000Y-18500000D01*
X13300000Y-21300000D02*
X13300000Y-15200000D01*
X13300000Y-15200000D02*
X17100000Y-15200000D01*
X17100000Y-15200000D02*
X20000000Y-18100000D01*
G04 #@! TO.N,/GPIO4*
X25720000Y-17857500D02*
X26250000Y-17857500D01*
X35700000Y-58900000D02*
X47630000Y-58900000D01*
X35189891Y-58389891D02*
X35700000Y-58900000D01*
X35189891Y-56953737D02*
X35189891Y-58389891D01*
X31203528Y-41704999D02*
X31500000Y-42001471D01*
X47630000Y-58900000D02*
X49030000Y-57500000D01*
X31500000Y-45100000D02*
X32000000Y-45600000D01*
X23400000Y-25608724D02*
X23400000Y-20177500D01*
X34415098Y-56178944D02*
X35189891Y-56953737D01*
X32428944Y-56178944D02*
X34415098Y-56178944D01*
X31500000Y-42001471D02*
X31500000Y-45100000D01*
X28050000Y-53500000D02*
X28050000Y-51500000D01*
X29500000Y-54000000D02*
X30250000Y-54000000D01*
X23400000Y-20177500D02*
X25720000Y-17857500D01*
X21908724Y-27100000D02*
X23400000Y-25608724D01*
X21100000Y-27100000D02*
X21908724Y-27100000D01*
X30250000Y-54000000D02*
X32428944Y-56178944D01*
G04 #@! TO.N,/GPIO6*
X36300000Y-44800000D02*
X36300000Y-42181186D01*
X33000000Y-26197500D02*
X27200000Y-20397500D01*
X33000000Y-28500000D02*
X33000000Y-26197500D01*
X46751472Y-47500000D02*
X45959530Y-46708058D01*
X27200000Y-20397500D02*
X26250000Y-20397500D01*
X45959530Y-46708058D02*
X42391942Y-46708058D01*
X34600000Y-30100000D02*
X33000000Y-28500000D01*
X36300000Y-42181186D02*
X35099999Y-40981185D01*
G04 #@! TO.N,/GPIO5*
X25300000Y-19127500D02*
X23800000Y-20627500D01*
X21300000Y-36800001D02*
X21300000Y-30398678D01*
X21300000Y-30398678D02*
X20626396Y-29725074D01*
X24925000Y-52725000D02*
X27400000Y-55200000D01*
X23800000Y-26248527D02*
X21448527Y-28600000D01*
X27400000Y-55200000D02*
X28100000Y-55200000D01*
X23800000Y-20627500D02*
X23800000Y-26248527D01*
X30888531Y-55200000D02*
X32642268Y-56953737D01*
X32642268Y-56953737D02*
X32642268Y-58594296D01*
X26250000Y-19127500D02*
X25300000Y-19127500D01*
X32642268Y-58594296D02*
X32394017Y-58842547D01*
X29700000Y-55200000D02*
X30888531Y-55200000D01*
X24925000Y-52525000D02*
X24925000Y-52725000D01*
X21599991Y-37099992D02*
X21300000Y-36800001D01*
G04 #@! TO.N,/TX*
X35600000Y-30000000D02*
X35600000Y-25057500D01*
X42800000Y-17857500D02*
X43750000Y-17857500D01*
X40900000Y-40066144D02*
X40900000Y-44900000D01*
X40533856Y-39700000D02*
X40900000Y-40066144D01*
X40900000Y-44900000D02*
X38500000Y-47300000D01*
X35700000Y-30100000D02*
X35600000Y-30000000D01*
X35600000Y-25057500D02*
X42800000Y-17857500D01*
G04 #@! TO.N,/GPIO37*
X33300000Y-45400000D02*
X33300000Y-41200000D01*
X37900000Y-29700000D02*
X40852500Y-26747500D01*
X34000000Y-33200000D02*
X33700000Y-33500000D01*
X37700000Y-33200000D02*
X34000000Y-33200000D01*
X37900000Y-30100000D02*
X37900000Y-29700000D01*
X33200000Y-45500000D02*
X33300000Y-45400000D01*
X40852500Y-26747500D02*
X43750000Y-26747500D01*
X33300000Y-41200000D02*
X33700000Y-40800000D01*
X33200000Y-45600000D02*
X33200000Y-45500000D01*
G04 #@! TO.N,/GPIO36*
X41000000Y-35980000D02*
X42420000Y-37400000D01*
X46600000Y-48500000D02*
X46600000Y-50100000D01*
X48900000Y-47400000D02*
X47700000Y-47400000D01*
X47700000Y-47400000D02*
X46600000Y-48500000D01*
X42420000Y-37400000D02*
X45300000Y-37400000D01*
X43750000Y-28017500D02*
X41182500Y-28017500D01*
X41000000Y-35300000D02*
X41000000Y-35980000D01*
X41182500Y-28017500D02*
X39075735Y-30124265D01*
X51200000Y-45100000D02*
X48900000Y-47400000D01*
X51200000Y-43300000D02*
X51200000Y-45100000D01*
G04 #@! TO.N,/RX*
X36800000Y-25127500D02*
X42800000Y-19127500D01*
X42800000Y-19127500D02*
X43750000Y-19127500D01*
X33900000Y-46200000D02*
X28840000Y-51260000D01*
X28840000Y-51260000D02*
X28840000Y-57475000D01*
X36800000Y-30100000D02*
X36800000Y-25127500D01*
X33900000Y-42100000D02*
X33900000Y-46200000D01*
G04 #@! TO.N,/GPIO38*
X52020690Y-45900000D02*
X51020690Y-46900000D01*
X43750000Y-25477500D02*
X45477500Y-25477500D01*
X51020690Y-46900000D02*
X50700000Y-46900000D01*
X53000000Y-45900000D02*
X52020690Y-45900000D01*
X45477500Y-25477500D02*
X45500000Y-25500000D01*
G04 #@! TO.N,Net-(Q3-G)*
X44270000Y-52400000D02*
X47000000Y-52400000D01*
X53400000Y-53030690D02*
X52150345Y-54280345D01*
X47000000Y-52400000D02*
X47200000Y-52600000D01*
X53400000Y-52600000D02*
X53400000Y-53030690D01*
G04 #@! TO.N,Net-(U3-VBUS)*
X31600000Y-47700000D02*
X31600000Y-46100000D01*
X30300000Y-49000000D02*
X31600000Y-47700000D01*
X31600000Y-46100000D02*
X30500000Y-45000000D01*
X21300000Y-43500000D02*
X21300000Y-47300000D01*
X21300000Y-47300000D02*
X23000000Y-49000000D01*
X24300000Y-40500000D02*
X21300000Y-43500000D01*
X25000000Y-40500000D02*
X24300000Y-40500000D01*
X23000000Y-49000000D02*
X30300000Y-49000000D01*
X30500000Y-45000000D02*
X30000000Y-45000000D01*
G04 #@! TO.N,Net-(U3-PG)*
X28000000Y-40500000D02*
X30000000Y-42500000D01*
X30000000Y-42500000D02*
X30000000Y-43000000D01*
G04 #@! TO.N,Net-(U5-IO0)*
X48300000Y-31300000D02*
X47557500Y-30557500D01*
X22330000Y-15530000D02*
X23600000Y-16800000D01*
X47557500Y-30557500D02*
X43750000Y-30557500D01*
X48300000Y-32400000D02*
X48300000Y-31300000D01*
X49386712Y-32400000D02*
X50527000Y-31259712D01*
X48300000Y-32400000D02*
X49386712Y-32400000D01*
X48300000Y-32900000D02*
X48300000Y-32400000D01*
X50527000Y-29527000D02*
X49500000Y-28500000D01*
X50527000Y-31259712D02*
X50527000Y-29527000D01*
X23600000Y-16800000D02*
X24200000Y-16800000D01*
D48*
G04 #@! TO.N,/VOLT_OUT*
X25570000Y-21667500D02*
X24400000Y-22837500D01*
X25390000Y-35800000D02*
X25300000Y-35800000D01*
X27000000Y-35000000D02*
X27000000Y-36400000D01*
X24400000Y-22837500D02*
X24400000Y-27987500D01*
X25300000Y-35800000D02*
X24500000Y-35000000D01*
X27000000Y-36400000D02*
X26700000Y-36700000D01*
X24400000Y-27987500D02*
X23700000Y-28687500D01*
X26250000Y-21667500D02*
X25570000Y-21667500D01*
D43*
G04 #@! TO.N,Net-(R10-Pad2)*
X33500000Y-35000000D02*
X32200000Y-33700000D01*
X30300000Y-33700000D02*
X29000000Y-35000000D01*
X32200000Y-33700000D02*
X30300000Y-33700000D01*
G04 #@! TO.N,/D-_OUT*
X15989649Y-46262440D02*
X15989649Y-47902149D01*
X22987500Y-29287500D02*
X26250000Y-29287500D01*
X22500000Y-28800000D02*
X22987500Y-29287500D01*
X15989649Y-47902149D02*
X17137500Y-49050000D01*
G04 #@! TO.N,/D+_OUT*
X17200000Y-52200000D02*
X17200000Y-51012500D01*
X17200000Y-51012500D02*
X17137500Y-50950000D01*
X26250000Y-30557500D02*
X24657500Y-30557500D01*
X24657500Y-30557500D02*
X24000000Y-29900000D01*
G04 #@! TO.N,/MOS_1*
X34500000Y-36520000D02*
X34500000Y-46275000D01*
X38095000Y-49870000D02*
X38730000Y-49870000D01*
X36870000Y-34150000D02*
X34500000Y-36520000D01*
X39450000Y-31827500D02*
X39450000Y-34150000D01*
X39450000Y-34150000D02*
X36870000Y-34150000D01*
X34500000Y-46275000D02*
X38095000Y-49870000D01*
G04 #@! TO.N,/GPIO41*
X45500000Y-21500000D02*
X45500000Y-20500000D01*
X45332500Y-21667500D02*
X45500000Y-21500000D01*
X43750000Y-21667500D02*
X45332500Y-21667500D01*
G04 #@! TD*
G04 #@! TA.AperFunction,Conductor*
G04 #@! TO.N,/LED_1_VCC*
G36*
X57406806Y-27000596D02*
G01*
X57583686Y-27018017D01*
X57607514Y-27022756D01*
X57771746Y-27072575D01*
X57794198Y-27081876D01*
X57945543Y-27162771D01*
X57965755Y-27176276D01*
X58098411Y-27285144D01*
X58115599Y-27302332D01*
X58224467Y-27434988D01*
X58237972Y-27455200D01*
X58318866Y-27606542D01*
X58328169Y-27629000D01*
X58377985Y-27793223D01*
X58382727Y-27817064D01*
X58400148Y-27993937D01*
X58400745Y-28006091D01*
X58400745Y-55002205D01*
X58400154Y-55014295D01*
X58382916Y-55190246D01*
X58378223Y-55213967D01*
X58328923Y-55377400D01*
X58319717Y-55399757D01*
X58239636Y-55550516D01*
X58226269Y-55570657D01*
X58118449Y-55703013D01*
X58101423Y-55720182D01*
X58046699Y-55765521D01*
X57969972Y-55829091D01*
X57949940Y-55842627D01*
X57799851Y-55923955D01*
X57777570Y-55933347D01*
X57614555Y-55984000D01*
X57590874Y-55988890D01*
X57507607Y-55997745D01*
X57415055Y-56007588D01*
X57402996Y-56008278D01*
X39321432Y-56158332D01*
X39288312Y-56154112D01*
X39235408Y-56139937D01*
X39000001Y-56119341D01*
X38999999Y-56119341D01*
X38764597Y-56139936D01*
X38764593Y-56139936D01*
X38764592Y-56139937D01*
X38764587Y-56139938D01*
X38764584Y-56139939D01*
X38691204Y-56159600D01*
X38660142Y-56163820D01*
X36857735Y-56178778D01*
X36824617Y-56174558D01*
X36695413Y-56139938D01*
X36695403Y-56139936D01*
X36460001Y-56119341D01*
X36459999Y-56119341D01*
X36224596Y-56139936D01*
X36224586Y-56139938D01*
X36070021Y-56181353D01*
X36038961Y-56185573D01*
X35467989Y-56190311D01*
X35329247Y-56191463D01*
X35262046Y-56172335D01*
X35240537Y-56155148D01*
X34902688Y-55817299D01*
X34902686Y-55817296D01*
X34783815Y-55698425D01*
X34783814Y-55698424D01*
X34697002Y-55648304D01*
X34697002Y-55648303D01*
X34696998Y-55648302D01*
X34646883Y-55619367D01*
X34494155Y-55578443D01*
X34336041Y-55578443D01*
X34328445Y-55578443D01*
X34328429Y-55578444D01*
X33708485Y-55578444D01*
X33641446Y-55558759D01*
X33622264Y-55543561D01*
X33326375Y-55257286D01*
X33291882Y-55196524D01*
X33289377Y-55182065D01*
X33285368Y-55146480D01*
X33225789Y-54976213D01*
X33129816Y-54823473D01*
X33002262Y-54695919D01*
X32913941Y-54640423D01*
X32849521Y-54599945D01*
X32679249Y-54540365D01*
X32614982Y-54533124D01*
X32550569Y-54506057D01*
X32542645Y-54499021D01*
X31923982Y-53900459D01*
X31922523Y-53899023D01*
X31434110Y-53410610D01*
X31427085Y-53402971D01*
X31383523Y-53351428D01*
X31369480Y-53330964D01*
X31285302Y-53177312D01*
X31275616Y-53154464D01*
X31224766Y-52990497D01*
X31223721Y-52987128D01*
X31218780Y-52962813D01*
X31200622Y-52782263D01*
X31200000Y-52769855D01*
X31200000Y-51940512D01*
X31200555Y-51928789D01*
X31216762Y-51758121D01*
X31221172Y-51735109D01*
X31267565Y-51576191D01*
X31276223Y-51554435D01*
X31351700Y-51407090D01*
X31364305Y-51387341D01*
X31466157Y-51256852D01*
X31482256Y-51239825D01*
X31606858Y-51130831D01*
X31625874Y-51117141D01*
X31773853Y-51030573D01*
X31784235Y-51025142D01*
X32110081Y-50873869D01*
X32493611Y-50695815D01*
X32506112Y-50690818D01*
X32603113Y-50658028D01*
X32692380Y-50627852D01*
X32718638Y-50622054D01*
X32914106Y-50600730D01*
X32927553Y-50600000D01*
X33903672Y-50600000D01*
X33970711Y-50619685D01*
X34008666Y-50658028D01*
X34069335Y-50754582D01*
X34196889Y-50882136D01*
X34349629Y-50978109D01*
X34519896Y-51037688D01*
X34519901Y-51037689D01*
X34699147Y-51057885D01*
X34699151Y-51057885D01*
X34699155Y-51057885D01*
X34878400Y-51037689D01*
X34878403Y-51037688D01*
X34878406Y-51037688D01*
X35048673Y-50978109D01*
X35201413Y-50882136D01*
X35328967Y-50754582D01*
X35389636Y-50658028D01*
X35441971Y-50611737D01*
X35494630Y-50600000D01*
X37658970Y-50600000D01*
X37706422Y-50609439D01*
X37767961Y-50634929D01*
X37805595Y-50642415D01*
X37921647Y-50665500D01*
X37921650Y-50665500D01*
X39538352Y-50665500D01*
X39545193Y-50664139D01*
X39614785Y-50670363D01*
X39644974Y-50687455D01*
X39726942Y-50750484D01*
X39749837Y-50773436D01*
X39816738Y-50860883D01*
X39832902Y-50888987D01*
X39874849Y-50990787D01*
X39883176Y-51022119D01*
X39887803Y-51057885D01*
X39897305Y-51131346D01*
X39897234Y-51163707D01*
X39882572Y-51273213D01*
X39874150Y-51304403D01*
X39831686Y-51406433D01*
X39815493Y-51434387D01*
X39748117Y-51521983D01*
X39725251Y-51544808D01*
X39669447Y-51587570D01*
X39604261Y-51612722D01*
X39569833Y-51610762D01*
X39538352Y-51604500D01*
X39538350Y-51604500D01*
X37921650Y-51604500D01*
X37921648Y-51604500D01*
X37767966Y-51635069D01*
X37767965Y-51635070D01*
X37767964Y-51635070D01*
X37767961Y-51635071D01*
X37682255Y-51670570D01*
X37642309Y-51687117D01*
X37594938Y-51696555D01*
X33482752Y-51699230D01*
X33415699Y-51679589D01*
X33394990Y-51662912D01*
X33336578Y-51604500D01*
X33277997Y-51545919D01*
X33215757Y-51506811D01*
X33125258Y-51449946D01*
X32954989Y-51390366D01*
X32954984Y-51390365D01*
X32775739Y-51370170D01*
X32775731Y-51370170D01*
X32596485Y-51390365D01*
X32596480Y-51390366D01*
X32426211Y-51449946D01*
X32273472Y-51545919D01*
X32145919Y-51673472D01*
X32049946Y-51826211D01*
X31990366Y-51996480D01*
X31990365Y-51996485D01*
X31970170Y-52175731D01*
X31970170Y-52175738D01*
X31990365Y-52354984D01*
X31990366Y-52354989D01*
X32049946Y-52525258D01*
X32145919Y-52677997D01*
X32273475Y-52805553D01*
X32300000Y-52822219D01*
X32300000Y-53500000D01*
X33199999Y-53499999D01*
X33200000Y-53500000D01*
X42718588Y-53499999D01*
X50643783Y-53499999D01*
X50657666Y-53500779D01*
X50713017Y-53507015D01*
X50803751Y-53517238D01*
X50830817Y-53523415D01*
X50962972Y-53569658D01*
X50987985Y-53581703D01*
X51106534Y-53656193D01*
X51128242Y-53673505D01*
X51227238Y-53772501D01*
X51244551Y-53794210D01*
X51319038Y-53912755D01*
X51331085Y-53937772D01*
X51342886Y-53971497D01*
X51349845Y-54012452D01*
X51349845Y-54828215D01*
X51349846Y-54828221D01*
X51356253Y-54887828D01*
X51406547Y-55022673D01*
X51406551Y-55022680D01*
X51492797Y-55137889D01*
X51492800Y-55137892D01*
X51608009Y-55224138D01*
X51608016Y-55224142D01*
X51652963Y-55240906D01*
X51742862Y-55274436D01*
X51802472Y-55280845D01*
X52498217Y-55280844D01*
X52557828Y-55274436D01*
X52692676Y-55224141D01*
X52807891Y-55137891D01*
X52873921Y-55049687D01*
X52929855Y-55007817D01*
X52973187Y-54999999D01*
X56400742Y-54999999D01*
X56400745Y-54999999D01*
X57400745Y-54999999D01*
X57400745Y-34499999D01*
X56400745Y-34499999D01*
X56400742Y-34499999D01*
X54406838Y-34499999D01*
X54394684Y-34499402D01*
X54217810Y-34481981D01*
X54193969Y-34477239D01*
X54029746Y-34427423D01*
X54007288Y-34418120D01*
X53855946Y-34337226D01*
X53835734Y-34323721D01*
X53703078Y-34214853D01*
X53685890Y-34197665D01*
X53577022Y-34065009D01*
X53563517Y-34044797D01*
X53482623Y-33893455D01*
X53473320Y-33870997D01*
X53423502Y-33706768D01*
X53418763Y-33682940D01*
X53401342Y-33506060D01*
X53400745Y-33493906D01*
X53400745Y-28006091D01*
X53401342Y-27993937D01*
X53418763Y-27817055D01*
X53423502Y-27793231D01*
X53473322Y-27628993D01*
X53482620Y-27606548D01*
X53563520Y-27455194D01*
X53577017Y-27434994D01*
X53685894Y-27302327D01*
X53703073Y-27285148D01*
X53835740Y-27176271D01*
X53855940Y-27162774D01*
X54007294Y-27081874D01*
X54029739Y-27072576D01*
X54193977Y-27022756D01*
X54217801Y-27018017D01*
X54394684Y-27000596D01*
X54406838Y-26999999D01*
X57394652Y-26999999D01*
X57406806Y-27000596D01*
G37*
G04 #@! TD.AperFunction*
G04 #@! TD*
G04 #@! TA.AperFunction,Conductor*
G04 #@! TO.N,GND*
G36*
X30655473Y-55820185D02*
G01*
X30676115Y-55836819D01*
X32005449Y-57166153D01*
X32038934Y-57227476D01*
X32041768Y-57253834D01*
X32041768Y-58049938D01*
X32022083Y-58116977D01*
X31983740Y-58154931D01*
X31891761Y-58212725D01*
X31891756Y-58212729D01*
X31764201Y-58340284D01*
X31668228Y-58493023D01*
X31608648Y-58663292D01*
X31608647Y-58663297D01*
X31588452Y-58842543D01*
X31588452Y-58842550D01*
X31608647Y-59021796D01*
X31608648Y-59021801D01*
X31668228Y-59192071D01*
X31742032Y-59309527D01*
X31761033Y-59376764D01*
X31740666Y-59443599D01*
X31687398Y-59488814D01*
X31637039Y-59499500D01*
X25177513Y-59499500D01*
X25110474Y-59479815D01*
X25064719Y-59427011D01*
X25054775Y-59357853D01*
X25083800Y-59294297D01*
X25092080Y-59286493D01*
X25091854Y-59286267D01*
X25119620Y-59258501D01*
X25209405Y-59168716D01*
X25209405Y-59168714D01*
X25219609Y-59158511D01*
X25219613Y-59158506D01*
X25387391Y-58990728D01*
X25387396Y-58990724D01*
X25397599Y-58980520D01*
X25397601Y-58980520D01*
X25509405Y-58868716D01*
X25574450Y-58756054D01*
X25576430Y-58752623D01*
X25626987Y-58704400D01*
X25695592Y-58691164D01*
X25736229Y-58702222D01*
X25836337Y-58748903D01*
X25836342Y-58748904D01*
X25836344Y-58748905D01*
X25872553Y-58758607D01*
X26064592Y-58810063D01*
X26252918Y-58826539D01*
X26299999Y-58830659D01*
X26300000Y-58830659D01*
X26300001Y-58830659D01*
X26339234Y-58827226D01*
X26535408Y-58810063D01*
X26763663Y-58748903D01*
X26977830Y-58649035D01*
X27171401Y-58513495D01*
X27338495Y-58346401D01*
X27468425Y-58160842D01*
X27523002Y-58117217D01*
X27592500Y-58110023D01*
X27654855Y-58141546D01*
X27671575Y-58160842D01*
X27801500Y-58346395D01*
X27801505Y-58346401D01*
X27968599Y-58513495D01*
X28009217Y-58541936D01*
X28162165Y-58649032D01*
X28162167Y-58649033D01*
X28162170Y-58649035D01*
X28376337Y-58748903D01*
X28376343Y-58748904D01*
X28376344Y-58748905D01*
X28412553Y-58758607D01*
X28604592Y-58810063D01*
X28792918Y-58826539D01*
X28839999Y-58830659D01*
X28840000Y-58830659D01*
X28840001Y-58830659D01*
X28879234Y-58827226D01*
X29075408Y-58810063D01*
X29303663Y-58748903D01*
X29517830Y-58649035D01*
X29711401Y-58513495D01*
X29878495Y-58346401D01*
X30014035Y-58152830D01*
X30113903Y-57938663D01*
X30175063Y-57710408D01*
X30195659Y-57475000D01*
X30175063Y-57239592D01*
X30113903Y-57011337D01*
X30014035Y-56797171D01*
X30012005Y-56794271D01*
X29878494Y-56603597D01*
X29711402Y-56436506D01*
X29711395Y-56436501D01*
X29517831Y-56300965D01*
X29517826Y-56300962D01*
X29512091Y-56298288D01*
X29459653Y-56252113D01*
X29440500Y-56185908D01*
X29440500Y-56115082D01*
X29460185Y-56048043D01*
X29512989Y-56002288D01*
X29578382Y-55991862D01*
X29647349Y-55999632D01*
X29699998Y-56005565D01*
X29700000Y-56005565D01*
X29700004Y-56005565D01*
X29879249Y-55985369D01*
X29879252Y-55985368D01*
X29879255Y-55985368D01*
X30049522Y-55925789D01*
X30202262Y-55829816D01*
X30202267Y-55829810D01*
X30205097Y-55827555D01*
X30207275Y-55826665D01*
X30208158Y-55826111D01*
X30208255Y-55826265D01*
X30269783Y-55801145D01*
X30282412Y-55800500D01*
X30588434Y-55800500D01*
X30655473Y-55820185D01*
G37*
G04 #@! TD.AperFunction*
G04 #@! TA.AperFunction,Conductor*
G36*
X59442539Y-12520185D02*
G01*
X59488294Y-12572989D01*
X59499500Y-12624500D01*
X59499500Y-19493334D01*
X59479815Y-19560373D01*
X59427011Y-19606128D01*
X59357853Y-19616072D01*
X59294297Y-19587047D01*
X59263118Y-19545739D01*
X59256677Y-19531927D01*
X59170568Y-19347266D01*
X59040047Y-19160861D01*
X59040045Y-19160858D01*
X58879141Y-18999954D01*
X58692734Y-18869432D01*
X58692732Y-18869431D01*
X58486497Y-18773261D01*
X58486488Y-18773258D01*
X58266697Y-18714366D01*
X58266693Y-18714365D01*
X58266692Y-18714365D01*
X58266691Y-18714364D01*
X58266686Y-18714364D01*
X58040002Y-18694532D01*
X58039998Y-18694532D01*
X57813313Y-18714364D01*
X57813302Y-18714366D01*
X57593511Y-18773258D01*
X57593502Y-18773261D01*
X57387267Y-18869431D01*
X57387265Y-18869432D01*
X57200858Y-18999954D01*
X57039954Y-19160858D01*
X56909432Y-19347265D01*
X56909431Y-19347267D01*
X56813261Y-19553502D01*
X56813258Y-19553511D01*
X56754366Y-19773302D01*
X56754364Y-19773313D01*
X56734532Y-19999998D01*
X56734532Y-20000001D01*
X56754364Y-20226686D01*
X56754366Y-20226697D01*
X56813258Y-20446488D01*
X56813261Y-20446497D01*
X56909431Y-20652732D01*
X56909432Y-20652734D01*
X57039954Y-20839141D01*
X57200858Y-21000045D01*
X57200861Y-21000047D01*
X57387266Y-21130568D01*
X57593504Y-21226739D01*
X57813308Y-21285635D01*
X57958927Y-21298375D01*
X58039998Y-21305468D01*
X58040000Y-21305468D01*
X58040002Y-21305468D01*
X58103608Y-21299903D01*
X58266692Y-21285635D01*
X58486496Y-21226739D01*
X58692734Y-21130568D01*
X58879139Y-21000047D01*
X59040047Y-20839139D01*
X59170568Y-20652734D01*
X59263119Y-20454258D01*
X59309290Y-20401821D01*
X59376484Y-20382669D01*
X59443365Y-20402885D01*
X59488700Y-20456050D01*
X59499500Y-20506665D01*
X59499500Y-59375500D01*
X59479815Y-59442539D01*
X59427011Y-59488294D01*
X59375500Y-59499500D01*
X48179098Y-59499500D01*
X48112059Y-59479815D01*
X48066304Y-59427011D01*
X48056360Y-59357853D01*
X48085385Y-59294297D01*
X48091417Y-59287819D01*
X48098716Y-59280520D01*
X48110520Y-59268716D01*
X48110520Y-59268715D01*
X48120724Y-59258511D01*
X48120728Y-59258506D01*
X48546470Y-58832763D01*
X48607791Y-58799280D01*
X48666238Y-58800670D01*
X48794592Y-58835063D01*
X48971034Y-58850500D01*
X49029999Y-58855659D01*
X49030000Y-58855659D01*
X49030001Y-58855659D01*
X49088966Y-58850500D01*
X49265408Y-58835063D01*
X49493663Y-58773903D01*
X49707830Y-58674035D01*
X49901401Y-58538495D01*
X50068495Y-58371401D01*
X50204035Y-58177830D01*
X50303903Y-57963663D01*
X50365063Y-57735408D01*
X50385659Y-57500000D01*
X50365063Y-57264592D01*
X50303903Y-57036337D01*
X50204035Y-56822171D01*
X50194430Y-56808454D01*
X50166199Y-56768135D01*
X50143872Y-56701929D01*
X50160882Y-56634162D01*
X50211830Y-56586349D01*
X50266741Y-56573016D01*
X52886420Y-56551276D01*
X52953618Y-56570404D01*
X52999810Y-56622826D01*
X53010327Y-56691900D01*
X52989023Y-56746394D01*
X52935964Y-56822171D01*
X52836098Y-57036335D01*
X52836094Y-57036344D01*
X52774938Y-57264586D01*
X52774936Y-57264596D01*
X52754341Y-57499999D01*
X52754341Y-57500000D01*
X52774936Y-57735403D01*
X52774938Y-57735413D01*
X52836094Y-57963655D01*
X52836096Y-57963659D01*
X52836097Y-57963663D01*
X52920499Y-58144664D01*
X52935965Y-58177830D01*
X52935967Y-58177834D01*
X53013313Y-58288294D01*
X53071505Y-58371401D01*
X53238599Y-58538495D01*
X53335384Y-58606265D01*
X53432165Y-58674032D01*
X53432167Y-58674033D01*
X53432170Y-58674035D01*
X53646337Y-58773903D01*
X53874592Y-58835063D01*
X54051034Y-58850500D01*
X54109999Y-58855659D01*
X54110000Y-58855659D01*
X54110001Y-58855659D01*
X54168966Y-58850500D01*
X54345408Y-58835063D01*
X54573663Y-58773903D01*
X54787830Y-58674035D01*
X54981401Y-58538495D01*
X55148495Y-58371401D01*
X55284035Y-58177830D01*
X55383903Y-57963663D01*
X55445063Y-57735408D01*
X55465659Y-57500000D01*
X55445063Y-57264592D01*
X55383903Y-57036337D01*
X55289965Y-56834889D01*
X55284036Y-56822173D01*
X55284035Y-56822171D01*
X55216850Y-56726220D01*
X55194524Y-56660016D01*
X55211534Y-56592249D01*
X55262482Y-56544436D01*
X55317395Y-56531103D01*
X57407191Y-56513761D01*
X57431873Y-56512953D01*
X57443932Y-56512263D01*
X57468514Y-56510253D01*
X57561062Y-56500410D01*
X57561063Y-56500411D01*
X57644330Y-56491556D01*
X57693100Y-56483946D01*
X57716781Y-56479056D01*
X57764553Y-56466733D01*
X57927568Y-56416080D01*
X57973920Y-56399155D01*
X57996201Y-56389763D01*
X58040680Y-56368400D01*
X58190769Y-56287072D01*
X58232960Y-56261470D01*
X58245573Y-56252947D01*
X58252973Y-56247947D01*
X58252975Y-56247945D01*
X58252992Y-56247934D01*
X58292479Y-56218346D01*
X58334774Y-56183304D01*
X58411399Y-56119819D01*
X58411402Y-56119815D01*
X58423925Y-56109441D01*
X58460343Y-56076140D01*
X58460345Y-56076139D01*
X58468873Y-56067539D01*
X58477383Y-56058958D01*
X58510367Y-56022278D01*
X58618187Y-55889922D01*
X58647452Y-55850184D01*
X58660819Y-55830043D01*
X58686063Y-55787652D01*
X58766144Y-55636893D01*
X58787140Y-55592229D01*
X58796346Y-55569872D01*
X58812883Y-55523388D01*
X58862183Y-55359955D01*
X58874111Y-55312074D01*
X58878804Y-55288353D01*
X58886007Y-55239534D01*
X58903245Y-55063583D01*
X58905051Y-55038976D01*
X58905642Y-55026886D01*
X58906245Y-55002205D01*
X58906245Y-28006091D01*
X58905636Y-27981291D01*
X58905039Y-27969137D01*
X58903214Y-27944388D01*
X58885793Y-27767515D01*
X58878515Y-27718451D01*
X58873773Y-27694610D01*
X58861719Y-27646485D01*
X58811903Y-27482262D01*
X58795186Y-27435543D01*
X58785883Y-27413085D01*
X58764677Y-27368251D01*
X58763582Y-27366202D01*
X58683786Y-27216914D01*
X58683781Y-27216906D01*
X58658289Y-27174374D01*
X58653932Y-27167853D01*
X58644777Y-27154151D01*
X58615224Y-27114302D01*
X58603483Y-27099996D01*
X58506349Y-26981638D01*
X58473040Y-26944888D01*
X58455854Y-26927702D01*
X58419104Y-26894393D01*
X58286449Y-26785525D01*
X58286433Y-26785513D01*
X58246603Y-26755974D01*
X58246600Y-26755972D01*
X58246592Y-26755966D01*
X58226380Y-26742461D01*
X58226369Y-26742454D01*
X58226364Y-26742451D01*
X58226360Y-26742448D01*
X58183867Y-26716978D01*
X58183824Y-26716954D01*
X58032515Y-26636078D01*
X58032503Y-26636071D01*
X57995979Y-26618796D01*
X57987664Y-26614863D01*
X57987657Y-26614860D01*
X57965218Y-26605564D01*
X57918481Y-26588840D01*
X57754249Y-26539021D01*
X57728388Y-26532544D01*
X57706118Y-26526966D01*
X57682290Y-26522227D01*
X57682285Y-26522226D01*
X57682288Y-26522226D01*
X57633239Y-26514951D01*
X57633219Y-26514949D01*
X57456343Y-26497529D01*
X57431621Y-26495706D01*
X57431616Y-26495705D01*
X57431606Y-26495705D01*
X57426347Y-26495446D01*
X57419459Y-26495108D01*
X57412218Y-26494930D01*
X57394652Y-26494499D01*
X57394635Y-26494499D01*
X57078363Y-26494499D01*
X57011324Y-26474814D01*
X56965569Y-26422010D01*
X56955625Y-26352852D01*
X56984650Y-26289296D01*
X56990682Y-26282818D01*
X57199461Y-26074038D01*
X57199460Y-26074038D01*
X57199464Y-26074035D01*
X57225559Y-26034981D01*
X57237746Y-26016743D01*
X57237746Y-26016742D01*
X57298013Y-25926547D01*
X57328185Y-25853704D01*
X57365895Y-25762666D01*
X57400500Y-25588692D01*
X57400500Y-25411308D01*
X57400500Y-25237230D01*
X57420185Y-25170191D01*
X57436819Y-25149549D01*
X57442712Y-25143656D01*
X57534814Y-24994334D01*
X57589999Y-24827797D01*
X57600500Y-24725009D01*
X57600499Y-23374992D01*
X57589999Y-23272203D01*
X57534814Y-23105666D01*
X57442712Y-22956344D01*
X57318656Y-22832288D01*
X57169334Y-22740186D01*
X57002797Y-22685001D01*
X57002795Y-22685000D01*
X56900010Y-22674500D01*
X56099998Y-22674500D01*
X56099980Y-22674501D01*
X55997203Y-22685000D01*
X55997200Y-22685001D01*
X55830668Y-22740185D01*
X55830663Y-22740187D01*
X55681342Y-22832289D01*
X55557289Y-22956342D01*
X55465187Y-23105663D01*
X55465185Y-23105668D01*
X55437349Y-23189670D01*
X55410001Y-23272203D01*
X55410001Y-23272204D01*
X55410000Y-23272204D01*
X55399500Y-23374983D01*
X55399500Y-24725001D01*
X55399501Y-24725018D01*
X55410000Y-24827796D01*
X55414873Y-24842500D01*
X55446021Y-24936498D01*
X55448423Y-25006324D01*
X55412692Y-25066366D01*
X55350172Y-25097559D01*
X55328315Y-25099500D01*
X52411306Y-25099500D01*
X52237341Y-25134103D01*
X52237332Y-25134106D01*
X52073459Y-25201983D01*
X52073446Y-25201990D01*
X51925965Y-25300535D01*
X51925961Y-25300538D01*
X51800538Y-25425961D01*
X51800535Y-25425965D01*
X51701990Y-25573446D01*
X51701983Y-25573459D01*
X51634106Y-25737332D01*
X51634103Y-25737341D01*
X51599500Y-25911304D01*
X51599500Y-31922902D01*
X51579815Y-31989941D01*
X51563181Y-32010583D01*
X49183766Y-34389997D01*
X49122443Y-34423482D01*
X49096085Y-34426316D01*
X48617578Y-34426316D01*
X48617572Y-34426317D01*
X48557965Y-34432724D01*
X48423120Y-34483018D01*
X48423118Y-34483019D01*
X48304760Y-34571623D01*
X48239296Y-34596040D01*
X48171023Y-34581189D01*
X48156138Y-34571623D01*
X48037779Y-34483019D01*
X48037777Y-34483018D01*
X47902931Y-34432724D01*
X47902932Y-34432724D01*
X47843332Y-34426317D01*
X47843330Y-34426316D01*
X47843322Y-34426316D01*
X47843313Y-34426316D01*
X46617578Y-34426316D01*
X46617572Y-34426317D01*
X46557965Y-34432724D01*
X46423120Y-34483018D01*
X46423113Y-34483022D01*
X46307904Y-34569268D01*
X46307901Y-34569271D01*
X46221655Y-34684480D01*
X46221651Y-34684487D01*
X46171357Y-34819333D01*
X46164950Y-34878932D01*
X46164949Y-34878951D01*
X46164949Y-35781717D01*
X46145264Y-35848756D01*
X46128630Y-35869398D01*
X45917180Y-36080847D01*
X45855857Y-36114332D01*
X45786165Y-36109348D01*
X45730232Y-36067476D01*
X45705815Y-36002012D01*
X45705499Y-35993189D01*
X45705499Y-34777128D01*
X45699091Y-34717517D01*
X45698014Y-34714630D01*
X45648797Y-34582671D01*
X45648793Y-34582664D01*
X45562547Y-34467455D01*
X45562544Y-34467452D01*
X45447335Y-34381206D01*
X45447328Y-34381202D01*
X45312483Y-34330908D01*
X45306364Y-34329463D01*
X45245648Y-34294890D01*
X45213261Y-34232980D01*
X45219487Y-34163388D01*
X45223162Y-34154975D01*
X45225790Y-34149519D01*
X45254430Y-34067671D01*
X45285368Y-33979255D01*
X45289549Y-33942147D01*
X45305565Y-33800003D01*
X45305565Y-33799996D01*
X45285369Y-33620750D01*
X45285368Y-33620745D01*
X45253916Y-33530860D01*
X45225789Y-33450478D01*
X45216988Y-33436472D01*
X45181037Y-33379255D01*
X45129816Y-33297738D01*
X45002262Y-33170184D01*
X44954476Y-33140158D01*
X44849523Y-33074211D01*
X44679254Y-33014631D01*
X44679249Y-33014630D01*
X44500004Y-32994435D01*
X44499996Y-32994435D01*
X44320750Y-33014630D01*
X44320745Y-33014631D01*
X44150476Y-33074211D01*
X43997737Y-33170184D01*
X43870184Y-33297737D01*
X43774211Y-33450476D01*
X43714631Y-33620745D01*
X43714630Y-33620750D01*
X43694435Y-33799996D01*
X43694435Y-33800003D01*
X43714630Y-33979249D01*
X43714631Y-33979254D01*
X43774214Y-34149531D01*
X43776841Y-34154986D01*
X43788192Y-34223927D01*
X43760468Y-34288061D01*
X43702472Y-34327025D01*
X43693646Y-34329459D01*
X43687523Y-34330906D01*
X43552671Y-34381202D01*
X43552664Y-34381206D01*
X43437455Y-34467452D01*
X43437452Y-34467455D01*
X43351206Y-34582664D01*
X43351202Y-34582671D01*
X43300908Y-34717517D01*
X43294501Y-34777116D01*
X43294501Y-34777123D01*
X43294500Y-34777135D01*
X43294500Y-36222870D01*
X43294501Y-36222876D01*
X43300908Y-36282483D01*
X43351202Y-36417328D01*
X43351206Y-36417335D01*
X43398781Y-36480886D01*
X43437454Y-36532546D01*
X43495813Y-36576234D01*
X43537684Y-36632167D01*
X43542668Y-36701859D01*
X43509183Y-36763182D01*
X43447859Y-36796666D01*
X43421502Y-36799500D01*
X42720097Y-36799500D01*
X42653058Y-36779815D01*
X42632416Y-36763181D01*
X41715822Y-35846587D01*
X41682337Y-35785264D01*
X41687321Y-35715572D01*
X41698504Y-35692944D01*
X41725789Y-35649522D01*
X41743909Y-35597738D01*
X41785366Y-35479262D01*
X41785369Y-35479249D01*
X41805565Y-35300003D01*
X41805565Y-35299996D01*
X41785369Y-35120750D01*
X41785368Y-35120745D01*
X41751930Y-35025184D01*
X41725789Y-34950478D01*
X41629816Y-34797738D01*
X41502262Y-34670184D01*
X41453884Y-34639786D01*
X41349523Y-34574211D01*
X41179254Y-34514631D01*
X41179249Y-34514630D01*
X41000004Y-34494435D01*
X40999996Y-34494435D01*
X40820750Y-34514630D01*
X40820742Y-34514632D01*
X40729893Y-34546422D01*
X40660115Y-34549983D01*
X40599487Y-34515254D01*
X40589679Y-34503699D01*
X40562546Y-34467454D01*
X40447331Y-34381204D01*
X40447329Y-34381203D01*
X40447328Y-34381202D01*
X40312482Y-34330908D01*
X40312483Y-34330908D01*
X40252883Y-34324501D01*
X40252881Y-34324500D01*
X40252873Y-34324500D01*
X40252865Y-34324500D01*
X40174500Y-34324500D01*
X40107461Y-34304815D01*
X40061706Y-34252011D01*
X40050500Y-34200500D01*
X40050500Y-33197593D01*
X40070185Y-33130554D01*
X40122989Y-33084799D01*
X40187754Y-33074304D01*
X40222127Y-33078000D01*
X41217872Y-33077999D01*
X41277483Y-33071591D01*
X41351885Y-33043840D01*
X41421574Y-33038857D01*
X41424954Y-33039849D01*
X41424965Y-33039807D01*
X41432516Y-33041591D01*
X41438693Y-33042255D01*
X41492127Y-33048000D01*
X42487872Y-33047999D01*
X42547483Y-33041591D01*
X42682331Y-32991296D01*
X42797546Y-32905046D01*
X42883796Y-32789831D01*
X42934091Y-32654983D01*
X42940500Y-32595373D01*
X42940499Y-31631998D01*
X42960183Y-31564960D01*
X43012987Y-31519205D01*
X43064494Y-31507999D01*
X44547872Y-31507999D01*
X44607483Y-31501591D01*
X44742331Y-31451296D01*
X44857546Y-31365046D01*
X44943796Y-31249831D01*
X44947960Y-31238665D01*
X44989829Y-31182734D01*
X45055293Y-31158316D01*
X45064141Y-31158000D01*
X47257403Y-31158000D01*
X47324442Y-31177685D01*
X47345084Y-31194319D01*
X47663181Y-31512416D01*
X47696666Y-31573739D01*
X47699500Y-31600097D01*
X47699500Y-32317587D01*
X47679815Y-32384626D01*
X47672450Y-32394896D01*
X47670186Y-32397734D01*
X47574211Y-32550476D01*
X47514631Y-32720745D01*
X47514630Y-32720750D01*
X47494435Y-32899996D01*
X47494435Y-32900003D01*
X47514630Y-33079249D01*
X47514631Y-33079254D01*
X47574211Y-33249523D01*
X47655728Y-33379255D01*
X47670184Y-33402262D01*
X47797738Y-33529816D01*
X47838784Y-33555607D01*
X47942450Y-33620745D01*
X47950478Y-33625789D01*
X48120745Y-33685368D01*
X48120750Y-33685369D01*
X48299996Y-33705565D01*
X48300000Y-33705565D01*
X48300004Y-33705565D01*
X48479249Y-33685369D01*
X48479252Y-33685368D01*
X48479255Y-33685368D01*
X48649522Y-33625789D01*
X48802262Y-33529816D01*
X48929816Y-33402262D01*
X49025789Y-33249522D01*
X49078284Y-33099499D01*
X49083867Y-33083545D01*
X49124589Y-33026769D01*
X49189542Y-33001022D01*
X49200909Y-33000500D01*
X49300043Y-33000500D01*
X49300059Y-33000501D01*
X49307655Y-33000501D01*
X49465766Y-33000501D01*
X49465769Y-33000501D01*
X49618497Y-32959577D01*
X49682686Y-32922517D01*
X49755428Y-32880520D01*
X49867232Y-32768716D01*
X49867232Y-32768714D01*
X49877436Y-32758511D01*
X49877439Y-32758506D01*
X51007520Y-31628428D01*
X51086577Y-31491496D01*
X51127501Y-31338769D01*
X51127501Y-31180654D01*
X51127501Y-31173059D01*
X51127500Y-31173041D01*
X51127500Y-29447945D01*
X51127500Y-29447943D01*
X51086577Y-29295216D01*
X51076505Y-29277770D01*
X51007524Y-29158290D01*
X51007521Y-29158286D01*
X51007520Y-29158284D01*
X50895716Y-29046480D01*
X50895715Y-29046479D01*
X50891385Y-29042149D01*
X50891374Y-29042139D01*
X50601818Y-28752583D01*
X50568333Y-28691260D01*
X50565499Y-28664902D01*
X50565499Y-27762129D01*
X50565498Y-27762123D01*
X50565497Y-27762116D01*
X50559091Y-27702517D01*
X50556149Y-27694630D01*
X50508797Y-27567671D01*
X50508793Y-27567664D01*
X50422547Y-27452455D01*
X50422544Y-27452452D01*
X50307335Y-27366206D01*
X50307328Y-27366202D01*
X50172482Y-27315908D01*
X50172483Y-27315908D01*
X50112883Y-27309501D01*
X50112881Y-27309500D01*
X50112873Y-27309500D01*
X50112865Y-27309500D01*
X49763361Y-27309500D01*
X49696322Y-27289815D01*
X49650567Y-27237011D01*
X49640623Y-27167853D01*
X49669648Y-27104297D01*
X49675680Y-27097819D01*
X50061681Y-26711818D01*
X50123004Y-26678333D01*
X50149362Y-26675499D01*
X50252871Y-26675499D01*
X50252872Y-26675499D01*
X50312483Y-26669091D01*
X50447331Y-26618796D01*
X50562546Y-26532546D01*
X50648796Y-26417331D01*
X50699091Y-26282483D01*
X50705500Y-26222873D01*
X50705499Y-24777128D01*
X50699091Y-24717517D01*
X50698869Y-24716923D01*
X50648797Y-24582671D01*
X50648793Y-24582664D01*
X50562547Y-24467455D01*
X50450188Y-24383342D01*
X50408318Y-24327408D01*
X50400500Y-24284076D01*
X50400500Y-23715923D01*
X50420185Y-23648884D01*
X50450187Y-23616657D01*
X50562546Y-23532546D01*
X50648796Y-23417331D01*
X50699091Y-23282483D01*
X50705500Y-23222873D01*
X50705499Y-22619360D01*
X50725183Y-22552322D01*
X50741813Y-22531685D01*
X51136680Y-22136819D01*
X51198003Y-22103334D01*
X51224361Y-22100500D01*
X51848693Y-22100500D01*
X51848694Y-22100499D01*
X52022666Y-22065895D01*
X52104606Y-22031953D01*
X52186547Y-21998013D01*
X52294374Y-21925965D01*
X52334036Y-21899464D01*
X52893054Y-21340444D01*
X52954375Y-21306961D01*
X52969916Y-21304600D01*
X53186692Y-21285635D01*
X53406496Y-21226739D01*
X53612734Y-21130568D01*
X53799139Y-21000047D01*
X53960047Y-20839139D01*
X54090568Y-20652734D01*
X54186739Y-20446496D01*
X54245635Y-20226692D01*
X54265468Y-20000000D01*
X54264599Y-19990072D01*
X54257698Y-19911186D01*
X54245635Y-19773308D01*
X54186739Y-19553504D01*
X54090568Y-19347266D01*
X53960047Y-19160861D01*
X53960045Y-19160858D01*
X53799141Y-18999954D01*
X53612734Y-18869432D01*
X53612732Y-18869431D01*
X53406497Y-18773261D01*
X53406488Y-18773258D01*
X53186697Y-18714366D01*
X53186693Y-18714365D01*
X53186692Y-18714365D01*
X53186691Y-18714364D01*
X53186686Y-18714364D01*
X52960002Y-18694532D01*
X52959998Y-18694532D01*
X52733313Y-18714364D01*
X52733302Y-18714366D01*
X52513511Y-18773258D01*
X52513502Y-18773261D01*
X52307267Y-18869431D01*
X52307265Y-18869432D01*
X52120858Y-18999954D01*
X51959954Y-19160858D01*
X51829432Y-19347265D01*
X51829431Y-19347267D01*
X51733261Y-19553502D01*
X51733258Y-19553511D01*
X51674366Y-19773302D01*
X51674364Y-19773312D01*
X51655400Y-19990072D01*
X51629947Y-20055140D01*
X51619554Y-20066945D01*
X51423317Y-20263182D01*
X51361997Y-20296666D01*
X51335638Y-20299500D01*
X50711304Y-20299500D01*
X50537339Y-20334103D01*
X50537323Y-20334108D01*
X50421453Y-20382102D01*
X50421454Y-20382103D01*
X50373454Y-20401986D01*
X50261852Y-20476557D01*
X50261851Y-20476558D01*
X50225962Y-20500537D01*
X50225961Y-20500538D01*
X49877681Y-20848819D01*
X49816358Y-20882304D01*
X49746666Y-20877320D01*
X49702319Y-20848819D01*
X49255680Y-20402180D01*
X49222195Y-20340857D01*
X49227179Y-20271165D01*
X49269051Y-20215232D01*
X49334515Y-20190815D01*
X49343361Y-20190499D01*
X50112871Y-20190499D01*
X50112872Y-20190499D01*
X50172483Y-20184091D01*
X50307331Y-20133796D01*
X50422546Y-20047546D01*
X50508796Y-19932331D01*
X50559091Y-19797483D01*
X50565500Y-19737873D01*
X50565499Y-18262128D01*
X50559091Y-18202517D01*
X50558894Y-18201990D01*
X50508797Y-18067671D01*
X50508793Y-18067664D01*
X50422547Y-17952455D01*
X50422544Y-17952452D01*
X50307335Y-17866206D01*
X50307328Y-17866202D01*
X50181167Y-17819147D01*
X50125233Y-17777276D01*
X50100816Y-17711811D01*
X50100500Y-17702965D01*
X50100500Y-16799499D01*
X50120185Y-16732460D01*
X50172989Y-16686705D01*
X50224500Y-16675499D01*
X50252871Y-16675499D01*
X50252872Y-16675499D01*
X50312483Y-16669091D01*
X50447331Y-16618796D01*
X50562546Y-16532546D01*
X50648796Y-16417331D01*
X50699091Y-16282483D01*
X50705500Y-16222873D01*
X50705499Y-14878711D01*
X55149500Y-14878711D01*
X55149500Y-15121288D01*
X55181161Y-15361785D01*
X55243947Y-15596104D01*
X55334770Y-15815370D01*
X55336776Y-15820212D01*
X55458064Y-16030289D01*
X55458066Y-16030292D01*
X55458067Y-16030293D01*
X55605733Y-16222736D01*
X55605739Y-16222743D01*
X55777256Y-16394260D01*
X55777262Y-16394265D01*
X55969711Y-16541936D01*
X56179788Y-16663224D01*
X56403900Y-16756054D01*
X56638211Y-16818838D01*
X56818586Y-16842584D01*
X56878711Y-16850500D01*
X56878712Y-16850500D01*
X57121289Y-16850500D01*
X57169388Y-16844167D01*
X57361789Y-16818838D01*
X57596100Y-16756054D01*
X57820212Y-16663224D01*
X58030289Y-16541936D01*
X58222738Y-16394265D01*
X58394265Y-16222738D01*
X58541936Y-16030289D01*
X58663224Y-15820212D01*
X58756054Y-15596100D01*
X58818838Y-15361789D01*
X58850500Y-15121288D01*
X58850500Y-14878712D01*
X58818838Y-14638211D01*
X58756054Y-14403900D01*
X58748432Y-14385500D01*
X58723166Y-14324501D01*
X58663224Y-14179788D01*
X58541936Y-13969711D01*
X58416291Y-13805967D01*
X58394266Y-13777263D01*
X58394260Y-13777256D01*
X58222743Y-13605739D01*
X58222736Y-13605733D01*
X58030293Y-13458067D01*
X58030292Y-13458066D01*
X58030289Y-13458064D01*
X57820212Y-13336776D01*
X57820205Y-13336773D01*
X57596104Y-13243947D01*
X57429693Y-13199357D01*
X57361789Y-13181162D01*
X57361788Y-13181161D01*
X57361785Y-13181161D01*
X57121289Y-13149500D01*
X57121288Y-13149500D01*
X56878712Y-13149500D01*
X56878711Y-13149500D01*
X56638214Y-13181161D01*
X56403895Y-13243947D01*
X56179794Y-13336773D01*
X56179785Y-13336777D01*
X55969706Y-13458067D01*
X55777263Y-13605733D01*
X55777256Y-13605739D01*
X55605739Y-13777256D01*
X55605733Y-13777263D01*
X55458067Y-13969706D01*
X55336777Y-14179785D01*
X55336773Y-14179794D01*
X55243947Y-14403895D01*
X55181161Y-14638214D01*
X55149500Y-14878711D01*
X50705499Y-14878711D01*
X50705499Y-14777128D01*
X50699302Y-14719479D01*
X50699091Y-14717516D01*
X50648797Y-14582671D01*
X50648793Y-14582664D01*
X50562547Y-14467455D01*
X50562544Y-14467452D01*
X50447335Y-14381206D01*
X50447328Y-14381202D01*
X50312482Y-14330908D01*
X50312483Y-14330908D01*
X50252883Y-14324501D01*
X50252881Y-14324500D01*
X50252873Y-14324500D01*
X50252865Y-14324500D01*
X49225098Y-14324500D01*
X49158059Y-14304815D01*
X49137417Y-14288181D01*
X47690223Y-12840988D01*
X47690221Y-12840985D01*
X47565602Y-12716366D01*
X47566750Y-12715217D01*
X47531140Y-12666448D01*
X47526985Y-12596702D01*
X47561197Y-12535782D01*
X47622915Y-12503029D01*
X47647829Y-12500500D01*
X59375500Y-12500500D01*
X59442539Y-12520185D01*
G37*
G04 #@! TD.AperFunction*
G04 #@! TA.AperFunction,Conductor*
G36*
X22746284Y-52195920D02*
G01*
X22766926Y-52212554D01*
X24392066Y-53837694D01*
X24425551Y-53899017D01*
X24428385Y-53925375D01*
X24428385Y-56000500D01*
X24408700Y-56067539D01*
X24355896Y-56113294D01*
X24304385Y-56124500D01*
X22862129Y-56124500D01*
X22862123Y-56124501D01*
X22802516Y-56130908D01*
X22667671Y-56181202D01*
X22667664Y-56181206D01*
X22552455Y-56267452D01*
X22552452Y-56267455D01*
X22466206Y-56382664D01*
X22466202Y-56382671D01*
X22415908Y-56517517D01*
X22409501Y-56577116D01*
X22409500Y-56577135D01*
X22409500Y-56689956D01*
X22389815Y-56756995D01*
X22337011Y-56802750D01*
X22285500Y-56813956D01*
X19374500Y-56813956D01*
X19307461Y-56794271D01*
X19261706Y-56741467D01*
X19250500Y-56689956D01*
X19250500Y-53448014D01*
X19270185Y-53380975D01*
X19286815Y-53360337D01*
X19442767Y-53204385D01*
X19504089Y-53170901D01*
X19573781Y-53175885D01*
X19629714Y-53217757D01*
X19654131Y-53283221D01*
X19653850Y-53304221D01*
X19644417Y-53399999D01*
X19664699Y-53605932D01*
X19672390Y-53631286D01*
X19724768Y-53803954D01*
X19822315Y-53986450D01*
X19822317Y-53986452D01*
X19953589Y-54146410D01*
X20050209Y-54225702D01*
X20113550Y-54277685D01*
X20296046Y-54375232D01*
X20494066Y-54435300D01*
X20494065Y-54435300D01*
X20512529Y-54437118D01*
X20700000Y-54455583D01*
X20905934Y-54435300D01*
X21103954Y-54375232D01*
X21286450Y-54277685D01*
X21446410Y-54146410D01*
X21577685Y-53986450D01*
X21675232Y-53803954D01*
X21735300Y-53605934D01*
X21755583Y-53400000D01*
X21735300Y-53194066D01*
X21675232Y-52996046D01*
X21577685Y-52813550D01*
X21521569Y-52745172D01*
X21446410Y-52653589D01*
X21289723Y-52525001D01*
X21286450Y-52522315D01*
X21103954Y-52424768D01*
X21084593Y-52418895D01*
X21026156Y-52380598D01*
X20997700Y-52316786D01*
X21008260Y-52247719D01*
X21054484Y-52195325D01*
X21120590Y-52176235D01*
X21820943Y-52176235D01*
X22679245Y-52176235D01*
X22746284Y-52195920D01*
G37*
G04 #@! TD.AperFunction*
G04 #@! TA.AperFunction,Conductor*
G36*
X32427081Y-55001218D02*
G01*
X32558385Y-55035446D01*
X32558405Y-55035448D01*
X32560113Y-55035766D01*
X32578424Y-55040638D01*
X32615623Y-55053654D01*
X32640638Y-55065701D01*
X32644998Y-55068441D01*
X32644998Y-55068442D01*
X32660011Y-55077875D01*
X32673268Y-55086205D01*
X32694976Y-55103517D01*
X32722217Y-55130758D01*
X32739529Y-55152466D01*
X32760034Y-55185099D01*
X32772080Y-55210113D01*
X32783920Y-55243947D01*
X32786767Y-55252083D01*
X32791904Y-55271866D01*
X32793800Y-55282809D01*
X32799775Y-55312114D01*
X32799777Y-55312122D01*
X32833525Y-55398231D01*
X32839660Y-55467831D01*
X32807192Y-55529699D01*
X32746431Y-55564192D01*
X32676666Y-55560360D01*
X32630394Y-55531159D01*
X32308125Y-55208890D01*
X32274640Y-55147567D01*
X32279624Y-55077875D01*
X32321496Y-55021942D01*
X32386960Y-54997525D01*
X32427081Y-55001218D01*
G37*
G04 #@! TD.AperFunction*
G04 #@! TA.AperFunction,Conductor*
G36*
X51035017Y-35188260D02*
G01*
X51090950Y-35230132D01*
X51115367Y-35295596D01*
X51114903Y-35318325D01*
X51094435Y-35499995D01*
X51094435Y-35500003D01*
X51114630Y-35679249D01*
X51114631Y-35679254D01*
X51174211Y-35849523D01*
X51226243Y-35932331D01*
X51270184Y-36002262D01*
X51397738Y-36129816D01*
X51550478Y-36225789D01*
X51720745Y-36285368D01*
X51807669Y-36295161D01*
X51872080Y-36322226D01*
X51881464Y-36330699D01*
X52531284Y-36980520D01*
X52531286Y-36980521D01*
X52531290Y-36980524D01*
X52602662Y-37021730D01*
X52668216Y-37059577D01*
X52820943Y-37100501D01*
X52820945Y-37100501D01*
X52986654Y-37100501D01*
X52986670Y-37100500D01*
X53933512Y-37100500D01*
X54000551Y-37120185D01*
X54046306Y-37172989D01*
X54048073Y-37177048D01*
X54069532Y-37228856D01*
X54069533Y-37228858D01*
X54201160Y-37443653D01*
X54201161Y-37443656D01*
X54247397Y-37497791D01*
X54364776Y-37635224D01*
X54495785Y-37747116D01*
X54556343Y-37798838D01*
X54556346Y-37798839D01*
X54771140Y-37930466D01*
X54924391Y-37993944D01*
X55003889Y-38026873D01*
X55248852Y-38085683D01*
X55500000Y-38105449D01*
X55751148Y-38085683D01*
X55996111Y-38026873D01*
X56228859Y-37930466D01*
X56443659Y-37798836D01*
X56635224Y-37635224D01*
X56676956Y-37586361D01*
X56735461Y-37548170D01*
X56805329Y-37547670D01*
X56864375Y-37585024D01*
X56893854Y-37648370D01*
X56895245Y-37666894D01*
X56895245Y-49909251D01*
X56875560Y-49976290D01*
X56849673Y-49998720D01*
X56861242Y-50005446D01*
X56893073Y-50067643D01*
X56895245Y-50090748D01*
X56895245Y-54370499D01*
X56875560Y-54437538D01*
X56822756Y-54483293D01*
X56771245Y-54494499D01*
X53084787Y-54494499D01*
X53017748Y-54474814D01*
X52971993Y-54422010D01*
X52962049Y-54352852D01*
X52991074Y-54289296D01*
X52997106Y-54282818D01*
X53354549Y-53925375D01*
X53758506Y-53521418D01*
X53758511Y-53521414D01*
X53768714Y-53511210D01*
X53768716Y-53511210D01*
X53880520Y-53399406D01*
X53946816Y-53284577D01*
X53959577Y-53262475D01*
X53983910Y-53171659D01*
X54016003Y-53116074D01*
X54029816Y-53102262D01*
X54125789Y-52949522D01*
X54185368Y-52779255D01*
X54185642Y-52776822D01*
X54205565Y-52600003D01*
X54205565Y-52599996D01*
X54185369Y-52420750D01*
X54185368Y-52420745D01*
X54144485Y-52303909D01*
X54125789Y-52250478D01*
X54124055Y-52247719D01*
X54070098Y-52161846D01*
X54029816Y-52097738D01*
X53902262Y-51970184D01*
X53875735Y-51953516D01*
X53749523Y-51874211D01*
X53579254Y-51814631D01*
X53579249Y-51814630D01*
X53400004Y-51794435D01*
X53399996Y-51794435D01*
X53220750Y-51814630D01*
X53220742Y-51814632D01*
X53120798Y-51849604D01*
X53051019Y-51853165D01*
X52990392Y-51818436D01*
X52958165Y-51756442D01*
X52955844Y-51732562D01*
X52955844Y-50000000D01*
X54544417Y-50000000D01*
X54564699Y-50205932D01*
X54587751Y-50281923D01*
X54624768Y-50403954D01*
X54722315Y-50586450D01*
X54740704Y-50608857D01*
X54853589Y-50746410D01*
X54893886Y-50779480D01*
X55013550Y-50877685D01*
X55196046Y-50975232D01*
X55394066Y-51035300D01*
X55394065Y-51035300D01*
X55412529Y-51037118D01*
X55600000Y-51055583D01*
X55805934Y-51035300D01*
X56003954Y-50975232D01*
X56186450Y-50877685D01*
X56346410Y-50746410D01*
X56477685Y-50586450D01*
X56575232Y-50403954D01*
X56635300Y-50205934D01*
X56647842Y-50078593D01*
X56674003Y-50013807D01*
X56689818Y-50002615D01*
X56652268Y-49944186D01*
X56647842Y-49921405D01*
X56640856Y-49850476D01*
X56635300Y-49794066D01*
X56575232Y-49596046D01*
X56477685Y-49413550D01*
X56386606Y-49302569D01*
X56346410Y-49253589D01*
X56186452Y-49122317D01*
X56186453Y-49122317D01*
X56186450Y-49122315D01*
X56003954Y-49024768D01*
X55805934Y-48964700D01*
X55805932Y-48964699D01*
X55805934Y-48964699D01*
X55600000Y-48944417D01*
X55394067Y-48964699D01*
X55196043Y-49024769D01*
X55085898Y-49083643D01*
X55013550Y-49122315D01*
X55013548Y-49122316D01*
X55013547Y-49122317D01*
X54853589Y-49253589D01*
X54722317Y-49413547D01*
X54722315Y-49413550D01*
X54686518Y-49480521D01*
X54624769Y-49596043D01*
X54564699Y-49794067D01*
X54544417Y-50000000D01*
X52955844Y-50000000D01*
X52955844Y-48702473D01*
X52951554Y-48662569D01*
X52950844Y-48649314D01*
X52950844Y-47892474D01*
X52950843Y-47892468D01*
X52948154Y-47867455D01*
X52944436Y-47832862D01*
X52939707Y-47820184D01*
X52894142Y-47698016D01*
X52894138Y-47698009D01*
X52807892Y-47582800D01*
X52807889Y-47582797D01*
X52692680Y-47496551D01*
X52692673Y-47496547D01*
X52557831Y-47446255D01*
X52557830Y-47446254D01*
X52557828Y-47446254D01*
X52498218Y-47439845D01*
X52498208Y-47439845D01*
X51802474Y-47439845D01*
X51802468Y-47439846D01*
X51742860Y-47446254D01*
X51608396Y-47496405D01*
X51538705Y-47501389D01*
X51477382Y-47467903D01*
X51443898Y-47406580D01*
X51448883Y-47336888D01*
X51477380Y-47292545D01*
X51501210Y-47268716D01*
X51501211Y-47268713D01*
X52233107Y-46536819D01*
X52294430Y-46503334D01*
X52320788Y-46500500D01*
X52417588Y-46500500D01*
X52484627Y-46520185D01*
X52494903Y-46527555D01*
X52497736Y-46529814D01*
X52497738Y-46529816D01*
X52597521Y-46592514D01*
X52627431Y-46611308D01*
X52650478Y-46625789D01*
X52774820Y-46669298D01*
X52820745Y-46685368D01*
X52820750Y-46685369D01*
X52999996Y-46705565D01*
X53000000Y-46705565D01*
X53000004Y-46705565D01*
X53179249Y-46685369D01*
X53179252Y-46685368D01*
X53179255Y-46685368D01*
X53349522Y-46625789D01*
X53502262Y-46529816D01*
X53629816Y-46402262D01*
X53725789Y-46249522D01*
X53785368Y-46079255D01*
X53785482Y-46078242D01*
X53805565Y-45900003D01*
X53805565Y-45899996D01*
X53785369Y-45720750D01*
X53785368Y-45720745D01*
X53725789Y-45550478D01*
X53710633Y-45526358D01*
X53635939Y-45407483D01*
X53629816Y-45397738D01*
X53502262Y-45270184D01*
X53458157Y-45242471D01*
X53349523Y-45174211D01*
X53179254Y-45114631D01*
X53179249Y-45114630D01*
X53000004Y-45094435D01*
X52999996Y-45094435D01*
X52820750Y-45114630D01*
X52820745Y-45114631D01*
X52650476Y-45174211D01*
X52497736Y-45270185D01*
X52494903Y-45272445D01*
X52492724Y-45273334D01*
X52491842Y-45273889D01*
X52491744Y-45273734D01*
X52430217Y-45298855D01*
X52417588Y-45299500D01*
X52107360Y-45299500D01*
X52107344Y-45299499D01*
X52099748Y-45299499D01*
X51941633Y-45299499D01*
X51941628Y-45299499D01*
X51940678Y-45299624D01*
X51939877Y-45299499D01*
X51933505Y-45299499D01*
X51933505Y-45298504D01*
X51871643Y-45288854D01*
X51819390Y-45242471D01*
X51800500Y-45176684D01*
X51800500Y-43882412D01*
X51820185Y-43815373D01*
X51827555Y-43805097D01*
X51829810Y-43802267D01*
X51829816Y-43802262D01*
X51925789Y-43649522D01*
X51985368Y-43479255D01*
X51985606Y-43477144D01*
X52005565Y-43300003D01*
X52005565Y-43299996D01*
X51985369Y-43120750D01*
X51985368Y-43120745D01*
X51949933Y-43019478D01*
X51925789Y-42950478D01*
X51914043Y-42931785D01*
X51883226Y-42882739D01*
X51829816Y-42797738D01*
X51702262Y-42670184D01*
X51673537Y-42652135D01*
X51549523Y-42574211D01*
X51379254Y-42514631D01*
X51379249Y-42514630D01*
X51200004Y-42494435D01*
X51199996Y-42494435D01*
X51020750Y-42514630D01*
X51020745Y-42514631D01*
X50850476Y-42574211D01*
X50697737Y-42670184D01*
X50570184Y-42797737D01*
X50474211Y-42950476D01*
X50414631Y-43120745D01*
X50414630Y-43120750D01*
X50394435Y-43299996D01*
X50394435Y-43300003D01*
X50406639Y-43408322D01*
X50394584Y-43477144D01*
X50347235Y-43528523D01*
X50279625Y-43546147D01*
X50213219Y-43524420D01*
X50209107Y-43521471D01*
X50180637Y-43500158D01*
X50138767Y-43444224D01*
X50130949Y-43400892D01*
X50130949Y-42882739D01*
X50150634Y-42815700D01*
X50180636Y-42783473D01*
X50292995Y-42699362D01*
X50379245Y-42584147D01*
X50429540Y-42449299D01*
X50435949Y-42389689D01*
X50435948Y-40943944D01*
X50429540Y-40884333D01*
X50423528Y-40868215D01*
X50379246Y-40749487D01*
X50379242Y-40749480D01*
X50292996Y-40634271D01*
X50281664Y-40625788D01*
X50193447Y-40559748D01*
X50180637Y-40550158D01*
X50138767Y-40494224D01*
X50130949Y-40450892D01*
X50130949Y-39932739D01*
X50150634Y-39865700D01*
X50180636Y-39833473D01*
X50292995Y-39749362D01*
X50379245Y-39634147D01*
X50429540Y-39499299D01*
X50435949Y-39439689D01*
X50435948Y-37993944D01*
X50429540Y-37934333D01*
X50427855Y-37929816D01*
X50379246Y-37799487D01*
X50379242Y-37799480D01*
X50292996Y-37684271D01*
X50270240Y-37667236D01*
X50228821Y-37636229D01*
X50180637Y-37600158D01*
X50138767Y-37544224D01*
X50130949Y-37500892D01*
X50130949Y-36735083D01*
X50150634Y-36668044D01*
X50155683Y-36660772D01*
X50239242Y-36549151D01*
X50239241Y-36549151D01*
X50239245Y-36549147D01*
X50289540Y-36414299D01*
X50295949Y-36354689D01*
X50295948Y-35876176D01*
X50315632Y-35809138D01*
X50332262Y-35788501D01*
X50904004Y-35216759D01*
X50965325Y-35183276D01*
X51035017Y-35188260D01*
G37*
G04 #@! TD.AperFunction*
G04 #@! TA.AperFunction,Conductor*
G36*
X34205834Y-46845915D02*
G01*
X34250181Y-46874416D01*
X34888584Y-47512819D01*
X34922069Y-47574142D01*
X34917085Y-47643834D01*
X34875213Y-47699767D01*
X34809749Y-47724184D01*
X34800903Y-47724500D01*
X34447130Y-47724500D01*
X34447123Y-47724501D01*
X34387516Y-47730908D01*
X34252671Y-47781202D01*
X34252664Y-47781206D01*
X34137455Y-47867452D01*
X34137452Y-47867455D01*
X34051206Y-47982664D01*
X34051202Y-47982671D01*
X34000908Y-48117517D01*
X33994501Y-48177116D01*
X33994500Y-48177135D01*
X33994500Y-49622870D01*
X33994501Y-49622876D01*
X34000908Y-49682482D01*
X34020797Y-49735808D01*
X34025780Y-49805499D01*
X34009609Y-49845109D01*
X33973362Y-49902797D01*
X33973362Y-49902798D01*
X33939798Y-49998720D01*
X33935342Y-50011454D01*
X33894620Y-50068230D01*
X33829668Y-50093978D01*
X33818300Y-50094500D01*
X32927535Y-50094500D01*
X32900185Y-50095241D01*
X32886680Y-50095974D01*
X32859305Y-50098208D01*
X32663804Y-50119536D01*
X32663797Y-50119537D01*
X32609661Y-50128441D01*
X32609654Y-50128442D01*
X32609645Y-50128444D01*
X32583387Y-50134242D01*
X32583378Y-50134244D01*
X32530499Y-50148973D01*
X32530496Y-50148973D01*
X32441231Y-50179149D01*
X32441230Y-50179148D01*
X32344257Y-50211930D01*
X32318460Y-50221437D01*
X32305993Y-50226421D01*
X32280754Y-50237315D01*
X31897224Y-50415369D01*
X31571382Y-50566640D01*
X31549918Y-50577229D01*
X31539521Y-50582668D01*
X31518623Y-50594238D01*
X31370636Y-50680810D01*
X31370624Y-50680818D01*
X31330530Y-50706895D01*
X31330529Y-50706896D01*
X31330524Y-50706899D01*
X31311515Y-50720584D01*
X31311491Y-50720602D01*
X31274068Y-50750331D01*
X31274043Y-50750352D01*
X31149433Y-50859352D01*
X31149407Y-50859376D01*
X31114953Y-50892521D01*
X31098838Y-50909565D01*
X31067678Y-50945813D01*
X31067661Y-50945834D01*
X30965826Y-51076301D01*
X30938194Y-51115384D01*
X30925601Y-51135116D01*
X30925585Y-51135141D01*
X30901800Y-51176612D01*
X30901784Y-51176642D01*
X30826328Y-51323944D01*
X30826312Y-51323978D01*
X30806555Y-51367508D01*
X30806548Y-51367524D01*
X30803237Y-51375844D01*
X30797895Y-51389265D01*
X30797885Y-51389293D01*
X30782323Y-51434519D01*
X30782318Y-51434533D01*
X30735932Y-51593424D01*
X30735921Y-51593468D01*
X30724702Y-51639980D01*
X30720302Y-51662944D01*
X30720296Y-51662980D01*
X30713527Y-51710323D01*
X30697317Y-51881012D01*
X30695620Y-51904895D01*
X30695065Y-51916613D01*
X30694500Y-51940497D01*
X30694500Y-52769858D01*
X30695133Y-52795149D01*
X30695756Y-52807577D01*
X30697658Y-52832836D01*
X30713916Y-52994499D01*
X30715817Y-53013396D01*
X30723404Y-53063477D01*
X30728345Y-53087792D01*
X30740914Y-53136886D01*
X30741954Y-53140241D01*
X30741957Y-53140256D01*
X30741959Y-53140256D01*
X30792796Y-53304183D01*
X30792799Y-53304190D01*
X30810205Y-53351753D01*
X30810207Y-53351758D01*
X30810210Y-53351765D01*
X30818018Y-53370184D01*
X30819895Y-53374610D01*
X30819900Y-53374623D01*
X30824622Y-53384370D01*
X30836133Y-53453285D01*
X30808557Y-53517483D01*
X30750652Y-53556582D01*
X30680800Y-53558167D01*
X30625345Y-53526109D01*
X30618717Y-53519481D01*
X30618709Y-53519475D01*
X30511052Y-53457320D01*
X30511051Y-53457319D01*
X30511051Y-53457320D01*
X30481785Y-53440423D01*
X30329057Y-53399499D01*
X30170943Y-53399499D01*
X30163347Y-53399499D01*
X30163331Y-53399500D01*
X30082412Y-53399500D01*
X30015373Y-53379815D01*
X30005097Y-53372445D01*
X30002263Y-53370185D01*
X30002262Y-53370184D01*
X29897243Y-53304196D01*
X29849523Y-53274211D01*
X29679254Y-53214631D01*
X29679250Y-53214630D01*
X29550616Y-53200137D01*
X29486202Y-53173070D01*
X29446647Y-53115475D01*
X29440500Y-53076917D01*
X29440500Y-51560097D01*
X29460185Y-51493058D01*
X29476819Y-51472416D01*
X34074819Y-46874416D01*
X34136142Y-46840931D01*
X34205834Y-46845915D01*
G37*
G04 #@! TD.AperFunction*
G04 #@! TA.AperFunction,Conductor*
G36*
X41103333Y-47203769D02*
G01*
X41147680Y-47232270D01*
X41911016Y-47995606D01*
X41911045Y-47995637D01*
X42001263Y-48085855D01*
X42001267Y-48085858D01*
X42103707Y-48154307D01*
X42103713Y-48154310D01*
X42103714Y-48154311D01*
X42217548Y-48201463D01*
X42276500Y-48213189D01*
X42338391Y-48225499D01*
X42338392Y-48225500D01*
X42338393Y-48225500D01*
X42338394Y-48225500D01*
X42650325Y-48225500D01*
X42717364Y-48245185D01*
X42763119Y-48297989D01*
X42773063Y-48367147D01*
X42771942Y-48373687D01*
X42770305Y-48381919D01*
X42744500Y-48511647D01*
X42744500Y-48511650D01*
X42744500Y-48668350D01*
X42744500Y-48668352D01*
X42744499Y-48668352D01*
X42775069Y-48822033D01*
X42775072Y-48822043D01*
X42835033Y-48966804D01*
X42835040Y-48966817D01*
X42922094Y-49097101D01*
X42922097Y-49097105D01*
X42967311Y-49142319D01*
X43000796Y-49203642D01*
X42995812Y-49273334D01*
X42967311Y-49317681D01*
X42922097Y-49362894D01*
X42922094Y-49362898D01*
X42835040Y-49493182D01*
X42835033Y-49493195D01*
X42775072Y-49637956D01*
X42775069Y-49637966D01*
X42744500Y-49791647D01*
X42744500Y-49791650D01*
X42744500Y-49948350D01*
X42744500Y-49948352D01*
X42744499Y-49948352D01*
X42775069Y-50102033D01*
X42775072Y-50102043D01*
X42835033Y-50246804D01*
X42835040Y-50246817D01*
X42922094Y-50377101D01*
X42922097Y-50377105D01*
X42957311Y-50412319D01*
X42990796Y-50473642D01*
X42985812Y-50543334D01*
X42957311Y-50587681D01*
X42922097Y-50622894D01*
X42922094Y-50622898D01*
X42835040Y-50753182D01*
X42835033Y-50753195D01*
X42775072Y-50897956D01*
X42775069Y-50897966D01*
X42744500Y-51051647D01*
X42744500Y-51051650D01*
X42744500Y-51208350D01*
X42744500Y-51208352D01*
X42744499Y-51208352D01*
X42775069Y-51362033D01*
X42775071Y-51362039D01*
X42835033Y-51506804D01*
X42835040Y-51506817D01*
X42922094Y-51637101D01*
X42922097Y-51637105D01*
X42962311Y-51677319D01*
X42995796Y-51738642D01*
X42990812Y-51808334D01*
X42962311Y-51852681D01*
X42922097Y-51892894D01*
X42922094Y-51892898D01*
X42835040Y-52023182D01*
X42835033Y-52023195D01*
X42775072Y-52167956D01*
X42775069Y-52167966D01*
X42744500Y-52321647D01*
X42744500Y-52321650D01*
X42744500Y-52478350D01*
X42744500Y-52478352D01*
X42744499Y-52478352D01*
X42775069Y-52632033D01*
X42775072Y-52632043D01*
X42835033Y-52776804D01*
X42835043Y-52776822D01*
X42851605Y-52801609D01*
X42872483Y-52868286D01*
X42853998Y-52935666D01*
X42802019Y-52982356D01*
X42748503Y-52994499D01*
X32929500Y-52994499D01*
X32862461Y-52974814D01*
X32816706Y-52922010D01*
X32805500Y-52870499D01*
X32805500Y-52822220D01*
X32805499Y-52822201D01*
X32799593Y-52745172D01*
X32799593Y-52745169D01*
X32757649Y-52607538D01*
X32678628Y-52487300D01*
X32678625Y-52487296D01*
X32626131Y-52442741D01*
X32618691Y-52435885D01*
X32553516Y-52370710D01*
X32536204Y-52349001D01*
X32515701Y-52316371D01*
X32503653Y-52291354D01*
X32490925Y-52254980D01*
X32484746Y-52227910D01*
X32480431Y-52189605D01*
X32480432Y-52161846D01*
X32483165Y-52137588D01*
X32484745Y-52123560D01*
X32490921Y-52096496D01*
X32503654Y-52060108D01*
X32515701Y-52035096D01*
X32536204Y-52002466D01*
X32553512Y-51980761D01*
X32580761Y-51953512D01*
X32602466Y-51936204D01*
X32635096Y-51915701D01*
X32660108Y-51903654D01*
X32696496Y-51890921D01*
X32723557Y-51884745D01*
X32761853Y-51880431D01*
X32789615Y-51880431D01*
X32827908Y-51884745D01*
X32854974Y-51890923D01*
X32862821Y-51893668D01*
X32891352Y-51903652D01*
X32916368Y-51915700D01*
X32946812Y-51934829D01*
X32946814Y-51934829D01*
X32948997Y-51936201D01*
X32970712Y-51953518D01*
X33037548Y-52020354D01*
X33077935Y-52056621D01*
X33077940Y-52056625D01*
X33077950Y-52056634D01*
X33098644Y-52073298D01*
X33098653Y-52073305D01*
X33132571Y-52097737D01*
X33142683Y-52105021D01*
X33273600Y-52164706D01*
X33340653Y-52184347D01*
X33446536Y-52199500D01*
X33483074Y-52204729D01*
X33483081Y-52204730D01*
X37595267Y-52202055D01*
X37693710Y-52192311D01*
X37741081Y-52182873D01*
X37835764Y-52154135D01*
X37875710Y-52137588D01*
X37875709Y-52137587D01*
X37883097Y-52134526D01*
X37904128Y-52125815D01*
X37927387Y-52118760D01*
X37940544Y-52116144D01*
X37959460Y-52112382D01*
X37983647Y-52110000D01*
X39490468Y-52110000D01*
X39506126Y-52110993D01*
X39541101Y-52115445D01*
X39575529Y-52117405D01*
X39645993Y-52116496D01*
X39786232Y-52084333D01*
X39851418Y-52059181D01*
X39976914Y-51988811D01*
X40032718Y-51946049D01*
X40082373Y-51902571D01*
X40105239Y-51879746D01*
X40148801Y-51830176D01*
X40216177Y-51742580D01*
X40252904Y-51687768D01*
X40269097Y-51659814D01*
X40298380Y-51600667D01*
X40301377Y-51593468D01*
X40336641Y-51508735D01*
X40340844Y-51498637D01*
X40362172Y-51436180D01*
X40370594Y-51404990D01*
X40383601Y-51340297D01*
X40385791Y-51323944D01*
X40398261Y-51230809D01*
X40398263Y-51230789D01*
X40402732Y-51164835D01*
X40402732Y-51164830D01*
X40402733Y-51164816D01*
X40402804Y-51132455D01*
X40398629Y-51066501D01*
X40398628Y-51066493D01*
X40398628Y-51066487D01*
X40388858Y-50990958D01*
X40388849Y-50990900D01*
X40386822Y-50975230D01*
X40384498Y-50957264D01*
X40371717Y-50892281D01*
X40363390Y-50860949D01*
X40342226Y-50798203D01*
X40334510Y-50779478D01*
X40322500Y-50750331D01*
X40300279Y-50696403D01*
X40292627Y-50680818D01*
X40271092Y-50636955D01*
X40254934Y-50608862D01*
X40254929Y-50608854D01*
X40218219Y-50553729D01*
X40151319Y-50466284D01*
X40138472Y-50451594D01*
X40109155Y-50388172D01*
X40118780Y-50318969D01*
X40128709Y-50301069D01*
X40164958Y-50246819D01*
X40164959Y-50246816D01*
X40164963Y-50246811D01*
X40224929Y-50102039D01*
X40245481Y-49998720D01*
X40255500Y-49948352D01*
X40255500Y-49791647D01*
X40224930Y-49637966D01*
X40224929Y-49637965D01*
X40224929Y-49637961D01*
X40218681Y-49622876D01*
X40164966Y-49493195D01*
X40164959Y-49493182D01*
X40077905Y-49362898D01*
X40077902Y-49362894D01*
X40032689Y-49317681D01*
X39999204Y-49256358D01*
X40004188Y-49186666D01*
X40032689Y-49142319D01*
X40077902Y-49097105D01*
X40077905Y-49097102D01*
X40164963Y-48966811D01*
X40224929Y-48822039D01*
X40239401Y-48749285D01*
X40255500Y-48668352D01*
X40255500Y-48511647D01*
X40224930Y-48357966D01*
X40224929Y-48357965D01*
X40224929Y-48357961D01*
X40192328Y-48279255D01*
X40164965Y-48213193D01*
X40164963Y-48213189D01*
X40157127Y-48201462D01*
X40151979Y-48193758D01*
X40131102Y-48127081D01*
X40149587Y-48059701D01*
X40167396Y-48037192D01*
X40972322Y-47232267D01*
X41033641Y-47198785D01*
X41103333Y-47203769D01*
G37*
G04 #@! TD.AperFunction*
G04 #@! TA.AperFunction,Conductor*
G36*
X13905703Y-49676096D02*
G01*
X13912181Y-49682128D01*
X13948129Y-49718076D01*
X13948133Y-49718079D01*
X13948135Y-49718081D01*
X14089602Y-49801744D01*
X14102527Y-49805499D01*
X14247426Y-49847597D01*
X14247429Y-49847597D01*
X14247431Y-49847598D01*
X14284306Y-49850500D01*
X14284314Y-49850500D01*
X15440686Y-49850500D01*
X15440694Y-49850500D01*
X15477569Y-49847598D01*
X15477571Y-49847597D01*
X15477573Y-49847597D01*
X15579806Y-49817895D01*
X15635398Y-49801744D01*
X15768150Y-49723235D01*
X15783580Y-49714110D01*
X15784655Y-49715928D01*
X15839532Y-49694381D01*
X15908050Y-49708059D01*
X15958296Y-49756609D01*
X15974500Y-49817895D01*
X15974500Y-50182104D01*
X15954815Y-50249143D01*
X15902011Y-50294898D01*
X15832853Y-50304842D01*
X15784502Y-50284330D01*
X15783580Y-50285890D01*
X15674595Y-50221437D01*
X15635398Y-50198256D01*
X15635397Y-50198255D01*
X15635396Y-50198255D01*
X15635393Y-50198254D01*
X15477573Y-50152402D01*
X15477567Y-50152401D01*
X15440701Y-50149500D01*
X15440694Y-50149500D01*
X14284306Y-50149500D01*
X14284298Y-50149500D01*
X14247432Y-50152401D01*
X14247426Y-50152402D01*
X14089606Y-50198254D01*
X14089603Y-50198255D01*
X13948137Y-50281917D01*
X13948129Y-50281923D01*
X13912181Y-50317872D01*
X13850858Y-50351357D01*
X13781166Y-50346373D01*
X13725233Y-50304501D01*
X13700816Y-50239037D01*
X13700500Y-50230191D01*
X13700500Y-49769809D01*
X13720185Y-49702770D01*
X13772989Y-49657015D01*
X13842147Y-49647071D01*
X13905703Y-49676096D01*
G37*
G04 #@! TD.AperFunction*
G04 #@! TA.AperFunction,Conductor*
G36*
X21955723Y-48824762D02*
G01*
X22006103Y-48855338D01*
X22515139Y-49364374D01*
X22515149Y-49364385D01*
X22519479Y-49368715D01*
X22519480Y-49368716D01*
X22631284Y-49480520D01*
X22707294Y-49524404D01*
X22768215Y-49559577D01*
X22920943Y-49600500D01*
X23079057Y-49600500D01*
X25206921Y-49600500D01*
X25273960Y-49620185D01*
X25319715Y-49672989D01*
X25329659Y-49742147D01*
X25311915Y-49790472D01*
X25274210Y-49850478D01*
X25214630Y-50020750D01*
X25204837Y-50107667D01*
X25177770Y-50172081D01*
X25169299Y-50181463D01*
X25087584Y-50263180D01*
X25026262Y-50296666D01*
X24999902Y-50299500D01*
X21879652Y-50299500D01*
X21812613Y-50279815D01*
X21772920Y-50238621D01*
X21725717Y-50158805D01*
X21725710Y-50158796D01*
X21654595Y-50087681D01*
X21621110Y-50026358D01*
X21626094Y-49956666D01*
X21654595Y-49912319D01*
X21725710Y-49841203D01*
X21725715Y-49841198D01*
X21804555Y-49707887D01*
X21847765Y-49559156D01*
X21850500Y-49524405D01*
X21850499Y-49175596D01*
X21847765Y-49140844D01*
X21804555Y-48992113D01*
X21804553Y-48992110D01*
X21802378Y-48984622D01*
X21803633Y-48984257D01*
X21796061Y-48922927D01*
X21826347Y-48859963D01*
X21885867Y-48823369D01*
X21955723Y-48824762D01*
G37*
G04 #@! TD.AperFunction*
G04 #@! TA.AperFunction,Conductor*
G36*
X22668833Y-43082913D02*
G01*
X22724767Y-43124784D01*
X22749184Y-43190249D01*
X22749500Y-43199094D01*
X22749500Y-43347869D01*
X22749501Y-43347876D01*
X22755908Y-43407482D01*
X22769004Y-43442593D01*
X22774252Y-43456665D01*
X22774253Y-43456666D01*
X22779237Y-43526358D01*
X22774253Y-43543331D01*
X22755910Y-43592511D01*
X22755910Y-43592514D01*
X22755909Y-43592517D01*
X22749500Y-43652127D01*
X22749500Y-43652134D01*
X22749500Y-43652135D01*
X22749500Y-44347870D01*
X22749501Y-44347876D01*
X22755908Y-44407482D01*
X22764178Y-44429654D01*
X22774252Y-44456665D01*
X22774253Y-44456666D01*
X22779237Y-44526358D01*
X22774253Y-44543331D01*
X22755910Y-44592511D01*
X22755910Y-44592514D01*
X22755909Y-44592517D01*
X22749500Y-44652127D01*
X22749500Y-44652134D01*
X22749500Y-44652135D01*
X22749500Y-45347870D01*
X22749501Y-45347876D01*
X22755908Y-45407482D01*
X22769004Y-45442593D01*
X22774252Y-45456665D01*
X22774253Y-45456666D01*
X22779237Y-45526358D01*
X22774253Y-45543331D01*
X22755910Y-45592511D01*
X22755910Y-45592514D01*
X22755909Y-45592517D01*
X22749500Y-45652127D01*
X22749500Y-45652134D01*
X22749500Y-45652135D01*
X22749500Y-46347870D01*
X22749501Y-46347876D01*
X22755908Y-46407482D01*
X22767045Y-46437341D01*
X22774252Y-46456665D01*
X22774253Y-46456666D01*
X22779237Y-46526358D01*
X22774253Y-46543331D01*
X22755910Y-46592511D01*
X22755910Y-46592514D01*
X22755909Y-46592517D01*
X22749500Y-46652127D01*
X22749500Y-46652134D01*
X22749500Y-46652135D01*
X22749500Y-47347870D01*
X22749501Y-47347876D01*
X22755908Y-47407483D01*
X22806202Y-47542328D01*
X22806206Y-47542335D01*
X22892452Y-47657544D01*
X22892455Y-47657547D01*
X23007664Y-47743793D01*
X23007671Y-47743797D01*
X23142517Y-47794091D01*
X23142516Y-47794091D01*
X23149444Y-47794835D01*
X23202127Y-47800500D01*
X23889424Y-47800499D01*
X23956463Y-47820183D01*
X24002218Y-47872987D01*
X24012644Y-47938382D01*
X23994435Y-48099996D01*
X23994435Y-48100003D01*
X24012644Y-48261617D01*
X24000589Y-48330439D01*
X23953240Y-48381818D01*
X23889424Y-48399500D01*
X23300097Y-48399500D01*
X23233058Y-48379815D01*
X23212416Y-48363181D01*
X21936819Y-47087584D01*
X21903334Y-47026261D01*
X21900500Y-46999903D01*
X21900500Y-43800096D01*
X21920185Y-43733057D01*
X21936815Y-43712419D01*
X22537821Y-43111412D01*
X22599142Y-43077929D01*
X22668833Y-43082913D01*
G37*
G04 #@! TD.AperFunction*
G04 #@! TA.AperFunction,Conductor*
G36*
X26395702Y-39870383D02*
G01*
X26402180Y-39876415D01*
X26525139Y-39999374D01*
X26525149Y-39999385D01*
X26529479Y-40003715D01*
X26529480Y-40003716D01*
X26641284Y-40115520D01*
X26718723Y-40160229D01*
X26747501Y-40176844D01*
X26795715Y-40227409D01*
X26809500Y-40284230D01*
X26809500Y-41112870D01*
X26809501Y-41112876D01*
X26815908Y-41172483D01*
X26866202Y-41307328D01*
X26866206Y-41307335D01*
X26952452Y-41422544D01*
X26952455Y-41422547D01*
X27067664Y-41508793D01*
X27067671Y-41508797D01*
X27202517Y-41559091D01*
X27202516Y-41559091D01*
X27209444Y-41559835D01*
X27262127Y-41565500D01*
X28164902Y-41565499D01*
X28231941Y-41585183D01*
X28252583Y-41601818D01*
X28859616Y-42208851D01*
X28893101Y-42270174D01*
X28888117Y-42339866D01*
X28871202Y-42370843D01*
X28806204Y-42457669D01*
X28806202Y-42457671D01*
X28755910Y-42592513D01*
X28755909Y-42592517D01*
X28749500Y-42652127D01*
X28749500Y-42652134D01*
X28749500Y-42652135D01*
X28749500Y-43347870D01*
X28749501Y-43347876D01*
X28755908Y-43407482D01*
X28769004Y-43442593D01*
X28774252Y-43456665D01*
X28774253Y-43456666D01*
X28779237Y-43526358D01*
X28774253Y-43543331D01*
X28755910Y-43592511D01*
X28755910Y-43592514D01*
X28755909Y-43592517D01*
X28749500Y-43652127D01*
X28749500Y-43652134D01*
X28749500Y-43652135D01*
X28749500Y-44347870D01*
X28749501Y-44347876D01*
X28755908Y-44407482D01*
X28764178Y-44429654D01*
X28774252Y-44456665D01*
X28774253Y-44456666D01*
X28779237Y-44526358D01*
X28774253Y-44543331D01*
X28755910Y-44592511D01*
X28755910Y-44592514D01*
X28755909Y-44592517D01*
X28749500Y-44652127D01*
X28749500Y-44652134D01*
X28749500Y-44652135D01*
X28749500Y-45347870D01*
X28749501Y-45347879D01*
X28754254Y-45392096D01*
X28741846Y-45460856D01*
X28694234Y-45511992D01*
X28692969Y-45512732D01*
X28681290Y-45519475D01*
X28681282Y-45519481D01*
X28119481Y-46081282D01*
X28119479Y-46081285D01*
X28104311Y-46107557D01*
X28080684Y-46148481D01*
X28040423Y-46218215D01*
X27999499Y-46370943D01*
X27999499Y-46370945D01*
X27999499Y-46399903D01*
X27979814Y-46466942D01*
X27963180Y-46487584D01*
X27387584Y-47063181D01*
X27326261Y-47096666D01*
X27299903Y-47099500D01*
X26582412Y-47099500D01*
X26515373Y-47079815D01*
X26505097Y-47072445D01*
X26502263Y-47070185D01*
X26502262Y-47070184D01*
X26419307Y-47018060D01*
X26349523Y-46974211D01*
X26179254Y-46914631D01*
X26179249Y-46914630D01*
X26000004Y-46894435D01*
X25999996Y-46894435D01*
X25820750Y-46914630D01*
X25820745Y-46914631D01*
X25650476Y-46974211D01*
X25497737Y-47070184D01*
X25462179Y-47105742D01*
X25400856Y-47139227D01*
X25331164Y-47134241D01*
X25275231Y-47092369D01*
X25250815Y-47026905D01*
X25250499Y-47018074D01*
X25250499Y-46652128D01*
X25244091Y-46592517D01*
X25236637Y-46572531D01*
X25225747Y-46543334D01*
X25220762Y-46473643D01*
X25225747Y-46456665D01*
X25227761Y-46451265D01*
X25244091Y-46407483D01*
X25250500Y-46347873D01*
X25250499Y-45652128D01*
X25244091Y-45592517D01*
X25235214Y-45568716D01*
X25225747Y-45543334D01*
X25220762Y-45473643D01*
X25225747Y-45456665D01*
X25235761Y-45429816D01*
X25244091Y-45407483D01*
X25250500Y-45347873D01*
X25250499Y-44652128D01*
X25244091Y-44592517D01*
X25242599Y-44588517D01*
X25225747Y-44543334D01*
X25220762Y-44473643D01*
X25225747Y-44456665D01*
X25244089Y-44407488D01*
X25244088Y-44407488D01*
X25244091Y-44407483D01*
X25250500Y-44347873D01*
X25250499Y-43652128D01*
X25244091Y-43592517D01*
X25244089Y-43592511D01*
X25225747Y-43543334D01*
X25220762Y-43473643D01*
X25225747Y-43456665D01*
X25244089Y-43407488D01*
X25244088Y-43407488D01*
X25244091Y-43407483D01*
X25250500Y-43347873D01*
X25250499Y-43250095D01*
X25270183Y-43183058D01*
X25286813Y-43162420D01*
X25618535Y-42830698D01*
X25679856Y-42797215D01*
X25692311Y-42795163D01*
X25779255Y-42785368D01*
X25949522Y-42725789D01*
X26102262Y-42629816D01*
X26229816Y-42502262D01*
X26325789Y-42349522D01*
X26385368Y-42179255D01*
X26386084Y-42172900D01*
X26405565Y-42000003D01*
X26405565Y-41999996D01*
X26385369Y-41820750D01*
X26385368Y-41820745D01*
X26334974Y-41676728D01*
X26325789Y-41650478D01*
X26317940Y-41637987D01*
X26277867Y-41574211D01*
X26229816Y-41497738D01*
X26164503Y-41432425D01*
X26131019Y-41371101D01*
X26136002Y-41301414D01*
X26184091Y-41172483D01*
X26190500Y-41112873D01*
X26190499Y-39964095D01*
X26210184Y-39897057D01*
X26262987Y-39851302D01*
X26332146Y-39841358D01*
X26395702Y-39870383D01*
G37*
G04 #@! TD.AperFunction*
G04 #@! TA.AperFunction,Conductor*
G36*
X48265375Y-36670783D02*
G01*
X48314781Y-36720188D01*
X48329949Y-36779616D01*
X48329949Y-37500892D01*
X48310264Y-37567931D01*
X48280261Y-37600158D01*
X48167901Y-37684271D01*
X48081655Y-37799480D01*
X48081651Y-37799487D01*
X48031357Y-37934333D01*
X48024950Y-37993932D01*
X48024950Y-37993939D01*
X48024949Y-37993951D01*
X48024949Y-39439686D01*
X48024950Y-39439692D01*
X48031357Y-39499299D01*
X48081651Y-39634144D01*
X48081655Y-39634151D01*
X48130270Y-39699091D01*
X48167903Y-39749362D01*
X48280260Y-39833473D01*
X48322131Y-39889406D01*
X48329949Y-39932739D01*
X48329949Y-40450892D01*
X48310264Y-40517931D01*
X48280261Y-40550158D01*
X48167901Y-40634271D01*
X48081655Y-40749480D01*
X48081651Y-40749487D01*
X48031357Y-40884333D01*
X48026192Y-40932380D01*
X48024950Y-40943939D01*
X48024949Y-40943951D01*
X48024949Y-42389686D01*
X48024950Y-42389692D01*
X48031357Y-42449299D01*
X48081651Y-42584144D01*
X48081655Y-42584151D01*
X48132543Y-42652127D01*
X48167903Y-42699362D01*
X48280260Y-42783473D01*
X48322131Y-42839406D01*
X48329949Y-42882739D01*
X48329949Y-43400892D01*
X48310264Y-43467931D01*
X48280261Y-43500158D01*
X48167901Y-43584271D01*
X48081655Y-43699480D01*
X48081651Y-43699487D01*
X48031357Y-43834333D01*
X48024950Y-43893932D01*
X48024949Y-43893951D01*
X48024949Y-45339685D01*
X48025128Y-45343010D01*
X48023567Y-45343093D01*
X48011950Y-45405828D01*
X47989005Y-45437495D01*
X47900535Y-45525965D01*
X47801990Y-45673446D01*
X47801983Y-45673459D01*
X47734106Y-45837332D01*
X47734103Y-45837341D01*
X47699500Y-46011304D01*
X47699500Y-46188695D01*
X47734103Y-46362658D01*
X47734106Y-46362667D01*
X47801983Y-46526540D01*
X47801990Y-46526552D01*
X47855482Y-46606608D01*
X47876360Y-46673285D01*
X47857876Y-46740665D01*
X47805897Y-46787356D01*
X47752380Y-46799499D01*
X47620943Y-46799499D01*
X47468215Y-46840423D01*
X47468214Y-46840423D01*
X47468212Y-46840424D01*
X47438131Y-46857791D01*
X47431773Y-46861463D01*
X47409338Y-46874416D01*
X47395370Y-46882480D01*
X47327469Y-46898950D01*
X47261443Y-46876097D01*
X47256062Y-46872040D01*
X47253738Y-46870186D01*
X47100993Y-46774210D01*
X46930721Y-46714630D01*
X46843802Y-46704837D01*
X46779388Y-46677770D01*
X46770005Y-46669298D01*
X46447120Y-46346413D01*
X46447118Y-46346410D01*
X46328247Y-46227539D01*
X46328242Y-46227535D01*
X46212508Y-46160717D01*
X46212506Y-46160715D01*
X46196097Y-46151242D01*
X46191315Y-46148481D01*
X46038587Y-46107557D01*
X45880473Y-46107557D01*
X45872877Y-46107557D01*
X45872861Y-46107558D01*
X45689500Y-46107558D01*
X45622461Y-46087873D01*
X45576706Y-46035069D01*
X45565500Y-45983558D01*
X45565499Y-44762129D01*
X45565498Y-44762123D01*
X45565497Y-44762116D01*
X45559091Y-44702517D01*
X45552877Y-44685857D01*
X45508797Y-44567671D01*
X45508796Y-44567669D01*
X45490577Y-44543331D01*
X45438907Y-44474310D01*
X45414491Y-44408847D01*
X45429342Y-44340574D01*
X45438908Y-44325689D01*
X45508796Y-44232331D01*
X45559091Y-44097483D01*
X45565500Y-44037873D01*
X45565499Y-43669438D01*
X45585183Y-43602400D01*
X45627495Y-43562054D01*
X45655045Y-43546147D01*
X45681904Y-43530639D01*
X45768716Y-43480520D01*
X45880520Y-43368716D01*
X45880520Y-43368714D01*
X45890728Y-43358507D01*
X45890730Y-43358504D01*
X46058506Y-43190728D01*
X46058511Y-43190724D01*
X46068714Y-43180520D01*
X46068716Y-43180520D01*
X46180520Y-43068716D01*
X46242873Y-42960717D01*
X46259577Y-42931785D01*
X46300500Y-42779057D01*
X46300500Y-42620943D01*
X46300500Y-42182412D01*
X46320185Y-42115373D01*
X46327555Y-42105097D01*
X46329810Y-42102267D01*
X46329816Y-42102262D01*
X46425789Y-41949522D01*
X46485368Y-41779255D01*
X46493493Y-41707146D01*
X46505565Y-41600003D01*
X46505565Y-41599996D01*
X46485369Y-41420750D01*
X46485368Y-41420745D01*
X46445683Y-41307331D01*
X46425789Y-41250478D01*
X46423979Y-41247598D01*
X46363622Y-41151540D01*
X46329816Y-41097738D01*
X46202262Y-40970184D01*
X46199128Y-40968215D01*
X46049523Y-40874211D01*
X45995406Y-40855275D01*
X45938630Y-40814553D01*
X45912883Y-40749600D01*
X45926339Y-40681039D01*
X45948677Y-40650555D01*
X46358506Y-40240727D01*
X46358511Y-40240723D01*
X46368714Y-40230519D01*
X46368716Y-40230519D01*
X46480520Y-40118715D01*
X46548771Y-40000500D01*
X46559577Y-39981784D01*
X46600501Y-39829056D01*
X46600501Y-39670942D01*
X46600501Y-39663347D01*
X46600500Y-39663329D01*
X46600500Y-37147361D01*
X46620185Y-37080322D01*
X46636815Y-37059684D01*
X46852865Y-36843633D01*
X46914188Y-36810149D01*
X46940546Y-36807315D01*
X47843320Y-36807315D01*
X47843321Y-36807315D01*
X47902932Y-36800907D01*
X48037780Y-36750612D01*
X48131638Y-36680349D01*
X48197102Y-36655932D01*
X48265375Y-36670783D01*
G37*
G04 #@! TD.AperFunction*
G04 #@! TA.AperFunction,Conductor*
G36*
X43821477Y-41176240D02*
G01*
X43838620Y-41186378D01*
X43886304Y-41237447D01*
X43899500Y-41293111D01*
X43899500Y-42002965D01*
X43879815Y-42070004D01*
X43827011Y-42115759D01*
X43818833Y-42119147D01*
X43692671Y-42166202D01*
X43692664Y-42166206D01*
X43577455Y-42252452D01*
X43577452Y-42252455D01*
X43491206Y-42367664D01*
X43491202Y-42367671D01*
X43440908Y-42502517D01*
X43434501Y-42562116D01*
X43434500Y-42562135D01*
X43434500Y-44037870D01*
X43434501Y-44037876D01*
X43440908Y-44097483D01*
X43491202Y-44232328D01*
X43491203Y-44232330D01*
X43491204Y-44232331D01*
X43554482Y-44316860D01*
X43561092Y-44325689D01*
X43585509Y-44391153D01*
X43570658Y-44459426D01*
X43561092Y-44474311D01*
X43491203Y-44567669D01*
X43491202Y-44567671D01*
X43440908Y-44702517D01*
X43435340Y-44754312D01*
X43434500Y-44762127D01*
X43434500Y-45429816D01*
X43434501Y-45983558D01*
X43414816Y-46050597D01*
X43362013Y-46096352D01*
X43310501Y-46107558D01*
X42974354Y-46107558D01*
X42907315Y-46087873D01*
X42897039Y-46080503D01*
X42894205Y-46078243D01*
X42894204Y-46078242D01*
X42811482Y-46026264D01*
X42741465Y-45982269D01*
X42571196Y-45922689D01*
X42571191Y-45922688D01*
X42391946Y-45902493D01*
X42391938Y-45902493D01*
X42212692Y-45922688D01*
X42212681Y-45922691D01*
X42190453Y-45930469D01*
X42120675Y-45934030D01*
X42060048Y-45899301D01*
X42027821Y-45837307D01*
X42025500Y-45813427D01*
X42025500Y-42657940D01*
X42045185Y-42590901D01*
X42061819Y-42570259D01*
X42069962Y-42562116D01*
X42129816Y-42502262D01*
X42225789Y-42349522D01*
X42285368Y-42179255D01*
X42286084Y-42172900D01*
X42305565Y-42000003D01*
X42305565Y-41999996D01*
X42285369Y-41820750D01*
X42285368Y-41820745D01*
X42225788Y-41650475D01*
X42209260Y-41624172D01*
X42190259Y-41556936D01*
X42210626Y-41490100D01*
X42226572Y-41470517D01*
X42239419Y-41457671D01*
X42410273Y-41286818D01*
X42471597Y-41253334D01*
X42497954Y-41250500D01*
X42940686Y-41250500D01*
X42940694Y-41250500D01*
X42977569Y-41247598D01*
X42977571Y-41247597D01*
X42977573Y-41247597D01*
X43019191Y-41235505D01*
X43135398Y-41201744D01*
X43159933Y-41187233D01*
X43227655Y-41170050D01*
X43264007Y-41176923D01*
X43295745Y-41188029D01*
X43295749Y-41188029D01*
X43295751Y-41188030D01*
X43295748Y-41188030D01*
X43474996Y-41208226D01*
X43475000Y-41208226D01*
X43475004Y-41208226D01*
X43654249Y-41188030D01*
X43654250Y-41188029D01*
X43654255Y-41188029D01*
X43717404Y-41165931D01*
X43787180Y-41162369D01*
X43821477Y-41176240D01*
G37*
G04 #@! TD.AperFunction*
G04 #@! TA.AperFunction,Conductor*
G36*
X17270702Y-44335941D02*
G01*
X17292602Y-44360765D01*
X17314140Y-44393000D01*
X17314141Y-44393001D01*
X17314142Y-44393002D01*
X17401267Y-44480127D01*
X17401269Y-44480128D01*
X17573263Y-44652123D01*
X17606999Y-44685859D01*
X17709441Y-44754309D01*
X17709442Y-44754309D01*
X17709446Y-44754312D01*
X17776127Y-44781931D01*
X17776129Y-44781933D01*
X17800431Y-44791999D01*
X17823279Y-44801463D01*
X17843328Y-44805451D01*
X17872773Y-44811308D01*
X17944123Y-44825501D01*
X17944125Y-44825501D01*
X18073452Y-44825501D01*
X18073472Y-44825500D01*
X18867018Y-44825500D01*
X18867018Y-44825499D01*
X18938366Y-44811308D01*
X18938367Y-44811308D01*
X18955169Y-44807965D01*
X18987862Y-44801463D01*
X19021202Y-44787652D01*
X19101696Y-44754312D01*
X19153824Y-44719480D01*
X19204143Y-44685858D01*
X19291268Y-44598733D01*
X19291269Y-44598730D01*
X19387821Y-44502177D01*
X19449143Y-44468695D01*
X19518834Y-44473679D01*
X19574768Y-44515551D01*
X19599184Y-44581016D01*
X19599500Y-44589861D01*
X19599500Y-44899902D01*
X19579815Y-44966941D01*
X19563181Y-44987583D01*
X19181465Y-45369298D01*
X19120142Y-45402783D01*
X19107668Y-45404837D01*
X19020750Y-45414630D01*
X18850478Y-45474210D01*
X18697737Y-45570184D01*
X18570184Y-45697737D01*
X18474210Y-45850478D01*
X18448605Y-45923655D01*
X18407883Y-45980432D01*
X18342930Y-46006179D01*
X18274369Y-45992723D01*
X18243882Y-45970382D01*
X17101818Y-44828318D01*
X17068333Y-44766995D01*
X17065499Y-44740637D01*
X17065499Y-44429654D01*
X17085184Y-44362615D01*
X17137988Y-44316860D01*
X17207146Y-44306916D01*
X17270702Y-44335941D01*
G37*
G04 #@! TD.AperFunction*
G04 #@! TA.AperFunction,Conductor*
G36*
X33818834Y-38715758D02*
G01*
X33874767Y-38757630D01*
X33899184Y-38823094D01*
X33899500Y-38831940D01*
X33899500Y-39878156D01*
X33879815Y-39945195D01*
X33827011Y-39990950D01*
X33761618Y-40001377D01*
X33721815Y-39996892D01*
X33700000Y-39994435D01*
X33699998Y-39994435D01*
X33699997Y-39994435D01*
X33699996Y-39994435D01*
X33520750Y-40014630D01*
X33520745Y-40014631D01*
X33350476Y-40074211D01*
X33197737Y-40170184D01*
X33070184Y-40297737D01*
X32974210Y-40450478D01*
X32914630Y-40620750D01*
X32904837Y-40707666D01*
X32877770Y-40772080D01*
X32869300Y-40781462D01*
X32819480Y-40831283D01*
X32779371Y-40900756D01*
X32779370Y-40900757D01*
X32754432Y-40943951D01*
X32740423Y-40968215D01*
X32699499Y-41120943D01*
X32699499Y-41120945D01*
X32699499Y-41289046D01*
X32699500Y-41289059D01*
X32699500Y-44869987D01*
X32679815Y-44937026D01*
X32627011Y-44982781D01*
X32557853Y-44992725D01*
X32509461Y-44971814D01*
X32508158Y-44973889D01*
X32500498Y-44969076D01*
X32390409Y-44899902D01*
X32349521Y-44874210D01*
X32218367Y-44828318D01*
X32183544Y-44816132D01*
X32126770Y-44775412D01*
X32101022Y-44710460D01*
X32100500Y-44699092D01*
X32100500Y-42090531D01*
X32100501Y-42090518D01*
X32100501Y-41922415D01*
X32100501Y-41922414D01*
X32059577Y-41769687D01*
X32018842Y-41699132D01*
X32003010Y-41651016D01*
X31988897Y-41525749D01*
X31988896Y-41525744D01*
X31965076Y-41457671D01*
X31929317Y-41355477D01*
X31893501Y-41298477D01*
X31866941Y-41256206D01*
X31833344Y-41202737D01*
X31705790Y-41075183D01*
X31680471Y-41059274D01*
X31553051Y-40979210D01*
X31382782Y-40919630D01*
X31382777Y-40919629D01*
X31203532Y-40899434D01*
X31203524Y-40899434D01*
X31024278Y-40919629D01*
X31024273Y-40919630D01*
X30854004Y-40979210D01*
X30707096Y-41071520D01*
X30639860Y-41090520D01*
X30573024Y-41070152D01*
X30553443Y-41054207D01*
X29626819Y-40127583D01*
X29593334Y-40066260D01*
X29590500Y-40039902D01*
X29590500Y-39555945D01*
X29590500Y-39555943D01*
X29549577Y-39403216D01*
X29496624Y-39311499D01*
X29480152Y-39243600D01*
X29503005Y-39177573D01*
X29557926Y-39134382D01*
X29604012Y-39125500D01*
X30200501Y-39125500D01*
X30267540Y-39145185D01*
X30313295Y-39197989D01*
X30324501Y-39249500D01*
X30324501Y-39252876D01*
X30330908Y-39312483D01*
X30381202Y-39447328D01*
X30381206Y-39447335D01*
X30467452Y-39562544D01*
X30467455Y-39562547D01*
X30582664Y-39648793D01*
X30582671Y-39648797D01*
X30717517Y-39699091D01*
X30717516Y-39699091D01*
X30724444Y-39699835D01*
X30777127Y-39705500D01*
X32222872Y-39705499D01*
X32282483Y-39699091D01*
X32417331Y-39648796D01*
X32532546Y-39562546D01*
X32618796Y-39447331D01*
X32669091Y-39312483D01*
X32675500Y-39252873D01*
X32675499Y-39074314D01*
X32695183Y-39007276D01*
X32747987Y-38961521D01*
X32817145Y-38951577D01*
X32840454Y-38957273D01*
X32920745Y-38985368D01*
X32920750Y-38985369D01*
X33099996Y-39005565D01*
X33100000Y-39005565D01*
X33100004Y-39005565D01*
X33279249Y-38985369D01*
X33279252Y-38985368D01*
X33279255Y-38985368D01*
X33449522Y-38925789D01*
X33602262Y-38829816D01*
X33687819Y-38744259D01*
X33749142Y-38710774D01*
X33818834Y-38715758D01*
G37*
G04 #@! TD.AperFunction*
G04 #@! TA.AperFunction,Conductor*
G36*
X15240636Y-40191312D02*
G01*
X15260218Y-40207258D01*
X15278586Y-40225626D01*
X15278608Y-40225646D01*
X17138181Y-42085219D01*
X17171666Y-42146542D01*
X17174500Y-42172900D01*
X17174500Y-43916464D01*
X17154815Y-43983503D01*
X17102011Y-44029258D01*
X17032853Y-44039202D01*
X16969297Y-44010177D01*
X16951234Y-43990776D01*
X16932005Y-43965090D01*
X16922546Y-43952454D01*
X16922544Y-43952453D01*
X16922544Y-43952452D01*
X16807335Y-43866206D01*
X16807328Y-43866202D01*
X16672482Y-43815908D01*
X16672483Y-43815908D01*
X16612883Y-43809501D01*
X16612881Y-43809500D01*
X16612873Y-43809500D01*
X16612864Y-43809500D01*
X15387129Y-43809500D01*
X15387123Y-43809501D01*
X15327516Y-43815908D01*
X15192671Y-43866202D01*
X15192669Y-43866203D01*
X15074311Y-43954807D01*
X15008847Y-43979224D01*
X14940574Y-43964373D01*
X14925689Y-43954807D01*
X14807330Y-43866203D01*
X14807328Y-43866202D01*
X14681167Y-43819147D01*
X14625233Y-43777276D01*
X14600816Y-43711811D01*
X14600500Y-43702965D01*
X14600500Y-43664141D01*
X14620185Y-43597102D01*
X14672989Y-43551347D01*
X14681149Y-43547966D01*
X14692331Y-43543796D01*
X14709903Y-43530642D01*
X14753480Y-43498020D01*
X14807546Y-43457546D01*
X14893796Y-43342331D01*
X14944091Y-43207483D01*
X14950500Y-43147873D01*
X14950499Y-41652128D01*
X14944091Y-41592517D01*
X14937263Y-41574211D01*
X14893797Y-41457671D01*
X14893793Y-41457664D01*
X14807547Y-41342455D01*
X14807544Y-41342452D01*
X14692335Y-41256206D01*
X14692328Y-41256202D01*
X14557482Y-41205908D01*
X14557483Y-41205908D01*
X14497883Y-41199501D01*
X14497881Y-41199500D01*
X14497873Y-41199500D01*
X14497865Y-41199500D01*
X14149096Y-41199500D01*
X14082057Y-41179815D01*
X14036302Y-41127011D01*
X14026358Y-41057853D01*
X14055383Y-40994297D01*
X14061415Y-40987819D01*
X14299175Y-40750059D01*
X14718536Y-40330698D01*
X14779857Y-40297215D01*
X14792310Y-40295163D01*
X14879255Y-40285368D01*
X15049522Y-40225789D01*
X15106565Y-40189945D01*
X15173801Y-40170945D01*
X15240636Y-40191312D01*
G37*
G04 #@! TD.AperFunction*
G04 #@! TA.AperFunction,Conductor*
G36*
X19032539Y-37150184D02*
G01*
X19078294Y-37202988D01*
X19089500Y-37254499D01*
X19089500Y-38474547D01*
X19069815Y-38541586D01*
X19053181Y-38562228D01*
X18601269Y-39014140D01*
X18601267Y-39014142D01*
X18557703Y-39057705D01*
X18514140Y-39101268D01*
X18499708Y-39122869D01*
X18487979Y-39140423D01*
X18478586Y-39154480D01*
X18445688Y-39203713D01*
X18418155Y-39270183D01*
X18418156Y-39270184D01*
X18398537Y-39317548D01*
X18393438Y-39343182D01*
X18393437Y-39343189D01*
X18392586Y-39347466D01*
X18372410Y-39390915D01*
X18373888Y-39391844D01*
X18274211Y-39550475D01*
X18214631Y-39720745D01*
X18214630Y-39720750D01*
X18194435Y-39899996D01*
X18194435Y-39900003D01*
X18214630Y-40079249D01*
X18214631Y-40079254D01*
X18274211Y-40249523D01*
X18370184Y-40402262D01*
X18497738Y-40529816D01*
X18588080Y-40586582D01*
X18649559Y-40625212D01*
X18650478Y-40625789D01*
X18820745Y-40685368D01*
X18867823Y-40690672D01*
X18932236Y-40717737D01*
X18941621Y-40726211D01*
X18949475Y-40734065D01*
X18982960Y-40795388D01*
X18985794Y-40821746D01*
X18985794Y-41151540D01*
X18966109Y-41218579D01*
X18913305Y-41264334D01*
X18844147Y-41274278D01*
X18780591Y-41245253D01*
X18774113Y-41239221D01*
X16896350Y-39361458D01*
X16862865Y-39300135D01*
X16860031Y-39273777D01*
X16860031Y-37703268D01*
X16879716Y-37636229D01*
X16932520Y-37590474D01*
X17001678Y-37580530D01*
X17034468Y-37589989D01*
X17039836Y-37592379D01*
X17039839Y-37592381D01*
X17046022Y-37595134D01*
X17064465Y-37605303D01*
X17065295Y-37605858D01*
X17065297Y-37605859D01*
X17065299Y-37605860D01*
X17108473Y-37623743D01*
X17132903Y-37633862D01*
X17135809Y-37635109D01*
X17207966Y-37667236D01*
X17208130Y-37667270D01*
X17218657Y-37670543D01*
X17218796Y-37670086D01*
X17224615Y-37671850D01*
X17224626Y-37671855D01*
X17256701Y-37678234D01*
X17302832Y-37687411D01*
X17304363Y-37687725D01*
X17387981Y-37705500D01*
X17387982Y-37705500D01*
X17572017Y-37705500D01*
X17572019Y-37705500D01*
X17655656Y-37687721D01*
X17657164Y-37687411D01*
X17735374Y-37671855D01*
X17735379Y-37671853D01*
X17741203Y-37670087D01*
X17741342Y-37670547D01*
X17751875Y-37667269D01*
X17752034Y-37667236D01*
X17824137Y-37635133D01*
X17827085Y-37633866D01*
X17894705Y-37605858D01*
X17895514Y-37605317D01*
X17913981Y-37595131D01*
X17920161Y-37592381D01*
X17978741Y-37549818D01*
X17982683Y-37547071D01*
X18038099Y-37510045D01*
X18043448Y-37504694D01*
X18058246Y-37492055D01*
X18069050Y-37484207D01*
X18113122Y-37435257D01*
X18117554Y-37430588D01*
X18160045Y-37388099D01*
X18167911Y-37376325D01*
X18178852Y-37362257D01*
X18192195Y-37347440D01*
X18221859Y-37296058D01*
X18226106Y-37289229D01*
X18255858Y-37244705D01*
X18263791Y-37225551D01*
X18270962Y-37211010D01*
X18276832Y-37200842D01*
X18281655Y-37192492D01*
X18332225Y-37144280D01*
X18389038Y-37130499D01*
X18965500Y-37130499D01*
X19032539Y-37150184D01*
G37*
G04 #@! TD.AperFunction*
G04 #@! TA.AperFunction,Conductor*
G36*
X12705703Y-21482236D02*
G01*
X12736357Y-21524747D01*
X12736359Y-21524747D01*
X12736367Y-21524761D01*
X12739061Y-21528497D01*
X12740423Y-21531787D01*
X12755505Y-21557908D01*
X12755507Y-21557910D01*
X12755508Y-21557912D01*
X12798156Y-21631781D01*
X12819479Y-21668715D01*
X12938349Y-21787585D01*
X12938355Y-21787590D01*
X13308920Y-22158155D01*
X13342405Y-22219478D01*
X13340581Y-22277439D01*
X13340618Y-22277446D01*
X13340574Y-22277679D01*
X13340509Y-22279757D01*
X13339566Y-22283072D01*
X13339564Y-22283078D01*
X13319464Y-22499999D01*
X13319464Y-22500000D01*
X13339564Y-22716918D01*
X13339564Y-22716920D01*
X13339565Y-22716923D01*
X13394358Y-22909500D01*
X13399184Y-22926462D01*
X13496288Y-23121472D01*
X13627574Y-23295324D01*
X13751572Y-23408363D01*
X13787854Y-23468074D01*
X13786093Y-23537922D01*
X13751572Y-23591637D01*
X13627574Y-23704675D01*
X13496288Y-23878527D01*
X13399184Y-24073537D01*
X13339564Y-24283081D01*
X13319464Y-24499999D01*
X13319464Y-24500000D01*
X13339564Y-24716918D01*
X13339564Y-24716920D01*
X13339565Y-24716923D01*
X13399183Y-24926459D01*
X13399184Y-24926462D01*
X13468848Y-25066366D01*
X13496288Y-25121472D01*
X13627573Y-25295322D01*
X13788568Y-25442088D01*
X13788575Y-25442092D01*
X13788576Y-25442093D01*
X13973786Y-25556770D01*
X13973792Y-25556773D01*
X13996664Y-25565633D01*
X14176931Y-25635470D01*
X14391074Y-25675500D01*
X14391076Y-25675500D01*
X14608924Y-25675500D01*
X14608926Y-25675500D01*
X14772267Y-25644966D01*
X14841780Y-25651997D01*
X14882731Y-25679174D01*
X16867931Y-27664374D01*
X16867941Y-27664385D01*
X16872271Y-27668715D01*
X16872272Y-27668716D01*
X16984076Y-27780520D01*
X17062485Y-27825789D01*
X17121007Y-27859577D01*
X17273735Y-27900501D01*
X17273738Y-27900501D01*
X17439445Y-27900501D01*
X17439461Y-27900500D01*
X18299903Y-27900500D01*
X18366942Y-27920185D01*
X18387584Y-27936819D01*
X19389577Y-28938812D01*
X19423062Y-29000135D01*
X19425896Y-29026493D01*
X19425896Y-29886933D01*
X19425895Y-29886951D01*
X19425895Y-30052657D01*
X19425894Y-30052657D01*
X19466820Y-30205392D01*
X19466821Y-30205393D01*
X19478797Y-30226135D01*
X19492300Y-30249522D01*
X19528918Y-30312947D01*
X19545875Y-30342317D01*
X19545877Y-30342320D01*
X19664745Y-30461188D01*
X19664751Y-30461193D01*
X19828098Y-30624540D01*
X19861583Y-30685863D01*
X19856599Y-30755555D01*
X19835893Y-30783214D01*
X19848353Y-30770754D01*
X19916626Y-30755902D01*
X19982090Y-30780318D01*
X19995462Y-30791905D01*
X20009151Y-30805594D01*
X20009152Y-30805595D01*
X20009154Y-30805596D01*
X20019360Y-30811488D01*
X20080819Y-30846971D01*
X20146082Y-30884651D01*
X20207595Y-30901133D01*
X20267253Y-30937497D01*
X20297783Y-31000343D01*
X20299500Y-31020907D01*
X20299500Y-32750902D01*
X20279815Y-32817941D01*
X20227011Y-32863696D01*
X20157853Y-32873640D01*
X20094297Y-32844615D01*
X20087819Y-32838583D01*
X19948718Y-32699482D01*
X19948716Y-32699480D01*
X19948713Y-32699478D01*
X19942267Y-32694532D01*
X19943796Y-32692538D01*
X19904281Y-32651093D01*
X19890499Y-32594277D01*
X19890499Y-32482128D01*
X19890498Y-32482111D01*
X19886320Y-32443253D01*
X19886320Y-32416747D01*
X19890500Y-32377873D01*
X19890499Y-31982128D01*
X19890498Y-31982111D01*
X19886320Y-31943253D01*
X19886320Y-31916747D01*
X19890500Y-31877873D01*
X19890499Y-31577880D01*
X19890500Y-31577873D01*
X19890499Y-31182128D01*
X19884091Y-31122517D01*
X19880967Y-31114142D01*
X19833797Y-30987671D01*
X19833793Y-30987664D01*
X19808515Y-30953897D01*
X19784097Y-30888433D01*
X19798948Y-30820160D01*
X19803392Y-30815715D01*
X19749263Y-30835905D01*
X19680990Y-30821053D01*
X19666106Y-30811488D01*
X19658235Y-30805596D01*
X19632331Y-30786204D01*
X19632329Y-30786203D01*
X19632328Y-30786202D01*
X19497482Y-30735908D01*
X19497483Y-30735908D01*
X19437883Y-30729501D01*
X19437881Y-30729500D01*
X19437873Y-30729500D01*
X19437865Y-30729500D01*
X18389037Y-30729500D01*
X18321998Y-30709815D01*
X18281651Y-30667502D01*
X18270961Y-30648987D01*
X18263792Y-30634452D01*
X18255858Y-30615295D01*
X18226113Y-30570779D01*
X18221835Y-30563898D01*
X18215779Y-30553409D01*
X18192195Y-30512560D01*
X18178855Y-30497744D01*
X18167911Y-30483673D01*
X18160045Y-30471901D01*
X18160043Y-30471899D01*
X18160041Y-30471896D01*
X18117571Y-30429427D01*
X18113101Y-30424717D01*
X18069050Y-30375793D01*
X18069046Y-30375790D01*
X18058245Y-30367942D01*
X18043451Y-30355307D01*
X18038099Y-30349955D01*
X17982714Y-30312948D01*
X17982713Y-30312947D01*
X17978719Y-30310163D01*
X17920162Y-30267619D01*
X17913972Y-30264863D01*
X17895530Y-30254693D01*
X17894706Y-30254142D01*
X17827092Y-30226135D01*
X17824112Y-30224854D01*
X17752033Y-30192763D01*
X17751847Y-30192724D01*
X17741342Y-30189466D01*
X17741207Y-30189914D01*
X17735374Y-30188145D01*
X17657207Y-30172596D01*
X17655619Y-30172269D01*
X17572020Y-30154500D01*
X17572019Y-30154500D01*
X17387981Y-30154500D01*
X17304394Y-30172267D01*
X17302806Y-30172593D01*
X17224624Y-30188144D01*
X17218801Y-30189911D01*
X17218665Y-30189462D01*
X17208157Y-30192723D01*
X17208017Y-30192753D01*
X17207965Y-30192764D01*
X17135867Y-30224863D01*
X17132889Y-30226142D01*
X17065298Y-30254140D01*
X17065289Y-30254145D01*
X17064462Y-30254698D01*
X17046029Y-30264862D01*
X17039848Y-30267614D01*
X17039840Y-30267618D01*
X16981271Y-30310169D01*
X16977282Y-30312948D01*
X16921908Y-30349949D01*
X16921892Y-30349962D01*
X16916538Y-30355316D01*
X16901755Y-30367941D01*
X16890954Y-30375788D01*
X16846896Y-30424719D01*
X16842429Y-30429425D01*
X16799961Y-30471893D01*
X16799953Y-30471903D01*
X16792088Y-30483673D01*
X16781144Y-30497744D01*
X16767805Y-30512558D01*
X16747920Y-30547001D01*
X16738495Y-30563326D01*
X16738168Y-30563892D01*
X16733885Y-30570779D01*
X16704142Y-30615293D01*
X16696208Y-30634447D01*
X16689038Y-30648985D01*
X16675787Y-30671936D01*
X16659489Y-30722095D01*
X16656121Y-30731225D01*
X16638145Y-30774624D01*
X16632819Y-30801397D01*
X16629134Y-30815516D01*
X16618915Y-30846969D01*
X16617181Y-30863464D01*
X16590596Y-30928078D01*
X16533298Y-30968062D01*
X16493861Y-30974500D01*
X15089860Y-30974500D01*
X15029442Y-30986518D01*
X14969019Y-30998537D01*
X14969017Y-30998537D01*
X14969016Y-30998538D01*
X14969014Y-30998538D01*
X14936462Y-31012022D01*
X14855189Y-31045685D01*
X14855185Y-31045687D01*
X14821471Y-31068216D01*
X14821469Y-31068217D01*
X14752739Y-31114140D01*
X14730153Y-31136727D01*
X14665613Y-31201267D01*
X14665610Y-31201270D01*
X14401270Y-31465610D01*
X14401267Y-31465613D01*
X14375384Y-31491496D01*
X14314142Y-31552737D01*
X14300110Y-31573739D01*
X14285425Y-31595716D01*
X14245690Y-31655181D01*
X14245685Y-31655190D01*
X14229340Y-31694653D01*
X14229340Y-31694654D01*
X14198537Y-31769017D01*
X14198535Y-31769022D01*
X14194391Y-31789863D01*
X14194391Y-31789865D01*
X14176226Y-31881190D01*
X14176225Y-31881192D01*
X14174500Y-31889863D01*
X14174500Y-31889865D01*
X14174500Y-34788606D01*
X14193702Y-34885144D01*
X14198538Y-34909455D01*
X14198538Y-34909456D01*
X14203296Y-34920941D01*
X14203298Y-34920946D01*
X14245685Y-35023280D01*
X14245686Y-35023282D01*
X14245688Y-35023286D01*
X14259828Y-35044448D01*
X14273873Y-35065468D01*
X14273874Y-35065469D01*
X14282239Y-35077988D01*
X14314142Y-35125733D01*
X14401267Y-35212858D01*
X14401269Y-35212859D01*
X14484006Y-35295596D01*
X14490485Y-35302075D01*
X14523969Y-35363399D01*
X14518985Y-35433090D01*
X14490485Y-35477437D01*
X14370183Y-35597739D01*
X14274211Y-35750476D01*
X14214631Y-35920745D01*
X14214630Y-35920750D01*
X14194435Y-36099996D01*
X14194435Y-36100003D01*
X14214630Y-36279249D01*
X14214631Y-36279254D01*
X14274211Y-36449523D01*
X14366900Y-36597036D01*
X14370184Y-36602262D01*
X14497738Y-36729816D01*
X14555859Y-36766336D01*
X14610878Y-36800907D01*
X14650478Y-36825789D01*
X14705086Y-36844897D01*
X14820745Y-36885368D01*
X14820750Y-36885369D01*
X14937383Y-36898510D01*
X15001797Y-36925576D01*
X15041352Y-36983171D01*
X15047500Y-37021730D01*
X15047500Y-38598741D01*
X15027815Y-38665780D01*
X14975011Y-38711535D01*
X14905853Y-38721479D01*
X14882551Y-38715785D01*
X14879252Y-38714631D01*
X14700004Y-38694435D01*
X14699996Y-38694435D01*
X14520750Y-38714630D01*
X14520745Y-38714631D01*
X14350476Y-38774211D01*
X14197737Y-38870184D01*
X14070184Y-38997737D01*
X13974210Y-39150478D01*
X13914630Y-39320750D01*
X13904837Y-39407667D01*
X13877770Y-39472081D01*
X13869298Y-39481464D01*
X12731286Y-40619478D01*
X12712181Y-40638583D01*
X12650858Y-40672068D01*
X12581166Y-40667084D01*
X12525233Y-40625212D01*
X12500816Y-40559748D01*
X12500500Y-40550902D01*
X12500500Y-21575949D01*
X12520185Y-21508910D01*
X12572989Y-21463155D01*
X12642147Y-21453211D01*
X12705703Y-21482236D01*
G37*
G04 #@! TD.AperFunction*
G04 #@! TA.AperFunction,Conductor*
G36*
X22105703Y-30955384D02*
G01*
X22112181Y-30961416D01*
X24748583Y-33597819D01*
X24782068Y-33659142D01*
X24777084Y-33728834D01*
X24735212Y-33784767D01*
X24669748Y-33809184D01*
X24660902Y-33809500D01*
X23887129Y-33809500D01*
X23887123Y-33809501D01*
X23827516Y-33815908D01*
X23692671Y-33866202D01*
X23692664Y-33866206D01*
X23577455Y-33952452D01*
X23577452Y-33952455D01*
X23491206Y-34067664D01*
X23491202Y-34067671D01*
X23440908Y-34202517D01*
X23434501Y-34262116D01*
X23434501Y-34262123D01*
X23434500Y-34262135D01*
X23434500Y-35737870D01*
X23434501Y-35737876D01*
X23440908Y-35797483D01*
X23491202Y-35932328D01*
X23491206Y-35932335D01*
X23577452Y-36047544D01*
X23577455Y-36047547D01*
X23692664Y-36133793D01*
X23692671Y-36133797D01*
X23827517Y-36184091D01*
X23827516Y-36184091D01*
X23831916Y-36184564D01*
X23887127Y-36190500D01*
X24621425Y-36190499D01*
X24688464Y-36210183D01*
X24726418Y-36248526D01*
X24760181Y-36302258D01*
X24760182Y-36302260D01*
X24760184Y-36302262D01*
X24887738Y-36429816D01*
X24946170Y-36466531D01*
X25034888Y-36522277D01*
X25040478Y-36525789D01*
X25210745Y-36585368D01*
X25279384Y-36593101D01*
X25343796Y-36620166D01*
X25383352Y-36677760D01*
X25389500Y-36716321D01*
X25389500Y-37310500D01*
X25369815Y-37377539D01*
X25317011Y-37423294D01*
X25265500Y-37434500D01*
X25170452Y-37434500D01*
X25103413Y-37414815D01*
X25082771Y-37398181D01*
X24926211Y-37241621D01*
X24892726Y-37180298D01*
X24890673Y-37167838D01*
X24885368Y-37120745D01*
X24825789Y-36950478D01*
X24807101Y-36920737D01*
X24781614Y-36880174D01*
X24729816Y-36797738D01*
X24602262Y-36670184D01*
X24579580Y-36655932D01*
X24449523Y-36574211D01*
X24279254Y-36514631D01*
X24279249Y-36514630D01*
X24100004Y-36494435D01*
X24099996Y-36494435D01*
X23920750Y-36514630D01*
X23920745Y-36514631D01*
X23750476Y-36574211D01*
X23597737Y-36670184D01*
X23470184Y-36797737D01*
X23374211Y-36950476D01*
X23314631Y-37120745D01*
X23314630Y-37120750D01*
X23294435Y-37299996D01*
X23294435Y-37300003D01*
X23314630Y-37479249D01*
X23314632Y-37479257D01*
X23347984Y-37574571D01*
X23351302Y-37639597D01*
X23381861Y-37662474D01*
X23387588Y-37670812D01*
X23435533Y-37747116D01*
X23470184Y-37802262D01*
X23597738Y-37929816D01*
X23604927Y-37934333D01*
X23642857Y-37958166D01*
X23689148Y-38010501D01*
X23699796Y-38079554D01*
X23671421Y-38143403D01*
X23664566Y-38150841D01*
X23402180Y-38413228D01*
X23340857Y-38446713D01*
X23271166Y-38441729D01*
X23215232Y-38399858D01*
X23190815Y-38334393D01*
X23190499Y-38325547D01*
X23190499Y-37887129D01*
X23190498Y-37887123D01*
X23189141Y-37874500D01*
X23184091Y-37827517D01*
X23180369Y-37817539D01*
X23166412Y-37780117D01*
X23161591Y-37712710D01*
X23131676Y-37689836D01*
X23047547Y-37577455D01*
X23047544Y-37577452D01*
X22932335Y-37491206D01*
X22932328Y-37491202D01*
X22797482Y-37440908D01*
X22797483Y-37440908D01*
X22737883Y-37434501D01*
X22737881Y-37434500D01*
X22737873Y-37434500D01*
X22737865Y-37434500D01*
X22505414Y-37434500D01*
X22438375Y-37414815D01*
X22392620Y-37362011D01*
X22382676Y-37292853D01*
X22384526Y-37282895D01*
X22385357Y-37279251D01*
X22385359Y-37279247D01*
X22386427Y-37269767D01*
X22405556Y-37099995D01*
X22405556Y-37099988D01*
X22385360Y-36920742D01*
X22385359Y-36920737D01*
X22352135Y-36825788D01*
X22325780Y-36750470D01*
X22229807Y-36597730D01*
X22102253Y-36470176D01*
X22069384Y-36449523D01*
X21958528Y-36379867D01*
X21912237Y-36327532D01*
X21900500Y-36274873D01*
X21900500Y-31049097D01*
X21920185Y-30982058D01*
X21972989Y-30936303D01*
X22042147Y-30926359D01*
X22105703Y-30955384D01*
G37*
G04 #@! TD.AperFunction*
G04 #@! TA.AperFunction,Conductor*
G36*
X46472345Y-19920185D02*
G01*
X46504571Y-19950187D01*
X46577454Y-20047546D01*
X46577457Y-20047548D01*
X46583722Y-20053813D01*
X46582052Y-20055482D01*
X46616270Y-20101192D01*
X46621706Y-20120335D01*
X46634102Y-20182655D01*
X46634105Y-20182666D01*
X46637349Y-20190498D01*
X46639410Y-20195471D01*
X46639411Y-20195478D01*
X46639412Y-20195478D01*
X46701984Y-20346542D01*
X46701985Y-20346544D01*
X46745256Y-20411304D01*
X46745257Y-20411305D01*
X46745260Y-20411309D01*
X46768766Y-20446488D01*
X46800537Y-20494038D01*
X46800538Y-20494039D01*
X48258181Y-21951681D01*
X48291666Y-22013004D01*
X48294500Y-22039362D01*
X48294500Y-23222870D01*
X48294501Y-23222876D01*
X48300908Y-23282483D01*
X48351202Y-23417328D01*
X48351206Y-23417335D01*
X48384702Y-23462079D01*
X48437454Y-23532546D01*
X48549811Y-23616657D01*
X48591682Y-23672590D01*
X48599500Y-23715923D01*
X48599500Y-24284076D01*
X48579815Y-24351115D01*
X48549812Y-24383342D01*
X48437452Y-24467455D01*
X48351206Y-24582664D01*
X48351202Y-24582671D01*
X48300908Y-24717517D01*
X48294501Y-24777116D01*
X48294501Y-24777123D01*
X48294500Y-24777135D01*
X48294500Y-25880637D01*
X48274815Y-25947676D01*
X48258181Y-25968318D01*
X46951528Y-27274970D01*
X46890205Y-27308455D01*
X46877100Y-27310579D01*
X46827516Y-27315908D01*
X46692671Y-27366202D01*
X46692664Y-27366206D01*
X46577455Y-27452452D01*
X46577452Y-27452455D01*
X46491206Y-27567664D01*
X46491202Y-27567671D01*
X46440908Y-27702517D01*
X46436447Y-27744018D01*
X46434501Y-27762123D01*
X46434500Y-27762135D01*
X46434500Y-29237870D01*
X46434501Y-29237876D01*
X46440908Y-29297483D01*
X46491202Y-29432328D01*
X46491206Y-29432335D01*
X46577452Y-29547544D01*
X46577455Y-29547547D01*
X46692664Y-29633793D01*
X46692671Y-29633797D01*
X46827517Y-29684091D01*
X46827515Y-29684091D01*
X46877106Y-29689423D01*
X46941657Y-29716161D01*
X46951531Y-29725031D01*
X46971819Y-29745319D01*
X47005304Y-29806642D01*
X47000320Y-29876334D01*
X46958448Y-29932267D01*
X46892984Y-29956684D01*
X46884138Y-29957000D01*
X45120094Y-29957000D01*
X45053055Y-29937315D01*
X45007300Y-29884511D01*
X44996804Y-29819746D01*
X45000500Y-29785373D01*
X45000499Y-28789628D01*
X44994091Y-28730017D01*
X44981340Y-28695832D01*
X44976357Y-28626142D01*
X44981338Y-28609172D01*
X44994091Y-28574983D01*
X45000500Y-28515373D01*
X45000499Y-27519628D01*
X44994091Y-27460017D01*
X44981340Y-27425832D01*
X44976357Y-27356142D01*
X44981338Y-27339172D01*
X44994091Y-27304983D01*
X45000500Y-27245373D01*
X45000499Y-26348070D01*
X45020183Y-26281032D01*
X45072987Y-26235277D01*
X45142146Y-26225333D01*
X45165454Y-26231030D01*
X45320737Y-26285366D01*
X45320743Y-26285367D01*
X45320745Y-26285368D01*
X45320746Y-26285368D01*
X45320750Y-26285369D01*
X45499996Y-26305565D01*
X45500000Y-26305565D01*
X45500004Y-26305565D01*
X45679249Y-26285369D01*
X45679252Y-26285368D01*
X45679255Y-26285368D01*
X45849522Y-26225789D01*
X46002262Y-26129816D01*
X46129816Y-26002262D01*
X46225789Y-25849522D01*
X46285368Y-25679255D01*
X46285791Y-25675500D01*
X46305565Y-25500003D01*
X46305565Y-25499996D01*
X46285369Y-25320750D01*
X46285368Y-25320745D01*
X46225788Y-25150476D01*
X46129815Y-24997737D01*
X46002262Y-24870184D01*
X45849523Y-24774211D01*
X45679254Y-24714631D01*
X45679249Y-24714630D01*
X45500004Y-24694435D01*
X45499996Y-24694435D01*
X45320750Y-24714630D01*
X45320742Y-24714632D01*
X45165453Y-24768970D01*
X45095674Y-24772531D01*
X45035047Y-24737802D01*
X45002820Y-24675809D01*
X45000499Y-24651937D01*
X45000499Y-23709628D01*
X44994091Y-23650017D01*
X44981340Y-23615832D01*
X44976357Y-23546142D01*
X44981340Y-23529169D01*
X44994091Y-23494983D01*
X45000500Y-23435373D01*
X45000499Y-22439628D01*
X44996804Y-22405253D01*
X45009211Y-22336494D01*
X45056822Y-22285357D01*
X45120094Y-22268000D01*
X45245831Y-22268000D01*
X45245847Y-22268001D01*
X45253443Y-22268001D01*
X45411554Y-22268001D01*
X45411557Y-22268001D01*
X45564285Y-22227077D01*
X45632037Y-22187960D01*
X45701216Y-22148020D01*
X45813020Y-22036216D01*
X45813020Y-22036215D01*
X45830453Y-22018782D01*
X45830462Y-22018772D01*
X45861235Y-21988000D01*
X45980520Y-21868716D01*
X46059577Y-21731784D01*
X46100501Y-21579057D01*
X46100501Y-21420942D01*
X46100501Y-21413347D01*
X46100500Y-21413329D01*
X46100500Y-21082412D01*
X46120185Y-21015373D01*
X46127555Y-21005097D01*
X46129810Y-21002267D01*
X46129816Y-21002262D01*
X46225789Y-20849522D01*
X46285368Y-20679255D01*
X46288356Y-20652734D01*
X46305565Y-20500003D01*
X46305565Y-20499996D01*
X46285369Y-20320750D01*
X46285368Y-20320745D01*
X46241533Y-20195471D01*
X46225789Y-20150478D01*
X46194821Y-20101192D01*
X46188085Y-20090472D01*
X46169085Y-20023235D01*
X46189453Y-19956400D01*
X46242721Y-19911186D01*
X46293079Y-19900500D01*
X46405306Y-19900500D01*
X46472345Y-19920185D01*
G37*
G04 #@! TD.AperFunction*
G04 #@! TA.AperFunction,Conductor*
G36*
X46969575Y-13822818D02*
G01*
X46990217Y-13839452D01*
X48258181Y-15107416D01*
X48291666Y-15168739D01*
X48294500Y-15195097D01*
X48294500Y-16222870D01*
X48294501Y-16222876D01*
X48300908Y-16282483D01*
X48351202Y-16417328D01*
X48351206Y-16417335D01*
X48437452Y-16532544D01*
X48437455Y-16532547D01*
X48552664Y-16618793D01*
X48552671Y-16618797D01*
X48597618Y-16635561D01*
X48687517Y-16669091D01*
X48747127Y-16675500D01*
X48775498Y-16675499D01*
X48842536Y-16695181D01*
X48888293Y-16747984D01*
X48899500Y-16799499D01*
X48899500Y-17702965D01*
X48879815Y-17770004D01*
X48827011Y-17815759D01*
X48818833Y-17819147D01*
X48692671Y-17866202D01*
X48692669Y-17866203D01*
X48574311Y-17954807D01*
X48508847Y-17979224D01*
X48440574Y-17964373D01*
X48425689Y-17954807D01*
X48307330Y-17866203D01*
X48307328Y-17866202D01*
X48172482Y-17815908D01*
X48172483Y-17815908D01*
X48112883Y-17809501D01*
X48112881Y-17809500D01*
X48112873Y-17809500D01*
X48112864Y-17809500D01*
X46887129Y-17809500D01*
X46887123Y-17809501D01*
X46827516Y-17815908D01*
X46692671Y-17866202D01*
X46692664Y-17866206D01*
X46577456Y-17952452D01*
X46577455Y-17952453D01*
X46577454Y-17952454D01*
X46526182Y-18020945D01*
X46504573Y-18049811D01*
X46448639Y-18091682D01*
X46405306Y-18099500D01*
X45911306Y-18099500D01*
X45737341Y-18134103D01*
X45737332Y-18134106D01*
X45573459Y-18201983D01*
X45573446Y-18201990D01*
X45425965Y-18300535D01*
X45425961Y-18300538D01*
X45300538Y-18425961D01*
X45300535Y-18425965D01*
X45204000Y-18570439D01*
X45150387Y-18615244D01*
X45081062Y-18623951D01*
X45018035Y-18593796D01*
X44984717Y-18544885D01*
X44981341Y-18535834D01*
X44976356Y-18466145D01*
X44981338Y-18449172D01*
X44994091Y-18414983D01*
X45000500Y-18355373D01*
X45000499Y-17783061D01*
X45020183Y-17716023D01*
X45072987Y-17670268D01*
X45142146Y-17660324D01*
X45165453Y-17666020D01*
X45176741Y-17669970D01*
X45220740Y-17685367D01*
X45220750Y-17685369D01*
X45399996Y-17705565D01*
X45400000Y-17705565D01*
X45400004Y-17705565D01*
X45579249Y-17685369D01*
X45579252Y-17685368D01*
X45579255Y-17685368D01*
X45749522Y-17625789D01*
X45902262Y-17529816D01*
X46029816Y-17402262D01*
X46125789Y-17249522D01*
X46185368Y-17079255D01*
X46185369Y-17079249D01*
X46205565Y-16900003D01*
X46205565Y-16899996D01*
X46185369Y-16720750D01*
X46185368Y-16720745D01*
X46165241Y-16663226D01*
X46125789Y-16550478D01*
X46029816Y-16397738D01*
X46027647Y-16395569D01*
X46026495Y-16393574D01*
X46025475Y-16392295D01*
X46025667Y-16392141D01*
X45995553Y-16339979D01*
X45984707Y-16299500D01*
X45959577Y-16205715D01*
X45919038Y-16135500D01*
X45880520Y-16068784D01*
X45768716Y-15956980D01*
X45768715Y-15956979D01*
X45764385Y-15952649D01*
X45764374Y-15952639D01*
X45036818Y-15225083D01*
X45003333Y-15163760D01*
X45000499Y-15137402D01*
X45000499Y-14819629D01*
X45000498Y-14819623D01*
X45000497Y-14819616D01*
X44994091Y-14760017D01*
X44978971Y-14719479D01*
X44943797Y-14625171D01*
X44943793Y-14625164D01*
X44857547Y-14509955D01*
X44857544Y-14509952D01*
X44742335Y-14423706D01*
X44742328Y-14423702D01*
X44607482Y-14373408D01*
X44607483Y-14373408D01*
X44547883Y-14367001D01*
X44547881Y-14367000D01*
X44547873Y-14367000D01*
X44547864Y-14367000D01*
X42952129Y-14367000D01*
X42952123Y-14367001D01*
X42892516Y-14373408D01*
X42757671Y-14423702D01*
X42757664Y-14423706D01*
X42642455Y-14509952D01*
X42642452Y-14509955D01*
X42556206Y-14625164D01*
X42556202Y-14625171D01*
X42505908Y-14760017D01*
X42499501Y-14819616D01*
X42499501Y-14819623D01*
X42499500Y-14819635D01*
X42499500Y-15815370D01*
X42499501Y-15815376D01*
X42505908Y-15874981D01*
X42518659Y-15909169D01*
X42523642Y-15978861D01*
X42518659Y-15995831D01*
X42505908Y-16030018D01*
X42499501Y-16089614D01*
X42499500Y-16089635D01*
X42499500Y-17085370D01*
X42499501Y-17085376D01*
X42505908Y-17144983D01*
X42518658Y-17179167D01*
X42523642Y-17248859D01*
X42518659Y-17265830D01*
X42505384Y-17301424D01*
X42463514Y-17357359D01*
X42451204Y-17365479D01*
X42431284Y-17376980D01*
X42431281Y-17376982D01*
X35119481Y-24688782D01*
X35119477Y-24688787D01*
X35094655Y-24731783D01*
X35094654Y-24731785D01*
X35040423Y-24825715D01*
X34999499Y-24978443D01*
X34999499Y-24978445D01*
X34999499Y-25146546D01*
X34999500Y-25146559D01*
X34999500Y-29216937D01*
X34979815Y-29283976D01*
X34927011Y-29329731D01*
X34857853Y-29339675D01*
X34834547Y-29333979D01*
X34779249Y-29314630D01*
X34779252Y-29314630D01*
X34692331Y-29304837D01*
X34627917Y-29277770D01*
X34618534Y-29269298D01*
X33636819Y-28287583D01*
X33603334Y-28226260D01*
X33600500Y-28199902D01*
X33600500Y-26286560D01*
X33600501Y-26286547D01*
X33600501Y-26118444D01*
X33600501Y-26118443D01*
X33559577Y-25965716D01*
X33536963Y-25926547D01*
X33480524Y-25828790D01*
X33480518Y-25828782D01*
X27687590Y-20035855D01*
X27687588Y-20035852D01*
X27568717Y-19916981D01*
X27568712Y-19916977D01*
X27548798Y-19905480D01*
X27500582Y-19854913D01*
X27494616Y-19841425D01*
X27481341Y-19805832D01*
X27476357Y-19736140D01*
X27481338Y-19719172D01*
X27494091Y-19684983D01*
X27500500Y-19625373D01*
X27500499Y-18629628D01*
X27494091Y-18570017D01*
X27481340Y-18535832D01*
X27476357Y-18466142D01*
X27481338Y-18449172D01*
X27494091Y-18414983D01*
X27500500Y-18355373D01*
X27500499Y-17624499D01*
X27520183Y-17557461D01*
X27572987Y-17511706D01*
X27624499Y-17500500D01*
X38013331Y-17500500D01*
X38013347Y-17500501D01*
X38020943Y-17500501D01*
X38179054Y-17500501D01*
X38179057Y-17500501D01*
X38331785Y-17459577D01*
X38400098Y-17420136D01*
X38468716Y-17380520D01*
X38580520Y-17268716D01*
X38580520Y-17268714D01*
X38590724Y-17258511D01*
X38590727Y-17258506D01*
X42009784Y-13839452D01*
X42071107Y-13805967D01*
X42097465Y-13803133D01*
X46902536Y-13803133D01*
X46969575Y-13822818D01*
G37*
G04 #@! TD.AperFunction*
G04 #@! TA.AperFunction,Conductor*
G36*
X18805703Y-23655384D02*
G01*
X18812181Y-23661416D01*
X19025139Y-23874374D01*
X19025149Y-23874385D01*
X19029479Y-23878715D01*
X19029480Y-23878716D01*
X19141284Y-23990520D01*
X19228095Y-24040639D01*
X19228097Y-24040641D01*
X19266151Y-24062611D01*
X19278215Y-24069577D01*
X19430943Y-24110501D01*
X19430946Y-24110501D01*
X19596653Y-24110501D01*
X19596669Y-24110500D01*
X20709903Y-24110500D01*
X20776942Y-24130185D01*
X20797584Y-24146819D01*
X20898181Y-24247416D01*
X20931666Y-24308739D01*
X20934500Y-24335097D01*
X20934500Y-24688787D01*
X20934501Y-24975500D01*
X20914817Y-25042539D01*
X20862013Y-25088294D01*
X20810501Y-25099500D01*
X19645097Y-25099500D01*
X19578058Y-25079815D01*
X19557416Y-25063181D01*
X18636819Y-24142584D01*
X18603334Y-24081261D01*
X18600500Y-24054903D01*
X18600500Y-23749097D01*
X18620185Y-23682058D01*
X18672989Y-23636303D01*
X18742147Y-23626359D01*
X18805703Y-23655384D01*
G37*
G04 #@! TD.AperFunction*
G04 #@! TA.AperFunction,Conductor*
G36*
X17415682Y-12520185D02*
G01*
X17461437Y-12572989D01*
X17471290Y-12633771D01*
X17471936Y-12633806D01*
X17472000Y-12633806D01*
X17472000Y-12633809D01*
X17472178Y-12633819D01*
X17472000Y-12637135D01*
X17472000Y-13932870D01*
X17472001Y-13932876D01*
X17478408Y-13992483D01*
X17528702Y-14127328D01*
X17528706Y-14127335D01*
X17614952Y-14242544D01*
X17614955Y-14242547D01*
X17730164Y-14328793D01*
X17730171Y-14328797D01*
X17865017Y-14379091D01*
X17865016Y-14379091D01*
X17871944Y-14379835D01*
X17924627Y-14385500D01*
X19020372Y-14385499D01*
X19020374Y-14385498D01*
X19020388Y-14385498D01*
X19047045Y-14382632D01*
X19115805Y-14395037D01*
X19144683Y-14417028D01*
X19145446Y-14416182D01*
X19150272Y-14420528D01*
X19160539Y-14427987D01*
X19175337Y-14440626D01*
X19180334Y-14445623D01*
X19180342Y-14445629D01*
X19234056Y-14481520D01*
X19238051Y-14484304D01*
X19294905Y-14525611D01*
X19294906Y-14525611D01*
X19294907Y-14525612D01*
X19300636Y-14528162D01*
X19319106Y-14538348D01*
X19319637Y-14538703D01*
X19385229Y-14565872D01*
X19388196Y-14567147D01*
X19458224Y-14598326D01*
X19459462Y-14598728D01*
X19468440Y-14601520D01*
X19468585Y-14601046D01*
X19474412Y-14602814D01*
X19474414Y-14602814D01*
X19474418Y-14602816D01*
X19550428Y-14617934D01*
X19551893Y-14618236D01*
X19633109Y-14635500D01*
X19633110Y-14635500D01*
X19811889Y-14635500D01*
X19811891Y-14635500D01*
X19893163Y-14618224D01*
X19894568Y-14617935D01*
X19970582Y-14602816D01*
X19970587Y-14602813D01*
X19976413Y-14601046D01*
X19976557Y-14601521D01*
X19985588Y-14598711D01*
X19986751Y-14598332D01*
X19986767Y-14598329D01*
X20056829Y-14567134D01*
X20059712Y-14565895D01*
X20125363Y-14538703D01*
X20125890Y-14538350D01*
X20144365Y-14528162D01*
X20145184Y-14527796D01*
X20150093Y-14525612D01*
X20207005Y-14484261D01*
X20210888Y-14481555D01*
X20264662Y-14445626D01*
X20269664Y-14440622D01*
X20284460Y-14427987D01*
X20294730Y-14420526D01*
X20337494Y-14373030D01*
X20341928Y-14368358D01*
X20383126Y-14327162D01*
X20390620Y-14315945D01*
X20401571Y-14301866D01*
X20414359Y-14287665D01*
X20443110Y-14237863D01*
X20447373Y-14231007D01*
X20469400Y-14198042D01*
X20523009Y-14153241D01*
X20592334Y-14144534D01*
X20655362Y-14174689D01*
X20675600Y-14198045D01*
X20697609Y-14230983D01*
X20701889Y-14237865D01*
X20723574Y-14275425D01*
X20730642Y-14287667D01*
X20730643Y-14287668D01*
X20743428Y-14301867D01*
X20754378Y-14315945D01*
X20761872Y-14327160D01*
X20803054Y-14368342D01*
X20807524Y-14373052D01*
X20850270Y-14420526D01*
X20850272Y-14420528D01*
X20860539Y-14427987D01*
X20875337Y-14440626D01*
X20880334Y-14445623D01*
X20880342Y-14445629D01*
X20934056Y-14481520D01*
X20938051Y-14484304D01*
X20994905Y-14525611D01*
X20994906Y-14525611D01*
X20994907Y-14525612D01*
X21000636Y-14528162D01*
X21019106Y-14538348D01*
X21019637Y-14538703D01*
X21085229Y-14565872D01*
X21088196Y-14567147D01*
X21158224Y-14598326D01*
X21159462Y-14598728D01*
X21168440Y-14601520D01*
X21168585Y-14601046D01*
X21174412Y-14602814D01*
X21174414Y-14602814D01*
X21174418Y-14602816D01*
X21250430Y-14617935D01*
X21251834Y-14618224D01*
X21253753Y-14618631D01*
X21315240Y-14651807D01*
X21349032Y-14712961D01*
X21352000Y-14739927D01*
X21352000Y-15682870D01*
X21352001Y-15682876D01*
X21358408Y-15742483D01*
X21408702Y-15877328D01*
X21408706Y-15877335D01*
X21494952Y-15992544D01*
X21494955Y-15992547D01*
X21610164Y-16078793D01*
X21610171Y-16078797D01*
X21639208Y-16089627D01*
X21745017Y-16129091D01*
X21804627Y-16135500D01*
X22034901Y-16135499D01*
X22101941Y-16155183D01*
X22122583Y-16171818D01*
X23115139Y-17164374D01*
X23115149Y-17164385D01*
X23119479Y-17168715D01*
X23119480Y-17168716D01*
X23231284Y-17280520D01*
X23292581Y-17315909D01*
X23318095Y-17330639D01*
X23318097Y-17330641D01*
X23368213Y-17359576D01*
X23368215Y-17359577D01*
X23520942Y-17400500D01*
X23520943Y-17400500D01*
X23617588Y-17400500D01*
X23684627Y-17420185D01*
X23694903Y-17427555D01*
X23697736Y-17429814D01*
X23697738Y-17429816D01*
X23850478Y-17525789D01*
X23970150Y-17567664D01*
X24020745Y-17585368D01*
X24020750Y-17585369D01*
X24199996Y-17605565D01*
X24200000Y-17605565D01*
X24200004Y-17605565D01*
X24379249Y-17585369D01*
X24379252Y-17585368D01*
X24379255Y-17585368D01*
X24549522Y-17525789D01*
X24702262Y-17429816D01*
X24787819Y-17344259D01*
X24849142Y-17310774D01*
X24918834Y-17315758D01*
X24974767Y-17357630D01*
X24999184Y-17423094D01*
X24999500Y-17431940D01*
X24999500Y-17677402D01*
X24979815Y-17744441D01*
X24963181Y-17765083D01*
X22919481Y-19808782D01*
X22919477Y-19808787D01*
X22902658Y-19837921D01*
X22902657Y-19837923D01*
X22840423Y-19945715D01*
X22799499Y-20098443D01*
X22799499Y-20098445D01*
X22799499Y-20266546D01*
X22799500Y-20266559D01*
X22799500Y-22575500D01*
X22779815Y-22642539D01*
X22727011Y-22688294D01*
X22675500Y-22699500D01*
X22100097Y-22699500D01*
X22033058Y-22679815D01*
X22012416Y-22663181D01*
X21101818Y-21752583D01*
X21068333Y-21691260D01*
X21065499Y-21664902D01*
X21065499Y-20762129D01*
X21065498Y-20762123D01*
X21065497Y-20762116D01*
X21059091Y-20702517D01*
X21050414Y-20679254D01*
X21008797Y-20567671D01*
X21008793Y-20567664D01*
X20922547Y-20452455D01*
X20922544Y-20452452D01*
X20807335Y-20366206D01*
X20807328Y-20366202D01*
X20672482Y-20315908D01*
X20672483Y-20315908D01*
X20612883Y-20309501D01*
X20612881Y-20309500D01*
X20612873Y-20309500D01*
X20612864Y-20309500D01*
X19387129Y-20309500D01*
X19387123Y-20309501D01*
X19327516Y-20315908D01*
X19192671Y-20366202D01*
X19192664Y-20366206D01*
X19077455Y-20452452D01*
X19077452Y-20452455D01*
X18991206Y-20567664D01*
X18991202Y-20567671D01*
X18940908Y-20702517D01*
X18934501Y-20762116D01*
X18934501Y-20762123D01*
X18934500Y-20762135D01*
X18934500Y-21785903D01*
X18914815Y-21852942D01*
X18862011Y-21898697D01*
X18792853Y-21908641D01*
X18729297Y-21879616D01*
X18722819Y-21873584D01*
X18236819Y-21387584D01*
X18203334Y-21326261D01*
X18200500Y-21299903D01*
X18200500Y-18020945D01*
X18200500Y-18020943D01*
X18159577Y-17868216D01*
X18110414Y-17783062D01*
X18080524Y-17731290D01*
X18080521Y-17731286D01*
X18080520Y-17731284D01*
X17968716Y-17619480D01*
X17968715Y-17619479D01*
X17964385Y-17615149D01*
X17964374Y-17615139D01*
X17555827Y-17206592D01*
X17522342Y-17145269D01*
X17527326Y-17075577D01*
X17532494Y-17063668D01*
X17600817Y-16926459D01*
X17626447Y-16836375D01*
X17663727Y-16777284D01*
X17727036Y-16747726D01*
X17796276Y-16757088D01*
X17833395Y-16782630D01*
X18898181Y-17847416D01*
X18931666Y-17908739D01*
X18934500Y-17935097D01*
X18934500Y-19237870D01*
X18934501Y-19237876D01*
X18940908Y-19297483D01*
X18991202Y-19432328D01*
X18991206Y-19432335D01*
X19077452Y-19547544D01*
X19077455Y-19547547D01*
X19192664Y-19633793D01*
X19192671Y-19633797D01*
X19327517Y-19684091D01*
X19327516Y-19684091D01*
X19334444Y-19684835D01*
X19387127Y-19690500D01*
X20612872Y-19690499D01*
X20672483Y-19684091D01*
X20807331Y-19633796D01*
X20922546Y-19547546D01*
X21008796Y-19432331D01*
X21059091Y-19297483D01*
X21065500Y-19237873D01*
X21065499Y-17762128D01*
X21059091Y-17702517D01*
X21052695Y-17685369D01*
X21008797Y-17567671D01*
X21008793Y-17567664D01*
X20922547Y-17452455D01*
X20922544Y-17452452D01*
X20807335Y-17366206D01*
X20807328Y-17366202D01*
X20672482Y-17315908D01*
X20672483Y-17315908D01*
X20612883Y-17309501D01*
X20612881Y-17309500D01*
X20612873Y-17309500D01*
X20612865Y-17309500D01*
X20110097Y-17309500D01*
X20043058Y-17289815D01*
X20022416Y-17273181D01*
X17587590Y-14838355D01*
X17587588Y-14838352D01*
X17468717Y-14719481D01*
X17468716Y-14719480D01*
X17381904Y-14669360D01*
X17381904Y-14669359D01*
X17381900Y-14669358D01*
X17331785Y-14640423D01*
X17179057Y-14599499D01*
X17020943Y-14599499D01*
X17013347Y-14599499D01*
X17013331Y-14599500D01*
X13220943Y-14599500D01*
X13068216Y-14640423D01*
X13068209Y-14640426D01*
X12931290Y-14719475D01*
X12931282Y-14719481D01*
X12819481Y-14831282D01*
X12819475Y-14831290D01*
X12740422Y-14968215D01*
X12739060Y-14971505D01*
X12737167Y-14973852D01*
X12736359Y-14975254D01*
X12736140Y-14975127D01*
X12695219Y-15025908D01*
X12628924Y-15047972D01*
X12561225Y-15030692D01*
X12513615Y-14979554D01*
X12500500Y-14924051D01*
X12500500Y-12624500D01*
X12520185Y-12557461D01*
X12572989Y-12511706D01*
X12624500Y-12500500D01*
X17348643Y-12500500D01*
X17415682Y-12520185D01*
G37*
G04 #@! TD.AperFunction*
G04 #@! TA.AperFunction,Conductor*
G36*
X41419210Y-12520185D02*
G01*
X41464965Y-12572989D01*
X41474909Y-12642147D01*
X41445884Y-12705703D01*
X41431651Y-12719112D01*
X37887584Y-16263181D01*
X37826261Y-16296666D01*
X37799903Y-16299500D01*
X28342462Y-16299500D01*
X28275423Y-16279815D01*
X28229668Y-16227011D01*
X28219724Y-16157853D01*
X28248749Y-16094297D01*
X28273570Y-16072399D01*
X28297455Y-16056439D01*
X28297455Y-16056438D01*
X28297459Y-16056436D01*
X28356536Y-16016964D01*
X29399464Y-14974036D01*
X29498012Y-14826547D01*
X29565895Y-14662666D01*
X29600500Y-14488692D01*
X29600500Y-14311308D01*
X29565895Y-14137334D01*
X29498012Y-13973453D01*
X29495508Y-13969706D01*
X29399465Y-13825965D01*
X29399459Y-13825958D01*
X29274041Y-13700540D01*
X29274034Y-13700534D01*
X29126548Y-13601988D01*
X28962666Y-13534105D01*
X28962658Y-13534103D01*
X28788696Y-13499500D01*
X28788692Y-13499500D01*
X28611308Y-13499500D01*
X28611303Y-13499500D01*
X28437341Y-13534103D01*
X28437333Y-13534105D01*
X28273451Y-13601988D01*
X28125965Y-13700534D01*
X28125958Y-13700540D01*
X27445819Y-14380681D01*
X27384496Y-14414166D01*
X27358138Y-14417000D01*
X27246729Y-14417000D01*
X27203396Y-14409182D01*
X27107482Y-14373408D01*
X27107483Y-14373408D01*
X27047883Y-14367001D01*
X27047881Y-14367000D01*
X27047873Y-14367000D01*
X27047864Y-14367000D01*
X25452129Y-14367000D01*
X25452123Y-14367001D01*
X25392516Y-14373408D01*
X25257671Y-14423702D01*
X25257664Y-14423706D01*
X25142455Y-14509952D01*
X25142452Y-14509955D01*
X25056206Y-14625164D01*
X25056202Y-14625171D01*
X25005908Y-14760017D01*
X24999501Y-14819616D01*
X24999501Y-14819623D01*
X24999500Y-14819635D01*
X24999500Y-15815370D01*
X24999501Y-15815376D01*
X25005908Y-15874981D01*
X25018659Y-15909169D01*
X25023642Y-15978861D01*
X25018659Y-15995831D01*
X25005908Y-16030018D01*
X24999501Y-16089614D01*
X24999500Y-16089635D01*
X24999500Y-16168060D01*
X24979815Y-16235099D01*
X24927011Y-16280854D01*
X24857853Y-16290798D01*
X24794297Y-16261773D01*
X24787819Y-16255741D01*
X24702262Y-16170184D01*
X24549523Y-16074211D01*
X24379254Y-16014631D01*
X24379249Y-16014630D01*
X24200004Y-15994435D01*
X24199996Y-15994435D01*
X24020750Y-16014630D01*
X24020737Y-16014633D01*
X23850478Y-16074210D01*
X23844206Y-16077231D01*
X23842866Y-16074448D01*
X23788598Y-16089614D01*
X23721822Y-16069054D01*
X23702541Y-16053306D01*
X23189318Y-15540083D01*
X23155833Y-15478760D01*
X23152999Y-15452402D01*
X23152999Y-14504126D01*
X23172684Y-14437087D01*
X23225488Y-14391332D01*
X23263748Y-14380836D01*
X23279983Y-14379091D01*
X23414831Y-14328796D01*
X23530046Y-14242546D01*
X23616296Y-14127331D01*
X23666591Y-13992483D01*
X23673000Y-13932873D01*
X23672999Y-12637128D01*
X23672998Y-12637127D01*
X23672821Y-12633805D01*
X23673792Y-12633753D01*
X23685466Y-12569008D01*
X23733071Y-12517865D01*
X23796356Y-12500500D01*
X41352171Y-12500500D01*
X41419210Y-12520185D01*
G37*
G04 #@! TD.AperFunction*
G04 #@! TD*
M02*
