G04 #@! TF.GenerationSoftware,KiCad,Pcbnew,8.0.8*
G04 #@! TF.CreationDate,2025-02-16T18:20:13+01:00*
G04 #@! TF.ProjectId,cheap-wled-controller,63686561-702d-4776-9c65-642d636f6e74,rev?*
G04 #@! TF.SameCoordinates,Original*
G04 #@! TF.FileFunction,Soldermask,Top*
G04 #@! TF.FilePolarity,Negative*
%FSLAX46Y46*%
G04 Gerber Fmt 4.6, Leading zero omitted, Abs format (unit mm)*
G04 Created by KiCad (PCBNEW 8.0.8) date 2025-02-16 18:20:13*
%MOMM*%
%LPD*%
G01*
G04 APERTURE LIST*
G04 Aperture macros list*
%AMRoundRect*
0 Rectangle with rounded corners*
0 $1 Rounding radius*
0 $2 $3 $4 $5 $6 $7 $8 $9 X,Y pos of 4 corners*
0 Add a 4 corners polygon primitive as box body*
4,1,4,$2,$3,$4,$5,$6,$7,$8,$9,$2,$3,0*
0 Add four circle primitives for the rounded corners*
1,1,$1+$1,$2,$3*
1,1,$1+$1,$4,$5*
1,1,$1+$1,$6,$7*
1,1,$1+$1,$8,$9*
0 Add four rect primitives between the rounded corners*
20,1,$1+$1,$2,$3,$4,$5,0*
20,1,$1+$1,$4,$5,$6,$7,0*
20,1,$1+$1,$6,$7,$8,$9,0*
20,1,$1+$1,$8,$9,$2,$3,0*%
G04 Aperture macros list end*
%ADD10R,1.410000X1.350000*%
%ADD11R,1.130000X1.380000*%
%ADD12O,1.600000X2.600000*%
%ADD13R,1.000000X1.400000*%
%ADD14C,3.200000*%
%ADD15RoundRect,0.250000X-1.000000X-0.650000X1.000000X-0.650000X1.000000X0.650000X-1.000000X0.650000X0*%
%ADD16O,0.590000X2.050000*%
%ADD17R,0.600000X1.000000*%
%ADD18R,4.410000X4.000000*%
%ADD19RoundRect,0.150000X-0.512500X-0.150000X0.512500X-0.150000X0.512500X0.150000X-0.512500X0.150000X0*%
%ADD20R,0.600000X1.500000*%
%ADD21R,3.300000X2.100000*%
%ADD22R,1.350000X1.350000*%
%ADD23O,1.350000X1.350000*%
%ADD24R,1.380000X1.130000*%
%ADD25RoundRect,0.250000X-0.350000X-0.625000X0.350000X-0.625000X0.350000X0.625000X-0.350000X0.625000X0*%
%ADD26O,1.200000X1.750000*%
%ADD27R,1.700000X1.700000*%
%ADD28O,1.700000X1.700000*%
%ADD29RoundRect,0.112500X-0.237500X0.112500X-0.237500X-0.112500X0.237500X-0.112500X0.237500X0.112500X0*%
%ADD30C,2.200000*%
%ADD31R,1.500000X0.900000*%
%ADD32R,0.900000X1.500000*%
%ADD33R,0.900000X0.900000*%
%ADD34C,0.750000*%
%ADD35O,2.000000X1.200000*%
%ADD36O,1.800000X1.200000*%
%ADD37R,1.300000X0.300000*%
%ADD38R,1.100000X2.500000*%
%ADD39R,3.600000X2.340000*%
%ADD40RoundRect,0.250000X-0.375000X-0.850000X0.375000X-0.850000X0.375000X0.850000X-0.375000X0.850000X0*%
%ADD41C,0.700000*%
%ADD42R,0.800000X1.300000*%
%ADD43R,1.000000X1.200000*%
G04 APERTURE END LIST*
D10*
G04 #@! TO.C,C29*
X50500000Y-33250000D03*
X52500000Y-33250000D03*
G04 #@! TD*
D11*
G04 #@! TO.C,R6*
X50500000Y-43000000D03*
X52500000Y-43000000D03*
G04 #@! TD*
D12*
G04 #@! TO.C,F2*
X90800000Y-30730000D03*
X94200000Y-30730000D03*
X90800000Y-17270000D03*
X94200000Y-17270000D03*
G04 #@! TD*
D13*
G04 #@! TO.C,D4*
X17450000Y-27810000D03*
X15350000Y-27810000D03*
G04 #@! TD*
D11*
G04 #@! TO.C,R5*
X26000000Y-46500000D03*
X28000000Y-46500000D03*
G04 #@! TD*
D14*
G04 #@! TO.C,H2*
X19000000Y-54000000D03*
G04 #@! TD*
D11*
G04 #@! TO.C,R14*
X83500000Y-30500000D03*
X85500000Y-30500000D03*
G04 #@! TD*
D13*
G04 #@! TO.C,D2*
X17650000Y-23800000D03*
X15550000Y-23800000D03*
G04 #@! TD*
D15*
G04 #@! TO.C,D3*
X49500000Y-54500000D03*
X53500000Y-54500000D03*
G04 #@! TD*
D16*
G04 #@! TO.C,U4*
X83090000Y-44770000D03*
X84370000Y-44770000D03*
X85630000Y-44770000D03*
X86900000Y-44770000D03*
X86900000Y-39230000D03*
X85630000Y-39230000D03*
X84370000Y-39230000D03*
X83090000Y-39230000D03*
G04 #@! TD*
D11*
G04 #@! TO.C,R15*
X104500000Y-38000000D03*
X106500000Y-38000000D03*
G04 #@! TD*
D17*
G04 #@! TO.C,REF\u002A\u002A*
X96900000Y-45420000D03*
X93090000Y-39580000D03*
X94370000Y-39580000D03*
D18*
X95000000Y-41890000D03*
D17*
X95630000Y-39580000D03*
X96900000Y-39580000D03*
X93090000Y-45420000D03*
X94370000Y-45420000D03*
X95630000Y-45420000D03*
G04 #@! TD*
D19*
G04 #@! TO.C,U1*
X35725000Y-35500000D03*
X35725000Y-36450000D03*
X35725000Y-37400000D03*
X38000000Y-37400000D03*
X38000000Y-36450000D03*
X38000000Y-35500000D03*
G04 #@! TD*
D10*
G04 #@! TO.C,C5*
X50500000Y-24400000D03*
X52500000Y-24400000D03*
G04 #@! TD*
D20*
G04 #@! TO.C,U3*
X26500000Y-37000000D03*
X27500000Y-37000000D03*
X28500000Y-37000000D03*
X29500000Y-37000000D03*
X30500000Y-37000000D03*
X30500000Y-31000000D03*
X29500000Y-31000000D03*
X28500000Y-31000000D03*
X27500000Y-31000000D03*
X26500000Y-31000000D03*
D21*
X28500000Y-34000000D03*
G04 #@! TD*
D22*
G04 #@! TO.C,J4*
X27000000Y-18000000D03*
D23*
X27000000Y-16000000D03*
X29000000Y-18000000D03*
X29000000Y-16000000D03*
X31000000Y-18000000D03*
X31000000Y-16000000D03*
X33000000Y-18000000D03*
X33000000Y-16000000D03*
X35000000Y-18000000D03*
X35000000Y-16000000D03*
G04 #@! TD*
D24*
G04 #@! TO.C,R2*
X34000000Y-23500000D03*
X34000000Y-21500000D03*
G04 #@! TD*
D10*
G04 #@! TO.C,C30*
X78500000Y-15500000D03*
X80500000Y-15500000D03*
G04 #@! TD*
D25*
G04 #@! TO.C,J7*
X61000000Y-15500000D03*
D26*
X63000000Y-15500000D03*
G04 #@! TD*
D10*
G04 #@! TO.C,C7*
X50500000Y-30300000D03*
X52500000Y-30300000D03*
G04 #@! TD*
D27*
G04 #@! TO.C,J6*
X25880000Y-54300000D03*
D28*
X28420000Y-54300000D03*
X30960000Y-54300000D03*
X33500000Y-54300000D03*
X36040000Y-54300000D03*
G04 #@! TD*
D11*
G04 #@! TO.C,R20*
X83500000Y-18500000D03*
X85500000Y-18500000D03*
G04 #@! TD*
D19*
G04 #@! TO.C,U7*
X62000000Y-25600000D03*
X62000000Y-26550000D03*
X62000000Y-27500000D03*
X64275000Y-27500000D03*
X64275000Y-26550000D03*
X64275000Y-25600000D03*
G04 #@! TD*
D10*
G04 #@! TO.C,C2*
X31000000Y-46500000D03*
X33000000Y-46500000D03*
G04 #@! TD*
D29*
G04 #@! TO.C,D1*
X36000000Y-28200000D03*
X36000000Y-29500000D03*
X38000000Y-28850000D03*
G04 #@! TD*
D10*
G04 #@! TO.C,C1*
X84000000Y-50000000D03*
X86000000Y-50000000D03*
G04 #@! TD*
G04 #@! TO.C,C6*
X50500000Y-27350000D03*
X52500000Y-27350000D03*
G04 #@! TD*
D11*
G04 #@! TO.C,R4*
X31000000Y-43500000D03*
X33000000Y-43500000D03*
G04 #@! TD*
D30*
G04 #@! TO.C,J10*
X105000000Y-15190000D03*
X105000000Y-19000000D03*
X105000000Y-22810000D03*
X105000000Y-26620000D03*
X105000000Y-30430000D03*
G04 #@! TD*
D11*
G04 #@! TO.C,R12*
X21000000Y-24500000D03*
X23000000Y-24500000D03*
G04 #@! TD*
D31*
G04 #@! TO.C,U5*
X78500000Y-52000000D03*
X78500000Y-50730000D03*
X78500000Y-49460000D03*
X78500000Y-48190000D03*
X78500000Y-46920000D03*
X78500000Y-45650000D03*
X78500000Y-44380000D03*
X78500000Y-43110000D03*
X78500000Y-41840000D03*
X78500000Y-40570000D03*
X78500000Y-39300000D03*
X78500000Y-38030000D03*
X78500000Y-36760000D03*
X78500000Y-35490000D03*
D32*
X76740000Y-34220000D03*
X75470000Y-34220000D03*
X74200000Y-34220000D03*
X72930000Y-34220000D03*
X71660000Y-34220000D03*
X70380000Y-34220000D03*
X69120000Y-34220000D03*
X67850000Y-34220000D03*
X66580000Y-34220000D03*
X65300000Y-34220000D03*
X64030000Y-34220000D03*
X62760000Y-34250000D03*
D31*
X61000000Y-35490000D03*
X61000000Y-36760000D03*
X61000000Y-38030000D03*
X61000000Y-39300000D03*
X61000000Y-40570000D03*
X61000000Y-41840000D03*
X61000000Y-43110000D03*
X61000000Y-44380000D03*
X61000000Y-45650000D03*
X61000000Y-46920000D03*
X61000000Y-48190000D03*
X61000000Y-49460000D03*
X61000000Y-50730000D03*
X61000000Y-52000000D03*
D33*
X72650000Y-45680000D03*
X72650000Y-44280000D03*
X72650000Y-42880000D03*
X71250000Y-45680000D03*
X71250000Y-44280000D03*
X71250000Y-42880000D03*
X69850000Y-45680000D03*
X69850000Y-44280000D03*
X69850000Y-42880000D03*
G04 #@! TD*
D11*
G04 #@! TO.C,R13*
X83500000Y-22500000D03*
X85500000Y-22500000D03*
G04 #@! TD*
G04 #@! TO.C,R10*
X104500000Y-41000000D03*
X106500000Y-41000000D03*
G04 #@! TD*
D14*
G04 #@! TO.C,H1*
X20000000Y-18500000D03*
G04 #@! TD*
G04 #@! TO.C,H3*
X104000000Y-54000000D03*
G04 #@! TD*
D24*
G04 #@! TO.C,R16*
X30500000Y-23500000D03*
X30500000Y-21500000D03*
G04 #@! TD*
D11*
G04 #@! TO.C,R22*
X83500000Y-15500000D03*
X85500000Y-15500000D03*
G04 #@! TD*
G04 #@! TO.C,R7*
X50500000Y-40000000D03*
X52500000Y-40000000D03*
G04 #@! TD*
G04 #@! TO.C,R3*
X26000000Y-43500000D03*
X28000000Y-43500000D03*
G04 #@! TD*
D10*
G04 #@! TO.C,C3*
X50500000Y-21450000D03*
X52500000Y-21450000D03*
G04 #@! TD*
D34*
G04 #@! TO.C,J2*
X17262500Y-36100000D03*
X17262500Y-41900000D03*
D35*
X17762500Y-34670000D03*
X17762500Y-43330000D03*
D36*
X13582500Y-43330000D03*
X13582500Y-34670000D03*
D37*
X18522500Y-35650000D03*
X18522500Y-36450000D03*
X18522500Y-37750000D03*
X18522500Y-38750000D03*
X18522500Y-39250000D03*
X18522500Y-40250000D03*
X18522500Y-41550000D03*
X18522500Y-42350000D03*
X18522500Y-42050000D03*
X18522500Y-41250000D03*
X18522500Y-40750000D03*
X18522500Y-39750000D03*
X18522500Y-38250000D03*
X18522500Y-37250000D03*
X18522500Y-36750000D03*
X18522500Y-35950000D03*
G04 #@! TD*
D38*
G04 #@! TO.C,U9*
X70700000Y-29470000D03*
X73000000Y-29470000D03*
X75300000Y-29470000D03*
D39*
X73000000Y-23530000D03*
G04 #@! TD*
D40*
G04 #@! TO.C,L2*
X71925000Y-18000000D03*
X74075000Y-18000000D03*
G04 #@! TD*
D41*
G04 #@! TO.C,SW1*
X42800000Y-14000000D03*
X44500000Y-14000000D03*
D42*
X41970000Y-15200000D03*
X45330000Y-15200000D03*
D43*
X45750000Y-13500000D03*
X41550000Y-13500000D03*
G04 #@! TD*
D24*
G04 #@! TO.C,R17*
X27000000Y-23500000D03*
X27000000Y-21500000D03*
G04 #@! TD*
D27*
G04 #@! TO.C,J8*
X82400000Y-54975000D03*
D28*
X84940000Y-54975000D03*
X87480000Y-54975000D03*
X90020000Y-54975000D03*
X92560000Y-54975000D03*
X95100000Y-54975000D03*
X97640000Y-54975000D03*
G04 #@! TD*
D11*
G04 #@! TO.C,R11*
X104500000Y-45000000D03*
X106500000Y-45000000D03*
G04 #@! TD*
M02*
