%TF.GenerationSoftware,KiCad,Pcbnew,8.0.8*%
%TF.CreationDate,2025-03-24T19:57:08+01:00*%
%TF.ProjectId,cheap-wled-controller,63686561-702d-4776-9c65-642d636f6e74,rev?*%
%TF.SameCoordinates,Original*%
%TF.FileFunction,Drillmap*%
%TF.FilePolarity,Positive*%
%FSLAX45Y45*%
G04 Gerber Fmt 4.5, Leading zero omitted, Abs format (unit mm)*
G04 Created by KiCad (PCBNEW 8.0.8) date 2025-03-24 19:57:08*
%MOMM*%
%LPD*%
G01*
G04 APERTURE LIST*
%ADD10C,0.050000*%
%ADD11C,0.200000*%
%ADD12C,0.100000*%
%ADD13C,0.139999*%
G04 APERTURE END LIST*
D10*
X6000000Y-6000000D02*
X6000000Y-1200000D01*
X1200000Y-1200000D02*
X1200000Y-6000000D01*
X6000000Y-1200000D02*
X1200000Y-1200000D01*
X1200000Y-6000000D02*
X6000000Y-6000000D01*
D11*
D12*
X1355000Y-5086392D02*
X1385000Y-5116392D01*
X1385000Y-5086392D02*
X1355000Y-5116392D01*
X1405000Y-4715000D02*
X1435000Y-4745000D01*
X1435000Y-4715000D02*
X1405000Y-4745000D01*
X1455000Y-3935000D02*
X1485000Y-3965000D01*
X1485000Y-3935000D02*
X1455000Y-3965000D01*
X1465000Y-4035000D02*
X1495000Y-4065000D01*
X1495000Y-4035000D02*
X1465000Y-4065000D01*
X1485000Y-3595000D02*
X1515000Y-3625000D01*
X1515000Y-3595000D02*
X1485000Y-3625000D01*
X1556513Y-3214551D02*
X1586513Y-3244551D01*
X1586513Y-3214551D02*
X1556513Y-3244551D01*
X1583965Y-4611244D02*
X1613965Y-4641244D01*
X1613965Y-4611244D02*
X1583965Y-4641244D01*
X1675000Y-3545000D02*
X1705000Y-3575000D01*
X1705000Y-3545000D02*
X1675000Y-3575000D01*
X1705000Y-5205000D02*
X1735000Y-5235000D01*
X1735000Y-5205000D02*
X1705000Y-5235000D01*
X1745000Y-4475000D02*
X1775000Y-4505000D01*
X1775000Y-4475000D02*
X1745000Y-4505000D01*
X1815000Y-2825000D02*
X1845000Y-2855000D01*
X1845000Y-2825000D02*
X1815000Y-2855000D01*
X1815000Y-4925000D02*
X1845000Y-4955000D01*
X1845000Y-4925000D02*
X1815000Y-4955000D01*
X1835000Y-4335000D02*
X1865000Y-4365000D01*
X1865000Y-4335000D02*
X1835000Y-4365000D01*
X1845000Y-2065000D02*
X1875000Y-2095000D01*
X1875000Y-2065000D02*
X1845000Y-2095000D01*
X1865000Y-2385000D02*
X1895000Y-2415000D01*
X1895000Y-2385000D02*
X1865000Y-2415000D01*
X1885000Y-3975000D02*
X1915000Y-4005000D01*
X1915000Y-3975000D02*
X1885000Y-4005000D01*
X1905000Y-4605000D02*
X1935000Y-4635000D01*
X1935000Y-4605000D02*
X1905000Y-4635000D01*
X2047640Y-2957507D02*
X2077640Y-2987507D01*
X2077640Y-2957507D02*
X2047640Y-2987507D01*
X2065000Y-4035000D02*
X2095000Y-4065000D01*
X2095000Y-4035000D02*
X2065000Y-4065000D01*
X2095000Y-2695000D02*
X2125000Y-2725000D01*
X2125000Y-2695000D02*
X2095000Y-2725000D01*
X2129853Y-2845000D02*
X2159853Y-2875000D01*
X2159853Y-2845000D02*
X2129853Y-2875000D01*
X2144999Y-3694999D02*
X2174999Y-3724999D01*
X2174999Y-3694999D02*
X2144999Y-3724999D01*
X2175000Y-3059853D02*
X2205000Y-3089853D01*
X2205000Y-3059853D02*
X2175000Y-3089853D01*
X2185000Y-4975000D02*
X2215000Y-5005000D01*
X2215000Y-4975000D02*
X2185000Y-5005000D01*
X2215000Y-4625000D02*
X2245000Y-4655000D01*
X2245000Y-4625000D02*
X2215000Y-4655000D01*
X2235000Y-2865000D02*
X2265000Y-2895000D01*
X2265000Y-2865000D02*
X2235000Y-2895000D01*
X2261158Y-3230385D02*
X2291158Y-3260385D01*
X2291158Y-3230385D02*
X2261158Y-3260385D01*
X2302574Y-3937426D02*
X2332574Y-3967426D01*
X2332574Y-3937426D02*
X2302574Y-3967426D01*
X2325000Y-1825000D02*
X2355000Y-1855000D01*
X2355000Y-1825000D02*
X2325000Y-1855000D01*
X2355000Y-2853750D02*
X2385000Y-2883750D01*
X2385000Y-2853750D02*
X2355000Y-2883750D01*
X2385000Y-2975000D02*
X2415000Y-3005000D01*
X2415000Y-2975000D02*
X2385000Y-3005000D01*
X2395000Y-3715000D02*
X2425000Y-3745000D01*
X2425000Y-3715000D02*
X2395000Y-3745000D01*
X2405000Y-1665000D02*
X2435000Y-1695000D01*
X2435000Y-1665000D02*
X2405000Y-1695000D01*
X2425000Y-4215000D02*
X2455000Y-4245000D01*
X2455000Y-4215000D02*
X2425000Y-4245000D01*
X2455000Y-3170147D02*
X2485000Y-3200147D01*
X2485000Y-3170147D02*
X2455000Y-3200147D01*
X2465000Y-4795000D02*
X2495000Y-4825000D01*
X2495000Y-4795000D02*
X2465000Y-4825000D01*
X2467427Y-5142574D02*
X2497427Y-5172574D01*
X2497427Y-5142574D02*
X2467427Y-5172574D01*
X2477500Y-5237500D02*
X2507500Y-5267500D01*
X2507500Y-5237500D02*
X2477500Y-5267500D01*
X2524000Y-3565000D02*
X2554000Y-3595000D01*
X2554000Y-3565000D02*
X2524000Y-3595000D01*
X2545000Y-4185000D02*
X2575000Y-4215000D01*
X2575000Y-4185000D02*
X2545000Y-4215000D01*
X2585000Y-4755000D02*
X2615000Y-4785000D01*
X2615000Y-4755000D02*
X2585000Y-4785000D01*
X2585000Y-5005000D02*
X2615000Y-5035000D01*
X2615000Y-5005000D02*
X2585000Y-5035000D01*
X2655000Y-3655000D02*
X2685000Y-3685000D01*
X2685000Y-3655000D02*
X2655000Y-3685000D01*
X2675000Y-3805000D02*
X2705000Y-3835000D01*
X2705000Y-3805000D02*
X2675000Y-3835000D01*
X2690000Y-5095000D02*
X2720000Y-5125000D01*
X2720000Y-5095000D02*
X2690000Y-5125000D01*
X2690000Y-5350000D02*
X2720000Y-5380000D01*
X2720000Y-5350000D02*
X2690000Y-5380000D01*
X2790000Y-5135000D02*
X2820000Y-5165000D01*
X2820000Y-5135000D02*
X2790000Y-5165000D01*
X2790000Y-5335000D02*
X2820000Y-5365000D01*
X2820000Y-5335000D02*
X2790000Y-5365000D01*
X2795000Y-5505000D02*
X2825000Y-5535000D01*
X2825000Y-5505000D02*
X2795000Y-5535000D01*
X2805000Y-4195000D02*
X2835000Y-4225000D01*
X2835000Y-4195000D02*
X2805000Y-4225000D01*
X2855000Y-1425000D02*
X2885000Y-1455000D01*
X2885000Y-1425000D02*
X2855000Y-1455000D01*
X2935000Y-5385000D02*
X2965000Y-5415000D01*
X2965000Y-5385000D02*
X2935000Y-5415000D01*
X2955000Y-5505000D02*
X2985000Y-5535000D01*
X2985000Y-5505000D02*
X2955000Y-5535000D01*
X2995000Y-3975000D02*
X3025000Y-4005000D01*
X3025000Y-3975000D02*
X2995000Y-4005000D01*
X2995000Y-5185000D02*
X3025000Y-5215000D01*
X3025000Y-5185000D02*
X2995000Y-5215000D01*
X2995000Y-5284090D02*
X3025000Y-5314090D01*
X3025000Y-5284090D02*
X2995000Y-5314090D01*
X3105353Y-4155500D02*
X3135353Y-4185500D01*
X3135353Y-4155500D02*
X3105353Y-4185500D01*
X3125000Y-3295000D02*
X3155000Y-3325000D01*
X3155000Y-3295000D02*
X3125000Y-3325000D01*
X3185000Y-4545000D02*
X3215000Y-4575000D01*
X3215000Y-4545000D02*
X3185000Y-4575000D01*
X3224402Y-5869255D02*
X3254402Y-5899255D01*
X3254402Y-5869255D02*
X3224402Y-5899255D01*
X3235000Y-5517574D02*
X3265000Y-5547574D01*
X3265000Y-5517574D02*
X3235000Y-5547574D01*
X3262573Y-5202574D02*
X3292573Y-5232574D01*
X3292573Y-5202574D02*
X3262573Y-5232574D01*
X3295000Y-3805000D02*
X3325000Y-3835000D01*
X3325000Y-3805000D02*
X3295000Y-3835000D01*
X3305000Y-4545000D02*
X3335000Y-4575000D01*
X3335000Y-4545000D02*
X3305000Y-4575000D01*
X3355000Y-3335000D02*
X3385000Y-3365000D01*
X3385000Y-3335000D02*
X3355000Y-3365000D01*
X3355000Y-4065000D02*
X3385000Y-4095000D01*
X3385000Y-4065000D02*
X3355000Y-4095000D01*
X3375000Y-4195000D02*
X3405000Y-4225000D01*
X3405000Y-4195000D02*
X3375000Y-4225000D01*
X3445000Y-2995000D02*
X3475000Y-3025000D01*
X3475000Y-2995000D02*
X3445000Y-3025000D01*
X3454915Y-5010232D02*
X3484915Y-5040232D01*
X3484915Y-5010232D02*
X3454915Y-5040232D01*
X3495000Y-4083118D02*
X3525000Y-4113118D01*
X3525000Y-4083118D02*
X3495000Y-4113118D01*
X3555000Y-2995000D02*
X3585000Y-3025000D01*
X3585000Y-2995000D02*
X3555000Y-3025000D01*
X3585000Y-3785000D02*
X3615000Y-3815000D01*
X3615000Y-3785000D02*
X3585000Y-3815000D01*
X3605000Y-1565000D02*
X3635000Y-1595000D01*
X3635000Y-1565000D02*
X3605000Y-1595000D01*
X3605000Y-1805000D02*
X3635000Y-1835000D01*
X3635000Y-1805000D02*
X3605000Y-1835000D01*
X3615000Y-4465000D02*
X3645000Y-4495000D01*
X3645000Y-4465000D02*
X3615000Y-4495000D01*
X3665000Y-2995000D02*
X3695000Y-3025000D01*
X3695000Y-2995000D02*
X3665000Y-3025000D01*
X3695000Y-4755000D02*
X3725000Y-4785000D01*
X3725000Y-4755000D02*
X3695000Y-4785000D01*
X3705000Y-4655000D02*
X3735000Y-4685000D01*
X3735000Y-4655000D02*
X3705000Y-4685000D01*
X3705000Y-4655000D02*
X3735000Y-4685000D01*
X3735000Y-4655000D02*
X3705000Y-4685000D01*
X3755000Y-3305000D02*
X3785000Y-3335000D01*
X3785000Y-3305000D02*
X3755000Y-3335000D01*
X3775000Y-2995000D02*
X3805000Y-3025000D01*
X3805000Y-2995000D02*
X3775000Y-3025000D01*
X3835000Y-4715000D02*
X3865000Y-4745000D01*
X3865000Y-4715000D02*
X3835000Y-4745000D01*
X3855000Y-4505000D02*
X3885000Y-4535000D01*
X3885000Y-4505000D02*
X3855000Y-4535000D01*
X3892573Y-2997426D02*
X3922573Y-3027426D01*
X3922573Y-2997426D02*
X3892573Y-3027426D01*
X4038386Y-3955000D02*
X4068386Y-3985000D01*
X4068386Y-3955000D02*
X4038386Y-3985000D01*
X4055000Y-5225000D02*
X4085000Y-5255000D01*
X4085000Y-5225000D02*
X4055000Y-5255000D01*
X4085000Y-3515000D02*
X4115000Y-3545000D01*
X4115000Y-3515000D02*
X4085000Y-3545000D01*
X4135000Y-4185000D02*
X4165000Y-4215000D01*
X4165000Y-4185000D02*
X4135000Y-4215000D01*
X4224194Y-4655806D02*
X4254194Y-4685806D01*
X4254194Y-4655806D02*
X4224194Y-4685806D01*
X4285000Y-3645000D02*
X4315000Y-3675000D01*
X4315000Y-3645000D02*
X4285000Y-3675000D01*
X4325000Y-4205000D02*
X4355000Y-4235000D01*
X4355000Y-4205000D02*
X4325000Y-4235000D01*
X4332500Y-4025266D02*
X4362500Y-4055266D01*
X4362500Y-4025266D02*
X4332500Y-4055266D01*
X4335000Y-3875000D02*
X4365000Y-3905000D01*
X4365000Y-3875000D02*
X4335000Y-3905000D01*
X4435000Y-3365000D02*
X4465000Y-3395000D01*
X4465000Y-3365000D02*
X4435000Y-3395000D01*
X4515000Y-3725000D02*
X4545000Y-3755000D01*
X4545000Y-3725000D02*
X4515000Y-3755000D01*
X4525000Y-1675000D02*
X4555000Y-1705000D01*
X4555000Y-1675000D02*
X4525000Y-1705000D01*
X4535000Y-2035000D02*
X4565000Y-2065000D01*
X4565000Y-2035000D02*
X4535000Y-2065000D01*
X4535000Y-2535000D02*
X4565000Y-2565000D01*
X4565000Y-2535000D02*
X4535000Y-2565000D01*
X4555000Y-4145000D02*
X4585000Y-4175000D01*
X4585000Y-4145000D02*
X4555000Y-4175000D01*
X4585000Y-1885000D02*
X4615000Y-1915000D01*
X4615000Y-1885000D02*
X4585000Y-1915000D01*
X4605000Y-2385000D02*
X4635000Y-2415000D01*
X4635000Y-2385000D02*
X4605000Y-2415000D01*
X4645000Y-4995000D02*
X4675000Y-5025000D01*
X4675000Y-4995000D02*
X4645000Y-5025000D01*
X4655000Y-4035000D02*
X4685000Y-4065000D01*
X4685000Y-4035000D02*
X4655000Y-4065000D01*
X4660147Y-4735000D02*
X4690147Y-4765000D01*
X4690147Y-4735000D02*
X4660147Y-4765000D01*
X4705000Y-5245000D02*
X4735000Y-5275000D01*
X4735000Y-5245000D02*
X4705000Y-5275000D01*
X4815000Y-3275000D02*
X4845000Y-3305000D01*
X4845000Y-3275000D02*
X4815000Y-3305000D01*
X4845000Y-4595000D02*
X4875000Y-4625000D01*
X4875000Y-4595000D02*
X4845000Y-4625000D01*
X4938750Y-3051250D02*
X4968750Y-3081250D01*
X4968750Y-3051250D02*
X4938750Y-3081250D01*
X5055000Y-4675000D02*
X5085000Y-4705000D01*
X5085000Y-4675000D02*
X5055000Y-4705000D01*
X5105000Y-4315000D02*
X5135000Y-4345000D01*
X5135000Y-4315000D02*
X5105000Y-4345000D01*
X5145000Y-2385000D02*
X5175000Y-2415000D01*
X5175000Y-2385000D02*
X5145000Y-2415000D01*
X5175000Y-3535000D02*
X5205000Y-3565000D01*
X5205000Y-3535000D02*
X5175000Y-3565000D01*
X5285000Y-4575000D02*
X5315000Y-4605000D01*
X5315000Y-4575000D02*
X5285000Y-4605000D01*
X5325000Y-5245000D02*
X5355000Y-5275000D01*
X5355000Y-5245000D02*
X5325000Y-5275000D01*
X2007250Y-1378500D02*
G75*
G02*
X1937250Y-1378500I-35000J0D01*
G01*
X1937250Y-1378500D02*
G75*
G02*
X2007250Y-1378500I35000J0D01*
G01*
X2177250Y-1378500D02*
G75*
G02*
X2107250Y-1378500I-35000J0D01*
G01*
X2107250Y-1378500D02*
G75*
G02*
X2177250Y-1378500I35000J0D01*
G01*
X2070000Y-5304999D02*
X2070000Y-5375001D01*
X2034999Y-5340000D02*
X2105001Y-5340000D01*
X2070000Y-5504999D02*
X2070000Y-5575001D01*
X2034999Y-5540000D02*
X2105001Y-5540000D01*
X5560000Y-4764999D02*
X5560000Y-4835001D01*
X5524999Y-4800000D02*
X5595001Y-4800000D01*
X5560000Y-4964999D02*
X5560000Y-5035001D01*
X5524999Y-5000000D02*
X5595001Y-5000000D01*
X1774517Y-3129517D02*
X1774517Y-3076483D01*
X1721483Y-3076483D01*
X1721483Y-3129517D01*
X1774517Y-3129517D01*
X1774517Y-3709517D02*
X1774517Y-3656483D01*
X1721483Y-3656483D01*
X1721483Y-3709517D01*
X1774517Y-3709517D01*
X5476517Y-2431517D02*
X5476517Y-2378483D01*
X5423483Y-2378483D01*
X5423483Y-2431517D01*
X5476517Y-2431517D01*
X5676517Y-2431517D02*
X5676517Y-2378483D01*
X5623483Y-2378483D01*
X5623483Y-2431517D01*
X5676517Y-2431517D01*
X1380000Y-3000000D02*
X1420000Y-2960000D01*
X1380000Y-2920000D01*
X1340000Y-2960000D01*
X1380000Y-3000000D01*
X1410000Y-2920000D02*
X1350000Y-2920000D01*
X1350000Y-3000000D02*
G75*
G02*
X1350000Y-2920000I0J40000D01*
G01*
X1350000Y-3000000D02*
X1410000Y-3000000D01*
X1410000Y-3000000D02*
G75*
G03*
X1410000Y-2920000I0J40000D01*
G01*
X1380000Y-3866000D02*
X1420000Y-3826000D01*
X1380000Y-3786000D01*
X1340000Y-3826000D01*
X1380000Y-3866000D01*
X1410000Y-3786000D02*
X1350000Y-3786000D01*
X1350000Y-3866000D02*
G75*
G02*
X1350000Y-3786000I0J40000D01*
G01*
X1350000Y-3866000D02*
X1410000Y-3866000D01*
X1410000Y-3866000D02*
G75*
G03*
X1410000Y-3786000I0J40000D01*
G01*
X1798000Y-3000000D02*
X1838000Y-2960000D01*
X1798000Y-2920000D01*
X1758000Y-2960000D01*
X1798000Y-3000000D01*
X1838001Y-2920000D02*
X1757999Y-2920000D01*
X1757999Y-3000000D02*
G75*
G02*
X1757999Y-2920000I0J40000D01*
G01*
X1757999Y-3000000D02*
X1838001Y-3000000D01*
X1838001Y-3000000D02*
G75*
G03*
X1838001Y-2920000I0J40000D01*
G01*
X1798000Y-3866000D02*
X1838000Y-3826000D01*
X1798000Y-3786000D01*
X1758000Y-3826000D01*
X1798000Y-3866000D01*
X1837999Y-3786000D02*
X1758001Y-3786000D01*
X1758001Y-3866000D02*
G75*
G02*
X1758001Y-3786000I0J40000D01*
G01*
X1758001Y-3866000D02*
X1837999Y-3866000D01*
X1837999Y-3866000D02*
G75*
G03*
X1837999Y-3786000I0J40000D01*
G01*
X1410000Y-1610000D02*
X1490000Y-1690000D01*
X1490000Y-1610000D02*
X1410000Y-1690000D01*
X1490000Y-1650000D02*
G75*
G02*
X1410000Y-1650000I-40000J0D01*
G01*
X1410000Y-1650000D02*
G75*
G02*
X1490000Y-1650000I40000J0D01*
G01*
X1410000Y-1810000D02*
X1490000Y-1890000D01*
X1490000Y-1810000D02*
X1410000Y-1890000D01*
X1490000Y-1850000D02*
G75*
G02*
X1410000Y-1850000I-40000J0D01*
G01*
X1410000Y-1850000D02*
G75*
G02*
X1490000Y-1850000I40000J0D01*
G01*
X1410000Y-2010000D02*
X1490000Y-2090000D01*
X1490000Y-2010000D02*
X1410000Y-2090000D01*
X1490000Y-2050000D02*
G75*
G02*
X1410000Y-2050000I-40000J0D01*
G01*
X1410000Y-2050000D02*
G75*
G02*
X1490000Y-2050000I40000J0D01*
G01*
X1410000Y-2210000D02*
X1490000Y-2290000D01*
X1490000Y-2210000D02*
X1410000Y-2290000D01*
X1490000Y-2250000D02*
G75*
G02*
X1410000Y-2250000I-40000J0D01*
G01*
X1410000Y-2250000D02*
G75*
G02*
X1490000Y-2250000I40000J0D01*
G01*
X1410000Y-2410000D02*
X1490000Y-2490000D01*
X1490000Y-2410000D02*
X1410000Y-2490000D01*
X1490000Y-2450000D02*
G75*
G02*
X1410000Y-2450000I-40000J0D01*
G01*
X1410000Y-2450000D02*
G75*
G02*
X1490000Y-2450000I40000J0D01*
G01*
X1610000Y-1610000D02*
X1690000Y-1690000D01*
X1690000Y-1610000D02*
X1610000Y-1690000D01*
X1690000Y-1650000D02*
G75*
G02*
X1610000Y-1650000I-40000J0D01*
G01*
X1610000Y-1650000D02*
G75*
G02*
X1690000Y-1650000I40000J0D01*
G01*
X1610000Y-1810000D02*
X1690000Y-1890000D01*
X1690000Y-1810000D02*
X1610000Y-1890000D01*
X1690000Y-1850000D02*
G75*
G02*
X1610000Y-1850000I-40000J0D01*
G01*
X1610000Y-1850000D02*
G75*
G02*
X1690000Y-1850000I40000J0D01*
G01*
X1610000Y-2010000D02*
X1690000Y-2090000D01*
X1690000Y-2010000D02*
X1610000Y-2090000D01*
X1690000Y-2050000D02*
G75*
G02*
X1610000Y-2050000I-40000J0D01*
G01*
X1610000Y-2050000D02*
G75*
G02*
X1690000Y-2050000I40000J0D01*
G01*
X1610000Y-2210000D02*
X1690000Y-2290000D01*
X1690000Y-2210000D02*
X1610000Y-2290000D01*
X1690000Y-2250000D02*
G75*
G02*
X1610000Y-2250000I-40000J0D01*
G01*
X1610000Y-2250000D02*
G75*
G02*
X1690000Y-2250000I40000J0D01*
G01*
X1610000Y-2410000D02*
X1690000Y-2490000D01*
X1690000Y-2410000D02*
X1610000Y-2490000D01*
X1690000Y-2450000D02*
G75*
G02*
X1610000Y-2450000I-40000J0D01*
G01*
X1610000Y-2450000D02*
G75*
G02*
X1690000Y-2450000I40000J0D01*
G01*
X5246000Y-1950000D02*
X5346000Y-2050000D01*
X5346000Y-1950000D02*
X5246000Y-2050000D01*
X5296000Y-1950000D02*
X5296000Y-2050000D01*
X5246000Y-2000000D02*
X5346000Y-2000000D01*
X5500000Y-1950000D02*
X5600000Y-2050000D01*
X5600000Y-1950000D02*
X5500000Y-2050000D01*
X5550000Y-1950000D02*
X5550000Y-2050000D01*
X5500000Y-2000000D02*
X5600000Y-2000000D01*
X5754000Y-1950000D02*
X5854000Y-2050000D01*
X5854000Y-1950000D02*
X5754000Y-2050000D01*
X5804000Y-1950000D02*
X5804000Y-2050000D01*
X5754000Y-2000000D02*
X5854000Y-2000000D01*
X2326000Y-5697500D02*
X2426000Y-5797500D01*
X2426000Y-5697500D02*
X2326000Y-5797500D01*
X2411356Y-5782856D02*
X2411356Y-5712144D01*
X2340644Y-5712144D01*
X2340644Y-5782856D01*
X2411356Y-5782856D01*
X2580000Y-5697500D02*
X2680000Y-5797500D01*
X2680000Y-5697500D02*
X2580000Y-5797500D01*
X2665356Y-5782856D02*
X2665356Y-5712144D01*
X2594644Y-5712144D01*
X2594644Y-5782856D01*
X2665356Y-5782856D01*
X2834000Y-5697500D02*
X2934000Y-5797500D01*
X2934000Y-5697500D02*
X2834000Y-5797500D01*
X2919356Y-5782856D02*
X2919356Y-5712144D01*
X2848644Y-5712144D01*
X2848644Y-5782856D01*
X2919356Y-5782856D01*
X3088000Y-5697500D02*
X3188000Y-5797500D01*
X3188000Y-5697500D02*
X3088000Y-5797500D01*
X3173356Y-5782856D02*
X3173356Y-5712144D01*
X3102644Y-5712144D01*
X3102644Y-5782856D01*
X3173356Y-5782856D01*
X3342000Y-5697500D02*
X3442000Y-5797500D01*
X3442000Y-5697500D02*
X3342000Y-5797500D01*
X3427356Y-5782856D02*
X3427356Y-5712144D01*
X3356644Y-5712144D01*
X3356644Y-5782856D01*
X3427356Y-5782856D01*
X3596000Y-5697500D02*
X3696000Y-5797500D01*
X3696000Y-5697500D02*
X3596000Y-5797500D01*
X3681356Y-5782856D02*
X3681356Y-5712144D01*
X3610644Y-5712144D01*
X3610644Y-5782856D01*
X3681356Y-5782856D01*
X3850000Y-5697500D02*
X3950000Y-5797500D01*
X3950000Y-5697500D02*
X3850000Y-5797500D01*
X3935356Y-5782856D02*
X3935356Y-5712144D01*
X3864644Y-5712144D01*
X3864644Y-5782856D01*
X3935356Y-5782856D01*
X4345000Y-5700000D02*
X4445000Y-5800000D01*
X4445000Y-5700000D02*
X4345000Y-5800000D01*
X4430356Y-5785356D02*
X4430356Y-5714644D01*
X4359644Y-5714644D01*
X4359644Y-5785356D01*
X4430356Y-5785356D01*
X4599000Y-5700000D02*
X4699000Y-5800000D01*
X4699000Y-5700000D02*
X4599000Y-5800000D01*
X4684356Y-5785356D02*
X4684356Y-5714644D01*
X4613644Y-5714644D01*
X4613644Y-5785356D01*
X4684356Y-5785356D01*
X4853000Y-5700000D02*
X4953000Y-5800000D01*
X4953000Y-5700000D02*
X4853000Y-5800000D01*
X4938356Y-5785356D02*
X4938356Y-5714644D01*
X4867644Y-5714644D01*
X4867644Y-5785356D01*
X4938356Y-5785356D01*
X5107000Y-5700000D02*
X5207000Y-5800000D01*
X5207000Y-5700000D02*
X5107000Y-5800000D01*
X5192356Y-5785356D02*
X5192356Y-5714644D01*
X5121644Y-5714644D01*
X5121644Y-5785356D01*
X5192356Y-5785356D01*
X5361000Y-5700000D02*
X5461000Y-5800000D01*
X5461000Y-5700000D02*
X5361000Y-5800000D01*
X5446356Y-5785356D02*
X5446356Y-5714644D01*
X5375644Y-5714644D01*
X5375644Y-5785356D01*
X5446356Y-5785356D01*
D13*
X5480000Y-2818000D02*
X5620000Y-2958000D01*
X5620000Y-2818000D02*
X5480000Y-2958000D01*
X5550000Y-2958000D02*
X5620000Y-2888000D01*
X5550000Y-2818000D01*
X5480000Y-2888000D01*
X5550000Y-2958000D01*
X5480000Y-3199000D02*
X5620000Y-3339000D01*
X5620000Y-3199000D02*
X5480000Y-3339000D01*
X5550000Y-3339000D02*
X5620000Y-3269000D01*
X5550000Y-3199000D01*
X5480000Y-3269000D01*
X5550000Y-3339000D01*
X5480000Y-3580000D02*
X5620000Y-3720000D01*
X5620000Y-3580000D02*
X5480000Y-3720000D01*
X5550000Y-3720000D02*
X5620000Y-3650000D01*
X5550000Y-3580000D01*
X5480000Y-3650000D01*
X5550000Y-3720000D01*
X5480000Y-3961000D02*
X5620000Y-4101000D01*
X5620000Y-3961000D02*
X5480000Y-4101000D01*
X5550000Y-4101000D02*
X5620000Y-4031000D01*
X5550000Y-3961000D01*
X5480000Y-4031000D01*
X5550000Y-4101000D01*
X5480000Y-4342000D02*
X5620000Y-4482000D01*
X5620000Y-4342000D02*
X5480000Y-4482000D01*
X5550000Y-4482000D02*
X5620000Y-4412000D01*
X5550000Y-4342000D01*
X5480000Y-4412000D01*
X5550000Y-4482000D01*
D11*
X1458277Y-6313984D02*
X1458277Y-6113984D01*
X1458277Y-6113984D02*
X1505896Y-6113984D01*
X1505896Y-6113984D02*
X1534467Y-6123508D01*
X1534467Y-6123508D02*
X1553515Y-6142555D01*
X1553515Y-6142555D02*
X1563039Y-6161603D01*
X1563039Y-6161603D02*
X1572562Y-6199698D01*
X1572562Y-6199698D02*
X1572562Y-6228269D01*
X1572562Y-6228269D02*
X1563039Y-6266365D01*
X1563039Y-6266365D02*
X1553515Y-6285412D01*
X1553515Y-6285412D02*
X1534467Y-6304460D01*
X1534467Y-6304460D02*
X1505896Y-6313984D01*
X1505896Y-6313984D02*
X1458277Y-6313984D01*
X1658277Y-6313984D02*
X1658277Y-6180650D01*
X1658277Y-6218746D02*
X1667801Y-6199698D01*
X1667801Y-6199698D02*
X1677324Y-6190174D01*
X1677324Y-6190174D02*
X1696372Y-6180650D01*
X1696372Y-6180650D02*
X1715420Y-6180650D01*
X1782086Y-6313984D02*
X1782086Y-6180650D01*
X1782086Y-6113984D02*
X1772562Y-6123508D01*
X1772562Y-6123508D02*
X1782086Y-6133031D01*
X1782086Y-6133031D02*
X1791610Y-6123508D01*
X1791610Y-6123508D02*
X1782086Y-6113984D01*
X1782086Y-6113984D02*
X1782086Y-6133031D01*
X1905896Y-6313984D02*
X1886848Y-6304460D01*
X1886848Y-6304460D02*
X1877324Y-6285412D01*
X1877324Y-6285412D02*
X1877324Y-6113984D01*
X2010658Y-6313984D02*
X1991610Y-6304460D01*
X1991610Y-6304460D02*
X1982086Y-6285412D01*
X1982086Y-6285412D02*
X1982086Y-6113984D01*
X2239229Y-6313984D02*
X2239229Y-6113984D01*
X2239229Y-6113984D02*
X2305896Y-6256841D01*
X2305896Y-6256841D02*
X2372563Y-6113984D01*
X2372563Y-6113984D02*
X2372563Y-6313984D01*
X2553515Y-6313984D02*
X2553515Y-6209222D01*
X2553515Y-6209222D02*
X2543991Y-6190174D01*
X2543991Y-6190174D02*
X2524944Y-6180650D01*
X2524944Y-6180650D02*
X2486848Y-6180650D01*
X2486848Y-6180650D02*
X2467801Y-6190174D01*
X2553515Y-6304460D02*
X2534467Y-6313984D01*
X2534467Y-6313984D02*
X2486848Y-6313984D01*
X2486848Y-6313984D02*
X2467801Y-6304460D01*
X2467801Y-6304460D02*
X2458277Y-6285412D01*
X2458277Y-6285412D02*
X2458277Y-6266365D01*
X2458277Y-6266365D02*
X2467801Y-6247317D01*
X2467801Y-6247317D02*
X2486848Y-6237793D01*
X2486848Y-6237793D02*
X2534467Y-6237793D01*
X2534467Y-6237793D02*
X2553515Y-6228269D01*
X2648753Y-6180650D02*
X2648753Y-6380650D01*
X2648753Y-6190174D02*
X2667801Y-6180650D01*
X2667801Y-6180650D02*
X2705896Y-6180650D01*
X2705896Y-6180650D02*
X2724944Y-6190174D01*
X2724944Y-6190174D02*
X2734467Y-6199698D01*
X2734467Y-6199698D02*
X2743991Y-6218746D01*
X2743991Y-6218746D02*
X2743991Y-6275888D01*
X2743991Y-6275888D02*
X2734467Y-6294936D01*
X2734467Y-6294936D02*
X2724944Y-6304460D01*
X2724944Y-6304460D02*
X2705896Y-6313984D01*
X2705896Y-6313984D02*
X2667801Y-6313984D01*
X2667801Y-6313984D02*
X2648753Y-6304460D01*
X2829705Y-6294936D02*
X2839229Y-6304460D01*
X2839229Y-6304460D02*
X2829705Y-6313984D01*
X2829705Y-6313984D02*
X2820182Y-6304460D01*
X2820182Y-6304460D02*
X2829705Y-6294936D01*
X2829705Y-6294936D02*
X2829705Y-6313984D01*
X2829705Y-6190174D02*
X2839229Y-6199698D01*
X2839229Y-6199698D02*
X2829705Y-6209222D01*
X2829705Y-6209222D02*
X2820182Y-6199698D01*
X2820182Y-6199698D02*
X2829705Y-6190174D01*
X2829705Y-6190174D02*
X2829705Y-6209222D01*
D12*
X1167500Y-6627500D02*
X1197500Y-6657500D01*
X1197500Y-6627500D02*
X1167500Y-6657500D01*
D11*
X1496372Y-6533984D02*
X1515420Y-6533984D01*
X1515420Y-6533984D02*
X1534467Y-6543508D01*
X1534467Y-6543508D02*
X1543991Y-6553031D01*
X1543991Y-6553031D02*
X1553515Y-6572079D01*
X1553515Y-6572079D02*
X1563039Y-6610174D01*
X1563039Y-6610174D02*
X1563039Y-6657793D01*
X1563039Y-6657793D02*
X1553515Y-6695888D01*
X1553515Y-6695888D02*
X1543991Y-6714936D01*
X1543991Y-6714936D02*
X1534467Y-6724460D01*
X1534467Y-6724460D02*
X1515420Y-6733984D01*
X1515420Y-6733984D02*
X1496372Y-6733984D01*
X1496372Y-6733984D02*
X1477324Y-6724460D01*
X1477324Y-6724460D02*
X1467801Y-6714936D01*
X1467801Y-6714936D02*
X1458277Y-6695888D01*
X1458277Y-6695888D02*
X1448753Y-6657793D01*
X1448753Y-6657793D02*
X1448753Y-6610174D01*
X1448753Y-6610174D02*
X1458277Y-6572079D01*
X1458277Y-6572079D02*
X1467801Y-6553031D01*
X1467801Y-6553031D02*
X1477324Y-6543508D01*
X1477324Y-6543508D02*
X1496372Y-6533984D01*
X1648753Y-6714936D02*
X1658277Y-6724460D01*
X1658277Y-6724460D02*
X1648753Y-6733984D01*
X1648753Y-6733984D02*
X1639229Y-6724460D01*
X1639229Y-6724460D02*
X1648753Y-6714936D01*
X1648753Y-6714936D02*
X1648753Y-6733984D01*
X1724943Y-6533984D02*
X1848753Y-6533984D01*
X1848753Y-6533984D02*
X1782086Y-6610174D01*
X1782086Y-6610174D02*
X1810658Y-6610174D01*
X1810658Y-6610174D02*
X1829705Y-6619698D01*
X1829705Y-6619698D02*
X1839229Y-6629222D01*
X1839229Y-6629222D02*
X1848753Y-6648269D01*
X1848753Y-6648269D02*
X1848753Y-6695888D01*
X1848753Y-6695888D02*
X1839229Y-6714936D01*
X1839229Y-6714936D02*
X1829705Y-6724460D01*
X1829705Y-6724460D02*
X1810658Y-6733984D01*
X1810658Y-6733984D02*
X1753515Y-6733984D01*
X1753515Y-6733984D02*
X1734467Y-6724460D01*
X1734467Y-6724460D02*
X1724943Y-6714936D01*
X1972562Y-6533984D02*
X1991610Y-6533984D01*
X1991610Y-6533984D02*
X2010658Y-6543508D01*
X2010658Y-6543508D02*
X2020182Y-6553031D01*
X2020182Y-6553031D02*
X2029705Y-6572079D01*
X2029705Y-6572079D02*
X2039229Y-6610174D01*
X2039229Y-6610174D02*
X2039229Y-6657793D01*
X2039229Y-6657793D02*
X2029705Y-6695888D01*
X2029705Y-6695888D02*
X2020182Y-6714936D01*
X2020182Y-6714936D02*
X2010658Y-6724460D01*
X2010658Y-6724460D02*
X1991610Y-6733984D01*
X1991610Y-6733984D02*
X1972562Y-6733984D01*
X1972562Y-6733984D02*
X1953515Y-6724460D01*
X1953515Y-6724460D02*
X1943991Y-6714936D01*
X1943991Y-6714936D02*
X1934467Y-6695888D01*
X1934467Y-6695888D02*
X1924943Y-6657793D01*
X1924943Y-6657793D02*
X1924943Y-6610174D01*
X1924943Y-6610174D02*
X1934467Y-6572079D01*
X1934467Y-6572079D02*
X1943991Y-6553031D01*
X1943991Y-6553031D02*
X1953515Y-6543508D01*
X1953515Y-6543508D02*
X1972562Y-6533984D01*
X2163039Y-6533984D02*
X2182086Y-6533984D01*
X2182086Y-6533984D02*
X2201134Y-6543508D01*
X2201134Y-6543508D02*
X2210658Y-6553031D01*
X2210658Y-6553031D02*
X2220182Y-6572079D01*
X2220182Y-6572079D02*
X2229705Y-6610174D01*
X2229705Y-6610174D02*
X2229705Y-6657793D01*
X2229705Y-6657793D02*
X2220182Y-6695888D01*
X2220182Y-6695888D02*
X2210658Y-6714936D01*
X2210658Y-6714936D02*
X2201134Y-6724460D01*
X2201134Y-6724460D02*
X2182086Y-6733984D01*
X2182086Y-6733984D02*
X2163039Y-6733984D01*
X2163039Y-6733984D02*
X2143991Y-6724460D01*
X2143991Y-6724460D02*
X2134467Y-6714936D01*
X2134467Y-6714936D02*
X2124944Y-6695888D01*
X2124944Y-6695888D02*
X2115420Y-6657793D01*
X2115420Y-6657793D02*
X2115420Y-6610174D01*
X2115420Y-6610174D02*
X2124944Y-6572079D01*
X2124944Y-6572079D02*
X2134467Y-6553031D01*
X2134467Y-6553031D02*
X2143991Y-6543508D01*
X2143991Y-6543508D02*
X2163039Y-6533984D01*
X2315420Y-6733984D02*
X2315420Y-6600650D01*
X2315420Y-6619698D02*
X2324944Y-6610174D01*
X2324944Y-6610174D02*
X2343991Y-6600650D01*
X2343991Y-6600650D02*
X2372563Y-6600650D01*
X2372563Y-6600650D02*
X2391610Y-6610174D01*
X2391610Y-6610174D02*
X2401134Y-6629222D01*
X2401134Y-6629222D02*
X2401134Y-6733984D01*
X2401134Y-6629222D02*
X2410658Y-6610174D01*
X2410658Y-6610174D02*
X2429705Y-6600650D01*
X2429705Y-6600650D02*
X2458277Y-6600650D01*
X2458277Y-6600650D02*
X2477325Y-6610174D01*
X2477325Y-6610174D02*
X2486848Y-6629222D01*
X2486848Y-6629222D02*
X2486848Y-6733984D01*
X2582086Y-6733984D02*
X2582086Y-6600650D01*
X2582086Y-6619698D02*
X2591610Y-6610174D01*
X2591610Y-6610174D02*
X2610658Y-6600650D01*
X2610658Y-6600650D02*
X2639229Y-6600650D01*
X2639229Y-6600650D02*
X2658277Y-6610174D01*
X2658277Y-6610174D02*
X2667801Y-6629222D01*
X2667801Y-6629222D02*
X2667801Y-6733984D01*
X2667801Y-6629222D02*
X2677325Y-6610174D01*
X2677325Y-6610174D02*
X2696372Y-6600650D01*
X2696372Y-6600650D02*
X2724944Y-6600650D01*
X2724944Y-6600650D02*
X2743991Y-6610174D01*
X2743991Y-6610174D02*
X2753515Y-6629222D01*
X2753515Y-6629222D02*
X2753515Y-6733984D01*
X3143991Y-6524460D02*
X2972563Y-6781603D01*
X3401134Y-6533984D02*
X3420182Y-6533984D01*
X3420182Y-6533984D02*
X3439229Y-6543508D01*
X3439229Y-6543508D02*
X3448753Y-6553031D01*
X3448753Y-6553031D02*
X3458277Y-6572079D01*
X3458277Y-6572079D02*
X3467801Y-6610174D01*
X3467801Y-6610174D02*
X3467801Y-6657793D01*
X3467801Y-6657793D02*
X3458277Y-6695888D01*
X3458277Y-6695888D02*
X3448753Y-6714936D01*
X3448753Y-6714936D02*
X3439229Y-6724460D01*
X3439229Y-6724460D02*
X3420182Y-6733984D01*
X3420182Y-6733984D02*
X3401134Y-6733984D01*
X3401134Y-6733984D02*
X3382086Y-6724460D01*
X3382086Y-6724460D02*
X3372563Y-6714936D01*
X3372563Y-6714936D02*
X3363039Y-6695888D01*
X3363039Y-6695888D02*
X3353515Y-6657793D01*
X3353515Y-6657793D02*
X3353515Y-6610174D01*
X3353515Y-6610174D02*
X3363039Y-6572079D01*
X3363039Y-6572079D02*
X3372563Y-6553031D01*
X3372563Y-6553031D02*
X3382086Y-6543508D01*
X3382086Y-6543508D02*
X3401134Y-6533984D01*
X3553515Y-6714936D02*
X3563039Y-6724460D01*
X3563039Y-6724460D02*
X3553515Y-6733984D01*
X3553515Y-6733984D02*
X3543991Y-6724460D01*
X3543991Y-6724460D02*
X3553515Y-6714936D01*
X3553515Y-6714936D02*
X3553515Y-6733984D01*
X3686848Y-6533984D02*
X3705896Y-6533984D01*
X3705896Y-6533984D02*
X3724944Y-6543508D01*
X3724944Y-6543508D02*
X3734467Y-6553031D01*
X3734467Y-6553031D02*
X3743991Y-6572079D01*
X3743991Y-6572079D02*
X3753515Y-6610174D01*
X3753515Y-6610174D02*
X3753515Y-6657793D01*
X3753515Y-6657793D02*
X3743991Y-6695888D01*
X3743991Y-6695888D02*
X3734467Y-6714936D01*
X3734467Y-6714936D02*
X3724944Y-6724460D01*
X3724944Y-6724460D02*
X3705896Y-6733984D01*
X3705896Y-6733984D02*
X3686848Y-6733984D01*
X3686848Y-6733984D02*
X3667801Y-6724460D01*
X3667801Y-6724460D02*
X3658277Y-6714936D01*
X3658277Y-6714936D02*
X3648753Y-6695888D01*
X3648753Y-6695888D02*
X3639229Y-6657793D01*
X3639229Y-6657793D02*
X3639229Y-6610174D01*
X3639229Y-6610174D02*
X3648753Y-6572079D01*
X3648753Y-6572079D02*
X3658277Y-6553031D01*
X3658277Y-6553031D02*
X3667801Y-6543508D01*
X3667801Y-6543508D02*
X3686848Y-6533984D01*
X3943991Y-6733984D02*
X3829706Y-6733984D01*
X3886848Y-6733984D02*
X3886848Y-6533984D01*
X3886848Y-6533984D02*
X3867801Y-6562555D01*
X3867801Y-6562555D02*
X3848753Y-6581603D01*
X3848753Y-6581603D02*
X3829706Y-6591127D01*
X4134467Y-6733984D02*
X4020182Y-6733984D01*
X4077325Y-6733984D02*
X4077325Y-6533984D01*
X4077325Y-6533984D02*
X4058277Y-6562555D01*
X4058277Y-6562555D02*
X4039229Y-6581603D01*
X4039229Y-6581603D02*
X4020182Y-6591127D01*
X4248753Y-6619698D02*
X4229706Y-6610174D01*
X4229706Y-6610174D02*
X4220182Y-6600650D01*
X4220182Y-6600650D02*
X4210658Y-6581603D01*
X4210658Y-6581603D02*
X4210658Y-6572079D01*
X4210658Y-6572079D02*
X4220182Y-6553031D01*
X4220182Y-6553031D02*
X4229706Y-6543508D01*
X4229706Y-6543508D02*
X4248753Y-6533984D01*
X4248753Y-6533984D02*
X4286849Y-6533984D01*
X4286849Y-6533984D02*
X4305896Y-6543508D01*
X4305896Y-6543508D02*
X4315420Y-6553031D01*
X4315420Y-6553031D02*
X4324944Y-6572079D01*
X4324944Y-6572079D02*
X4324944Y-6581603D01*
X4324944Y-6581603D02*
X4315420Y-6600650D01*
X4315420Y-6600650D02*
X4305896Y-6610174D01*
X4305896Y-6610174D02*
X4286849Y-6619698D01*
X4286849Y-6619698D02*
X4248753Y-6619698D01*
X4248753Y-6619698D02*
X4229706Y-6629222D01*
X4229706Y-6629222D02*
X4220182Y-6638746D01*
X4220182Y-6638746D02*
X4210658Y-6657793D01*
X4210658Y-6657793D02*
X4210658Y-6695888D01*
X4210658Y-6695888D02*
X4220182Y-6714936D01*
X4220182Y-6714936D02*
X4229706Y-6724460D01*
X4229706Y-6724460D02*
X4248753Y-6733984D01*
X4248753Y-6733984D02*
X4286849Y-6733984D01*
X4286849Y-6733984D02*
X4305896Y-6724460D01*
X4305896Y-6724460D02*
X4315420Y-6714936D01*
X4315420Y-6714936D02*
X4324944Y-6695888D01*
X4324944Y-6695888D02*
X4324944Y-6657793D01*
X4324944Y-6657793D02*
X4315420Y-6638746D01*
X4315420Y-6638746D02*
X4305896Y-6629222D01*
X4305896Y-6629222D02*
X4286849Y-6619698D01*
X4401134Y-6533984D02*
X4401134Y-6572079D01*
X4477325Y-6533984D02*
X4477325Y-6572079D01*
X4772563Y-6810174D02*
X4763039Y-6800650D01*
X4763039Y-6800650D02*
X4743991Y-6772079D01*
X4743991Y-6772079D02*
X4734468Y-6753031D01*
X4734468Y-6753031D02*
X4724944Y-6724460D01*
X4724944Y-6724460D02*
X4715420Y-6676841D01*
X4715420Y-6676841D02*
X4715420Y-6638746D01*
X4715420Y-6638746D02*
X4724944Y-6591127D01*
X4724944Y-6591127D02*
X4734468Y-6562555D01*
X4734468Y-6562555D02*
X4743991Y-6543508D01*
X4743991Y-6543508D02*
X4763039Y-6514936D01*
X4763039Y-6514936D02*
X4772563Y-6505412D01*
X4953515Y-6733984D02*
X4839230Y-6733984D01*
X4896372Y-6733984D02*
X4896372Y-6533984D01*
X4896372Y-6533984D02*
X4877325Y-6562555D01*
X4877325Y-6562555D02*
X4858277Y-6581603D01*
X4858277Y-6581603D02*
X4839230Y-6591127D01*
X5143991Y-6733984D02*
X5029706Y-6733984D01*
X5086849Y-6733984D02*
X5086849Y-6533984D01*
X5086849Y-6533984D02*
X5067801Y-6562555D01*
X5067801Y-6562555D02*
X5048753Y-6581603D01*
X5048753Y-6581603D02*
X5029706Y-6591127D01*
X5315420Y-6600650D02*
X5315420Y-6733984D01*
X5267801Y-6524460D02*
X5220182Y-6667317D01*
X5220182Y-6667317D02*
X5343991Y-6667317D01*
X5572563Y-6733984D02*
X5572563Y-6533984D01*
X5658277Y-6733984D02*
X5658277Y-6629222D01*
X5658277Y-6629222D02*
X5648753Y-6610174D01*
X5648753Y-6610174D02*
X5629706Y-6600650D01*
X5629706Y-6600650D02*
X5601134Y-6600650D01*
X5601134Y-6600650D02*
X5582087Y-6610174D01*
X5582087Y-6610174D02*
X5572563Y-6619698D01*
X5782087Y-6733984D02*
X5763039Y-6724460D01*
X5763039Y-6724460D02*
X5753515Y-6714936D01*
X5753515Y-6714936D02*
X5743991Y-6695888D01*
X5743991Y-6695888D02*
X5743991Y-6638746D01*
X5743991Y-6638746D02*
X5753515Y-6619698D01*
X5753515Y-6619698D02*
X5763039Y-6610174D01*
X5763039Y-6610174D02*
X5782087Y-6600650D01*
X5782087Y-6600650D02*
X5810658Y-6600650D01*
X5810658Y-6600650D02*
X5829706Y-6610174D01*
X5829706Y-6610174D02*
X5839230Y-6619698D01*
X5839230Y-6619698D02*
X5848753Y-6638746D01*
X5848753Y-6638746D02*
X5848753Y-6695888D01*
X5848753Y-6695888D02*
X5839230Y-6714936D01*
X5839230Y-6714936D02*
X5829706Y-6724460D01*
X5829706Y-6724460D02*
X5810658Y-6733984D01*
X5810658Y-6733984D02*
X5782087Y-6733984D01*
X5963039Y-6733984D02*
X5943991Y-6724460D01*
X5943991Y-6724460D02*
X5934468Y-6705412D01*
X5934468Y-6705412D02*
X5934468Y-6533984D01*
X6115420Y-6724460D02*
X6096372Y-6733984D01*
X6096372Y-6733984D02*
X6058277Y-6733984D01*
X6058277Y-6733984D02*
X6039230Y-6724460D01*
X6039230Y-6724460D02*
X6029706Y-6705412D01*
X6029706Y-6705412D02*
X6029706Y-6629222D01*
X6029706Y-6629222D02*
X6039230Y-6610174D01*
X6039230Y-6610174D02*
X6058277Y-6600650D01*
X6058277Y-6600650D02*
X6096372Y-6600650D01*
X6096372Y-6600650D02*
X6115420Y-6610174D01*
X6115420Y-6610174D02*
X6124944Y-6629222D01*
X6124944Y-6629222D02*
X6124944Y-6648269D01*
X6124944Y-6648269D02*
X6029706Y-6667317D01*
X6201134Y-6724460D02*
X6220182Y-6733984D01*
X6220182Y-6733984D02*
X6258277Y-6733984D01*
X6258277Y-6733984D02*
X6277325Y-6724460D01*
X6277325Y-6724460D02*
X6286849Y-6705412D01*
X6286849Y-6705412D02*
X6286849Y-6695888D01*
X6286849Y-6695888D02*
X6277325Y-6676841D01*
X6277325Y-6676841D02*
X6258277Y-6667317D01*
X6258277Y-6667317D02*
X6229706Y-6667317D01*
X6229706Y-6667317D02*
X6210658Y-6657793D01*
X6210658Y-6657793D02*
X6201134Y-6638746D01*
X6201134Y-6638746D02*
X6201134Y-6629222D01*
X6201134Y-6629222D02*
X6210658Y-6610174D01*
X6210658Y-6610174D02*
X6229706Y-6600650D01*
X6229706Y-6600650D02*
X6258277Y-6600650D01*
X6258277Y-6600650D02*
X6277325Y-6610174D01*
X6353515Y-6810174D02*
X6363039Y-6800650D01*
X6363039Y-6800650D02*
X6382087Y-6772079D01*
X6382087Y-6772079D02*
X6391611Y-6753031D01*
X6391611Y-6753031D02*
X6401134Y-6724460D01*
X6401134Y-6724460D02*
X6410658Y-6676841D01*
X6410658Y-6676841D02*
X6410658Y-6638746D01*
X6410658Y-6638746D02*
X6401134Y-6591127D01*
X6401134Y-6591127D02*
X6391611Y-6562555D01*
X6391611Y-6562555D02*
X6382087Y-6543508D01*
X6382087Y-6543508D02*
X6363039Y-6514936D01*
X6363039Y-6514936D02*
X6353515Y-6505412D01*
D12*
X1197500Y-6906500D02*
G75*
G02*
X1127500Y-6906500I-35000J0D01*
G01*
X1127500Y-6906500D02*
G75*
G02*
X1197500Y-6906500I35000J0D01*
G01*
D11*
X1496372Y-6797984D02*
X1515420Y-6797984D01*
X1515420Y-6797984D02*
X1534467Y-6807508D01*
X1534467Y-6807508D02*
X1543991Y-6817031D01*
X1543991Y-6817031D02*
X1553515Y-6836079D01*
X1553515Y-6836079D02*
X1563039Y-6874174D01*
X1563039Y-6874174D02*
X1563039Y-6921793D01*
X1563039Y-6921793D02*
X1553515Y-6959888D01*
X1553515Y-6959888D02*
X1543991Y-6978936D01*
X1543991Y-6978936D02*
X1534467Y-6988460D01*
X1534467Y-6988460D02*
X1515420Y-6997984D01*
X1515420Y-6997984D02*
X1496372Y-6997984D01*
X1496372Y-6997984D02*
X1477324Y-6988460D01*
X1477324Y-6988460D02*
X1467801Y-6978936D01*
X1467801Y-6978936D02*
X1458277Y-6959888D01*
X1458277Y-6959888D02*
X1448753Y-6921793D01*
X1448753Y-6921793D02*
X1448753Y-6874174D01*
X1448753Y-6874174D02*
X1458277Y-6836079D01*
X1458277Y-6836079D02*
X1467801Y-6817031D01*
X1467801Y-6817031D02*
X1477324Y-6807508D01*
X1477324Y-6807508D02*
X1496372Y-6797984D01*
X1648753Y-6978936D02*
X1658277Y-6988460D01*
X1658277Y-6988460D02*
X1648753Y-6997984D01*
X1648753Y-6997984D02*
X1639229Y-6988460D01*
X1639229Y-6988460D02*
X1648753Y-6978936D01*
X1648753Y-6978936D02*
X1648753Y-6997984D01*
X1724943Y-6797984D02*
X1858277Y-6797984D01*
X1858277Y-6797984D02*
X1772562Y-6997984D01*
X1972562Y-6797984D02*
X1991610Y-6797984D01*
X1991610Y-6797984D02*
X2010658Y-6807508D01*
X2010658Y-6807508D02*
X2020182Y-6817031D01*
X2020182Y-6817031D02*
X2029705Y-6836079D01*
X2029705Y-6836079D02*
X2039229Y-6874174D01*
X2039229Y-6874174D02*
X2039229Y-6921793D01*
X2039229Y-6921793D02*
X2029705Y-6959888D01*
X2029705Y-6959888D02*
X2020182Y-6978936D01*
X2020182Y-6978936D02*
X2010658Y-6988460D01*
X2010658Y-6988460D02*
X1991610Y-6997984D01*
X1991610Y-6997984D02*
X1972562Y-6997984D01*
X1972562Y-6997984D02*
X1953515Y-6988460D01*
X1953515Y-6988460D02*
X1943991Y-6978936D01*
X1943991Y-6978936D02*
X1934467Y-6959888D01*
X1934467Y-6959888D02*
X1924943Y-6921793D01*
X1924943Y-6921793D02*
X1924943Y-6874174D01*
X1924943Y-6874174D02*
X1934467Y-6836079D01*
X1934467Y-6836079D02*
X1943991Y-6817031D01*
X1943991Y-6817031D02*
X1953515Y-6807508D01*
X1953515Y-6807508D02*
X1972562Y-6797984D01*
X2163039Y-6797984D02*
X2182086Y-6797984D01*
X2182086Y-6797984D02*
X2201134Y-6807508D01*
X2201134Y-6807508D02*
X2210658Y-6817031D01*
X2210658Y-6817031D02*
X2220182Y-6836079D01*
X2220182Y-6836079D02*
X2229705Y-6874174D01*
X2229705Y-6874174D02*
X2229705Y-6921793D01*
X2229705Y-6921793D02*
X2220182Y-6959888D01*
X2220182Y-6959888D02*
X2210658Y-6978936D01*
X2210658Y-6978936D02*
X2201134Y-6988460D01*
X2201134Y-6988460D02*
X2182086Y-6997984D01*
X2182086Y-6997984D02*
X2163039Y-6997984D01*
X2163039Y-6997984D02*
X2143991Y-6988460D01*
X2143991Y-6988460D02*
X2134467Y-6978936D01*
X2134467Y-6978936D02*
X2124944Y-6959888D01*
X2124944Y-6959888D02*
X2115420Y-6921793D01*
X2115420Y-6921793D02*
X2115420Y-6874174D01*
X2115420Y-6874174D02*
X2124944Y-6836079D01*
X2124944Y-6836079D02*
X2134467Y-6817031D01*
X2134467Y-6817031D02*
X2143991Y-6807508D01*
X2143991Y-6807508D02*
X2163039Y-6797984D01*
X2315420Y-6997984D02*
X2315420Y-6864650D01*
X2315420Y-6883698D02*
X2324944Y-6874174D01*
X2324944Y-6874174D02*
X2343991Y-6864650D01*
X2343991Y-6864650D02*
X2372563Y-6864650D01*
X2372563Y-6864650D02*
X2391610Y-6874174D01*
X2391610Y-6874174D02*
X2401134Y-6893222D01*
X2401134Y-6893222D02*
X2401134Y-6997984D01*
X2401134Y-6893222D02*
X2410658Y-6874174D01*
X2410658Y-6874174D02*
X2429705Y-6864650D01*
X2429705Y-6864650D02*
X2458277Y-6864650D01*
X2458277Y-6864650D02*
X2477325Y-6874174D01*
X2477325Y-6874174D02*
X2486848Y-6893222D01*
X2486848Y-6893222D02*
X2486848Y-6997984D01*
X2582086Y-6997984D02*
X2582086Y-6864650D01*
X2582086Y-6883698D02*
X2591610Y-6874174D01*
X2591610Y-6874174D02*
X2610658Y-6864650D01*
X2610658Y-6864650D02*
X2639229Y-6864650D01*
X2639229Y-6864650D02*
X2658277Y-6874174D01*
X2658277Y-6874174D02*
X2667801Y-6893222D01*
X2667801Y-6893222D02*
X2667801Y-6997984D01*
X2667801Y-6893222D02*
X2677325Y-6874174D01*
X2677325Y-6874174D02*
X2696372Y-6864650D01*
X2696372Y-6864650D02*
X2724944Y-6864650D01*
X2724944Y-6864650D02*
X2743991Y-6874174D01*
X2743991Y-6874174D02*
X2753515Y-6893222D01*
X2753515Y-6893222D02*
X2753515Y-6997984D01*
X3143991Y-6788460D02*
X2972563Y-7045603D01*
X3401134Y-6797984D02*
X3420182Y-6797984D01*
X3420182Y-6797984D02*
X3439229Y-6807508D01*
X3439229Y-6807508D02*
X3448753Y-6817031D01*
X3448753Y-6817031D02*
X3458277Y-6836079D01*
X3458277Y-6836079D02*
X3467801Y-6874174D01*
X3467801Y-6874174D02*
X3467801Y-6921793D01*
X3467801Y-6921793D02*
X3458277Y-6959888D01*
X3458277Y-6959888D02*
X3448753Y-6978936D01*
X3448753Y-6978936D02*
X3439229Y-6988460D01*
X3439229Y-6988460D02*
X3420182Y-6997984D01*
X3420182Y-6997984D02*
X3401134Y-6997984D01*
X3401134Y-6997984D02*
X3382086Y-6988460D01*
X3382086Y-6988460D02*
X3372563Y-6978936D01*
X3372563Y-6978936D02*
X3363039Y-6959888D01*
X3363039Y-6959888D02*
X3353515Y-6921793D01*
X3353515Y-6921793D02*
X3353515Y-6874174D01*
X3353515Y-6874174D02*
X3363039Y-6836079D01*
X3363039Y-6836079D02*
X3372563Y-6817031D01*
X3372563Y-6817031D02*
X3382086Y-6807508D01*
X3382086Y-6807508D02*
X3401134Y-6797984D01*
X3553515Y-6978936D02*
X3563039Y-6988460D01*
X3563039Y-6988460D02*
X3553515Y-6997984D01*
X3553515Y-6997984D02*
X3543991Y-6988460D01*
X3543991Y-6988460D02*
X3553515Y-6978936D01*
X3553515Y-6978936D02*
X3553515Y-6997984D01*
X3686848Y-6797984D02*
X3705896Y-6797984D01*
X3705896Y-6797984D02*
X3724944Y-6807508D01*
X3724944Y-6807508D02*
X3734467Y-6817031D01*
X3734467Y-6817031D02*
X3743991Y-6836079D01*
X3743991Y-6836079D02*
X3753515Y-6874174D01*
X3753515Y-6874174D02*
X3753515Y-6921793D01*
X3753515Y-6921793D02*
X3743991Y-6959888D01*
X3743991Y-6959888D02*
X3734467Y-6978936D01*
X3734467Y-6978936D02*
X3724944Y-6988460D01*
X3724944Y-6988460D02*
X3705896Y-6997984D01*
X3705896Y-6997984D02*
X3686848Y-6997984D01*
X3686848Y-6997984D02*
X3667801Y-6988460D01*
X3667801Y-6988460D02*
X3658277Y-6978936D01*
X3658277Y-6978936D02*
X3648753Y-6959888D01*
X3648753Y-6959888D02*
X3639229Y-6921793D01*
X3639229Y-6921793D02*
X3639229Y-6874174D01*
X3639229Y-6874174D02*
X3648753Y-6836079D01*
X3648753Y-6836079D02*
X3658277Y-6817031D01*
X3658277Y-6817031D02*
X3667801Y-6807508D01*
X3667801Y-6807508D02*
X3686848Y-6797984D01*
X3829706Y-6817031D02*
X3839229Y-6807508D01*
X3839229Y-6807508D02*
X3858277Y-6797984D01*
X3858277Y-6797984D02*
X3905896Y-6797984D01*
X3905896Y-6797984D02*
X3924944Y-6807508D01*
X3924944Y-6807508D02*
X3934467Y-6817031D01*
X3934467Y-6817031D02*
X3943991Y-6836079D01*
X3943991Y-6836079D02*
X3943991Y-6855127D01*
X3943991Y-6855127D02*
X3934467Y-6883698D01*
X3934467Y-6883698D02*
X3820182Y-6997984D01*
X3820182Y-6997984D02*
X3943991Y-6997984D01*
X4010658Y-6797984D02*
X4143991Y-6797984D01*
X4143991Y-6797984D02*
X4058277Y-6997984D01*
X4305896Y-6797984D02*
X4267801Y-6797984D01*
X4267801Y-6797984D02*
X4248753Y-6807508D01*
X4248753Y-6807508D02*
X4239229Y-6817031D01*
X4239229Y-6817031D02*
X4220182Y-6845603D01*
X4220182Y-6845603D02*
X4210658Y-6883698D01*
X4210658Y-6883698D02*
X4210658Y-6959888D01*
X4210658Y-6959888D02*
X4220182Y-6978936D01*
X4220182Y-6978936D02*
X4229706Y-6988460D01*
X4229706Y-6988460D02*
X4248753Y-6997984D01*
X4248753Y-6997984D02*
X4286849Y-6997984D01*
X4286849Y-6997984D02*
X4305896Y-6988460D01*
X4305896Y-6988460D02*
X4315420Y-6978936D01*
X4315420Y-6978936D02*
X4324944Y-6959888D01*
X4324944Y-6959888D02*
X4324944Y-6912269D01*
X4324944Y-6912269D02*
X4315420Y-6893222D01*
X4315420Y-6893222D02*
X4305896Y-6883698D01*
X4305896Y-6883698D02*
X4286849Y-6874174D01*
X4286849Y-6874174D02*
X4248753Y-6874174D01*
X4248753Y-6874174D02*
X4229706Y-6883698D01*
X4229706Y-6883698D02*
X4220182Y-6893222D01*
X4220182Y-6893222D02*
X4210658Y-6912269D01*
X4401134Y-6797984D02*
X4401134Y-6836079D01*
X4477325Y-6797984D02*
X4477325Y-6836079D01*
X4772563Y-7074174D02*
X4763039Y-7064650D01*
X4763039Y-7064650D02*
X4743991Y-7036079D01*
X4743991Y-7036079D02*
X4734468Y-7017031D01*
X4734468Y-7017031D02*
X4724944Y-6988460D01*
X4724944Y-6988460D02*
X4715420Y-6940841D01*
X4715420Y-6940841D02*
X4715420Y-6902746D01*
X4715420Y-6902746D02*
X4724944Y-6855127D01*
X4724944Y-6855127D02*
X4734468Y-6826555D01*
X4734468Y-6826555D02*
X4743991Y-6807508D01*
X4743991Y-6807508D02*
X4763039Y-6778936D01*
X4763039Y-6778936D02*
X4772563Y-6769412D01*
X4839230Y-6817031D02*
X4848753Y-6807508D01*
X4848753Y-6807508D02*
X4867801Y-6797984D01*
X4867801Y-6797984D02*
X4915420Y-6797984D01*
X4915420Y-6797984D02*
X4934468Y-6807508D01*
X4934468Y-6807508D02*
X4943991Y-6817031D01*
X4943991Y-6817031D02*
X4953515Y-6836079D01*
X4953515Y-6836079D02*
X4953515Y-6855127D01*
X4953515Y-6855127D02*
X4943991Y-6883698D01*
X4943991Y-6883698D02*
X4829706Y-6997984D01*
X4829706Y-6997984D02*
X4953515Y-6997984D01*
X5191611Y-6997984D02*
X5191611Y-6797984D01*
X5277325Y-6997984D02*
X5277325Y-6893222D01*
X5277325Y-6893222D02*
X5267801Y-6874174D01*
X5267801Y-6874174D02*
X5248753Y-6864650D01*
X5248753Y-6864650D02*
X5220182Y-6864650D01*
X5220182Y-6864650D02*
X5201134Y-6874174D01*
X5201134Y-6874174D02*
X5191611Y-6883698D01*
X5401134Y-6997984D02*
X5382087Y-6988460D01*
X5382087Y-6988460D02*
X5372563Y-6978936D01*
X5372563Y-6978936D02*
X5363039Y-6959888D01*
X5363039Y-6959888D02*
X5363039Y-6902746D01*
X5363039Y-6902746D02*
X5372563Y-6883698D01*
X5372563Y-6883698D02*
X5382087Y-6874174D01*
X5382087Y-6874174D02*
X5401134Y-6864650D01*
X5401134Y-6864650D02*
X5429706Y-6864650D01*
X5429706Y-6864650D02*
X5448753Y-6874174D01*
X5448753Y-6874174D02*
X5458277Y-6883698D01*
X5458277Y-6883698D02*
X5467801Y-6902746D01*
X5467801Y-6902746D02*
X5467801Y-6959888D01*
X5467801Y-6959888D02*
X5458277Y-6978936D01*
X5458277Y-6978936D02*
X5448753Y-6988460D01*
X5448753Y-6988460D02*
X5429706Y-6997984D01*
X5429706Y-6997984D02*
X5401134Y-6997984D01*
X5582087Y-6997984D02*
X5563039Y-6988460D01*
X5563039Y-6988460D02*
X5553515Y-6969412D01*
X5553515Y-6969412D02*
X5553515Y-6797984D01*
X5734468Y-6988460D02*
X5715420Y-6997984D01*
X5715420Y-6997984D02*
X5677325Y-6997984D01*
X5677325Y-6997984D02*
X5658277Y-6988460D01*
X5658277Y-6988460D02*
X5648753Y-6969412D01*
X5648753Y-6969412D02*
X5648753Y-6893222D01*
X5648753Y-6893222D02*
X5658277Y-6874174D01*
X5658277Y-6874174D02*
X5677325Y-6864650D01*
X5677325Y-6864650D02*
X5715420Y-6864650D01*
X5715420Y-6864650D02*
X5734468Y-6874174D01*
X5734468Y-6874174D02*
X5743991Y-6893222D01*
X5743991Y-6893222D02*
X5743991Y-6912269D01*
X5743991Y-6912269D02*
X5648753Y-6931317D01*
X5820182Y-6988460D02*
X5839230Y-6997984D01*
X5839230Y-6997984D02*
X5877325Y-6997984D01*
X5877325Y-6997984D02*
X5896372Y-6988460D01*
X5896372Y-6988460D02*
X5905896Y-6969412D01*
X5905896Y-6969412D02*
X5905896Y-6959888D01*
X5905896Y-6959888D02*
X5896372Y-6940841D01*
X5896372Y-6940841D02*
X5877325Y-6931317D01*
X5877325Y-6931317D02*
X5848753Y-6931317D01*
X5848753Y-6931317D02*
X5829706Y-6921793D01*
X5829706Y-6921793D02*
X5820182Y-6902746D01*
X5820182Y-6902746D02*
X5820182Y-6893222D01*
X5820182Y-6893222D02*
X5829706Y-6874174D01*
X5829706Y-6874174D02*
X5848753Y-6864650D01*
X5848753Y-6864650D02*
X5877325Y-6864650D01*
X5877325Y-6864650D02*
X5896372Y-6874174D01*
X5972563Y-7074174D02*
X5982087Y-7064650D01*
X5982087Y-7064650D02*
X6001134Y-7036079D01*
X6001134Y-7036079D02*
X6010658Y-7017031D01*
X6010658Y-7017031D02*
X6020182Y-6988460D01*
X6020182Y-6988460D02*
X6029706Y-6940841D01*
X6029706Y-6940841D02*
X6029706Y-6902746D01*
X6029706Y-6902746D02*
X6020182Y-6855127D01*
X6020182Y-6855127D02*
X6010658Y-6826555D01*
X6010658Y-6826555D02*
X6001134Y-6807508D01*
X6001134Y-6807508D02*
X5982087Y-6778936D01*
X5982087Y-6778936D02*
X5972563Y-6769412D01*
D12*
X1162499Y-7135499D02*
X1162499Y-7205501D01*
X1127498Y-7170500D02*
X1197500Y-7170500D01*
D11*
X1496372Y-7061984D02*
X1515420Y-7061984D01*
X1515420Y-7061984D02*
X1534467Y-7071508D01*
X1534467Y-7071508D02*
X1543991Y-7081031D01*
X1543991Y-7081031D02*
X1553515Y-7100079D01*
X1553515Y-7100079D02*
X1563039Y-7138174D01*
X1563039Y-7138174D02*
X1563039Y-7185793D01*
X1563039Y-7185793D02*
X1553515Y-7223888D01*
X1553515Y-7223888D02*
X1543991Y-7242936D01*
X1543991Y-7242936D02*
X1534467Y-7252460D01*
X1534467Y-7252460D02*
X1515420Y-7261984D01*
X1515420Y-7261984D02*
X1496372Y-7261984D01*
X1496372Y-7261984D02*
X1477324Y-7252460D01*
X1477324Y-7252460D02*
X1467801Y-7242936D01*
X1467801Y-7242936D02*
X1458277Y-7223888D01*
X1458277Y-7223888D02*
X1448753Y-7185793D01*
X1448753Y-7185793D02*
X1448753Y-7138174D01*
X1448753Y-7138174D02*
X1458277Y-7100079D01*
X1458277Y-7100079D02*
X1467801Y-7081031D01*
X1467801Y-7081031D02*
X1477324Y-7071508D01*
X1477324Y-7071508D02*
X1496372Y-7061984D01*
X1648753Y-7242936D02*
X1658277Y-7252460D01*
X1658277Y-7252460D02*
X1648753Y-7261984D01*
X1648753Y-7261984D02*
X1639229Y-7252460D01*
X1639229Y-7252460D02*
X1648753Y-7242936D01*
X1648753Y-7242936D02*
X1648753Y-7261984D01*
X1724943Y-7061984D02*
X1858277Y-7061984D01*
X1858277Y-7061984D02*
X1772562Y-7261984D01*
X1972562Y-7061984D02*
X1991610Y-7061984D01*
X1991610Y-7061984D02*
X2010658Y-7071508D01*
X2010658Y-7071508D02*
X2020182Y-7081031D01*
X2020182Y-7081031D02*
X2029705Y-7100079D01*
X2029705Y-7100079D02*
X2039229Y-7138174D01*
X2039229Y-7138174D02*
X2039229Y-7185793D01*
X2039229Y-7185793D02*
X2029705Y-7223888D01*
X2029705Y-7223888D02*
X2020182Y-7242936D01*
X2020182Y-7242936D02*
X2010658Y-7252460D01*
X2010658Y-7252460D02*
X1991610Y-7261984D01*
X1991610Y-7261984D02*
X1972562Y-7261984D01*
X1972562Y-7261984D02*
X1953515Y-7252460D01*
X1953515Y-7252460D02*
X1943991Y-7242936D01*
X1943991Y-7242936D02*
X1934467Y-7223888D01*
X1934467Y-7223888D02*
X1924943Y-7185793D01*
X1924943Y-7185793D02*
X1924943Y-7138174D01*
X1924943Y-7138174D02*
X1934467Y-7100079D01*
X1934467Y-7100079D02*
X1943991Y-7081031D01*
X1943991Y-7081031D02*
X1953515Y-7071508D01*
X1953515Y-7071508D02*
X1972562Y-7061984D01*
X2163039Y-7061984D02*
X2182086Y-7061984D01*
X2182086Y-7061984D02*
X2201134Y-7071508D01*
X2201134Y-7071508D02*
X2210658Y-7081031D01*
X2210658Y-7081031D02*
X2220182Y-7100079D01*
X2220182Y-7100079D02*
X2229705Y-7138174D01*
X2229705Y-7138174D02*
X2229705Y-7185793D01*
X2229705Y-7185793D02*
X2220182Y-7223888D01*
X2220182Y-7223888D02*
X2210658Y-7242936D01*
X2210658Y-7242936D02*
X2201134Y-7252460D01*
X2201134Y-7252460D02*
X2182086Y-7261984D01*
X2182086Y-7261984D02*
X2163039Y-7261984D01*
X2163039Y-7261984D02*
X2143991Y-7252460D01*
X2143991Y-7252460D02*
X2134467Y-7242936D01*
X2134467Y-7242936D02*
X2124944Y-7223888D01*
X2124944Y-7223888D02*
X2115420Y-7185793D01*
X2115420Y-7185793D02*
X2115420Y-7138174D01*
X2115420Y-7138174D02*
X2124944Y-7100079D01*
X2124944Y-7100079D02*
X2134467Y-7081031D01*
X2134467Y-7081031D02*
X2143991Y-7071508D01*
X2143991Y-7071508D02*
X2163039Y-7061984D01*
X2315420Y-7261984D02*
X2315420Y-7128650D01*
X2315420Y-7147698D02*
X2324944Y-7138174D01*
X2324944Y-7138174D02*
X2343991Y-7128650D01*
X2343991Y-7128650D02*
X2372563Y-7128650D01*
X2372563Y-7128650D02*
X2391610Y-7138174D01*
X2391610Y-7138174D02*
X2401134Y-7157222D01*
X2401134Y-7157222D02*
X2401134Y-7261984D01*
X2401134Y-7157222D02*
X2410658Y-7138174D01*
X2410658Y-7138174D02*
X2429705Y-7128650D01*
X2429705Y-7128650D02*
X2458277Y-7128650D01*
X2458277Y-7128650D02*
X2477325Y-7138174D01*
X2477325Y-7138174D02*
X2486848Y-7157222D01*
X2486848Y-7157222D02*
X2486848Y-7261984D01*
X2582086Y-7261984D02*
X2582086Y-7128650D01*
X2582086Y-7147698D02*
X2591610Y-7138174D01*
X2591610Y-7138174D02*
X2610658Y-7128650D01*
X2610658Y-7128650D02*
X2639229Y-7128650D01*
X2639229Y-7128650D02*
X2658277Y-7138174D01*
X2658277Y-7138174D02*
X2667801Y-7157222D01*
X2667801Y-7157222D02*
X2667801Y-7261984D01*
X2667801Y-7157222D02*
X2677325Y-7138174D01*
X2677325Y-7138174D02*
X2696372Y-7128650D01*
X2696372Y-7128650D02*
X2724944Y-7128650D01*
X2724944Y-7128650D02*
X2743991Y-7138174D01*
X2743991Y-7138174D02*
X2753515Y-7157222D01*
X2753515Y-7157222D02*
X2753515Y-7261984D01*
X3143991Y-7052460D02*
X2972563Y-7309603D01*
X3401134Y-7061984D02*
X3420182Y-7061984D01*
X3420182Y-7061984D02*
X3439229Y-7071508D01*
X3439229Y-7071508D02*
X3448753Y-7081031D01*
X3448753Y-7081031D02*
X3458277Y-7100079D01*
X3458277Y-7100079D02*
X3467801Y-7138174D01*
X3467801Y-7138174D02*
X3467801Y-7185793D01*
X3467801Y-7185793D02*
X3458277Y-7223888D01*
X3458277Y-7223888D02*
X3448753Y-7242936D01*
X3448753Y-7242936D02*
X3439229Y-7252460D01*
X3439229Y-7252460D02*
X3420182Y-7261984D01*
X3420182Y-7261984D02*
X3401134Y-7261984D01*
X3401134Y-7261984D02*
X3382086Y-7252460D01*
X3382086Y-7252460D02*
X3372563Y-7242936D01*
X3372563Y-7242936D02*
X3363039Y-7223888D01*
X3363039Y-7223888D02*
X3353515Y-7185793D01*
X3353515Y-7185793D02*
X3353515Y-7138174D01*
X3353515Y-7138174D02*
X3363039Y-7100079D01*
X3363039Y-7100079D02*
X3372563Y-7081031D01*
X3372563Y-7081031D02*
X3382086Y-7071508D01*
X3382086Y-7071508D02*
X3401134Y-7061984D01*
X3553515Y-7242936D02*
X3563039Y-7252460D01*
X3563039Y-7252460D02*
X3553515Y-7261984D01*
X3553515Y-7261984D02*
X3543991Y-7252460D01*
X3543991Y-7252460D02*
X3553515Y-7242936D01*
X3553515Y-7242936D02*
X3553515Y-7261984D01*
X3686848Y-7061984D02*
X3705896Y-7061984D01*
X3705896Y-7061984D02*
X3724944Y-7071508D01*
X3724944Y-7071508D02*
X3734467Y-7081031D01*
X3734467Y-7081031D02*
X3743991Y-7100079D01*
X3743991Y-7100079D02*
X3753515Y-7138174D01*
X3753515Y-7138174D02*
X3753515Y-7185793D01*
X3753515Y-7185793D02*
X3743991Y-7223888D01*
X3743991Y-7223888D02*
X3734467Y-7242936D01*
X3734467Y-7242936D02*
X3724944Y-7252460D01*
X3724944Y-7252460D02*
X3705896Y-7261984D01*
X3705896Y-7261984D02*
X3686848Y-7261984D01*
X3686848Y-7261984D02*
X3667801Y-7252460D01*
X3667801Y-7252460D02*
X3658277Y-7242936D01*
X3658277Y-7242936D02*
X3648753Y-7223888D01*
X3648753Y-7223888D02*
X3639229Y-7185793D01*
X3639229Y-7185793D02*
X3639229Y-7138174D01*
X3639229Y-7138174D02*
X3648753Y-7100079D01*
X3648753Y-7100079D02*
X3658277Y-7081031D01*
X3658277Y-7081031D02*
X3667801Y-7071508D01*
X3667801Y-7071508D02*
X3686848Y-7061984D01*
X3829706Y-7081031D02*
X3839229Y-7071508D01*
X3839229Y-7071508D02*
X3858277Y-7061984D01*
X3858277Y-7061984D02*
X3905896Y-7061984D01*
X3905896Y-7061984D02*
X3924944Y-7071508D01*
X3924944Y-7071508D02*
X3934467Y-7081031D01*
X3934467Y-7081031D02*
X3943991Y-7100079D01*
X3943991Y-7100079D02*
X3943991Y-7119127D01*
X3943991Y-7119127D02*
X3934467Y-7147698D01*
X3934467Y-7147698D02*
X3820182Y-7261984D01*
X3820182Y-7261984D02*
X3943991Y-7261984D01*
X4010658Y-7061984D02*
X4143991Y-7061984D01*
X4143991Y-7061984D02*
X4058277Y-7261984D01*
X4305896Y-7061984D02*
X4267801Y-7061984D01*
X4267801Y-7061984D02*
X4248753Y-7071508D01*
X4248753Y-7071508D02*
X4239229Y-7081031D01*
X4239229Y-7081031D02*
X4220182Y-7109603D01*
X4220182Y-7109603D02*
X4210658Y-7147698D01*
X4210658Y-7147698D02*
X4210658Y-7223888D01*
X4210658Y-7223888D02*
X4220182Y-7242936D01*
X4220182Y-7242936D02*
X4229706Y-7252460D01*
X4229706Y-7252460D02*
X4248753Y-7261984D01*
X4248753Y-7261984D02*
X4286849Y-7261984D01*
X4286849Y-7261984D02*
X4305896Y-7252460D01*
X4305896Y-7252460D02*
X4315420Y-7242936D01*
X4315420Y-7242936D02*
X4324944Y-7223888D01*
X4324944Y-7223888D02*
X4324944Y-7176269D01*
X4324944Y-7176269D02*
X4315420Y-7157222D01*
X4315420Y-7157222D02*
X4305896Y-7147698D01*
X4305896Y-7147698D02*
X4286849Y-7138174D01*
X4286849Y-7138174D02*
X4248753Y-7138174D01*
X4248753Y-7138174D02*
X4229706Y-7147698D01*
X4229706Y-7147698D02*
X4220182Y-7157222D01*
X4220182Y-7157222D02*
X4210658Y-7176269D01*
X4401134Y-7061984D02*
X4401134Y-7100079D01*
X4477325Y-7061984D02*
X4477325Y-7100079D01*
X4772563Y-7338174D02*
X4763039Y-7328650D01*
X4763039Y-7328650D02*
X4743991Y-7300079D01*
X4743991Y-7300079D02*
X4734468Y-7281031D01*
X4734468Y-7281031D02*
X4724944Y-7252460D01*
X4724944Y-7252460D02*
X4715420Y-7204841D01*
X4715420Y-7204841D02*
X4715420Y-7166746D01*
X4715420Y-7166746D02*
X4724944Y-7119127D01*
X4724944Y-7119127D02*
X4734468Y-7090555D01*
X4734468Y-7090555D02*
X4743991Y-7071508D01*
X4743991Y-7071508D02*
X4763039Y-7042936D01*
X4763039Y-7042936D02*
X4772563Y-7033412D01*
X4934468Y-7128650D02*
X4934468Y-7261984D01*
X4886849Y-7052460D02*
X4839230Y-7195317D01*
X4839230Y-7195317D02*
X4963039Y-7195317D01*
X5191611Y-7261984D02*
X5191611Y-7061984D01*
X5277325Y-7261984D02*
X5277325Y-7157222D01*
X5277325Y-7157222D02*
X5267801Y-7138174D01*
X5267801Y-7138174D02*
X5248753Y-7128650D01*
X5248753Y-7128650D02*
X5220182Y-7128650D01*
X5220182Y-7128650D02*
X5201134Y-7138174D01*
X5201134Y-7138174D02*
X5191611Y-7147698D01*
X5401134Y-7261984D02*
X5382087Y-7252460D01*
X5382087Y-7252460D02*
X5372563Y-7242936D01*
X5372563Y-7242936D02*
X5363039Y-7223888D01*
X5363039Y-7223888D02*
X5363039Y-7166746D01*
X5363039Y-7166746D02*
X5372563Y-7147698D01*
X5372563Y-7147698D02*
X5382087Y-7138174D01*
X5382087Y-7138174D02*
X5401134Y-7128650D01*
X5401134Y-7128650D02*
X5429706Y-7128650D01*
X5429706Y-7128650D02*
X5448753Y-7138174D01*
X5448753Y-7138174D02*
X5458277Y-7147698D01*
X5458277Y-7147698D02*
X5467801Y-7166746D01*
X5467801Y-7166746D02*
X5467801Y-7223888D01*
X5467801Y-7223888D02*
X5458277Y-7242936D01*
X5458277Y-7242936D02*
X5448753Y-7252460D01*
X5448753Y-7252460D02*
X5429706Y-7261984D01*
X5429706Y-7261984D02*
X5401134Y-7261984D01*
X5582087Y-7261984D02*
X5563039Y-7252460D01*
X5563039Y-7252460D02*
X5553515Y-7233412D01*
X5553515Y-7233412D02*
X5553515Y-7061984D01*
X5734468Y-7252460D02*
X5715420Y-7261984D01*
X5715420Y-7261984D02*
X5677325Y-7261984D01*
X5677325Y-7261984D02*
X5658277Y-7252460D01*
X5658277Y-7252460D02*
X5648753Y-7233412D01*
X5648753Y-7233412D02*
X5648753Y-7157222D01*
X5648753Y-7157222D02*
X5658277Y-7138174D01*
X5658277Y-7138174D02*
X5677325Y-7128650D01*
X5677325Y-7128650D02*
X5715420Y-7128650D01*
X5715420Y-7128650D02*
X5734468Y-7138174D01*
X5734468Y-7138174D02*
X5743991Y-7157222D01*
X5743991Y-7157222D02*
X5743991Y-7176269D01*
X5743991Y-7176269D02*
X5648753Y-7195317D01*
X5820182Y-7252460D02*
X5839230Y-7261984D01*
X5839230Y-7261984D02*
X5877325Y-7261984D01*
X5877325Y-7261984D02*
X5896372Y-7252460D01*
X5896372Y-7252460D02*
X5905896Y-7233412D01*
X5905896Y-7233412D02*
X5905896Y-7223888D01*
X5905896Y-7223888D02*
X5896372Y-7204841D01*
X5896372Y-7204841D02*
X5877325Y-7195317D01*
X5877325Y-7195317D02*
X5848753Y-7195317D01*
X5848753Y-7195317D02*
X5829706Y-7185793D01*
X5829706Y-7185793D02*
X5820182Y-7166746D01*
X5820182Y-7166746D02*
X5820182Y-7157222D01*
X5820182Y-7157222D02*
X5829706Y-7138174D01*
X5829706Y-7138174D02*
X5848753Y-7128650D01*
X5848753Y-7128650D02*
X5877325Y-7128650D01*
X5877325Y-7128650D02*
X5896372Y-7138174D01*
X5972563Y-7338174D02*
X5982087Y-7328650D01*
X5982087Y-7328650D02*
X6001134Y-7300079D01*
X6001134Y-7300079D02*
X6010658Y-7281031D01*
X6010658Y-7281031D02*
X6020182Y-7252460D01*
X6020182Y-7252460D02*
X6029706Y-7204841D01*
X6029706Y-7204841D02*
X6029706Y-7166746D01*
X6029706Y-7166746D02*
X6020182Y-7119127D01*
X6020182Y-7119127D02*
X6010658Y-7090555D01*
X6010658Y-7090555D02*
X6001134Y-7071508D01*
X6001134Y-7071508D02*
X5982087Y-7042936D01*
X5982087Y-7042936D02*
X5972563Y-7033412D01*
D12*
X1186517Y-7461017D02*
X1186517Y-7407983D01*
X1133483Y-7407983D01*
X1133483Y-7461017D01*
X1186517Y-7461017D01*
D11*
X1496372Y-7325984D02*
X1515420Y-7325984D01*
X1515420Y-7325984D02*
X1534467Y-7335508D01*
X1534467Y-7335508D02*
X1543991Y-7345031D01*
X1543991Y-7345031D02*
X1553515Y-7364079D01*
X1553515Y-7364079D02*
X1563039Y-7402174D01*
X1563039Y-7402174D02*
X1563039Y-7449793D01*
X1563039Y-7449793D02*
X1553515Y-7487888D01*
X1553515Y-7487888D02*
X1543991Y-7506936D01*
X1543991Y-7506936D02*
X1534467Y-7516460D01*
X1534467Y-7516460D02*
X1515420Y-7525984D01*
X1515420Y-7525984D02*
X1496372Y-7525984D01*
X1496372Y-7525984D02*
X1477324Y-7516460D01*
X1477324Y-7516460D02*
X1467801Y-7506936D01*
X1467801Y-7506936D02*
X1458277Y-7487888D01*
X1458277Y-7487888D02*
X1448753Y-7449793D01*
X1448753Y-7449793D02*
X1448753Y-7402174D01*
X1448753Y-7402174D02*
X1458277Y-7364079D01*
X1458277Y-7364079D02*
X1467801Y-7345031D01*
X1467801Y-7345031D02*
X1477324Y-7335508D01*
X1477324Y-7335508D02*
X1496372Y-7325984D01*
X1648753Y-7506936D02*
X1658277Y-7516460D01*
X1658277Y-7516460D02*
X1648753Y-7525984D01*
X1648753Y-7525984D02*
X1639229Y-7516460D01*
X1639229Y-7516460D02*
X1648753Y-7506936D01*
X1648753Y-7506936D02*
X1648753Y-7525984D01*
X1724943Y-7325984D02*
X1858277Y-7325984D01*
X1858277Y-7325984D02*
X1772562Y-7525984D01*
X2029705Y-7325984D02*
X1934467Y-7325984D01*
X1934467Y-7325984D02*
X1924943Y-7421222D01*
X1924943Y-7421222D02*
X1934467Y-7411698D01*
X1934467Y-7411698D02*
X1953515Y-7402174D01*
X1953515Y-7402174D02*
X2001134Y-7402174D01*
X2001134Y-7402174D02*
X2020182Y-7411698D01*
X2020182Y-7411698D02*
X2029705Y-7421222D01*
X2029705Y-7421222D02*
X2039229Y-7440269D01*
X2039229Y-7440269D02*
X2039229Y-7487888D01*
X2039229Y-7487888D02*
X2029705Y-7506936D01*
X2029705Y-7506936D02*
X2020182Y-7516460D01*
X2020182Y-7516460D02*
X2001134Y-7525984D01*
X2001134Y-7525984D02*
X1953515Y-7525984D01*
X1953515Y-7525984D02*
X1934467Y-7516460D01*
X1934467Y-7516460D02*
X1924943Y-7506936D01*
X2163039Y-7325984D02*
X2182086Y-7325984D01*
X2182086Y-7325984D02*
X2201134Y-7335508D01*
X2201134Y-7335508D02*
X2210658Y-7345031D01*
X2210658Y-7345031D02*
X2220182Y-7364079D01*
X2220182Y-7364079D02*
X2229705Y-7402174D01*
X2229705Y-7402174D02*
X2229705Y-7449793D01*
X2229705Y-7449793D02*
X2220182Y-7487888D01*
X2220182Y-7487888D02*
X2210658Y-7506936D01*
X2210658Y-7506936D02*
X2201134Y-7516460D01*
X2201134Y-7516460D02*
X2182086Y-7525984D01*
X2182086Y-7525984D02*
X2163039Y-7525984D01*
X2163039Y-7525984D02*
X2143991Y-7516460D01*
X2143991Y-7516460D02*
X2134467Y-7506936D01*
X2134467Y-7506936D02*
X2124944Y-7487888D01*
X2124944Y-7487888D02*
X2115420Y-7449793D01*
X2115420Y-7449793D02*
X2115420Y-7402174D01*
X2115420Y-7402174D02*
X2124944Y-7364079D01*
X2124944Y-7364079D02*
X2134467Y-7345031D01*
X2134467Y-7345031D02*
X2143991Y-7335508D01*
X2143991Y-7335508D02*
X2163039Y-7325984D01*
X2315420Y-7525984D02*
X2315420Y-7392650D01*
X2315420Y-7411698D02*
X2324944Y-7402174D01*
X2324944Y-7402174D02*
X2343991Y-7392650D01*
X2343991Y-7392650D02*
X2372563Y-7392650D01*
X2372563Y-7392650D02*
X2391610Y-7402174D01*
X2391610Y-7402174D02*
X2401134Y-7421222D01*
X2401134Y-7421222D02*
X2401134Y-7525984D01*
X2401134Y-7421222D02*
X2410658Y-7402174D01*
X2410658Y-7402174D02*
X2429705Y-7392650D01*
X2429705Y-7392650D02*
X2458277Y-7392650D01*
X2458277Y-7392650D02*
X2477325Y-7402174D01*
X2477325Y-7402174D02*
X2486848Y-7421222D01*
X2486848Y-7421222D02*
X2486848Y-7525984D01*
X2582086Y-7525984D02*
X2582086Y-7392650D01*
X2582086Y-7411698D02*
X2591610Y-7402174D01*
X2591610Y-7402174D02*
X2610658Y-7392650D01*
X2610658Y-7392650D02*
X2639229Y-7392650D01*
X2639229Y-7392650D02*
X2658277Y-7402174D01*
X2658277Y-7402174D02*
X2667801Y-7421222D01*
X2667801Y-7421222D02*
X2667801Y-7525984D01*
X2667801Y-7421222D02*
X2677325Y-7402174D01*
X2677325Y-7402174D02*
X2696372Y-7392650D01*
X2696372Y-7392650D02*
X2724944Y-7392650D01*
X2724944Y-7392650D02*
X2743991Y-7402174D01*
X2743991Y-7402174D02*
X2753515Y-7421222D01*
X2753515Y-7421222D02*
X2753515Y-7525984D01*
X3143991Y-7316460D02*
X2972563Y-7573603D01*
X3401134Y-7325984D02*
X3420182Y-7325984D01*
X3420182Y-7325984D02*
X3439229Y-7335508D01*
X3439229Y-7335508D02*
X3448753Y-7345031D01*
X3448753Y-7345031D02*
X3458277Y-7364079D01*
X3458277Y-7364079D02*
X3467801Y-7402174D01*
X3467801Y-7402174D02*
X3467801Y-7449793D01*
X3467801Y-7449793D02*
X3458277Y-7487888D01*
X3458277Y-7487888D02*
X3448753Y-7506936D01*
X3448753Y-7506936D02*
X3439229Y-7516460D01*
X3439229Y-7516460D02*
X3420182Y-7525984D01*
X3420182Y-7525984D02*
X3401134Y-7525984D01*
X3401134Y-7525984D02*
X3382086Y-7516460D01*
X3382086Y-7516460D02*
X3372563Y-7506936D01*
X3372563Y-7506936D02*
X3363039Y-7487888D01*
X3363039Y-7487888D02*
X3353515Y-7449793D01*
X3353515Y-7449793D02*
X3353515Y-7402174D01*
X3353515Y-7402174D02*
X3363039Y-7364079D01*
X3363039Y-7364079D02*
X3372563Y-7345031D01*
X3372563Y-7345031D02*
X3382086Y-7335508D01*
X3382086Y-7335508D02*
X3401134Y-7325984D01*
X3553515Y-7506936D02*
X3563039Y-7516460D01*
X3563039Y-7516460D02*
X3553515Y-7525984D01*
X3553515Y-7525984D02*
X3543991Y-7516460D01*
X3543991Y-7516460D02*
X3553515Y-7506936D01*
X3553515Y-7506936D02*
X3553515Y-7525984D01*
X3686848Y-7325984D02*
X3705896Y-7325984D01*
X3705896Y-7325984D02*
X3724944Y-7335508D01*
X3724944Y-7335508D02*
X3734467Y-7345031D01*
X3734467Y-7345031D02*
X3743991Y-7364079D01*
X3743991Y-7364079D02*
X3753515Y-7402174D01*
X3753515Y-7402174D02*
X3753515Y-7449793D01*
X3753515Y-7449793D02*
X3743991Y-7487888D01*
X3743991Y-7487888D02*
X3734467Y-7506936D01*
X3734467Y-7506936D02*
X3724944Y-7516460D01*
X3724944Y-7516460D02*
X3705896Y-7525984D01*
X3705896Y-7525984D02*
X3686848Y-7525984D01*
X3686848Y-7525984D02*
X3667801Y-7516460D01*
X3667801Y-7516460D02*
X3658277Y-7506936D01*
X3658277Y-7506936D02*
X3648753Y-7487888D01*
X3648753Y-7487888D02*
X3639229Y-7449793D01*
X3639229Y-7449793D02*
X3639229Y-7402174D01*
X3639229Y-7402174D02*
X3648753Y-7364079D01*
X3648753Y-7364079D02*
X3658277Y-7345031D01*
X3658277Y-7345031D02*
X3667801Y-7335508D01*
X3667801Y-7335508D02*
X3686848Y-7325984D01*
X3829706Y-7345031D02*
X3839229Y-7335508D01*
X3839229Y-7335508D02*
X3858277Y-7325984D01*
X3858277Y-7325984D02*
X3905896Y-7325984D01*
X3905896Y-7325984D02*
X3924944Y-7335508D01*
X3924944Y-7335508D02*
X3934467Y-7345031D01*
X3934467Y-7345031D02*
X3943991Y-7364079D01*
X3943991Y-7364079D02*
X3943991Y-7383127D01*
X3943991Y-7383127D02*
X3934467Y-7411698D01*
X3934467Y-7411698D02*
X3820182Y-7525984D01*
X3820182Y-7525984D02*
X3943991Y-7525984D01*
X4039229Y-7525984D02*
X4077325Y-7525984D01*
X4077325Y-7525984D02*
X4096372Y-7516460D01*
X4096372Y-7516460D02*
X4105896Y-7506936D01*
X4105896Y-7506936D02*
X4124944Y-7478365D01*
X4124944Y-7478365D02*
X4134467Y-7440269D01*
X4134467Y-7440269D02*
X4134467Y-7364079D01*
X4134467Y-7364079D02*
X4124944Y-7345031D01*
X4124944Y-7345031D02*
X4115420Y-7335508D01*
X4115420Y-7335508D02*
X4096372Y-7325984D01*
X4096372Y-7325984D02*
X4058277Y-7325984D01*
X4058277Y-7325984D02*
X4039229Y-7335508D01*
X4039229Y-7335508D02*
X4029706Y-7345031D01*
X4029706Y-7345031D02*
X4020182Y-7364079D01*
X4020182Y-7364079D02*
X4020182Y-7411698D01*
X4020182Y-7411698D02*
X4029706Y-7430746D01*
X4029706Y-7430746D02*
X4039229Y-7440269D01*
X4039229Y-7440269D02*
X4058277Y-7449793D01*
X4058277Y-7449793D02*
X4096372Y-7449793D01*
X4096372Y-7449793D02*
X4115420Y-7440269D01*
X4115420Y-7440269D02*
X4124944Y-7430746D01*
X4124944Y-7430746D02*
X4134467Y-7411698D01*
X4315420Y-7325984D02*
X4220182Y-7325984D01*
X4220182Y-7325984D02*
X4210658Y-7421222D01*
X4210658Y-7421222D02*
X4220182Y-7411698D01*
X4220182Y-7411698D02*
X4239229Y-7402174D01*
X4239229Y-7402174D02*
X4286849Y-7402174D01*
X4286849Y-7402174D02*
X4305896Y-7411698D01*
X4305896Y-7411698D02*
X4315420Y-7421222D01*
X4315420Y-7421222D02*
X4324944Y-7440269D01*
X4324944Y-7440269D02*
X4324944Y-7487888D01*
X4324944Y-7487888D02*
X4315420Y-7506936D01*
X4315420Y-7506936D02*
X4305896Y-7516460D01*
X4305896Y-7516460D02*
X4286849Y-7525984D01*
X4286849Y-7525984D02*
X4239229Y-7525984D01*
X4239229Y-7525984D02*
X4220182Y-7516460D01*
X4220182Y-7516460D02*
X4210658Y-7506936D01*
X4401134Y-7325984D02*
X4401134Y-7364079D01*
X4477325Y-7325984D02*
X4477325Y-7364079D01*
X4772563Y-7602174D02*
X4763039Y-7592650D01*
X4763039Y-7592650D02*
X4743991Y-7564079D01*
X4743991Y-7564079D02*
X4734468Y-7545031D01*
X4734468Y-7545031D02*
X4724944Y-7516460D01*
X4724944Y-7516460D02*
X4715420Y-7468841D01*
X4715420Y-7468841D02*
X4715420Y-7430746D01*
X4715420Y-7430746D02*
X4724944Y-7383127D01*
X4724944Y-7383127D02*
X4734468Y-7354555D01*
X4734468Y-7354555D02*
X4743991Y-7335508D01*
X4743991Y-7335508D02*
X4763039Y-7306936D01*
X4763039Y-7306936D02*
X4772563Y-7297412D01*
X4934468Y-7392650D02*
X4934468Y-7525984D01*
X4886849Y-7316460D02*
X4839230Y-7459317D01*
X4839230Y-7459317D02*
X4963039Y-7459317D01*
X5191611Y-7525984D02*
X5191611Y-7325984D01*
X5277325Y-7525984D02*
X5277325Y-7421222D01*
X5277325Y-7421222D02*
X5267801Y-7402174D01*
X5267801Y-7402174D02*
X5248753Y-7392650D01*
X5248753Y-7392650D02*
X5220182Y-7392650D01*
X5220182Y-7392650D02*
X5201134Y-7402174D01*
X5201134Y-7402174D02*
X5191611Y-7411698D01*
X5401134Y-7525984D02*
X5382087Y-7516460D01*
X5382087Y-7516460D02*
X5372563Y-7506936D01*
X5372563Y-7506936D02*
X5363039Y-7487888D01*
X5363039Y-7487888D02*
X5363039Y-7430746D01*
X5363039Y-7430746D02*
X5372563Y-7411698D01*
X5372563Y-7411698D02*
X5382087Y-7402174D01*
X5382087Y-7402174D02*
X5401134Y-7392650D01*
X5401134Y-7392650D02*
X5429706Y-7392650D01*
X5429706Y-7392650D02*
X5448753Y-7402174D01*
X5448753Y-7402174D02*
X5458277Y-7411698D01*
X5458277Y-7411698D02*
X5467801Y-7430746D01*
X5467801Y-7430746D02*
X5467801Y-7487888D01*
X5467801Y-7487888D02*
X5458277Y-7506936D01*
X5458277Y-7506936D02*
X5448753Y-7516460D01*
X5448753Y-7516460D02*
X5429706Y-7525984D01*
X5429706Y-7525984D02*
X5401134Y-7525984D01*
X5582087Y-7525984D02*
X5563039Y-7516460D01*
X5563039Y-7516460D02*
X5553515Y-7497412D01*
X5553515Y-7497412D02*
X5553515Y-7325984D01*
X5734468Y-7516460D02*
X5715420Y-7525984D01*
X5715420Y-7525984D02*
X5677325Y-7525984D01*
X5677325Y-7525984D02*
X5658277Y-7516460D01*
X5658277Y-7516460D02*
X5648753Y-7497412D01*
X5648753Y-7497412D02*
X5648753Y-7421222D01*
X5648753Y-7421222D02*
X5658277Y-7402174D01*
X5658277Y-7402174D02*
X5677325Y-7392650D01*
X5677325Y-7392650D02*
X5715420Y-7392650D01*
X5715420Y-7392650D02*
X5734468Y-7402174D01*
X5734468Y-7402174D02*
X5743991Y-7421222D01*
X5743991Y-7421222D02*
X5743991Y-7440269D01*
X5743991Y-7440269D02*
X5648753Y-7459317D01*
X5820182Y-7516460D02*
X5839230Y-7525984D01*
X5839230Y-7525984D02*
X5877325Y-7525984D01*
X5877325Y-7525984D02*
X5896372Y-7516460D01*
X5896372Y-7516460D02*
X5905896Y-7497412D01*
X5905896Y-7497412D02*
X5905896Y-7487888D01*
X5905896Y-7487888D02*
X5896372Y-7468841D01*
X5896372Y-7468841D02*
X5877325Y-7459317D01*
X5877325Y-7459317D02*
X5848753Y-7459317D01*
X5848753Y-7459317D02*
X5829706Y-7449793D01*
X5829706Y-7449793D02*
X5820182Y-7430746D01*
X5820182Y-7430746D02*
X5820182Y-7421222D01*
X5820182Y-7421222D02*
X5829706Y-7402174D01*
X5829706Y-7402174D02*
X5848753Y-7392650D01*
X5848753Y-7392650D02*
X5877325Y-7392650D01*
X5877325Y-7392650D02*
X5896372Y-7402174D01*
X5972563Y-7602174D02*
X5982087Y-7592650D01*
X5982087Y-7592650D02*
X6001134Y-7564079D01*
X6001134Y-7564079D02*
X6010658Y-7545031D01*
X6010658Y-7545031D02*
X6020182Y-7516460D01*
X6020182Y-7516460D02*
X6029706Y-7468841D01*
X6029706Y-7468841D02*
X6029706Y-7430746D01*
X6029706Y-7430746D02*
X6020182Y-7383127D01*
X6020182Y-7383127D02*
X6010658Y-7354555D01*
X6010658Y-7354555D02*
X6001134Y-7335508D01*
X6001134Y-7335508D02*
X5982087Y-7306936D01*
X5982087Y-7306936D02*
X5972563Y-7297412D01*
D12*
X1157500Y-7738500D02*
X1197500Y-7698500D01*
X1157500Y-7658500D01*
X1117500Y-7698500D01*
X1157500Y-7738500D01*
D11*
X1496372Y-7589984D02*
X1515420Y-7589984D01*
X1515420Y-7589984D02*
X1534467Y-7599508D01*
X1534467Y-7599508D02*
X1543991Y-7609031D01*
X1543991Y-7609031D02*
X1553515Y-7628079D01*
X1553515Y-7628079D02*
X1563039Y-7666174D01*
X1563039Y-7666174D02*
X1563039Y-7713793D01*
X1563039Y-7713793D02*
X1553515Y-7751888D01*
X1553515Y-7751888D02*
X1543991Y-7770936D01*
X1543991Y-7770936D02*
X1534467Y-7780460D01*
X1534467Y-7780460D02*
X1515420Y-7789984D01*
X1515420Y-7789984D02*
X1496372Y-7789984D01*
X1496372Y-7789984D02*
X1477324Y-7780460D01*
X1477324Y-7780460D02*
X1467801Y-7770936D01*
X1467801Y-7770936D02*
X1458277Y-7751888D01*
X1458277Y-7751888D02*
X1448753Y-7713793D01*
X1448753Y-7713793D02*
X1448753Y-7666174D01*
X1448753Y-7666174D02*
X1458277Y-7628079D01*
X1458277Y-7628079D02*
X1467801Y-7609031D01*
X1467801Y-7609031D02*
X1477324Y-7599508D01*
X1477324Y-7599508D02*
X1496372Y-7589984D01*
X1648753Y-7770936D02*
X1658277Y-7780460D01*
X1658277Y-7780460D02*
X1648753Y-7789984D01*
X1648753Y-7789984D02*
X1639229Y-7780460D01*
X1639229Y-7780460D02*
X1648753Y-7770936D01*
X1648753Y-7770936D02*
X1648753Y-7789984D01*
X1772562Y-7675698D02*
X1753515Y-7666174D01*
X1753515Y-7666174D02*
X1743991Y-7656650D01*
X1743991Y-7656650D02*
X1734467Y-7637603D01*
X1734467Y-7637603D02*
X1734467Y-7628079D01*
X1734467Y-7628079D02*
X1743991Y-7609031D01*
X1743991Y-7609031D02*
X1753515Y-7599508D01*
X1753515Y-7599508D02*
X1772562Y-7589984D01*
X1772562Y-7589984D02*
X1810658Y-7589984D01*
X1810658Y-7589984D02*
X1829705Y-7599508D01*
X1829705Y-7599508D02*
X1839229Y-7609031D01*
X1839229Y-7609031D02*
X1848753Y-7628079D01*
X1848753Y-7628079D02*
X1848753Y-7637603D01*
X1848753Y-7637603D02*
X1839229Y-7656650D01*
X1839229Y-7656650D02*
X1829705Y-7666174D01*
X1829705Y-7666174D02*
X1810658Y-7675698D01*
X1810658Y-7675698D02*
X1772562Y-7675698D01*
X1772562Y-7675698D02*
X1753515Y-7685222D01*
X1753515Y-7685222D02*
X1743991Y-7694746D01*
X1743991Y-7694746D02*
X1734467Y-7713793D01*
X1734467Y-7713793D02*
X1734467Y-7751888D01*
X1734467Y-7751888D02*
X1743991Y-7770936D01*
X1743991Y-7770936D02*
X1753515Y-7780460D01*
X1753515Y-7780460D02*
X1772562Y-7789984D01*
X1772562Y-7789984D02*
X1810658Y-7789984D01*
X1810658Y-7789984D02*
X1829705Y-7780460D01*
X1829705Y-7780460D02*
X1839229Y-7770936D01*
X1839229Y-7770936D02*
X1848753Y-7751888D01*
X1848753Y-7751888D02*
X1848753Y-7713793D01*
X1848753Y-7713793D02*
X1839229Y-7694746D01*
X1839229Y-7694746D02*
X1829705Y-7685222D01*
X1829705Y-7685222D02*
X1810658Y-7675698D01*
X1972562Y-7589984D02*
X1991610Y-7589984D01*
X1991610Y-7589984D02*
X2010658Y-7599508D01*
X2010658Y-7599508D02*
X2020182Y-7609031D01*
X2020182Y-7609031D02*
X2029705Y-7628079D01*
X2029705Y-7628079D02*
X2039229Y-7666174D01*
X2039229Y-7666174D02*
X2039229Y-7713793D01*
X2039229Y-7713793D02*
X2029705Y-7751888D01*
X2029705Y-7751888D02*
X2020182Y-7770936D01*
X2020182Y-7770936D02*
X2010658Y-7780460D01*
X2010658Y-7780460D02*
X1991610Y-7789984D01*
X1991610Y-7789984D02*
X1972562Y-7789984D01*
X1972562Y-7789984D02*
X1953515Y-7780460D01*
X1953515Y-7780460D02*
X1943991Y-7770936D01*
X1943991Y-7770936D02*
X1934467Y-7751888D01*
X1934467Y-7751888D02*
X1924943Y-7713793D01*
X1924943Y-7713793D02*
X1924943Y-7666174D01*
X1924943Y-7666174D02*
X1934467Y-7628079D01*
X1934467Y-7628079D02*
X1943991Y-7609031D01*
X1943991Y-7609031D02*
X1953515Y-7599508D01*
X1953515Y-7599508D02*
X1972562Y-7589984D01*
X2163039Y-7589984D02*
X2182086Y-7589984D01*
X2182086Y-7589984D02*
X2201134Y-7599508D01*
X2201134Y-7599508D02*
X2210658Y-7609031D01*
X2210658Y-7609031D02*
X2220182Y-7628079D01*
X2220182Y-7628079D02*
X2229705Y-7666174D01*
X2229705Y-7666174D02*
X2229705Y-7713793D01*
X2229705Y-7713793D02*
X2220182Y-7751888D01*
X2220182Y-7751888D02*
X2210658Y-7770936D01*
X2210658Y-7770936D02*
X2201134Y-7780460D01*
X2201134Y-7780460D02*
X2182086Y-7789984D01*
X2182086Y-7789984D02*
X2163039Y-7789984D01*
X2163039Y-7789984D02*
X2143991Y-7780460D01*
X2143991Y-7780460D02*
X2134467Y-7770936D01*
X2134467Y-7770936D02*
X2124944Y-7751888D01*
X2124944Y-7751888D02*
X2115420Y-7713793D01*
X2115420Y-7713793D02*
X2115420Y-7666174D01*
X2115420Y-7666174D02*
X2124944Y-7628079D01*
X2124944Y-7628079D02*
X2134467Y-7609031D01*
X2134467Y-7609031D02*
X2143991Y-7599508D01*
X2143991Y-7599508D02*
X2163039Y-7589984D01*
X2315420Y-7789984D02*
X2315420Y-7656650D01*
X2315420Y-7675698D02*
X2324944Y-7666174D01*
X2324944Y-7666174D02*
X2343991Y-7656650D01*
X2343991Y-7656650D02*
X2372563Y-7656650D01*
X2372563Y-7656650D02*
X2391610Y-7666174D01*
X2391610Y-7666174D02*
X2401134Y-7685222D01*
X2401134Y-7685222D02*
X2401134Y-7789984D01*
X2401134Y-7685222D02*
X2410658Y-7666174D01*
X2410658Y-7666174D02*
X2429705Y-7656650D01*
X2429705Y-7656650D02*
X2458277Y-7656650D01*
X2458277Y-7656650D02*
X2477325Y-7666174D01*
X2477325Y-7666174D02*
X2486848Y-7685222D01*
X2486848Y-7685222D02*
X2486848Y-7789984D01*
X2582086Y-7789984D02*
X2582086Y-7656650D01*
X2582086Y-7675698D02*
X2591610Y-7666174D01*
X2591610Y-7666174D02*
X2610658Y-7656650D01*
X2610658Y-7656650D02*
X2639229Y-7656650D01*
X2639229Y-7656650D02*
X2658277Y-7666174D01*
X2658277Y-7666174D02*
X2667801Y-7685222D01*
X2667801Y-7685222D02*
X2667801Y-7789984D01*
X2667801Y-7685222D02*
X2677325Y-7666174D01*
X2677325Y-7666174D02*
X2696372Y-7656650D01*
X2696372Y-7656650D02*
X2724944Y-7656650D01*
X2724944Y-7656650D02*
X2743991Y-7666174D01*
X2743991Y-7666174D02*
X2753515Y-7685222D01*
X2753515Y-7685222D02*
X2753515Y-7789984D01*
X3143991Y-7580460D02*
X2972563Y-7837603D01*
X3401134Y-7589984D02*
X3420182Y-7589984D01*
X3420182Y-7589984D02*
X3439229Y-7599508D01*
X3439229Y-7599508D02*
X3448753Y-7609031D01*
X3448753Y-7609031D02*
X3458277Y-7628079D01*
X3458277Y-7628079D02*
X3467801Y-7666174D01*
X3467801Y-7666174D02*
X3467801Y-7713793D01*
X3467801Y-7713793D02*
X3458277Y-7751888D01*
X3458277Y-7751888D02*
X3448753Y-7770936D01*
X3448753Y-7770936D02*
X3439229Y-7780460D01*
X3439229Y-7780460D02*
X3420182Y-7789984D01*
X3420182Y-7789984D02*
X3401134Y-7789984D01*
X3401134Y-7789984D02*
X3382086Y-7780460D01*
X3382086Y-7780460D02*
X3372563Y-7770936D01*
X3372563Y-7770936D02*
X3363039Y-7751888D01*
X3363039Y-7751888D02*
X3353515Y-7713793D01*
X3353515Y-7713793D02*
X3353515Y-7666174D01*
X3353515Y-7666174D02*
X3363039Y-7628079D01*
X3363039Y-7628079D02*
X3372563Y-7609031D01*
X3372563Y-7609031D02*
X3382086Y-7599508D01*
X3382086Y-7599508D02*
X3401134Y-7589984D01*
X3553515Y-7770936D02*
X3563039Y-7780460D01*
X3563039Y-7780460D02*
X3553515Y-7789984D01*
X3553515Y-7789984D02*
X3543991Y-7780460D01*
X3543991Y-7780460D02*
X3553515Y-7770936D01*
X3553515Y-7770936D02*
X3553515Y-7789984D01*
X3686848Y-7589984D02*
X3705896Y-7589984D01*
X3705896Y-7589984D02*
X3724944Y-7599508D01*
X3724944Y-7599508D02*
X3734467Y-7609031D01*
X3734467Y-7609031D02*
X3743991Y-7628079D01*
X3743991Y-7628079D02*
X3753515Y-7666174D01*
X3753515Y-7666174D02*
X3753515Y-7713793D01*
X3753515Y-7713793D02*
X3743991Y-7751888D01*
X3743991Y-7751888D02*
X3734467Y-7770936D01*
X3734467Y-7770936D02*
X3724944Y-7780460D01*
X3724944Y-7780460D02*
X3705896Y-7789984D01*
X3705896Y-7789984D02*
X3686848Y-7789984D01*
X3686848Y-7789984D02*
X3667801Y-7780460D01*
X3667801Y-7780460D02*
X3658277Y-7770936D01*
X3658277Y-7770936D02*
X3648753Y-7751888D01*
X3648753Y-7751888D02*
X3639229Y-7713793D01*
X3639229Y-7713793D02*
X3639229Y-7666174D01*
X3639229Y-7666174D02*
X3648753Y-7628079D01*
X3648753Y-7628079D02*
X3658277Y-7609031D01*
X3658277Y-7609031D02*
X3667801Y-7599508D01*
X3667801Y-7599508D02*
X3686848Y-7589984D01*
X3820182Y-7589984D02*
X3943991Y-7589984D01*
X3943991Y-7589984D02*
X3877325Y-7666174D01*
X3877325Y-7666174D02*
X3905896Y-7666174D01*
X3905896Y-7666174D02*
X3924944Y-7675698D01*
X3924944Y-7675698D02*
X3934467Y-7685222D01*
X3934467Y-7685222D02*
X3943991Y-7704269D01*
X3943991Y-7704269D02*
X3943991Y-7751888D01*
X3943991Y-7751888D02*
X3934467Y-7770936D01*
X3934467Y-7770936D02*
X3924944Y-7780460D01*
X3924944Y-7780460D02*
X3905896Y-7789984D01*
X3905896Y-7789984D02*
X3848753Y-7789984D01*
X3848753Y-7789984D02*
X3829706Y-7780460D01*
X3829706Y-7780460D02*
X3820182Y-7770936D01*
X4134467Y-7789984D02*
X4020182Y-7789984D01*
X4077325Y-7789984D02*
X4077325Y-7589984D01*
X4077325Y-7589984D02*
X4058277Y-7618555D01*
X4058277Y-7618555D02*
X4039229Y-7637603D01*
X4039229Y-7637603D02*
X4020182Y-7647127D01*
X4315420Y-7589984D02*
X4220182Y-7589984D01*
X4220182Y-7589984D02*
X4210658Y-7685222D01*
X4210658Y-7685222D02*
X4220182Y-7675698D01*
X4220182Y-7675698D02*
X4239229Y-7666174D01*
X4239229Y-7666174D02*
X4286849Y-7666174D01*
X4286849Y-7666174D02*
X4305896Y-7675698D01*
X4305896Y-7675698D02*
X4315420Y-7685222D01*
X4315420Y-7685222D02*
X4324944Y-7704269D01*
X4324944Y-7704269D02*
X4324944Y-7751888D01*
X4324944Y-7751888D02*
X4315420Y-7770936D01*
X4315420Y-7770936D02*
X4305896Y-7780460D01*
X4305896Y-7780460D02*
X4286849Y-7789984D01*
X4286849Y-7789984D02*
X4239229Y-7789984D01*
X4239229Y-7789984D02*
X4220182Y-7780460D01*
X4220182Y-7780460D02*
X4210658Y-7770936D01*
X4401134Y-7589984D02*
X4401134Y-7628079D01*
X4477325Y-7589984D02*
X4477325Y-7628079D01*
X4772563Y-7866174D02*
X4763039Y-7856650D01*
X4763039Y-7856650D02*
X4743991Y-7828079D01*
X4743991Y-7828079D02*
X4734468Y-7809031D01*
X4734468Y-7809031D02*
X4724944Y-7780460D01*
X4724944Y-7780460D02*
X4715420Y-7732841D01*
X4715420Y-7732841D02*
X4715420Y-7694746D01*
X4715420Y-7694746D02*
X4724944Y-7647127D01*
X4724944Y-7647127D02*
X4734468Y-7618555D01*
X4734468Y-7618555D02*
X4743991Y-7599508D01*
X4743991Y-7599508D02*
X4763039Y-7570936D01*
X4763039Y-7570936D02*
X4772563Y-7561412D01*
X4886849Y-7589984D02*
X4905896Y-7589984D01*
X4905896Y-7589984D02*
X4924944Y-7599508D01*
X4924944Y-7599508D02*
X4934468Y-7609031D01*
X4934468Y-7609031D02*
X4943991Y-7628079D01*
X4943991Y-7628079D02*
X4953515Y-7666174D01*
X4953515Y-7666174D02*
X4953515Y-7713793D01*
X4953515Y-7713793D02*
X4943991Y-7751888D01*
X4943991Y-7751888D02*
X4934468Y-7770936D01*
X4934468Y-7770936D02*
X4924944Y-7780460D01*
X4924944Y-7780460D02*
X4905896Y-7789984D01*
X4905896Y-7789984D02*
X4886849Y-7789984D01*
X4886849Y-7789984D02*
X4867801Y-7780460D01*
X4867801Y-7780460D02*
X4858277Y-7770936D01*
X4858277Y-7770936D02*
X4848753Y-7751888D01*
X4848753Y-7751888D02*
X4839230Y-7713793D01*
X4839230Y-7713793D02*
X4839230Y-7666174D01*
X4839230Y-7666174D02*
X4848753Y-7628079D01*
X4848753Y-7628079D02*
X4858277Y-7609031D01*
X4858277Y-7609031D02*
X4867801Y-7599508D01*
X4867801Y-7599508D02*
X4886849Y-7589984D01*
X5191611Y-7789984D02*
X5191611Y-7589984D01*
X5277325Y-7789984D02*
X5277325Y-7685222D01*
X5277325Y-7685222D02*
X5267801Y-7666174D01*
X5267801Y-7666174D02*
X5248753Y-7656650D01*
X5248753Y-7656650D02*
X5220182Y-7656650D01*
X5220182Y-7656650D02*
X5201134Y-7666174D01*
X5201134Y-7666174D02*
X5191611Y-7675698D01*
X5401134Y-7789984D02*
X5382087Y-7780460D01*
X5382087Y-7780460D02*
X5372563Y-7770936D01*
X5372563Y-7770936D02*
X5363039Y-7751888D01*
X5363039Y-7751888D02*
X5363039Y-7694746D01*
X5363039Y-7694746D02*
X5372563Y-7675698D01*
X5372563Y-7675698D02*
X5382087Y-7666174D01*
X5382087Y-7666174D02*
X5401134Y-7656650D01*
X5401134Y-7656650D02*
X5429706Y-7656650D01*
X5429706Y-7656650D02*
X5448753Y-7666174D01*
X5448753Y-7666174D02*
X5458277Y-7675698D01*
X5458277Y-7675698D02*
X5467801Y-7694746D01*
X5467801Y-7694746D02*
X5467801Y-7751888D01*
X5467801Y-7751888D02*
X5458277Y-7770936D01*
X5458277Y-7770936D02*
X5448753Y-7780460D01*
X5448753Y-7780460D02*
X5429706Y-7789984D01*
X5429706Y-7789984D02*
X5401134Y-7789984D01*
X5582087Y-7789984D02*
X5563039Y-7780460D01*
X5563039Y-7780460D02*
X5553515Y-7761412D01*
X5553515Y-7761412D02*
X5553515Y-7589984D01*
X5734468Y-7780460D02*
X5715420Y-7789984D01*
X5715420Y-7789984D02*
X5677325Y-7789984D01*
X5677325Y-7789984D02*
X5658277Y-7780460D01*
X5658277Y-7780460D02*
X5648753Y-7761412D01*
X5648753Y-7761412D02*
X5648753Y-7685222D01*
X5648753Y-7685222D02*
X5658277Y-7666174D01*
X5658277Y-7666174D02*
X5677325Y-7656650D01*
X5677325Y-7656650D02*
X5715420Y-7656650D01*
X5715420Y-7656650D02*
X5734468Y-7666174D01*
X5734468Y-7666174D02*
X5743991Y-7685222D01*
X5743991Y-7685222D02*
X5743991Y-7704269D01*
X5743991Y-7704269D02*
X5648753Y-7723317D01*
X5820182Y-7780460D02*
X5839230Y-7789984D01*
X5839230Y-7789984D02*
X5877325Y-7789984D01*
X5877325Y-7789984D02*
X5896372Y-7780460D01*
X5896372Y-7780460D02*
X5905896Y-7761412D01*
X5905896Y-7761412D02*
X5905896Y-7751888D01*
X5905896Y-7751888D02*
X5896372Y-7732841D01*
X5896372Y-7732841D02*
X5877325Y-7723317D01*
X5877325Y-7723317D02*
X5848753Y-7723317D01*
X5848753Y-7723317D02*
X5829706Y-7713793D01*
X5829706Y-7713793D02*
X5820182Y-7694746D01*
X5820182Y-7694746D02*
X5820182Y-7685222D01*
X5820182Y-7685222D02*
X5829706Y-7666174D01*
X5829706Y-7666174D02*
X5848753Y-7656650D01*
X5848753Y-7656650D02*
X5877325Y-7656650D01*
X5877325Y-7656650D02*
X5896372Y-7666174D01*
X6143992Y-7713793D02*
X6296373Y-7713793D01*
X6220182Y-7789984D02*
X6220182Y-7637603D01*
X6629706Y-7656650D02*
X6629706Y-7789984D01*
X6582087Y-7580460D02*
X6534468Y-7723317D01*
X6534468Y-7723317D02*
X6658277Y-7723317D01*
X6877325Y-7780460D02*
X6896373Y-7789984D01*
X6896373Y-7789984D02*
X6934468Y-7789984D01*
X6934468Y-7789984D02*
X6953515Y-7780460D01*
X6953515Y-7780460D02*
X6963039Y-7761412D01*
X6963039Y-7761412D02*
X6963039Y-7751888D01*
X6963039Y-7751888D02*
X6953515Y-7732841D01*
X6953515Y-7732841D02*
X6934468Y-7723317D01*
X6934468Y-7723317D02*
X6905896Y-7723317D01*
X6905896Y-7723317D02*
X6886849Y-7713793D01*
X6886849Y-7713793D02*
X6877325Y-7694746D01*
X6877325Y-7694746D02*
X6877325Y-7685222D01*
X6877325Y-7685222D02*
X6886849Y-7666174D01*
X6886849Y-7666174D02*
X6905896Y-7656650D01*
X6905896Y-7656650D02*
X6934468Y-7656650D01*
X6934468Y-7656650D02*
X6953515Y-7666174D01*
X7077325Y-7789984D02*
X7058277Y-7780460D01*
X7058277Y-7780460D02*
X7048754Y-7761412D01*
X7048754Y-7761412D02*
X7048754Y-7589984D01*
X7182087Y-7789984D02*
X7163039Y-7780460D01*
X7163039Y-7780460D02*
X7153515Y-7770936D01*
X7153515Y-7770936D02*
X7143992Y-7751888D01*
X7143992Y-7751888D02*
X7143992Y-7694746D01*
X7143992Y-7694746D02*
X7153515Y-7675698D01*
X7153515Y-7675698D02*
X7163039Y-7666174D01*
X7163039Y-7666174D02*
X7182087Y-7656650D01*
X7182087Y-7656650D02*
X7210658Y-7656650D01*
X7210658Y-7656650D02*
X7229706Y-7666174D01*
X7229706Y-7666174D02*
X7239230Y-7675698D01*
X7239230Y-7675698D02*
X7248754Y-7694746D01*
X7248754Y-7694746D02*
X7248754Y-7751888D01*
X7248754Y-7751888D02*
X7239230Y-7770936D01*
X7239230Y-7770936D02*
X7229706Y-7780460D01*
X7229706Y-7780460D02*
X7210658Y-7789984D01*
X7210658Y-7789984D02*
X7182087Y-7789984D01*
X7305896Y-7656650D02*
X7382087Y-7656650D01*
X7334468Y-7589984D02*
X7334468Y-7761412D01*
X7334468Y-7761412D02*
X7343992Y-7780460D01*
X7343992Y-7780460D02*
X7363039Y-7789984D01*
X7363039Y-7789984D02*
X7382087Y-7789984D01*
X7439230Y-7780460D02*
X7458277Y-7789984D01*
X7458277Y-7789984D02*
X7496373Y-7789984D01*
X7496373Y-7789984D02*
X7515420Y-7780460D01*
X7515420Y-7780460D02*
X7524944Y-7761412D01*
X7524944Y-7761412D02*
X7524944Y-7751888D01*
X7524944Y-7751888D02*
X7515420Y-7732841D01*
X7515420Y-7732841D02*
X7496373Y-7723317D01*
X7496373Y-7723317D02*
X7467801Y-7723317D01*
X7467801Y-7723317D02*
X7448754Y-7713793D01*
X7448754Y-7713793D02*
X7439230Y-7694746D01*
X7439230Y-7694746D02*
X7439230Y-7685222D01*
X7439230Y-7685222D02*
X7448754Y-7666174D01*
X7448754Y-7666174D02*
X7467801Y-7656650D01*
X7467801Y-7656650D02*
X7496373Y-7656650D01*
X7496373Y-7656650D02*
X7515420Y-7666174D01*
X7591611Y-7866174D02*
X7601135Y-7856650D01*
X7601135Y-7856650D02*
X7620182Y-7828079D01*
X7620182Y-7828079D02*
X7629706Y-7809031D01*
X7629706Y-7809031D02*
X7639230Y-7780460D01*
X7639230Y-7780460D02*
X7648754Y-7732841D01*
X7648754Y-7732841D02*
X7648754Y-7694746D01*
X7648754Y-7694746D02*
X7639230Y-7647127D01*
X7639230Y-7647127D02*
X7629706Y-7618555D01*
X7629706Y-7618555D02*
X7620182Y-7599508D01*
X7620182Y-7599508D02*
X7601135Y-7570936D01*
X7601135Y-7570936D02*
X7591611Y-7561412D01*
D12*
X1117500Y-7922500D02*
X1197500Y-8002500D01*
X1197500Y-7922500D02*
X1117500Y-8002500D01*
X1197500Y-7962500D02*
G75*
G02*
X1117500Y-7962500I-40000J0D01*
G01*
X1117500Y-7962500D02*
G75*
G02*
X1197500Y-7962500I40000J0D01*
G01*
D11*
X1496372Y-7853984D02*
X1515420Y-7853984D01*
X1515420Y-7853984D02*
X1534467Y-7863508D01*
X1534467Y-7863508D02*
X1543991Y-7873031D01*
X1543991Y-7873031D02*
X1553515Y-7892079D01*
X1553515Y-7892079D02*
X1563039Y-7930174D01*
X1563039Y-7930174D02*
X1563039Y-7977793D01*
X1563039Y-7977793D02*
X1553515Y-8015888D01*
X1553515Y-8015888D02*
X1543991Y-8034936D01*
X1543991Y-8034936D02*
X1534467Y-8044460D01*
X1534467Y-8044460D02*
X1515420Y-8053984D01*
X1515420Y-8053984D02*
X1496372Y-8053984D01*
X1496372Y-8053984D02*
X1477324Y-8044460D01*
X1477324Y-8044460D02*
X1467801Y-8034936D01*
X1467801Y-8034936D02*
X1458277Y-8015888D01*
X1458277Y-8015888D02*
X1448753Y-7977793D01*
X1448753Y-7977793D02*
X1448753Y-7930174D01*
X1448753Y-7930174D02*
X1458277Y-7892079D01*
X1458277Y-7892079D02*
X1467801Y-7873031D01*
X1467801Y-7873031D02*
X1477324Y-7863508D01*
X1477324Y-7863508D02*
X1496372Y-7853984D01*
X1648753Y-8034936D02*
X1658277Y-8044460D01*
X1658277Y-8044460D02*
X1648753Y-8053984D01*
X1648753Y-8053984D02*
X1639229Y-8044460D01*
X1639229Y-8044460D02*
X1648753Y-8034936D01*
X1648753Y-8034936D02*
X1648753Y-8053984D01*
X1772562Y-7939698D02*
X1753515Y-7930174D01*
X1753515Y-7930174D02*
X1743991Y-7920650D01*
X1743991Y-7920650D02*
X1734467Y-7901603D01*
X1734467Y-7901603D02*
X1734467Y-7892079D01*
X1734467Y-7892079D02*
X1743991Y-7873031D01*
X1743991Y-7873031D02*
X1753515Y-7863508D01*
X1753515Y-7863508D02*
X1772562Y-7853984D01*
X1772562Y-7853984D02*
X1810658Y-7853984D01*
X1810658Y-7853984D02*
X1829705Y-7863508D01*
X1829705Y-7863508D02*
X1839229Y-7873031D01*
X1839229Y-7873031D02*
X1848753Y-7892079D01*
X1848753Y-7892079D02*
X1848753Y-7901603D01*
X1848753Y-7901603D02*
X1839229Y-7920650D01*
X1839229Y-7920650D02*
X1829705Y-7930174D01*
X1829705Y-7930174D02*
X1810658Y-7939698D01*
X1810658Y-7939698D02*
X1772562Y-7939698D01*
X1772562Y-7939698D02*
X1753515Y-7949222D01*
X1753515Y-7949222D02*
X1743991Y-7958746D01*
X1743991Y-7958746D02*
X1734467Y-7977793D01*
X1734467Y-7977793D02*
X1734467Y-8015888D01*
X1734467Y-8015888D02*
X1743991Y-8034936D01*
X1743991Y-8034936D02*
X1753515Y-8044460D01*
X1753515Y-8044460D02*
X1772562Y-8053984D01*
X1772562Y-8053984D02*
X1810658Y-8053984D01*
X1810658Y-8053984D02*
X1829705Y-8044460D01*
X1829705Y-8044460D02*
X1839229Y-8034936D01*
X1839229Y-8034936D02*
X1848753Y-8015888D01*
X1848753Y-8015888D02*
X1848753Y-7977793D01*
X1848753Y-7977793D02*
X1839229Y-7958746D01*
X1839229Y-7958746D02*
X1829705Y-7949222D01*
X1829705Y-7949222D02*
X1810658Y-7939698D01*
X1972562Y-7853984D02*
X1991610Y-7853984D01*
X1991610Y-7853984D02*
X2010658Y-7863508D01*
X2010658Y-7863508D02*
X2020182Y-7873031D01*
X2020182Y-7873031D02*
X2029705Y-7892079D01*
X2029705Y-7892079D02*
X2039229Y-7930174D01*
X2039229Y-7930174D02*
X2039229Y-7977793D01*
X2039229Y-7977793D02*
X2029705Y-8015888D01*
X2029705Y-8015888D02*
X2020182Y-8034936D01*
X2020182Y-8034936D02*
X2010658Y-8044460D01*
X2010658Y-8044460D02*
X1991610Y-8053984D01*
X1991610Y-8053984D02*
X1972562Y-8053984D01*
X1972562Y-8053984D02*
X1953515Y-8044460D01*
X1953515Y-8044460D02*
X1943991Y-8034936D01*
X1943991Y-8034936D02*
X1934467Y-8015888D01*
X1934467Y-8015888D02*
X1924943Y-7977793D01*
X1924943Y-7977793D02*
X1924943Y-7930174D01*
X1924943Y-7930174D02*
X1934467Y-7892079D01*
X1934467Y-7892079D02*
X1943991Y-7873031D01*
X1943991Y-7873031D02*
X1953515Y-7863508D01*
X1953515Y-7863508D02*
X1972562Y-7853984D01*
X2163039Y-7853984D02*
X2182086Y-7853984D01*
X2182086Y-7853984D02*
X2201134Y-7863508D01*
X2201134Y-7863508D02*
X2210658Y-7873031D01*
X2210658Y-7873031D02*
X2220182Y-7892079D01*
X2220182Y-7892079D02*
X2229705Y-7930174D01*
X2229705Y-7930174D02*
X2229705Y-7977793D01*
X2229705Y-7977793D02*
X2220182Y-8015888D01*
X2220182Y-8015888D02*
X2210658Y-8034936D01*
X2210658Y-8034936D02*
X2201134Y-8044460D01*
X2201134Y-8044460D02*
X2182086Y-8053984D01*
X2182086Y-8053984D02*
X2163039Y-8053984D01*
X2163039Y-8053984D02*
X2143991Y-8044460D01*
X2143991Y-8044460D02*
X2134467Y-8034936D01*
X2134467Y-8034936D02*
X2124944Y-8015888D01*
X2124944Y-8015888D02*
X2115420Y-7977793D01*
X2115420Y-7977793D02*
X2115420Y-7930174D01*
X2115420Y-7930174D02*
X2124944Y-7892079D01*
X2124944Y-7892079D02*
X2134467Y-7873031D01*
X2134467Y-7873031D02*
X2143991Y-7863508D01*
X2143991Y-7863508D02*
X2163039Y-7853984D01*
X2315420Y-8053984D02*
X2315420Y-7920650D01*
X2315420Y-7939698D02*
X2324944Y-7930174D01*
X2324944Y-7930174D02*
X2343991Y-7920650D01*
X2343991Y-7920650D02*
X2372563Y-7920650D01*
X2372563Y-7920650D02*
X2391610Y-7930174D01*
X2391610Y-7930174D02*
X2401134Y-7949222D01*
X2401134Y-7949222D02*
X2401134Y-8053984D01*
X2401134Y-7949222D02*
X2410658Y-7930174D01*
X2410658Y-7930174D02*
X2429705Y-7920650D01*
X2429705Y-7920650D02*
X2458277Y-7920650D01*
X2458277Y-7920650D02*
X2477325Y-7930174D01*
X2477325Y-7930174D02*
X2486848Y-7949222D01*
X2486848Y-7949222D02*
X2486848Y-8053984D01*
X2582086Y-8053984D02*
X2582086Y-7920650D01*
X2582086Y-7939698D02*
X2591610Y-7930174D01*
X2591610Y-7930174D02*
X2610658Y-7920650D01*
X2610658Y-7920650D02*
X2639229Y-7920650D01*
X2639229Y-7920650D02*
X2658277Y-7930174D01*
X2658277Y-7930174D02*
X2667801Y-7949222D01*
X2667801Y-7949222D02*
X2667801Y-8053984D01*
X2667801Y-7949222D02*
X2677325Y-7930174D01*
X2677325Y-7930174D02*
X2696372Y-7920650D01*
X2696372Y-7920650D02*
X2724944Y-7920650D01*
X2724944Y-7920650D02*
X2743991Y-7930174D01*
X2743991Y-7930174D02*
X2753515Y-7949222D01*
X2753515Y-7949222D02*
X2753515Y-8053984D01*
X3143991Y-7844460D02*
X2972563Y-8101603D01*
X3401134Y-7853984D02*
X3420182Y-7853984D01*
X3420182Y-7853984D02*
X3439229Y-7863508D01*
X3439229Y-7863508D02*
X3448753Y-7873031D01*
X3448753Y-7873031D02*
X3458277Y-7892079D01*
X3458277Y-7892079D02*
X3467801Y-7930174D01*
X3467801Y-7930174D02*
X3467801Y-7977793D01*
X3467801Y-7977793D02*
X3458277Y-8015888D01*
X3458277Y-8015888D02*
X3448753Y-8034936D01*
X3448753Y-8034936D02*
X3439229Y-8044460D01*
X3439229Y-8044460D02*
X3420182Y-8053984D01*
X3420182Y-8053984D02*
X3401134Y-8053984D01*
X3401134Y-8053984D02*
X3382086Y-8044460D01*
X3382086Y-8044460D02*
X3372563Y-8034936D01*
X3372563Y-8034936D02*
X3363039Y-8015888D01*
X3363039Y-8015888D02*
X3353515Y-7977793D01*
X3353515Y-7977793D02*
X3353515Y-7930174D01*
X3353515Y-7930174D02*
X3363039Y-7892079D01*
X3363039Y-7892079D02*
X3372563Y-7873031D01*
X3372563Y-7873031D02*
X3382086Y-7863508D01*
X3382086Y-7863508D02*
X3401134Y-7853984D01*
X3553515Y-8034936D02*
X3563039Y-8044460D01*
X3563039Y-8044460D02*
X3553515Y-8053984D01*
X3553515Y-8053984D02*
X3543991Y-8044460D01*
X3543991Y-8044460D02*
X3553515Y-8034936D01*
X3553515Y-8034936D02*
X3553515Y-8053984D01*
X3686848Y-7853984D02*
X3705896Y-7853984D01*
X3705896Y-7853984D02*
X3724944Y-7863508D01*
X3724944Y-7863508D02*
X3734467Y-7873031D01*
X3734467Y-7873031D02*
X3743991Y-7892079D01*
X3743991Y-7892079D02*
X3753515Y-7930174D01*
X3753515Y-7930174D02*
X3753515Y-7977793D01*
X3753515Y-7977793D02*
X3743991Y-8015888D01*
X3743991Y-8015888D02*
X3734467Y-8034936D01*
X3734467Y-8034936D02*
X3724944Y-8044460D01*
X3724944Y-8044460D02*
X3705896Y-8053984D01*
X3705896Y-8053984D02*
X3686848Y-8053984D01*
X3686848Y-8053984D02*
X3667801Y-8044460D01*
X3667801Y-8044460D02*
X3658277Y-8034936D01*
X3658277Y-8034936D02*
X3648753Y-8015888D01*
X3648753Y-8015888D02*
X3639229Y-7977793D01*
X3639229Y-7977793D02*
X3639229Y-7930174D01*
X3639229Y-7930174D02*
X3648753Y-7892079D01*
X3648753Y-7892079D02*
X3658277Y-7873031D01*
X3658277Y-7873031D02*
X3667801Y-7863508D01*
X3667801Y-7863508D02*
X3686848Y-7853984D01*
X3820182Y-7853984D02*
X3943991Y-7853984D01*
X3943991Y-7853984D02*
X3877325Y-7930174D01*
X3877325Y-7930174D02*
X3905896Y-7930174D01*
X3905896Y-7930174D02*
X3924944Y-7939698D01*
X3924944Y-7939698D02*
X3934467Y-7949222D01*
X3934467Y-7949222D02*
X3943991Y-7968269D01*
X3943991Y-7968269D02*
X3943991Y-8015888D01*
X3943991Y-8015888D02*
X3934467Y-8034936D01*
X3934467Y-8034936D02*
X3924944Y-8044460D01*
X3924944Y-8044460D02*
X3905896Y-8053984D01*
X3905896Y-8053984D02*
X3848753Y-8053984D01*
X3848753Y-8053984D02*
X3829706Y-8044460D01*
X3829706Y-8044460D02*
X3820182Y-8034936D01*
X4134467Y-8053984D02*
X4020182Y-8053984D01*
X4077325Y-8053984D02*
X4077325Y-7853984D01*
X4077325Y-7853984D02*
X4058277Y-7882555D01*
X4058277Y-7882555D02*
X4039229Y-7901603D01*
X4039229Y-7901603D02*
X4020182Y-7911127D01*
X4315420Y-7853984D02*
X4220182Y-7853984D01*
X4220182Y-7853984D02*
X4210658Y-7949222D01*
X4210658Y-7949222D02*
X4220182Y-7939698D01*
X4220182Y-7939698D02*
X4239229Y-7930174D01*
X4239229Y-7930174D02*
X4286849Y-7930174D01*
X4286849Y-7930174D02*
X4305896Y-7939698D01*
X4305896Y-7939698D02*
X4315420Y-7949222D01*
X4315420Y-7949222D02*
X4324944Y-7968269D01*
X4324944Y-7968269D02*
X4324944Y-8015888D01*
X4324944Y-8015888D02*
X4315420Y-8034936D01*
X4315420Y-8034936D02*
X4305896Y-8044460D01*
X4305896Y-8044460D02*
X4286849Y-8053984D01*
X4286849Y-8053984D02*
X4239229Y-8053984D01*
X4239229Y-8053984D02*
X4220182Y-8044460D01*
X4220182Y-8044460D02*
X4210658Y-8034936D01*
X4401134Y-7853984D02*
X4401134Y-7892079D01*
X4477325Y-7853984D02*
X4477325Y-7892079D01*
X4772563Y-8130174D02*
X4763039Y-8120650D01*
X4763039Y-8120650D02*
X4743991Y-8092079D01*
X4743991Y-8092079D02*
X4734468Y-8073031D01*
X4734468Y-8073031D02*
X4724944Y-8044460D01*
X4724944Y-8044460D02*
X4715420Y-7996841D01*
X4715420Y-7996841D02*
X4715420Y-7958746D01*
X4715420Y-7958746D02*
X4724944Y-7911127D01*
X4724944Y-7911127D02*
X4734468Y-7882555D01*
X4734468Y-7882555D02*
X4743991Y-7863508D01*
X4743991Y-7863508D02*
X4763039Y-7834936D01*
X4763039Y-7834936D02*
X4772563Y-7825412D01*
X4953515Y-8053984D02*
X4839230Y-8053984D01*
X4896372Y-8053984D02*
X4896372Y-7853984D01*
X4896372Y-7853984D02*
X4877325Y-7882555D01*
X4877325Y-7882555D02*
X4858277Y-7901603D01*
X4858277Y-7901603D02*
X4839230Y-7911127D01*
X5077325Y-7853984D02*
X5096372Y-7853984D01*
X5096372Y-7853984D02*
X5115420Y-7863508D01*
X5115420Y-7863508D02*
X5124944Y-7873031D01*
X5124944Y-7873031D02*
X5134468Y-7892079D01*
X5134468Y-7892079D02*
X5143991Y-7930174D01*
X5143991Y-7930174D02*
X5143991Y-7977793D01*
X5143991Y-7977793D02*
X5134468Y-8015888D01*
X5134468Y-8015888D02*
X5124944Y-8034936D01*
X5124944Y-8034936D02*
X5115420Y-8044460D01*
X5115420Y-8044460D02*
X5096372Y-8053984D01*
X5096372Y-8053984D02*
X5077325Y-8053984D01*
X5077325Y-8053984D02*
X5058277Y-8044460D01*
X5058277Y-8044460D02*
X5048753Y-8034936D01*
X5048753Y-8034936D02*
X5039230Y-8015888D01*
X5039230Y-8015888D02*
X5029706Y-7977793D01*
X5029706Y-7977793D02*
X5029706Y-7930174D01*
X5029706Y-7930174D02*
X5039230Y-7892079D01*
X5039230Y-7892079D02*
X5048753Y-7873031D01*
X5048753Y-7873031D02*
X5058277Y-7863508D01*
X5058277Y-7863508D02*
X5077325Y-7853984D01*
X5382087Y-8053984D02*
X5382087Y-7853984D01*
X5467801Y-8053984D02*
X5467801Y-7949222D01*
X5467801Y-7949222D02*
X5458277Y-7930174D01*
X5458277Y-7930174D02*
X5439230Y-7920650D01*
X5439230Y-7920650D02*
X5410658Y-7920650D01*
X5410658Y-7920650D02*
X5391611Y-7930174D01*
X5391611Y-7930174D02*
X5382087Y-7939698D01*
X5591611Y-8053984D02*
X5572563Y-8044460D01*
X5572563Y-8044460D02*
X5563039Y-8034936D01*
X5563039Y-8034936D02*
X5553515Y-8015888D01*
X5553515Y-8015888D02*
X5553515Y-7958746D01*
X5553515Y-7958746D02*
X5563039Y-7939698D01*
X5563039Y-7939698D02*
X5572563Y-7930174D01*
X5572563Y-7930174D02*
X5591611Y-7920650D01*
X5591611Y-7920650D02*
X5620182Y-7920650D01*
X5620182Y-7920650D02*
X5639230Y-7930174D01*
X5639230Y-7930174D02*
X5648753Y-7939698D01*
X5648753Y-7939698D02*
X5658277Y-7958746D01*
X5658277Y-7958746D02*
X5658277Y-8015888D01*
X5658277Y-8015888D02*
X5648753Y-8034936D01*
X5648753Y-8034936D02*
X5639230Y-8044460D01*
X5639230Y-8044460D02*
X5620182Y-8053984D01*
X5620182Y-8053984D02*
X5591611Y-8053984D01*
X5772563Y-8053984D02*
X5753515Y-8044460D01*
X5753515Y-8044460D02*
X5743991Y-8025412D01*
X5743991Y-8025412D02*
X5743991Y-7853984D01*
X5924944Y-8044460D02*
X5905896Y-8053984D01*
X5905896Y-8053984D02*
X5867801Y-8053984D01*
X5867801Y-8053984D02*
X5848753Y-8044460D01*
X5848753Y-8044460D02*
X5839230Y-8025412D01*
X5839230Y-8025412D02*
X5839230Y-7949222D01*
X5839230Y-7949222D02*
X5848753Y-7930174D01*
X5848753Y-7930174D02*
X5867801Y-7920650D01*
X5867801Y-7920650D02*
X5905896Y-7920650D01*
X5905896Y-7920650D02*
X5924944Y-7930174D01*
X5924944Y-7930174D02*
X5934468Y-7949222D01*
X5934468Y-7949222D02*
X5934468Y-7968269D01*
X5934468Y-7968269D02*
X5839230Y-7987317D01*
X6010658Y-8044460D02*
X6029706Y-8053984D01*
X6029706Y-8053984D02*
X6067801Y-8053984D01*
X6067801Y-8053984D02*
X6086849Y-8044460D01*
X6086849Y-8044460D02*
X6096372Y-8025412D01*
X6096372Y-8025412D02*
X6096372Y-8015888D01*
X6096372Y-8015888D02*
X6086849Y-7996841D01*
X6086849Y-7996841D02*
X6067801Y-7987317D01*
X6067801Y-7987317D02*
X6039230Y-7987317D01*
X6039230Y-7987317D02*
X6020182Y-7977793D01*
X6020182Y-7977793D02*
X6010658Y-7958746D01*
X6010658Y-7958746D02*
X6010658Y-7949222D01*
X6010658Y-7949222D02*
X6020182Y-7930174D01*
X6020182Y-7930174D02*
X6039230Y-7920650D01*
X6039230Y-7920650D02*
X6067801Y-7920650D01*
X6067801Y-7920650D02*
X6086849Y-7930174D01*
X6163039Y-8130174D02*
X6172563Y-8120650D01*
X6172563Y-8120650D02*
X6191611Y-8092079D01*
X6191611Y-8092079D02*
X6201134Y-8073031D01*
X6201134Y-8073031D02*
X6210658Y-8044460D01*
X6210658Y-8044460D02*
X6220182Y-7996841D01*
X6220182Y-7996841D02*
X6220182Y-7958746D01*
X6220182Y-7958746D02*
X6210658Y-7911127D01*
X6210658Y-7911127D02*
X6201134Y-7882555D01*
X6201134Y-7882555D02*
X6191611Y-7863508D01*
X6191611Y-7863508D02*
X6172563Y-7834936D01*
X6172563Y-7834936D02*
X6163039Y-7825412D01*
D12*
X1097500Y-8176500D02*
X1197500Y-8276500D01*
X1197500Y-8176500D02*
X1097500Y-8276500D01*
X1147500Y-8176500D02*
X1147500Y-8276500D01*
X1097500Y-8226500D02*
X1197500Y-8226500D01*
D11*
X1563039Y-8317984D02*
X1448753Y-8317984D01*
X1505896Y-8317984D02*
X1505896Y-8117984D01*
X1505896Y-8117984D02*
X1486848Y-8146555D01*
X1486848Y-8146555D02*
X1467801Y-8165603D01*
X1467801Y-8165603D02*
X1448753Y-8175127D01*
X1648753Y-8298936D02*
X1658277Y-8308460D01*
X1658277Y-8308460D02*
X1648753Y-8317984D01*
X1648753Y-8317984D02*
X1639229Y-8308460D01*
X1639229Y-8308460D02*
X1648753Y-8298936D01*
X1648753Y-8298936D02*
X1648753Y-8317984D01*
X1782086Y-8117984D02*
X1801134Y-8117984D01*
X1801134Y-8117984D02*
X1820182Y-8127508D01*
X1820182Y-8127508D02*
X1829705Y-8137031D01*
X1829705Y-8137031D02*
X1839229Y-8156079D01*
X1839229Y-8156079D02*
X1848753Y-8194174D01*
X1848753Y-8194174D02*
X1848753Y-8241793D01*
X1848753Y-8241793D02*
X1839229Y-8279888D01*
X1839229Y-8279888D02*
X1829705Y-8298936D01*
X1829705Y-8298936D02*
X1820182Y-8308460D01*
X1820182Y-8308460D02*
X1801134Y-8317984D01*
X1801134Y-8317984D02*
X1782086Y-8317984D01*
X1782086Y-8317984D02*
X1763039Y-8308460D01*
X1763039Y-8308460D02*
X1753515Y-8298936D01*
X1753515Y-8298936D02*
X1743991Y-8279888D01*
X1743991Y-8279888D02*
X1734467Y-8241793D01*
X1734467Y-8241793D02*
X1734467Y-8194174D01*
X1734467Y-8194174D02*
X1743991Y-8156079D01*
X1743991Y-8156079D02*
X1753515Y-8137031D01*
X1753515Y-8137031D02*
X1763039Y-8127508D01*
X1763039Y-8127508D02*
X1782086Y-8117984D01*
X1972562Y-8117984D02*
X1991610Y-8117984D01*
X1991610Y-8117984D02*
X2010658Y-8127508D01*
X2010658Y-8127508D02*
X2020182Y-8137031D01*
X2020182Y-8137031D02*
X2029705Y-8156079D01*
X2029705Y-8156079D02*
X2039229Y-8194174D01*
X2039229Y-8194174D02*
X2039229Y-8241793D01*
X2039229Y-8241793D02*
X2029705Y-8279888D01*
X2029705Y-8279888D02*
X2020182Y-8298936D01*
X2020182Y-8298936D02*
X2010658Y-8308460D01*
X2010658Y-8308460D02*
X1991610Y-8317984D01*
X1991610Y-8317984D02*
X1972562Y-8317984D01*
X1972562Y-8317984D02*
X1953515Y-8308460D01*
X1953515Y-8308460D02*
X1943991Y-8298936D01*
X1943991Y-8298936D02*
X1934467Y-8279888D01*
X1934467Y-8279888D02*
X1924943Y-8241793D01*
X1924943Y-8241793D02*
X1924943Y-8194174D01*
X1924943Y-8194174D02*
X1934467Y-8156079D01*
X1934467Y-8156079D02*
X1943991Y-8137031D01*
X1943991Y-8137031D02*
X1953515Y-8127508D01*
X1953515Y-8127508D02*
X1972562Y-8117984D01*
X2163039Y-8117984D02*
X2182086Y-8117984D01*
X2182086Y-8117984D02*
X2201134Y-8127508D01*
X2201134Y-8127508D02*
X2210658Y-8137031D01*
X2210658Y-8137031D02*
X2220182Y-8156079D01*
X2220182Y-8156079D02*
X2229705Y-8194174D01*
X2229705Y-8194174D02*
X2229705Y-8241793D01*
X2229705Y-8241793D02*
X2220182Y-8279888D01*
X2220182Y-8279888D02*
X2210658Y-8298936D01*
X2210658Y-8298936D02*
X2201134Y-8308460D01*
X2201134Y-8308460D02*
X2182086Y-8317984D01*
X2182086Y-8317984D02*
X2163039Y-8317984D01*
X2163039Y-8317984D02*
X2143991Y-8308460D01*
X2143991Y-8308460D02*
X2134467Y-8298936D01*
X2134467Y-8298936D02*
X2124944Y-8279888D01*
X2124944Y-8279888D02*
X2115420Y-8241793D01*
X2115420Y-8241793D02*
X2115420Y-8194174D01*
X2115420Y-8194174D02*
X2124944Y-8156079D01*
X2124944Y-8156079D02*
X2134467Y-8137031D01*
X2134467Y-8137031D02*
X2143991Y-8127508D01*
X2143991Y-8127508D02*
X2163039Y-8117984D01*
X2315420Y-8317984D02*
X2315420Y-8184650D01*
X2315420Y-8203698D02*
X2324944Y-8194174D01*
X2324944Y-8194174D02*
X2343991Y-8184650D01*
X2343991Y-8184650D02*
X2372563Y-8184650D01*
X2372563Y-8184650D02*
X2391610Y-8194174D01*
X2391610Y-8194174D02*
X2401134Y-8213222D01*
X2401134Y-8213222D02*
X2401134Y-8317984D01*
X2401134Y-8213222D02*
X2410658Y-8194174D01*
X2410658Y-8194174D02*
X2429705Y-8184650D01*
X2429705Y-8184650D02*
X2458277Y-8184650D01*
X2458277Y-8184650D02*
X2477325Y-8194174D01*
X2477325Y-8194174D02*
X2486848Y-8213222D01*
X2486848Y-8213222D02*
X2486848Y-8317984D01*
X2582086Y-8317984D02*
X2582086Y-8184650D01*
X2582086Y-8203698D02*
X2591610Y-8194174D01*
X2591610Y-8194174D02*
X2610658Y-8184650D01*
X2610658Y-8184650D02*
X2639229Y-8184650D01*
X2639229Y-8184650D02*
X2658277Y-8194174D01*
X2658277Y-8194174D02*
X2667801Y-8213222D01*
X2667801Y-8213222D02*
X2667801Y-8317984D01*
X2667801Y-8213222D02*
X2677325Y-8194174D01*
X2677325Y-8194174D02*
X2696372Y-8184650D01*
X2696372Y-8184650D02*
X2724944Y-8184650D01*
X2724944Y-8184650D02*
X2743991Y-8194174D01*
X2743991Y-8194174D02*
X2753515Y-8213222D01*
X2753515Y-8213222D02*
X2753515Y-8317984D01*
X3143991Y-8108460D02*
X2972563Y-8365603D01*
X3401134Y-8117984D02*
X3420182Y-8117984D01*
X3420182Y-8117984D02*
X3439229Y-8127508D01*
X3439229Y-8127508D02*
X3448753Y-8137031D01*
X3448753Y-8137031D02*
X3458277Y-8156079D01*
X3458277Y-8156079D02*
X3467801Y-8194174D01*
X3467801Y-8194174D02*
X3467801Y-8241793D01*
X3467801Y-8241793D02*
X3458277Y-8279888D01*
X3458277Y-8279888D02*
X3448753Y-8298936D01*
X3448753Y-8298936D02*
X3439229Y-8308460D01*
X3439229Y-8308460D02*
X3420182Y-8317984D01*
X3420182Y-8317984D02*
X3401134Y-8317984D01*
X3401134Y-8317984D02*
X3382086Y-8308460D01*
X3382086Y-8308460D02*
X3372563Y-8298936D01*
X3372563Y-8298936D02*
X3363039Y-8279888D01*
X3363039Y-8279888D02*
X3353515Y-8241793D01*
X3353515Y-8241793D02*
X3353515Y-8194174D01*
X3353515Y-8194174D02*
X3363039Y-8156079D01*
X3363039Y-8156079D02*
X3372563Y-8137031D01*
X3372563Y-8137031D02*
X3382086Y-8127508D01*
X3382086Y-8127508D02*
X3401134Y-8117984D01*
X3553515Y-8298936D02*
X3563039Y-8308460D01*
X3563039Y-8308460D02*
X3553515Y-8317984D01*
X3553515Y-8317984D02*
X3543991Y-8308460D01*
X3543991Y-8308460D02*
X3553515Y-8298936D01*
X3553515Y-8298936D02*
X3553515Y-8317984D01*
X3686848Y-8117984D02*
X3705896Y-8117984D01*
X3705896Y-8117984D02*
X3724944Y-8127508D01*
X3724944Y-8127508D02*
X3734467Y-8137031D01*
X3734467Y-8137031D02*
X3743991Y-8156079D01*
X3743991Y-8156079D02*
X3753515Y-8194174D01*
X3753515Y-8194174D02*
X3753515Y-8241793D01*
X3753515Y-8241793D02*
X3743991Y-8279888D01*
X3743991Y-8279888D02*
X3734467Y-8298936D01*
X3734467Y-8298936D02*
X3724944Y-8308460D01*
X3724944Y-8308460D02*
X3705896Y-8317984D01*
X3705896Y-8317984D02*
X3686848Y-8317984D01*
X3686848Y-8317984D02*
X3667801Y-8308460D01*
X3667801Y-8308460D02*
X3658277Y-8298936D01*
X3658277Y-8298936D02*
X3648753Y-8279888D01*
X3648753Y-8279888D02*
X3639229Y-8241793D01*
X3639229Y-8241793D02*
X3639229Y-8194174D01*
X3639229Y-8194174D02*
X3648753Y-8156079D01*
X3648753Y-8156079D02*
X3658277Y-8137031D01*
X3658277Y-8137031D02*
X3667801Y-8127508D01*
X3667801Y-8127508D02*
X3686848Y-8117984D01*
X3820182Y-8117984D02*
X3943991Y-8117984D01*
X3943991Y-8117984D02*
X3877325Y-8194174D01*
X3877325Y-8194174D02*
X3905896Y-8194174D01*
X3905896Y-8194174D02*
X3924944Y-8203698D01*
X3924944Y-8203698D02*
X3934467Y-8213222D01*
X3934467Y-8213222D02*
X3943991Y-8232269D01*
X3943991Y-8232269D02*
X3943991Y-8279888D01*
X3943991Y-8279888D02*
X3934467Y-8298936D01*
X3934467Y-8298936D02*
X3924944Y-8308460D01*
X3924944Y-8308460D02*
X3905896Y-8317984D01*
X3905896Y-8317984D02*
X3848753Y-8317984D01*
X3848753Y-8317984D02*
X3829706Y-8308460D01*
X3829706Y-8308460D02*
X3820182Y-8298936D01*
X4039229Y-8317984D02*
X4077325Y-8317984D01*
X4077325Y-8317984D02*
X4096372Y-8308460D01*
X4096372Y-8308460D02*
X4105896Y-8298936D01*
X4105896Y-8298936D02*
X4124944Y-8270365D01*
X4124944Y-8270365D02*
X4134467Y-8232269D01*
X4134467Y-8232269D02*
X4134467Y-8156079D01*
X4134467Y-8156079D02*
X4124944Y-8137031D01*
X4124944Y-8137031D02*
X4115420Y-8127508D01*
X4115420Y-8127508D02*
X4096372Y-8117984D01*
X4096372Y-8117984D02*
X4058277Y-8117984D01*
X4058277Y-8117984D02*
X4039229Y-8127508D01*
X4039229Y-8127508D02*
X4029706Y-8137031D01*
X4029706Y-8137031D02*
X4020182Y-8156079D01*
X4020182Y-8156079D02*
X4020182Y-8203698D01*
X4020182Y-8203698D02*
X4029706Y-8222746D01*
X4029706Y-8222746D02*
X4039229Y-8232269D01*
X4039229Y-8232269D02*
X4058277Y-8241793D01*
X4058277Y-8241793D02*
X4096372Y-8241793D01*
X4096372Y-8241793D02*
X4115420Y-8232269D01*
X4115420Y-8232269D02*
X4124944Y-8222746D01*
X4124944Y-8222746D02*
X4134467Y-8203698D01*
X4305896Y-8184650D02*
X4305896Y-8317984D01*
X4258277Y-8108460D02*
X4210658Y-8251317D01*
X4210658Y-8251317D02*
X4334468Y-8251317D01*
X4401134Y-8117984D02*
X4401134Y-8156079D01*
X4477325Y-8117984D02*
X4477325Y-8156079D01*
X4772563Y-8394174D02*
X4763039Y-8384650D01*
X4763039Y-8384650D02*
X4743991Y-8356079D01*
X4743991Y-8356079D02*
X4734468Y-8337031D01*
X4734468Y-8337031D02*
X4724944Y-8308460D01*
X4724944Y-8308460D02*
X4715420Y-8260841D01*
X4715420Y-8260841D02*
X4715420Y-8222746D01*
X4715420Y-8222746D02*
X4724944Y-8175127D01*
X4724944Y-8175127D02*
X4734468Y-8146555D01*
X4734468Y-8146555D02*
X4743991Y-8127508D01*
X4743991Y-8127508D02*
X4763039Y-8098936D01*
X4763039Y-8098936D02*
X4772563Y-8089412D01*
X4829706Y-8117984D02*
X4953515Y-8117984D01*
X4953515Y-8117984D02*
X4886849Y-8194174D01*
X4886849Y-8194174D02*
X4915420Y-8194174D01*
X4915420Y-8194174D02*
X4934468Y-8203698D01*
X4934468Y-8203698D02*
X4943991Y-8213222D01*
X4943991Y-8213222D02*
X4953515Y-8232269D01*
X4953515Y-8232269D02*
X4953515Y-8279888D01*
X4953515Y-8279888D02*
X4943991Y-8298936D01*
X4943991Y-8298936D02*
X4934468Y-8308460D01*
X4934468Y-8308460D02*
X4915420Y-8317984D01*
X4915420Y-8317984D02*
X4858277Y-8317984D01*
X4858277Y-8317984D02*
X4839230Y-8308460D01*
X4839230Y-8308460D02*
X4829706Y-8298936D01*
X5191611Y-8317984D02*
X5191611Y-8117984D01*
X5277325Y-8317984D02*
X5277325Y-8213222D01*
X5277325Y-8213222D02*
X5267801Y-8194174D01*
X5267801Y-8194174D02*
X5248753Y-8184650D01*
X5248753Y-8184650D02*
X5220182Y-8184650D01*
X5220182Y-8184650D02*
X5201134Y-8194174D01*
X5201134Y-8194174D02*
X5191611Y-8203698D01*
X5401134Y-8317984D02*
X5382087Y-8308460D01*
X5382087Y-8308460D02*
X5372563Y-8298936D01*
X5372563Y-8298936D02*
X5363039Y-8279888D01*
X5363039Y-8279888D02*
X5363039Y-8222746D01*
X5363039Y-8222746D02*
X5372563Y-8203698D01*
X5372563Y-8203698D02*
X5382087Y-8194174D01*
X5382087Y-8194174D02*
X5401134Y-8184650D01*
X5401134Y-8184650D02*
X5429706Y-8184650D01*
X5429706Y-8184650D02*
X5448753Y-8194174D01*
X5448753Y-8194174D02*
X5458277Y-8203698D01*
X5458277Y-8203698D02*
X5467801Y-8222746D01*
X5467801Y-8222746D02*
X5467801Y-8279888D01*
X5467801Y-8279888D02*
X5458277Y-8298936D01*
X5458277Y-8298936D02*
X5448753Y-8308460D01*
X5448753Y-8308460D02*
X5429706Y-8317984D01*
X5429706Y-8317984D02*
X5401134Y-8317984D01*
X5582087Y-8317984D02*
X5563039Y-8308460D01*
X5563039Y-8308460D02*
X5553515Y-8289412D01*
X5553515Y-8289412D02*
X5553515Y-8117984D01*
X5734468Y-8308460D02*
X5715420Y-8317984D01*
X5715420Y-8317984D02*
X5677325Y-8317984D01*
X5677325Y-8317984D02*
X5658277Y-8308460D01*
X5658277Y-8308460D02*
X5648753Y-8289412D01*
X5648753Y-8289412D02*
X5648753Y-8213222D01*
X5648753Y-8213222D02*
X5658277Y-8194174D01*
X5658277Y-8194174D02*
X5677325Y-8184650D01*
X5677325Y-8184650D02*
X5715420Y-8184650D01*
X5715420Y-8184650D02*
X5734468Y-8194174D01*
X5734468Y-8194174D02*
X5743991Y-8213222D01*
X5743991Y-8213222D02*
X5743991Y-8232269D01*
X5743991Y-8232269D02*
X5648753Y-8251317D01*
X5820182Y-8308460D02*
X5839230Y-8317984D01*
X5839230Y-8317984D02*
X5877325Y-8317984D01*
X5877325Y-8317984D02*
X5896372Y-8308460D01*
X5896372Y-8308460D02*
X5905896Y-8289412D01*
X5905896Y-8289412D02*
X5905896Y-8279888D01*
X5905896Y-8279888D02*
X5896372Y-8260841D01*
X5896372Y-8260841D02*
X5877325Y-8251317D01*
X5877325Y-8251317D02*
X5848753Y-8251317D01*
X5848753Y-8251317D02*
X5829706Y-8241793D01*
X5829706Y-8241793D02*
X5820182Y-8222746D01*
X5820182Y-8222746D02*
X5820182Y-8213222D01*
X5820182Y-8213222D02*
X5829706Y-8194174D01*
X5829706Y-8194174D02*
X5848753Y-8184650D01*
X5848753Y-8184650D02*
X5877325Y-8184650D01*
X5877325Y-8184650D02*
X5896372Y-8194174D01*
X5972563Y-8394174D02*
X5982087Y-8384650D01*
X5982087Y-8384650D02*
X6001134Y-8356079D01*
X6001134Y-8356079D02*
X6010658Y-8337031D01*
X6010658Y-8337031D02*
X6020182Y-8308460D01*
X6020182Y-8308460D02*
X6029706Y-8260841D01*
X6029706Y-8260841D02*
X6029706Y-8222746D01*
X6029706Y-8222746D02*
X6020182Y-8175127D01*
X6020182Y-8175127D02*
X6010658Y-8146555D01*
X6010658Y-8146555D02*
X6001134Y-8127508D01*
X6001134Y-8127508D02*
X5982087Y-8098936D01*
X5982087Y-8098936D02*
X5972563Y-8089412D01*
D12*
X1097500Y-8440500D02*
X1197500Y-8540500D01*
X1197500Y-8440500D02*
X1097500Y-8540500D01*
X1182856Y-8525856D02*
X1182856Y-8455144D01*
X1112144Y-8455144D01*
X1112144Y-8525856D01*
X1182856Y-8525856D01*
D11*
X1563039Y-8581984D02*
X1448753Y-8581984D01*
X1505896Y-8581984D02*
X1505896Y-8381984D01*
X1505896Y-8381984D02*
X1486848Y-8410555D01*
X1486848Y-8410555D02*
X1467801Y-8429603D01*
X1467801Y-8429603D02*
X1448753Y-8439127D01*
X1648753Y-8562936D02*
X1658277Y-8572460D01*
X1658277Y-8572460D02*
X1648753Y-8581984D01*
X1648753Y-8581984D02*
X1639229Y-8572460D01*
X1639229Y-8572460D02*
X1648753Y-8562936D01*
X1648753Y-8562936D02*
X1648753Y-8581984D01*
X1782086Y-8381984D02*
X1801134Y-8381984D01*
X1801134Y-8381984D02*
X1820182Y-8391508D01*
X1820182Y-8391508D02*
X1829705Y-8401031D01*
X1829705Y-8401031D02*
X1839229Y-8420079D01*
X1839229Y-8420079D02*
X1848753Y-8458174D01*
X1848753Y-8458174D02*
X1848753Y-8505793D01*
X1848753Y-8505793D02*
X1839229Y-8543889D01*
X1839229Y-8543889D02*
X1829705Y-8562936D01*
X1829705Y-8562936D02*
X1820182Y-8572460D01*
X1820182Y-8572460D02*
X1801134Y-8581984D01*
X1801134Y-8581984D02*
X1782086Y-8581984D01*
X1782086Y-8581984D02*
X1763039Y-8572460D01*
X1763039Y-8572460D02*
X1753515Y-8562936D01*
X1753515Y-8562936D02*
X1743991Y-8543889D01*
X1743991Y-8543889D02*
X1734467Y-8505793D01*
X1734467Y-8505793D02*
X1734467Y-8458174D01*
X1734467Y-8458174D02*
X1743991Y-8420079D01*
X1743991Y-8420079D02*
X1753515Y-8401031D01*
X1753515Y-8401031D02*
X1763039Y-8391508D01*
X1763039Y-8391508D02*
X1782086Y-8381984D01*
X1972562Y-8381984D02*
X1991610Y-8381984D01*
X1991610Y-8381984D02*
X2010658Y-8391508D01*
X2010658Y-8391508D02*
X2020182Y-8401031D01*
X2020182Y-8401031D02*
X2029705Y-8420079D01*
X2029705Y-8420079D02*
X2039229Y-8458174D01*
X2039229Y-8458174D02*
X2039229Y-8505793D01*
X2039229Y-8505793D02*
X2029705Y-8543889D01*
X2029705Y-8543889D02*
X2020182Y-8562936D01*
X2020182Y-8562936D02*
X2010658Y-8572460D01*
X2010658Y-8572460D02*
X1991610Y-8581984D01*
X1991610Y-8581984D02*
X1972562Y-8581984D01*
X1972562Y-8581984D02*
X1953515Y-8572460D01*
X1953515Y-8572460D02*
X1943991Y-8562936D01*
X1943991Y-8562936D02*
X1934467Y-8543889D01*
X1934467Y-8543889D02*
X1924943Y-8505793D01*
X1924943Y-8505793D02*
X1924943Y-8458174D01*
X1924943Y-8458174D02*
X1934467Y-8420079D01*
X1934467Y-8420079D02*
X1943991Y-8401031D01*
X1943991Y-8401031D02*
X1953515Y-8391508D01*
X1953515Y-8391508D02*
X1972562Y-8381984D01*
X2163039Y-8381984D02*
X2182086Y-8381984D01*
X2182086Y-8381984D02*
X2201134Y-8391508D01*
X2201134Y-8391508D02*
X2210658Y-8401031D01*
X2210658Y-8401031D02*
X2220182Y-8420079D01*
X2220182Y-8420079D02*
X2229705Y-8458174D01*
X2229705Y-8458174D02*
X2229705Y-8505793D01*
X2229705Y-8505793D02*
X2220182Y-8543889D01*
X2220182Y-8543889D02*
X2210658Y-8562936D01*
X2210658Y-8562936D02*
X2201134Y-8572460D01*
X2201134Y-8572460D02*
X2182086Y-8581984D01*
X2182086Y-8581984D02*
X2163039Y-8581984D01*
X2163039Y-8581984D02*
X2143991Y-8572460D01*
X2143991Y-8572460D02*
X2134467Y-8562936D01*
X2134467Y-8562936D02*
X2124944Y-8543889D01*
X2124944Y-8543889D02*
X2115420Y-8505793D01*
X2115420Y-8505793D02*
X2115420Y-8458174D01*
X2115420Y-8458174D02*
X2124944Y-8420079D01*
X2124944Y-8420079D02*
X2134467Y-8401031D01*
X2134467Y-8401031D02*
X2143991Y-8391508D01*
X2143991Y-8391508D02*
X2163039Y-8381984D01*
X2315420Y-8581984D02*
X2315420Y-8448650D01*
X2315420Y-8467698D02*
X2324944Y-8458174D01*
X2324944Y-8458174D02*
X2343991Y-8448650D01*
X2343991Y-8448650D02*
X2372563Y-8448650D01*
X2372563Y-8448650D02*
X2391610Y-8458174D01*
X2391610Y-8458174D02*
X2401134Y-8477222D01*
X2401134Y-8477222D02*
X2401134Y-8581984D01*
X2401134Y-8477222D02*
X2410658Y-8458174D01*
X2410658Y-8458174D02*
X2429705Y-8448650D01*
X2429705Y-8448650D02*
X2458277Y-8448650D01*
X2458277Y-8448650D02*
X2477325Y-8458174D01*
X2477325Y-8458174D02*
X2486848Y-8477222D01*
X2486848Y-8477222D02*
X2486848Y-8581984D01*
X2582086Y-8581984D02*
X2582086Y-8448650D01*
X2582086Y-8467698D02*
X2591610Y-8458174D01*
X2591610Y-8458174D02*
X2610658Y-8448650D01*
X2610658Y-8448650D02*
X2639229Y-8448650D01*
X2639229Y-8448650D02*
X2658277Y-8458174D01*
X2658277Y-8458174D02*
X2667801Y-8477222D01*
X2667801Y-8477222D02*
X2667801Y-8581984D01*
X2667801Y-8477222D02*
X2677325Y-8458174D01*
X2677325Y-8458174D02*
X2696372Y-8448650D01*
X2696372Y-8448650D02*
X2724944Y-8448650D01*
X2724944Y-8448650D02*
X2743991Y-8458174D01*
X2743991Y-8458174D02*
X2753515Y-8477222D01*
X2753515Y-8477222D02*
X2753515Y-8581984D01*
X3143991Y-8372460D02*
X2972563Y-8629603D01*
X3401134Y-8381984D02*
X3420182Y-8381984D01*
X3420182Y-8381984D02*
X3439229Y-8391508D01*
X3439229Y-8391508D02*
X3448753Y-8401031D01*
X3448753Y-8401031D02*
X3458277Y-8420079D01*
X3458277Y-8420079D02*
X3467801Y-8458174D01*
X3467801Y-8458174D02*
X3467801Y-8505793D01*
X3467801Y-8505793D02*
X3458277Y-8543889D01*
X3458277Y-8543889D02*
X3448753Y-8562936D01*
X3448753Y-8562936D02*
X3439229Y-8572460D01*
X3439229Y-8572460D02*
X3420182Y-8581984D01*
X3420182Y-8581984D02*
X3401134Y-8581984D01*
X3401134Y-8581984D02*
X3382086Y-8572460D01*
X3382086Y-8572460D02*
X3372563Y-8562936D01*
X3372563Y-8562936D02*
X3363039Y-8543889D01*
X3363039Y-8543889D02*
X3353515Y-8505793D01*
X3353515Y-8505793D02*
X3353515Y-8458174D01*
X3353515Y-8458174D02*
X3363039Y-8420079D01*
X3363039Y-8420079D02*
X3372563Y-8401031D01*
X3372563Y-8401031D02*
X3382086Y-8391508D01*
X3382086Y-8391508D02*
X3401134Y-8381984D01*
X3553515Y-8562936D02*
X3563039Y-8572460D01*
X3563039Y-8572460D02*
X3553515Y-8581984D01*
X3553515Y-8581984D02*
X3543991Y-8572460D01*
X3543991Y-8572460D02*
X3553515Y-8562936D01*
X3553515Y-8562936D02*
X3553515Y-8581984D01*
X3686848Y-8381984D02*
X3705896Y-8381984D01*
X3705896Y-8381984D02*
X3724944Y-8391508D01*
X3724944Y-8391508D02*
X3734467Y-8401031D01*
X3734467Y-8401031D02*
X3743991Y-8420079D01*
X3743991Y-8420079D02*
X3753515Y-8458174D01*
X3753515Y-8458174D02*
X3753515Y-8505793D01*
X3753515Y-8505793D02*
X3743991Y-8543889D01*
X3743991Y-8543889D02*
X3734467Y-8562936D01*
X3734467Y-8562936D02*
X3724944Y-8572460D01*
X3724944Y-8572460D02*
X3705896Y-8581984D01*
X3705896Y-8581984D02*
X3686848Y-8581984D01*
X3686848Y-8581984D02*
X3667801Y-8572460D01*
X3667801Y-8572460D02*
X3658277Y-8562936D01*
X3658277Y-8562936D02*
X3648753Y-8543889D01*
X3648753Y-8543889D02*
X3639229Y-8505793D01*
X3639229Y-8505793D02*
X3639229Y-8458174D01*
X3639229Y-8458174D02*
X3648753Y-8420079D01*
X3648753Y-8420079D02*
X3658277Y-8401031D01*
X3658277Y-8401031D02*
X3667801Y-8391508D01*
X3667801Y-8391508D02*
X3686848Y-8381984D01*
X3820182Y-8381984D02*
X3943991Y-8381984D01*
X3943991Y-8381984D02*
X3877325Y-8458174D01*
X3877325Y-8458174D02*
X3905896Y-8458174D01*
X3905896Y-8458174D02*
X3924944Y-8467698D01*
X3924944Y-8467698D02*
X3934467Y-8477222D01*
X3934467Y-8477222D02*
X3943991Y-8496270D01*
X3943991Y-8496270D02*
X3943991Y-8543889D01*
X3943991Y-8543889D02*
X3934467Y-8562936D01*
X3934467Y-8562936D02*
X3924944Y-8572460D01*
X3924944Y-8572460D02*
X3905896Y-8581984D01*
X3905896Y-8581984D02*
X3848753Y-8581984D01*
X3848753Y-8581984D02*
X3829706Y-8572460D01*
X3829706Y-8572460D02*
X3820182Y-8562936D01*
X4039229Y-8581984D02*
X4077325Y-8581984D01*
X4077325Y-8581984D02*
X4096372Y-8572460D01*
X4096372Y-8572460D02*
X4105896Y-8562936D01*
X4105896Y-8562936D02*
X4124944Y-8534365D01*
X4124944Y-8534365D02*
X4134467Y-8496270D01*
X4134467Y-8496270D02*
X4134467Y-8420079D01*
X4134467Y-8420079D02*
X4124944Y-8401031D01*
X4124944Y-8401031D02*
X4115420Y-8391508D01*
X4115420Y-8391508D02*
X4096372Y-8381984D01*
X4096372Y-8381984D02*
X4058277Y-8381984D01*
X4058277Y-8381984D02*
X4039229Y-8391508D01*
X4039229Y-8391508D02*
X4029706Y-8401031D01*
X4029706Y-8401031D02*
X4020182Y-8420079D01*
X4020182Y-8420079D02*
X4020182Y-8467698D01*
X4020182Y-8467698D02*
X4029706Y-8486746D01*
X4029706Y-8486746D02*
X4039229Y-8496270D01*
X4039229Y-8496270D02*
X4058277Y-8505793D01*
X4058277Y-8505793D02*
X4096372Y-8505793D01*
X4096372Y-8505793D02*
X4115420Y-8496270D01*
X4115420Y-8496270D02*
X4124944Y-8486746D01*
X4124944Y-8486746D02*
X4134467Y-8467698D01*
X4305896Y-8448650D02*
X4305896Y-8581984D01*
X4258277Y-8372460D02*
X4210658Y-8515317D01*
X4210658Y-8515317D02*
X4334468Y-8515317D01*
X4401134Y-8381984D02*
X4401134Y-8420079D01*
X4477325Y-8381984D02*
X4477325Y-8420079D01*
X4772563Y-8658174D02*
X4763039Y-8648650D01*
X4763039Y-8648650D02*
X4743991Y-8620079D01*
X4743991Y-8620079D02*
X4734468Y-8601031D01*
X4734468Y-8601031D02*
X4724944Y-8572460D01*
X4724944Y-8572460D02*
X4715420Y-8524841D01*
X4715420Y-8524841D02*
X4715420Y-8486746D01*
X4715420Y-8486746D02*
X4724944Y-8439127D01*
X4724944Y-8439127D02*
X4734468Y-8410555D01*
X4734468Y-8410555D02*
X4743991Y-8391508D01*
X4743991Y-8391508D02*
X4763039Y-8362936D01*
X4763039Y-8362936D02*
X4772563Y-8353412D01*
X4953515Y-8581984D02*
X4839230Y-8581984D01*
X4896372Y-8581984D02*
X4896372Y-8381984D01*
X4896372Y-8381984D02*
X4877325Y-8410555D01*
X4877325Y-8410555D02*
X4858277Y-8429603D01*
X4858277Y-8429603D02*
X4839230Y-8439127D01*
X5029706Y-8401031D02*
X5039230Y-8391508D01*
X5039230Y-8391508D02*
X5058277Y-8381984D01*
X5058277Y-8381984D02*
X5105896Y-8381984D01*
X5105896Y-8381984D02*
X5124944Y-8391508D01*
X5124944Y-8391508D02*
X5134468Y-8401031D01*
X5134468Y-8401031D02*
X5143991Y-8420079D01*
X5143991Y-8420079D02*
X5143991Y-8439127D01*
X5143991Y-8439127D02*
X5134468Y-8467698D01*
X5134468Y-8467698D02*
X5020182Y-8581984D01*
X5020182Y-8581984D02*
X5143991Y-8581984D01*
X5382087Y-8581984D02*
X5382087Y-8381984D01*
X5467801Y-8581984D02*
X5467801Y-8477222D01*
X5467801Y-8477222D02*
X5458277Y-8458174D01*
X5458277Y-8458174D02*
X5439230Y-8448650D01*
X5439230Y-8448650D02*
X5410658Y-8448650D01*
X5410658Y-8448650D02*
X5391611Y-8458174D01*
X5391611Y-8458174D02*
X5382087Y-8467698D01*
X5591611Y-8581984D02*
X5572563Y-8572460D01*
X5572563Y-8572460D02*
X5563039Y-8562936D01*
X5563039Y-8562936D02*
X5553515Y-8543889D01*
X5553515Y-8543889D02*
X5553515Y-8486746D01*
X5553515Y-8486746D02*
X5563039Y-8467698D01*
X5563039Y-8467698D02*
X5572563Y-8458174D01*
X5572563Y-8458174D02*
X5591611Y-8448650D01*
X5591611Y-8448650D02*
X5620182Y-8448650D01*
X5620182Y-8448650D02*
X5639230Y-8458174D01*
X5639230Y-8458174D02*
X5648753Y-8467698D01*
X5648753Y-8467698D02*
X5658277Y-8486746D01*
X5658277Y-8486746D02*
X5658277Y-8543889D01*
X5658277Y-8543889D02*
X5648753Y-8562936D01*
X5648753Y-8562936D02*
X5639230Y-8572460D01*
X5639230Y-8572460D02*
X5620182Y-8581984D01*
X5620182Y-8581984D02*
X5591611Y-8581984D01*
X5772563Y-8581984D02*
X5753515Y-8572460D01*
X5753515Y-8572460D02*
X5743991Y-8553412D01*
X5743991Y-8553412D02*
X5743991Y-8381984D01*
X5924944Y-8572460D02*
X5905896Y-8581984D01*
X5905896Y-8581984D02*
X5867801Y-8581984D01*
X5867801Y-8581984D02*
X5848753Y-8572460D01*
X5848753Y-8572460D02*
X5839230Y-8553412D01*
X5839230Y-8553412D02*
X5839230Y-8477222D01*
X5839230Y-8477222D02*
X5848753Y-8458174D01*
X5848753Y-8458174D02*
X5867801Y-8448650D01*
X5867801Y-8448650D02*
X5905896Y-8448650D01*
X5905896Y-8448650D02*
X5924944Y-8458174D01*
X5924944Y-8458174D02*
X5934468Y-8477222D01*
X5934468Y-8477222D02*
X5934468Y-8496270D01*
X5934468Y-8496270D02*
X5839230Y-8515317D01*
X6010658Y-8572460D02*
X6029706Y-8581984D01*
X6029706Y-8581984D02*
X6067801Y-8581984D01*
X6067801Y-8581984D02*
X6086849Y-8572460D01*
X6086849Y-8572460D02*
X6096372Y-8553412D01*
X6096372Y-8553412D02*
X6096372Y-8543889D01*
X6096372Y-8543889D02*
X6086849Y-8524841D01*
X6086849Y-8524841D02*
X6067801Y-8515317D01*
X6067801Y-8515317D02*
X6039230Y-8515317D01*
X6039230Y-8515317D02*
X6020182Y-8505793D01*
X6020182Y-8505793D02*
X6010658Y-8486746D01*
X6010658Y-8486746D02*
X6010658Y-8477222D01*
X6010658Y-8477222D02*
X6020182Y-8458174D01*
X6020182Y-8458174D02*
X6039230Y-8448650D01*
X6039230Y-8448650D02*
X6067801Y-8448650D01*
X6067801Y-8448650D02*
X6086849Y-8458174D01*
X6163039Y-8658174D02*
X6172563Y-8648650D01*
X6172563Y-8648650D02*
X6191611Y-8620079D01*
X6191611Y-8620079D02*
X6201134Y-8601031D01*
X6201134Y-8601031D02*
X6210658Y-8572460D01*
X6210658Y-8572460D02*
X6220182Y-8524841D01*
X6220182Y-8524841D02*
X6220182Y-8486746D01*
X6220182Y-8486746D02*
X6210658Y-8439127D01*
X6210658Y-8439127D02*
X6201134Y-8410555D01*
X6201134Y-8410555D02*
X6191611Y-8391508D01*
X6191611Y-8391508D02*
X6172563Y-8362936D01*
X6172563Y-8362936D02*
X6163039Y-8353412D01*
D13*
X1057500Y-8684500D02*
X1197500Y-8824500D01*
X1197500Y-8684500D02*
X1057500Y-8824500D01*
X1127500Y-8824500D02*
X1197500Y-8754500D01*
X1127500Y-8684500D01*
X1057500Y-8754500D01*
X1127500Y-8824500D01*
D11*
X1563039Y-8845984D02*
X1448753Y-8845984D01*
X1505896Y-8845984D02*
X1505896Y-8645984D01*
X1505896Y-8645984D02*
X1486848Y-8674555D01*
X1486848Y-8674555D02*
X1467801Y-8693603D01*
X1467801Y-8693603D02*
X1448753Y-8703127D01*
X1648753Y-8826936D02*
X1658277Y-8836460D01*
X1658277Y-8836460D02*
X1648753Y-8845984D01*
X1648753Y-8845984D02*
X1639229Y-8836460D01*
X1639229Y-8836460D02*
X1648753Y-8826936D01*
X1648753Y-8826936D02*
X1648753Y-8845984D01*
X1829705Y-8712650D02*
X1829705Y-8845984D01*
X1782086Y-8636460D02*
X1734467Y-8779317D01*
X1734467Y-8779317D02*
X1858277Y-8779317D01*
X1972562Y-8645984D02*
X1991610Y-8645984D01*
X1991610Y-8645984D02*
X2010658Y-8655508D01*
X2010658Y-8655508D02*
X2020182Y-8665031D01*
X2020182Y-8665031D02*
X2029705Y-8684079D01*
X2029705Y-8684079D02*
X2039229Y-8722174D01*
X2039229Y-8722174D02*
X2039229Y-8769793D01*
X2039229Y-8769793D02*
X2029705Y-8807889D01*
X2029705Y-8807889D02*
X2020182Y-8826936D01*
X2020182Y-8826936D02*
X2010658Y-8836460D01*
X2010658Y-8836460D02*
X1991610Y-8845984D01*
X1991610Y-8845984D02*
X1972562Y-8845984D01*
X1972562Y-8845984D02*
X1953515Y-8836460D01*
X1953515Y-8836460D02*
X1943991Y-8826936D01*
X1943991Y-8826936D02*
X1934467Y-8807889D01*
X1934467Y-8807889D02*
X1924943Y-8769793D01*
X1924943Y-8769793D02*
X1924943Y-8722174D01*
X1924943Y-8722174D02*
X1934467Y-8684079D01*
X1934467Y-8684079D02*
X1943991Y-8665031D01*
X1943991Y-8665031D02*
X1953515Y-8655508D01*
X1953515Y-8655508D02*
X1972562Y-8645984D01*
X2163039Y-8645984D02*
X2182086Y-8645984D01*
X2182086Y-8645984D02*
X2201134Y-8655508D01*
X2201134Y-8655508D02*
X2210658Y-8665031D01*
X2210658Y-8665031D02*
X2220182Y-8684079D01*
X2220182Y-8684079D02*
X2229705Y-8722174D01*
X2229705Y-8722174D02*
X2229705Y-8769793D01*
X2229705Y-8769793D02*
X2220182Y-8807889D01*
X2220182Y-8807889D02*
X2210658Y-8826936D01*
X2210658Y-8826936D02*
X2201134Y-8836460D01*
X2201134Y-8836460D02*
X2182086Y-8845984D01*
X2182086Y-8845984D02*
X2163039Y-8845984D01*
X2163039Y-8845984D02*
X2143991Y-8836460D01*
X2143991Y-8836460D02*
X2134467Y-8826936D01*
X2134467Y-8826936D02*
X2124944Y-8807889D01*
X2124944Y-8807889D02*
X2115420Y-8769793D01*
X2115420Y-8769793D02*
X2115420Y-8722174D01*
X2115420Y-8722174D02*
X2124944Y-8684079D01*
X2124944Y-8684079D02*
X2134467Y-8665031D01*
X2134467Y-8665031D02*
X2143991Y-8655508D01*
X2143991Y-8655508D02*
X2163039Y-8645984D01*
X2315420Y-8845984D02*
X2315420Y-8712650D01*
X2315420Y-8731698D02*
X2324944Y-8722174D01*
X2324944Y-8722174D02*
X2343991Y-8712650D01*
X2343991Y-8712650D02*
X2372563Y-8712650D01*
X2372563Y-8712650D02*
X2391610Y-8722174D01*
X2391610Y-8722174D02*
X2401134Y-8741222D01*
X2401134Y-8741222D02*
X2401134Y-8845984D01*
X2401134Y-8741222D02*
X2410658Y-8722174D01*
X2410658Y-8722174D02*
X2429705Y-8712650D01*
X2429705Y-8712650D02*
X2458277Y-8712650D01*
X2458277Y-8712650D02*
X2477325Y-8722174D01*
X2477325Y-8722174D02*
X2486848Y-8741222D01*
X2486848Y-8741222D02*
X2486848Y-8845984D01*
X2582086Y-8845984D02*
X2582086Y-8712650D01*
X2582086Y-8731698D02*
X2591610Y-8722174D01*
X2591610Y-8722174D02*
X2610658Y-8712650D01*
X2610658Y-8712650D02*
X2639229Y-8712650D01*
X2639229Y-8712650D02*
X2658277Y-8722174D01*
X2658277Y-8722174D02*
X2667801Y-8741222D01*
X2667801Y-8741222D02*
X2667801Y-8845984D01*
X2667801Y-8741222D02*
X2677325Y-8722174D01*
X2677325Y-8722174D02*
X2696372Y-8712650D01*
X2696372Y-8712650D02*
X2724944Y-8712650D01*
X2724944Y-8712650D02*
X2743991Y-8722174D01*
X2743991Y-8722174D02*
X2753515Y-8741222D01*
X2753515Y-8741222D02*
X2753515Y-8845984D01*
X3143991Y-8636460D02*
X2972563Y-8893603D01*
X3401134Y-8645984D02*
X3420182Y-8645984D01*
X3420182Y-8645984D02*
X3439229Y-8655508D01*
X3439229Y-8655508D02*
X3448753Y-8665031D01*
X3448753Y-8665031D02*
X3458277Y-8684079D01*
X3458277Y-8684079D02*
X3467801Y-8722174D01*
X3467801Y-8722174D02*
X3467801Y-8769793D01*
X3467801Y-8769793D02*
X3458277Y-8807889D01*
X3458277Y-8807889D02*
X3448753Y-8826936D01*
X3448753Y-8826936D02*
X3439229Y-8836460D01*
X3439229Y-8836460D02*
X3420182Y-8845984D01*
X3420182Y-8845984D02*
X3401134Y-8845984D01*
X3401134Y-8845984D02*
X3382086Y-8836460D01*
X3382086Y-8836460D02*
X3372563Y-8826936D01*
X3372563Y-8826936D02*
X3363039Y-8807889D01*
X3363039Y-8807889D02*
X3353515Y-8769793D01*
X3353515Y-8769793D02*
X3353515Y-8722174D01*
X3353515Y-8722174D02*
X3363039Y-8684079D01*
X3363039Y-8684079D02*
X3372563Y-8665031D01*
X3372563Y-8665031D02*
X3382086Y-8655508D01*
X3382086Y-8655508D02*
X3401134Y-8645984D01*
X3553515Y-8826936D02*
X3563039Y-8836460D01*
X3563039Y-8836460D02*
X3553515Y-8845984D01*
X3553515Y-8845984D02*
X3543991Y-8836460D01*
X3543991Y-8836460D02*
X3553515Y-8826936D01*
X3553515Y-8826936D02*
X3553515Y-8845984D01*
X3686848Y-8645984D02*
X3705896Y-8645984D01*
X3705896Y-8645984D02*
X3724944Y-8655508D01*
X3724944Y-8655508D02*
X3734467Y-8665031D01*
X3734467Y-8665031D02*
X3743991Y-8684079D01*
X3743991Y-8684079D02*
X3753515Y-8722174D01*
X3753515Y-8722174D02*
X3753515Y-8769793D01*
X3753515Y-8769793D02*
X3743991Y-8807889D01*
X3743991Y-8807889D02*
X3734467Y-8826936D01*
X3734467Y-8826936D02*
X3724944Y-8836460D01*
X3724944Y-8836460D02*
X3705896Y-8845984D01*
X3705896Y-8845984D02*
X3686848Y-8845984D01*
X3686848Y-8845984D02*
X3667801Y-8836460D01*
X3667801Y-8836460D02*
X3658277Y-8826936D01*
X3658277Y-8826936D02*
X3648753Y-8807889D01*
X3648753Y-8807889D02*
X3639229Y-8769793D01*
X3639229Y-8769793D02*
X3639229Y-8722174D01*
X3639229Y-8722174D02*
X3648753Y-8684079D01*
X3648753Y-8684079D02*
X3658277Y-8665031D01*
X3658277Y-8665031D02*
X3667801Y-8655508D01*
X3667801Y-8655508D02*
X3686848Y-8645984D01*
X3934467Y-8645984D02*
X3839229Y-8645984D01*
X3839229Y-8645984D02*
X3829706Y-8741222D01*
X3829706Y-8741222D02*
X3839229Y-8731698D01*
X3839229Y-8731698D02*
X3858277Y-8722174D01*
X3858277Y-8722174D02*
X3905896Y-8722174D01*
X3905896Y-8722174D02*
X3924944Y-8731698D01*
X3924944Y-8731698D02*
X3934467Y-8741222D01*
X3934467Y-8741222D02*
X3943991Y-8760270D01*
X3943991Y-8760270D02*
X3943991Y-8807889D01*
X3943991Y-8807889D02*
X3934467Y-8826936D01*
X3934467Y-8826936D02*
X3924944Y-8836460D01*
X3924944Y-8836460D02*
X3905896Y-8845984D01*
X3905896Y-8845984D02*
X3858277Y-8845984D01*
X3858277Y-8845984D02*
X3839229Y-8836460D01*
X3839229Y-8836460D02*
X3829706Y-8826936D01*
X4124944Y-8645984D02*
X4029706Y-8645984D01*
X4029706Y-8645984D02*
X4020182Y-8741222D01*
X4020182Y-8741222D02*
X4029706Y-8731698D01*
X4029706Y-8731698D02*
X4048753Y-8722174D01*
X4048753Y-8722174D02*
X4096372Y-8722174D01*
X4096372Y-8722174D02*
X4115420Y-8731698D01*
X4115420Y-8731698D02*
X4124944Y-8741222D01*
X4124944Y-8741222D02*
X4134467Y-8760270D01*
X4134467Y-8760270D02*
X4134467Y-8807889D01*
X4134467Y-8807889D02*
X4124944Y-8826936D01*
X4124944Y-8826936D02*
X4115420Y-8836460D01*
X4115420Y-8836460D02*
X4096372Y-8845984D01*
X4096372Y-8845984D02*
X4048753Y-8845984D01*
X4048753Y-8845984D02*
X4029706Y-8836460D01*
X4029706Y-8836460D02*
X4020182Y-8826936D01*
X4324944Y-8845984D02*
X4210658Y-8845984D01*
X4267801Y-8845984D02*
X4267801Y-8645984D01*
X4267801Y-8645984D02*
X4248753Y-8674555D01*
X4248753Y-8674555D02*
X4229706Y-8693603D01*
X4229706Y-8693603D02*
X4210658Y-8703127D01*
X4401134Y-8645984D02*
X4401134Y-8684079D01*
X4477325Y-8645984D02*
X4477325Y-8684079D01*
X4772563Y-8922174D02*
X4763039Y-8912650D01*
X4763039Y-8912650D02*
X4743991Y-8884079D01*
X4743991Y-8884079D02*
X4734468Y-8865031D01*
X4734468Y-8865031D02*
X4724944Y-8836460D01*
X4724944Y-8836460D02*
X4715420Y-8788841D01*
X4715420Y-8788841D02*
X4715420Y-8750746D01*
X4715420Y-8750746D02*
X4724944Y-8703127D01*
X4724944Y-8703127D02*
X4734468Y-8674555D01*
X4734468Y-8674555D02*
X4743991Y-8655508D01*
X4743991Y-8655508D02*
X4763039Y-8626936D01*
X4763039Y-8626936D02*
X4772563Y-8617412D01*
X4943991Y-8645984D02*
X4848753Y-8645984D01*
X4848753Y-8645984D02*
X4839230Y-8741222D01*
X4839230Y-8741222D02*
X4848753Y-8731698D01*
X4848753Y-8731698D02*
X4867801Y-8722174D01*
X4867801Y-8722174D02*
X4915420Y-8722174D01*
X4915420Y-8722174D02*
X4934468Y-8731698D01*
X4934468Y-8731698D02*
X4943991Y-8741222D01*
X4943991Y-8741222D02*
X4953515Y-8760270D01*
X4953515Y-8760270D02*
X4953515Y-8807889D01*
X4953515Y-8807889D02*
X4943991Y-8826936D01*
X4943991Y-8826936D02*
X4934468Y-8836460D01*
X4934468Y-8836460D02*
X4915420Y-8845984D01*
X4915420Y-8845984D02*
X4867801Y-8845984D01*
X4867801Y-8845984D02*
X4848753Y-8836460D01*
X4848753Y-8836460D02*
X4839230Y-8826936D01*
X5191611Y-8845984D02*
X5191611Y-8645984D01*
X5277325Y-8845984D02*
X5277325Y-8741222D01*
X5277325Y-8741222D02*
X5267801Y-8722174D01*
X5267801Y-8722174D02*
X5248753Y-8712650D01*
X5248753Y-8712650D02*
X5220182Y-8712650D01*
X5220182Y-8712650D02*
X5201134Y-8722174D01*
X5201134Y-8722174D02*
X5191611Y-8731698D01*
X5401134Y-8845984D02*
X5382087Y-8836460D01*
X5382087Y-8836460D02*
X5372563Y-8826936D01*
X5372563Y-8826936D02*
X5363039Y-8807889D01*
X5363039Y-8807889D02*
X5363039Y-8750746D01*
X5363039Y-8750746D02*
X5372563Y-8731698D01*
X5372563Y-8731698D02*
X5382087Y-8722174D01*
X5382087Y-8722174D02*
X5401134Y-8712650D01*
X5401134Y-8712650D02*
X5429706Y-8712650D01*
X5429706Y-8712650D02*
X5448753Y-8722174D01*
X5448753Y-8722174D02*
X5458277Y-8731698D01*
X5458277Y-8731698D02*
X5467801Y-8750746D01*
X5467801Y-8750746D02*
X5467801Y-8807889D01*
X5467801Y-8807889D02*
X5458277Y-8826936D01*
X5458277Y-8826936D02*
X5448753Y-8836460D01*
X5448753Y-8836460D02*
X5429706Y-8845984D01*
X5429706Y-8845984D02*
X5401134Y-8845984D01*
X5582087Y-8845984D02*
X5563039Y-8836460D01*
X5563039Y-8836460D02*
X5553515Y-8817412D01*
X5553515Y-8817412D02*
X5553515Y-8645984D01*
X5734468Y-8836460D02*
X5715420Y-8845984D01*
X5715420Y-8845984D02*
X5677325Y-8845984D01*
X5677325Y-8845984D02*
X5658277Y-8836460D01*
X5658277Y-8836460D02*
X5648753Y-8817412D01*
X5648753Y-8817412D02*
X5648753Y-8741222D01*
X5648753Y-8741222D02*
X5658277Y-8722174D01*
X5658277Y-8722174D02*
X5677325Y-8712650D01*
X5677325Y-8712650D02*
X5715420Y-8712650D01*
X5715420Y-8712650D02*
X5734468Y-8722174D01*
X5734468Y-8722174D02*
X5743991Y-8741222D01*
X5743991Y-8741222D02*
X5743991Y-8760270D01*
X5743991Y-8760270D02*
X5648753Y-8779317D01*
X5820182Y-8836460D02*
X5839230Y-8845984D01*
X5839230Y-8845984D02*
X5877325Y-8845984D01*
X5877325Y-8845984D02*
X5896372Y-8836460D01*
X5896372Y-8836460D02*
X5905896Y-8817412D01*
X5905896Y-8817412D02*
X5905896Y-8807889D01*
X5905896Y-8807889D02*
X5896372Y-8788841D01*
X5896372Y-8788841D02*
X5877325Y-8779317D01*
X5877325Y-8779317D02*
X5848753Y-8779317D01*
X5848753Y-8779317D02*
X5829706Y-8769793D01*
X5829706Y-8769793D02*
X5820182Y-8750746D01*
X5820182Y-8750746D02*
X5820182Y-8741222D01*
X5820182Y-8741222D02*
X5829706Y-8722174D01*
X5829706Y-8722174D02*
X5848753Y-8712650D01*
X5848753Y-8712650D02*
X5877325Y-8712650D01*
X5877325Y-8712650D02*
X5896372Y-8722174D01*
X5972563Y-8922174D02*
X5982087Y-8912650D01*
X5982087Y-8912650D02*
X6001134Y-8884079D01*
X6001134Y-8884079D02*
X6010658Y-8865031D01*
X6010658Y-8865031D02*
X6020182Y-8836460D01*
X6020182Y-8836460D02*
X6029706Y-8788841D01*
X6029706Y-8788841D02*
X6029706Y-8750746D01*
X6029706Y-8750746D02*
X6020182Y-8703127D01*
X6020182Y-8703127D02*
X6010658Y-8674555D01*
X6010658Y-8674555D02*
X6001134Y-8655508D01*
X6001134Y-8655508D02*
X5982087Y-8626936D01*
X5982087Y-8626936D02*
X5972563Y-8617412D01*
M02*
