G04 #@! TF.GenerationSoftware,KiCad,Pcbnew,8.0.8*
G04 #@! TF.CreationDate,2025-02-16T18:20:13+01:00*
G04 #@! TF.ProjectId,cheap-wled-controller,63686561-702d-4776-9c65-642d636f6e74,rev?*
G04 #@! TF.SameCoordinates,Original*
G04 #@! TF.FileFunction,Copper,L1,Top*
G04 #@! TF.FilePolarity,Positive*
%FSLAX46Y46*%
G04 Gerber Fmt 4.6, Leading zero omitted, Abs format (unit mm)*
G04 Created by KiCad (PCBNEW 8.0.8) date 2025-02-16 18:20:13*
%MOMM*%
%LPD*%
G01*
G04 APERTURE LIST*
G04 Aperture macros list*
%AMRoundRect*
0 Rectangle with rounded corners*
0 $1 Rounding radius*
0 $2 $3 $4 $5 $6 $7 $8 $9 X,Y pos of 4 corners*
0 Add a 4 corners polygon primitive as box body*
4,1,4,$2,$3,$4,$5,$6,$7,$8,$9,$2,$3,0*
0 Add four circle primitives for the rounded corners*
1,1,$1+$1,$2,$3*
1,1,$1+$1,$4,$5*
1,1,$1+$1,$6,$7*
1,1,$1+$1,$8,$9*
0 Add four rect primitives between the rounded corners*
20,1,$1+$1,$2,$3,$4,$5,0*
20,1,$1+$1,$4,$5,$6,$7,0*
20,1,$1+$1,$6,$7,$8,$9,0*
20,1,$1+$1,$8,$9,$2,$3,0*%
G04 Aperture macros list end*
G04 #@! TA.AperFunction,Conductor*
%ADD10C,0.200000*%
G04 #@! TD*
G04 #@! TA.AperFunction,SMDPad,CuDef*
%ADD11R,1.410000X1.350000*%
G04 #@! TD*
G04 #@! TA.AperFunction,SMDPad,CuDef*
%ADD12R,1.130000X1.380000*%
G04 #@! TD*
G04 #@! TA.AperFunction,ComponentPad*
%ADD13O,1.600000X2.600000*%
G04 #@! TD*
G04 #@! TA.AperFunction,SMDPad,CuDef*
%ADD14R,1.000000X1.400000*%
G04 #@! TD*
G04 #@! TA.AperFunction,SMDPad,CuDef*
%ADD15RoundRect,0.250000X-1.000000X-0.650000X1.000000X-0.650000X1.000000X0.650000X-1.000000X0.650000X0*%
G04 #@! TD*
G04 #@! TA.AperFunction,SMDPad,CuDef*
%ADD16O,0.590000X2.050000*%
G04 #@! TD*
G04 #@! TA.AperFunction,SMDPad,CuDef*
%ADD17R,0.600000X1.000000*%
G04 #@! TD*
G04 #@! TA.AperFunction,SMDPad,CuDef*
%ADD18R,4.410000X4.000000*%
G04 #@! TD*
G04 #@! TA.AperFunction,SMDPad,CuDef*
%ADD19RoundRect,0.150000X-0.512500X-0.150000X0.512500X-0.150000X0.512500X0.150000X-0.512500X0.150000X0*%
G04 #@! TD*
G04 #@! TA.AperFunction,SMDPad,CuDef*
%ADD20R,0.600000X1.500000*%
G04 #@! TD*
G04 #@! TA.AperFunction,SMDPad,CuDef*
%ADD21R,3.300000X2.100000*%
G04 #@! TD*
G04 #@! TA.AperFunction,ComponentPad*
%ADD22R,1.350000X1.350000*%
G04 #@! TD*
G04 #@! TA.AperFunction,ComponentPad*
%ADD23O,1.350000X1.350000*%
G04 #@! TD*
G04 #@! TA.AperFunction,SMDPad,CuDef*
%ADD24R,1.380000X1.130000*%
G04 #@! TD*
G04 #@! TA.AperFunction,ComponentPad*
%ADD25RoundRect,0.250000X-0.350000X-0.625000X0.350000X-0.625000X0.350000X0.625000X-0.350000X0.625000X0*%
G04 #@! TD*
G04 #@! TA.AperFunction,ComponentPad*
%ADD26O,1.200000X1.750000*%
G04 #@! TD*
G04 #@! TA.AperFunction,ComponentPad*
%ADD27R,1.700000X1.700000*%
G04 #@! TD*
G04 #@! TA.AperFunction,ComponentPad*
%ADD28O,1.700000X1.700000*%
G04 #@! TD*
G04 #@! TA.AperFunction,SMDPad,CuDef*
%ADD29RoundRect,0.112500X-0.237500X0.112500X-0.237500X-0.112500X0.237500X-0.112500X0.237500X0.112500X0*%
G04 #@! TD*
G04 #@! TA.AperFunction,ComponentPad*
%ADD30C,2.200000*%
G04 #@! TD*
G04 #@! TA.AperFunction,SMDPad,CuDef*
%ADD31R,1.500000X0.900000*%
G04 #@! TD*
G04 #@! TA.AperFunction,SMDPad,CuDef*
%ADD32R,0.900000X1.500000*%
G04 #@! TD*
G04 #@! TA.AperFunction,SMDPad,CuDef*
%ADD33R,0.900000X0.900000*%
G04 #@! TD*
G04 #@! TA.AperFunction,ComponentPad*
%ADD34C,0.750000*%
G04 #@! TD*
G04 #@! TA.AperFunction,ComponentPad*
%ADD35O,2.000000X1.200000*%
G04 #@! TD*
G04 #@! TA.AperFunction,ComponentPad*
%ADD36O,1.800000X1.200000*%
G04 #@! TD*
G04 #@! TA.AperFunction,SMDPad,CuDef*
%ADD37R,1.300000X0.300000*%
G04 #@! TD*
G04 #@! TA.AperFunction,SMDPad,CuDef*
%ADD38R,1.100000X2.500000*%
G04 #@! TD*
G04 #@! TA.AperFunction,SMDPad,CuDef*
%ADD39R,3.600000X2.340000*%
G04 #@! TD*
G04 #@! TA.AperFunction,SMDPad,CuDef*
%ADD40RoundRect,0.250000X-0.375000X-0.850000X0.375000X-0.850000X0.375000X0.850000X-0.375000X0.850000X0*%
G04 #@! TD*
G04 #@! TA.AperFunction,ComponentPad*
%ADD41C,0.700000*%
G04 #@! TD*
G04 #@! TA.AperFunction,SMDPad,CuDef*
%ADD42R,0.800000X1.300000*%
G04 #@! TD*
G04 #@! TA.AperFunction,SMDPad,CuDef*
%ADD43R,1.000000X1.200000*%
G04 #@! TD*
G04 #@! TA.AperFunction,ViaPad*
%ADD44C,0.600000*%
G04 #@! TD*
G04 #@! TA.AperFunction,Conductor*
%ADD45C,0.800000*%
G04 #@! TD*
G04 #@! TA.AperFunction,Conductor*
%ADD46C,0.300000*%
G04 #@! TD*
G04 APERTURE END LIST*
G04 #@! TO.N,/V_LED*
D10*
X92000000Y-45007436D02*
X96000000Y-45007436D01*
X96000000Y-46827915D01*
X92000000Y-46827915D01*
X92000000Y-45007436D01*
G04 #@! TA.AperFunction,Conductor*
G36*
X92000000Y-45007436D02*
G01*
X96000000Y-45007436D01*
X96000000Y-46827915D01*
X92000000Y-46827915D01*
X92000000Y-45007436D01*
G37*
G04 #@! TD.AperFunction*
G04 #@! TO.N,Earth*
X12632624Y-33500000D02*
X15000000Y-33500000D01*
X15000000Y-44500000D01*
X12632624Y-44500000D01*
X12632624Y-33500000D01*
G04 #@! TA.AperFunction,Conductor*
G36*
X12632624Y-33500000D02*
G01*
X15000000Y-33500000D01*
X15000000Y-44500000D01*
X12632624Y-44500000D01*
X12632624Y-33500000D01*
G37*
G04 #@! TD.AperFunction*
G04 #@! TO.N,/LED_1_VCC*
X97500000Y-43900000D02*
X92500000Y-43900000D01*
X92500000Y-39000000D01*
X96000000Y-39000000D01*
X96000000Y-37500000D01*
X97500000Y-37500000D01*
X97500000Y-43900000D01*
G04 #@! TA.AperFunction,Conductor*
G36*
X97500000Y-43900000D02*
G01*
X92500000Y-43900000D01*
X92500000Y-39000000D01*
X96000000Y-39000000D01*
X96000000Y-37500000D01*
X97500000Y-37500000D01*
X97500000Y-43900000D01*
G37*
G04 #@! TD.AperFunction*
G04 #@! TD*
D11*
G04 #@! TO.P,C29,1,1*
G04 #@! TO.N,/SW_5V*
X50500000Y-33250000D03*
G04 #@! TO.P,C29,2,2*
G04 #@! TO.N,/BOOT*
X52500000Y-33250000D03*
G04 #@! TD*
D12*
G04 #@! TO.P,R6,1,1*
G04 #@! TO.N,+3.3V*
X50500000Y-43000000D03*
G04 #@! TO.P,R6,2,2*
G04 #@! TO.N,Net-(U5-EN)*
X52500000Y-43000000D03*
G04 #@! TD*
D13*
G04 #@! TO.P,F2,1*
G04 #@! TO.N,/VBUS_C*
X90800000Y-30730000D03*
X94200000Y-30730000D03*
G04 #@! TO.P,F2,2*
G04 #@! TO.N,/V_LED*
X90800000Y-17270000D03*
X94200000Y-17270000D03*
G04 #@! TD*
D14*
G04 #@! TO.P,D4,1,K*
G04 #@! TO.N,GND*
X17450000Y-27810000D03*
G04 #@! TO.P,D4,2,A*
G04 #@! TO.N,Net-(D4-A)*
X15350000Y-27810000D03*
G04 #@! TD*
D12*
G04 #@! TO.P,R5,1,1*
G04 #@! TO.N,Net-(U3-PG)*
X26000000Y-46500000D03*
G04 #@! TO.P,R5,2,2*
G04 #@! TO.N,/VDD_C*
X28000000Y-46500000D03*
G04 #@! TD*
G04 #@! TO.P,R14,1,1*
G04 #@! TO.N,Net-(D2-A)*
X83500000Y-30500000D03*
G04 #@! TO.P,R14,2,2*
G04 #@! TO.N,+3.3V*
X85500000Y-30500000D03*
G04 #@! TD*
D14*
G04 #@! TO.P,D2,1,K*
G04 #@! TO.N,GND*
X17650000Y-23800000D03*
G04 #@! TO.P,D2,2,A*
G04 #@! TO.N,Net-(D2-A)*
X15550000Y-23800000D03*
G04 #@! TD*
D15*
G04 #@! TO.P,D3,1,A1*
G04 #@! TO.N,/VBUS_C*
X49500000Y-54500000D03*
G04 #@! TO.P,D3,2,A2*
G04 #@! TO.N,GND*
X53500000Y-54500000D03*
G04 #@! TD*
D16*
G04 #@! TO.P,U4,1,V+*
G04 #@! TO.N,/V_LED*
X83090000Y-44770000D03*
G04 #@! TO.P,U4,2,Input*
G04 #@! TO.N,/MOS_1*
X84370000Y-44770000D03*
G04 #@! TO.P,U4,3,Source*
G04 #@! TO.N,/LED_1_VCC*
X85630000Y-44770000D03*
G04 #@! TO.P,U4,4,GND*
G04 #@! TO.N,GND*
X86900000Y-44770000D03*
G04 #@! TO.P,U4,5,Gate*
G04 #@! TO.N,Net-(Q3-G)*
X86900000Y-39230000D03*
G04 #@! TO.P,U4,6,NC*
G04 #@! TO.N,unconnected-(U4-NC-Pad6)*
X85630000Y-39230000D03*
G04 #@! TO.P,U4,7,NC*
G04 #@! TO.N,unconnected-(U4-NC-Pad7)*
X84370000Y-39230000D03*
G04 #@! TO.P,U4,8,NC*
G04 #@! TO.N,unconnected-(U4-NC-Pad8)*
X83090000Y-39230000D03*
G04 #@! TD*
D12*
G04 #@! TO.P,R15,1,1*
G04 #@! TO.N,Net-(R10-Pad2)*
X104500000Y-38000000D03*
G04 #@! TO.P,R15,2,2*
G04 #@! TO.N,/V_LED*
X106500000Y-38000000D03*
G04 #@! TD*
D17*
G04 #@! TO.P,REF\u002A\u002A,1*
G04 #@! TO.N,Net-(Q3-G)*
X96900000Y-45420000D03*
G04 #@! TO.P,REF\u002A\u002A,2*
G04 #@! TO.N,/LED_1_VCC*
X93090000Y-39580000D03*
X94370000Y-39580000D03*
D18*
X95000000Y-41890000D03*
D17*
X95630000Y-39580000D03*
X96900000Y-39580000D03*
G04 #@! TO.P,REF\u002A\u002A,3*
G04 #@! TO.N,/V_LED*
X93090000Y-45420000D03*
X94370000Y-45420000D03*
X95630000Y-45420000D03*
G04 #@! TD*
D19*
G04 #@! TO.P,U1,1,I/O1*
G04 #@! TO.N,/D-*
X35725000Y-35500000D03*
G04 #@! TO.P,U1,2,GND*
G04 #@! TO.N,GND*
X35725000Y-36450000D03*
G04 #@! TO.P,U1,3,I/O2*
G04 #@! TO.N,/D+*
X35725000Y-37400000D03*
G04 #@! TO.P,U1,4,I/O2*
G04 #@! TO.N,/D+_OUT*
X38000000Y-37400000D03*
G04 #@! TO.P,U1,5,VBUS*
G04 #@! TO.N,unconnected-(U1-VBUS-Pad5)*
X38000000Y-36450000D03*
G04 #@! TO.P,U1,6,I/O1*
G04 #@! TO.N,/D-_OUT*
X38000000Y-35500000D03*
G04 #@! TD*
D11*
G04 #@! TO.P,C5,1,1*
G04 #@! TO.N,GND*
X50500000Y-24400000D03*
G04 #@! TO.P,C5,2,2*
G04 #@! TO.N,/VBUS_C*
X52500000Y-24400000D03*
G04 #@! TD*
D20*
G04 #@! TO.P,U3,1,VDD*
G04 #@! TO.N,/VDD_C*
X26500000Y-37000000D03*
G04 #@! TO.P,U3,2,CFG2*
G04 #@! TO.N,unconnected-(U3-CFG2-Pad2)*
X27500000Y-37000000D03*
G04 #@! TO.P,U3,3,CFG3*
G04 #@! TO.N,unconnected-(U3-CFG3-Pad3)*
X28500000Y-37000000D03*
G04 #@! TO.P,U3,4,DP*
G04 #@! TO.N,unconnected-(U3-DP-Pad4)*
X29500000Y-37000000D03*
G04 #@! TO.P,U3,5,DM*
G04 #@! TO.N,unconnected-(U3-DM-Pad5)*
X30500000Y-37000000D03*
G04 #@! TO.P,U3,6,CC2*
G04 #@! TO.N,Net-(D1-K1)*
X30500000Y-31000000D03*
G04 #@! TO.P,U3,7,CC1*
G04 #@! TO.N,Net-(D1-K2)*
X29500000Y-31000000D03*
G04 #@! TO.P,U3,8,VBUS*
G04 #@! TO.N,Net-(U3-VBUS)*
X28500000Y-31000000D03*
G04 #@! TO.P,U3,9,CFG1*
G04 #@! TO.N,Net-(J4-Pin_10)*
X27500000Y-31000000D03*
G04 #@! TO.P,U3,10,PG*
G04 #@! TO.N,Net-(U3-PG)*
X26500000Y-31000000D03*
D21*
G04 #@! TO.P,U3,11*
G04 #@! TO.N,N/C*
X28500000Y-34000000D03*
G04 #@! TD*
D22*
G04 #@! TO.P,J4,1,Pin_1*
G04 #@! TO.N,unconnected-(J4-Pin_1-Pad1)*
X27000000Y-18000000D03*
D23*
G04 #@! TO.P,J4,2,Pin_2*
G04 #@! TO.N,unconnected-(J4-Pin_2-Pad2)*
X27000000Y-16000000D03*
G04 #@! TO.P,J4,3,Pin_3*
G04 #@! TO.N,Net-(J4-Pin_3)*
X29000000Y-18000000D03*
G04 #@! TO.P,J4,4,Pin_4*
G04 #@! TO.N,Net-(J4-Pin_10)*
X29000000Y-16000000D03*
G04 #@! TO.P,J4,5,Pin_5*
G04 #@! TO.N,Net-(J4-Pin_5)*
X31000000Y-18000000D03*
G04 #@! TO.P,J4,6,Pin_6*
G04 #@! TO.N,Net-(J4-Pin_10)*
X31000000Y-16000000D03*
G04 #@! TO.P,J4,7,Pin_7*
G04 #@! TO.N,Net-(J4-Pin_7)*
X33000000Y-18000000D03*
G04 #@! TO.P,J4,8,Pin_8*
G04 #@! TO.N,Net-(J4-Pin_10)*
X33000000Y-16000000D03*
G04 #@! TO.P,J4,9,Pin_9*
G04 #@! TO.N,/VDD_C*
X35000000Y-18000000D03*
G04 #@! TO.P,J4,10,Pin_10*
G04 #@! TO.N,Net-(J4-Pin_10)*
X35000000Y-16000000D03*
G04 #@! TD*
D24*
G04 #@! TO.P,R2,1,1*
G04 #@! TO.N,GND*
X34000000Y-23500000D03*
G04 #@! TO.P,R2,2,2*
G04 #@! TO.N,Net-(J4-Pin_3)*
X34000000Y-21500000D03*
G04 #@! TD*
D11*
G04 #@! TO.P,C30,1,1*
G04 #@! TO.N,/FB*
X78500000Y-15500000D03*
G04 #@! TO.P,C30,2,2*
G04 #@! TO.N,+5V*
X80500000Y-15500000D03*
G04 #@! TD*
D25*
G04 #@! TO.P,J7,1,Pin_1*
G04 #@! TO.N,+5V*
X61000000Y-15500000D03*
D26*
G04 #@! TO.P,J7,2,Pin_2*
G04 #@! TO.N,GND*
X63000000Y-15500000D03*
G04 #@! TD*
D11*
G04 #@! TO.P,C7,1,1*
G04 #@! TO.N,GND*
X50500000Y-30300000D03*
G04 #@! TO.P,C7,2,2*
G04 #@! TO.N,Net-(U5-EN)*
X52500000Y-30300000D03*
G04 #@! TD*
D27*
G04 #@! TO.P,J6,1,Pin_1*
G04 #@! TO.N,/GPIO6*
X25880000Y-54300000D03*
D28*
G04 #@! TO.P,J6,2,Pin_2*
G04 #@! TO.N,/GPIO5*
X28420000Y-54300000D03*
G04 #@! TO.P,J6,3,Pin_3*
G04 #@! TO.N,/GPIO4*
X30960000Y-54300000D03*
G04 #@! TO.P,J6,4,Pin_4*
G04 #@! TO.N,GND*
X33500000Y-54300000D03*
G04 #@! TO.P,J6,5,Pin_5*
G04 #@! TO.N,+3.3V*
X36040000Y-54300000D03*
G04 #@! TD*
D12*
G04 #@! TO.P,R20,1,1*
G04 #@! TO.N,/FB*
X83500000Y-18500000D03*
G04 #@! TO.P,R20,2,2*
G04 #@! TO.N,+5V*
X85500000Y-18500000D03*
G04 #@! TD*
D19*
G04 #@! TO.P,U7,1,GND*
G04 #@! TO.N,GND*
X62000000Y-25600000D03*
G04 #@! TO.P,U7,2,SW*
G04 #@! TO.N,/SW_5V*
X62000000Y-26550000D03*
G04 #@! TO.P,U7,3,VIN*
G04 #@! TO.N,/VBUS_C*
X62000000Y-27500000D03*
G04 #@! TO.P,U7,4,FB*
G04 #@! TO.N,/FB*
X64275000Y-27500000D03*
G04 #@! TO.P,U7,5,EN*
G04 #@! TO.N,unconnected-(U7-EN-Pad5)*
X64275000Y-26550000D03*
G04 #@! TO.P,U7,6,BOOT*
G04 #@! TO.N,/BOOT*
X64275000Y-25600000D03*
G04 #@! TD*
D11*
G04 #@! TO.P,C2,1,1*
G04 #@! TO.N,GND*
X31000000Y-46500000D03*
G04 #@! TO.P,C2,2,2*
G04 #@! TO.N,/VDD_C*
X33000000Y-46500000D03*
G04 #@! TD*
D29*
G04 #@! TO.P,D1,1,K1*
G04 #@! TO.N,Net-(D1-K1)*
X36000000Y-28200000D03*
G04 #@! TO.P,D1,2,K2*
G04 #@! TO.N,Net-(D1-K2)*
X36000000Y-29500000D03*
G04 #@! TO.P,D1,3,A*
G04 #@! TO.N,GND*
X38000000Y-28850000D03*
G04 #@! TD*
D11*
G04 #@! TO.P,C1,1,1*
G04 #@! TO.N,GND*
X84000000Y-50000000D03*
G04 #@! TO.P,C1,2,2*
G04 #@! TO.N,/V_LED*
X86000000Y-50000000D03*
G04 #@! TD*
G04 #@! TO.P,C6,1,1*
G04 #@! TO.N,GND*
X50500000Y-27350000D03*
G04 #@! TO.P,C6,2,2*
G04 #@! TO.N,+3.3V*
X52500000Y-27350000D03*
G04 #@! TD*
D12*
G04 #@! TO.P,R4,1,1*
G04 #@! TO.N,Net-(U3-VBUS)*
X31000000Y-43500000D03*
G04 #@! TO.P,R4,2,2*
G04 #@! TO.N,/VBUS_C*
X33000000Y-43500000D03*
G04 #@! TD*
D30*
G04 #@! TO.P,J10,1,Pin_1*
G04 #@! TO.N,/LED_1_VCC*
X105000000Y-15190000D03*
G04 #@! TO.P,J10,2,Pin_2*
X105000000Y-19000000D03*
G04 #@! TO.P,J10,3,Pin_3*
G04 #@! TO.N,/LED_DATA*
X105000000Y-22810000D03*
G04 #@! TO.P,J10,4,Pin_4*
G04 #@! TO.N,GND*
X105000000Y-26620000D03*
G04 #@! TO.P,J10,5,Pin_5*
X105000000Y-30430000D03*
G04 #@! TD*
D12*
G04 #@! TO.P,R12,1,1*
G04 #@! TO.N,Net-(D4-A)*
X21000000Y-24500000D03*
G04 #@! TO.P,R12,2,2*
G04 #@! TO.N,/OUT*
X23000000Y-24500000D03*
G04 #@! TD*
D31*
G04 #@! TO.P,U5,1,GND*
G04 #@! TO.N,unconnected-(U5-GND-Pad1)*
X78500000Y-52000000D03*
G04 #@! TO.P,U5,2,3V3*
G04 #@! TO.N,+3.3V*
X78500000Y-50730000D03*
G04 #@! TO.P,U5,3,EN*
G04 #@! TO.N,Net-(U5-EN)*
X78500000Y-49460000D03*
G04 #@! TO.P,U5,4,IO4*
G04 #@! TO.N,/GPIO4*
X78500000Y-48190000D03*
G04 #@! TO.P,U5,5,IO5*
G04 #@! TO.N,/GPIO5*
X78500000Y-46920000D03*
G04 #@! TO.P,U5,6,IO6*
G04 #@! TO.N,/GPIO6*
X78500000Y-45650000D03*
G04 #@! TO.P,U5,7,IO7*
G04 #@! TO.N,/VOLT_OUT*
X78500000Y-44380000D03*
G04 #@! TO.P,U5,8,IO15*
G04 #@! TO.N,unconnected-(U5-IO15-Pad8)*
X78500000Y-43110000D03*
G04 #@! TO.P,U5,9,IO16*
G04 #@! TO.N,unconnected-(U5-IO16-Pad9)*
X78500000Y-41840000D03*
G04 #@! TO.P,U5,10,IO17*
G04 #@! TO.N,unconnected-(U5-IO17-Pad10)*
X78500000Y-40570000D03*
G04 #@! TO.P,U5,11,IO18*
G04 #@! TO.N,/GPIO18*
X78500000Y-39300000D03*
G04 #@! TO.P,U5,12,IO8*
G04 #@! TO.N,/GPIO12*
X78500000Y-38030000D03*
G04 #@! TO.P,U5,13,IO19*
G04 #@! TO.N,/D-_OUT*
X78500000Y-36760000D03*
G04 #@! TO.P,U5,14,IO20*
G04 #@! TO.N,/D+_OUT*
X78500000Y-35490000D03*
D32*
G04 #@! TO.P,U5,15,IO3*
G04 #@! TO.N,unconnected-(U5-IO3-Pad15)*
X76740000Y-34220000D03*
G04 #@! TO.P,U5,16,IO46*
G04 #@! TO.N,unconnected-(U5-IO46-Pad16)*
X75470000Y-34220000D03*
G04 #@! TO.P,U5,17,IO9*
G04 #@! TO.N,unconnected-(U5-IO9-Pad17)*
X74200000Y-34220000D03*
G04 #@! TO.P,U5,18,IO10*
G04 #@! TO.N,unconnected-(U5-IO10-Pad18)*
X72930000Y-34220000D03*
G04 #@! TO.P,U5,19,IO11*
G04 #@! TO.N,unconnected-(U5-IO11-Pad19)*
X71660000Y-34220000D03*
G04 #@! TO.P,U5,20,IO12*
G04 #@! TO.N,unconnected-(U5-IO12-Pad20)*
X70380000Y-34220000D03*
G04 #@! TO.P,U5,21,IO13*
G04 #@! TO.N,unconnected-(U5-IO13-Pad21)*
X69120000Y-34220000D03*
G04 #@! TO.P,U5,22,IO14*
G04 #@! TO.N,unconnected-(U5-IO14-Pad22)*
X67850000Y-34220000D03*
G04 #@! TO.P,U5,23,IO21*
G04 #@! TO.N,unconnected-(U5-IO21-Pad23)*
X66580000Y-34220000D03*
G04 #@! TO.P,U5,24,IO47*
G04 #@! TO.N,/MOS_1*
X65300000Y-34220000D03*
G04 #@! TO.P,U5,25,IO48*
G04 #@! TO.N,unconnected-(U5-IO48-Pad25)*
X64030000Y-34220000D03*
G04 #@! TO.P,U5,26,IO45*
G04 #@! TO.N,unconnected-(U5-IO45-Pad26)*
X62760000Y-34250000D03*
D31*
G04 #@! TO.P,U5,27,IO0*
G04 #@! TO.N,Net-(U5-IO0)*
X61000000Y-35490000D03*
G04 #@! TO.P,U5,28,IO35*
G04 #@! TO.N,/GPIO35*
X61000000Y-36760000D03*
G04 #@! TO.P,U5,29,IO36*
G04 #@! TO.N,/GPIO36*
X61000000Y-38030000D03*
G04 #@! TO.P,U5,30,IO37*
G04 #@! TO.N,/GPIO37*
X61000000Y-39300000D03*
G04 #@! TO.P,U5,31,IO38*
G04 #@! TO.N,/GPIO38*
X61000000Y-40570000D03*
G04 #@! TO.P,U5,32,IO39*
G04 #@! TO.N,/GPIO39*
X61000000Y-41840000D03*
G04 #@! TO.P,U5,33,IO40*
G04 #@! TO.N,/GPIO40*
X61000000Y-43110000D03*
G04 #@! TO.P,U5,34,IO41*
G04 #@! TO.N,/GPIO41*
X61000000Y-44380000D03*
G04 #@! TO.P,U5,35,IO42*
G04 #@! TO.N,/GPIO42*
X61000000Y-45650000D03*
G04 #@! TO.P,U5,36,RXD0*
G04 #@! TO.N,/RX*
X61000000Y-46920000D03*
G04 #@! TO.P,U5,37,TXD0*
G04 #@! TO.N,/TX*
X61000000Y-48190000D03*
G04 #@! TO.P,U5,38,IO2*
G04 #@! TO.N,unconnected-(U5-IO2-Pad38)*
X61000000Y-49460000D03*
G04 #@! TO.P,U5,39,IO1*
G04 #@! TO.N,/LED_DATA*
X61000000Y-50730000D03*
G04 #@! TO.P,U5,40,GND*
G04 #@! TO.N,GND*
X61000000Y-52000000D03*
D33*
G04 #@! TO.P,U5,41,EPAD*
G04 #@! TO.N,unconnected-(U5-EPAD-Pad41)*
X72650000Y-45680000D03*
X72650000Y-44280000D03*
X72650000Y-42880000D03*
X71250000Y-45680000D03*
X71250000Y-44280000D03*
X71250000Y-42880000D03*
X69850000Y-45680000D03*
X69850000Y-44280000D03*
X69850000Y-42880000D03*
G04 #@! TD*
D12*
G04 #@! TO.P,R13,1,1*
G04 #@! TO.N,GND*
X83500000Y-22500000D03*
G04 #@! TO.P,R13,2,2*
G04 #@! TO.N,/FB*
X85500000Y-22500000D03*
G04 #@! TD*
G04 #@! TO.P,R10,1,1*
G04 #@! TO.N,/VOLT_OUT*
X104500000Y-41000000D03*
G04 #@! TO.P,R10,2,2*
G04 #@! TO.N,Net-(R10-Pad2)*
X106500000Y-41000000D03*
G04 #@! TD*
D24*
G04 #@! TO.P,R16,1,1*
G04 #@! TO.N,GND*
X30500000Y-23500000D03*
G04 #@! TO.P,R16,2,2*
G04 #@! TO.N,Net-(J4-Pin_5)*
X30500000Y-21500000D03*
G04 #@! TD*
D12*
G04 #@! TO.P,R22,1,1*
G04 #@! TO.N,GND*
X83500000Y-15500000D03*
G04 #@! TO.P,R22,2,2*
G04 #@! TO.N,/FB*
X85500000Y-15500000D03*
G04 #@! TD*
G04 #@! TO.P,R7,1,1*
G04 #@! TO.N,+3.3V*
X50500000Y-40000000D03*
G04 #@! TO.P,R7,2,2*
G04 #@! TO.N,Net-(U5-IO0)*
X52500000Y-40000000D03*
G04 #@! TD*
G04 #@! TO.P,R3,1,1*
G04 #@! TO.N,/VDD_C*
X26000000Y-43500000D03*
G04 #@! TO.P,R3,2,2*
G04 #@! TO.N,/VBUS_C*
X28000000Y-43500000D03*
G04 #@! TD*
D11*
G04 #@! TO.P,C3,1,1*
G04 #@! TO.N,GND*
X50500000Y-21450000D03*
G04 #@! TO.P,C3,2,2*
G04 #@! TO.N,+3.3V*
X52500000Y-21450000D03*
G04 #@! TD*
D34*
G04 #@! TO.P,J2,*
G04 #@! TO.N,*
X17262500Y-36100000D03*
X17262500Y-41900000D03*
D35*
G04 #@! TO.P,J2,0*
G04 #@! TO.N,Earth*
X17762500Y-34670000D03*
G04 #@! TO.P,J2,1*
X17762500Y-43330000D03*
D36*
G04 #@! TO.P,J2,2*
X13582500Y-43330000D03*
G04 #@! TO.P,J2,3*
X13582500Y-34670000D03*
D37*
G04 #@! TO.P,J2,A1,GND*
G04 #@! TO.N,GND*
X18522500Y-35650000D03*
G04 #@! TO.P,J2,A4,VBUS*
G04 #@! TO.N,/VBUS_C*
X18522500Y-36450000D03*
G04 #@! TO.P,J2,A5,CC1*
G04 #@! TO.N,Net-(D1-K2)*
X18522500Y-37750000D03*
G04 #@! TO.P,J2,A6,D+*
G04 #@! TO.N,/D+*
X18522500Y-38750000D03*
G04 #@! TO.P,J2,A7,D-*
G04 #@! TO.N,/D-*
X18522500Y-39250000D03*
G04 #@! TO.P,J2,A8,SBU1*
G04 #@! TO.N,unconnected-(J2-SBU1-PadA8)*
X18522500Y-40250000D03*
G04 #@! TO.P,J2,A9,VBUS*
G04 #@! TO.N,/VBUS_C*
X18522500Y-41550000D03*
G04 #@! TO.P,J2,A12,GND*
G04 #@! TO.N,GND*
X18522500Y-42350000D03*
G04 #@! TO.P,J2,B1,GND*
X18522500Y-42050000D03*
G04 #@! TO.P,J2,B4,VBUS*
G04 #@! TO.N,/VBUS_C*
X18522500Y-41250000D03*
G04 #@! TO.P,J2,B5,CC2*
G04 #@! TO.N,Net-(D1-K1)*
X18522500Y-40750000D03*
G04 #@! TO.P,J2,B6,D+*
G04 #@! TO.N,/D+*
X18522500Y-39750000D03*
G04 #@! TO.P,J2,B7,D-*
G04 #@! TO.N,/D-*
X18522500Y-38250000D03*
G04 #@! TO.P,J2,B8,SBU2*
G04 #@! TO.N,unconnected-(J2-SBU2-PadB8)*
X18522500Y-37250000D03*
G04 #@! TO.P,J2,B9,VBUS*
G04 #@! TO.N,/VBUS_C*
X18522500Y-36750000D03*
G04 #@! TO.P,J2,B12,GND*
G04 #@! TO.N,GND*
X18522500Y-35950000D03*
G04 #@! TD*
D38*
G04 #@! TO.P,U9,1,GND*
G04 #@! TO.N,GND*
X70700000Y-29470000D03*
G04 #@! TO.P,U9,2,VOUT*
G04 #@! TO.N,unconnected-(U9-VOUT-Pad2)*
X73000000Y-29470000D03*
G04 #@! TO.P,U9,3,VIN*
G04 #@! TO.N,+5V*
X75300000Y-29470000D03*
D39*
G04 #@! TO.P,U9,4,VOUT*
G04 #@! TO.N,+3.3V*
X73000000Y-23530000D03*
G04 #@! TD*
D40*
G04 #@! TO.P,L2,1,1*
G04 #@! TO.N,/SW_5V*
X71925000Y-18000000D03*
G04 #@! TO.P,L2,2,2*
G04 #@! TO.N,+5V*
X74075000Y-18000000D03*
G04 #@! TD*
D41*
G04 #@! TO.P,SW1,*
G04 #@! TO.N,*
X42800000Y-14000000D03*
X44500000Y-14000000D03*
D42*
G04 #@! TO.P,SW1,1,1*
G04 #@! TO.N,GND*
X41970000Y-15200000D03*
G04 #@! TO.P,SW1,2,2*
G04 #@! TO.N,Net-(U5-IO0)*
X45330000Y-15200000D03*
D43*
G04 #@! TO.P,SW1,3*
G04 #@! TO.N,N/C*
X45750000Y-13500000D03*
G04 #@! TO.P,SW1,4*
X41550000Y-13500000D03*
G04 #@! TD*
D24*
G04 #@! TO.P,R17,1,1*
G04 #@! TO.N,GND*
X27000000Y-23500000D03*
G04 #@! TO.P,R17,2,2*
G04 #@! TO.N,Net-(J4-Pin_7)*
X27000000Y-21500000D03*
G04 #@! TD*
D27*
G04 #@! TO.P,J8,1,Pin_1*
G04 #@! TO.N,+3.3V*
X82400000Y-54975000D03*
D28*
G04 #@! TO.P,J8,2,Pin_2*
G04 #@! TO.N,/TX*
X84940000Y-54975000D03*
G04 #@! TO.P,J8,3,Pin_3*
G04 #@! TO.N,/RX*
X87480000Y-54975000D03*
G04 #@! TO.P,J8,4,Pin_4*
G04 #@! TO.N,GND*
X90020000Y-54975000D03*
G04 #@! TO.P,J8,5,Pin_5*
G04 #@! TO.N,/GPIO38*
X92560000Y-54975000D03*
G04 #@! TO.P,J8,6,Pin_6*
G04 #@! TO.N,/GPIO37*
X95100000Y-54975000D03*
G04 #@! TO.P,J8,7,Pin_7*
G04 #@! TO.N,/GPIO36*
X97640000Y-54975000D03*
G04 #@! TD*
D12*
G04 #@! TO.P,R11,1,1*
G04 #@! TO.N,GND*
X104500000Y-45000000D03*
G04 #@! TO.P,R11,2,2*
G04 #@! TO.N,/VOLT_OUT*
X106500000Y-45000000D03*
G04 #@! TD*
D44*
G04 #@! TO.N,/VDD_C*
X25001600Y-35999900D03*
X25617900Y-45000000D03*
G04 #@! TO.N,/LED_DATA*
X72905500Y-50176400D03*
X79713200Y-24313400D03*
G04 #@! TO.N,/V_LED*
X90758700Y-46182000D03*
X92818300Y-38248800D03*
G04 #@! TO.N,GND*
X68800000Y-29400000D03*
X83273900Y-48021843D03*
X86500000Y-43000000D03*
X20900000Y-35500000D03*
X49000000Y-24400000D03*
X89000000Y-53000000D03*
X36900000Y-34100000D03*
G04 #@! TO.N,+3.3V*
X52073300Y-35829200D03*
X75766400Y-24341400D03*
X53971600Y-27429300D03*
X37194300Y-44505800D03*
X84500000Y-29360800D03*
G04 #@! TO.N,/VBUS_C*
X55049100Y-47341100D03*
X20500000Y-40500000D03*
X19795000Y-34501900D03*
X54674300Y-33327000D03*
G04 #@! TO.N,Net-(U5-EN)*
X54023700Y-30468200D03*
X58024900Y-41670500D03*
X64165200Y-48526000D03*
G04 #@! TO.N,/BOOT*
X58024900Y-23770500D03*
X56236900Y-32478700D03*
G04 #@! TO.N,/SW_5V*
X64732300Y-18232300D03*
X60399500Y-27519400D03*
G04 #@! TO.N,/FB*
X74350000Y-14250000D03*
X83102000Y-13400000D03*
G04 #@! TO.N,+5V*
X83127100Y-19797900D03*
X82955600Y-29061200D03*
G04 #@! TO.N,Net-(D2-A)*
X71933000Y-29967100D03*
X70655300Y-22690400D03*
G04 #@! TO.N,Net-(J4-Pin_10)*
X27300000Y-29580800D03*
G04 #@! TO.N,Net-(J4-Pin_5)*
X30712700Y-19769800D03*
G04 #@! TO.N,/GPIO4*
X62673300Y-48011900D03*
X58433500Y-56961500D03*
X31664085Y-58389702D03*
G04 #@! TO.N,/GPIO6*
X62816600Y-46784300D03*
X57054100Y-56782700D03*
G04 #@! TO.N,/GPIO5*
X58457700Y-53136000D03*
X66952300Y-47405100D03*
G04 #@! TO.N,/TX*
X72010000Y-49930300D03*
X80133200Y-56130600D03*
G04 #@! TO.N,/GPIO37*
X76917800Y-39422100D03*
X81567400Y-52276700D03*
G04 #@! TO.N,/GPIO36*
X75542300Y-37793700D03*
X79796700Y-49530700D03*
G04 #@! TO.N,/RX*
X76342300Y-46902100D03*
G04 #@! TO.N,/GPIO38*
X80765400Y-51047100D03*
X75779900Y-41770400D03*
G04 #@! TO.N,/LED_1_VCC*
X96710300Y-38000000D03*
X86347500Y-46840500D03*
G04 #@! TO.N,Net-(Q3-G)*
X90522700Y-38514900D03*
X94000000Y-48000000D03*
G04 #@! TO.N,Net-(U3-VBUS)*
X34246300Y-28605800D03*
X32411300Y-44806600D03*
G04 #@! TO.N,Net-(U3-PG)*
X24619100Y-47341100D03*
X25001600Y-31748500D03*
G04 #@! TO.N,Net-(U5-IO0)*
X49097500Y-16152800D03*
X52073300Y-38363800D03*
G04 #@! TO.N,/MOS_1*
X76008800Y-36193800D03*
X80988200Y-43180800D03*
G04 #@! TD*
D10*
G04 #@! TO.N,Net-(D1-K1)*
X22751900Y-28004100D02*
X16309100Y-34446900D01*
X36688600Y-28888600D02*
X36688600Y-29785900D01*
X36394800Y-30079700D02*
X35474500Y-30079700D01*
X36000000Y-28200000D02*
X35804100Y-28004100D01*
X35343100Y-29948300D02*
X30500000Y-29948300D01*
X36000000Y-28200000D02*
X36688600Y-28888600D01*
X35804100Y-28004100D02*
X22751900Y-28004100D01*
X36688600Y-29785900D02*
X36394800Y-30079700D01*
X35474500Y-30079700D02*
X35343100Y-29948300D01*
X17570800Y-40750000D02*
X18522500Y-40750000D01*
X30500000Y-29948300D02*
X30500000Y-31000000D01*
X16309100Y-34446900D02*
X16309100Y-39488300D01*
X16309100Y-39488300D02*
X17570800Y-40750000D01*
G04 #@! TO.N,Net-(D1-K2)*
X27165500Y-32051700D02*
X21467200Y-37750000D01*
X29948300Y-29500000D02*
X36000000Y-29500000D01*
X29500000Y-31000000D02*
X29500000Y-32051700D01*
X29500000Y-32051700D02*
X27165500Y-32051700D01*
X29500000Y-29948300D02*
X29948300Y-29500000D01*
X21467200Y-37750000D02*
X18522500Y-37750000D01*
X29500000Y-31000000D02*
X29500000Y-29948300D01*
G04 #@! TO.N,/VDD_C*
X25617900Y-45000000D02*
X26000000Y-44617900D01*
X33000000Y-45523300D02*
X33000000Y-46500000D01*
X26000000Y-44617900D02*
X26000000Y-43500000D01*
X27133300Y-45523300D02*
X33000000Y-45523300D01*
X26610000Y-45000000D02*
X27133300Y-45523300D01*
X26500000Y-35948300D02*
X25053200Y-35948300D01*
X27133300Y-45523300D02*
X27133300Y-46500000D01*
X25053200Y-35948300D02*
X25001600Y-35999900D01*
X25617900Y-45000000D02*
X26610000Y-45000000D01*
X27133300Y-46500000D02*
X28000000Y-46500000D01*
X26500000Y-37000000D02*
X26500000Y-35948300D01*
G04 #@! TO.N,/LED_DATA*
X105000000Y-22810000D02*
X103497000Y-24313400D01*
X103497000Y-24313400D02*
X79713200Y-24313400D01*
X61000000Y-50730000D02*
X72351900Y-50730000D01*
X72351900Y-50730000D02*
X72905500Y-50176400D01*
G04 #@! TO.N,/D+*
X19474200Y-38750000D02*
X18522500Y-38750000D01*
X34375000Y-38750000D02*
X19474200Y-38750000D01*
X35725000Y-37400000D02*
X34375000Y-38750000D01*
X19474200Y-38750000D02*
X19474200Y-39750000D01*
X19474200Y-39750000D02*
X18522500Y-39750000D01*
G04 #@! TO.N,/D-*
X17572500Y-39200000D02*
X17572500Y-38300000D01*
X25195800Y-38250000D02*
X21859200Y-38250000D01*
X20190900Y-38250000D02*
X19356700Y-38250000D01*
X17622500Y-39250000D02*
X17572500Y-39200000D01*
X17572500Y-38300000D02*
X17622500Y-38250000D01*
X18522500Y-39250000D02*
X17622500Y-39250000D01*
X31869000Y-38250000D02*
X25195800Y-38250000D01*
X35725000Y-35500000D02*
X34619000Y-35500000D01*
X21859200Y-38250000D02*
X20190900Y-38250000D01*
X19356700Y-38250000D02*
X18939600Y-38250000D01*
X18731100Y-38250000D02*
X18522500Y-38250000D01*
X17622500Y-38250000D02*
X18522500Y-38250000D01*
X18939600Y-38250000D02*
X18731100Y-38250000D01*
X34619000Y-35500000D02*
X31869000Y-38250000D01*
D45*
G04 #@! TO.N,/V_LED*
X90758700Y-46521700D02*
X88201600Y-46521700D01*
X106500000Y-36708300D02*
X94358800Y-36708300D01*
X94370000Y-45420000D02*
X94370000Y-46521700D01*
X83673400Y-46396700D02*
X86000000Y-48723300D01*
X83090000Y-46396700D02*
X83673400Y-46396700D01*
X94370000Y-46521700D02*
X90758700Y-46521700D01*
X90758700Y-46182000D02*
X90758700Y-46521700D01*
X94200000Y-17270000D02*
X90800000Y-17270000D01*
X83090000Y-44770000D02*
X83090000Y-46396700D01*
X94358800Y-36708300D02*
X92818300Y-38248800D01*
X106500000Y-38000000D02*
X106500000Y-36708300D01*
X86000000Y-50000000D02*
X86000000Y-48723300D01*
X88201600Y-46521700D02*
X86000000Y-48723300D01*
D10*
G04 #@! TO.N,GND*
X89000000Y-53955000D02*
X90020000Y-54975000D01*
X36387499Y-36450000D02*
X36900000Y-35937499D01*
X36900000Y-35937499D02*
X36900000Y-34100000D01*
X35725000Y-36450000D02*
X36387499Y-36450000D01*
X89000000Y-53000000D02*
X89000000Y-53955000D01*
D46*
G04 #@! TO.N,+3.3V*
X82142500Y-53773300D02*
X82400000Y-53773300D01*
X70573400Y-23530000D02*
X73000000Y-23530000D01*
X68493400Y-21450000D02*
X70573400Y-23530000D01*
X52000000Y-19000000D02*
X52500000Y-19500000D01*
X50500000Y-43000000D02*
X49583300Y-43000000D01*
X50500000Y-43000000D02*
X50500000Y-40000000D01*
X48077500Y-44505800D02*
X37194300Y-44505800D01*
X52500000Y-26323300D02*
X48923300Y-26323300D01*
X73000000Y-23530000D02*
X75151700Y-23530000D01*
X46500000Y-22000000D02*
X49500000Y-19000000D01*
X78500000Y-50730000D02*
X79601700Y-50730000D01*
X84583300Y-29444100D02*
X84583300Y-30500000D01*
X53636000Y-27429300D02*
X53971600Y-27429300D01*
X46500000Y-23900000D02*
X46500000Y-22000000D01*
X82400000Y-53773300D02*
X82400000Y-54975000D01*
X52500000Y-19500000D02*
X52500000Y-21450000D01*
X52500000Y-21450000D02*
X68493400Y-21450000D01*
X75151700Y-23530000D02*
X75151700Y-23726700D01*
X49583300Y-43000000D02*
X48077500Y-44505800D01*
X52500000Y-27350000D02*
X53556700Y-27350000D01*
X53556700Y-27350000D02*
X53636000Y-27429300D01*
X79601700Y-50730000D02*
X79601700Y-51232500D01*
X79601700Y-51232500D02*
X82142500Y-53773300D01*
X84583300Y-30500000D02*
X85500000Y-30500000D01*
X84500000Y-29360800D02*
X84583300Y-29444100D01*
X50500000Y-40000000D02*
X50500000Y-37402500D01*
X48923300Y-26323300D02*
X46500000Y-23900000D01*
X52500000Y-27350000D02*
X52500000Y-26323300D01*
X75151700Y-23726700D02*
X75766400Y-24341400D01*
X50500000Y-37402500D02*
X52073300Y-35829200D01*
X49500000Y-19000000D02*
X52000000Y-19000000D01*
D10*
G04 #@! TO.N,/VBUS_C*
X62000000Y-31491700D02*
X89503600Y-31491700D01*
X18522500Y-41550000D02*
X18822500Y-41250000D01*
X20500000Y-40500000D02*
X20000000Y-41000000D01*
X33866700Y-43500000D02*
X33000000Y-43500000D01*
X20500000Y-41500000D02*
X26133700Y-41500000D01*
X94200000Y-29128300D02*
X94200000Y-30730000D01*
X27133300Y-43500000D02*
X28000000Y-43500000D01*
X18522500Y-36750000D02*
X21350000Y-36750000D01*
X90800000Y-32331700D02*
X90800000Y-30730000D01*
X22600000Y-35500000D02*
X21601900Y-34501900D01*
X32133300Y-42931300D02*
X31701600Y-42499600D01*
X18522500Y-36750000D02*
X18522500Y-36450000D01*
X89503600Y-31491700D02*
X90343600Y-32331700D01*
X32133300Y-43500000D02*
X32133300Y-42931300D01*
X18522500Y-41250000D02*
X18522500Y-41550000D01*
X21350000Y-36750000D02*
X22600000Y-35500000D01*
X49500000Y-47341100D02*
X37707800Y-47341100D01*
X19750000Y-41250000D02*
X20000000Y-41000000D01*
X26133700Y-41500000D02*
X27133300Y-42499600D01*
X52500000Y-24400000D02*
X53400000Y-23500000D01*
X54674300Y-33327000D02*
X56239500Y-33327000D01*
X31701600Y-42499600D02*
X27133300Y-42499600D01*
X90800000Y-30730000D02*
X90800000Y-29128300D01*
X49500000Y-47341100D02*
X55049100Y-47341100D01*
X53400000Y-23500000D02*
X54270500Y-24370500D01*
X58591948Y-24370500D02*
X59462448Y-23500000D01*
X54270500Y-24370500D02*
X58591948Y-24370500D01*
X59462448Y-23500000D02*
X62000000Y-23500000D01*
X58074700Y-31491800D02*
X58074700Y-31491700D01*
X62000000Y-23500000D02*
X62967900Y-24467900D01*
X37707800Y-47341100D02*
X33866700Y-43500000D01*
X21601900Y-34501900D02*
X19795000Y-34501900D01*
X33000000Y-43500000D02*
X32133300Y-43500000D01*
X58074700Y-31491700D02*
X62000000Y-31491700D01*
X90800000Y-29128300D02*
X94200000Y-29128300D01*
X62000000Y-27500000D02*
X62000000Y-31491700D01*
X62413900Y-27500000D02*
X62000000Y-27500000D01*
X90343600Y-32331700D02*
X90800000Y-32331700D01*
X56239500Y-33327000D02*
X58074700Y-31491800D01*
X27133300Y-42499600D02*
X27133300Y-43500000D01*
X62967900Y-24467900D02*
X62967900Y-26946000D01*
X18822500Y-41250000D02*
X19750000Y-41250000D01*
X62967900Y-26946000D02*
X62413900Y-27500000D01*
X20000000Y-41000000D02*
X20500000Y-41500000D01*
X49500000Y-54500000D02*
X49500000Y-47341100D01*
G04 #@! TO.N,Net-(U5-EN)*
X54696200Y-41670500D02*
X58024900Y-41670500D01*
X77448300Y-49460000D02*
X78500000Y-49460000D01*
X52500000Y-43000000D02*
X53366700Y-43000000D01*
X53674900Y-30468200D02*
X54023700Y-30468200D01*
X53366700Y-43000000D02*
X54696200Y-41670500D01*
X76514300Y-48526000D02*
X77448300Y-49460000D01*
X53506700Y-30300000D02*
X53674900Y-30468200D01*
X64165200Y-48526000D02*
X76514300Y-48526000D01*
X52500000Y-30300000D02*
X53506700Y-30300000D01*
G04 #@! TO.N,/BOOT*
X58729500Y-23770500D02*
X58024900Y-23770500D01*
X64275000Y-25600000D02*
X64275000Y-24775000D01*
X54057400Y-32699300D02*
X56016300Y-32699300D01*
X64275000Y-24775000D02*
X62500000Y-23000000D01*
X62500000Y-23000000D02*
X59500000Y-23000000D01*
X53506700Y-33250000D02*
X54057400Y-32699300D01*
X52500000Y-33250000D02*
X53506700Y-33250000D01*
X59500000Y-23000000D02*
X58729500Y-23770500D01*
X56016300Y-32699300D02*
X56236900Y-32478700D01*
G04 #@! TO.N,/SW_5V*
X64964600Y-18000000D02*
X71925000Y-18000000D01*
X54472000Y-32273300D02*
X50500000Y-32273300D01*
X50500000Y-32273300D02*
X50500000Y-33250000D01*
X59225900Y-27519400D02*
X54472000Y-32273300D01*
X61368900Y-26550000D02*
X60399500Y-27519400D01*
X60399500Y-27519400D02*
X59225900Y-27519400D01*
X62000000Y-26550000D02*
X61368900Y-26550000D01*
X64732300Y-18232300D02*
X64964600Y-18000000D01*
G04 #@! TO.N,/FB*
X85500000Y-15500000D02*
X84633300Y-15500000D01*
X83900000Y-13400000D02*
X83102000Y-13400000D01*
X84219300Y-23491700D02*
X85066700Y-22644300D01*
X78295500Y-23491700D02*
X84219300Y-23491700D01*
X85500000Y-22500000D02*
X85066700Y-22500000D01*
X67500000Y-26000000D02*
X75787200Y-26000000D01*
X86366700Y-19332100D02*
X86366700Y-15500000D01*
X66000000Y-27500000D02*
X67500000Y-26000000D01*
X75787200Y-26000000D02*
X78295500Y-23491700D01*
X85066700Y-22500000D02*
X85066700Y-20545000D01*
X86366700Y-15500000D02*
X85500000Y-15500000D01*
X84633300Y-15500000D02*
X84633300Y-14133300D01*
X85153800Y-20545000D02*
X86366700Y-19332100D01*
X84366700Y-19845000D02*
X85066700Y-20545000D01*
X83500000Y-18500000D02*
X84366700Y-18500000D01*
X74350000Y-14250000D02*
X76400000Y-16300000D01*
X76400000Y-16300000D02*
X77700000Y-16300000D01*
X64275000Y-27500000D02*
X66000000Y-27500000D01*
X85066700Y-20545000D02*
X85153800Y-20545000D01*
X85066700Y-22644300D02*
X85066700Y-22500000D01*
X84366700Y-18500000D02*
X84366700Y-19845000D01*
X84633300Y-14133300D02*
X83900000Y-13400000D01*
X77700000Y-16300000D02*
X78500000Y-15500000D01*
D46*
G04 #@! TO.N,+5V*
X62255900Y-14244100D02*
X70319100Y-14244100D01*
X74075000Y-18000000D02*
X79026700Y-18000000D01*
X85500000Y-18500000D02*
X84302200Y-17302200D01*
X79026700Y-18000000D02*
X80106000Y-16920700D01*
X81762700Y-27868300D02*
X82955600Y-29061200D01*
X75300000Y-29470000D02*
X75300000Y-27868300D01*
X80106000Y-16920700D02*
X82983200Y-19797900D01*
X80106000Y-16920700D02*
X80500000Y-16526700D01*
X61000000Y-15500000D02*
X62255900Y-14244100D01*
X80500000Y-15500000D02*
X80500000Y-16526700D01*
X81275500Y-17302200D02*
X80500000Y-16526700D01*
X70319100Y-14244100D02*
X74075000Y-18000000D01*
X82983200Y-19797900D02*
X83127100Y-19797900D01*
X84302200Y-17302200D02*
X81275500Y-17302200D01*
X75300000Y-27868300D02*
X81762700Y-27868300D01*
D10*
G04 #@! TO.N,Net-(D2-A)*
X82111600Y-31021700D02*
X72296500Y-31021700D01*
X48500000Y-18000000D02*
X53000000Y-18000000D01*
X15900000Y-24500000D02*
X14800000Y-24500000D01*
X14100000Y-22633300D02*
X43866700Y-22633300D01*
X71933000Y-30658200D02*
X71933000Y-29967100D01*
X83500000Y-30500000D02*
X82633300Y-30500000D01*
X53000000Y-18000000D02*
X55000000Y-20000000D01*
X43866700Y-22633300D02*
X48500000Y-18000000D01*
X14100000Y-23800000D02*
X14100000Y-22633300D01*
X82633300Y-30500000D02*
X82111600Y-31021700D01*
X72296500Y-31021700D02*
X71933000Y-30658200D01*
X55000000Y-20000000D02*
X67964900Y-20000000D01*
X14800000Y-24500000D02*
X14100000Y-23800000D01*
X67964900Y-20000000D02*
X70655300Y-22690400D01*
G04 #@! TO.N,Net-(D4-A)*
X19600000Y-25900000D02*
X21000000Y-24500000D01*
X15350000Y-27810000D02*
X15350000Y-27250000D01*
X15350000Y-27250000D02*
X16700000Y-25900000D01*
X16700000Y-25900000D02*
X19600000Y-25900000D01*
G04 #@! TO.N,Net-(J4-Pin_3)*
X34000000Y-21500000D02*
X33008300Y-21500000D01*
X33008300Y-21214500D02*
X30961900Y-19168100D01*
X29976700Y-18000000D02*
X29000000Y-18000000D01*
X30961900Y-19168100D02*
X30747800Y-19168100D01*
X33008300Y-21500000D02*
X33008300Y-21214500D01*
X30747800Y-19168100D02*
X29976700Y-18397000D01*
X29976700Y-18397000D02*
X29976700Y-18000000D01*
G04 #@! TO.N,Net-(J4-Pin_10)*
X27500000Y-31000000D02*
X27500000Y-29948300D01*
X35000000Y-16000000D02*
X33000000Y-16000000D01*
X27300000Y-29748300D02*
X27300000Y-29580800D01*
X27500000Y-29948300D02*
X27300000Y-29748300D01*
X33000000Y-16000000D02*
X31000000Y-16000000D01*
X31000000Y-16000000D02*
X29000000Y-16000000D01*
G04 #@! TO.N,Net-(J4-Pin_5)*
X30712700Y-19769800D02*
X30500000Y-19982500D01*
X30500000Y-19982500D02*
X30500000Y-21500000D01*
G04 #@! TO.N,Net-(J4-Pin_7)*
X27000000Y-20633300D02*
X27000000Y-21500000D01*
X28000000Y-17612100D02*
X28000000Y-19633300D01*
X31428100Y-17000000D02*
X28612100Y-17000000D01*
X32023300Y-18000000D02*
X32023300Y-17595200D01*
X32023300Y-17595200D02*
X31428100Y-17000000D01*
X33000000Y-18000000D02*
X32023300Y-18000000D01*
X28612100Y-17000000D02*
X28000000Y-17612100D01*
X28000000Y-19633300D02*
X27000000Y-20633300D01*
G04 #@! TO.N,/GPIO4*
X77323800Y-48065500D02*
X65825200Y-48065500D01*
X31901683Y-58627300D02*
X56767700Y-58627300D01*
X65825200Y-48065500D02*
X65598200Y-47838500D01*
X31664085Y-58389702D02*
X31901683Y-58627300D01*
X65598200Y-47838500D02*
X62846700Y-47838500D01*
X77448300Y-48190000D02*
X77323800Y-48065500D01*
X78500000Y-48190000D02*
X77448300Y-48190000D01*
X56767700Y-58627300D02*
X58433500Y-56961500D01*
X62846700Y-47838500D02*
X62673300Y-48011900D01*
G04 #@! TO.N,/GPIO6*
X63199200Y-46401700D02*
X62816600Y-46784300D01*
X25880000Y-54580000D02*
X28800000Y-57500000D01*
X25880000Y-54300000D02*
X25880000Y-54580000D01*
X75059000Y-46518300D02*
X67484400Y-46518300D01*
X78500000Y-45650000D02*
X75927300Y-45650000D01*
X56336800Y-57500000D02*
X57054100Y-56782700D01*
X25880000Y-55000000D02*
X25880000Y-54300000D01*
X67484400Y-46518300D02*
X67367800Y-46401700D01*
X67367800Y-46401700D02*
X63199200Y-46401700D01*
X75927300Y-45650000D02*
X75059000Y-46518300D01*
X28800000Y-57500000D02*
X56336800Y-57500000D01*
G04 #@! TO.N,/GPIO5*
X28420000Y-54300000D02*
X28420000Y-55220000D01*
X77448300Y-46920000D02*
X76845900Y-47522400D01*
X30200000Y-57000000D02*
X49450300Y-57000000D01*
X51500000Y-54021300D02*
X52385300Y-53136000D01*
X52385300Y-53136000D02*
X58457700Y-53136000D01*
X78500000Y-46920000D02*
X77448300Y-46920000D01*
X51500000Y-54950300D02*
X51500000Y-54021300D01*
X67069600Y-47522400D02*
X66952300Y-47405100D01*
X28420000Y-55220000D02*
X30200000Y-57000000D01*
X49450300Y-57000000D02*
X51500000Y-54950300D01*
X76845900Y-47522400D02*
X67069600Y-47522400D01*
G04 #@! TO.N,/TX*
X83424500Y-56130600D02*
X80133200Y-56130600D01*
X83788300Y-54975000D02*
X83788300Y-55766800D01*
X83788300Y-55766800D02*
X83424500Y-56130600D01*
X62051700Y-48241100D02*
X63740900Y-49930300D01*
X62051700Y-48190000D02*
X62051700Y-48241100D01*
X61000000Y-48190000D02*
X62051700Y-48190000D01*
X84940000Y-54975000D02*
X83788300Y-54975000D01*
X63740900Y-49930300D02*
X72010000Y-49930300D01*
G04 #@! TO.N,/GPIO37*
X93878100Y-55045200D02*
X93948300Y-54975000D01*
X93878000Y-55285900D02*
X93878000Y-55045200D01*
X93878000Y-55045200D02*
X93878100Y-55045200D01*
X81567400Y-52276700D02*
X86423600Y-52276700D01*
X86423600Y-52276700D02*
X88868300Y-54721400D01*
X88868300Y-55452100D02*
X89543000Y-56126800D01*
X88868300Y-54721400D02*
X88868300Y-55452100D01*
X93037100Y-56126800D02*
X93878000Y-55285900D01*
X62051700Y-39300000D02*
X62173800Y-39422100D01*
X62173800Y-39422100D02*
X76917800Y-39422100D01*
X93948300Y-54975000D02*
X95100000Y-54975000D01*
X89543000Y-56126800D02*
X93037100Y-56126800D01*
X61000000Y-39300000D02*
X62051700Y-39300000D01*
G04 #@! TO.N,/GPIO36*
X92929900Y-51151100D02*
X81720200Y-51151100D01*
X80099900Y-49530700D02*
X79796700Y-49530700D01*
X81720200Y-51151100D02*
X81720200Y-51151000D01*
X81720200Y-51151000D02*
X80099900Y-49530700D01*
X96488300Y-54975000D02*
X96488300Y-54709500D01*
X75306000Y-38030000D02*
X75542300Y-37793700D01*
X97640000Y-54975000D02*
X96488300Y-54975000D01*
X61000000Y-38030000D02*
X75306000Y-38030000D01*
X96488300Y-54709500D02*
X92929900Y-51151100D01*
G04 #@! TO.N,/RX*
X76256700Y-46987700D02*
X67385800Y-46987700D01*
X67201500Y-46803400D02*
X63750500Y-46803400D01*
X76342300Y-46902100D02*
X76256700Y-46987700D01*
X63143700Y-47410200D02*
X62541900Y-47410200D01*
X62051700Y-46920000D02*
X61000000Y-46920000D01*
X62541900Y-47410200D02*
X62051700Y-46920000D01*
X67385800Y-46987700D02*
X67201500Y-46803400D01*
X63750500Y-46803400D02*
X63143700Y-47410200D01*
G04 #@! TO.N,/GPIO38*
X91408300Y-54975000D02*
X91408300Y-53508300D01*
X81382300Y-51664000D02*
X80765400Y-51047100D01*
X74579500Y-40570000D02*
X75779900Y-41770400D01*
X89564000Y-51664000D02*
X81382300Y-51664000D01*
X92560000Y-54975000D02*
X91408300Y-54975000D01*
X61000000Y-40570000D02*
X74579500Y-40570000D01*
X91408300Y-53508300D02*
X89564000Y-51664000D01*
D45*
G04 #@! TO.N,/LED_1_VCC*
X85630000Y-44770000D02*
X85630000Y-46396700D01*
X85630000Y-46396700D02*
X85903700Y-46396700D01*
X85903700Y-46396700D02*
X86347500Y-46840500D01*
D10*
G04 #@! TO.N,Net-(Q3-G)*
X94000000Y-48000000D02*
X96500000Y-48000000D01*
X86900000Y-39230000D02*
X86900000Y-37903300D01*
X97000000Y-47500000D02*
X97000000Y-46220000D01*
X96900000Y-46120000D02*
X96900000Y-45420000D01*
X97000000Y-46220000D02*
X96900000Y-46120000D01*
X89911100Y-37903300D02*
X90522700Y-38514900D01*
X86900000Y-37903300D02*
X89911100Y-37903300D01*
X96500000Y-48000000D02*
X97000000Y-47500000D01*
G04 #@! TO.N,Net-(U3-VBUS)*
X28500000Y-31000000D02*
X28500000Y-29948300D01*
X32411300Y-44806600D02*
X32306600Y-44806600D01*
X32306600Y-44806600D02*
X31000000Y-43500000D01*
X29842500Y-28605800D02*
X34246300Y-28605800D01*
X28500000Y-29948300D02*
X29842500Y-28605800D01*
G04 #@! TO.N,Net-(U3-PG)*
X25133300Y-46826900D02*
X24619100Y-47341100D01*
X26000000Y-46500000D02*
X25133300Y-46500000D01*
X25133300Y-46500000D02*
X25133300Y-46826900D01*
X26500000Y-31000000D02*
X26500000Y-32051700D01*
X25304800Y-32051700D02*
X25001600Y-31748500D01*
X26500000Y-32051700D02*
X25304800Y-32051700D01*
G04 #@! TO.N,Net-(U5-IO0)*
X48596400Y-15651700D02*
X49097500Y-16152800D01*
X45330000Y-15651700D02*
X48596400Y-15651700D01*
X61000000Y-35490000D02*
X59948300Y-35490000D01*
X45330000Y-14700000D02*
X45330000Y-15651700D01*
X57074500Y-38363800D02*
X52073300Y-38363800D01*
X59948300Y-35490000D02*
X57074500Y-38363800D01*
X52073300Y-38363800D02*
X52500000Y-38790500D01*
X52500000Y-38790500D02*
X52500000Y-40000000D01*
G04 #@! TO.N,/VOLT_OUT*
X106500000Y-45000000D02*
X105633000Y-45000000D01*
X100826000Y-43726700D02*
X105367000Y-43726700D01*
X100198090Y-44354610D02*
X100826000Y-43726700D01*
X81230600Y-42000000D02*
X89890500Y-42000000D01*
X105633000Y-43993300D02*
X105367000Y-43726700D01*
X89890500Y-42000000D02*
X92245110Y-44354610D01*
X105633000Y-45000000D02*
X105633000Y-43993300D01*
X79551700Y-43678900D02*
X81230600Y-42000000D01*
X79551700Y-44380000D02*
X79551700Y-43678900D01*
X92245110Y-44354610D02*
X100198090Y-44354610D01*
X105367000Y-43726700D02*
X105367000Y-41000000D01*
X105367000Y-41000000D02*
X104500000Y-41000000D01*
X78500000Y-44380000D02*
X79551700Y-44380000D01*
G04 #@! TO.N,Net-(R10-Pad2)*
X105367000Y-39866700D02*
X106500000Y-41000000D01*
X104500000Y-38000000D02*
X105367000Y-38000000D01*
X105367000Y-38000000D02*
X105367000Y-39866700D01*
G04 #@! TO.N,/D-_OUT*
X79551700Y-34784200D02*
X79551700Y-36760000D01*
X38000000Y-35500000D02*
X39122500Y-34377500D01*
X79551700Y-36760000D02*
X78500000Y-36760000D01*
X77478200Y-32710700D02*
X79551700Y-34784200D01*
X58029100Y-34377500D02*
X59695900Y-32710700D01*
X39122500Y-34377500D02*
X58029100Y-34377500D01*
X59695900Y-32710700D02*
X77478200Y-32710700D01*
G04 #@! TO.N,/D+_OUT*
X78500000Y-34300500D02*
X78500000Y-35490000D01*
X60445600Y-33154400D02*
X77353900Y-33154400D01*
X77353900Y-33154400D02*
X78500000Y-34300500D01*
X51472400Y-35213200D02*
X58386800Y-35213200D01*
X49285600Y-37400000D02*
X51472400Y-35213200D01*
X38000000Y-37400000D02*
X49285600Y-37400000D01*
X58386800Y-35213200D02*
X60445600Y-33154400D01*
G04 #@! TO.N,/MOS_1*
X84107500Y-43180800D02*
X80988200Y-43180800D01*
X84370000Y-43443300D02*
X84107500Y-43180800D01*
X65300000Y-34220000D02*
X65300000Y-35271700D01*
X75086700Y-35271700D02*
X76008800Y-36193800D01*
X84370000Y-44770000D02*
X84370000Y-43443300D01*
X65300000Y-35271700D02*
X75086700Y-35271700D01*
G04 #@! TO.N,unconnected-(U5-EPAD-Pad41)*
X69850000Y-44280000D02*
X71250000Y-44280000D01*
X71250000Y-44280000D02*
X72650000Y-44280000D01*
X69850000Y-42880000D02*
X71250000Y-42880000D01*
X69850000Y-44280000D02*
X69850000Y-45680000D01*
X69850000Y-45680000D02*
X71250000Y-45680000D01*
X72650000Y-44280000D02*
X72650000Y-42880000D01*
X71250000Y-45680000D02*
X72650000Y-45680000D01*
X71250000Y-42880000D02*
X72650000Y-42880000D01*
G04 #@! TD*
G04 #@! TA.AperFunction,Conductor*
G04 #@! TO.N,GND*
G36*
X59668834Y-36721213D02*
G01*
X59724767Y-36763085D01*
X59749184Y-36828549D01*
X59749500Y-36837395D01*
X59749500Y-37257870D01*
X59749501Y-37257876D01*
X59755908Y-37317481D01*
X59768659Y-37351669D01*
X59773642Y-37421361D01*
X59768659Y-37438331D01*
X59755908Y-37472518D01*
X59749501Y-37532116D01*
X59749501Y-37532123D01*
X59749500Y-37532135D01*
X59749500Y-38527870D01*
X59749501Y-38527876D01*
X59755908Y-38587481D01*
X59768659Y-38621669D01*
X59773642Y-38691361D01*
X59768659Y-38708331D01*
X59755908Y-38742518D01*
X59750160Y-38795989D01*
X59749501Y-38802123D01*
X59749500Y-38802135D01*
X59749500Y-39797870D01*
X59749501Y-39797876D01*
X59755908Y-39857481D01*
X59768659Y-39891669D01*
X59773642Y-39961361D01*
X59768659Y-39978331D01*
X59755908Y-40012518D01*
X59751916Y-40049655D01*
X59749501Y-40072123D01*
X59749500Y-40072135D01*
X59749500Y-41067870D01*
X59749501Y-41067876D01*
X59755908Y-41127481D01*
X59768659Y-41161669D01*
X59773642Y-41231361D01*
X59768659Y-41248331D01*
X59755908Y-41282518D01*
X59749525Y-41341893D01*
X59749501Y-41342123D01*
X59749500Y-41342135D01*
X59749500Y-42337870D01*
X59749501Y-42337876D01*
X59755908Y-42397481D01*
X59768659Y-42431669D01*
X59773642Y-42501361D01*
X59768659Y-42518331D01*
X59755908Y-42552518D01*
X59751958Y-42589264D01*
X59749501Y-42612123D01*
X59749500Y-42612135D01*
X59749500Y-43607870D01*
X59749501Y-43607876D01*
X59755908Y-43667481D01*
X59768659Y-43701669D01*
X59773642Y-43771361D01*
X59768659Y-43788331D01*
X59755908Y-43822518D01*
X59750160Y-43875984D01*
X59749501Y-43882123D01*
X59749500Y-43882135D01*
X59749500Y-44877870D01*
X59749501Y-44877876D01*
X59755908Y-44937481D01*
X59768659Y-44971669D01*
X59773642Y-45041361D01*
X59768659Y-45058331D01*
X59755908Y-45092518D01*
X59751739Y-45131300D01*
X59749501Y-45152123D01*
X59749500Y-45152135D01*
X59749500Y-46147870D01*
X59749501Y-46147876D01*
X59755908Y-46207481D01*
X59768659Y-46241669D01*
X59773642Y-46311361D01*
X59768659Y-46328331D01*
X59755908Y-46362518D01*
X59754674Y-46374000D01*
X59749501Y-46422123D01*
X59749500Y-46422135D01*
X59749500Y-47417870D01*
X59749501Y-47417876D01*
X59755908Y-47477481D01*
X59768659Y-47511669D01*
X59773642Y-47581361D01*
X59768659Y-47598331D01*
X59755908Y-47632518D01*
X59750364Y-47684091D01*
X59749501Y-47692123D01*
X59749500Y-47692135D01*
X59749500Y-48687870D01*
X59749501Y-48687876D01*
X59755908Y-48747481D01*
X59768659Y-48781669D01*
X59773642Y-48851361D01*
X59768659Y-48868331D01*
X59755908Y-48902518D01*
X59749501Y-48962116D01*
X59749500Y-48962135D01*
X59749500Y-49957870D01*
X59749501Y-49957876D01*
X59755908Y-50017481D01*
X59768659Y-50051669D01*
X59773642Y-50121361D01*
X59768659Y-50138331D01*
X59755908Y-50172518D01*
X59749501Y-50232116D01*
X59749500Y-50232135D01*
X59749500Y-51227870D01*
X59749501Y-51227876D01*
X59755908Y-51287483D01*
X59768925Y-51322381D01*
X59773909Y-51392072D01*
X59768925Y-51409047D01*
X59756403Y-51442619D01*
X59756401Y-51442627D01*
X59750000Y-51502155D01*
X59750000Y-51750000D01*
X62250000Y-51750000D01*
X62250000Y-51502172D01*
X62249999Y-51502160D01*
X62246300Y-51467758D01*
X62258704Y-51398998D01*
X62306313Y-51347860D01*
X62369589Y-51330500D01*
X72265231Y-51330500D01*
X72265247Y-51330501D01*
X72272843Y-51330501D01*
X72430954Y-51330501D01*
X72430957Y-51330501D01*
X72583685Y-51289577D01*
X72633804Y-51260639D01*
X72720616Y-51210520D01*
X72832420Y-51098716D01*
X72832421Y-51098714D01*
X72924035Y-51007098D01*
X72985356Y-50973615D01*
X72997811Y-50971563D01*
X73084755Y-50961768D01*
X73255022Y-50902189D01*
X73407762Y-50806216D01*
X73535316Y-50678662D01*
X73631289Y-50525922D01*
X73690868Y-50355655D01*
X73690869Y-50355649D01*
X73711065Y-50176403D01*
X73711065Y-50176396D01*
X73690869Y-49997150D01*
X73690868Y-49997145D01*
X73671054Y-49940520D01*
X73631289Y-49826878D01*
X73535316Y-49674138D01*
X73407762Y-49546584D01*
X73367773Y-49521457D01*
X73255023Y-49450611D01*
X73084754Y-49391031D01*
X73084749Y-49391030D01*
X72931109Y-49373720D01*
X72866695Y-49346654D01*
X72827140Y-49289059D01*
X72825002Y-49219222D01*
X72860960Y-49159316D01*
X72923598Y-49128360D01*
X72944992Y-49126500D01*
X76214203Y-49126500D01*
X76281242Y-49146185D01*
X76301884Y-49162819D01*
X76963439Y-49824374D01*
X76963449Y-49824385D01*
X77079585Y-49940521D01*
X77109646Y-49957876D01*
X77205028Y-50012944D01*
X77253243Y-50063510D01*
X77266467Y-50132117D01*
X77259213Y-50163657D01*
X77255908Y-50172517D01*
X77249501Y-50232116D01*
X77249500Y-50232135D01*
X77249500Y-51227870D01*
X77249501Y-51227876D01*
X77255908Y-51287481D01*
X77268659Y-51321669D01*
X77273642Y-51391361D01*
X77268659Y-51408331D01*
X77255908Y-51442518D01*
X77249501Y-51502116D01*
X77249500Y-51502135D01*
X77249500Y-52497870D01*
X77249501Y-52497876D01*
X77255908Y-52557483D01*
X77306202Y-52692328D01*
X77306206Y-52692335D01*
X77387695Y-52801189D01*
X77412113Y-52866653D01*
X77397262Y-52934926D01*
X77347857Y-52984332D01*
X77288429Y-52999500D01*
X62210947Y-52999500D01*
X62143908Y-52979815D01*
X62098153Y-52927011D01*
X62088209Y-52857853D01*
X62111681Y-52801189D01*
X62193350Y-52692093D01*
X62193354Y-52692086D01*
X62243596Y-52557379D01*
X62243598Y-52557372D01*
X62249999Y-52497844D01*
X62250000Y-52497827D01*
X62250000Y-52250000D01*
X59750000Y-52250000D01*
X59750000Y-52497844D01*
X59756401Y-52557372D01*
X59756403Y-52557379D01*
X59806645Y-52692086D01*
X59806649Y-52692093D01*
X59892809Y-52807187D01*
X59892812Y-52807190D01*
X60007906Y-52893350D01*
X60007913Y-52893354D01*
X60142620Y-52943596D01*
X60142627Y-52943598D01*
X60202155Y-52949999D01*
X60202172Y-52950000D01*
X60842824Y-52950000D01*
X60909863Y-52969685D01*
X60955618Y-53022489D01*
X60965562Y-53091647D01*
X60936537Y-53155203D01*
X60930505Y-53161681D01*
X60899502Y-53192683D01*
X60899500Y-53192686D01*
X60833608Y-53306812D01*
X60799500Y-53434108D01*
X60799500Y-59375500D01*
X60779815Y-59442539D01*
X60727011Y-59488294D01*
X60675500Y-59499500D01*
X12624500Y-59499500D01*
X12557461Y-59479815D01*
X12511706Y-59427011D01*
X12500500Y-59375500D01*
X12500500Y-53878711D01*
X17149500Y-53878711D01*
X17149500Y-54121288D01*
X17181161Y-54361785D01*
X17243947Y-54596104D01*
X17316819Y-54772032D01*
X17336776Y-54820212D01*
X17458064Y-55030289D01*
X17458066Y-55030292D01*
X17458067Y-55030293D01*
X17605733Y-55222736D01*
X17605739Y-55222743D01*
X17777256Y-55394260D01*
X17777263Y-55394266D01*
X17882478Y-55475000D01*
X17969711Y-55541936D01*
X18179788Y-55663224D01*
X18403900Y-55756054D01*
X18638211Y-55818838D01*
X18818586Y-55842584D01*
X18878711Y-55850500D01*
X18878712Y-55850500D01*
X19121289Y-55850500D01*
X19169388Y-55844167D01*
X19361789Y-55818838D01*
X19596100Y-55756054D01*
X19820212Y-55663224D01*
X20030289Y-55541936D01*
X20222738Y-55394265D01*
X20394265Y-55222738D01*
X20541936Y-55030289D01*
X20663224Y-54820212D01*
X20756054Y-54596100D01*
X20818838Y-54361789D01*
X20850500Y-54121288D01*
X20850500Y-53878712D01*
X20818838Y-53638211D01*
X20756054Y-53403900D01*
X20663224Y-53179788D01*
X20541936Y-52969711D01*
X20456105Y-52857853D01*
X20394266Y-52777263D01*
X20394260Y-52777256D01*
X20222743Y-52605739D01*
X20222736Y-52605733D01*
X20030293Y-52458067D01*
X20030292Y-52458066D01*
X20030289Y-52458064D01*
X19820212Y-52336776D01*
X19820205Y-52336773D01*
X19596104Y-52243947D01*
X19361785Y-52181161D01*
X19121289Y-52149500D01*
X19121288Y-52149500D01*
X18878712Y-52149500D01*
X18878711Y-52149500D01*
X18638214Y-52181161D01*
X18403895Y-52243947D01*
X18179794Y-52336773D01*
X18179785Y-52336777D01*
X17969706Y-52458067D01*
X17777263Y-52605733D01*
X17777256Y-52605739D01*
X17605739Y-52777256D01*
X17605733Y-52777263D01*
X17458067Y-52969706D01*
X17458064Y-52969710D01*
X17458064Y-52969711D01*
X17449623Y-52984332D01*
X17336777Y-53179785D01*
X17336773Y-53179794D01*
X17243947Y-53403895D01*
X17181161Y-53638214D01*
X17149500Y-53878711D01*
X12500500Y-53878711D01*
X12500500Y-45224500D01*
X12520185Y-45157461D01*
X12572989Y-45111706D01*
X12624500Y-45100500D01*
X15079055Y-45100500D01*
X15079057Y-45100500D01*
X15231784Y-45059577D01*
X15368716Y-44980520D01*
X15480520Y-44868716D01*
X15559577Y-44731784D01*
X15600500Y-44579057D01*
X15600500Y-39924744D01*
X15620185Y-39857705D01*
X15672989Y-39811950D01*
X15742147Y-39802006D01*
X15805703Y-39831031D01*
X15822527Y-39851411D01*
X15823630Y-39850565D01*
X15828581Y-39857017D01*
X15947449Y-39975885D01*
X15947455Y-39975890D01*
X16891871Y-40920306D01*
X16925356Y-40981629D01*
X16920372Y-41051321D01*
X16878500Y-41107254D01*
X16851646Y-41122547D01*
X16847795Y-41124142D01*
X16847789Y-41124145D01*
X16846962Y-41124698D01*
X16828529Y-41134862D01*
X16822348Y-41137614D01*
X16822340Y-41137618D01*
X16763771Y-41180169D01*
X16759782Y-41182948D01*
X16704408Y-41219949D01*
X16704392Y-41219962D01*
X16699038Y-41225316D01*
X16684255Y-41237941D01*
X16673454Y-41245788D01*
X16629396Y-41294719D01*
X16624929Y-41299425D01*
X16582461Y-41341893D01*
X16582453Y-41341903D01*
X16574588Y-41353673D01*
X16563644Y-41367744D01*
X16550305Y-41382558D01*
X16520668Y-41433892D01*
X16516385Y-41440779D01*
X16486642Y-41485293D01*
X16478708Y-41504447D01*
X16471538Y-41518985D01*
X16458287Y-41541936D01*
X16441989Y-41592095D01*
X16438621Y-41601225D01*
X16420645Y-41644624D01*
X16415319Y-41671397D01*
X16411634Y-41685516D01*
X16401415Y-41716969D01*
X16401414Y-41716972D01*
X16396585Y-41762912D01*
X16394883Y-41774135D01*
X16387000Y-41813770D01*
X16387000Y-41847620D01*
X16386321Y-41860580D01*
X16382178Y-41899999D01*
X16386321Y-41939418D01*
X16387000Y-41952379D01*
X16387000Y-41986229D01*
X16394883Y-42025863D01*
X16396585Y-42037087D01*
X16401414Y-42083027D01*
X16411635Y-42114485D01*
X16415320Y-42128607D01*
X16420643Y-42155368D01*
X16420644Y-42155370D01*
X16420645Y-42155374D01*
X16436682Y-42194091D01*
X16438616Y-42198760D01*
X16441984Y-42207890D01*
X16458286Y-42258060D01*
X16458287Y-42258061D01*
X16471535Y-42281008D01*
X16478706Y-42295548D01*
X16486642Y-42314705D01*
X16486643Y-42314708D01*
X16516378Y-42359209D01*
X16520663Y-42366099D01*
X16550303Y-42417438D01*
X16550304Y-42417439D01*
X16551355Y-42418606D01*
X16551750Y-42419429D01*
X16554127Y-42422701D01*
X16553528Y-42423135D01*
X16581588Y-42481596D01*
X16572968Y-42550932D01*
X16546893Y-42589264D01*
X16523088Y-42613069D01*
X16421268Y-42753211D01*
X16342628Y-42907552D01*
X16289097Y-43072302D01*
X16270496Y-43189745D01*
X16262000Y-43243389D01*
X16262000Y-43416611D01*
X16265306Y-43437483D01*
X16286663Y-43572331D01*
X16289098Y-43587701D01*
X16342627Y-43752445D01*
X16421268Y-43906788D01*
X16523086Y-44046928D01*
X16645572Y-44169414D01*
X16785712Y-44271232D01*
X16940055Y-44349873D01*
X17104799Y-44403402D01*
X17275889Y-44430500D01*
X17275890Y-44430500D01*
X18249110Y-44430500D01*
X18249111Y-44430500D01*
X18420201Y-44403402D01*
X18584945Y-44349873D01*
X18739288Y-44271232D01*
X18879428Y-44169414D01*
X19001914Y-44046928D01*
X19103732Y-43906788D01*
X19182373Y-43752445D01*
X19235902Y-43587701D01*
X19263000Y-43416611D01*
X19263000Y-43243389D01*
X19242446Y-43113618D01*
X19251400Y-43044328D01*
X19296396Y-42990876D01*
X19321586Y-42978041D01*
X19414586Y-42943354D01*
X19414593Y-42943350D01*
X19529687Y-42857190D01*
X19529690Y-42857187D01*
X19615850Y-42742093D01*
X19615854Y-42742086D01*
X19666096Y-42607379D01*
X19666098Y-42607372D01*
X19672499Y-42547844D01*
X19672500Y-42547827D01*
X19672500Y-42500000D01*
X18932675Y-42500000D01*
X18865636Y-42480315D01*
X18859803Y-42476327D01*
X18788904Y-42424816D01*
X18746240Y-42369486D01*
X18740261Y-42299873D01*
X18772867Y-42238078D01*
X18833706Y-42203721D01*
X18861791Y-42200499D01*
X19220371Y-42200499D01*
X19220372Y-42200499D01*
X19220373Y-42200498D01*
X19220387Y-42200498D01*
X19225011Y-42200001D01*
X19225014Y-42200000D01*
X19279983Y-42194091D01*
X19414828Y-42143797D01*
X19414827Y-42143797D01*
X19414831Y-42143796D01*
X19530046Y-42057546D01*
X19610788Y-41949687D01*
X19658611Y-41913888D01*
X19685680Y-41886820D01*
X19747003Y-41853335D01*
X19773361Y-41850501D01*
X19829056Y-41850501D01*
X19829057Y-41850501D01*
X19895719Y-41832638D01*
X19965568Y-41834299D01*
X20015495Y-41864731D01*
X20131284Y-41980520D01*
X20131286Y-41980521D01*
X20131290Y-41980524D01*
X20247379Y-42047547D01*
X20268216Y-42059577D01*
X20420943Y-42100501D01*
X20420945Y-42100501D01*
X20586654Y-42100501D01*
X20586670Y-42100500D01*
X25217763Y-42100500D01*
X25284802Y-42120185D01*
X25330557Y-42172989D01*
X25340501Y-42242147D01*
X25311476Y-42305703D01*
X25261096Y-42340682D01*
X25192671Y-42366202D01*
X25192664Y-42366206D01*
X25077455Y-42452452D01*
X25077452Y-42452455D01*
X24991206Y-42567664D01*
X24991202Y-42567671D01*
X24940908Y-42702517D01*
X24934501Y-42762116D01*
X24934501Y-42762123D01*
X24934500Y-42762135D01*
X24934500Y-44237870D01*
X24934501Y-44237876D01*
X24940908Y-44297483D01*
X24983934Y-44412841D01*
X24988918Y-44482533D01*
X24972746Y-44522145D01*
X24892112Y-44650474D01*
X24832531Y-44820745D01*
X24832530Y-44820750D01*
X24812335Y-44999996D01*
X24812335Y-45000000D01*
X24832530Y-45179249D01*
X24832531Y-45179254D01*
X24892111Y-45349523D01*
X24972746Y-45477853D01*
X24991746Y-45545090D01*
X24983934Y-45587157D01*
X24940909Y-45702514D01*
X24940908Y-45702516D01*
X24934501Y-45762116D01*
X24934500Y-45762135D01*
X24934500Y-45849787D01*
X24914815Y-45916826D01*
X24872500Y-45957174D01*
X24764587Y-46019477D01*
X24764582Y-46019481D01*
X24652781Y-46131282D01*
X24652775Y-46131290D01*
X24573726Y-46268209D01*
X24573723Y-46268216D01*
X24532800Y-46420943D01*
X24532800Y-46435629D01*
X24513115Y-46502668D01*
X24460311Y-46548423D01*
X24446321Y-46553159D01*
X24446417Y-46553433D01*
X24439847Y-46555731D01*
X24439845Y-46555732D01*
X24377258Y-46577631D01*
X24269578Y-46615310D01*
X24116837Y-46711284D01*
X23989284Y-46838837D01*
X23893311Y-46991576D01*
X23833731Y-47161845D01*
X23833730Y-47161850D01*
X23813535Y-47341096D01*
X23813535Y-47341103D01*
X23833730Y-47520349D01*
X23833731Y-47520354D01*
X23893311Y-47690623D01*
X23975625Y-47821624D01*
X23989284Y-47843362D01*
X24116838Y-47970916D01*
X24207180Y-48027682D01*
X24267526Y-48065600D01*
X24269578Y-48066889D01*
X24439845Y-48126468D01*
X24439850Y-48126469D01*
X24619096Y-48146665D01*
X24619100Y-48146665D01*
X24619104Y-48146665D01*
X24798349Y-48126469D01*
X24798352Y-48126468D01*
X24798355Y-48126468D01*
X24968622Y-48066889D01*
X25121362Y-47970916D01*
X25248916Y-47843362D01*
X25308505Y-47748525D01*
X25360838Y-47702236D01*
X25413493Y-47690499D01*
X26612872Y-47690499D01*
X26672483Y-47684091D01*
X26807331Y-47633796D01*
X26922546Y-47547546D01*
X26922546Y-47547545D01*
X26925689Y-47545193D01*
X26991153Y-47520776D01*
X27059426Y-47535627D01*
X27074311Y-47545193D01*
X27077453Y-47547545D01*
X27077454Y-47547546D01*
X27119545Y-47579055D01*
X27192669Y-47633796D01*
X27192671Y-47633797D01*
X27327517Y-47684091D01*
X27327516Y-47684091D01*
X27334444Y-47684835D01*
X27387127Y-47690500D01*
X28612872Y-47690499D01*
X28672483Y-47684091D01*
X28807331Y-47633796D01*
X28922546Y-47547546D01*
X29008796Y-47432331D01*
X29059091Y-47297483D01*
X29065500Y-47237873D01*
X29065500Y-47222844D01*
X29795000Y-47222844D01*
X29801401Y-47282372D01*
X29801403Y-47282379D01*
X29851645Y-47417086D01*
X29851649Y-47417093D01*
X29937809Y-47532187D01*
X29937812Y-47532190D01*
X30052906Y-47618350D01*
X30052913Y-47618354D01*
X30187620Y-47668596D01*
X30187627Y-47668598D01*
X30247155Y-47674999D01*
X30247172Y-47675000D01*
X30750000Y-47675000D01*
X30750000Y-46750000D01*
X29795000Y-46750000D01*
X29795000Y-47222844D01*
X29065500Y-47222844D01*
X29065499Y-46247799D01*
X29085183Y-46180761D01*
X29137987Y-46135006D01*
X29189499Y-46123800D01*
X29671000Y-46123800D01*
X29738039Y-46143485D01*
X29783794Y-46196289D01*
X29795000Y-46247800D01*
X29795000Y-46250000D01*
X30876000Y-46250000D01*
X30943039Y-46269685D01*
X30988794Y-46322489D01*
X31000000Y-46374000D01*
X31000000Y-46500000D01*
X31126000Y-46500000D01*
X31193039Y-46519685D01*
X31238794Y-46572489D01*
X31250000Y-46624000D01*
X31250000Y-47675000D01*
X31752828Y-47675000D01*
X31752844Y-47674999D01*
X31812372Y-47668598D01*
X31812376Y-47668597D01*
X31955398Y-47615253D01*
X31956647Y-47618603D01*
X32008198Y-47607337D01*
X32043604Y-47617719D01*
X32044359Y-47615697D01*
X32187517Y-47669091D01*
X32187516Y-47669091D01*
X32194444Y-47669835D01*
X32247127Y-47675500D01*
X33752872Y-47675499D01*
X33812483Y-47669091D01*
X33947331Y-47618796D01*
X34062546Y-47532546D01*
X34148796Y-47417331D01*
X34199091Y-47282483D01*
X34205500Y-47222873D01*
X34205499Y-45777128D01*
X34199091Y-45717517D01*
X34193496Y-45702517D01*
X34148797Y-45582671D01*
X34148793Y-45582664D01*
X34062547Y-45467455D01*
X34062544Y-45467452D01*
X33947335Y-45381206D01*
X33947328Y-45381202D01*
X33812482Y-45330908D01*
X33812483Y-45330908D01*
X33752883Y-45324501D01*
X33752881Y-45324500D01*
X33752873Y-45324500D01*
X33752865Y-45324500D01*
X33650212Y-45324500D01*
X33583173Y-45304815D01*
X33542825Y-45262499D01*
X33480524Y-45154590D01*
X33480518Y-45154582D01*
X33368717Y-45042781D01*
X33368712Y-45042777D01*
X33271464Y-44986631D01*
X33223248Y-44936064D01*
X33210025Y-44867457D01*
X33210244Y-44865359D01*
X33217540Y-44800614D01*
X33244608Y-44736200D01*
X33302203Y-44696646D01*
X33340760Y-44690499D01*
X33612871Y-44690499D01*
X33612872Y-44690499D01*
X33672483Y-44684091D01*
X33807331Y-44633796D01*
X33918005Y-44550945D01*
X33983467Y-44526528D01*
X34051741Y-44541379D01*
X34079995Y-44562530D01*
X37339084Y-47821620D01*
X37339086Y-47821621D01*
X37339090Y-47821624D01*
X37420645Y-47868709D01*
X37476016Y-47900677D01*
X37628743Y-47941601D01*
X37628745Y-47941601D01*
X37794454Y-47941601D01*
X37794470Y-47941600D01*
X48775500Y-47941600D01*
X48842539Y-47961285D01*
X48888294Y-48014089D01*
X48899500Y-48065600D01*
X48899500Y-52975500D01*
X48879815Y-53042539D01*
X48827011Y-53088294D01*
X48775500Y-53099500D01*
X48449999Y-53099500D01*
X48449980Y-53099501D01*
X48347203Y-53110000D01*
X48347200Y-53110001D01*
X48180668Y-53165185D01*
X48180663Y-53165187D01*
X48031342Y-53257289D01*
X47907289Y-53381342D01*
X47815187Y-53530663D01*
X47815185Y-53530668D01*
X47808113Y-53552011D01*
X47760001Y-53697203D01*
X47760001Y-53697204D01*
X47760000Y-53697204D01*
X47749500Y-53799983D01*
X47749500Y-55200001D01*
X47749501Y-55200018D01*
X47760000Y-55302796D01*
X47760001Y-55302799D01*
X47815185Y-55469331D01*
X47815187Y-55469336D01*
X47818681Y-55475000D01*
X47907288Y-55618656D01*
X48031344Y-55742712D01*
X48180666Y-55834814D01*
X48347203Y-55889999D01*
X48449991Y-55900500D01*
X49401203Y-55900499D01*
X49468242Y-55920183D01*
X49513997Y-55972987D01*
X49523941Y-56042146D01*
X49494916Y-56105702D01*
X49488884Y-56112180D01*
X49237884Y-56363181D01*
X49176561Y-56396666D01*
X49150203Y-56399500D01*
X30500097Y-56399500D01*
X30433058Y-56379815D01*
X30412416Y-56363181D01*
X29427246Y-55378011D01*
X29393761Y-55316688D01*
X29398745Y-55246996D01*
X29427245Y-55202650D01*
X29458495Y-55171401D01*
X29588426Y-54985840D01*
X29643001Y-54942217D01*
X29712499Y-54935023D01*
X29774854Y-54966546D01*
X29791574Y-54985841D01*
X29921505Y-55171401D01*
X30088599Y-55338495D01*
X30168240Y-55394260D01*
X30282165Y-55474032D01*
X30282167Y-55474033D01*
X30282170Y-55474035D01*
X30496337Y-55573903D01*
X30724592Y-55635063D01*
X30901034Y-55650500D01*
X30959999Y-55655659D01*
X30960000Y-55655659D01*
X30960001Y-55655659D01*
X31018966Y-55650500D01*
X31195408Y-55635063D01*
X31423663Y-55573903D01*
X31637830Y-55474035D01*
X31831401Y-55338495D01*
X31998495Y-55171401D01*
X32128730Y-54985405D01*
X32183307Y-54941781D01*
X32252805Y-54934587D01*
X32315160Y-54966110D01*
X32331879Y-54985405D01*
X32461890Y-55171078D01*
X32628917Y-55338105D01*
X32822421Y-55473600D01*
X33036507Y-55573429D01*
X33036516Y-55573433D01*
X33250000Y-55630634D01*
X33250000Y-54733012D01*
X33307007Y-54765925D01*
X33434174Y-54800000D01*
X33565826Y-54800000D01*
X33692993Y-54765925D01*
X33750000Y-54733012D01*
X33750000Y-55630633D01*
X33963483Y-55573433D01*
X33963492Y-55573429D01*
X34177578Y-55473600D01*
X34371082Y-55338105D01*
X34538105Y-55171082D01*
X34668119Y-54985405D01*
X34722696Y-54941781D01*
X34792195Y-54934588D01*
X34854549Y-54966110D01*
X34871269Y-54985405D01*
X35001505Y-55171401D01*
X35168599Y-55338495D01*
X35248240Y-55394260D01*
X35362165Y-55474032D01*
X35362167Y-55474033D01*
X35362170Y-55474035D01*
X35576337Y-55573903D01*
X35804592Y-55635063D01*
X35981034Y-55650500D01*
X36039999Y-55655659D01*
X36040000Y-55655659D01*
X36040001Y-55655659D01*
X36098966Y-55650500D01*
X36275408Y-55635063D01*
X36503663Y-55573903D01*
X36717830Y-55474035D01*
X36911401Y-55338495D01*
X37078495Y-55171401D01*
X37214035Y-54977830D01*
X37313903Y-54763663D01*
X37375063Y-54535408D01*
X37395659Y-54300000D01*
X37395411Y-54297171D01*
X37378774Y-54107007D01*
X37375063Y-54064592D01*
X37320723Y-53861789D01*
X37313905Y-53836344D01*
X37313904Y-53836343D01*
X37313903Y-53836337D01*
X37214035Y-53622171D01*
X37212054Y-53619341D01*
X37078494Y-53428597D01*
X36911402Y-53261506D01*
X36911395Y-53261501D01*
X36905378Y-53257288D01*
X36861259Y-53226395D01*
X36717834Y-53125967D01*
X36717830Y-53125965D01*
X36661078Y-53099501D01*
X36503663Y-53026097D01*
X36503659Y-53026096D01*
X36503655Y-53026094D01*
X36275413Y-52964938D01*
X36275403Y-52964936D01*
X36040001Y-52944341D01*
X36039999Y-52944341D01*
X35804596Y-52964936D01*
X35804586Y-52964938D01*
X35576344Y-53026094D01*
X35576335Y-53026098D01*
X35362171Y-53125964D01*
X35362169Y-53125965D01*
X35168597Y-53261505D01*
X35001508Y-53428594D01*
X34871269Y-53614595D01*
X34816692Y-53658219D01*
X34747193Y-53665412D01*
X34684839Y-53633890D01*
X34668119Y-53614594D01*
X34538113Y-53428926D01*
X34538108Y-53428920D01*
X34371082Y-53261894D01*
X34177578Y-53126399D01*
X33963492Y-53026570D01*
X33963486Y-53026567D01*
X33750000Y-52969364D01*
X33750000Y-53866988D01*
X33692993Y-53834075D01*
X33565826Y-53800000D01*
X33434174Y-53800000D01*
X33307007Y-53834075D01*
X33250000Y-53866988D01*
X33250000Y-52969364D01*
X33249999Y-52969364D01*
X33036513Y-53026567D01*
X33036507Y-53026570D01*
X32822422Y-53126399D01*
X32822420Y-53126400D01*
X32628926Y-53261886D01*
X32628920Y-53261891D01*
X32461891Y-53428920D01*
X32461890Y-53428922D01*
X32331880Y-53614595D01*
X32277303Y-53658219D01*
X32207804Y-53665412D01*
X32145450Y-53633890D01*
X32128730Y-53614594D01*
X31998494Y-53428597D01*
X31831402Y-53261506D01*
X31831395Y-53261501D01*
X31825378Y-53257288D01*
X31781259Y-53226395D01*
X31637834Y-53125967D01*
X31637830Y-53125965D01*
X31581078Y-53099501D01*
X31423663Y-53026097D01*
X31423659Y-53026096D01*
X31423655Y-53026094D01*
X31195413Y-52964938D01*
X31195403Y-52964936D01*
X30960001Y-52944341D01*
X30959999Y-52944341D01*
X30724596Y-52964936D01*
X30724586Y-52964938D01*
X30496344Y-53026094D01*
X30496335Y-53026098D01*
X30282171Y-53125964D01*
X30282169Y-53125965D01*
X30088597Y-53261505D01*
X29921505Y-53428597D01*
X29791575Y-53614158D01*
X29736998Y-53657783D01*
X29667500Y-53664977D01*
X29605145Y-53633454D01*
X29588425Y-53614158D01*
X29458494Y-53428597D01*
X29291402Y-53261506D01*
X29291395Y-53261501D01*
X29285378Y-53257288D01*
X29241259Y-53226395D01*
X29097834Y-53125967D01*
X29097830Y-53125965D01*
X29041078Y-53099501D01*
X28883663Y-53026097D01*
X28883659Y-53026096D01*
X28883655Y-53026094D01*
X28655413Y-52964938D01*
X28655403Y-52964936D01*
X28420001Y-52944341D01*
X28419999Y-52944341D01*
X28184596Y-52964936D01*
X28184586Y-52964938D01*
X27956344Y-53026094D01*
X27956335Y-53026098D01*
X27742171Y-53125964D01*
X27742169Y-53125965D01*
X27548600Y-53261503D01*
X27426673Y-53383430D01*
X27365350Y-53416914D01*
X27295658Y-53411930D01*
X27239725Y-53370058D01*
X27222810Y-53339081D01*
X27173797Y-53207671D01*
X27173793Y-53207664D01*
X27087547Y-53092455D01*
X27087544Y-53092452D01*
X26972335Y-53006206D01*
X26972328Y-53006202D01*
X26837482Y-52955908D01*
X26837483Y-52955908D01*
X26777883Y-52949501D01*
X26777881Y-52949500D01*
X26777873Y-52949500D01*
X26777864Y-52949500D01*
X24982129Y-52949500D01*
X24982123Y-52949501D01*
X24922516Y-52955908D01*
X24787671Y-53006202D01*
X24787664Y-53006206D01*
X24672455Y-53092452D01*
X24672452Y-53092455D01*
X24586206Y-53207664D01*
X24586202Y-53207671D01*
X24535908Y-53342517D01*
X24529501Y-53402116D01*
X24529500Y-53402135D01*
X24529500Y-55197870D01*
X24529501Y-55197876D01*
X24535908Y-55257483D01*
X24586202Y-55392328D01*
X24586206Y-55392335D01*
X24672452Y-55507544D01*
X24672455Y-55507547D01*
X24787664Y-55593793D01*
X24787671Y-55593797D01*
X24922517Y-55644091D01*
X24922516Y-55644091D01*
X24929444Y-55644835D01*
X24982127Y-55650500D01*
X26049902Y-55650499D01*
X26116941Y-55670183D01*
X26137582Y-55686817D01*
X28431284Y-57980520D01*
X28431286Y-57980521D01*
X28431290Y-57980524D01*
X28568209Y-58059573D01*
X28568216Y-58059577D01*
X28720943Y-58100501D01*
X28720945Y-58100501D01*
X28886654Y-58100501D01*
X28886670Y-58100500D01*
X30752349Y-58100500D01*
X30819388Y-58120185D01*
X30865143Y-58172989D01*
X30875569Y-58238383D01*
X30858520Y-58389698D01*
X30858520Y-58389705D01*
X30878715Y-58568951D01*
X30878716Y-58568956D01*
X30938296Y-58739225D01*
X31034269Y-58891964D01*
X31161823Y-59019518D01*
X31252165Y-59076284D01*
X31302354Y-59107820D01*
X31314563Y-59115491D01*
X31435881Y-59157942D01*
X31484830Y-59175070D01*
X31484835Y-59175071D01*
X31664082Y-59195267D01*
X31664085Y-59195267D01*
X31666897Y-59194950D01*
X31712880Y-59198393D01*
X31822625Y-59227800D01*
X31822626Y-59227800D01*
X56681031Y-59227800D01*
X56681047Y-59227801D01*
X56688643Y-59227801D01*
X56846754Y-59227801D01*
X56846757Y-59227801D01*
X56999485Y-59186877D01*
X57049604Y-59157939D01*
X57136416Y-59107820D01*
X57248220Y-58996016D01*
X57248220Y-58996014D01*
X57258428Y-58985807D01*
X57258430Y-58985804D01*
X58452035Y-57792198D01*
X58513356Y-57758715D01*
X58525811Y-57756663D01*
X58612755Y-57746868D01*
X58783022Y-57687289D01*
X58935762Y-57591316D01*
X59063316Y-57463762D01*
X59159289Y-57311022D01*
X59218868Y-57140755D01*
X59239065Y-56961500D01*
X59236210Y-56936165D01*
X59218869Y-56782250D01*
X59218868Y-56782245D01*
X59185322Y-56686377D01*
X59159289Y-56611978D01*
X59158749Y-56611119D01*
X59120082Y-56549580D01*
X59063316Y-56459238D01*
X58935762Y-56331684D01*
X58934131Y-56330659D01*
X58783023Y-56235711D01*
X58612754Y-56176131D01*
X58612749Y-56176130D01*
X58433504Y-56155935D01*
X58433496Y-56155935D01*
X58254250Y-56176130D01*
X58254245Y-56176131D01*
X58083976Y-56235711D01*
X57931239Y-56331683D01*
X57909074Y-56353848D01*
X57847750Y-56387332D01*
X57778058Y-56382346D01*
X57722126Y-56340474D01*
X57716407Y-56332148D01*
X57683916Y-56280438D01*
X57556362Y-56152884D01*
X57491582Y-56112180D01*
X57403623Y-56056911D01*
X57233354Y-55997331D01*
X57233349Y-55997330D01*
X57054104Y-55977135D01*
X57054096Y-55977135D01*
X56874850Y-55997330D01*
X56874845Y-55997331D01*
X56704576Y-56056911D01*
X56551837Y-56152884D01*
X56424284Y-56280437D01*
X56328310Y-56433178D01*
X56268730Y-56603450D01*
X56258937Y-56690367D01*
X56231870Y-56754781D01*
X56223399Y-56764163D01*
X56124384Y-56863180D01*
X56063061Y-56896666D01*
X56036702Y-56899500D01*
X50699397Y-56899500D01*
X50632358Y-56879815D01*
X50586603Y-56827011D01*
X50576659Y-56757853D01*
X50605684Y-56694297D01*
X50611716Y-56687819D01*
X51153329Y-56146206D01*
X51710389Y-55589146D01*
X51771708Y-55555664D01*
X51841400Y-55560648D01*
X51897333Y-55602520D01*
X51903602Y-55611728D01*
X51907683Y-55618344D01*
X52031654Y-55742315D01*
X52180875Y-55834356D01*
X52180880Y-55834358D01*
X52347302Y-55889505D01*
X52347309Y-55889506D01*
X52450019Y-55899999D01*
X53249999Y-55899999D01*
X53750000Y-55899999D01*
X54549972Y-55899999D01*
X54549986Y-55899998D01*
X54652697Y-55889505D01*
X54819119Y-55834358D01*
X54819124Y-55834356D01*
X54968345Y-55742315D01*
X55092315Y-55618345D01*
X55184356Y-55469124D01*
X55184358Y-55469119D01*
X55239505Y-55302697D01*
X55239506Y-55302690D01*
X55249999Y-55199986D01*
X55250000Y-55199973D01*
X55250000Y-54750000D01*
X53750000Y-54750000D01*
X53750000Y-55899999D01*
X53249999Y-55899999D01*
X53250000Y-55899998D01*
X53250000Y-54624000D01*
X53269685Y-54556961D01*
X53322489Y-54511206D01*
X53374000Y-54500000D01*
X53500000Y-54500000D01*
X53500000Y-54374000D01*
X53519685Y-54306961D01*
X53572489Y-54261206D01*
X53624000Y-54250000D01*
X55249999Y-54250000D01*
X55249999Y-53860500D01*
X55269684Y-53793461D01*
X55322488Y-53747706D01*
X55373999Y-53736500D01*
X57875288Y-53736500D01*
X57942327Y-53756185D01*
X57952603Y-53763555D01*
X57955436Y-53765814D01*
X57955438Y-53765816D01*
X58067668Y-53836335D01*
X58106126Y-53860500D01*
X58108178Y-53861789D01*
X58217096Y-53899901D01*
X58278445Y-53921368D01*
X58278450Y-53921369D01*
X58457696Y-53941565D01*
X58457700Y-53941565D01*
X58457704Y-53941565D01*
X58636949Y-53921369D01*
X58636952Y-53921368D01*
X58636955Y-53921368D01*
X58807222Y-53861789D01*
X58959962Y-53765816D01*
X59087516Y-53638262D01*
X59183489Y-53485522D01*
X59243068Y-53315255D01*
X59244019Y-53306814D01*
X59263265Y-53136003D01*
X59263265Y-53135996D01*
X59243069Y-52956750D01*
X59243066Y-52956738D01*
X59190735Y-52807187D01*
X59183489Y-52786478D01*
X59177694Y-52777256D01*
X59124332Y-52692331D01*
X59087516Y-52633738D01*
X58959962Y-52506184D01*
X58909606Y-52474543D01*
X58807223Y-52410211D01*
X58636954Y-52350631D01*
X58636949Y-52350630D01*
X58457704Y-52330435D01*
X58457696Y-52330435D01*
X58278450Y-52350630D01*
X58278445Y-52350631D01*
X58108176Y-52410211D01*
X57955436Y-52506185D01*
X57952603Y-52508445D01*
X57950424Y-52509334D01*
X57949542Y-52509889D01*
X57949444Y-52509734D01*
X57887917Y-52534855D01*
X57875288Y-52535500D01*
X52464357Y-52535500D01*
X52306242Y-52535500D01*
X52153515Y-52576423D01*
X52153514Y-52576423D01*
X52153512Y-52576424D01*
X52153509Y-52576425D01*
X52118366Y-52596716D01*
X52118364Y-52596717D01*
X52016590Y-52655475D01*
X52016582Y-52655481D01*
X51904778Y-52767286D01*
X51278670Y-53393393D01*
X51217347Y-53426878D01*
X51147655Y-53421894D01*
X51098308Y-53385961D01*
X51097819Y-53386451D01*
X51094706Y-53383338D01*
X51093721Y-53382621D01*
X51092714Y-53381348D01*
X51092712Y-53381344D01*
X50968656Y-53257288D01*
X50863914Y-53192683D01*
X50819336Y-53165187D01*
X50819331Y-53165185D01*
X50817862Y-53164698D01*
X50652797Y-53110001D01*
X50652795Y-53110000D01*
X50550016Y-53099500D01*
X50550009Y-53099500D01*
X50224500Y-53099500D01*
X50157461Y-53079815D01*
X50111706Y-53027011D01*
X50100500Y-52975500D01*
X50100500Y-48065600D01*
X50120185Y-47998561D01*
X50172989Y-47952806D01*
X50224500Y-47941600D01*
X54466688Y-47941600D01*
X54533727Y-47961285D01*
X54544003Y-47968655D01*
X54546836Y-47970914D01*
X54546838Y-47970916D01*
X54660370Y-48042252D01*
X54697526Y-48065600D01*
X54699578Y-48066889D01*
X54869845Y-48126468D01*
X54869850Y-48126469D01*
X55049096Y-48146665D01*
X55049100Y-48146665D01*
X55049104Y-48146665D01*
X55228349Y-48126469D01*
X55228352Y-48126468D01*
X55228355Y-48126468D01*
X55398622Y-48066889D01*
X55551362Y-47970916D01*
X55678916Y-47843362D01*
X55774889Y-47690622D01*
X55834468Y-47520355D01*
X55836660Y-47500904D01*
X55854665Y-47341103D01*
X55854665Y-47341096D01*
X55834469Y-47161850D01*
X55834468Y-47161845D01*
X55774888Y-46991576D01*
X55678915Y-46838837D01*
X55551362Y-46711284D01*
X55398623Y-46615311D01*
X55228354Y-46555731D01*
X55228349Y-46555730D01*
X55049104Y-46535535D01*
X55049096Y-46535535D01*
X54869850Y-46555730D01*
X54869845Y-46555731D01*
X54699576Y-46615311D01*
X54546836Y-46711285D01*
X54544003Y-46713545D01*
X54541824Y-46714434D01*
X54540942Y-46714989D01*
X54540844Y-46714834D01*
X54479317Y-46739955D01*
X54466688Y-46740600D01*
X38007898Y-46740600D01*
X37940859Y-46720915D01*
X37920217Y-46704281D01*
X36554102Y-45338166D01*
X36520617Y-45276843D01*
X36525601Y-45207151D01*
X36567473Y-45151218D01*
X36632937Y-45126801D01*
X36701210Y-45141653D01*
X36707749Y-45145488D01*
X36726804Y-45157461D01*
X36844775Y-45231588D01*
X37015045Y-45291168D01*
X37015050Y-45291169D01*
X37194296Y-45311365D01*
X37194300Y-45311365D01*
X37194304Y-45311365D01*
X37373549Y-45291169D01*
X37373551Y-45291168D01*
X37373555Y-45291168D01*
X37373558Y-45291166D01*
X37373562Y-45291166D01*
X37491206Y-45250000D01*
X37543822Y-45231589D01*
X37633396Y-45175305D01*
X37699368Y-45156300D01*
X48141571Y-45156300D01*
X48226115Y-45139482D01*
X48267244Y-45131301D01*
X48385627Y-45082265D01*
X48390418Y-45079063D01*
X48390429Y-45079060D01*
X48390428Y-45079058D01*
X48473828Y-45023332D01*
X48492169Y-45011077D01*
X49431849Y-44071395D01*
X49493170Y-44037912D01*
X49562861Y-44042896D01*
X49593837Y-44059810D01*
X49609315Y-44071397D01*
X49692668Y-44133795D01*
X49692671Y-44133797D01*
X49827517Y-44184091D01*
X49827516Y-44184091D01*
X49834444Y-44184835D01*
X49887127Y-44190500D01*
X51112872Y-44190499D01*
X51172483Y-44184091D01*
X51307331Y-44133796D01*
X51422546Y-44047546D01*
X51422546Y-44047545D01*
X51425689Y-44045193D01*
X51491153Y-44020776D01*
X51559426Y-44035627D01*
X51574311Y-44045193D01*
X51577453Y-44047545D01*
X51577454Y-44047546D01*
X51609315Y-44071397D01*
X51692669Y-44133796D01*
X51692671Y-44133797D01*
X51827517Y-44184091D01*
X51827516Y-44184091D01*
X51834444Y-44184835D01*
X51887127Y-44190500D01*
X53112872Y-44190499D01*
X53172483Y-44184091D01*
X53307331Y-44133796D01*
X53422546Y-44047546D01*
X53508796Y-43932331D01*
X53559091Y-43797483D01*
X53565500Y-43737873D01*
X53565499Y-43650211D01*
X53585183Y-43583174D01*
X53627499Y-43542825D01*
X53649156Y-43530322D01*
X53735416Y-43480520D01*
X53847220Y-43368716D01*
X53847220Y-43368714D01*
X53857424Y-43358511D01*
X53857427Y-43358506D01*
X54908616Y-42307319D01*
X54969939Y-42273834D01*
X54996297Y-42271000D01*
X57442488Y-42271000D01*
X57509527Y-42290685D01*
X57519803Y-42298055D01*
X57522636Y-42300314D01*
X57522638Y-42300316D01*
X57616366Y-42359209D01*
X57664167Y-42389245D01*
X57675378Y-42396289D01*
X57824994Y-42448642D01*
X57845645Y-42455868D01*
X57845650Y-42455869D01*
X58024896Y-42476065D01*
X58024900Y-42476065D01*
X58024904Y-42476065D01*
X58204149Y-42455869D01*
X58204152Y-42455868D01*
X58204155Y-42455868D01*
X58374422Y-42396289D01*
X58527162Y-42300316D01*
X58654716Y-42172762D01*
X58750689Y-42020022D01*
X58810268Y-41849755D01*
X58810509Y-41847620D01*
X58830465Y-41670503D01*
X58830465Y-41670496D01*
X58810269Y-41491250D01*
X58810268Y-41491245D01*
X58790199Y-41433892D01*
X58750689Y-41320978D01*
X58737146Y-41299425D01*
X58694379Y-41231361D01*
X58654716Y-41168238D01*
X58527162Y-41040684D01*
X58493408Y-41019475D01*
X58374423Y-40944711D01*
X58204154Y-40885131D01*
X58204149Y-40885130D01*
X58024904Y-40864935D01*
X58024896Y-40864935D01*
X57845650Y-40885130D01*
X57845645Y-40885131D01*
X57675376Y-40944711D01*
X57522636Y-41040685D01*
X57519803Y-41042945D01*
X57517624Y-41043834D01*
X57516742Y-41044389D01*
X57516644Y-41044234D01*
X57455117Y-41069355D01*
X57442488Y-41070000D01*
X54782869Y-41070000D01*
X54782853Y-41069999D01*
X54775257Y-41069999D01*
X54617143Y-41069999D01*
X54464415Y-41110923D01*
X54464414Y-41110923D01*
X54464412Y-41110924D01*
X54435734Y-41127482D01*
X54435733Y-41127483D01*
X54381608Y-41158731D01*
X54327485Y-41189979D01*
X54327482Y-41189981D01*
X54215678Y-41301786D01*
X53579995Y-41937468D01*
X53518672Y-41970953D01*
X53448980Y-41965969D01*
X53418005Y-41949054D01*
X53307331Y-41866204D01*
X53307328Y-41866202D01*
X53172482Y-41815908D01*
X53172483Y-41815908D01*
X53112883Y-41809501D01*
X53112881Y-41809500D01*
X53112873Y-41809500D01*
X53112864Y-41809500D01*
X51887129Y-41809500D01*
X51887123Y-41809501D01*
X51827516Y-41815908D01*
X51692671Y-41866202D01*
X51692669Y-41866203D01*
X51574311Y-41954807D01*
X51508847Y-41979224D01*
X51440574Y-41964373D01*
X51425689Y-41954807D01*
X51413761Y-41945878D01*
X51351273Y-41899099D01*
X51307330Y-41866203D01*
X51307328Y-41866202D01*
X51231167Y-41837796D01*
X51175233Y-41795925D01*
X51150816Y-41730460D01*
X51150500Y-41721614D01*
X51150500Y-41278385D01*
X51170185Y-41211346D01*
X51222989Y-41165591D01*
X51231168Y-41162203D01*
X51307326Y-41133798D01*
X51307327Y-41133797D01*
X51307331Y-41133796D01*
X51422546Y-41047546D01*
X51422546Y-41047545D01*
X51425689Y-41045193D01*
X51491153Y-41020776D01*
X51559426Y-41035627D01*
X51574311Y-41045193D01*
X51577453Y-41047545D01*
X51577454Y-41047546D01*
X51594569Y-41060358D01*
X51692669Y-41133796D01*
X51692671Y-41133797D01*
X51827517Y-41184091D01*
X51827516Y-41184091D01*
X51834444Y-41184835D01*
X51887127Y-41190500D01*
X53112872Y-41190499D01*
X53172483Y-41184091D01*
X53307331Y-41133796D01*
X53422546Y-41047546D01*
X53508796Y-40932331D01*
X53559091Y-40797483D01*
X53565500Y-40737873D01*
X53565499Y-39262128D01*
X53559091Y-39202517D01*
X53558788Y-39201705D01*
X53532653Y-39131633D01*
X53527669Y-39061942D01*
X53561154Y-39000619D01*
X53622477Y-38967134D01*
X53648835Y-38964300D01*
X56987831Y-38964300D01*
X56987847Y-38964301D01*
X56995443Y-38964301D01*
X57153554Y-38964301D01*
X57153557Y-38964301D01*
X57306285Y-38923377D01*
X57367907Y-38887799D01*
X57443216Y-38844320D01*
X57555020Y-38732516D01*
X57555020Y-38732514D01*
X57565224Y-38722311D01*
X57565228Y-38722306D01*
X59537821Y-36749712D01*
X59599142Y-36716229D01*
X59668834Y-36721213D01*
G37*
G04 #@! TD.AperFunction*
G04 #@! TA.AperFunction,Conductor*
G36*
X109442539Y-12520185D02*
G01*
X109488294Y-12572989D01*
X109499500Y-12624500D01*
X109499500Y-59375500D01*
X109479815Y-59442539D01*
X109427011Y-59488294D01*
X109375500Y-59499500D01*
X79424500Y-59499500D01*
X79357461Y-59479815D01*
X79311706Y-59427011D01*
X79300500Y-59375500D01*
X79300500Y-56729340D01*
X79320185Y-56662301D01*
X79372989Y-56616546D01*
X79442147Y-56606602D01*
X79505703Y-56635627D01*
X79512181Y-56641659D01*
X79630938Y-56760416D01*
X79783678Y-56856389D01*
X79803086Y-56863180D01*
X79953945Y-56915968D01*
X79953950Y-56915969D01*
X80133196Y-56936165D01*
X80133200Y-56936165D01*
X80133204Y-56936165D01*
X80312449Y-56915969D01*
X80312452Y-56915968D01*
X80312455Y-56915968D01*
X80482722Y-56856389D01*
X80635462Y-56760416D01*
X80635467Y-56760410D01*
X80638297Y-56758155D01*
X80640475Y-56757265D01*
X80641358Y-56756711D01*
X80641455Y-56756865D01*
X80702983Y-56731745D01*
X80715612Y-56731100D01*
X83337831Y-56731100D01*
X83337847Y-56731101D01*
X83345443Y-56731101D01*
X83503554Y-56731101D01*
X83503557Y-56731101D01*
X83656285Y-56690177D01*
X83706404Y-56661239D01*
X83793216Y-56611120D01*
X83905020Y-56499316D01*
X83905020Y-56499314D01*
X83915228Y-56489107D01*
X83915230Y-56489104D01*
X84146804Y-56257529D01*
X84146814Y-56257522D01*
X84168625Y-56235711D01*
X84196089Y-56208246D01*
X84257410Y-56174760D01*
X84327102Y-56179743D01*
X84336161Y-56183538D01*
X84476337Y-56248903D01*
X84704592Y-56310063D01*
X84892918Y-56326539D01*
X84939999Y-56330659D01*
X84940000Y-56330659D01*
X84940001Y-56330659D01*
X84979234Y-56327226D01*
X85175408Y-56310063D01*
X85403663Y-56248903D01*
X85617830Y-56149035D01*
X85811401Y-56013495D01*
X85978495Y-55846401D01*
X86108426Y-55660841D01*
X86163002Y-55617217D01*
X86232500Y-55610023D01*
X86294855Y-55641546D01*
X86311575Y-55660842D01*
X86441500Y-55846395D01*
X86441505Y-55846401D01*
X86608599Y-56013495D01*
X86705384Y-56081265D01*
X86802165Y-56149032D01*
X86802167Y-56149033D01*
X86802170Y-56149035D01*
X87016337Y-56248903D01*
X87244592Y-56310063D01*
X87432918Y-56326539D01*
X87479999Y-56330659D01*
X87480000Y-56330659D01*
X87480001Y-56330659D01*
X87519234Y-56327226D01*
X87715408Y-56310063D01*
X87943663Y-56248903D01*
X88157830Y-56149035D01*
X88351401Y-56013495D01*
X88378251Y-55986644D01*
X88439570Y-55953161D01*
X88509262Y-55958145D01*
X88553611Y-55986646D01*
X89058139Y-56491174D01*
X89058149Y-56491185D01*
X89062479Y-56495515D01*
X89062480Y-56495516D01*
X89174284Y-56607320D01*
X89260293Y-56656977D01*
X89311215Y-56686377D01*
X89463943Y-56727301D01*
X89463946Y-56727301D01*
X89629653Y-56727301D01*
X89629669Y-56727300D01*
X92950431Y-56727300D01*
X92950447Y-56727301D01*
X92958043Y-56727301D01*
X93116154Y-56727301D01*
X93116157Y-56727301D01*
X93268885Y-56686377D01*
X93319807Y-56656977D01*
X93405816Y-56607320D01*
X93517620Y-56495516D01*
X93517620Y-56495514D01*
X93527824Y-56485311D01*
X93527828Y-56485306D01*
X94026438Y-55986696D01*
X94087761Y-55953211D01*
X94157453Y-55958195D01*
X94201800Y-55986696D01*
X94228599Y-56013495D01*
X94325384Y-56081265D01*
X94422165Y-56149032D01*
X94422167Y-56149033D01*
X94422170Y-56149035D01*
X94636337Y-56248903D01*
X94864592Y-56310063D01*
X95052918Y-56326539D01*
X95099999Y-56330659D01*
X95100000Y-56330659D01*
X95100001Y-56330659D01*
X95139234Y-56327226D01*
X95335408Y-56310063D01*
X95563663Y-56248903D01*
X95777830Y-56149035D01*
X95971401Y-56013495D01*
X96138495Y-55846401D01*
X96268427Y-55660838D01*
X96323000Y-55617216D01*
X96392499Y-55610022D01*
X96454854Y-55641544D01*
X96471572Y-55660838D01*
X96601505Y-55846401D01*
X96768599Y-56013495D01*
X96865384Y-56081265D01*
X96962165Y-56149032D01*
X96962167Y-56149033D01*
X96962170Y-56149035D01*
X97176337Y-56248903D01*
X97404592Y-56310063D01*
X97592918Y-56326539D01*
X97639999Y-56330659D01*
X97640000Y-56330659D01*
X97640001Y-56330659D01*
X97679234Y-56327226D01*
X97875408Y-56310063D01*
X98103663Y-56248903D01*
X98317830Y-56149035D01*
X98511401Y-56013495D01*
X98678495Y-55846401D01*
X98814035Y-55652830D01*
X98913903Y-55438663D01*
X98975063Y-55210408D01*
X98995659Y-54975000D01*
X98975063Y-54739592D01*
X98913903Y-54511337D01*
X98814035Y-54297171D01*
X98808425Y-54289158D01*
X98678494Y-54103597D01*
X98511402Y-53936506D01*
X98511395Y-53936501D01*
X98489784Y-53921369D01*
X98434518Y-53882671D01*
X98428863Y-53878711D01*
X102149500Y-53878711D01*
X102149500Y-54121288D01*
X102181161Y-54361785D01*
X102243947Y-54596104D01*
X102316819Y-54772032D01*
X102336776Y-54820212D01*
X102458064Y-55030289D01*
X102458066Y-55030292D01*
X102458067Y-55030293D01*
X102605733Y-55222736D01*
X102605739Y-55222743D01*
X102777256Y-55394260D01*
X102777263Y-55394266D01*
X102882478Y-55475000D01*
X102969711Y-55541936D01*
X103179788Y-55663224D01*
X103403900Y-55756054D01*
X103638211Y-55818838D01*
X103818586Y-55842584D01*
X103878711Y-55850500D01*
X103878712Y-55850500D01*
X104121289Y-55850500D01*
X104169388Y-55844167D01*
X104361789Y-55818838D01*
X104596100Y-55756054D01*
X104820212Y-55663224D01*
X105030289Y-55541936D01*
X105222738Y-55394265D01*
X105394265Y-55222738D01*
X105541936Y-55030289D01*
X105663224Y-54820212D01*
X105756054Y-54596100D01*
X105818838Y-54361789D01*
X105850500Y-54121288D01*
X105850500Y-53878712D01*
X105818838Y-53638211D01*
X105756054Y-53403900D01*
X105663224Y-53179788D01*
X105541936Y-52969711D01*
X105456105Y-52857853D01*
X105394266Y-52777263D01*
X105394260Y-52777256D01*
X105222743Y-52605739D01*
X105222736Y-52605733D01*
X105030293Y-52458067D01*
X105030292Y-52458066D01*
X105030289Y-52458064D01*
X104820212Y-52336776D01*
X104820205Y-52336773D01*
X104596104Y-52243947D01*
X104361785Y-52181161D01*
X104121289Y-52149500D01*
X104121288Y-52149500D01*
X103878712Y-52149500D01*
X103878711Y-52149500D01*
X103638214Y-52181161D01*
X103403895Y-52243947D01*
X103179794Y-52336773D01*
X103179785Y-52336777D01*
X102969706Y-52458067D01*
X102777263Y-52605733D01*
X102777256Y-52605739D01*
X102605739Y-52777256D01*
X102605733Y-52777263D01*
X102458067Y-52969706D01*
X102458064Y-52969710D01*
X102458064Y-52969711D01*
X102449623Y-52984332D01*
X102336777Y-53179785D01*
X102336773Y-53179794D01*
X102243947Y-53403895D01*
X102181161Y-53638214D01*
X102149500Y-53878711D01*
X98428863Y-53878711D01*
X98317834Y-53800967D01*
X98317830Y-53800965D01*
X98248020Y-53768412D01*
X98103663Y-53701097D01*
X98103659Y-53701096D01*
X98103655Y-53701094D01*
X97875413Y-53639938D01*
X97875403Y-53639936D01*
X97640001Y-53619341D01*
X97639999Y-53619341D01*
X97404596Y-53639936D01*
X97404586Y-53639938D01*
X97176344Y-53701094D01*
X97176335Y-53701098D01*
X96962171Y-53800964D01*
X96962169Y-53800965D01*
X96768595Y-53936506D01*
X96754244Y-53950857D01*
X96692919Y-53984339D01*
X96623228Y-53979350D01*
X96578887Y-53950852D01*
X93417490Y-50789455D01*
X93417488Y-50789452D01*
X93298617Y-50670581D01*
X93298616Y-50670580D01*
X93198139Y-50612570D01*
X93161685Y-50591523D01*
X93008957Y-50550599D01*
X92850843Y-50550599D01*
X92843247Y-50550599D01*
X92843231Y-50550600D01*
X87329500Y-50550600D01*
X87262461Y-50530915D01*
X87216706Y-50478111D01*
X87205500Y-50426600D01*
X87205499Y-49277129D01*
X87205498Y-49277123D01*
X87199091Y-49217516D01*
X87148797Y-49082671D01*
X87148795Y-49082668D01*
X87124475Y-49050181D01*
X87112722Y-49034480D01*
X87088305Y-48969019D01*
X87103156Y-48900746D01*
X87124305Y-48872493D01*
X88538280Y-47458519D01*
X88599603Y-47425034D01*
X88625961Y-47422200D01*
X90670009Y-47422200D01*
X90847391Y-47422200D01*
X91881424Y-47422200D01*
X91913516Y-47426425D01*
X91920943Y-47428415D01*
X92079057Y-47428415D01*
X93189381Y-47428415D01*
X93256420Y-47448100D01*
X93302175Y-47500904D01*
X93312119Y-47570062D01*
X93294375Y-47618387D01*
X93274211Y-47650477D01*
X93214631Y-47820745D01*
X93214630Y-47820750D01*
X93194435Y-47999996D01*
X93194435Y-48000003D01*
X93214630Y-48179249D01*
X93214631Y-48179254D01*
X93274211Y-48349523D01*
X93370184Y-48502262D01*
X93497738Y-48629816D01*
X93569078Y-48674642D01*
X93590133Y-48687872D01*
X93650478Y-48725789D01*
X93712476Y-48747483D01*
X93820745Y-48785368D01*
X93820750Y-48785369D01*
X93999996Y-48805565D01*
X94000000Y-48805565D01*
X94000004Y-48805565D01*
X94179249Y-48785369D01*
X94179252Y-48785368D01*
X94179255Y-48785368D01*
X94349522Y-48725789D01*
X94502262Y-48629816D01*
X94502267Y-48629810D01*
X94505097Y-48627555D01*
X94507275Y-48626665D01*
X94508158Y-48626111D01*
X94508255Y-48626265D01*
X94569783Y-48601145D01*
X94582412Y-48600500D01*
X96413331Y-48600500D01*
X96413347Y-48600501D01*
X96420943Y-48600501D01*
X96579054Y-48600501D01*
X96579057Y-48600501D01*
X96731785Y-48559577D01*
X96781904Y-48530639D01*
X96868716Y-48480520D01*
X96980520Y-48368716D01*
X96980521Y-48368714D01*
X97480520Y-47868716D01*
X97559577Y-47731784D01*
X97600501Y-47579057D01*
X97600501Y-47420942D01*
X97600501Y-47413347D01*
X97600500Y-47413329D01*
X97600500Y-46261438D01*
X97620185Y-46194399D01*
X97625234Y-46187126D01*
X97627875Y-46183598D01*
X97643796Y-46162331D01*
X97649188Y-46147876D01*
X97682518Y-46058511D01*
X97694091Y-46027483D01*
X97700500Y-45967873D01*
X97700500Y-45737844D01*
X103435000Y-45737844D01*
X103441401Y-45797372D01*
X103441403Y-45797379D01*
X103491645Y-45932086D01*
X103491649Y-45932093D01*
X103577809Y-46047187D01*
X103577812Y-46047190D01*
X103692906Y-46133350D01*
X103692913Y-46133354D01*
X103827620Y-46183596D01*
X103827627Y-46183598D01*
X103887155Y-46189999D01*
X103887172Y-46190000D01*
X104250000Y-46190000D01*
X104250000Y-45250000D01*
X103435000Y-45250000D01*
X103435000Y-45737844D01*
X97700500Y-45737844D01*
X97700499Y-45079109D01*
X97720183Y-45012071D01*
X97772987Y-44966316D01*
X97824499Y-44955110D01*
X100111421Y-44955110D01*
X100111437Y-44955111D01*
X100119033Y-44955111D01*
X100277144Y-44955111D01*
X100277147Y-44955111D01*
X100429875Y-44914187D01*
X100502723Y-44872128D01*
X100566806Y-44835130D01*
X100678610Y-44723326D01*
X100678610Y-44723324D01*
X100688814Y-44713121D01*
X100688817Y-44713116D01*
X101038416Y-44363519D01*
X101099739Y-44330034D01*
X101126097Y-44327200D01*
X103311000Y-44327200D01*
X103378039Y-44346885D01*
X103423794Y-44399689D01*
X103435000Y-44451200D01*
X103435000Y-44750000D01*
X104376000Y-44750000D01*
X104443039Y-44769685D01*
X104488794Y-44822489D01*
X104500000Y-44874000D01*
X104500000Y-45000000D01*
X104626000Y-45000000D01*
X104693039Y-45019685D01*
X104738794Y-45072489D01*
X104750000Y-45124000D01*
X104750000Y-46190000D01*
X105112828Y-46190000D01*
X105112844Y-46189999D01*
X105172372Y-46183598D01*
X105172379Y-46183596D01*
X105307086Y-46133354D01*
X105307089Y-46133352D01*
X105425271Y-46044881D01*
X105490735Y-46020463D01*
X105559009Y-46035314D01*
X105573895Y-46044881D01*
X105577452Y-46047544D01*
X105577454Y-46047546D01*
X105692076Y-46133352D01*
X105692668Y-46133795D01*
X105692671Y-46133797D01*
X105827517Y-46184091D01*
X105827516Y-46184091D01*
X105834444Y-46184835D01*
X105887127Y-46190500D01*
X107112872Y-46190499D01*
X107172483Y-46184091D01*
X107307331Y-46133796D01*
X107422546Y-46047546D01*
X107508796Y-45932331D01*
X107559091Y-45797483D01*
X107565500Y-45737873D01*
X107565499Y-44262128D01*
X107559091Y-44202517D01*
X107554608Y-44190498D01*
X107508797Y-44067671D01*
X107508793Y-44067664D01*
X107422547Y-43952455D01*
X107422544Y-43952452D01*
X107307335Y-43866206D01*
X107307328Y-43866202D01*
X107172482Y-43815908D01*
X107172483Y-43815908D01*
X107112883Y-43809501D01*
X107112881Y-43809500D01*
X107112873Y-43809500D01*
X107112865Y-43809500D01*
X106291872Y-43809500D01*
X106224833Y-43789815D01*
X106184485Y-43747500D01*
X106152987Y-43692944D01*
X106152917Y-43692822D01*
X106113934Y-43625125D01*
X106113519Y-43624583D01*
X106095296Y-43606360D01*
X106057637Y-43568701D01*
X106039975Y-43550999D01*
X106003719Y-43514660D01*
X105970304Y-43453299D01*
X105967500Y-43427079D01*
X105967500Y-42314499D01*
X105987185Y-42247460D01*
X106039989Y-42201705D01*
X106091500Y-42190499D01*
X107112871Y-42190499D01*
X107112872Y-42190499D01*
X107172483Y-42184091D01*
X107307331Y-42133796D01*
X107422546Y-42047546D01*
X107508796Y-41932331D01*
X107559091Y-41797483D01*
X107565500Y-41737873D01*
X107565499Y-40262128D01*
X107559603Y-40207276D01*
X107559091Y-40202516D01*
X107508797Y-40067671D01*
X107508793Y-40067664D01*
X107422547Y-39952455D01*
X107422544Y-39952452D01*
X107307335Y-39866206D01*
X107307328Y-39866202D01*
X107172482Y-39815908D01*
X107172483Y-39815908D01*
X107112883Y-39809501D01*
X107112881Y-39809500D01*
X107112873Y-39809500D01*
X107112865Y-39809500D01*
X106210311Y-39809500D01*
X106143272Y-39789815D01*
X106122618Y-39773169D01*
X106003807Y-39654326D01*
X105970330Y-39592999D01*
X105967500Y-39566657D01*
X105967500Y-39314499D01*
X105987185Y-39247460D01*
X106039989Y-39201705D01*
X106091500Y-39190499D01*
X107112871Y-39190499D01*
X107112872Y-39190499D01*
X107172483Y-39184091D01*
X107307331Y-39133796D01*
X107422546Y-39047546D01*
X107508796Y-38932331D01*
X107559091Y-38797483D01*
X107565500Y-38737873D01*
X107565499Y-37262128D01*
X107559091Y-37202517D01*
X107538545Y-37147431D01*
X107508797Y-37067671D01*
X107508793Y-37067664D01*
X107425234Y-36956044D01*
X107400816Y-36890580D01*
X107400500Y-36881733D01*
X107400500Y-36619606D01*
X107400499Y-36619604D01*
X107365896Y-36445641D01*
X107365893Y-36445632D01*
X107298016Y-36281759D01*
X107298009Y-36281746D01*
X107199464Y-36134265D01*
X107199461Y-36134261D01*
X107074038Y-36008838D01*
X107074034Y-36008835D01*
X106926553Y-35910290D01*
X106926540Y-35910283D01*
X106762667Y-35842406D01*
X106762658Y-35842403D01*
X106588694Y-35807800D01*
X106588691Y-35807800D01*
X94447492Y-35807800D01*
X94270108Y-35807800D01*
X94270103Y-35807800D01*
X94096141Y-35842403D01*
X94096133Y-35842405D01*
X94032614Y-35868716D01*
X93932255Y-35910285D01*
X93932252Y-35910287D01*
X93912004Y-35923817D01*
X93869146Y-35952454D01*
X93869145Y-35952455D01*
X93784761Y-36008837D01*
X92118840Y-37674758D01*
X92118834Y-37674765D01*
X92020288Y-37822251D01*
X91952405Y-37986133D01*
X91952403Y-37986141D01*
X91917800Y-38160103D01*
X91917800Y-38337496D01*
X91952403Y-38511458D01*
X91952405Y-38511466D01*
X91983510Y-38586559D01*
X91990979Y-38656028D01*
X91978646Y-38689706D01*
X91978732Y-38689742D01*
X91977881Y-38691794D01*
X91976340Y-38696005D01*
X91975624Y-38697245D01*
X91915132Y-38843284D01*
X91915132Y-38843285D01*
X91894500Y-38999992D01*
X91894500Y-42855403D01*
X91874815Y-42922442D01*
X91822011Y-42968197D01*
X91752853Y-42978141D01*
X91689297Y-42949116D01*
X91682819Y-42943084D01*
X90378090Y-41638355D01*
X90378088Y-41638352D01*
X90259217Y-41519481D01*
X90259209Y-41519475D01*
X90162769Y-41463796D01*
X90162767Y-41463795D01*
X90122290Y-41440425D01*
X90122289Y-41440424D01*
X90097911Y-41433892D01*
X89969557Y-41399499D01*
X89811443Y-41399499D01*
X89803847Y-41399499D01*
X89803831Y-41399500D01*
X81309657Y-41399500D01*
X81151543Y-41399500D01*
X80998815Y-41440423D01*
X80998814Y-41440423D01*
X80998812Y-41440424D01*
X80998809Y-41440425D01*
X80958333Y-41463795D01*
X80958331Y-41463796D01*
X80861890Y-41519475D01*
X80861882Y-41519481D01*
X80750078Y-41631286D01*
X79962180Y-42419183D01*
X79900857Y-42452668D01*
X79831165Y-42447684D01*
X79775232Y-42405812D01*
X79750815Y-42340348D01*
X79750499Y-42331529D01*
X79750499Y-41342128D01*
X79744091Y-41282517D01*
X79731340Y-41248332D01*
X79726357Y-41178642D01*
X79731340Y-41161669D01*
X79744091Y-41127483D01*
X79750500Y-41067873D01*
X79750499Y-40072128D01*
X79746868Y-40038352D01*
X82294499Y-40038352D01*
X82325069Y-40192033D01*
X82325072Y-40192043D01*
X82385033Y-40336804D01*
X82385040Y-40336817D01*
X82472094Y-40467101D01*
X82472097Y-40467105D01*
X82582894Y-40577902D01*
X82582898Y-40577905D01*
X82713182Y-40664959D01*
X82713195Y-40664966D01*
X82857956Y-40724927D01*
X82857961Y-40724929D01*
X82857965Y-40724929D01*
X82857966Y-40724930D01*
X83011647Y-40755500D01*
X83011650Y-40755500D01*
X83168352Y-40755500D01*
X83273697Y-40734545D01*
X83322039Y-40724929D01*
X83466811Y-40664963D01*
X83597102Y-40577905D01*
X83597105Y-40577902D01*
X83642319Y-40532689D01*
X83703642Y-40499204D01*
X83773334Y-40504188D01*
X83817681Y-40532689D01*
X83862894Y-40577902D01*
X83862898Y-40577905D01*
X83993182Y-40664959D01*
X83993195Y-40664966D01*
X84137956Y-40724927D01*
X84137961Y-40724929D01*
X84137965Y-40724929D01*
X84137966Y-40724930D01*
X84291647Y-40755500D01*
X84291650Y-40755500D01*
X84448352Y-40755500D01*
X84553697Y-40734545D01*
X84602039Y-40724929D01*
X84746811Y-40664963D01*
X84877102Y-40577905D01*
X84912318Y-40542689D01*
X84973640Y-40509203D01*
X85043332Y-40514187D01*
X85087682Y-40542689D01*
X85122894Y-40577902D01*
X85122898Y-40577905D01*
X85253182Y-40664959D01*
X85253195Y-40664966D01*
X85397956Y-40724927D01*
X85397961Y-40724929D01*
X85397965Y-40724929D01*
X85397966Y-40724930D01*
X85551647Y-40755500D01*
X85551650Y-40755500D01*
X85708352Y-40755500D01*
X85813697Y-40734545D01*
X85862039Y-40724929D01*
X86006811Y-40664963D01*
X86137102Y-40577905D01*
X86137105Y-40577902D01*
X86177319Y-40537689D01*
X86238642Y-40504204D01*
X86308334Y-40509188D01*
X86352681Y-40537689D01*
X86392894Y-40577902D01*
X86392898Y-40577905D01*
X86523182Y-40664959D01*
X86523195Y-40664966D01*
X86667956Y-40724927D01*
X86667961Y-40724929D01*
X86667965Y-40724929D01*
X86667966Y-40724930D01*
X86821647Y-40755500D01*
X86821650Y-40755500D01*
X86978352Y-40755500D01*
X87083697Y-40734545D01*
X87132039Y-40724929D01*
X87276811Y-40664963D01*
X87407102Y-40577905D01*
X87517905Y-40467102D01*
X87604963Y-40336811D01*
X87664929Y-40192039D01*
X87682587Y-40103266D01*
X87695500Y-40038352D01*
X87695500Y-38627800D01*
X87715185Y-38560761D01*
X87767989Y-38515006D01*
X87819500Y-38503800D01*
X89605071Y-38503800D01*
X89672110Y-38523485D01*
X89717865Y-38576289D01*
X89728291Y-38613917D01*
X89737330Y-38694149D01*
X89737331Y-38694154D01*
X89737332Y-38694155D01*
X89738413Y-38697245D01*
X89796910Y-38864421D01*
X89859669Y-38964301D01*
X89892884Y-39017162D01*
X90020438Y-39144716D01*
X90173178Y-39240689D01*
X90343445Y-39300268D01*
X90343450Y-39300269D01*
X90522696Y-39320465D01*
X90522700Y-39320465D01*
X90522704Y-39320465D01*
X90701949Y-39300269D01*
X90701952Y-39300268D01*
X90701955Y-39300268D01*
X90872222Y-39240689D01*
X91024962Y-39144716D01*
X91152516Y-39017162D01*
X91248489Y-38864422D01*
X91308068Y-38694155D01*
X91308383Y-38691361D01*
X91328265Y-38514903D01*
X91328265Y-38514896D01*
X91308069Y-38335650D01*
X91308068Y-38335645D01*
X91284384Y-38267961D01*
X91248489Y-38165378D01*
X91245174Y-38160103D01*
X91187350Y-38068076D01*
X91152516Y-38012638D01*
X91024962Y-37885084D01*
X90981632Y-37857858D01*
X90872221Y-37789110D01*
X90717787Y-37735072D01*
X90701955Y-37729532D01*
X90701954Y-37729531D01*
X90701949Y-37729530D01*
X90615030Y-37719737D01*
X90550616Y-37692670D01*
X90541233Y-37684198D01*
X90398690Y-37541655D01*
X90398688Y-37541652D01*
X90279817Y-37422781D01*
X90279816Y-37422780D01*
X90171943Y-37360500D01*
X90171942Y-37360499D01*
X90142883Y-37343722D01*
X90086981Y-37328743D01*
X89990157Y-37302799D01*
X89832043Y-37302799D01*
X89824447Y-37302799D01*
X89824431Y-37302800D01*
X86820943Y-37302800D01*
X86668216Y-37343723D01*
X86668209Y-37343726D01*
X86531290Y-37422775D01*
X86531282Y-37422781D01*
X86419481Y-37534582D01*
X86419475Y-37534590D01*
X86340426Y-37671509D01*
X86340423Y-37671514D01*
X86306479Y-37798198D01*
X86270114Y-37857858D01*
X86207267Y-37888387D01*
X86137891Y-37880092D01*
X86117813Y-37869206D01*
X86006817Y-37795040D01*
X86006804Y-37795033D01*
X85862043Y-37735072D01*
X85862033Y-37735069D01*
X85708352Y-37704500D01*
X85708350Y-37704500D01*
X85551650Y-37704500D01*
X85551648Y-37704500D01*
X85397966Y-37735069D01*
X85397956Y-37735072D01*
X85253195Y-37795033D01*
X85253182Y-37795040D01*
X85122898Y-37882094D01*
X85122894Y-37882097D01*
X85087681Y-37917311D01*
X85026358Y-37950796D01*
X84956666Y-37945812D01*
X84912319Y-37917311D01*
X84877105Y-37882097D01*
X84877101Y-37882094D01*
X84746817Y-37795040D01*
X84746804Y-37795033D01*
X84602043Y-37735072D01*
X84602033Y-37735069D01*
X84448352Y-37704500D01*
X84448350Y-37704500D01*
X84291650Y-37704500D01*
X84291648Y-37704500D01*
X84137966Y-37735069D01*
X84137956Y-37735072D01*
X83993195Y-37795033D01*
X83993182Y-37795040D01*
X83862898Y-37882094D01*
X83862894Y-37882097D01*
X83817681Y-37927311D01*
X83756358Y-37960796D01*
X83686666Y-37955812D01*
X83642319Y-37927311D01*
X83597105Y-37882097D01*
X83597101Y-37882094D01*
X83466817Y-37795040D01*
X83466804Y-37795033D01*
X83322043Y-37735072D01*
X83322033Y-37735069D01*
X83168352Y-37704500D01*
X83168350Y-37704500D01*
X83011650Y-37704500D01*
X83011648Y-37704500D01*
X82857966Y-37735069D01*
X82857956Y-37735072D01*
X82713195Y-37795033D01*
X82713182Y-37795040D01*
X82582898Y-37882094D01*
X82582894Y-37882097D01*
X82472097Y-37992894D01*
X82472094Y-37992898D01*
X82385040Y-38123182D01*
X82385033Y-38123195D01*
X82325072Y-38267956D01*
X82325069Y-38267966D01*
X82294500Y-38421647D01*
X82294500Y-38421650D01*
X82294500Y-40038350D01*
X82294500Y-40038352D01*
X82294499Y-40038352D01*
X79746868Y-40038352D01*
X79744091Y-40012517D01*
X79731340Y-39978332D01*
X79726357Y-39908642D01*
X79731340Y-39891669D01*
X79744091Y-39857483D01*
X79750500Y-39797873D01*
X79750499Y-38802128D01*
X79744091Y-38742517D01*
X79731340Y-38708332D01*
X79726357Y-38638642D01*
X79731340Y-38621669D01*
X79744091Y-38587483D01*
X79750500Y-38527873D01*
X79750499Y-37532128D01*
X79744091Y-37472517D01*
X79740790Y-37463666D01*
X79735805Y-37393974D01*
X79769289Y-37332651D01*
X79794964Y-37312948D01*
X79920416Y-37240520D01*
X80032220Y-37128716D01*
X80111277Y-36991784D01*
X80152200Y-36839057D01*
X80152200Y-34873259D01*
X80152201Y-34873246D01*
X80152201Y-34705145D01*
X80152201Y-34705143D01*
X80111277Y-34552415D01*
X80055933Y-34456557D01*
X80055932Y-34456555D01*
X80032222Y-34415487D01*
X80032221Y-34415486D01*
X80032220Y-34415484D01*
X79920416Y-34303680D01*
X79920415Y-34303679D01*
X79916085Y-34299349D01*
X79916074Y-34299339D01*
X77965790Y-32349055D01*
X77965788Y-32349052D01*
X77920617Y-32303881D01*
X77887132Y-32242558D01*
X77892116Y-32172866D01*
X77933988Y-32116933D01*
X77999452Y-32092516D01*
X78008298Y-32092200D01*
X89203503Y-32092200D01*
X89270542Y-32111885D01*
X89291184Y-32128519D01*
X89858739Y-32696074D01*
X89858749Y-32696085D01*
X89863079Y-32700415D01*
X89863080Y-32700416D01*
X89974884Y-32812220D01*
X89974886Y-32812221D01*
X89974890Y-32812224D01*
X90027360Y-32842517D01*
X90111816Y-32891277D01*
X90223619Y-32921234D01*
X90264542Y-32932200D01*
X90264543Y-32932200D01*
X90264544Y-32932200D01*
X90879055Y-32932200D01*
X90879057Y-32932200D01*
X91031784Y-32891277D01*
X91168716Y-32812220D01*
X91280520Y-32700416D01*
X91359577Y-32563484D01*
X91394634Y-32432647D01*
X91430998Y-32372989D01*
X91458108Y-32354261D01*
X91481610Y-32342287D01*
X91647219Y-32221966D01*
X91791966Y-32077219D01*
X91791968Y-32077215D01*
X91791971Y-32077213D01*
X91879748Y-31956396D01*
X91912287Y-31911610D01*
X92005220Y-31729219D01*
X92068477Y-31534534D01*
X92100500Y-31332352D01*
X92100500Y-30127648D01*
X92083084Y-30017687D01*
X92068477Y-29925465D01*
X92057317Y-29891119D01*
X92055322Y-29821278D01*
X92091402Y-29761445D01*
X92154102Y-29730616D01*
X92175248Y-29728800D01*
X92824752Y-29728800D01*
X92891791Y-29748485D01*
X92937546Y-29801289D01*
X92947490Y-29870447D01*
X92942683Y-29891119D01*
X92931522Y-29925465D01*
X92899500Y-30127648D01*
X92899500Y-31332351D01*
X92931522Y-31534534D01*
X92994781Y-31729223D01*
X93087715Y-31911613D01*
X93208028Y-32077213D01*
X93352786Y-32221971D01*
X93465528Y-32303881D01*
X93518390Y-32342287D01*
X93598971Y-32383345D01*
X93700776Y-32435218D01*
X93700778Y-32435218D01*
X93700781Y-32435220D01*
X93800181Y-32467517D01*
X93895465Y-32498477D01*
X93944264Y-32506206D01*
X94097648Y-32530500D01*
X94097649Y-32530500D01*
X94302351Y-32530500D01*
X94302352Y-32530500D01*
X94504534Y-32498477D01*
X94699219Y-32435220D01*
X94881610Y-32342287D01*
X94987069Y-32265667D01*
X95047213Y-32221971D01*
X95047215Y-32221968D01*
X95047219Y-32221966D01*
X95191966Y-32077219D01*
X95191968Y-32077215D01*
X95191971Y-32077213D01*
X95279748Y-31956396D01*
X95312287Y-31911610D01*
X95405220Y-31729219D01*
X95468477Y-31534534D01*
X95500500Y-31332352D01*
X95500500Y-30430000D01*
X103395052Y-30430000D01*
X103414812Y-30681072D01*
X103473603Y-30925956D01*
X103569980Y-31158631D01*
X103701568Y-31373362D01*
X103702266Y-31374179D01*
X104360690Y-30715755D01*
X104379669Y-30761574D01*
X104456275Y-30876223D01*
X104553777Y-30973725D01*
X104668426Y-31050331D01*
X104714243Y-31069309D01*
X104055819Y-31727732D01*
X104055819Y-31727733D01*
X104056634Y-31728429D01*
X104271368Y-31860019D01*
X104504043Y-31956396D01*
X104748927Y-32015187D01*
X105000000Y-32034947D01*
X105251072Y-32015187D01*
X105495956Y-31956396D01*
X105728631Y-31860019D01*
X105943361Y-31728432D01*
X105943363Y-31728430D01*
X105944180Y-31727732D01*
X105285756Y-31069309D01*
X105331574Y-31050331D01*
X105446223Y-30973725D01*
X105543725Y-30876223D01*
X105620331Y-30761574D01*
X105639308Y-30715756D01*
X106297732Y-31374180D01*
X106298430Y-31373363D01*
X106298432Y-31373361D01*
X106430019Y-31158631D01*
X106526396Y-30925956D01*
X106585187Y-30681072D01*
X106604947Y-30430000D01*
X106585187Y-30178927D01*
X106526396Y-29934043D01*
X106430019Y-29701368D01*
X106298429Y-29486634D01*
X106297733Y-29485819D01*
X106297732Y-29485819D01*
X105639308Y-30144242D01*
X105620331Y-30098426D01*
X105543725Y-29983777D01*
X105446223Y-29886275D01*
X105331574Y-29809669D01*
X105285754Y-29790690D01*
X105944179Y-29132266D01*
X105943362Y-29131568D01*
X105728631Y-28999980D01*
X105495956Y-28903603D01*
X105251072Y-28844812D01*
X105000000Y-28825052D01*
X104748927Y-28844812D01*
X104504043Y-28903603D01*
X104271368Y-28999980D01*
X104056637Y-29131567D01*
X104055818Y-29132266D01*
X104714243Y-29790690D01*
X104668426Y-29809669D01*
X104553777Y-29886275D01*
X104456275Y-29983777D01*
X104379669Y-30098426D01*
X104360690Y-30144243D01*
X103702266Y-29485818D01*
X103701567Y-29486637D01*
X103569980Y-29701368D01*
X103473603Y-29934043D01*
X103414812Y-30178927D01*
X103395052Y-30430000D01*
X95500500Y-30430000D01*
X95500500Y-30127648D01*
X95483084Y-30017687D01*
X95468477Y-29925465D01*
X95423761Y-29787845D01*
X95405220Y-29730781D01*
X95405218Y-29730778D01*
X95405218Y-29730776D01*
X95358435Y-29638960D01*
X95312287Y-29548390D01*
X95289937Y-29517627D01*
X95191971Y-29382786D01*
X95047213Y-29238028D01*
X94881610Y-29117712D01*
X94881607Y-29117710D01*
X94858111Y-29105738D01*
X94807316Y-29057763D01*
X94794634Y-29027352D01*
X94759577Y-28896516D01*
X94695226Y-28785055D01*
X94680524Y-28759590D01*
X94680518Y-28759582D01*
X94568717Y-28647781D01*
X94568709Y-28647775D01*
X94431790Y-28568726D01*
X94431786Y-28568724D01*
X94431784Y-28568723D01*
X94279057Y-28527800D01*
X90879057Y-28527800D01*
X90720943Y-28527800D01*
X90568216Y-28568723D01*
X90568209Y-28568726D01*
X90431290Y-28647775D01*
X90431282Y-28647781D01*
X90319481Y-28759582D01*
X90319475Y-28759590D01*
X90240426Y-28896509D01*
X90240423Y-28896514D01*
X90205366Y-29027349D01*
X90169000Y-29087010D01*
X90141890Y-29105738D01*
X90118386Y-29117714D01*
X89952786Y-29238028D01*
X89808028Y-29382786D01*
X89687715Y-29548386D01*
X89594781Y-29730776D01*
X89531522Y-29925465D01*
X89499500Y-30127648D01*
X89499500Y-30767200D01*
X89479815Y-30834239D01*
X89427011Y-30879994D01*
X89375500Y-30891200D01*
X86689500Y-30891200D01*
X86622461Y-30871515D01*
X86576706Y-30818711D01*
X86565500Y-30767200D01*
X86565499Y-29762129D01*
X86565498Y-29762123D01*
X86565425Y-29761445D01*
X86559091Y-29702517D01*
X86558662Y-29701368D01*
X86508797Y-29567671D01*
X86508793Y-29567664D01*
X86422547Y-29452455D01*
X86422544Y-29452452D01*
X86307335Y-29366206D01*
X86307328Y-29366202D01*
X86172482Y-29315908D01*
X86172483Y-29315908D01*
X86112883Y-29309501D01*
X86112881Y-29309500D01*
X86112873Y-29309500D01*
X86112865Y-29309500D01*
X85410598Y-29309500D01*
X85343559Y-29289815D01*
X85297804Y-29237011D01*
X85287378Y-29199384D01*
X85285368Y-29181545D01*
X85225789Y-29011278D01*
X85129816Y-28858538D01*
X85002262Y-28730984D01*
X84971534Y-28711676D01*
X84849523Y-28635011D01*
X84679254Y-28575431D01*
X84679249Y-28575430D01*
X84500004Y-28555235D01*
X84499996Y-28555235D01*
X84320750Y-28575430D01*
X84320745Y-28575431D01*
X84150476Y-28635011D01*
X83997739Y-28730983D01*
X83907939Y-28820783D01*
X83846615Y-28854267D01*
X83776924Y-28849283D01*
X83720990Y-28807411D01*
X83703216Y-28774056D01*
X83681389Y-28711678D01*
X83669249Y-28692358D01*
X83633216Y-28635011D01*
X83585416Y-28558938D01*
X83457862Y-28431384D01*
X83399849Y-28394932D01*
X83305121Y-28335410D01*
X83134855Y-28275832D01*
X83134846Y-28275830D01*
X83127612Y-28275015D01*
X83063200Y-28247944D01*
X83053823Y-28239477D01*
X82177374Y-27363027D01*
X82177373Y-27363026D01*
X82157878Y-27350000D01*
X82070827Y-27291835D01*
X82070822Y-27291833D01*
X81952444Y-27242799D01*
X81952438Y-27242797D01*
X81826771Y-27217800D01*
X81826769Y-27217800D01*
X75364069Y-27217800D01*
X75235931Y-27217800D01*
X75235929Y-27217800D01*
X75110261Y-27242797D01*
X75110255Y-27242799D01*
X74991875Y-27291833D01*
X74991866Y-27291838D01*
X74885331Y-27363023D01*
X74885327Y-27363026D01*
X74794726Y-27453627D01*
X74794724Y-27453630D01*
X74723538Y-27560166D01*
X74723533Y-27560176D01*
X74677800Y-27670585D01*
X74633959Y-27724989D01*
X74606573Y-27739314D01*
X74507670Y-27776203D01*
X74507664Y-27776206D01*
X74392455Y-27862452D01*
X74392452Y-27862455D01*
X74306206Y-27977664D01*
X74306202Y-27977671D01*
X74266182Y-28084972D01*
X74224311Y-28140906D01*
X74158846Y-28165323D01*
X74090573Y-28150471D01*
X74041168Y-28101066D01*
X74033818Y-28084972D01*
X73993797Y-27977671D01*
X73993793Y-27977664D01*
X73907547Y-27862455D01*
X73907544Y-27862452D01*
X73792335Y-27776206D01*
X73792328Y-27776202D01*
X73657482Y-27725908D01*
X73657483Y-27725908D01*
X73597883Y-27719501D01*
X73597881Y-27719500D01*
X73597873Y-27719500D01*
X73597864Y-27719500D01*
X72402129Y-27719500D01*
X72402123Y-27719501D01*
X72342516Y-27725908D01*
X72207671Y-27776202D01*
X72207664Y-27776206D01*
X72092455Y-27862452D01*
X72092452Y-27862455D01*
X72006206Y-27977664D01*
X72006202Y-27977671D01*
X71965915Y-28085687D01*
X71924044Y-28141621D01*
X71858579Y-28166038D01*
X71790306Y-28151186D01*
X71740901Y-28101781D01*
X71733551Y-28085687D01*
X71693354Y-27977913D01*
X71693350Y-27977906D01*
X71607190Y-27862812D01*
X71607187Y-27862809D01*
X71492093Y-27776649D01*
X71492086Y-27776645D01*
X71357379Y-27726403D01*
X71357372Y-27726401D01*
X71297844Y-27720000D01*
X70950000Y-27720000D01*
X70950000Y-29346000D01*
X70930315Y-29413039D01*
X70877511Y-29458794D01*
X70826000Y-29470000D01*
X70700000Y-29470000D01*
X70700000Y-29596000D01*
X70680315Y-29663039D01*
X70627511Y-29708794D01*
X70576000Y-29720000D01*
X69650000Y-29720000D01*
X69650000Y-30767200D01*
X69630315Y-30834239D01*
X69577511Y-30879994D01*
X69526000Y-30891200D01*
X62724500Y-30891200D01*
X62657461Y-30871515D01*
X62611706Y-30818711D01*
X62600500Y-30767200D01*
X62600500Y-28394932D01*
X62620185Y-28327893D01*
X62672989Y-28282138D01*
X62689893Y-28275859D01*
X62772898Y-28251744D01*
X62914365Y-28168081D01*
X63030581Y-28051865D01*
X63030767Y-28051549D01*
X63030977Y-28051353D01*
X63035361Y-28045702D01*
X63036272Y-28046409D01*
X63081836Y-28003866D01*
X63150577Y-27991362D01*
X63215167Y-28018006D01*
X63239355Y-28045921D01*
X63239639Y-28045702D01*
X63243679Y-28050911D01*
X63244232Y-28051548D01*
X63244419Y-28051865D01*
X63244421Y-28051867D01*
X63244423Y-28051870D01*
X63360629Y-28168076D01*
X63360633Y-28168079D01*
X63360635Y-28168081D01*
X63502102Y-28251744D01*
X63531314Y-28260231D01*
X63659926Y-28297597D01*
X63659929Y-28297597D01*
X63659931Y-28297598D01*
X63696806Y-28300500D01*
X63696814Y-28300500D01*
X64853186Y-28300500D01*
X64853194Y-28300500D01*
X64890069Y-28297598D01*
X64890071Y-28297597D01*
X64890073Y-28297597D01*
X64967799Y-28275015D01*
X65047898Y-28251744D01*
X65182476Y-28172155D01*
X69650000Y-28172155D01*
X69650000Y-29220000D01*
X70450000Y-29220000D01*
X70450000Y-27720000D01*
X70102155Y-27720000D01*
X70042627Y-27726401D01*
X70042620Y-27726403D01*
X69907913Y-27776645D01*
X69907906Y-27776649D01*
X69792812Y-27862809D01*
X69792809Y-27862812D01*
X69706649Y-27977906D01*
X69706645Y-27977913D01*
X69656403Y-28112620D01*
X69656401Y-28112627D01*
X69650000Y-28172155D01*
X65182476Y-28172155D01*
X65189365Y-28168081D01*
X65220626Y-28136820D01*
X65281948Y-28103334D01*
X65308308Y-28100500D01*
X65913331Y-28100500D01*
X65913347Y-28100501D01*
X65920943Y-28100501D01*
X66079054Y-28100501D01*
X66079057Y-28100501D01*
X66231785Y-28059577D01*
X66297455Y-28021662D01*
X66368716Y-27980520D01*
X66480520Y-27868716D01*
X66480520Y-27868714D01*
X66490724Y-27858511D01*
X66490727Y-27858506D01*
X67712416Y-26636819D01*
X67743218Y-26620000D01*
X103395052Y-26620000D01*
X103414812Y-26871072D01*
X103473603Y-27115956D01*
X103569980Y-27348631D01*
X103701568Y-27563362D01*
X103702266Y-27564179D01*
X104360690Y-26905755D01*
X104379669Y-26951574D01*
X104456275Y-27066223D01*
X104553777Y-27163725D01*
X104668426Y-27240331D01*
X104714243Y-27259309D01*
X104055819Y-27917732D01*
X104055819Y-27917733D01*
X104056634Y-27918429D01*
X104271368Y-28050019D01*
X104504043Y-28146396D01*
X104748927Y-28205187D01*
X105000000Y-28224947D01*
X105251072Y-28205187D01*
X105495956Y-28146396D01*
X105728631Y-28050019D01*
X105943361Y-27918432D01*
X105943363Y-27918430D01*
X105944180Y-27917732D01*
X105285756Y-27259309D01*
X105331574Y-27240331D01*
X105446223Y-27163725D01*
X105543725Y-27066223D01*
X105620331Y-26951574D01*
X105639308Y-26905756D01*
X106297732Y-27564180D01*
X106298430Y-27563363D01*
X106298432Y-27563361D01*
X106430019Y-27348631D01*
X106526396Y-27115956D01*
X106585187Y-26871072D01*
X106604947Y-26620000D01*
X106585187Y-26368927D01*
X106526396Y-26124043D01*
X106430019Y-25891368D01*
X106298429Y-25676634D01*
X106297733Y-25675819D01*
X106297732Y-25675819D01*
X105639308Y-26334242D01*
X105620331Y-26288426D01*
X105543725Y-26173777D01*
X105446223Y-26076275D01*
X105331574Y-25999669D01*
X105285754Y-25980690D01*
X105944179Y-25322266D01*
X105943362Y-25321568D01*
X105728631Y-25189980D01*
X105495956Y-25093603D01*
X105251072Y-25034812D01*
X105000000Y-25015052D01*
X104748927Y-25034812D01*
X104504043Y-25093603D01*
X104271368Y-25189980D01*
X104056637Y-25321567D01*
X104055818Y-25322266D01*
X104714243Y-25980690D01*
X104668426Y-25999669D01*
X104553777Y-26076275D01*
X104456275Y-26173777D01*
X104379669Y-26288426D01*
X104360690Y-26334243D01*
X103702266Y-25675818D01*
X103701567Y-25676637D01*
X103569980Y-25891368D01*
X103473603Y-26124043D01*
X103414812Y-26368927D01*
X103395052Y-26620000D01*
X67743218Y-26620000D01*
X67773739Y-26603334D01*
X67800097Y-26600500D01*
X75700531Y-26600500D01*
X75700547Y-26600501D01*
X75708143Y-26600501D01*
X75866254Y-26600501D01*
X75866257Y-26600501D01*
X76018985Y-26559577D01*
X76099582Y-26513044D01*
X76121308Y-26500501D01*
X76155909Y-26480524D01*
X76155908Y-26480524D01*
X76155916Y-26480520D01*
X76267720Y-26368716D01*
X76267720Y-26368714D01*
X76277924Y-26358511D01*
X76277927Y-26358506D01*
X78507916Y-24128519D01*
X78569239Y-24095034D01*
X78595597Y-24092200D01*
X78793802Y-24092200D01*
X78860841Y-24111885D01*
X78906596Y-24164689D01*
X78917022Y-24230083D01*
X78907635Y-24313396D01*
X78907635Y-24313403D01*
X78927830Y-24492649D01*
X78927831Y-24492654D01*
X78987411Y-24662923D01*
X79073542Y-24799999D01*
X79083384Y-24815662D01*
X79210938Y-24943216D01*
X79363678Y-25039189D01*
X79507556Y-25089534D01*
X79533945Y-25098768D01*
X79533950Y-25098769D01*
X79713196Y-25118965D01*
X79713200Y-25118965D01*
X79713204Y-25118965D01*
X79892449Y-25098769D01*
X79892452Y-25098768D01*
X79892455Y-25098768D01*
X80062722Y-25039189D01*
X80215462Y-24943216D01*
X80215467Y-24943210D01*
X80218297Y-24940955D01*
X80220475Y-24940065D01*
X80221358Y-24939511D01*
X80221455Y-24939665D01*
X80282983Y-24914545D01*
X80295612Y-24913900D01*
X103409807Y-24913900D01*
X103409989Y-24913911D01*
X103418019Y-24913910D01*
X103418023Y-24913911D01*
X103500845Y-24913900D01*
X103576057Y-24913900D01*
X103576058Y-24913899D01*
X103576127Y-24913890D01*
X103576137Y-24913890D01*
X103654301Y-24892934D01*
X103654317Y-24892934D01*
X103654316Y-24892930D01*
X103728518Y-24873048D01*
X103728822Y-24872969D01*
X103729000Y-24872864D01*
X103795282Y-24834583D01*
X103795296Y-24834580D01*
X103795295Y-24834577D01*
X103832835Y-24812902D01*
X103865716Y-24793920D01*
X103865716Y-24793919D01*
X103865750Y-24793900D01*
X103865754Y-24793897D01*
X103865759Y-24793893D01*
X103865929Y-24793720D01*
X103891349Y-24768293D01*
X103918479Y-24741157D01*
X103918480Y-24741158D01*
X103918485Y-24741149D01*
X103977520Y-24682116D01*
X103977522Y-24682111D01*
X103983603Y-24676031D01*
X103983711Y-24675906D01*
X104317142Y-24342386D01*
X104378458Y-24308895D01*
X104448150Y-24313870D01*
X104452232Y-24315476D01*
X104503889Y-24336873D01*
X104503894Y-24336874D01*
X104503896Y-24336875D01*
X104720157Y-24388794D01*
X104748852Y-24395683D01*
X105000000Y-24415449D01*
X105251148Y-24395683D01*
X105496111Y-24336873D01*
X105728859Y-24240466D01*
X105943659Y-24108836D01*
X106135224Y-23945224D01*
X106298836Y-23753659D01*
X106430466Y-23538859D01*
X106526873Y-23306111D01*
X106585683Y-23061148D01*
X106605449Y-22810000D01*
X106585683Y-22558852D01*
X106526873Y-22313889D01*
X106506450Y-22264584D01*
X106430466Y-22081140D01*
X106298839Y-21866346D01*
X106298838Y-21866343D01*
X106245958Y-21804429D01*
X106135224Y-21674776D01*
X105947679Y-21514597D01*
X105943656Y-21511161D01*
X105943653Y-21511160D01*
X105728859Y-21379533D01*
X105496110Y-21283126D01*
X105251151Y-21224317D01*
X105000000Y-21204551D01*
X104748848Y-21224317D01*
X104503889Y-21283126D01*
X104271140Y-21379533D01*
X104056346Y-21511160D01*
X104056343Y-21511161D01*
X103864776Y-21674776D01*
X103701161Y-21866343D01*
X103701160Y-21866346D01*
X103569533Y-22081140D01*
X103473126Y-22313889D01*
X103414317Y-22558848D01*
X103394551Y-22810000D01*
X103414317Y-23061151D01*
X103473126Y-23306110D01*
X103494674Y-23358130D01*
X103502143Y-23427599D01*
X103470868Y-23490079D01*
X103467806Y-23493252D01*
X103284539Y-23676569D01*
X103223221Y-23710063D01*
X103196846Y-23712900D01*
X86546484Y-23712900D01*
X86479445Y-23693215D01*
X86433690Y-23640411D01*
X86423746Y-23571253D01*
X86447218Y-23514589D01*
X86508793Y-23432335D01*
X86508792Y-23432335D01*
X86508796Y-23432331D01*
X86559091Y-23297483D01*
X86565500Y-23237873D01*
X86565499Y-21762128D01*
X86559091Y-21702517D01*
X86558152Y-21700000D01*
X86508797Y-21567671D01*
X86508793Y-21567664D01*
X86422547Y-21452455D01*
X86422544Y-21452452D01*
X86307335Y-21366206D01*
X86307328Y-21366202D01*
X86172482Y-21315908D01*
X86172483Y-21315908D01*
X86112883Y-21309501D01*
X86112881Y-21309500D01*
X86112873Y-21309500D01*
X86112865Y-21309500D01*
X85791200Y-21309500D01*
X85724161Y-21289815D01*
X85678406Y-21237011D01*
X85667200Y-21185500D01*
X85667200Y-20932197D01*
X85686885Y-20865158D01*
X85703519Y-20844516D01*
X86253319Y-20294716D01*
X86847220Y-19700816D01*
X86926277Y-19563884D01*
X86967201Y-19411157D01*
X86967201Y-19253042D01*
X86967201Y-19245447D01*
X86967200Y-19245429D01*
X86967200Y-16667648D01*
X89499500Y-16667648D01*
X89499500Y-17872351D01*
X89531522Y-18074534D01*
X89594781Y-18269223D01*
X89658691Y-18394653D01*
X89674899Y-18426462D01*
X89687715Y-18451613D01*
X89808028Y-18617213D01*
X89952786Y-18761971D01*
X90090625Y-18862115D01*
X90118390Y-18882287D01*
X90234607Y-18941503D01*
X90300776Y-18975218D01*
X90300778Y-18975218D01*
X90300781Y-18975220D01*
X90403699Y-19008660D01*
X90495465Y-19038477D01*
X90596557Y-19054488D01*
X90697648Y-19070500D01*
X90697649Y-19070500D01*
X90902351Y-19070500D01*
X90902352Y-19070500D01*
X91104534Y-19038477D01*
X91299219Y-18975220D01*
X91481610Y-18882287D01*
X91601308Y-18795322D01*
X91647213Y-18761971D01*
X91647215Y-18761968D01*
X91647219Y-18761966D01*
X91791966Y-18617219D01*
X91791968Y-18617215D01*
X91791971Y-18617213D01*
X91874304Y-18503889D01*
X91912287Y-18451610D01*
X92005220Y-18269219D01*
X92009457Y-18256180D01*
X92048895Y-18198505D01*
X92113254Y-18171308D01*
X92127387Y-18170500D01*
X92872613Y-18170500D01*
X92939652Y-18190185D01*
X92985407Y-18242989D01*
X92990543Y-18256180D01*
X92994779Y-18269219D01*
X93057939Y-18393176D01*
X93074899Y-18426462D01*
X93087715Y-18451613D01*
X93208028Y-18617213D01*
X93352786Y-18761971D01*
X93490625Y-18862115D01*
X93518390Y-18882287D01*
X93634607Y-18941503D01*
X93700776Y-18975218D01*
X93700778Y-18975218D01*
X93700781Y-18975220D01*
X93803699Y-19008660D01*
X93895465Y-19038477D01*
X93996557Y-19054488D01*
X94097648Y-19070500D01*
X94097649Y-19070500D01*
X94302351Y-19070500D01*
X94302352Y-19070500D01*
X94504534Y-19038477D01*
X94622954Y-19000000D01*
X103394551Y-19000000D01*
X103414317Y-19251151D01*
X103473126Y-19496110D01*
X103569533Y-19728859D01*
X103701160Y-19943653D01*
X103701161Y-19943656D01*
X103701164Y-19943659D01*
X103864776Y-20135224D01*
X104002744Y-20253060D01*
X104056343Y-20298838D01*
X104056346Y-20298839D01*
X104271140Y-20430466D01*
X104478921Y-20516531D01*
X104503889Y-20526873D01*
X104748852Y-20585683D01*
X105000000Y-20605449D01*
X105251148Y-20585683D01*
X105496111Y-20526873D01*
X105728859Y-20430466D01*
X105943659Y-20298836D01*
X106135224Y-20135224D01*
X106298836Y-19943659D01*
X106430466Y-19728859D01*
X106526873Y-19496111D01*
X106585683Y-19251148D01*
X106605449Y-19000000D01*
X106585683Y-18748852D01*
X106526873Y-18503889D01*
X106505220Y-18451613D01*
X106430466Y-18271140D01*
X106298839Y-18056346D01*
X106298838Y-18056343D01*
X106210318Y-17952700D01*
X106135224Y-17864776D01*
X105977465Y-17730037D01*
X105943656Y-17701161D01*
X105943653Y-17701160D01*
X105728859Y-17569533D01*
X105496110Y-17473126D01*
X105251151Y-17414317D01*
X105000000Y-17394551D01*
X104748848Y-17414317D01*
X104503889Y-17473126D01*
X104271140Y-17569533D01*
X104056346Y-17701160D01*
X104056343Y-17701161D01*
X103864776Y-17864776D01*
X103701161Y-18056343D01*
X103701160Y-18056346D01*
X103569533Y-18271140D01*
X103473126Y-18503889D01*
X103414317Y-18748848D01*
X103394551Y-19000000D01*
X94622954Y-19000000D01*
X94699219Y-18975220D01*
X94881610Y-18882287D01*
X95001308Y-18795322D01*
X95047213Y-18761971D01*
X95047215Y-18761968D01*
X95047219Y-18761966D01*
X95191966Y-18617219D01*
X95191968Y-18617215D01*
X95191971Y-18617213D01*
X95274304Y-18503889D01*
X95312287Y-18451610D01*
X95405220Y-18269219D01*
X95468477Y-18074534D01*
X95500500Y-17872352D01*
X95500500Y-16667648D01*
X95493027Y-16620466D01*
X95468477Y-16465465D01*
X95428196Y-16341495D01*
X95405220Y-16270781D01*
X95405218Y-16270778D01*
X95405218Y-16270776D01*
X95356426Y-16175018D01*
X95312287Y-16088390D01*
X95304556Y-16077749D01*
X95191971Y-15922786D01*
X95047213Y-15778028D01*
X94881613Y-15657715D01*
X94881612Y-15657714D01*
X94881610Y-15657713D01*
X94815445Y-15624000D01*
X94699223Y-15564781D01*
X94504534Y-15501522D01*
X94329995Y-15473878D01*
X94302352Y-15469500D01*
X94097648Y-15469500D01*
X94073329Y-15473351D01*
X93895465Y-15501522D01*
X93700776Y-15564781D01*
X93518386Y-15657715D01*
X93352786Y-15778028D01*
X93208028Y-15922786D01*
X93087715Y-16088386D01*
X92994779Y-16270780D01*
X92990543Y-16283820D01*
X92951105Y-16341495D01*
X92886746Y-16368692D01*
X92872613Y-16369500D01*
X92127387Y-16369500D01*
X92060348Y-16349815D01*
X92014593Y-16297011D01*
X92009457Y-16283820D01*
X92005220Y-16270780D01*
X91956426Y-16175018D01*
X91912287Y-16088390D01*
X91904556Y-16077749D01*
X91791971Y-15922786D01*
X91647213Y-15778028D01*
X91481613Y-15657715D01*
X91481612Y-15657714D01*
X91481610Y-15657713D01*
X91415445Y-15624000D01*
X91299223Y-15564781D01*
X91104534Y-15501522D01*
X90929995Y-15473878D01*
X90902352Y-15469500D01*
X90697648Y-15469500D01*
X90673329Y-15473351D01*
X90495465Y-15501522D01*
X90300776Y-15564781D01*
X90118386Y-15657715D01*
X89952786Y-15778028D01*
X89808028Y-15922786D01*
X89687715Y-16088386D01*
X89594781Y-16270776D01*
X89531522Y-16465465D01*
X89499500Y-16667648D01*
X86967200Y-16667648D01*
X86967200Y-15420945D01*
X86967200Y-15420943D01*
X86926277Y-15268216D01*
X86886850Y-15199925D01*
X86881120Y-15190000D01*
X103394551Y-15190000D01*
X103414317Y-15441151D01*
X103473126Y-15686110D01*
X103569533Y-15918859D01*
X103701160Y-16133653D01*
X103701161Y-16133656D01*
X103736473Y-16175001D01*
X103864776Y-16325224D01*
X103990182Y-16432331D01*
X104056343Y-16488838D01*
X104056346Y-16488839D01*
X104271140Y-16620466D01*
X104440979Y-16690815D01*
X104503889Y-16716873D01*
X104748852Y-16775683D01*
X105000000Y-16795449D01*
X105251148Y-16775683D01*
X105496111Y-16716873D01*
X105728859Y-16620466D01*
X105943659Y-16488836D01*
X106135224Y-16325224D01*
X106298836Y-16133659D01*
X106430466Y-15918859D01*
X106526873Y-15686111D01*
X106585683Y-15441148D01*
X106605449Y-15190000D01*
X106585683Y-14938852D01*
X106526873Y-14693889D01*
X106513094Y-14660623D01*
X106430466Y-14461140D01*
X106298839Y-14246346D01*
X106298838Y-14246343D01*
X106233756Y-14170142D01*
X106135224Y-14054776D01*
X105956653Y-13902262D01*
X105943656Y-13891161D01*
X105943653Y-13891160D01*
X105728859Y-13759533D01*
X105496110Y-13663126D01*
X105251151Y-13604317D01*
X105000000Y-13584551D01*
X104748848Y-13604317D01*
X104503889Y-13663126D01*
X104271140Y-13759533D01*
X104056346Y-13891160D01*
X104056343Y-13891161D01*
X103864776Y-14054776D01*
X103701161Y-14246343D01*
X103701160Y-14246346D01*
X103569533Y-14461140D01*
X103473126Y-14693889D01*
X103414317Y-14938848D01*
X103394551Y-15190000D01*
X86881120Y-15190000D01*
X86847224Y-15131290D01*
X86847218Y-15131282D01*
X86735417Y-15019481D01*
X86735412Y-15019477D01*
X86627499Y-14957174D01*
X86579284Y-14906607D01*
X86565499Y-14849787D01*
X86565499Y-14762129D01*
X86565498Y-14762123D01*
X86564555Y-14753354D01*
X86559091Y-14702517D01*
X86557360Y-14697877D01*
X86508797Y-14567671D01*
X86508793Y-14567664D01*
X86422547Y-14452455D01*
X86422544Y-14452452D01*
X86307335Y-14366206D01*
X86307328Y-14366202D01*
X86172482Y-14315908D01*
X86172483Y-14315908D01*
X86112883Y-14309501D01*
X86112881Y-14309500D01*
X86112873Y-14309500D01*
X86112865Y-14309500D01*
X85357801Y-14309500D01*
X85290762Y-14289815D01*
X85245007Y-14237011D01*
X85233801Y-14185500D01*
X85233801Y-14054245D01*
X85233801Y-14054243D01*
X85192877Y-13901515D01*
X85113820Y-13764584D01*
X84387589Y-13038354D01*
X84387588Y-13038352D01*
X84268717Y-12919481D01*
X84268709Y-12919475D01*
X84152059Y-12852128D01*
X84152056Y-12852127D01*
X84131785Y-12840423D01*
X83979057Y-12799499D01*
X83820943Y-12799499D01*
X83813347Y-12799499D01*
X83813331Y-12799500D01*
X83684412Y-12799500D01*
X83617373Y-12779815D01*
X83607097Y-12772445D01*
X83604263Y-12770185D01*
X83604262Y-12770184D01*
X83539503Y-12729493D01*
X83493213Y-12677159D01*
X83482565Y-12608106D01*
X83510940Y-12544257D01*
X83569330Y-12505885D01*
X83605476Y-12500500D01*
X109375500Y-12500500D01*
X109442539Y-12520185D01*
G37*
G04 #@! TD.AperFunction*
G04 #@! TA.AperFunction,Conductor*
G36*
X89330942Y-52284185D02*
G01*
X89351584Y-52300819D01*
X90523506Y-53472741D01*
X90556991Y-53534064D01*
X90552007Y-53603756D01*
X90510135Y-53659689D01*
X90444671Y-53684106D01*
X90403731Y-53680197D01*
X90270000Y-53644364D01*
X90270000Y-54541988D01*
X90212993Y-54509075D01*
X90085826Y-54475000D01*
X89954174Y-54475000D01*
X89827007Y-54509075D01*
X89770000Y-54541988D01*
X89770000Y-53644364D01*
X89769999Y-53644364D01*
X89556513Y-53701567D01*
X89556507Y-53701570D01*
X89342422Y-53801399D01*
X89342420Y-53801400D01*
X89148922Y-53936889D01*
X89128650Y-53957160D01*
X89067325Y-53990642D01*
X88997634Y-53985655D01*
X88953291Y-53957156D01*
X87472316Y-52476181D01*
X87438831Y-52414858D01*
X87443815Y-52345166D01*
X87485687Y-52289233D01*
X87551151Y-52264816D01*
X87559997Y-52264500D01*
X89263903Y-52264500D01*
X89330942Y-52284185D01*
G37*
G04 #@! TD.AperFunction*
G04 #@! TA.AperFunction,Conductor*
G36*
X80420912Y-43761436D02*
G01*
X80465259Y-43789937D01*
X80485938Y-43810616D01*
X80557052Y-43855300D01*
X80614369Y-43891315D01*
X80638678Y-43906589D01*
X80808945Y-43966168D01*
X80808950Y-43966169D01*
X80988196Y-43986365D01*
X80988200Y-43986365D01*
X80988204Y-43986365D01*
X81167449Y-43966169D01*
X81167452Y-43966168D01*
X81167455Y-43966168D01*
X81337722Y-43906589D01*
X81490462Y-43810616D01*
X81490467Y-43810610D01*
X81493297Y-43808355D01*
X81495475Y-43807465D01*
X81496358Y-43806911D01*
X81496455Y-43807065D01*
X81557983Y-43781945D01*
X81570612Y-43781300D01*
X82179279Y-43781300D01*
X82246318Y-43800985D01*
X82292073Y-43853789D01*
X82302017Y-43922947D01*
X82300896Y-43929491D01*
X82294500Y-43961645D01*
X82294500Y-44312721D01*
X82285061Y-44360173D01*
X82224106Y-44507332D01*
X82224103Y-44507341D01*
X82189500Y-44681304D01*
X82189500Y-46485395D01*
X82224103Y-46659358D01*
X82224106Y-46659367D01*
X82291983Y-46823240D01*
X82291990Y-46823253D01*
X82390535Y-46970734D01*
X82390538Y-46970738D01*
X82515961Y-47096161D01*
X82515965Y-47096164D01*
X82663446Y-47194709D01*
X82663459Y-47194716D01*
X82767676Y-47237883D01*
X82827334Y-47262594D01*
X82827336Y-47262594D01*
X82827341Y-47262596D01*
X83001304Y-47297199D01*
X83001307Y-47297200D01*
X83001309Y-47297200D01*
X83178691Y-47297200D01*
X83249038Y-47297200D01*
X83316077Y-47316885D01*
X83336719Y-47333519D01*
X84070089Y-48066889D01*
X84616520Y-48613319D01*
X84650005Y-48674642D01*
X84645021Y-48744334D01*
X84603149Y-48800267D01*
X84537685Y-48824684D01*
X84528839Y-48825000D01*
X84250000Y-48825000D01*
X84250000Y-49876000D01*
X84230315Y-49943039D01*
X84177511Y-49988794D01*
X84126000Y-50000000D01*
X84000000Y-50000000D01*
X84000000Y-50126000D01*
X83980315Y-50193039D01*
X83927511Y-50238794D01*
X83876000Y-50250000D01*
X82795000Y-50250000D01*
X82795000Y-50426600D01*
X82775315Y-50493639D01*
X82722511Y-50539394D01*
X82671000Y-50550600D01*
X82020397Y-50550600D01*
X81953358Y-50530915D01*
X81932716Y-50514281D01*
X80695590Y-49277155D01*
X82795000Y-49277155D01*
X82795000Y-49750000D01*
X83750000Y-49750000D01*
X83750000Y-48825000D01*
X83247155Y-48825000D01*
X83187627Y-48831401D01*
X83187620Y-48831403D01*
X83052913Y-48881645D01*
X83052906Y-48881649D01*
X82937812Y-48967809D01*
X82937809Y-48967812D01*
X82851649Y-49082906D01*
X82851645Y-49082913D01*
X82801403Y-49217620D01*
X82801401Y-49217627D01*
X82795000Y-49277155D01*
X80695590Y-49277155D01*
X80587490Y-49169055D01*
X80587488Y-49169052D01*
X80468617Y-49050181D01*
X80468612Y-49050177D01*
X80434585Y-49030532D01*
X80408904Y-49010826D01*
X80298962Y-48900884D01*
X80146223Y-48804911D01*
X79975954Y-48745331D01*
X79975949Y-48745330D01*
X79860616Y-48732336D01*
X79796202Y-48705270D01*
X79756646Y-48647675D01*
X79750499Y-48609121D01*
X79750499Y-47692128D01*
X79744091Y-47632517D01*
X79731340Y-47598332D01*
X79726357Y-47528642D01*
X79731340Y-47511669D01*
X79744091Y-47477483D01*
X79750500Y-47417873D01*
X79750499Y-46422128D01*
X79744091Y-46362517D01*
X79731340Y-46328332D01*
X79726357Y-46258642D01*
X79731340Y-46241669D01*
X79744091Y-46207483D01*
X79750500Y-46147873D01*
X79750499Y-45152128D01*
X79744091Y-45092517D01*
X79740790Y-45083666D01*
X79735805Y-45013974D01*
X79769289Y-44952651D01*
X79794964Y-44932948D01*
X79920416Y-44860520D01*
X80032220Y-44748716D01*
X80111277Y-44611784D01*
X80152200Y-44459057D01*
X80152200Y-43978996D01*
X80171885Y-43911957D01*
X80188515Y-43891319D01*
X80289897Y-43789936D01*
X80351220Y-43756452D01*
X80420912Y-43761436D01*
G37*
G04 #@! TD.AperFunction*
G04 #@! TA.AperFunction,Conductor*
G36*
X89657442Y-42620185D02*
G01*
X89678084Y-42636819D01*
X91512272Y-44471007D01*
X91545757Y-44532330D01*
X91540773Y-44602022D01*
X91522971Y-44634169D01*
X91519478Y-44638721D01*
X91440426Y-44775645D01*
X91440423Y-44775652D01*
X91399500Y-44928379D01*
X91399500Y-45295158D01*
X91379815Y-45362197D01*
X91327011Y-45407952D01*
X91257853Y-45417896D01*
X91206609Y-45398260D01*
X91185253Y-45383990D01*
X91185240Y-45383983D01*
X91021367Y-45316106D01*
X91021358Y-45316103D01*
X90847394Y-45281500D01*
X90847391Y-45281500D01*
X90670009Y-45281500D01*
X90670006Y-45281500D01*
X90496041Y-45316103D01*
X90496032Y-45316106D01*
X90332159Y-45383983D01*
X90332146Y-45383990D01*
X90184666Y-45482534D01*
X90135154Y-45532047D01*
X90082318Y-45584882D01*
X90020998Y-45618366D01*
X89994639Y-45621200D01*
X88112904Y-45621200D01*
X87938941Y-45655803D01*
X87938933Y-45655805D01*
X87866453Y-45685828D01*
X87796984Y-45693297D01*
X87734504Y-45662022D01*
X87698852Y-45601933D01*
X87695000Y-45571267D01*
X87695000Y-45020000D01*
X87024000Y-45020000D01*
X86956961Y-45000315D01*
X86911206Y-44947511D01*
X86900000Y-44896000D01*
X86900000Y-44770000D01*
X86774000Y-44770000D01*
X86706961Y-44750315D01*
X86661206Y-44697511D01*
X86650000Y-44646000D01*
X86650000Y-44520000D01*
X87150000Y-44520000D01*
X87695000Y-44520000D01*
X87695000Y-43961698D01*
X87694999Y-43961694D01*
X87664450Y-43808114D01*
X87664448Y-43808106D01*
X87604521Y-43663428D01*
X87604516Y-43663419D01*
X87517517Y-43533217D01*
X87517514Y-43533213D01*
X87406786Y-43422485D01*
X87406782Y-43422482D01*
X87276580Y-43335483D01*
X87276570Y-43335478D01*
X87150000Y-43283051D01*
X87150000Y-44520000D01*
X86650000Y-44520000D01*
X86650000Y-43283051D01*
X86649999Y-43283051D01*
X86523429Y-43335478D01*
X86523419Y-43335483D01*
X86393217Y-43422482D01*
X86393212Y-43422486D01*
X86353033Y-43462665D01*
X86291710Y-43496150D01*
X86222018Y-43491164D01*
X86177672Y-43462664D01*
X86137105Y-43422097D01*
X86137101Y-43422094D01*
X86006817Y-43335040D01*
X86006804Y-43335033D01*
X85862043Y-43275072D01*
X85862033Y-43275069D01*
X85708352Y-43244500D01*
X85708350Y-43244500D01*
X85551650Y-43244500D01*
X85551648Y-43244500D01*
X85397966Y-43275069D01*
X85397956Y-43275072D01*
X85253195Y-43335033D01*
X85253184Y-43335039D01*
X85150667Y-43403539D01*
X85083990Y-43424416D01*
X85016610Y-43405931D01*
X84969920Y-43353952D01*
X84962002Y-43332527D01*
X84955464Y-43308127D01*
X84929577Y-43211515D01*
X84883255Y-43131284D01*
X84873057Y-43113621D01*
X84850521Y-43074586D01*
X84850520Y-43074584D01*
X84738716Y-42962780D01*
X84738715Y-42962779D01*
X84734385Y-42958449D01*
X84734374Y-42958439D01*
X84595090Y-42819155D01*
X84595088Y-42819152D01*
X84588117Y-42812181D01*
X84585612Y-42807594D01*
X84579597Y-42800257D01*
X84579595Y-42800254D01*
X84581068Y-42799271D01*
X84554632Y-42750858D01*
X84559616Y-42681166D01*
X84601488Y-42625233D01*
X84666952Y-42600816D01*
X84675798Y-42600500D01*
X89590403Y-42600500D01*
X89657442Y-42620185D01*
G37*
G04 #@! TD.AperFunction*
G04 #@! TA.AperFunction,Conductor*
G36*
X40553270Y-12520185D02*
G01*
X40599025Y-12572989D01*
X40608969Y-12642147D01*
X40602413Y-12667833D01*
X40555908Y-12792517D01*
X40549501Y-12852116D01*
X40549500Y-12852127D01*
X40549500Y-14147870D01*
X40549501Y-14147876D01*
X40555908Y-14207483D01*
X40606202Y-14342328D01*
X40606206Y-14342335D01*
X40692452Y-14457544D01*
X40692455Y-14457547D01*
X40807664Y-14543793D01*
X40807671Y-14543797D01*
X40942517Y-14594091D01*
X40942516Y-14594091D01*
X40959256Y-14595891D01*
X41023807Y-14622629D01*
X41063655Y-14680022D01*
X41070000Y-14719180D01*
X41070000Y-14950000D01*
X42870000Y-14950000D01*
X42872092Y-14947907D01*
X42889685Y-14887994D01*
X42942489Y-14842239D01*
X42968225Y-14833742D01*
X42970676Y-14833221D01*
X42972067Y-14832935D01*
X43048082Y-14817816D01*
X43048087Y-14817813D01*
X43053913Y-14816046D01*
X43054057Y-14816521D01*
X43063088Y-14813711D01*
X43064251Y-14813332D01*
X43064267Y-14813329D01*
X43134329Y-14782134D01*
X43137212Y-14780895D01*
X43202863Y-14753703D01*
X43203390Y-14753350D01*
X43221865Y-14743162D01*
X43222684Y-14742796D01*
X43227593Y-14740612D01*
X43284505Y-14699261D01*
X43288388Y-14696555D01*
X43342162Y-14660626D01*
X43347164Y-14655622D01*
X43361960Y-14642987D01*
X43372230Y-14635526D01*
X43414994Y-14588030D01*
X43419428Y-14583358D01*
X43460626Y-14542162D01*
X43468120Y-14530945D01*
X43479071Y-14516866D01*
X43491859Y-14502665D01*
X43520610Y-14452863D01*
X43524873Y-14446007D01*
X43546900Y-14413042D01*
X43600509Y-14368241D01*
X43669834Y-14359534D01*
X43732862Y-14389689D01*
X43753100Y-14413045D01*
X43775109Y-14445983D01*
X43779389Y-14452865D01*
X43787811Y-14467452D01*
X43808142Y-14502667D01*
X43808143Y-14502668D01*
X43820928Y-14516867D01*
X43831878Y-14530945D01*
X43839372Y-14542160D01*
X43880554Y-14583342D01*
X43885024Y-14588052D01*
X43927770Y-14635526D01*
X43927772Y-14635528D01*
X43938039Y-14642987D01*
X43952837Y-14655626D01*
X43957834Y-14660623D01*
X43957842Y-14660629D01*
X44011556Y-14696520D01*
X44015551Y-14699304D01*
X44072405Y-14740611D01*
X44072406Y-14740611D01*
X44072407Y-14740612D01*
X44078136Y-14743162D01*
X44096606Y-14753348D01*
X44097137Y-14753703D01*
X44162729Y-14780872D01*
X44165696Y-14782147D01*
X44235724Y-14813326D01*
X44236962Y-14813728D01*
X44245940Y-14816520D01*
X44246085Y-14816046D01*
X44251912Y-14817814D01*
X44251914Y-14817814D01*
X44251918Y-14817816D01*
X44327930Y-14832935D01*
X44329334Y-14833224D01*
X44331253Y-14833631D01*
X44392740Y-14866807D01*
X44426532Y-14927961D01*
X44429500Y-14954927D01*
X44429500Y-15897870D01*
X44429501Y-15897876D01*
X44435908Y-15957483D01*
X44486202Y-16092328D01*
X44486206Y-16092335D01*
X44572452Y-16207544D01*
X44572455Y-16207547D01*
X44687664Y-16293793D01*
X44687671Y-16293797D01*
X44822517Y-16344091D01*
X44822516Y-16344091D01*
X44829444Y-16344835D01*
X44882127Y-16350500D01*
X45777872Y-16350499D01*
X45837483Y-16344091D01*
X45972331Y-16293796D01*
X45994857Y-16276932D01*
X46060321Y-16252516D01*
X46069168Y-16252200D01*
X48196206Y-16252200D01*
X48263245Y-16271885D01*
X48309000Y-16324689D01*
X48313247Y-16335245D01*
X48371709Y-16502319D01*
X48371711Y-16502322D01*
X48467684Y-16655062D01*
X48595238Y-16782616D01*
X48650192Y-16817146D01*
X48743058Y-16875498D01*
X48747978Y-16878589D01*
X48918245Y-16938168D01*
X48918250Y-16938169D01*
X49097496Y-16958365D01*
X49097500Y-16958365D01*
X49097504Y-16958365D01*
X49276749Y-16938169D01*
X49276752Y-16938168D01*
X49276755Y-16938168D01*
X49447022Y-16878589D01*
X49599762Y-16782616D01*
X49727316Y-16655062D01*
X49823289Y-16502322D01*
X49882868Y-16332055D01*
X49883698Y-16324689D01*
X49903065Y-16152803D01*
X49903065Y-16152796D01*
X49882869Y-15973550D01*
X49882868Y-15973545D01*
X49865105Y-15922781D01*
X49823289Y-15803278D01*
X49821276Y-15800075D01*
X49754021Y-15693039D01*
X49727316Y-15650538D01*
X49599762Y-15522984D01*
X49447021Y-15427010D01*
X49276749Y-15367430D01*
X49189830Y-15357637D01*
X49125416Y-15330570D01*
X49116033Y-15322098D01*
X49083990Y-15290055D01*
X49083988Y-15290052D01*
X48965117Y-15171181D01*
X48965116Y-15171180D01*
X48878304Y-15121060D01*
X48878304Y-15121059D01*
X48878300Y-15121058D01*
X48828185Y-15092123D01*
X48675457Y-15051199D01*
X48517343Y-15051199D01*
X48509747Y-15051199D01*
X48509731Y-15051200D01*
X46354499Y-15051200D01*
X46287460Y-15031515D01*
X46241705Y-14978711D01*
X46230499Y-14927200D01*
X46230499Y-14719126D01*
X46250184Y-14652087D01*
X46302988Y-14606332D01*
X46341248Y-14595836D01*
X46357483Y-14594091D01*
X46492331Y-14543796D01*
X46607546Y-14457546D01*
X46693796Y-14342331D01*
X46744091Y-14207483D01*
X46750500Y-14147873D01*
X46750499Y-12852128D01*
X46744091Y-12792517D01*
X46739353Y-12779815D01*
X46697587Y-12667833D01*
X46692603Y-12598141D01*
X46726088Y-12536818D01*
X46787411Y-12503334D01*
X46813769Y-12500500D01*
X82598524Y-12500500D01*
X82665563Y-12520185D01*
X82711318Y-12572989D01*
X82721262Y-12642147D01*
X82692237Y-12705703D01*
X82664496Y-12729494D01*
X82599737Y-12770184D01*
X82472184Y-12897737D01*
X82376211Y-13050476D01*
X82316631Y-13220745D01*
X82316630Y-13220750D01*
X82296435Y-13399996D01*
X82296435Y-13400003D01*
X82316630Y-13579249D01*
X82316631Y-13579254D01*
X82376211Y-13749523D01*
X82465208Y-13891160D01*
X82472184Y-13902262D01*
X82599738Y-14029816D01*
X82664873Y-14070743D01*
X82758374Y-14129494D01*
X82756840Y-14131934D01*
X82799019Y-14171168D01*
X82816329Y-14238860D01*
X82794294Y-14305164D01*
X82739910Y-14349030D01*
X82735741Y-14350671D01*
X82692915Y-14366644D01*
X82692906Y-14366649D01*
X82577812Y-14452809D01*
X82577809Y-14452812D01*
X82491649Y-14567906D01*
X82491645Y-14567913D01*
X82441403Y-14702620D01*
X82441401Y-14702627D01*
X82435000Y-14762155D01*
X82435000Y-15250000D01*
X83250000Y-15250000D01*
X83250000Y-14284287D01*
X83269685Y-14217248D01*
X83322489Y-14171493D01*
X83333035Y-14167249D01*
X83451522Y-14125789D01*
X83567402Y-14052976D01*
X83634637Y-14033976D01*
X83701472Y-14054343D01*
X83721054Y-14070289D01*
X83767701Y-14116936D01*
X83801186Y-14178259D01*
X83796202Y-14247951D01*
X83767702Y-14292297D01*
X83750000Y-14309999D01*
X83750000Y-15376000D01*
X83730315Y-15443039D01*
X83677511Y-15488794D01*
X83626000Y-15500000D01*
X83500000Y-15500000D01*
X83500000Y-15626000D01*
X83480315Y-15693039D01*
X83427511Y-15738794D01*
X83376000Y-15750000D01*
X82435000Y-15750000D01*
X82435000Y-16237844D01*
X82441401Y-16297372D01*
X82441403Y-16297379D01*
X82491645Y-16432086D01*
X82491649Y-16432092D01*
X82507592Y-16453390D01*
X82532009Y-16518854D01*
X82517157Y-16587127D01*
X82467752Y-16636532D01*
X82408325Y-16651700D01*
X81721070Y-16651700D01*
X81654031Y-16632015D01*
X81608276Y-16579211D01*
X81598332Y-16510053D01*
X81621803Y-16453389D01*
X81628580Y-16444336D01*
X81648796Y-16417331D01*
X81699091Y-16282483D01*
X81705500Y-16222873D01*
X81705499Y-14777128D01*
X81699091Y-14717517D01*
X81693537Y-14702627D01*
X81648797Y-14582671D01*
X81648793Y-14582664D01*
X81562547Y-14467455D01*
X81562544Y-14467452D01*
X81447335Y-14381206D01*
X81447328Y-14381202D01*
X81312482Y-14330908D01*
X81312483Y-14330908D01*
X81252883Y-14324501D01*
X81252881Y-14324500D01*
X81252873Y-14324500D01*
X81252864Y-14324500D01*
X79747129Y-14324500D01*
X79747123Y-14324501D01*
X79687516Y-14330908D01*
X79544359Y-14384303D01*
X79543148Y-14381057D01*
X79491132Y-14392363D01*
X79456434Y-14382175D01*
X79455641Y-14384303D01*
X79312482Y-14330908D01*
X79312483Y-14330908D01*
X79252883Y-14324501D01*
X79252881Y-14324500D01*
X79252873Y-14324500D01*
X79252864Y-14324500D01*
X77747129Y-14324500D01*
X77747123Y-14324501D01*
X77687516Y-14330908D01*
X77552671Y-14381202D01*
X77552664Y-14381206D01*
X77437455Y-14467452D01*
X77437452Y-14467455D01*
X77351206Y-14582664D01*
X77351202Y-14582671D01*
X77300908Y-14717517D01*
X77294501Y-14777116D01*
X77294500Y-14777127D01*
X77294500Y-15204678D01*
X77294501Y-15575500D01*
X77274817Y-15642539D01*
X77222013Y-15688294D01*
X77170501Y-15699500D01*
X76700098Y-15699500D01*
X76633059Y-15679815D01*
X76612417Y-15663181D01*
X75180700Y-14231465D01*
X75147215Y-14170142D01*
X75145163Y-14157686D01*
X75135368Y-14070745D01*
X75075789Y-13900478D01*
X74979816Y-13747738D01*
X74852262Y-13620184D01*
X74699523Y-13524211D01*
X74529254Y-13464631D01*
X74529249Y-13464630D01*
X74350004Y-13444435D01*
X74349996Y-13444435D01*
X74170750Y-13464630D01*
X74170745Y-13464631D01*
X74000476Y-13524211D01*
X73847737Y-13620184D01*
X73720184Y-13747737D01*
X73624211Y-13900476D01*
X73564631Y-14070745D01*
X73564630Y-14070750D01*
X73544435Y-14249996D01*
X73544435Y-14250003D01*
X73564630Y-14429249D01*
X73564631Y-14429254D01*
X73624211Y-14599523D01*
X73698352Y-14717517D01*
X73720184Y-14752262D01*
X73847738Y-14879816D01*
X74000478Y-14975789D01*
X74170745Y-15035368D01*
X74257669Y-15045161D01*
X74322080Y-15072226D01*
X74331464Y-15080699D01*
X76031284Y-16780520D01*
X76168215Y-16859577D01*
X76320943Y-16900501D01*
X76320946Y-16900501D01*
X76486654Y-16900501D01*
X76486670Y-16900500D01*
X77613331Y-16900500D01*
X77613347Y-16900501D01*
X77620943Y-16900501D01*
X77779054Y-16900501D01*
X77779057Y-16900501D01*
X77931785Y-16859577D01*
X77992538Y-16824501D01*
X78068716Y-16780520D01*
X78137417Y-16711817D01*
X78198740Y-16678333D01*
X78225099Y-16675499D01*
X79131892Y-16675499D01*
X79198931Y-16695184D01*
X79244686Y-16747988D01*
X79254630Y-16817146D01*
X79225605Y-16880702D01*
X79219573Y-16887180D01*
X78793573Y-17313181D01*
X78732250Y-17346666D01*
X78705892Y-17349500D01*
X75324499Y-17349500D01*
X75257460Y-17329815D01*
X75211705Y-17277011D01*
X75200499Y-17225500D01*
X75200499Y-17099998D01*
X75200498Y-17099981D01*
X75189999Y-16997203D01*
X75189998Y-16997200D01*
X75134814Y-16830666D01*
X75042712Y-16681344D01*
X74918656Y-16557288D01*
X74824016Y-16498914D01*
X74769336Y-16465187D01*
X74769331Y-16465185D01*
X74733733Y-16453389D01*
X74602797Y-16410001D01*
X74602795Y-16410000D01*
X74500010Y-16399500D01*
X73649998Y-16399500D01*
X73649980Y-16399501D01*
X73547203Y-16410000D01*
X73547196Y-16410002D01*
X73512954Y-16421349D01*
X73443126Y-16423750D01*
X73386270Y-16391324D01*
X70733774Y-13738827D01*
X70733773Y-13738826D01*
X70733769Y-13738823D01*
X70627227Y-13667635D01*
X70616341Y-13663126D01*
X70508844Y-13618599D01*
X70508838Y-13618597D01*
X70383171Y-13593600D01*
X70383169Y-13593600D01*
X62191831Y-13593600D01*
X62191829Y-13593600D01*
X62066161Y-13618597D01*
X62066155Y-13618599D01*
X61991557Y-13649499D01*
X61947774Y-13667634D01*
X61841229Y-13738824D01*
X61841228Y-13738825D01*
X61491822Y-14088230D01*
X61430499Y-14121715D01*
X61403165Y-14123962D01*
X61403165Y-14124500D01*
X60599998Y-14124500D01*
X60599980Y-14124501D01*
X60497203Y-14135000D01*
X60497200Y-14135001D01*
X60330668Y-14190185D01*
X60330663Y-14190187D01*
X60181342Y-14282289D01*
X60057289Y-14406342D01*
X59965187Y-14555663D01*
X59965185Y-14555668D01*
X59950653Y-14599523D01*
X59910001Y-14722203D01*
X59910001Y-14722204D01*
X59910000Y-14722204D01*
X59899500Y-14824983D01*
X59899500Y-16175001D01*
X59899501Y-16175018D01*
X59910000Y-16277796D01*
X59910001Y-16277799D01*
X59965185Y-16444331D01*
X59965187Y-16444336D01*
X59978220Y-16465466D01*
X60057288Y-16593656D01*
X60181344Y-16717712D01*
X60330666Y-16809814D01*
X60497203Y-16864999D01*
X60599991Y-16875500D01*
X61400008Y-16875499D01*
X61400016Y-16875498D01*
X61400019Y-16875498D01*
X61456302Y-16869748D01*
X61502797Y-16864999D01*
X61669334Y-16809814D01*
X61818656Y-16717712D01*
X61942712Y-16593656D01*
X61982581Y-16529016D01*
X62034525Y-16482294D01*
X62103488Y-16471071D01*
X62167570Y-16498914D01*
X62175799Y-16506434D01*
X62283397Y-16614032D01*
X62423475Y-16715804D01*
X62577744Y-16794408D01*
X62742415Y-16847914D01*
X62742414Y-16847914D01*
X62749999Y-16849115D01*
X62750000Y-16849114D01*
X62750000Y-15780330D01*
X62769745Y-15800075D01*
X62855255Y-15849444D01*
X62950630Y-15875000D01*
X63049370Y-15875000D01*
X63144745Y-15849444D01*
X63230255Y-15800075D01*
X63250000Y-15780330D01*
X63250000Y-16849115D01*
X63257584Y-16847914D01*
X63422255Y-16794408D01*
X63576524Y-16715804D01*
X63716602Y-16614032D01*
X63839032Y-16491602D01*
X63940804Y-16351524D01*
X64019408Y-16197257D01*
X64072914Y-16032584D01*
X64100000Y-15861571D01*
X64100000Y-15750000D01*
X63280330Y-15750000D01*
X63300075Y-15730255D01*
X63349444Y-15644745D01*
X63375000Y-15549370D01*
X63375000Y-15450630D01*
X63349444Y-15355255D01*
X63300075Y-15269745D01*
X63280330Y-15250000D01*
X64100000Y-15250000D01*
X64100000Y-15138429D01*
X64084093Y-15037998D01*
X64093047Y-14968705D01*
X64138044Y-14915253D01*
X64204795Y-14894613D01*
X64206566Y-14894600D01*
X69998292Y-14894600D01*
X70065331Y-14914285D01*
X70085973Y-14930919D01*
X71381125Y-16226071D01*
X71414610Y-16287394D01*
X71409626Y-16357086D01*
X71367754Y-16413019D01*
X71332449Y-16431458D01*
X71230666Y-16465186D01*
X71230663Y-16465187D01*
X71081342Y-16557289D01*
X70957289Y-16681342D01*
X70865187Y-16830663D01*
X70865185Y-16830668D01*
X70855606Y-16859575D01*
X70810001Y-16997203D01*
X70810001Y-16997204D01*
X70810000Y-16997204D01*
X70799500Y-17099983D01*
X70799500Y-17275500D01*
X70779815Y-17342539D01*
X70727011Y-17388294D01*
X70675500Y-17399500D01*
X65051270Y-17399500D01*
X65051254Y-17399499D01*
X65043658Y-17399499D01*
X64885543Y-17399499D01*
X64791285Y-17424755D01*
X64745312Y-17428200D01*
X64732300Y-17426735D01*
X64732299Y-17426735D01*
X64732298Y-17426735D01*
X64732296Y-17426735D01*
X64553050Y-17446930D01*
X64553045Y-17446931D01*
X64382776Y-17506511D01*
X64230037Y-17602484D01*
X64102484Y-17730037D01*
X64006511Y-17882776D01*
X63946931Y-18053045D01*
X63946930Y-18053050D01*
X63926735Y-18232296D01*
X63926735Y-18232303D01*
X63946930Y-18411549D01*
X63946931Y-18411554D01*
X64006511Y-18581823D01*
X64056705Y-18661706D01*
X64102484Y-18734562D01*
X64230038Y-18862116D01*
X64290359Y-18900018D01*
X64357320Y-18942093D01*
X64382778Y-18958089D01*
X64553045Y-19017668D01*
X64553050Y-19017669D01*
X64732296Y-19037865D01*
X64732300Y-19037865D01*
X64732304Y-19037865D01*
X64911549Y-19017669D01*
X64911552Y-19017668D01*
X64911555Y-19017668D01*
X65081822Y-18958089D01*
X65234562Y-18862116D01*
X65362116Y-18734562D01*
X65409892Y-18658527D01*
X65462226Y-18612237D01*
X65514885Y-18600500D01*
X70675501Y-18600500D01*
X70742540Y-18620185D01*
X70788295Y-18672989D01*
X70799501Y-18724500D01*
X70799501Y-18900018D01*
X70810000Y-19002796D01*
X70810001Y-19002799D01*
X70865185Y-19169331D01*
X70865187Y-19169336D01*
X70868989Y-19175500D01*
X70957288Y-19318656D01*
X71081344Y-19442712D01*
X71230666Y-19534814D01*
X71397203Y-19589999D01*
X71499991Y-19600500D01*
X72350008Y-19600499D01*
X72350016Y-19600498D01*
X72350019Y-19600498D01*
X72406302Y-19594748D01*
X72452797Y-19589999D01*
X72619334Y-19534814D01*
X72768656Y-19442712D01*
X72892712Y-19318656D01*
X72894461Y-19315819D01*
X72896169Y-19314283D01*
X72897193Y-19312989D01*
X72897414Y-19313163D01*
X72946406Y-19269096D01*
X73015368Y-19257872D01*
X73079451Y-19285713D01*
X73105537Y-19315817D01*
X73107288Y-19318656D01*
X73231344Y-19442712D01*
X73380666Y-19534814D01*
X73547203Y-19589999D01*
X73649991Y-19600500D01*
X74500008Y-19600499D01*
X74500016Y-19600498D01*
X74500019Y-19600498D01*
X74556302Y-19594748D01*
X74602797Y-19589999D01*
X74769334Y-19534814D01*
X74918656Y-19442712D01*
X75042712Y-19318656D01*
X75134814Y-19169334D01*
X75189999Y-19002797D01*
X75200500Y-18900009D01*
X75200500Y-18774500D01*
X75220185Y-18707461D01*
X75272989Y-18661706D01*
X75324500Y-18650500D01*
X79090771Y-18650500D01*
X79175315Y-18633682D01*
X79216444Y-18625501D01*
X79334827Y-18576465D01*
X79337536Y-18574654D01*
X79338472Y-18574030D01*
X79373691Y-18550497D01*
X79441369Y-18505277D01*
X80018319Y-17928327D01*
X80079642Y-17894842D01*
X80149333Y-17899826D01*
X80193681Y-17928327D01*
X82375761Y-20110407D01*
X82399794Y-20144273D01*
X82401308Y-20147416D01*
X82401310Y-20147419D01*
X82401311Y-20147422D01*
X82497284Y-20300162D01*
X82624838Y-20427716D01*
X82777578Y-20523689D01*
X82931224Y-20577452D01*
X82947845Y-20583268D01*
X82947850Y-20583269D01*
X83127096Y-20603465D01*
X83127100Y-20603465D01*
X83127104Y-20603465D01*
X83306349Y-20583269D01*
X83306352Y-20583268D01*
X83306355Y-20583268D01*
X83476622Y-20523689D01*
X83629362Y-20427716D01*
X83756916Y-20300162D01*
X83757422Y-20299355D01*
X83757885Y-20298945D01*
X83761259Y-20294716D01*
X83761999Y-20295306D01*
X83809752Y-20253060D01*
X83878805Y-20242406D01*
X83942656Y-20270776D01*
X83950102Y-20277638D01*
X84005049Y-20332585D01*
X84005055Y-20332590D01*
X84429881Y-20757416D01*
X84463366Y-20818739D01*
X84466200Y-20845097D01*
X84466200Y-21247397D01*
X84446515Y-21314436D01*
X84393711Y-21360191D01*
X84324553Y-21370135D01*
X84298868Y-21363579D01*
X84172382Y-21316403D01*
X84172372Y-21316401D01*
X84112844Y-21310000D01*
X83750000Y-21310000D01*
X83750000Y-22376000D01*
X83730315Y-22443039D01*
X83677511Y-22488794D01*
X83626000Y-22500000D01*
X83500000Y-22500000D01*
X83500000Y-22626000D01*
X83480315Y-22693039D01*
X83427511Y-22738794D01*
X83376000Y-22750000D01*
X82435000Y-22750000D01*
X82435000Y-22767200D01*
X82415315Y-22834239D01*
X82362511Y-22879994D01*
X82311000Y-22891200D01*
X78382169Y-22891200D01*
X78382153Y-22891199D01*
X78374557Y-22891199D01*
X78216443Y-22891199D01*
X78136510Y-22912617D01*
X78063716Y-22932122D01*
X78026627Y-22953536D01*
X78026626Y-22953535D01*
X77926787Y-23011177D01*
X77926782Y-23011181D01*
X77814978Y-23122986D01*
X76749389Y-24188574D01*
X76688066Y-24222059D01*
X76618374Y-24217075D01*
X76562441Y-24175203D01*
X76544667Y-24141848D01*
X76492190Y-23991880D01*
X76492189Y-23991878D01*
X76396216Y-23839138D01*
X76268662Y-23711584D01*
X76235107Y-23690500D01*
X76115921Y-23615610D01*
X75945655Y-23556032D01*
X75945646Y-23556030D01*
X75938412Y-23555215D01*
X75874000Y-23528144D01*
X75864623Y-23519677D01*
X75826642Y-23481696D01*
X75793157Y-23420373D01*
X75792731Y-23418333D01*
X75777201Y-23340256D01*
X75734797Y-23237883D01*
X75728166Y-23221875D01*
X75728161Y-23221866D01*
X75656976Y-23115331D01*
X75656973Y-23115327D01*
X75566372Y-23024726D01*
X75566368Y-23024723D01*
X75459829Y-22953536D01*
X75459827Y-22953535D01*
X75377045Y-22919245D01*
X75322642Y-22875403D01*
X75300578Y-22809109D01*
X75300499Y-22804684D01*
X75300499Y-22312129D01*
X75300498Y-22312123D01*
X75294091Y-22252516D01*
X75243797Y-22117671D01*
X75243793Y-22117664D01*
X75157547Y-22002455D01*
X75157544Y-22002452D01*
X75042335Y-21916206D01*
X75042328Y-21916202D01*
X74907482Y-21865908D01*
X74907483Y-21865908D01*
X74847883Y-21859501D01*
X74847881Y-21859500D01*
X74847873Y-21859500D01*
X74847864Y-21859500D01*
X71152129Y-21859500D01*
X71152123Y-21859501D01*
X71092516Y-21865908D01*
X70955519Y-21917005D01*
X70885827Y-21921989D01*
X70871233Y-21917865D01*
X70834554Y-21905031D01*
X70747630Y-21895237D01*
X70683216Y-21868170D01*
X70673833Y-21859698D01*
X70576290Y-21762155D01*
X82435000Y-21762155D01*
X82435000Y-22250000D01*
X83250000Y-22250000D01*
X83250000Y-21310000D01*
X82887155Y-21310000D01*
X82827627Y-21316401D01*
X82827620Y-21316403D01*
X82692913Y-21366645D01*
X82692906Y-21366649D01*
X82577812Y-21452809D01*
X82577809Y-21452812D01*
X82491649Y-21567906D01*
X82491645Y-21567913D01*
X82441403Y-21702620D01*
X82441401Y-21702627D01*
X82435000Y-21762155D01*
X70576290Y-21762155D01*
X68452490Y-19638355D01*
X68452488Y-19638352D01*
X68333617Y-19519481D01*
X68333609Y-19519475D01*
X68210464Y-19448378D01*
X68210461Y-19448377D01*
X68200649Y-19442712D01*
X68196685Y-19440423D01*
X68043957Y-19399499D01*
X67885843Y-19399499D01*
X67878247Y-19399499D01*
X67878231Y-19399500D01*
X55300097Y-19399500D01*
X55233058Y-19379815D01*
X55212416Y-19363181D01*
X53487590Y-17638355D01*
X53487588Y-17638352D01*
X53368717Y-17519481D01*
X53368716Y-17519480D01*
X53281904Y-17469360D01*
X53281904Y-17469359D01*
X53281900Y-17469358D01*
X53231785Y-17440423D01*
X53079057Y-17399499D01*
X52920943Y-17399499D01*
X52913347Y-17399499D01*
X52913331Y-17399500D01*
X48586670Y-17399500D01*
X48586654Y-17399499D01*
X48579058Y-17399499D01*
X48420943Y-17399499D01*
X48365643Y-17414317D01*
X48268214Y-17440423D01*
X48268209Y-17440426D01*
X48131290Y-17519475D01*
X48131282Y-17519481D01*
X43654284Y-21996481D01*
X43592961Y-22029966D01*
X43566603Y-22032800D01*
X35314500Y-22032800D01*
X35247461Y-22013115D01*
X35201706Y-21960311D01*
X35190500Y-21908800D01*
X35190499Y-20887129D01*
X35190498Y-20887123D01*
X35190497Y-20887116D01*
X35184091Y-20827517D01*
X35173641Y-20799500D01*
X35133797Y-20692671D01*
X35133793Y-20692664D01*
X35047547Y-20577455D01*
X35047544Y-20577452D01*
X34932335Y-20491206D01*
X34932328Y-20491202D01*
X34797482Y-20440908D01*
X34797483Y-20440908D01*
X34737883Y-20434501D01*
X34737881Y-20434500D01*
X34737873Y-20434500D01*
X34737864Y-20434500D01*
X33262129Y-20434500D01*
X33262123Y-20434501D01*
X33202517Y-20440908D01*
X33190815Y-20445273D01*
X33121124Y-20450254D01*
X33059806Y-20416770D01*
X32412482Y-19769446D01*
X31737185Y-19094150D01*
X31703701Y-19032828D01*
X31708685Y-18963136D01*
X31741329Y-18914833D01*
X31872427Y-18795322D01*
X31901047Y-18757422D01*
X31957153Y-18715787D01*
X32026865Y-18711094D01*
X32088048Y-18744836D01*
X32098946Y-18757414D01*
X32127573Y-18795322D01*
X32127576Y-18795325D01*
X32127578Y-18795327D01*
X32200843Y-18862116D01*
X32288568Y-18942088D01*
X32288575Y-18942092D01*
X32288576Y-18942093D01*
X32473786Y-19056770D01*
X32473792Y-19056773D01*
X32496664Y-19065633D01*
X32676931Y-19135470D01*
X32891074Y-19175500D01*
X32891076Y-19175500D01*
X33108924Y-19175500D01*
X33108926Y-19175500D01*
X33323069Y-19135470D01*
X33526210Y-19056772D01*
X33711432Y-18942088D01*
X33872427Y-18795322D01*
X33901047Y-18757422D01*
X33957153Y-18715787D01*
X34026865Y-18711094D01*
X34088048Y-18744836D01*
X34098946Y-18757414D01*
X34127573Y-18795322D01*
X34127576Y-18795325D01*
X34127578Y-18795327D01*
X34200843Y-18862116D01*
X34288568Y-18942088D01*
X34288575Y-18942092D01*
X34288576Y-18942093D01*
X34473786Y-19056770D01*
X34473792Y-19056773D01*
X34496664Y-19065633D01*
X34676931Y-19135470D01*
X34891074Y-19175500D01*
X34891076Y-19175500D01*
X35108924Y-19175500D01*
X35108926Y-19175500D01*
X35323069Y-19135470D01*
X35526210Y-19056772D01*
X35711432Y-18942088D01*
X35872427Y-18795322D01*
X36003712Y-18621472D01*
X36100817Y-18426459D01*
X36160435Y-18216923D01*
X36180536Y-18000000D01*
X36160435Y-17783077D01*
X36100817Y-17573541D01*
X36003712Y-17378528D01*
X35872427Y-17204678D01*
X35748423Y-17091634D01*
X35712145Y-17031927D01*
X35713905Y-16962079D01*
X35748423Y-16908365D01*
X35872427Y-16795322D01*
X36003712Y-16621472D01*
X36100817Y-16426459D01*
X36160435Y-16216923D01*
X36180536Y-16000000D01*
X36171070Y-15897844D01*
X41070000Y-15897844D01*
X41076401Y-15957372D01*
X41076403Y-15957379D01*
X41126645Y-16092086D01*
X41126649Y-16092093D01*
X41212809Y-16207187D01*
X41212812Y-16207190D01*
X41327906Y-16293350D01*
X41327913Y-16293354D01*
X41462620Y-16343596D01*
X41462627Y-16343598D01*
X41522155Y-16349999D01*
X41522172Y-16350000D01*
X41720000Y-16350000D01*
X42220000Y-16350000D01*
X42417828Y-16350000D01*
X42417844Y-16349999D01*
X42477372Y-16343598D01*
X42477379Y-16343596D01*
X42612086Y-16293354D01*
X42612093Y-16293350D01*
X42727187Y-16207190D01*
X42727190Y-16207187D01*
X42813350Y-16092093D01*
X42813354Y-16092086D01*
X42863596Y-15957379D01*
X42863598Y-15957372D01*
X42869999Y-15897844D01*
X42870000Y-15897827D01*
X42870000Y-15450000D01*
X42220000Y-15450000D01*
X42220000Y-16350000D01*
X41720000Y-16350000D01*
X41720000Y-15450000D01*
X41070000Y-15450000D01*
X41070000Y-15897844D01*
X36171070Y-15897844D01*
X36160435Y-15783077D01*
X36100817Y-15573541D01*
X36003712Y-15378528D01*
X35872427Y-15204678D01*
X35835682Y-15171181D01*
X35711433Y-15057913D01*
X35711423Y-15057906D01*
X35526213Y-14943229D01*
X35526207Y-14943226D01*
X35431681Y-14906607D01*
X35323069Y-14864530D01*
X35108926Y-14824500D01*
X34891074Y-14824500D01*
X34676931Y-14864530D01*
X34637476Y-14879815D01*
X34473792Y-14943226D01*
X34473786Y-14943229D01*
X34288576Y-15057906D01*
X34288566Y-15057913D01*
X34127573Y-15204676D01*
X34098953Y-15242576D01*
X34042844Y-15284211D01*
X33973132Y-15288902D01*
X33911950Y-15255159D01*
X33901047Y-15242576D01*
X33872426Y-15204676D01*
X33711433Y-15057913D01*
X33711423Y-15057906D01*
X33526213Y-14943229D01*
X33526207Y-14943226D01*
X33431681Y-14906607D01*
X33323069Y-14864530D01*
X33108926Y-14824500D01*
X32891074Y-14824500D01*
X32676931Y-14864530D01*
X32637476Y-14879815D01*
X32473792Y-14943226D01*
X32473786Y-14943229D01*
X32288576Y-15057906D01*
X32288566Y-15057913D01*
X32127573Y-15204676D01*
X32098953Y-15242576D01*
X32042844Y-15284211D01*
X31973132Y-15288902D01*
X31911950Y-15255159D01*
X31901047Y-15242576D01*
X31872426Y-15204676D01*
X31711433Y-15057913D01*
X31711423Y-15057906D01*
X31526213Y-14943229D01*
X31526207Y-14943226D01*
X31431681Y-14906607D01*
X31323069Y-14864530D01*
X31108926Y-14824500D01*
X30891074Y-14824500D01*
X30676931Y-14864530D01*
X30637476Y-14879815D01*
X30473792Y-14943226D01*
X30473786Y-14943229D01*
X30288576Y-15057906D01*
X30288566Y-15057913D01*
X30127573Y-15204676D01*
X30098953Y-15242576D01*
X30042844Y-15284211D01*
X29973132Y-15288902D01*
X29911950Y-15255159D01*
X29901047Y-15242576D01*
X29872426Y-15204676D01*
X29711433Y-15057913D01*
X29711423Y-15057906D01*
X29526213Y-14943229D01*
X29526207Y-14943226D01*
X29431681Y-14906607D01*
X29323069Y-14864530D01*
X29108926Y-14824500D01*
X28891074Y-14824500D01*
X28676931Y-14864530D01*
X28637476Y-14879815D01*
X28473792Y-14943226D01*
X28473786Y-14943229D01*
X28288576Y-15057906D01*
X28288566Y-15057913D01*
X28127573Y-15204676D01*
X28098953Y-15242576D01*
X28042844Y-15284211D01*
X27973132Y-15288902D01*
X27911950Y-15255159D01*
X27901047Y-15242576D01*
X27872426Y-15204676D01*
X27711433Y-15057913D01*
X27711423Y-15057906D01*
X27526213Y-14943229D01*
X27526207Y-14943226D01*
X27431681Y-14906607D01*
X27323069Y-14864530D01*
X27108926Y-14824500D01*
X26891074Y-14824500D01*
X26676931Y-14864530D01*
X26637476Y-14879815D01*
X26473792Y-14943226D01*
X26473786Y-14943229D01*
X26288576Y-15057906D01*
X26288566Y-15057913D01*
X26127574Y-15204676D01*
X25996288Y-15378527D01*
X25899184Y-15573537D01*
X25839564Y-15783081D01*
X25819464Y-15999999D01*
X25819464Y-16000000D01*
X25839564Y-16216918D01*
X25839564Y-16216920D01*
X25839565Y-16216923D01*
X25877571Y-16350499D01*
X25899184Y-16426462D01*
X25982437Y-16593656D01*
X25996288Y-16621472D01*
X26068963Y-16717710D01*
X26077747Y-16729341D01*
X26102439Y-16794702D01*
X26087874Y-16863037D01*
X26053105Y-16903334D01*
X25967452Y-16967455D01*
X25881206Y-17082664D01*
X25881202Y-17082671D01*
X25830908Y-17217517D01*
X25824501Y-17277116D01*
X25824500Y-17277135D01*
X25824500Y-18722870D01*
X25824501Y-18722876D01*
X25830908Y-18782483D01*
X25881202Y-18917328D01*
X25881206Y-18917335D01*
X25967452Y-19032544D01*
X25967455Y-19032547D01*
X26082664Y-19118793D01*
X26082671Y-19118797D01*
X26217517Y-19169091D01*
X26217516Y-19169091D01*
X26224444Y-19169835D01*
X26277127Y-19175500D01*
X27275500Y-19175499D01*
X27342539Y-19195183D01*
X27388294Y-19247987D01*
X27399500Y-19299499D01*
X27399500Y-19333202D01*
X27379815Y-19400241D01*
X27363181Y-19420883D01*
X26519482Y-20264581D01*
X26519480Y-20264583D01*
X26519480Y-20264584D01*
X26477565Y-20337183D01*
X26477564Y-20337185D01*
X26457173Y-20372502D01*
X26406605Y-20420716D01*
X26349788Y-20434500D01*
X26262130Y-20434500D01*
X26262123Y-20434501D01*
X26202516Y-20440908D01*
X26067671Y-20491202D01*
X26067664Y-20491206D01*
X25952455Y-20577452D01*
X25952452Y-20577455D01*
X25866206Y-20692664D01*
X25866202Y-20692671D01*
X25815908Y-20827517D01*
X25811862Y-20865158D01*
X25809500Y-20887127D01*
X25809500Y-21452812D01*
X25809501Y-21908800D01*
X25789817Y-21975839D01*
X25737013Y-22021594D01*
X25685501Y-22032800D01*
X14020943Y-22032800D01*
X13868216Y-22073723D01*
X13868209Y-22073726D01*
X13731290Y-22152775D01*
X13731282Y-22152781D01*
X13619481Y-22264582D01*
X13619475Y-22264590D01*
X13540426Y-22401509D01*
X13540423Y-22401516D01*
X13499500Y-22554243D01*
X13499500Y-23713330D01*
X13499499Y-23713348D01*
X13499499Y-23879054D01*
X13499498Y-23879054D01*
X13540424Y-24031789D01*
X13542439Y-24035277D01*
X13542445Y-24035287D01*
X13619477Y-24168712D01*
X13619481Y-24168717D01*
X13738349Y-24287585D01*
X13738355Y-24287590D01*
X14315139Y-24864374D01*
X14315149Y-24864385D01*
X14319479Y-24868715D01*
X14319480Y-24868716D01*
X14431284Y-24980520D01*
X14431286Y-24980521D01*
X14431290Y-24980524D01*
X14548938Y-25048447D01*
X14568216Y-25059577D01*
X14680019Y-25089534D01*
X14720942Y-25100500D01*
X14720943Y-25100500D01*
X14720944Y-25100500D01*
X15979055Y-25100500D01*
X15979057Y-25100500D01*
X16131784Y-25059577D01*
X16246064Y-24993598D01*
X16268711Y-24980523D01*
X16268711Y-24980522D01*
X16268716Y-24980520D01*
X16338206Y-24911028D01*
X16351568Y-24899449D01*
X16407546Y-24857546D01*
X16493796Y-24742331D01*
X16493796Y-24742330D01*
X16499111Y-24735231D01*
X16501247Y-24736830D01*
X16540835Y-24697226D01*
X16609104Y-24682358D01*
X16674574Y-24706760D01*
X16699942Y-24736028D01*
X16701331Y-24734989D01*
X16792809Y-24857187D01*
X16792812Y-24857190D01*
X16907906Y-24943350D01*
X16907913Y-24943354D01*
X17042620Y-24993596D01*
X17042627Y-24993598D01*
X17102155Y-24999999D01*
X17102172Y-25000000D01*
X17400000Y-25000000D01*
X17900000Y-25000000D01*
X18197828Y-25000000D01*
X18197844Y-24999999D01*
X18257372Y-24993598D01*
X18257379Y-24993596D01*
X18392086Y-24943354D01*
X18392093Y-24943350D01*
X18507187Y-24857190D01*
X18507190Y-24857187D01*
X18593350Y-24742093D01*
X18593354Y-24742086D01*
X18643596Y-24607379D01*
X18643598Y-24607372D01*
X18649999Y-24547844D01*
X18650000Y-24547827D01*
X18650000Y-24050000D01*
X17900000Y-24050000D01*
X17900000Y-25000000D01*
X17400000Y-25000000D01*
X17400000Y-23924000D01*
X17419685Y-23856961D01*
X17472489Y-23811206D01*
X17524000Y-23800000D01*
X17650000Y-23800000D01*
X17650000Y-23674000D01*
X17669685Y-23606961D01*
X17722489Y-23561206D01*
X17774000Y-23550000D01*
X18650000Y-23550000D01*
X18650000Y-23357800D01*
X18669685Y-23290761D01*
X18722489Y-23245006D01*
X18774000Y-23233800D01*
X19996982Y-23233800D01*
X20064021Y-23253485D01*
X20109776Y-23306289D01*
X20119720Y-23375447D01*
X20090695Y-23439003D01*
X20083366Y-23445824D01*
X20083725Y-23446183D01*
X20077452Y-23452455D01*
X19991206Y-23567664D01*
X19991202Y-23567671D01*
X19940908Y-23702517D01*
X19935410Y-23753659D01*
X19934501Y-23762123D01*
X19934500Y-23762135D01*
X19934500Y-24664902D01*
X19914815Y-24731941D01*
X19898181Y-24752583D01*
X19387584Y-25263181D01*
X19326261Y-25296666D01*
X19299903Y-25299500D01*
X16779057Y-25299500D01*
X16620942Y-25299500D01*
X16468215Y-25340423D01*
X16468214Y-25340423D01*
X16468212Y-25340424D01*
X16468209Y-25340425D01*
X16418096Y-25369359D01*
X16418095Y-25369360D01*
X16392163Y-25384332D01*
X16331285Y-25419479D01*
X16331282Y-25419481D01*
X16219478Y-25531286D01*
X15177582Y-26573181D01*
X15116259Y-26606666D01*
X15089901Y-26609500D01*
X14802130Y-26609500D01*
X14802123Y-26609501D01*
X14742516Y-26615908D01*
X14607671Y-26666202D01*
X14607664Y-26666206D01*
X14492455Y-26752452D01*
X14492452Y-26752455D01*
X14406206Y-26867664D01*
X14406202Y-26867671D01*
X14355908Y-27002517D01*
X14349501Y-27062116D01*
X14349500Y-27062135D01*
X14349500Y-28557870D01*
X14349501Y-28557876D01*
X14355908Y-28617483D01*
X14406202Y-28752328D01*
X14406206Y-28752335D01*
X14492452Y-28867544D01*
X14492455Y-28867547D01*
X14607664Y-28953793D01*
X14607671Y-28953797D01*
X14742517Y-29004091D01*
X14742516Y-29004091D01*
X14749444Y-29004835D01*
X14802127Y-29010500D01*
X15897872Y-29010499D01*
X15957483Y-29004091D01*
X16092331Y-28953796D01*
X16207546Y-28867546D01*
X16245923Y-28816281D01*
X16299112Y-28745231D01*
X16301248Y-28746830D01*
X16340835Y-28707226D01*
X16409104Y-28692358D01*
X16474574Y-28716760D01*
X16499942Y-28746028D01*
X16501331Y-28744989D01*
X16592809Y-28867187D01*
X16592812Y-28867190D01*
X16707906Y-28953350D01*
X16707913Y-28953354D01*
X16842620Y-29003596D01*
X16842627Y-29003598D01*
X16902155Y-29009999D01*
X16902172Y-29010000D01*
X17200000Y-29010000D01*
X17700000Y-29010000D01*
X17997828Y-29010000D01*
X17997844Y-29009999D01*
X18057372Y-29003598D01*
X18057379Y-29003596D01*
X18192086Y-28953354D01*
X18192093Y-28953350D01*
X18307187Y-28867190D01*
X18307190Y-28867187D01*
X18393350Y-28752093D01*
X18393354Y-28752086D01*
X18443596Y-28617379D01*
X18443598Y-28617372D01*
X18449999Y-28557844D01*
X18450000Y-28557827D01*
X18450000Y-28060000D01*
X17700000Y-28060000D01*
X17700000Y-29010000D01*
X17200000Y-29010000D01*
X17200000Y-27934000D01*
X17219685Y-27866961D01*
X17272489Y-27821206D01*
X17324000Y-27810000D01*
X17450000Y-27810000D01*
X17450000Y-27684000D01*
X17469685Y-27616961D01*
X17522489Y-27571206D01*
X17574000Y-27560000D01*
X18450000Y-27560000D01*
X18450000Y-27062172D01*
X18449999Y-27062155D01*
X18443598Y-27002627D01*
X18443596Y-27002620D01*
X18393354Y-26867913D01*
X18393350Y-26867906D01*
X18307190Y-26752812D01*
X18268390Y-26723766D01*
X18226520Y-26667832D01*
X18221536Y-26598140D01*
X18255022Y-26536818D01*
X18316345Y-26503333D01*
X18342702Y-26500500D01*
X19513331Y-26500500D01*
X19513347Y-26500501D01*
X19520943Y-26500501D01*
X19679054Y-26500501D01*
X19679057Y-26500501D01*
X19831785Y-26459577D01*
X19881904Y-26430639D01*
X19968716Y-26380520D01*
X20080520Y-26268716D01*
X20080520Y-26268714D01*
X20090728Y-26258507D01*
X20090730Y-26258504D01*
X20622416Y-25726818D01*
X20683739Y-25693333D01*
X20710097Y-25690499D01*
X21612871Y-25690499D01*
X21612872Y-25690499D01*
X21672483Y-25684091D01*
X21807331Y-25633796D01*
X21922546Y-25547546D01*
X21922546Y-25547545D01*
X21925689Y-25545193D01*
X21991153Y-25520776D01*
X22059426Y-25535627D01*
X22074311Y-25545193D01*
X22077453Y-25547545D01*
X22077454Y-25547546D01*
X22114342Y-25575160D01*
X22192669Y-25633796D01*
X22192671Y-25633797D01*
X22327517Y-25684091D01*
X22327516Y-25684091D01*
X22334444Y-25684835D01*
X22387127Y-25690500D01*
X23612872Y-25690499D01*
X23672483Y-25684091D01*
X23807331Y-25633796D01*
X23922546Y-25547546D01*
X24008796Y-25432331D01*
X24059091Y-25297483D01*
X24065500Y-25237873D01*
X24065499Y-24112844D01*
X25810000Y-24112844D01*
X25816401Y-24172372D01*
X25816403Y-24172379D01*
X25866645Y-24307086D01*
X25866649Y-24307093D01*
X25952809Y-24422187D01*
X25952812Y-24422190D01*
X26067906Y-24508350D01*
X26067913Y-24508354D01*
X26202620Y-24558596D01*
X26202627Y-24558598D01*
X26262155Y-24564999D01*
X26262172Y-24565000D01*
X26750000Y-24565000D01*
X27250000Y-24565000D01*
X27737828Y-24565000D01*
X27737844Y-24564999D01*
X27797372Y-24558598D01*
X27797379Y-24558596D01*
X27932086Y-24508354D01*
X27932093Y-24508350D01*
X28047187Y-24422190D01*
X28047190Y-24422187D01*
X28133350Y-24307093D01*
X28133354Y-24307086D01*
X28183596Y-24172379D01*
X28183598Y-24172372D01*
X28189999Y-24112844D01*
X29310000Y-24112844D01*
X29316401Y-24172372D01*
X29316403Y-24172379D01*
X29366645Y-24307086D01*
X29366649Y-24307093D01*
X29452809Y-24422187D01*
X29452812Y-24422190D01*
X29567906Y-24508350D01*
X29567913Y-24508354D01*
X29702620Y-24558596D01*
X29702627Y-24558598D01*
X29762155Y-24564999D01*
X29762172Y-24565000D01*
X30250000Y-24565000D01*
X30750000Y-24565000D01*
X31237828Y-24565000D01*
X31237844Y-24564999D01*
X31297372Y-24558598D01*
X31297379Y-24558596D01*
X31432086Y-24508354D01*
X31432093Y-24508350D01*
X31547187Y-24422190D01*
X31547190Y-24422187D01*
X31633350Y-24307093D01*
X31633354Y-24307086D01*
X31683596Y-24172379D01*
X31683598Y-24172372D01*
X31689999Y-24112844D01*
X32810000Y-24112844D01*
X32816401Y-24172372D01*
X32816403Y-24172379D01*
X32866645Y-24307086D01*
X32866649Y-24307093D01*
X32952809Y-24422187D01*
X32952812Y-24422190D01*
X33067906Y-24508350D01*
X33067913Y-24508354D01*
X33202620Y-24558596D01*
X33202627Y-24558598D01*
X33262155Y-24564999D01*
X33262172Y-24565000D01*
X33750000Y-24565000D01*
X34250000Y-24565000D01*
X34737828Y-24565000D01*
X34737844Y-24564999D01*
X34797372Y-24558598D01*
X34797379Y-24558596D01*
X34932086Y-24508354D01*
X34932093Y-24508350D01*
X35047187Y-24422190D01*
X35047190Y-24422187D01*
X35133350Y-24307093D01*
X35133354Y-24307086D01*
X35183596Y-24172379D01*
X35183598Y-24172372D01*
X35189999Y-24112844D01*
X35190000Y-24112827D01*
X35190000Y-23750000D01*
X34250000Y-23750000D01*
X34250000Y-24565000D01*
X33750000Y-24565000D01*
X33750000Y-23750000D01*
X32810000Y-23750000D01*
X32810000Y-24112844D01*
X31689999Y-24112844D01*
X31690000Y-24112827D01*
X31690000Y-23750000D01*
X30750000Y-23750000D01*
X30750000Y-24565000D01*
X30250000Y-24565000D01*
X30250000Y-23750000D01*
X29310000Y-23750000D01*
X29310000Y-24112844D01*
X28189999Y-24112844D01*
X28190000Y-24112827D01*
X28190000Y-23750000D01*
X27250000Y-23750000D01*
X27250000Y-24565000D01*
X26750000Y-24565000D01*
X26750000Y-23750000D01*
X25810000Y-23750000D01*
X25810000Y-24112844D01*
X24065499Y-24112844D01*
X24065499Y-23762128D01*
X24059091Y-23702517D01*
X24049621Y-23677127D01*
X24008797Y-23567671D01*
X24008793Y-23567664D01*
X23922547Y-23452455D01*
X23916275Y-23446183D01*
X23918727Y-23443730D01*
X23886842Y-23401148D01*
X23881849Y-23331457D01*
X23915326Y-23270129D01*
X23976645Y-23236637D01*
X24003018Y-23233800D01*
X25742438Y-23233800D01*
X25797609Y-23250000D01*
X28206726Y-23250000D01*
X28231204Y-23236634D01*
X28257562Y-23233800D01*
X29242438Y-23233800D01*
X29297609Y-23250000D01*
X31706726Y-23250000D01*
X31731204Y-23236634D01*
X31757562Y-23233800D01*
X32742438Y-23233800D01*
X32797609Y-23250000D01*
X35206726Y-23250000D01*
X35231204Y-23236634D01*
X35257562Y-23233800D01*
X43780031Y-23233800D01*
X43780047Y-23233801D01*
X43787643Y-23233801D01*
X43945754Y-23233801D01*
X43945757Y-23233801D01*
X44098485Y-23192877D01*
X44159233Y-23157804D01*
X44235416Y-23113820D01*
X44347220Y-23002016D01*
X44347220Y-23002014D01*
X44357424Y-22991811D01*
X44357427Y-22991806D01*
X45670946Y-21678288D01*
X45732268Y-21644804D01*
X45801960Y-21649788D01*
X45857893Y-21691660D01*
X45882310Y-21757124D01*
X45874723Y-21803960D01*
X45876267Y-21804429D01*
X45874497Y-21810261D01*
X45849500Y-21935928D01*
X45849500Y-21935931D01*
X45849500Y-23964069D01*
X45849500Y-23964071D01*
X45849499Y-23964071D01*
X45868498Y-24059577D01*
X45868498Y-24059578D01*
X45874496Y-24089737D01*
X45874498Y-24089742D01*
X45908728Y-24172379D01*
X45923535Y-24208127D01*
X45993875Y-24313400D01*
X45994726Y-24314673D01*
X48508625Y-26828572D01*
X48508632Y-26828578D01*
X48568975Y-26868897D01*
X48568977Y-26868898D01*
X48568980Y-26868900D01*
X48615173Y-26899765D01*
X48733556Y-26948801D01*
X48733560Y-26948801D01*
X48733561Y-26948802D01*
X48859228Y-26973800D01*
X48859231Y-26973800D01*
X48987369Y-26973800D01*
X49171000Y-26973800D01*
X49238039Y-26993485D01*
X49283794Y-27046289D01*
X49295000Y-27097800D01*
X49295000Y-27100000D01*
X50376000Y-27100000D01*
X50443039Y-27119685D01*
X50488794Y-27172489D01*
X50500000Y-27224000D01*
X50500000Y-27350000D01*
X50626000Y-27350000D01*
X50693039Y-27369685D01*
X50738794Y-27422489D01*
X50750000Y-27474000D01*
X50750000Y-28525000D01*
X51252828Y-28525000D01*
X51252844Y-28524999D01*
X51312372Y-28518598D01*
X51312376Y-28518597D01*
X51455398Y-28465253D01*
X51456647Y-28468603D01*
X51508198Y-28457337D01*
X51543604Y-28467719D01*
X51544359Y-28465697D01*
X51687517Y-28519091D01*
X51687516Y-28519091D01*
X51694444Y-28519835D01*
X51747127Y-28525500D01*
X53252872Y-28525499D01*
X53312483Y-28519091D01*
X53447331Y-28468796D01*
X53562546Y-28382546D01*
X53605651Y-28324965D01*
X53654112Y-28260231D01*
X53656694Y-28262164D01*
X53694877Y-28223944D01*
X53763142Y-28209059D01*
X53785436Y-28213665D01*
X53785561Y-28213119D01*
X53792338Y-28214665D01*
X53792345Y-28214668D01*
X53792352Y-28214668D01*
X53792353Y-28214669D01*
X53971596Y-28234865D01*
X53971600Y-28234865D01*
X53971604Y-28234865D01*
X54150849Y-28214669D01*
X54150852Y-28214668D01*
X54150855Y-28214668D01*
X54321122Y-28155089D01*
X54473862Y-28059116D01*
X54601416Y-27931562D01*
X54697389Y-27778822D01*
X54756968Y-27608555D01*
X54758012Y-27599289D01*
X54777165Y-27429303D01*
X54777165Y-27429296D01*
X54756969Y-27250050D01*
X54756968Y-27250045D01*
X54697388Y-27079776D01*
X54634767Y-26980116D01*
X54601416Y-26927038D01*
X54473862Y-26799484D01*
X54464514Y-26793610D01*
X54321123Y-26703511D01*
X54150854Y-26643931D01*
X54150849Y-26643930D01*
X53971604Y-26623735D01*
X53971596Y-26623735D01*
X53826428Y-26640091D01*
X53757606Y-26628036D01*
X53706227Y-26580687D01*
X53696363Y-26560203D01*
X53648798Y-26432673D01*
X53648793Y-26432664D01*
X53562547Y-26317455D01*
X53562544Y-26317452D01*
X53447335Y-26231206D01*
X53447328Y-26231202D01*
X53312482Y-26180908D01*
X53312483Y-26180908D01*
X53252883Y-26174501D01*
X53252881Y-26174500D01*
X53252873Y-26174500D01*
X53252865Y-26174500D01*
X53225315Y-26174500D01*
X53158276Y-26154815D01*
X53112521Y-26102011D01*
X53110754Y-26097953D01*
X53092017Y-26052720D01*
X53076465Y-26015173D01*
X53076463Y-26015170D01*
X53076461Y-26015166D01*
X53005276Y-25908631D01*
X53005273Y-25908627D01*
X52914671Y-25818025D01*
X52891588Y-25802602D01*
X52846782Y-25748990D01*
X52838075Y-25679665D01*
X52868229Y-25616637D01*
X52927672Y-25579917D01*
X52960476Y-25575499D01*
X53252872Y-25575499D01*
X53312483Y-25569091D01*
X53447331Y-25518796D01*
X53562546Y-25432546D01*
X53624341Y-25349998D01*
X60840204Y-25349998D01*
X60840205Y-25350000D01*
X61750000Y-25350000D01*
X61750000Y-24800000D01*
X61421850Y-24800000D01*
X61385010Y-24802899D01*
X61385004Y-24802900D01*
X61227306Y-24848716D01*
X61227303Y-24848717D01*
X61085947Y-24932314D01*
X61085938Y-24932321D01*
X60969821Y-25048438D01*
X60969814Y-25048447D01*
X60886218Y-25189801D01*
X60840399Y-25347513D01*
X60840204Y-25349998D01*
X53624341Y-25349998D01*
X53648796Y-25317331D01*
X53699091Y-25182483D01*
X53705500Y-25122873D01*
X53705499Y-24951850D01*
X53725183Y-24884813D01*
X53777987Y-24839058D01*
X53847145Y-24829114D01*
X53893719Y-24848733D01*
X53894745Y-24846956D01*
X53901783Y-24851019D01*
X53901784Y-24851020D01*
X53932430Y-24868713D01*
X53988595Y-24901139D01*
X53988597Y-24901141D01*
X54026651Y-24923111D01*
X54038715Y-24930077D01*
X54191443Y-24971001D01*
X54191446Y-24971001D01*
X54357153Y-24971001D01*
X54357169Y-24971000D01*
X58505279Y-24971000D01*
X58505295Y-24971001D01*
X58512891Y-24971001D01*
X58671002Y-24971001D01*
X58671005Y-24971001D01*
X58823733Y-24930077D01*
X58873852Y-24901139D01*
X58960664Y-24851020D01*
X59072468Y-24739216D01*
X59072468Y-24739214D01*
X59082676Y-24729007D01*
X59082677Y-24729004D01*
X59674864Y-24136819D01*
X59736187Y-24103334D01*
X59762545Y-24100500D01*
X61699903Y-24100500D01*
X61766942Y-24120185D01*
X61787584Y-24136819D01*
X62262701Y-24611936D01*
X62296186Y-24673259D01*
X62291202Y-24742951D01*
X62262702Y-24787297D01*
X62250000Y-24799999D01*
X62250000Y-25476000D01*
X62230315Y-25543039D01*
X62177511Y-25588794D01*
X62126000Y-25600000D01*
X62000000Y-25600000D01*
X62000000Y-25625500D01*
X61980315Y-25692539D01*
X61927511Y-25738294D01*
X61876000Y-25749500D01*
X61421798Y-25749500D01*
X61384932Y-25752401D01*
X61384926Y-25752402D01*
X61227106Y-25798254D01*
X61227103Y-25798255D01*
X61168806Y-25832732D01*
X61105685Y-25850000D01*
X60840205Y-25850000D01*
X60840204Y-25850001D01*
X60840399Y-25852488D01*
X60840400Y-25852494D01*
X60886216Y-26010193D01*
X60886218Y-26010198D01*
X60886922Y-26011388D01*
X60887189Y-26012441D01*
X60889316Y-26017356D01*
X60888523Y-26017699D01*
X60904105Y-26079112D01*
X60888491Y-26132289D01*
X60888853Y-26132446D01*
X60887587Y-26135371D01*
X60886925Y-26137626D01*
X60885755Y-26139604D01*
X60876494Y-26171479D01*
X60845099Y-26224563D01*
X60380965Y-26688698D01*
X60319642Y-26722183D01*
X60307168Y-26724237D01*
X60220250Y-26734030D01*
X60049978Y-26793610D01*
X59897236Y-26889585D01*
X59894403Y-26891845D01*
X59892224Y-26892734D01*
X59891342Y-26893289D01*
X59891244Y-26893134D01*
X59829717Y-26918255D01*
X59817088Y-26918900D01*
X59312569Y-26918900D01*
X59312553Y-26918899D01*
X59304957Y-26918899D01*
X59146843Y-26918899D01*
X59039487Y-26947665D01*
X58994110Y-26959824D01*
X58994109Y-26959825D01*
X58958966Y-26980116D01*
X58958964Y-26980117D01*
X58857190Y-27038875D01*
X58857182Y-27038881D01*
X58745378Y-27150686D01*
X54956636Y-30939427D01*
X54895313Y-30972912D01*
X54825621Y-30967928D01*
X54769688Y-30926056D01*
X54745271Y-30860592D01*
X54751914Y-30810791D01*
X54809066Y-30647462D01*
X54809069Y-30647449D01*
X54829265Y-30468203D01*
X54829265Y-30468196D01*
X54809069Y-30288950D01*
X54809068Y-30288945D01*
X54804757Y-30276624D01*
X54749489Y-30118678D01*
X54653516Y-29965938D01*
X54525962Y-29838384D01*
X54498738Y-29821278D01*
X54373223Y-29742411D01*
X54202954Y-29682831D01*
X54202949Y-29682830D01*
X54023704Y-29662635D01*
X54023696Y-29662635D01*
X53842240Y-29683079D01*
X53773418Y-29671024D01*
X53722039Y-29623675D01*
X53705067Y-29573111D01*
X53704481Y-29567664D01*
X53701288Y-29537962D01*
X53699091Y-29517516D01*
X53648797Y-29382671D01*
X53648793Y-29382664D01*
X53562547Y-29267455D01*
X53562544Y-29267452D01*
X53447335Y-29181206D01*
X53447328Y-29181202D01*
X53312482Y-29130908D01*
X53312483Y-29130908D01*
X53252883Y-29124501D01*
X53252881Y-29124500D01*
X53252873Y-29124500D01*
X53252864Y-29124500D01*
X51747129Y-29124500D01*
X51747123Y-29124501D01*
X51687516Y-29130908D01*
X51544359Y-29184303D01*
X51543210Y-29181223D01*
X51490565Y-29192648D01*
X51456213Y-29182563D01*
X51455399Y-29184746D01*
X51312379Y-29131403D01*
X51312372Y-29131401D01*
X51252844Y-29125000D01*
X50750000Y-29125000D01*
X50750000Y-30176000D01*
X50730315Y-30243039D01*
X50677511Y-30288794D01*
X50626000Y-30300000D01*
X50500000Y-30300000D01*
X50500000Y-30426000D01*
X50480315Y-30493039D01*
X50427511Y-30538794D01*
X50376000Y-30550000D01*
X49295000Y-30550000D01*
X49295000Y-31022844D01*
X49301401Y-31082372D01*
X49301403Y-31082379D01*
X49351645Y-31217086D01*
X49351649Y-31217093D01*
X49437809Y-31332187D01*
X49437812Y-31332190D01*
X49552906Y-31418350D01*
X49552913Y-31418354D01*
X49687620Y-31468596D01*
X49687627Y-31468598D01*
X49747155Y-31474999D01*
X49747172Y-31475000D01*
X50221155Y-31475000D01*
X50288194Y-31494685D01*
X50333949Y-31547489D01*
X50343893Y-31616647D01*
X50314868Y-31680203D01*
X50274890Y-31709029D01*
X50275254Y-31709659D01*
X50269053Y-31713238D01*
X50268604Y-31713563D01*
X50268217Y-31713722D01*
X50268216Y-31713723D01*
X50268214Y-31713723D01*
X50268207Y-31713727D01*
X50131290Y-31792775D01*
X50131282Y-31792781D01*
X50019481Y-31904582D01*
X50019477Y-31904587D01*
X49957174Y-32012500D01*
X49906607Y-32060716D01*
X49849788Y-32074500D01*
X49747130Y-32074500D01*
X49747123Y-32074501D01*
X49687516Y-32080908D01*
X49552671Y-32131202D01*
X49552664Y-32131206D01*
X49437455Y-32217452D01*
X49437452Y-32217455D01*
X49351206Y-32332664D01*
X49351202Y-32332671D01*
X49300908Y-32467517D01*
X49296749Y-32506206D01*
X49294500Y-32527127D01*
X49294500Y-33131290D01*
X49294501Y-33653000D01*
X49274816Y-33720039D01*
X49222013Y-33765794D01*
X49170501Y-33777000D01*
X39209170Y-33777000D01*
X39209154Y-33776999D01*
X39201558Y-33776999D01*
X39043443Y-33776999D01*
X38967079Y-33797461D01*
X38890714Y-33817923D01*
X38890709Y-33817926D01*
X38753790Y-33896975D01*
X38753782Y-33896981D01*
X37987584Y-34663181D01*
X37926261Y-34696666D01*
X37899903Y-34699500D01*
X37421798Y-34699500D01*
X37384932Y-34702401D01*
X37384926Y-34702402D01*
X37227106Y-34748254D01*
X37227103Y-34748255D01*
X37085637Y-34831917D01*
X37085629Y-34831923D01*
X36969423Y-34948129D01*
X36969414Y-34948140D01*
X36969229Y-34948455D01*
X36969019Y-34948650D01*
X36964639Y-34954298D01*
X36963727Y-34953591D01*
X36918157Y-34996136D01*
X36849415Y-35008637D01*
X36784827Y-34981988D01*
X36760643Y-34954078D01*
X36760361Y-34954298D01*
X36756323Y-34949092D01*
X36755771Y-34948455D01*
X36755585Y-34948140D01*
X36755576Y-34948129D01*
X36639370Y-34831923D01*
X36639362Y-34831917D01*
X36497896Y-34748255D01*
X36497893Y-34748254D01*
X36340073Y-34702402D01*
X36340067Y-34702401D01*
X36303201Y-34699500D01*
X36303194Y-34699500D01*
X35146806Y-34699500D01*
X35146798Y-34699500D01*
X35109932Y-34702401D01*
X35109926Y-34702402D01*
X34952106Y-34748254D01*
X34952103Y-34748255D01*
X34810637Y-34831917D01*
X34810629Y-34831923D01*
X34779374Y-34863180D01*
X34718052Y-34896666D01*
X34691692Y-34899500D01*
X34539942Y-34899500D01*
X34387215Y-34940423D01*
X34373869Y-34948129D01*
X34373860Y-34948134D01*
X34373857Y-34948135D01*
X34250290Y-35019475D01*
X34250282Y-35019481D01*
X34180162Y-35089602D01*
X34138480Y-35131284D01*
X34138478Y-35131286D01*
X32896710Y-36373055D01*
X31656584Y-37613181D01*
X31595261Y-37646666D01*
X31568903Y-37649500D01*
X31424500Y-37649500D01*
X31357461Y-37629815D01*
X31311706Y-37577011D01*
X31300500Y-37525500D01*
X31300499Y-36202129D01*
X31300498Y-36202123D01*
X31299993Y-36197426D01*
X31294091Y-36142517D01*
X31291013Y-36134265D01*
X31243797Y-36007671D01*
X31243793Y-36007664D01*
X31157547Y-35892455D01*
X31157544Y-35892452D01*
X31042335Y-35806206D01*
X31042328Y-35806202D01*
X30907486Y-35755910D01*
X30907485Y-35755909D01*
X30907483Y-35755909D01*
X30847873Y-35749500D01*
X30847864Y-35749500D01*
X30394046Y-35749500D01*
X30327007Y-35729815D01*
X30281252Y-35677011D01*
X30271308Y-35607853D01*
X30300333Y-35544297D01*
X30350712Y-35509318D01*
X30392331Y-35493796D01*
X30507546Y-35407546D01*
X30593796Y-35292331D01*
X30644091Y-35157483D01*
X30650500Y-35097873D01*
X30650499Y-32902128D01*
X30644091Y-32842517D01*
X30632792Y-32812224D01*
X30593797Y-32707671D01*
X30593793Y-32707664D01*
X30507547Y-32592455D01*
X30507544Y-32592452D01*
X30392335Y-32506206D01*
X30392329Y-32506203D01*
X30350713Y-32490681D01*
X30294780Y-32448809D01*
X30270363Y-32383345D01*
X30285215Y-32315072D01*
X30334620Y-32265667D01*
X30394044Y-32250499D01*
X30847872Y-32250499D01*
X30907483Y-32244091D01*
X31042331Y-32193796D01*
X31157546Y-32107546D01*
X31243796Y-31992331D01*
X31294091Y-31857483D01*
X31300500Y-31797873D01*
X31300499Y-30672799D01*
X31320184Y-30605761D01*
X31372987Y-30560006D01*
X31424499Y-30548800D01*
X35052778Y-30548800D01*
X35114777Y-30565413D01*
X35242709Y-30639273D01*
X35242712Y-30639275D01*
X35242716Y-30639277D01*
X35395443Y-30680201D01*
X35395445Y-30680201D01*
X35561154Y-30680201D01*
X35561170Y-30680200D01*
X36308131Y-30680200D01*
X36308147Y-30680201D01*
X36315743Y-30680201D01*
X36473854Y-30680201D01*
X36473857Y-30680201D01*
X36626585Y-30639277D01*
X36699956Y-30596916D01*
X36763516Y-30560220D01*
X36875320Y-30448416D01*
X36875320Y-30448414D01*
X36885524Y-30438211D01*
X36885528Y-30438206D01*
X37047106Y-30276628D01*
X37047111Y-30276624D01*
X37057314Y-30266420D01*
X37057316Y-30266420D01*
X37169120Y-30154616D01*
X37225075Y-30057699D01*
X37248177Y-30017685D01*
X37289101Y-29864957D01*
X37289101Y-29706843D01*
X37289101Y-29699248D01*
X37289100Y-29699230D01*
X37289100Y-29611521D01*
X37299191Y-29577155D01*
X49295000Y-29577155D01*
X49295000Y-30050000D01*
X50250000Y-30050000D01*
X50250000Y-29125000D01*
X49747155Y-29125000D01*
X49687627Y-29131401D01*
X49687620Y-29131403D01*
X49552913Y-29181645D01*
X49552906Y-29181649D01*
X49437812Y-29267809D01*
X49437809Y-29267812D01*
X49351649Y-29382906D01*
X49351645Y-29382913D01*
X49301403Y-29517620D01*
X49301401Y-29517627D01*
X49295000Y-29577155D01*
X37299191Y-29577155D01*
X37308785Y-29544482D01*
X37361589Y-29498727D01*
X37430747Y-29488783D01*
X37476222Y-29504789D01*
X37517319Y-29529094D01*
X37665915Y-29572265D01*
X37665927Y-29572267D01*
X37700646Y-29574999D01*
X38225000Y-29574999D01*
X38299342Y-29574999D01*
X38299363Y-29574998D01*
X38334078Y-29572266D01*
X38482681Y-29529093D01*
X38482684Y-29529092D01*
X38615885Y-29450317D01*
X38615894Y-29450311D01*
X38725311Y-29340894D01*
X38725317Y-29340885D01*
X38804092Y-29207684D01*
X38804093Y-29207681D01*
X38842641Y-29075001D01*
X38842640Y-29075000D01*
X38225000Y-29075000D01*
X38225000Y-29574999D01*
X37700646Y-29574999D01*
X37774999Y-29574998D01*
X37775000Y-29574998D01*
X37775000Y-28625000D01*
X38225000Y-28625000D01*
X38842640Y-28625000D01*
X38842641Y-28624998D01*
X38804093Y-28492318D01*
X38804092Y-28492315D01*
X38725317Y-28359114D01*
X38725311Y-28359105D01*
X38615894Y-28249688D01*
X38615885Y-28249682D01*
X38482684Y-28170907D01*
X38482681Y-28170906D01*
X38334084Y-28127734D01*
X38334073Y-28127732D01*
X38299359Y-28125000D01*
X38225000Y-28125000D01*
X38225000Y-28625000D01*
X37775000Y-28625000D01*
X37775000Y-28125000D01*
X37774999Y-28124999D01*
X37700659Y-28125000D01*
X37700635Y-28125001D01*
X37665921Y-28127733D01*
X37517318Y-28170906D01*
X37517315Y-28170907D01*
X37384114Y-28249682D01*
X37384105Y-28249688D01*
X37274688Y-28359105D01*
X37274684Y-28359111D01*
X37257081Y-28388875D01*
X37206010Y-28436557D01*
X37137268Y-28449059D01*
X37072680Y-28422412D01*
X37062669Y-28413432D01*
X37052997Y-28403760D01*
X37052974Y-28403739D01*
X36886818Y-28237583D01*
X36853333Y-28176260D01*
X36850499Y-28149902D01*
X36850499Y-28072844D01*
X49295000Y-28072844D01*
X49301401Y-28132372D01*
X49301403Y-28132379D01*
X49351645Y-28267086D01*
X49351649Y-28267093D01*
X49437809Y-28382187D01*
X49437812Y-28382190D01*
X49552906Y-28468350D01*
X49552913Y-28468354D01*
X49687620Y-28518596D01*
X49687627Y-28518598D01*
X49747155Y-28524999D01*
X49747172Y-28525000D01*
X50250000Y-28525000D01*
X50250000Y-27600000D01*
X49295000Y-27600000D01*
X49295000Y-28072844D01*
X36850499Y-28072844D01*
X36850499Y-28025606D01*
X36850498Y-28025584D01*
X36850190Y-28021671D01*
X36847765Y-27990844D01*
X36804555Y-27842113D01*
X36735832Y-27725909D01*
X36725717Y-27708805D01*
X36725710Y-27708796D01*
X36616203Y-27599289D01*
X36616194Y-27599282D01*
X36535111Y-27551330D01*
X36482887Y-27520445D01*
X36334156Y-27477235D01*
X36334153Y-27477234D01*
X36334151Y-27477234D01*
X36299410Y-27474500D01*
X36299405Y-27474500D01*
X36121032Y-27474500D01*
X36059035Y-27457889D01*
X36051660Y-27453631D01*
X36035885Y-27444523D01*
X35883157Y-27403599D01*
X35725043Y-27403599D01*
X35717447Y-27403599D01*
X35717431Y-27403600D01*
X22672843Y-27403600D01*
X22520114Y-27444523D01*
X22504342Y-27453630D01*
X22504339Y-27453631D01*
X22383190Y-27523575D01*
X22383182Y-27523581D01*
X15828581Y-34078182D01*
X15823630Y-34084635D01*
X15821129Y-34082716D01*
X15781304Y-34120679D01*
X15712695Y-34133892D01*
X15647834Y-34107915D01*
X15607314Y-34050995D01*
X15600500Y-34010455D01*
X15600500Y-33420945D01*
X15600500Y-33420943D01*
X15559577Y-33268216D01*
X15559573Y-33268209D01*
X15480524Y-33131290D01*
X15480518Y-33131282D01*
X15368717Y-33019481D01*
X15368709Y-33019475D01*
X15231790Y-32940426D01*
X15231786Y-32940424D01*
X15231784Y-32940423D01*
X15079057Y-32899500D01*
X12711681Y-32899500D01*
X12624500Y-32899500D01*
X12557461Y-32879815D01*
X12511706Y-32827011D01*
X12500500Y-32775500D01*
X12500500Y-18378711D01*
X18149500Y-18378711D01*
X18149500Y-18621288D01*
X18172411Y-18795323D01*
X18181162Y-18861789D01*
X18191402Y-18900003D01*
X18243947Y-19096104D01*
X18336131Y-19318656D01*
X18336776Y-19320212D01*
X18458064Y-19530289D01*
X18458066Y-19530292D01*
X18458067Y-19530293D01*
X18605733Y-19722736D01*
X18605739Y-19722743D01*
X18777256Y-19894260D01*
X18777262Y-19894265D01*
X18969711Y-20041936D01*
X19179788Y-20163224D01*
X19403900Y-20256054D01*
X19638211Y-20318838D01*
X19777573Y-20337185D01*
X19878711Y-20350500D01*
X19878712Y-20350500D01*
X20121289Y-20350500D01*
X20180931Y-20342648D01*
X20361789Y-20318838D01*
X20596100Y-20256054D01*
X20820212Y-20163224D01*
X21030289Y-20041936D01*
X21222738Y-19894265D01*
X21394265Y-19722738D01*
X21541936Y-19530289D01*
X21663224Y-19320212D01*
X21756054Y-19096100D01*
X21818838Y-18861789D01*
X21850500Y-18621288D01*
X21850500Y-18378712D01*
X21818838Y-18138211D01*
X21756054Y-17903900D01*
X21754366Y-17899826D01*
X21706009Y-17783081D01*
X21663224Y-17679788D01*
X21541936Y-17469711D01*
X21449695Y-17349500D01*
X21394266Y-17277263D01*
X21394260Y-17277256D01*
X21222743Y-17105739D01*
X21222736Y-17105733D01*
X21030293Y-16958067D01*
X21030292Y-16958066D01*
X21030289Y-16958064D01*
X20820212Y-16836776D01*
X20805454Y-16830663D01*
X20596104Y-16743947D01*
X20397814Y-16690815D01*
X20361789Y-16681162D01*
X20361788Y-16681161D01*
X20361785Y-16681161D01*
X20121289Y-16649500D01*
X20121288Y-16649500D01*
X19878712Y-16649500D01*
X19878711Y-16649500D01*
X19638214Y-16681161D01*
X19403895Y-16743947D01*
X19179794Y-16836773D01*
X19179785Y-16836777D01*
X18969706Y-16958067D01*
X18777263Y-17105733D01*
X18777256Y-17105739D01*
X18605739Y-17277256D01*
X18605733Y-17277263D01*
X18458067Y-17469706D01*
X18336777Y-17679785D01*
X18336773Y-17679794D01*
X18243947Y-17903895D01*
X18181161Y-18138214D01*
X18149500Y-18378711D01*
X12500500Y-18378711D01*
X12500500Y-12624500D01*
X12520185Y-12557461D01*
X12572989Y-12511706D01*
X12624500Y-12500500D01*
X40486231Y-12500500D01*
X40553270Y-12520185D01*
G37*
G04 #@! TD.AperFunction*
G04 #@! TA.AperFunction,Conductor*
G36*
X21368842Y-35122085D02*
G01*
X21389483Y-35138718D01*
X21663083Y-35412319D01*
X21696568Y-35473641D01*
X21691584Y-35543333D01*
X21663083Y-35587680D01*
X21137584Y-36113181D01*
X21076261Y-36146666D01*
X21049903Y-36149500D01*
X19773362Y-36149500D01*
X19706323Y-36129815D01*
X19685681Y-36113181D01*
X19656888Y-36084388D01*
X19643015Y-36080315D01*
X19610789Y-36050313D01*
X19530046Y-35942454D01*
X19505150Y-35923817D01*
X19414835Y-35856206D01*
X19414828Y-35856202D01*
X19279986Y-35805910D01*
X19279985Y-35805909D01*
X19279983Y-35805909D01*
X19225021Y-35799999D01*
X19225020Y-35799999D01*
X19220381Y-35799500D01*
X19220373Y-35799500D01*
X18861792Y-35799500D01*
X18794753Y-35779815D01*
X18748998Y-35727011D01*
X18739054Y-35657853D01*
X18768079Y-35594297D01*
X18788906Y-35575182D01*
X18804319Y-35563984D01*
X18859790Y-35523681D01*
X18925595Y-35500202D01*
X18932675Y-35500000D01*
X19672500Y-35500000D01*
X19672500Y-35452172D01*
X19672499Y-35452166D01*
X19671699Y-35444718D01*
X19684106Y-35375959D01*
X19731717Y-35324822D01*
X19788202Y-35309326D01*
X19788081Y-35308245D01*
X19794978Y-35307467D01*
X19794989Y-35307465D01*
X19795004Y-35307465D01*
X19974249Y-35287269D01*
X19974252Y-35287268D01*
X19974255Y-35287268D01*
X20144522Y-35227689D01*
X20297262Y-35131716D01*
X20297267Y-35131710D01*
X20300097Y-35129455D01*
X20302275Y-35128565D01*
X20303158Y-35128011D01*
X20303255Y-35128165D01*
X20364783Y-35103045D01*
X20377412Y-35102400D01*
X21301803Y-35102400D01*
X21368842Y-35122085D01*
G37*
G04 #@! TD.AperFunction*
G04 #@! TA.AperFunction,Conductor*
G36*
X51746231Y-19670185D02*
G01*
X51766873Y-19686819D01*
X51813181Y-19733127D01*
X51846666Y-19794450D01*
X51849500Y-19820808D01*
X51849500Y-20152111D01*
X51829815Y-20219150D01*
X51777011Y-20264905D01*
X51738754Y-20275401D01*
X51687516Y-20280909D01*
X51544359Y-20334303D01*
X51543210Y-20331223D01*
X51490565Y-20342648D01*
X51456213Y-20332563D01*
X51455399Y-20334746D01*
X51312379Y-20281403D01*
X51312372Y-20281401D01*
X51252844Y-20275000D01*
X50750000Y-20275000D01*
X50750000Y-22625000D01*
X51252828Y-22625000D01*
X51252844Y-22624999D01*
X51312372Y-22618598D01*
X51312376Y-22618597D01*
X51455398Y-22565253D01*
X51456647Y-22568603D01*
X51508198Y-22557337D01*
X51543604Y-22567719D01*
X51544359Y-22565697D01*
X51687517Y-22619091D01*
X51687516Y-22619091D01*
X51694444Y-22619835D01*
X51747127Y-22625500D01*
X53252872Y-22625499D01*
X53312483Y-22619091D01*
X53447331Y-22568796D01*
X53562546Y-22482546D01*
X53648796Y-22367331D01*
X53699091Y-22232483D01*
X53701375Y-22211243D01*
X53728114Y-22146692D01*
X53785507Y-22106845D01*
X53824664Y-22100500D01*
X68172592Y-22100500D01*
X68239631Y-22120185D01*
X68260273Y-22136819D01*
X69168164Y-23044709D01*
X70068124Y-23944669D01*
X70115333Y-23991878D01*
X70158732Y-24035277D01*
X70265266Y-24106461D01*
X70265272Y-24106464D01*
X70265273Y-24106465D01*
X70383656Y-24155501D01*
X70383660Y-24155501D01*
X70383661Y-24155502D01*
X70509328Y-24180500D01*
X70509331Y-24180500D01*
X70575501Y-24180500D01*
X70642540Y-24200185D01*
X70688295Y-24252989D01*
X70699501Y-24304500D01*
X70699501Y-24747876D01*
X70705908Y-24807483D01*
X70756202Y-24942328D01*
X70756206Y-24942335D01*
X70842452Y-25057544D01*
X70842455Y-25057547D01*
X70957664Y-25143793D01*
X70957671Y-25143797D01*
X70999285Y-25159318D01*
X71055219Y-25201189D01*
X71079636Y-25266653D01*
X71064785Y-25334926D01*
X71015380Y-25384332D01*
X70955952Y-25399500D01*
X67420940Y-25399500D01*
X67380019Y-25410464D01*
X67380019Y-25410465D01*
X67346379Y-25419479D01*
X67268214Y-25440423D01*
X67268209Y-25440426D01*
X67131290Y-25519475D01*
X67131282Y-25519481D01*
X67075266Y-25575498D01*
X67019480Y-25631284D01*
X67019478Y-25631286D01*
X66392258Y-26258507D01*
X65787584Y-26863181D01*
X65726261Y-26896666D01*
X65699903Y-26899500D01*
X65561612Y-26899500D01*
X65494573Y-26879815D01*
X65448818Y-26827011D01*
X65438413Y-26768152D01*
X65437904Y-26768132D01*
X65437995Y-26765789D01*
X65437994Y-26765778D01*
X65437998Y-26765717D01*
X65438000Y-26765694D01*
X65438000Y-26334306D01*
X65435098Y-26297431D01*
X65426755Y-26268716D01*
X65389245Y-26139606D01*
X65389244Y-26139602D01*
X65388371Y-26138126D01*
X65388038Y-26136816D01*
X65386146Y-26132443D01*
X65386851Y-26132137D01*
X65371185Y-26070403D01*
X65386639Y-26017770D01*
X65386146Y-26017557D01*
X65387876Y-26013558D01*
X65388371Y-26011874D01*
X65389244Y-26010398D01*
X65435098Y-25852569D01*
X65438000Y-25815694D01*
X65438000Y-25384306D01*
X65435098Y-25347431D01*
X65433062Y-25340424D01*
X65389245Y-25189606D01*
X65389244Y-25189603D01*
X65389244Y-25189602D01*
X65305581Y-25048135D01*
X65305579Y-25048133D01*
X65305576Y-25048129D01*
X65189370Y-24931923D01*
X65189362Y-24931917D01*
X65109713Y-24884813D01*
X65047898Y-24848256D01*
X65047897Y-24848255D01*
X65047896Y-24848255D01*
X65047895Y-24848254D01*
X64964904Y-24824143D01*
X64906019Y-24786536D01*
X64876813Y-24723064D01*
X64875500Y-24705067D01*
X64875500Y-24695945D01*
X64875500Y-24695943D01*
X64851797Y-24607483D01*
X64851797Y-24607482D01*
X64851797Y-24607481D01*
X64834578Y-24543217D01*
X64824638Y-24526000D01*
X64797535Y-24479057D01*
X64764703Y-24422190D01*
X64755522Y-24406287D01*
X64755521Y-24406286D01*
X64755520Y-24406284D01*
X64643716Y-24294480D01*
X64643715Y-24294479D01*
X64639385Y-24290149D01*
X64639374Y-24290139D01*
X62987590Y-22638355D01*
X62987588Y-22638352D01*
X62868717Y-22519481D01*
X62868709Y-22519475D01*
X62763295Y-22458615D01*
X62763294Y-22458614D01*
X62763294Y-22458615D01*
X62731785Y-22440423D01*
X62579057Y-22399499D01*
X62420943Y-22399499D01*
X62413347Y-22399499D01*
X62413331Y-22399500D01*
X59586670Y-22399500D01*
X59586654Y-22399499D01*
X59579058Y-22399499D01*
X59420943Y-22399499D01*
X59344579Y-22419961D01*
X59268214Y-22440423D01*
X59268209Y-22440426D01*
X59131290Y-22519475D01*
X59131282Y-22519481D01*
X58586595Y-23064168D01*
X58525272Y-23097653D01*
X58455580Y-23092669D01*
X58432943Y-23081481D01*
X58374421Y-23044709D01*
X58204162Y-22985133D01*
X58204149Y-22985130D01*
X58024904Y-22964935D01*
X58024896Y-22964935D01*
X57845650Y-22985130D01*
X57845645Y-22985131D01*
X57675376Y-23044711D01*
X57522637Y-23140684D01*
X57395084Y-23268237D01*
X57299110Y-23420978D01*
X57239530Y-23591250D01*
X57231798Y-23659883D01*
X57204732Y-23724297D01*
X57147137Y-23763852D01*
X57108578Y-23770000D01*
X54570597Y-23770000D01*
X54503558Y-23750315D01*
X54482916Y-23733681D01*
X53768718Y-23019483D01*
X53768716Y-23019481D01*
X53631785Y-22940423D01*
X53479057Y-22899499D01*
X53320943Y-22899499D01*
X53199191Y-22932123D01*
X53199190Y-22932122D01*
X53168216Y-22940422D01*
X53168215Y-22940422D01*
X53031284Y-23019481D01*
X53031281Y-23019483D01*
X52862583Y-23188181D01*
X52801260Y-23221666D01*
X52774902Y-23224500D01*
X51747129Y-23224500D01*
X51747123Y-23224501D01*
X51687516Y-23230908D01*
X51544359Y-23284303D01*
X51543210Y-23281223D01*
X51490565Y-23292648D01*
X51456213Y-23282563D01*
X51455399Y-23284746D01*
X51312379Y-23231403D01*
X51312372Y-23231401D01*
X51252844Y-23225000D01*
X50750000Y-23225000D01*
X50750000Y-24276000D01*
X50730315Y-24343039D01*
X50677511Y-24388794D01*
X50626000Y-24400000D01*
X50500000Y-24400000D01*
X50500000Y-24526000D01*
X50480315Y-24593039D01*
X50427511Y-24638794D01*
X50376000Y-24650000D01*
X49295000Y-24650000D01*
X49295000Y-25122844D01*
X49301401Y-25182372D01*
X49301403Y-25182379D01*
X49351645Y-25317086D01*
X49351649Y-25317093D01*
X49437809Y-25432187D01*
X49460981Y-25449534D01*
X49502851Y-25505468D01*
X49507835Y-25575160D01*
X49474349Y-25636482D01*
X49413025Y-25669967D01*
X49386669Y-25672800D01*
X49244108Y-25672800D01*
X49177069Y-25653115D01*
X49156427Y-25636481D01*
X47197101Y-23677155D01*
X49295000Y-23677155D01*
X49295000Y-24150000D01*
X50250000Y-24150000D01*
X50250000Y-23225000D01*
X49747155Y-23225000D01*
X49687627Y-23231401D01*
X49687620Y-23231403D01*
X49552913Y-23281645D01*
X49552906Y-23281649D01*
X49437812Y-23367809D01*
X49437809Y-23367812D01*
X49351649Y-23482906D01*
X49351645Y-23482913D01*
X49301403Y-23617620D01*
X49301401Y-23617627D01*
X49295000Y-23677155D01*
X47197101Y-23677155D01*
X47186819Y-23666873D01*
X47153334Y-23605550D01*
X47150500Y-23579192D01*
X47150500Y-22320808D01*
X47170185Y-22253769D01*
X47186819Y-22233127D01*
X47247102Y-22172844D01*
X49295000Y-22172844D01*
X49301401Y-22232372D01*
X49301403Y-22232379D01*
X49351645Y-22367086D01*
X49351649Y-22367093D01*
X49437809Y-22482187D01*
X49437812Y-22482190D01*
X49552906Y-22568350D01*
X49552913Y-22568354D01*
X49687620Y-22618596D01*
X49687627Y-22618598D01*
X49747155Y-22624999D01*
X49747172Y-22625000D01*
X50250000Y-22625000D01*
X50250000Y-21700000D01*
X49295000Y-21700000D01*
X49295000Y-22172844D01*
X47247102Y-22172844D01*
X48692791Y-20727155D01*
X49295000Y-20727155D01*
X49295000Y-21200000D01*
X50250000Y-21200000D01*
X50250000Y-20275000D01*
X49747155Y-20275000D01*
X49687627Y-20281401D01*
X49687620Y-20281403D01*
X49552913Y-20331645D01*
X49552906Y-20331649D01*
X49437812Y-20417809D01*
X49437809Y-20417812D01*
X49351649Y-20532906D01*
X49351645Y-20532913D01*
X49301403Y-20667620D01*
X49301401Y-20667627D01*
X49295000Y-20727155D01*
X48692791Y-20727155D01*
X49733127Y-19686819D01*
X49794450Y-19653334D01*
X49820808Y-19650500D01*
X51679192Y-19650500D01*
X51746231Y-19670185D01*
G37*
G04 #@! TD.AperFunction*
G04 #@! TD*
M02*
