G04 #@! TF.GenerationSoftware,KiCad,Pcbnew,8.0.8*
G04 #@! TF.CreationDate,2025-02-16T18:20:13+01:00*
G04 #@! TF.ProjectId,cheap-wled-controller,63686561-702d-4776-9c65-642d636f6e74,rev?*
G04 #@! TF.SameCoordinates,Original*
G04 #@! TF.FileFunction,Copper,L2,Bot*
G04 #@! TF.FilePolarity,Positive*
%FSLAX46Y46*%
G04 Gerber Fmt 4.6, Leading zero omitted, Abs format (unit mm)*
G04 Created by KiCad (PCBNEW 8.0.8) date 2025-02-16 18:20:13*
%MOMM*%
%LPD*%
G01*
G04 APERTURE LIST*
G04 Aperture macros list*
%AMRoundRect*
0 Rectangle with rounded corners*
0 $1 Rounding radius*
0 $2 $3 $4 $5 $6 $7 $8 $9 X,Y pos of 4 corners*
0 Add a 4 corners polygon primitive as box body*
4,1,4,$2,$3,$4,$5,$6,$7,$8,$9,$2,$3,0*
0 Add four circle primitives for the rounded corners*
1,1,$1+$1,$2,$3*
1,1,$1+$1,$4,$5*
1,1,$1+$1,$6,$7*
1,1,$1+$1,$8,$9*
0 Add four rect primitives between the rounded corners*
20,1,$1+$1,$2,$3,$4,$5,0*
20,1,$1+$1,$4,$5,$6,$7,0*
20,1,$1+$1,$6,$7,$8,$9,0*
20,1,$1+$1,$8,$9,$2,$3,0*%
G04 Aperture macros list end*
G04 #@! TA.AperFunction,ComponentPad*
%ADD10O,1.600000X2.600000*%
G04 #@! TD*
G04 #@! TA.AperFunction,ComponentPad*
%ADD11R,1.350000X1.350000*%
G04 #@! TD*
G04 #@! TA.AperFunction,ComponentPad*
%ADD12O,1.350000X1.350000*%
G04 #@! TD*
G04 #@! TA.AperFunction,ComponentPad*
%ADD13RoundRect,0.250000X-0.350000X-0.625000X0.350000X-0.625000X0.350000X0.625000X-0.350000X0.625000X0*%
G04 #@! TD*
G04 #@! TA.AperFunction,ComponentPad*
%ADD14O,1.200000X1.750000*%
G04 #@! TD*
G04 #@! TA.AperFunction,ComponentPad*
%ADD15R,1.700000X1.700000*%
G04 #@! TD*
G04 #@! TA.AperFunction,ComponentPad*
%ADD16O,1.700000X1.700000*%
G04 #@! TD*
G04 #@! TA.AperFunction,ComponentPad*
%ADD17C,2.200000*%
G04 #@! TD*
G04 #@! TA.AperFunction,ComponentPad*
%ADD18C,0.750000*%
G04 #@! TD*
G04 #@! TA.AperFunction,ComponentPad*
%ADD19O,2.000000X1.200000*%
G04 #@! TD*
G04 #@! TA.AperFunction,ComponentPad*
%ADD20O,1.800000X1.200000*%
G04 #@! TD*
G04 #@! TA.AperFunction,ComponentPad*
%ADD21C,0.700000*%
G04 #@! TD*
G04 #@! TA.AperFunction,ViaPad*
%ADD22C,0.600000*%
G04 #@! TD*
G04 #@! TA.AperFunction,Conductor*
%ADD23C,0.200000*%
G04 #@! TD*
G04 #@! TA.AperFunction,Conductor*
%ADD24C,0.800000*%
G04 #@! TD*
G04 #@! TA.AperFunction,Conductor*
%ADD25C,0.300000*%
G04 #@! TD*
G04 APERTURE END LIST*
D10*
G04 #@! TO.P,F2,1*
G04 #@! TO.N,/VBUS_C*
X90800000Y-30730000D03*
X94200000Y-30730000D03*
G04 #@! TO.P,F2,2*
G04 #@! TO.N,/V_LED*
X90800000Y-17270000D03*
X94200000Y-17270000D03*
G04 #@! TD*
D11*
G04 #@! TO.P,J4,1,Pin_1*
G04 #@! TO.N,unconnected-(J4-Pin_1-Pad1)*
X27000000Y-18000000D03*
D12*
G04 #@! TO.P,J4,2,Pin_2*
G04 #@! TO.N,unconnected-(J4-Pin_2-Pad2)*
X27000000Y-16000000D03*
G04 #@! TO.P,J4,3,Pin_3*
G04 #@! TO.N,Net-(J4-Pin_3)*
X29000000Y-18000000D03*
G04 #@! TO.P,J4,4,Pin_4*
G04 #@! TO.N,Net-(J4-Pin_10)*
X29000000Y-16000000D03*
G04 #@! TO.P,J4,5,Pin_5*
G04 #@! TO.N,Net-(J4-Pin_5)*
X31000000Y-18000000D03*
G04 #@! TO.P,J4,6,Pin_6*
G04 #@! TO.N,Net-(J4-Pin_10)*
X31000000Y-16000000D03*
G04 #@! TO.P,J4,7,Pin_7*
G04 #@! TO.N,Net-(J4-Pin_7)*
X33000000Y-18000000D03*
G04 #@! TO.P,J4,8,Pin_8*
G04 #@! TO.N,Net-(J4-Pin_10)*
X33000000Y-16000000D03*
G04 #@! TO.P,J4,9,Pin_9*
G04 #@! TO.N,/VDD_C*
X35000000Y-18000000D03*
G04 #@! TO.P,J4,10,Pin_10*
G04 #@! TO.N,Net-(J4-Pin_10)*
X35000000Y-16000000D03*
G04 #@! TD*
D13*
G04 #@! TO.P,J7,1,Pin_1*
G04 #@! TO.N,+5V*
X61000000Y-15500000D03*
D14*
G04 #@! TO.P,J7,2,Pin_2*
G04 #@! TO.N,GND*
X63000000Y-15500000D03*
G04 #@! TD*
D15*
G04 #@! TO.P,J6,1,Pin_1*
G04 #@! TO.N,/GPIO6*
X25880000Y-54300000D03*
D16*
G04 #@! TO.P,J6,2,Pin_2*
G04 #@! TO.N,/GPIO5*
X28420000Y-54300000D03*
G04 #@! TO.P,J6,3,Pin_3*
G04 #@! TO.N,/GPIO4*
X30960000Y-54300000D03*
G04 #@! TO.P,J6,4,Pin_4*
G04 #@! TO.N,GND*
X33500000Y-54300000D03*
G04 #@! TO.P,J6,5,Pin_5*
G04 #@! TO.N,+3.3V*
X36040000Y-54300000D03*
G04 #@! TD*
D17*
G04 #@! TO.P,J10,1,Pin_1*
G04 #@! TO.N,/LED_1_VCC*
X105000000Y-15190000D03*
G04 #@! TO.P,J10,2,Pin_2*
X105000000Y-19000000D03*
G04 #@! TO.P,J10,3,Pin_3*
G04 #@! TO.N,/LED_DATA*
X105000000Y-22810000D03*
G04 #@! TO.P,J10,4,Pin_4*
G04 #@! TO.N,GND*
X105000000Y-26620000D03*
G04 #@! TO.P,J10,5,Pin_5*
X105000000Y-30430000D03*
G04 #@! TD*
D18*
G04 #@! TO.P,J2,*
G04 #@! TO.N,*
X17262500Y-36100000D03*
X17262500Y-41900000D03*
D19*
G04 #@! TO.P,J2,0*
G04 #@! TO.N,Earth*
X17762500Y-34670000D03*
G04 #@! TO.P,J2,1*
X17762500Y-43330000D03*
D20*
G04 #@! TO.P,J2,2*
X13582500Y-43330000D03*
G04 #@! TO.P,J2,3*
X13582500Y-34670000D03*
G04 #@! TD*
D21*
G04 #@! TO.P,SW1,*
G04 #@! TO.N,*
X42800000Y-14000000D03*
X44500000Y-14000000D03*
G04 #@! TD*
D15*
G04 #@! TO.P,J8,1,Pin_1*
G04 #@! TO.N,+3.3V*
X82400000Y-54975000D03*
D16*
G04 #@! TO.P,J8,2,Pin_2*
G04 #@! TO.N,/TX*
X84940000Y-54975000D03*
G04 #@! TO.P,J8,3,Pin_3*
G04 #@! TO.N,/RX*
X87480000Y-54975000D03*
G04 #@! TO.P,J8,4,Pin_4*
G04 #@! TO.N,GND*
X90020000Y-54975000D03*
G04 #@! TO.P,J8,5,Pin_5*
G04 #@! TO.N,/GPIO38*
X92560000Y-54975000D03*
G04 #@! TO.P,J8,6,Pin_6*
G04 #@! TO.N,/GPIO37*
X95100000Y-54975000D03*
G04 #@! TO.P,J8,7,Pin_7*
G04 #@! TO.N,/GPIO36*
X97640000Y-54975000D03*
G04 #@! TD*
D22*
G04 #@! TO.N,/VDD_C*
X25001600Y-35999900D03*
X25617900Y-45000000D03*
G04 #@! TO.N,/LED_DATA*
X72905500Y-50176400D03*
X79713200Y-24313400D03*
G04 #@! TO.N,/V_LED*
X90758700Y-46182000D03*
X92818300Y-38248800D03*
G04 #@! TO.N,GND*
X68800000Y-29400000D03*
X83273900Y-48021843D03*
X86500000Y-43000000D03*
X20900000Y-35500000D03*
X49000000Y-24400000D03*
X89000000Y-53000000D03*
X36900000Y-34100000D03*
G04 #@! TO.N,+3.3V*
X52073300Y-35829200D03*
X75766400Y-24341400D03*
X53971600Y-27429300D03*
X37194300Y-44505800D03*
X84500000Y-29360800D03*
G04 #@! TO.N,/VBUS_C*
X55049100Y-47341100D03*
X20500000Y-40500000D03*
X19795000Y-34501900D03*
X54674300Y-33327000D03*
G04 #@! TO.N,Net-(U5-EN)*
X54023700Y-30468200D03*
X58024900Y-41670500D03*
X64165200Y-48526000D03*
G04 #@! TO.N,/BOOT*
X58024900Y-23770500D03*
X56236900Y-32478700D03*
G04 #@! TO.N,/SW_5V*
X64732300Y-18232300D03*
X60399500Y-27519400D03*
G04 #@! TO.N,/FB*
X74350000Y-14250000D03*
X83102000Y-13400000D03*
G04 #@! TO.N,+5V*
X83127100Y-19797900D03*
X82955600Y-29061200D03*
G04 #@! TO.N,Net-(D2-A)*
X71933000Y-29967100D03*
X70655300Y-22690400D03*
G04 #@! TO.N,Net-(J4-Pin_10)*
X27300000Y-29580800D03*
G04 #@! TO.N,Net-(J4-Pin_5)*
X30712700Y-19769800D03*
G04 #@! TO.N,/GPIO4*
X62673300Y-48011900D03*
X58433500Y-56961500D03*
X31664085Y-58389702D03*
G04 #@! TO.N,/GPIO6*
X62816600Y-46784300D03*
X57054100Y-56782700D03*
G04 #@! TO.N,/GPIO5*
X58457700Y-53136000D03*
X66952300Y-47405100D03*
G04 #@! TO.N,/TX*
X72010000Y-49930300D03*
X80133200Y-56130600D03*
G04 #@! TO.N,/GPIO37*
X76917800Y-39422100D03*
X81567400Y-52276700D03*
G04 #@! TO.N,/GPIO36*
X75542300Y-37793700D03*
X79796700Y-49530700D03*
G04 #@! TO.N,/RX*
X76342300Y-46902100D03*
G04 #@! TO.N,/GPIO38*
X80765400Y-51047100D03*
X75779900Y-41770400D03*
G04 #@! TO.N,/LED_1_VCC*
X96710300Y-38000000D03*
X86347500Y-46840500D03*
G04 #@! TO.N,Net-(Q3-G)*
X90522700Y-38514900D03*
X94000000Y-48000000D03*
G04 #@! TO.N,Net-(U3-VBUS)*
X34246300Y-28605800D03*
X32411300Y-44806600D03*
G04 #@! TO.N,Net-(U3-PG)*
X24619100Y-47341100D03*
X25001600Y-31748500D03*
G04 #@! TO.N,Net-(U5-IO0)*
X49097500Y-16152800D03*
X52073300Y-38363800D03*
G04 #@! TO.N,/MOS_1*
X76008800Y-36193800D03*
X80988200Y-43180800D03*
G04 #@! TD*
D23*
G04 #@! TO.N,/VDD_C*
X25001600Y-35999900D02*
X25617900Y-36616200D01*
X35000000Y-18000000D02*
X35000000Y-26001500D01*
X25617900Y-36616200D02*
X25617900Y-45000000D01*
X35000000Y-26001500D02*
X25001600Y-35999900D01*
G04 #@! TO.N,/LED_DATA*
X72905500Y-31121100D02*
X72905500Y-50176400D01*
X79713200Y-24313400D02*
X72905500Y-31121100D01*
D24*
G04 #@! TO.N,/V_LED*
X94200000Y-17270000D02*
X94200000Y-22400000D01*
X94200000Y-22400000D02*
X87700000Y-28900000D01*
X90758700Y-40249900D02*
X90758700Y-46182000D01*
X87700000Y-28900000D02*
X87700000Y-33189000D01*
X87700000Y-33189000D02*
X92759800Y-38248800D01*
X92759800Y-38248800D02*
X90758700Y-40249900D01*
X92818300Y-38248800D02*
X92759800Y-38248800D01*
D23*
G04 #@! TO.N,GND*
X83273900Y-46226100D02*
X86500000Y-43000000D01*
X84021843Y-48021843D02*
X89000000Y-53000000D01*
X83273900Y-48021843D02*
X84021843Y-48021843D01*
X83273900Y-48021843D02*
X83273900Y-46226100D01*
D25*
G04 #@! TO.N,+3.3V*
X52073300Y-35829200D02*
X52073300Y-29327600D01*
X79979400Y-23612200D02*
X76495600Y-23612200D01*
X82400000Y-29712900D02*
X84147900Y-29712900D01*
X81900000Y-52863339D02*
X82217400Y-52545939D01*
X82217400Y-44727641D02*
X81900000Y-44410241D01*
X82400000Y-54975000D02*
X81900000Y-54475000D01*
X81900000Y-44410241D02*
X81900000Y-30212900D01*
X36040000Y-55000000D02*
X36040000Y-45660100D01*
X81900000Y-54475000D02*
X81900000Y-52863339D01*
X81900000Y-30212900D02*
X82400000Y-29712900D01*
X82303900Y-29616800D02*
X82303900Y-25936700D01*
X36040000Y-45660100D02*
X37194300Y-44505800D01*
X82217400Y-52545939D02*
X82217400Y-44727641D01*
X84147900Y-29712900D02*
X84500000Y-29360800D01*
X82303900Y-25936700D02*
X79979400Y-23612200D01*
X52073300Y-29327600D02*
X53971600Y-27429300D01*
X76495600Y-23612200D02*
X75766400Y-24341400D01*
X82400000Y-29712900D02*
X82303900Y-29616800D01*
D23*
G04 #@! TO.N,/VBUS_C*
X20500000Y-40500000D02*
X19795000Y-39795000D01*
X19795000Y-39795000D02*
X19795000Y-34501900D01*
X55049100Y-33701800D02*
X54674300Y-33327000D01*
X55049100Y-47341100D02*
X55049100Y-33701800D01*
G04 #@! TO.N,Net-(U5-EN)*
X58553700Y-41670500D02*
X58024900Y-41670500D01*
X58024900Y-35117500D02*
X58024900Y-41670500D01*
X54023700Y-30468200D02*
X54023700Y-31116300D01*
X54023700Y-31116300D02*
X58024900Y-35117500D01*
X64165200Y-47282000D02*
X58553700Y-41670500D01*
X64165200Y-48526000D02*
X64165200Y-47282000D01*
G04 #@! TO.N,/BOOT*
X56236900Y-32478700D02*
X58024900Y-30690700D01*
X58024900Y-30690700D02*
X58024900Y-23770500D01*
G04 #@! TO.N,/SW_5V*
X64732300Y-18232300D02*
X60399500Y-22565100D01*
X60399500Y-22565100D02*
X60399500Y-27519400D01*
G04 #@! TO.N,/FB*
X75200000Y-13400000D02*
X83102000Y-13400000D01*
X74350000Y-14250000D02*
X75200000Y-13400000D01*
D25*
G04 #@! TO.N,+5V*
X83127100Y-28889800D02*
X83127000Y-28889800D01*
X83127000Y-28889800D02*
X82955600Y-29061200D01*
X83127100Y-19797900D02*
X83127100Y-28889800D01*
D23*
G04 #@! TO.N,Net-(D2-A)*
X70655300Y-28689400D02*
X71933000Y-29967100D01*
X70655300Y-22690400D02*
X70655300Y-28689400D01*
G04 #@! TO.N,Net-(J4-Pin_10)*
X27999900Y-28880900D02*
X27300000Y-29580800D01*
X27999900Y-17572000D02*
X27999900Y-28880900D01*
X29000000Y-16976700D02*
X28595200Y-16976700D01*
X28595200Y-16976700D02*
X27999900Y-17572000D01*
X29000000Y-16000000D02*
X29000000Y-16976700D01*
G04 #@! TO.N,Net-(J4-Pin_5)*
X31000000Y-19482500D02*
X30712700Y-19769800D01*
X31000000Y-18000000D02*
X31000000Y-19482500D01*
G04 #@! TO.N,/GPIO4*
X57849100Y-56377100D02*
X58433500Y-56961500D01*
X57849100Y-52836100D02*
X57849100Y-56377100D01*
X30960000Y-57685617D02*
X30960000Y-55000000D01*
X62673300Y-48011900D02*
X57849100Y-52836100D01*
X31664085Y-58389702D02*
X30960000Y-57685617D01*
G04 #@! TO.N,/GPIO6*
X57054100Y-52546800D02*
X62816600Y-46784300D01*
X57054100Y-56782700D02*
X57054100Y-52546800D01*
G04 #@! TO.N,/GPIO5*
X61052900Y-50540800D02*
X63816600Y-50540800D01*
X63816600Y-50540800D02*
X66952300Y-47405100D01*
X58457700Y-53136000D02*
X61052900Y-50540800D01*
G04 #@! TO.N,/TX*
X79367000Y-55364400D02*
X80133200Y-56130600D01*
X72816500Y-50975100D02*
X77918300Y-50975100D01*
X72010000Y-49930300D02*
X72010000Y-50168600D01*
X77918300Y-50975100D02*
X79367000Y-52423800D01*
X79367000Y-52423800D02*
X79367000Y-55364400D01*
X72010000Y-50168600D02*
X72816500Y-50975100D01*
G04 #@! TO.N,/GPIO37*
X80386500Y-43429900D02*
X81567400Y-44610800D01*
X81567400Y-44610800D02*
X81567400Y-52276700D01*
X80386500Y-42890800D02*
X80386500Y-43429900D01*
X76917800Y-39422100D02*
X80386500Y-42890800D01*
G04 #@! TO.N,/GPIO36*
X75542300Y-39084700D02*
X79796700Y-43339100D01*
X75542300Y-37793700D02*
X75542300Y-39084700D01*
X79796700Y-43339100D02*
X79796700Y-49530700D01*
G04 #@! TO.N,/RX*
X87480000Y-54975000D02*
X86328300Y-54975000D01*
X86328300Y-55263000D02*
X85464600Y-56126700D01*
X81362800Y-56126700D02*
X79910300Y-54674200D01*
X85464600Y-56126700D02*
X81362800Y-56126700D01*
X86328300Y-54975000D02*
X86328300Y-55263000D01*
X79910300Y-54674200D02*
X79910300Y-51088000D01*
X76342300Y-47520000D02*
X76342300Y-46902100D01*
X79910300Y-51088000D02*
X76342300Y-47520000D01*
G04 #@! TO.N,/GPIO38*
X79165100Y-45155600D02*
X79165100Y-49762100D01*
X75779900Y-41770400D02*
X79165100Y-45155600D01*
X80450100Y-51047100D02*
X80765400Y-51047100D01*
X79165100Y-49762100D02*
X80450100Y-51047100D01*
D24*
G04 #@! TO.N,/LED_1_VCC*
X96710300Y-27289700D02*
X96710300Y-38000000D01*
X97500000Y-49500000D02*
X100000000Y-47000000D01*
X100000000Y-47000000D02*
X100000000Y-41289700D01*
X105000000Y-19000000D02*
X105000000Y-15190000D01*
X86347500Y-46840500D02*
X89007000Y-49500000D01*
X100000000Y-41289700D02*
X96710300Y-38000000D01*
X105000000Y-19000000D02*
X96710300Y-27289700D01*
X89007000Y-49500000D02*
X97500000Y-49500000D01*
D23*
G04 #@! TO.N,Net-(Q3-G)*
X90000000Y-48000000D02*
X94000000Y-48000000D01*
X90522700Y-38514900D02*
X89814800Y-39222800D01*
X89814800Y-39222800D02*
X89814800Y-44505800D01*
X89500000Y-47500000D02*
X90000000Y-48000000D01*
X89500000Y-44820600D02*
X89500000Y-47500000D01*
X89814800Y-44505800D02*
X89500000Y-44820600D01*
G04 #@! TO.N,Net-(U3-VBUS)*
X34246300Y-28605800D02*
X34246300Y-42971600D01*
X34246300Y-42971600D02*
X32411300Y-44806600D01*
G04 #@! TO.N,Net-(U3-PG)*
X24356800Y-47078800D02*
X24619100Y-47341100D01*
X24356800Y-32393300D02*
X24356800Y-47078800D01*
X25001600Y-31748500D02*
X24356800Y-32393300D01*
G04 #@! TO.N,Net-(U5-IO0)*
X47000000Y-33290500D02*
X52073300Y-38363800D01*
X47000000Y-18250300D02*
X47000000Y-33290500D01*
X49097500Y-16152800D02*
X47000000Y-18250300D01*
G04 #@! TO.N,/MOS_1*
X80988200Y-41173200D02*
X80988200Y-43180800D01*
X76008800Y-36193800D02*
X80988200Y-41173200D01*
G04 #@! TD*
G04 #@! TA.AperFunction,Conductor*
G04 #@! TO.N,GND*
G36*
X82665563Y-12520185D02*
G01*
X82711318Y-12572989D01*
X82721262Y-12642147D01*
X82692237Y-12705703D01*
X82664496Y-12729494D01*
X82599736Y-12770185D01*
X82596903Y-12772445D01*
X82594724Y-12773334D01*
X82593842Y-12773889D01*
X82593744Y-12773734D01*
X82532217Y-12798855D01*
X82519588Y-12799500D01*
X75286670Y-12799500D01*
X75286654Y-12799499D01*
X75279058Y-12799499D01*
X75120943Y-12799499D01*
X75044579Y-12819961D01*
X74968214Y-12840423D01*
X74968209Y-12840426D01*
X74831290Y-12919475D01*
X74831282Y-12919481D01*
X74331465Y-13419298D01*
X74270142Y-13452783D01*
X74257668Y-13454837D01*
X74170750Y-13464630D01*
X74000478Y-13524210D01*
X73847737Y-13620184D01*
X73720184Y-13747737D01*
X73624211Y-13900476D01*
X73564631Y-14070745D01*
X73564630Y-14070750D01*
X73544435Y-14249996D01*
X73544435Y-14250003D01*
X73564630Y-14429249D01*
X73564631Y-14429254D01*
X73624211Y-14599523D01*
X73686908Y-14699304D01*
X73720184Y-14752262D01*
X73847738Y-14879816D01*
X73938080Y-14936582D01*
X73948657Y-14943228D01*
X74000478Y-14975789D01*
X74170745Y-15035368D01*
X74170750Y-15035369D01*
X74349996Y-15055565D01*
X74350000Y-15055565D01*
X74350004Y-15055565D01*
X74529249Y-15035369D01*
X74529252Y-15035368D01*
X74529255Y-15035368D01*
X74699522Y-14975789D01*
X74852262Y-14879816D01*
X74979816Y-14752262D01*
X75075789Y-14599522D01*
X75135368Y-14429255D01*
X75145161Y-14342329D01*
X75172226Y-14277919D01*
X75180688Y-14268545D01*
X75412418Y-14036818D01*
X75473742Y-14003334D01*
X75500099Y-14000500D01*
X82519588Y-14000500D01*
X82586627Y-14020185D01*
X82596903Y-14027555D01*
X82599736Y-14029814D01*
X82599738Y-14029816D01*
X82689600Y-14086280D01*
X82750426Y-14124500D01*
X82752478Y-14125789D01*
X82901128Y-14177804D01*
X82922745Y-14185368D01*
X82922750Y-14185369D01*
X83101996Y-14205565D01*
X83102000Y-14205565D01*
X83102004Y-14205565D01*
X83281249Y-14185369D01*
X83281252Y-14185368D01*
X83281255Y-14185368D01*
X83451522Y-14125789D01*
X83604262Y-14029816D01*
X83731816Y-13902262D01*
X83827789Y-13749522D01*
X83887368Y-13579255D01*
X83890212Y-13554014D01*
X83907565Y-13400003D01*
X83907565Y-13399996D01*
X83887369Y-13220750D01*
X83887368Y-13220745D01*
X83868590Y-13167081D01*
X83827789Y-13050478D01*
X83731816Y-12897738D01*
X83604262Y-12770184D01*
X83539503Y-12729493D01*
X83493213Y-12677159D01*
X83482565Y-12608106D01*
X83510940Y-12544257D01*
X83569330Y-12505885D01*
X83605476Y-12500500D01*
X109375500Y-12500500D01*
X109442539Y-12520185D01*
X109488294Y-12572989D01*
X109499500Y-12624500D01*
X109499500Y-59375500D01*
X109479815Y-59442539D01*
X109427011Y-59488294D01*
X109375500Y-59499500D01*
X79424500Y-59499500D01*
X79357461Y-59479815D01*
X79311706Y-59427011D01*
X79300500Y-59375500D01*
X79300500Y-56729340D01*
X79320185Y-56662301D01*
X79372989Y-56616546D01*
X79442147Y-56606602D01*
X79505703Y-56635627D01*
X79512181Y-56641659D01*
X79630938Y-56760416D01*
X79783678Y-56856389D01*
X79953945Y-56915968D01*
X79953950Y-56915969D01*
X80133196Y-56936165D01*
X80133200Y-56936165D01*
X80133204Y-56936165D01*
X80312449Y-56915969D01*
X80312452Y-56915968D01*
X80312455Y-56915968D01*
X80482722Y-56856389D01*
X80635462Y-56760416D01*
X80763016Y-56632862D01*
X80779348Y-56606868D01*
X80831681Y-56560578D01*
X80900734Y-56549928D01*
X80964583Y-56578302D01*
X80972023Y-56585159D01*
X80994084Y-56607220D01*
X80994086Y-56607221D01*
X80994090Y-56607224D01*
X81080265Y-56656977D01*
X81080266Y-56656977D01*
X81131015Y-56686277D01*
X81283742Y-56727200D01*
X81283743Y-56727200D01*
X85377931Y-56727200D01*
X85377947Y-56727201D01*
X85385543Y-56727201D01*
X85543654Y-56727201D01*
X85543657Y-56727201D01*
X85696385Y-56686277D01*
X85747134Y-56656977D01*
X85747135Y-56656977D01*
X85833309Y-56607224D01*
X85833308Y-56607224D01*
X85833316Y-56607220D01*
X85945120Y-56495416D01*
X85945120Y-56495414D01*
X85955324Y-56485211D01*
X85955328Y-56485206D01*
X86430138Y-56010396D01*
X86491461Y-55976911D01*
X86561153Y-55981895D01*
X86605500Y-56010396D01*
X86608599Y-56013495D01*
X86705384Y-56081265D01*
X86802165Y-56149032D01*
X86802167Y-56149033D01*
X86802170Y-56149035D01*
X87016337Y-56248903D01*
X87016343Y-56248904D01*
X87016344Y-56248905D01*
X87071285Y-56263626D01*
X87244592Y-56310063D01*
X87432918Y-56326539D01*
X87479999Y-56330659D01*
X87480000Y-56330659D01*
X87480001Y-56330659D01*
X87519234Y-56327226D01*
X87715408Y-56310063D01*
X87943663Y-56248903D01*
X88157830Y-56149035D01*
X88351401Y-56013495D01*
X88518495Y-55846401D01*
X88648730Y-55660405D01*
X88703307Y-55616781D01*
X88772805Y-55609587D01*
X88835160Y-55641110D01*
X88851879Y-55660405D01*
X88981890Y-55846078D01*
X89148917Y-56013105D01*
X89342421Y-56148600D01*
X89556507Y-56248429D01*
X89556516Y-56248433D01*
X89770000Y-56305634D01*
X89770000Y-55408012D01*
X89827007Y-55440925D01*
X89954174Y-55475000D01*
X90085826Y-55475000D01*
X90212993Y-55440925D01*
X90270000Y-55408012D01*
X90270000Y-56305633D01*
X90483483Y-56248433D01*
X90483492Y-56248429D01*
X90697578Y-56148600D01*
X90891082Y-56013105D01*
X91058105Y-55846082D01*
X91188119Y-55660405D01*
X91242696Y-55616781D01*
X91312195Y-55609588D01*
X91374549Y-55641110D01*
X91391269Y-55660405D01*
X91393243Y-55663224D01*
X91521505Y-55846401D01*
X91688599Y-56013495D01*
X91785384Y-56081265D01*
X91882165Y-56149032D01*
X91882167Y-56149033D01*
X91882170Y-56149035D01*
X92096337Y-56248903D01*
X92096343Y-56248904D01*
X92096344Y-56248905D01*
X92151285Y-56263626D01*
X92324592Y-56310063D01*
X92512918Y-56326539D01*
X92559999Y-56330659D01*
X92560000Y-56330659D01*
X92560001Y-56330659D01*
X92599234Y-56327226D01*
X92795408Y-56310063D01*
X93023663Y-56248903D01*
X93237830Y-56149035D01*
X93431401Y-56013495D01*
X93598495Y-55846401D01*
X93728425Y-55660842D01*
X93783002Y-55617217D01*
X93852500Y-55610023D01*
X93914855Y-55641546D01*
X93931575Y-55660842D01*
X94061500Y-55846395D01*
X94061505Y-55846401D01*
X94228599Y-56013495D01*
X94325384Y-56081265D01*
X94422165Y-56149032D01*
X94422167Y-56149033D01*
X94422170Y-56149035D01*
X94636337Y-56248903D01*
X94636343Y-56248904D01*
X94636344Y-56248905D01*
X94691285Y-56263626D01*
X94864592Y-56310063D01*
X95052918Y-56326539D01*
X95099999Y-56330659D01*
X95100000Y-56330659D01*
X95100001Y-56330659D01*
X95139234Y-56327226D01*
X95335408Y-56310063D01*
X95563663Y-56248903D01*
X95777830Y-56149035D01*
X95971401Y-56013495D01*
X96138495Y-55846401D01*
X96268425Y-55660842D01*
X96323002Y-55617217D01*
X96392500Y-55610023D01*
X96454855Y-55641546D01*
X96471575Y-55660842D01*
X96601500Y-55846395D01*
X96601505Y-55846401D01*
X96768599Y-56013495D01*
X96865384Y-56081265D01*
X96962165Y-56149032D01*
X96962167Y-56149033D01*
X96962170Y-56149035D01*
X97176337Y-56248903D01*
X97176343Y-56248904D01*
X97176344Y-56248905D01*
X97231285Y-56263626D01*
X97404592Y-56310063D01*
X97592918Y-56326539D01*
X97639999Y-56330659D01*
X97640000Y-56330659D01*
X97640001Y-56330659D01*
X97679234Y-56327226D01*
X97875408Y-56310063D01*
X98103663Y-56248903D01*
X98317830Y-56149035D01*
X98511401Y-56013495D01*
X98678495Y-55846401D01*
X98814035Y-55652830D01*
X98913903Y-55438663D01*
X98975063Y-55210408D01*
X98995659Y-54975000D01*
X98975063Y-54739592D01*
X98913903Y-54511337D01*
X98814035Y-54297171D01*
X98808731Y-54289595D01*
X98678494Y-54103597D01*
X98511402Y-53936506D01*
X98511395Y-53936501D01*
X98489784Y-53921369D01*
X98434518Y-53882671D01*
X98428863Y-53878711D01*
X102149500Y-53878711D01*
X102149500Y-54121288D01*
X102181161Y-54361785D01*
X102243947Y-54596104D01*
X102316819Y-54772032D01*
X102336776Y-54820212D01*
X102458064Y-55030289D01*
X102458066Y-55030292D01*
X102458067Y-55030293D01*
X102605733Y-55222736D01*
X102605739Y-55222743D01*
X102777256Y-55394260D01*
X102777263Y-55394266D01*
X102882478Y-55475000D01*
X102969711Y-55541936D01*
X103179788Y-55663224D01*
X103403900Y-55756054D01*
X103638211Y-55818838D01*
X103818586Y-55842584D01*
X103878711Y-55850500D01*
X103878712Y-55850500D01*
X104121289Y-55850500D01*
X104169388Y-55844167D01*
X104361789Y-55818838D01*
X104596100Y-55756054D01*
X104820212Y-55663224D01*
X105030289Y-55541936D01*
X105222738Y-55394265D01*
X105394265Y-55222738D01*
X105541936Y-55030289D01*
X105663224Y-54820212D01*
X105756054Y-54596100D01*
X105818838Y-54361789D01*
X105850500Y-54121288D01*
X105850500Y-53878712D01*
X105818838Y-53638211D01*
X105756054Y-53403900D01*
X105663224Y-53179788D01*
X105541936Y-52969711D01*
X105453199Y-52854066D01*
X105394266Y-52777263D01*
X105394260Y-52777256D01*
X105222743Y-52605739D01*
X105222736Y-52605733D01*
X105030293Y-52458067D01*
X105030292Y-52458066D01*
X105030289Y-52458064D01*
X104820212Y-52336776D01*
X104820205Y-52336773D01*
X104596104Y-52243947D01*
X104361785Y-52181161D01*
X104121289Y-52149500D01*
X104121288Y-52149500D01*
X103878712Y-52149500D01*
X103878711Y-52149500D01*
X103638214Y-52181161D01*
X103403895Y-52243947D01*
X103179794Y-52336773D01*
X103179785Y-52336777D01*
X102969706Y-52458067D01*
X102777263Y-52605733D01*
X102777256Y-52605739D01*
X102605739Y-52777256D01*
X102605733Y-52777263D01*
X102458067Y-52969706D01*
X102336777Y-53179785D01*
X102336773Y-53179794D01*
X102243947Y-53403895D01*
X102181161Y-53638214D01*
X102149500Y-53878711D01*
X98428863Y-53878711D01*
X98317834Y-53800967D01*
X98317830Y-53800965D01*
X98245972Y-53767457D01*
X98103663Y-53701097D01*
X98103659Y-53701096D01*
X98103655Y-53701094D01*
X97875413Y-53639938D01*
X97875403Y-53639936D01*
X97640001Y-53619341D01*
X97639999Y-53619341D01*
X97404596Y-53639936D01*
X97404586Y-53639938D01*
X97176344Y-53701094D01*
X97176335Y-53701098D01*
X96962171Y-53800964D01*
X96962169Y-53800965D01*
X96768597Y-53936505D01*
X96601505Y-54103597D01*
X96471575Y-54289158D01*
X96416998Y-54332783D01*
X96347500Y-54339977D01*
X96285145Y-54308454D01*
X96268425Y-54289158D01*
X96138494Y-54103597D01*
X95971402Y-53936506D01*
X95971395Y-53936501D01*
X95949784Y-53921369D01*
X95894518Y-53882671D01*
X95777834Y-53800967D01*
X95777830Y-53800965D01*
X95705972Y-53767457D01*
X95563663Y-53701097D01*
X95563659Y-53701096D01*
X95563655Y-53701094D01*
X95335413Y-53639938D01*
X95335403Y-53639936D01*
X95100001Y-53619341D01*
X95099999Y-53619341D01*
X94864596Y-53639936D01*
X94864586Y-53639938D01*
X94636344Y-53701094D01*
X94636335Y-53701098D01*
X94422171Y-53800964D01*
X94422169Y-53800965D01*
X94228597Y-53936505D01*
X94061505Y-54103597D01*
X93931575Y-54289158D01*
X93876998Y-54332783D01*
X93807500Y-54339977D01*
X93745145Y-54308454D01*
X93728425Y-54289158D01*
X93598494Y-54103597D01*
X93431402Y-53936506D01*
X93431395Y-53936501D01*
X93409784Y-53921369D01*
X93354518Y-53882671D01*
X93237834Y-53800967D01*
X93237830Y-53800965D01*
X93165972Y-53767457D01*
X93023663Y-53701097D01*
X93023659Y-53701096D01*
X93023655Y-53701094D01*
X92795413Y-53639938D01*
X92795403Y-53639936D01*
X92560001Y-53619341D01*
X92559999Y-53619341D01*
X92324596Y-53639936D01*
X92324586Y-53639938D01*
X92096344Y-53701094D01*
X92096335Y-53701098D01*
X91882171Y-53800964D01*
X91882169Y-53800965D01*
X91688597Y-53936505D01*
X91521508Y-54103594D01*
X91391269Y-54289595D01*
X91336692Y-54333219D01*
X91267193Y-54340412D01*
X91204839Y-54308890D01*
X91188119Y-54289594D01*
X91058113Y-54103926D01*
X91058108Y-54103920D01*
X90891082Y-53936894D01*
X90697578Y-53801399D01*
X90483492Y-53701570D01*
X90483486Y-53701567D01*
X90270000Y-53644364D01*
X90270000Y-54541988D01*
X90212993Y-54509075D01*
X90085826Y-54475000D01*
X89954174Y-54475000D01*
X89827007Y-54509075D01*
X89770000Y-54541988D01*
X89770000Y-53644364D01*
X89769999Y-53644364D01*
X89556513Y-53701567D01*
X89556507Y-53701570D01*
X89342422Y-53801399D01*
X89342420Y-53801400D01*
X89148926Y-53936886D01*
X89148920Y-53936891D01*
X88981891Y-54103920D01*
X88981890Y-54103922D01*
X88851880Y-54289595D01*
X88797303Y-54333219D01*
X88727804Y-54340412D01*
X88665450Y-54308890D01*
X88648730Y-54289594D01*
X88518494Y-54103597D01*
X88351402Y-53936506D01*
X88351395Y-53936501D01*
X88329784Y-53921369D01*
X88274518Y-53882671D01*
X88157834Y-53800967D01*
X88157830Y-53800965D01*
X88085972Y-53767457D01*
X87943663Y-53701097D01*
X87943659Y-53701096D01*
X87943655Y-53701094D01*
X87715413Y-53639938D01*
X87715403Y-53639936D01*
X87480001Y-53619341D01*
X87479999Y-53619341D01*
X87244596Y-53639936D01*
X87244586Y-53639938D01*
X87016344Y-53701094D01*
X87016335Y-53701098D01*
X86802171Y-53800964D01*
X86802169Y-53800965D01*
X86608597Y-53936505D01*
X86441506Y-54103596D01*
X86311575Y-54289159D01*
X86256998Y-54332784D01*
X86187500Y-54339978D01*
X86125145Y-54308455D01*
X86108425Y-54289159D01*
X85978494Y-54103597D01*
X85811402Y-53936506D01*
X85811395Y-53936501D01*
X85789784Y-53921369D01*
X85734518Y-53882671D01*
X85617834Y-53800967D01*
X85617830Y-53800965D01*
X85545972Y-53767457D01*
X85403663Y-53701097D01*
X85403659Y-53701096D01*
X85403655Y-53701094D01*
X85175413Y-53639938D01*
X85175403Y-53639936D01*
X84940001Y-53619341D01*
X84939999Y-53619341D01*
X84704596Y-53639936D01*
X84704586Y-53639938D01*
X84476344Y-53701094D01*
X84476335Y-53701098D01*
X84262171Y-53800964D01*
X84262169Y-53800965D01*
X84068600Y-53936503D01*
X83946673Y-54058430D01*
X83885350Y-54091914D01*
X83815658Y-54086930D01*
X83759725Y-54045058D01*
X83742810Y-54014081D01*
X83693797Y-53882671D01*
X83693793Y-53882664D01*
X83607547Y-53767455D01*
X83607544Y-53767452D01*
X83492335Y-53681206D01*
X83492328Y-53681202D01*
X83357482Y-53630908D01*
X83357483Y-53630908D01*
X83297883Y-53624501D01*
X83297881Y-53624500D01*
X83297873Y-53624500D01*
X83297865Y-53624500D01*
X82674500Y-53624500D01*
X82607461Y-53604815D01*
X82561706Y-53552011D01*
X82550500Y-53500500D01*
X82550500Y-53184147D01*
X82570185Y-53117108D01*
X82586814Y-53096470D01*
X82722676Y-52960609D01*
X82758820Y-52906515D01*
X82793864Y-52854068D01*
X82793865Y-52854066D01*
X82842901Y-52735683D01*
X82847765Y-52711230D01*
X82862758Y-52635859D01*
X82867900Y-52610010D01*
X82867900Y-46751803D01*
X85447000Y-46751803D01*
X85447000Y-46929196D01*
X85481603Y-47103158D01*
X85481605Y-47103166D01*
X85549488Y-47267048D01*
X85648034Y-47414534D01*
X85648040Y-47414541D01*
X88432961Y-50199462D01*
X88485884Y-50234824D01*
X88580448Y-50298010D01*
X88580449Y-50298010D01*
X88580453Y-50298013D01*
X88637584Y-50321677D01*
X88744334Y-50365895D01*
X88850212Y-50386955D01*
X88918303Y-50400499D01*
X88918307Y-50400500D01*
X88918308Y-50400500D01*
X97588693Y-50400500D01*
X97588694Y-50400499D01*
X97762666Y-50365895D01*
X97869416Y-50321677D01*
X97926547Y-50298013D01*
X98011072Y-50241535D01*
X98021116Y-50234824D01*
X98038756Y-50223036D01*
X98074036Y-50199464D01*
X100699464Y-47574036D01*
X100750444Y-47497738D01*
X100798013Y-47426547D01*
X100807202Y-47404362D01*
X100833406Y-47341101D01*
X100833406Y-47341100D01*
X100843851Y-47315883D01*
X100865895Y-47262666D01*
X100900500Y-47088692D01*
X100900500Y-46911308D01*
X100900500Y-41201009D01*
X100898306Y-41189981D01*
X100865894Y-41027034D01*
X100846627Y-40980520D01*
X100798013Y-40863153D01*
X100798011Y-40863151D01*
X100798011Y-40863149D01*
X100699465Y-40715666D01*
X100658059Y-40674260D01*
X100574035Y-40590236D01*
X97647119Y-37663319D01*
X97613634Y-37601996D01*
X97610800Y-37575638D01*
X97610800Y-30430000D01*
X103395052Y-30430000D01*
X103414812Y-30681072D01*
X103473603Y-30925956D01*
X103569980Y-31158631D01*
X103701568Y-31373362D01*
X103702266Y-31374179D01*
X104360690Y-30715755D01*
X104379669Y-30761574D01*
X104456275Y-30876223D01*
X104553777Y-30973725D01*
X104668426Y-31050331D01*
X104714243Y-31069309D01*
X104055819Y-31727732D01*
X104055819Y-31727733D01*
X104056634Y-31728429D01*
X104271368Y-31860019D01*
X104504043Y-31956396D01*
X104748927Y-32015187D01*
X105000000Y-32034947D01*
X105251072Y-32015187D01*
X105495956Y-31956396D01*
X105728631Y-31860019D01*
X105943361Y-31728432D01*
X105943363Y-31728430D01*
X105944180Y-31727732D01*
X105285756Y-31069309D01*
X105331574Y-31050331D01*
X105446223Y-30973725D01*
X105543725Y-30876223D01*
X105620331Y-30761574D01*
X105639308Y-30715756D01*
X106297732Y-31374180D01*
X106298430Y-31373363D01*
X106298432Y-31373361D01*
X106430019Y-31158631D01*
X106526396Y-30925956D01*
X106585187Y-30681072D01*
X106604947Y-30430000D01*
X106585187Y-30178927D01*
X106526396Y-29934043D01*
X106430019Y-29701368D01*
X106298429Y-29486634D01*
X106297733Y-29485819D01*
X106297732Y-29485819D01*
X105639308Y-30144242D01*
X105620331Y-30098426D01*
X105543725Y-29983777D01*
X105446223Y-29886275D01*
X105331574Y-29809669D01*
X105285754Y-29790690D01*
X105944179Y-29132266D01*
X105943362Y-29131568D01*
X105728631Y-28999980D01*
X105495956Y-28903603D01*
X105251072Y-28844812D01*
X105000000Y-28825052D01*
X104748927Y-28844812D01*
X104504043Y-28903603D01*
X104271368Y-28999980D01*
X104056637Y-29131567D01*
X104055818Y-29132266D01*
X104714243Y-29790690D01*
X104668426Y-29809669D01*
X104553777Y-29886275D01*
X104456275Y-29983777D01*
X104379669Y-30098426D01*
X104360690Y-30144243D01*
X103702266Y-29485818D01*
X103701567Y-29486637D01*
X103569980Y-29701368D01*
X103473603Y-29934043D01*
X103414812Y-30178927D01*
X103395052Y-30430000D01*
X97610800Y-30430000D01*
X97610800Y-27714061D01*
X97630485Y-27647022D01*
X97647114Y-27626385D01*
X98653499Y-26620000D01*
X103395052Y-26620000D01*
X103414812Y-26871072D01*
X103473603Y-27115956D01*
X103569980Y-27348631D01*
X103701568Y-27563362D01*
X103702266Y-27564179D01*
X104360690Y-26905755D01*
X104379669Y-26951574D01*
X104456275Y-27066223D01*
X104553777Y-27163725D01*
X104668426Y-27240331D01*
X104714243Y-27259309D01*
X104055819Y-27917732D01*
X104055819Y-27917733D01*
X104056634Y-27918429D01*
X104271368Y-28050019D01*
X104504043Y-28146396D01*
X104748927Y-28205187D01*
X105000000Y-28224947D01*
X105251072Y-28205187D01*
X105495956Y-28146396D01*
X105728631Y-28050019D01*
X105943361Y-27918432D01*
X105943363Y-27918430D01*
X105944180Y-27917732D01*
X105285756Y-27259309D01*
X105331574Y-27240331D01*
X105446223Y-27163725D01*
X105543725Y-27066223D01*
X105620331Y-26951574D01*
X105639308Y-26905756D01*
X106297732Y-27564180D01*
X106298430Y-27563363D01*
X106298432Y-27563361D01*
X106430019Y-27348631D01*
X106526396Y-27115956D01*
X106585187Y-26871072D01*
X106604947Y-26620000D01*
X106585187Y-26368927D01*
X106526396Y-26124043D01*
X106430019Y-25891368D01*
X106298429Y-25676634D01*
X106297733Y-25675819D01*
X106297732Y-25675819D01*
X105639308Y-26334242D01*
X105620331Y-26288426D01*
X105543725Y-26173777D01*
X105446223Y-26076275D01*
X105331574Y-25999669D01*
X105285754Y-25980690D01*
X105944179Y-25322266D01*
X105943362Y-25321568D01*
X105728631Y-25189980D01*
X105495956Y-25093603D01*
X105251072Y-25034812D01*
X105000000Y-25015052D01*
X104748927Y-25034812D01*
X104504043Y-25093603D01*
X104271368Y-25189980D01*
X104056637Y-25321567D01*
X104055818Y-25322266D01*
X104714243Y-25980690D01*
X104668426Y-25999669D01*
X104553777Y-26076275D01*
X104456275Y-26173777D01*
X104379669Y-26288426D01*
X104360690Y-26334243D01*
X103702266Y-25675818D01*
X103701567Y-25676637D01*
X103569980Y-25891368D01*
X103473603Y-26124043D01*
X103414812Y-26368927D01*
X103395052Y-26620000D01*
X98653499Y-26620000D01*
X103425657Y-21847841D01*
X103486980Y-21814357D01*
X103556672Y-21819341D01*
X103612605Y-21861213D01*
X103637022Y-21926677D01*
X103622170Y-21994950D01*
X103619065Y-22000313D01*
X103569533Y-22081140D01*
X103473126Y-22313889D01*
X103414317Y-22558848D01*
X103394551Y-22810000D01*
X103414317Y-23061151D01*
X103473126Y-23306110D01*
X103569533Y-23538859D01*
X103701160Y-23753653D01*
X103701161Y-23753656D01*
X103715550Y-23770503D01*
X103864776Y-23945224D01*
X104013066Y-24071875D01*
X104056343Y-24108838D01*
X104056346Y-24108839D01*
X104271140Y-24240466D01*
X104419886Y-24302078D01*
X104503889Y-24336873D01*
X104748852Y-24395683D01*
X105000000Y-24415449D01*
X105251148Y-24395683D01*
X105496111Y-24336873D01*
X105728859Y-24240466D01*
X105943659Y-24108836D01*
X106135224Y-23945224D01*
X106298836Y-23753659D01*
X106430466Y-23538859D01*
X106526873Y-23306111D01*
X106585683Y-23061148D01*
X106605449Y-22810000D01*
X106585683Y-22558852D01*
X106526873Y-22313889D01*
X106502841Y-22255870D01*
X106430466Y-22081140D01*
X106298839Y-21866346D01*
X106298838Y-21866343D01*
X106254437Y-21814357D01*
X106135224Y-21674776D01*
X106008571Y-21566604D01*
X105943656Y-21511161D01*
X105943653Y-21511160D01*
X105728859Y-21379533D01*
X105496110Y-21283126D01*
X105251151Y-21224317D01*
X105000000Y-21204551D01*
X104748848Y-21224317D01*
X104503889Y-21283126D01*
X104271142Y-21379533D01*
X104190311Y-21429066D01*
X104122865Y-21447310D01*
X104056263Y-21426193D01*
X104011650Y-21372421D01*
X104003190Y-21303065D01*
X104033570Y-21240146D01*
X104037819Y-21235679D01*
X104651849Y-20621649D01*
X104713170Y-20588166D01*
X104749251Y-20585714D01*
X105000000Y-20605449D01*
X105251148Y-20585683D01*
X105496111Y-20526873D01*
X105728859Y-20430466D01*
X105943659Y-20298836D01*
X106135224Y-20135224D01*
X106298836Y-19943659D01*
X106430466Y-19728859D01*
X106526873Y-19496111D01*
X106585683Y-19251148D01*
X106605449Y-19000000D01*
X106585683Y-18748852D01*
X106526873Y-18503889D01*
X106505220Y-18451613D01*
X106430466Y-18271140D01*
X106298839Y-18056346D01*
X106298838Y-18056343D01*
X106223722Y-17968394D01*
X106135224Y-17864776D01*
X105943967Y-17701427D01*
X105905775Y-17642921D01*
X105900500Y-17607138D01*
X105900500Y-16582862D01*
X105920185Y-16515823D01*
X105943968Y-16488572D01*
X105964459Y-16471071D01*
X106135224Y-16325224D01*
X106298836Y-16133659D01*
X106430466Y-15918859D01*
X106526873Y-15686111D01*
X106585683Y-15441148D01*
X106605449Y-15190000D01*
X106585683Y-14938852D01*
X106526873Y-14693889D01*
X106513094Y-14660623D01*
X106430466Y-14461140D01*
X106298839Y-14246346D01*
X106298838Y-14246343D01*
X106246760Y-14185368D01*
X106135224Y-14054776D01*
X105956653Y-13902262D01*
X105943656Y-13891161D01*
X105943653Y-13891160D01*
X105728859Y-13759533D01*
X105496110Y-13663126D01*
X105251151Y-13604317D01*
X105000000Y-13584551D01*
X104748848Y-13604317D01*
X104503889Y-13663126D01*
X104271140Y-13759533D01*
X104056346Y-13891160D01*
X104056343Y-13891161D01*
X103864776Y-14054776D01*
X103701161Y-14246343D01*
X103701160Y-14246346D01*
X103569533Y-14461140D01*
X103473126Y-14693889D01*
X103414317Y-14938848D01*
X103394551Y-15190000D01*
X103414317Y-15441151D01*
X103473126Y-15686110D01*
X103569533Y-15918859D01*
X103701160Y-16133653D01*
X103701161Y-16133656D01*
X103736473Y-16175001D01*
X103864776Y-16325224D01*
X104035541Y-16471071D01*
X104056032Y-16488572D01*
X104094225Y-16547079D01*
X104099500Y-16582862D01*
X104099500Y-17607138D01*
X104079815Y-17674177D01*
X104056032Y-17701428D01*
X103864776Y-17864776D01*
X103701161Y-18056343D01*
X103701160Y-18056346D01*
X103569533Y-18271140D01*
X103473126Y-18503889D01*
X103414317Y-18748848D01*
X103394551Y-19000000D01*
X103414285Y-19250740D01*
X103399921Y-19319117D01*
X103378348Y-19348150D01*
X96010838Y-26715660D01*
X96010834Y-26715665D01*
X95998564Y-26734030D01*
X95998563Y-26734032D01*
X95912290Y-26863147D01*
X95912283Y-26863160D01*
X95901160Y-26890016D01*
X95901160Y-26890017D01*
X95844405Y-27027033D01*
X95844403Y-27027041D01*
X95815991Y-27169876D01*
X95815992Y-27169877D01*
X95809800Y-27201009D01*
X95809800Y-38088696D01*
X95844403Y-38262658D01*
X95844405Y-38262666D01*
X95875399Y-38337491D01*
X95875399Y-38337492D01*
X95912283Y-38426540D01*
X95912290Y-38426553D01*
X95969028Y-38511466D01*
X95969028Y-38511467D01*
X96010832Y-38574031D01*
X96010838Y-38574039D01*
X99063181Y-41626380D01*
X99096666Y-41687703D01*
X99099500Y-41714061D01*
X99099500Y-46575638D01*
X99079815Y-46642677D01*
X99063181Y-46663319D01*
X97163319Y-48563181D01*
X97101996Y-48596666D01*
X97075638Y-48599500D01*
X94793079Y-48599500D01*
X94726040Y-48579815D01*
X94680285Y-48527011D01*
X94670341Y-48457853D01*
X94688085Y-48409528D01*
X94725788Y-48349523D01*
X94725789Y-48349522D01*
X94785368Y-48179255D01*
X94790250Y-48135927D01*
X94805565Y-48000003D01*
X94805565Y-47999996D01*
X94785369Y-47820750D01*
X94785368Y-47820745D01*
X94762231Y-47754623D01*
X94725789Y-47650478D01*
X94629816Y-47497738D01*
X94502262Y-47370184D01*
X94455969Y-47341096D01*
X94349523Y-47274211D01*
X94179254Y-47214631D01*
X94179249Y-47214630D01*
X94000004Y-47194435D01*
X93999996Y-47194435D01*
X93820750Y-47214630D01*
X93820745Y-47214631D01*
X93650476Y-47274211D01*
X93497736Y-47370185D01*
X93494903Y-47372445D01*
X93492724Y-47373334D01*
X93491842Y-47373889D01*
X93491744Y-47373734D01*
X93430217Y-47398855D01*
X93417588Y-47399500D01*
X90300098Y-47399500D01*
X90233059Y-47379815D01*
X90212417Y-47363181D01*
X90136819Y-47287583D01*
X90103334Y-47226260D01*
X90100500Y-47199902D01*
X90100500Y-47057215D01*
X90120185Y-46990176D01*
X90172989Y-46944421D01*
X90242147Y-46934477D01*
X90293392Y-46954114D01*
X90332144Y-46980008D01*
X90332159Y-46980016D01*
X90455063Y-47030923D01*
X90496034Y-47047894D01*
X90496036Y-47047894D01*
X90496041Y-47047896D01*
X90670004Y-47082499D01*
X90670007Y-47082500D01*
X90670009Y-47082500D01*
X90847393Y-47082500D01*
X90847394Y-47082499D01*
X90905382Y-47070964D01*
X91021358Y-47047896D01*
X91021361Y-47047894D01*
X91021366Y-47047894D01*
X91185247Y-46980013D01*
X91332735Y-46881464D01*
X91458164Y-46756035D01*
X91556713Y-46608547D01*
X91558162Y-46605050D01*
X91585245Y-46539664D01*
X91624594Y-46444666D01*
X91630704Y-46413953D01*
X91659199Y-46270695D01*
X91659200Y-46270693D01*
X91659200Y-40674260D01*
X91678885Y-40607221D01*
X91695514Y-40586584D01*
X93211300Y-39070797D01*
X93240530Y-39049120D01*
X93244834Y-39046818D01*
X93244847Y-39046813D01*
X93392335Y-38948264D01*
X93517764Y-38822835D01*
X93616313Y-38675347D01*
X93640674Y-38616535D01*
X93684194Y-38511466D01*
X93684196Y-38511458D01*
X93718800Y-38337492D01*
X93718800Y-38160106D01*
X93718799Y-38160104D01*
X93684196Y-37986141D01*
X93684193Y-37986132D01*
X93616316Y-37822259D01*
X93616309Y-37822246D01*
X93517764Y-37674765D01*
X93517761Y-37674761D01*
X93392338Y-37549338D01*
X93392334Y-37549335D01*
X93244847Y-37450787D01*
X93240523Y-37448476D01*
X93211300Y-37426801D01*
X88636819Y-32852319D01*
X88603334Y-32790996D01*
X88600500Y-32764638D01*
X88600500Y-30127648D01*
X89499500Y-30127648D01*
X89499500Y-31332352D01*
X89501992Y-31348085D01*
X89531522Y-31534534D01*
X89594781Y-31729223D01*
X89687715Y-31911613D01*
X89808028Y-32077213D01*
X89952786Y-32221971D01*
X90079790Y-32314243D01*
X90118390Y-32342287D01*
X90234607Y-32401503D01*
X90300776Y-32435218D01*
X90300778Y-32435218D01*
X90300781Y-32435220D01*
X90405137Y-32469127D01*
X90495465Y-32498477D01*
X90546865Y-32506618D01*
X90697648Y-32530500D01*
X90697649Y-32530500D01*
X90902351Y-32530500D01*
X90902352Y-32530500D01*
X91104534Y-32498477D01*
X91299219Y-32435220D01*
X91481610Y-32342287D01*
X91574590Y-32274732D01*
X91647213Y-32221971D01*
X91647215Y-32221968D01*
X91647219Y-32221966D01*
X91791966Y-32077219D01*
X91791968Y-32077215D01*
X91791971Y-32077213D01*
X91879748Y-31956396D01*
X91912287Y-31911610D01*
X92005220Y-31729219D01*
X92068477Y-31534534D01*
X92100500Y-31332352D01*
X92100500Y-30127648D01*
X92899500Y-30127648D01*
X92899500Y-31332352D01*
X92901992Y-31348085D01*
X92931522Y-31534534D01*
X92994781Y-31729223D01*
X93087715Y-31911613D01*
X93208028Y-32077213D01*
X93352786Y-32221971D01*
X93479790Y-32314243D01*
X93518390Y-32342287D01*
X93634607Y-32401503D01*
X93700776Y-32435218D01*
X93700778Y-32435218D01*
X93700781Y-32435220D01*
X93805137Y-32469127D01*
X93895465Y-32498477D01*
X93946865Y-32506618D01*
X94097648Y-32530500D01*
X94097649Y-32530500D01*
X94302351Y-32530500D01*
X94302352Y-32530500D01*
X94504534Y-32498477D01*
X94699219Y-32435220D01*
X94881610Y-32342287D01*
X94974590Y-32274732D01*
X95047213Y-32221971D01*
X95047215Y-32221968D01*
X95047219Y-32221966D01*
X95191966Y-32077219D01*
X95191968Y-32077215D01*
X95191971Y-32077213D01*
X95279748Y-31956396D01*
X95312287Y-31911610D01*
X95405220Y-31729219D01*
X95468477Y-31534534D01*
X95500500Y-31332352D01*
X95500500Y-30127648D01*
X95474887Y-29965937D01*
X95468477Y-29925465D01*
X95423761Y-29787845D01*
X95405220Y-29730781D01*
X95405218Y-29730778D01*
X95405218Y-29730776D01*
X95347539Y-29617576D01*
X95312287Y-29548390D01*
X95304556Y-29537749D01*
X95191971Y-29382786D01*
X95047213Y-29238028D01*
X94881613Y-29117715D01*
X94881612Y-29117714D01*
X94881610Y-29117713D01*
X94804723Y-29078537D01*
X94699223Y-29024781D01*
X94504534Y-28961522D01*
X94329995Y-28933878D01*
X94302352Y-28929500D01*
X94097648Y-28929500D01*
X94073329Y-28933351D01*
X93895465Y-28961522D01*
X93700776Y-29024781D01*
X93518386Y-29117715D01*
X93352786Y-29238028D01*
X93208028Y-29382786D01*
X93087715Y-29548386D01*
X92994781Y-29730776D01*
X92931522Y-29925465D01*
X92906562Y-30083062D01*
X92899500Y-30127648D01*
X92100500Y-30127648D01*
X92074887Y-29965937D01*
X92068477Y-29925465D01*
X92023761Y-29787845D01*
X92005220Y-29730781D01*
X92005218Y-29730778D01*
X92005218Y-29730776D01*
X91947539Y-29617576D01*
X91912287Y-29548390D01*
X91904556Y-29537749D01*
X91791971Y-29382786D01*
X91647213Y-29238028D01*
X91481613Y-29117715D01*
X91481612Y-29117714D01*
X91481610Y-29117713D01*
X91404723Y-29078537D01*
X91299223Y-29024781D01*
X91104534Y-28961522D01*
X90929995Y-28933878D01*
X90902352Y-28929500D01*
X90697648Y-28929500D01*
X90673329Y-28933351D01*
X90495465Y-28961522D01*
X90300776Y-29024781D01*
X90118386Y-29117715D01*
X89952786Y-29238028D01*
X89808028Y-29382786D01*
X89687715Y-29548386D01*
X89594781Y-29730776D01*
X89531522Y-29925465D01*
X89506562Y-30083062D01*
X89499500Y-30127648D01*
X88600500Y-30127648D01*
X88600500Y-29324362D01*
X88620185Y-29257323D01*
X88636819Y-29236681D01*
X94899462Y-22974038D01*
X94899464Y-22974036D01*
X94945939Y-22904481D01*
X94998013Y-22826547D01*
X95044002Y-22715519D01*
X95065895Y-22662666D01*
X95100500Y-22488692D01*
X95100500Y-22311308D01*
X95100500Y-18760047D01*
X95120185Y-18693008D01*
X95136819Y-18672366D01*
X95191966Y-18617219D01*
X95191968Y-18617215D01*
X95191971Y-18617213D01*
X95277831Y-18499035D01*
X95312287Y-18451610D01*
X95405220Y-18269219D01*
X95468477Y-18074534D01*
X95500500Y-17872352D01*
X95500500Y-16667648D01*
X95487071Y-16582862D01*
X95468477Y-16465465D01*
X95425127Y-16332049D01*
X95405220Y-16270781D01*
X95405218Y-16270778D01*
X95405218Y-16270776D01*
X95356426Y-16175018D01*
X95312287Y-16088390D01*
X95271742Y-16032584D01*
X95191971Y-15922786D01*
X95047213Y-15778028D01*
X94881613Y-15657715D01*
X94881612Y-15657714D01*
X94881610Y-15657713D01*
X94824653Y-15628691D01*
X94699223Y-15564781D01*
X94504534Y-15501522D01*
X94329995Y-15473878D01*
X94302352Y-15469500D01*
X94097648Y-15469500D01*
X94073329Y-15473351D01*
X93895465Y-15501522D01*
X93700776Y-15564781D01*
X93518386Y-15657715D01*
X93352786Y-15778028D01*
X93208028Y-15922786D01*
X93087715Y-16088386D01*
X92994781Y-16270776D01*
X92931522Y-16465465D01*
X92899500Y-16667648D01*
X92899500Y-17872351D01*
X92931522Y-18074534D01*
X92994781Y-18269223D01*
X93058691Y-18394653D01*
X93074899Y-18426462D01*
X93087715Y-18451613D01*
X93208028Y-18617213D01*
X93263181Y-18672366D01*
X93296666Y-18733689D01*
X93299500Y-18760047D01*
X93299500Y-21975638D01*
X93279815Y-22042677D01*
X93263181Y-22063319D01*
X87000537Y-28325962D01*
X87000536Y-28325964D01*
X86994221Y-28335415D01*
X86901988Y-28473449D01*
X86901987Y-28473452D01*
X86881913Y-28521916D01*
X86881913Y-28521917D01*
X86834105Y-28637333D01*
X86834103Y-28637341D01*
X86804721Y-28785053D01*
X86804722Y-28785054D01*
X86799500Y-28811309D01*
X86799500Y-33277696D01*
X86834103Y-33451658D01*
X86834105Y-33451666D01*
X86863357Y-33522286D01*
X86901984Y-33615542D01*
X86901985Y-33615543D01*
X86901987Y-33615547D01*
X86955554Y-33695714D01*
X86955554Y-33695715D01*
X87000537Y-33763038D01*
X87000540Y-33763041D01*
X90750113Y-37512613D01*
X90783598Y-37573936D01*
X90778614Y-37643628D01*
X90736742Y-37699561D01*
X90671278Y-37723978D01*
X90648549Y-37723514D01*
X90522704Y-37709335D01*
X90522696Y-37709335D01*
X90343450Y-37729530D01*
X90343445Y-37729531D01*
X90173176Y-37789111D01*
X90020437Y-37885084D01*
X89892884Y-38012637D01*
X89796910Y-38165378D01*
X89737330Y-38335650D01*
X89727537Y-38422568D01*
X89700470Y-38486982D01*
X89691998Y-38496365D01*
X89446086Y-38742278D01*
X89334281Y-38854082D01*
X89334279Y-38854085D01*
X89322179Y-38875044D01*
X89294274Y-38923377D01*
X89255223Y-38991015D01*
X89214299Y-39143743D01*
X89214299Y-39143745D01*
X89214299Y-39311846D01*
X89214300Y-39311859D01*
X89214300Y-44205701D01*
X89194615Y-44272740D01*
X89177981Y-44293382D01*
X89131286Y-44340077D01*
X89131284Y-44340080D01*
X89019481Y-44451882D01*
X89019479Y-44451884D01*
X89005324Y-44476403D01*
X88988352Y-44505800D01*
X88940423Y-44588815D01*
X88899499Y-44741543D01*
X88899499Y-44741545D01*
X88899499Y-44909646D01*
X88899500Y-44909659D01*
X88899500Y-47413330D01*
X88899499Y-47413348D01*
X88899499Y-47579054D01*
X88899498Y-47579054D01*
X88921825Y-47662378D01*
X88940423Y-47731785D01*
X88961457Y-47768216D01*
X88991784Y-47820745D01*
X89019479Y-47868715D01*
X89538583Y-48387819D01*
X89572068Y-48449142D01*
X89567084Y-48518834D01*
X89525212Y-48574767D01*
X89459748Y-48599184D01*
X89450902Y-48599500D01*
X89431362Y-48599500D01*
X89364323Y-48579815D01*
X89343681Y-48563181D01*
X86921541Y-46141040D01*
X86921534Y-46141034D01*
X86774048Y-46042488D01*
X86610166Y-45974605D01*
X86610158Y-45974603D01*
X86436196Y-45940000D01*
X86436192Y-45940000D01*
X86258808Y-45940000D01*
X86258803Y-45940000D01*
X86084841Y-45974603D01*
X86084833Y-45974605D01*
X85920951Y-46042488D01*
X85773465Y-46141034D01*
X85773458Y-46141040D01*
X85648040Y-46266458D01*
X85648034Y-46266465D01*
X85549488Y-46413951D01*
X85481605Y-46577833D01*
X85481603Y-46577841D01*
X85447000Y-46751803D01*
X82867900Y-46751803D01*
X82867900Y-44663569D01*
X82842902Y-44537902D01*
X82842901Y-44537901D01*
X82842901Y-44537897D01*
X82793865Y-44419514D01*
X82793864Y-44419513D01*
X82793860Y-44419505D01*
X82766806Y-44379017D01*
X82766804Y-44379015D01*
X82722676Y-44312971D01*
X82722674Y-44312969D01*
X82722672Y-44312966D01*
X82586819Y-44177113D01*
X82553334Y-44115790D01*
X82550500Y-44089432D01*
X82550500Y-30533708D01*
X82570185Y-30466669D01*
X82586819Y-30446027D01*
X82633127Y-30399719D01*
X82694450Y-30366234D01*
X82720808Y-30363400D01*
X84211971Y-30363400D01*
X84296515Y-30346582D01*
X84337644Y-30338401D01*
X84456027Y-30289365D01*
X84489050Y-30267300D01*
X84562569Y-30218177D01*
X84598223Y-30182522D01*
X84659544Y-30149037D01*
X84672019Y-30146983D01*
X84679255Y-30146168D01*
X84849522Y-30086589D01*
X85002262Y-29990616D01*
X85129816Y-29863062D01*
X85225789Y-29710322D01*
X85285368Y-29540055D01*
X85285369Y-29540049D01*
X85305565Y-29360803D01*
X85305565Y-29360796D01*
X85285369Y-29181550D01*
X85285368Y-29181545D01*
X85270081Y-29137857D01*
X85225789Y-29011278D01*
X85190629Y-28955322D01*
X85163993Y-28912931D01*
X85129816Y-28858538D01*
X85002262Y-28730984D01*
X84994441Y-28726070D01*
X84849523Y-28635011D01*
X84679254Y-28575431D01*
X84679249Y-28575430D01*
X84500004Y-28555235D01*
X84499996Y-28555235D01*
X84320750Y-28575430D01*
X84320745Y-28575431D01*
X84150476Y-28635011D01*
X83997737Y-28730984D01*
X83989281Y-28739441D01*
X83927958Y-28772926D01*
X83858266Y-28767942D01*
X83802333Y-28726070D01*
X83777916Y-28660606D01*
X83777600Y-28651760D01*
X83777600Y-20302967D01*
X83796607Y-20236994D01*
X83852888Y-20147424D01*
X83857157Y-20135224D01*
X83912468Y-19977155D01*
X83915634Y-19949055D01*
X83932665Y-19797903D01*
X83932665Y-19797896D01*
X83912469Y-19618650D01*
X83912468Y-19618645D01*
X83852888Y-19448376D01*
X83813682Y-19385980D01*
X83756916Y-19295638D01*
X83629362Y-19168084D01*
X83598357Y-19148602D01*
X83476623Y-19072111D01*
X83306354Y-19012531D01*
X83306349Y-19012530D01*
X83127104Y-18992335D01*
X83127096Y-18992335D01*
X82947850Y-19012530D01*
X82947845Y-19012531D01*
X82777576Y-19072111D01*
X82624837Y-19168084D01*
X82497284Y-19295637D01*
X82401311Y-19448376D01*
X82341731Y-19618645D01*
X82341730Y-19618650D01*
X82321535Y-19797896D01*
X82321535Y-19797903D01*
X82341730Y-19977149D01*
X82341731Y-19977154D01*
X82401311Y-20147424D01*
X82457593Y-20236994D01*
X82476600Y-20302967D01*
X82476600Y-24890091D01*
X82456915Y-24957130D01*
X82404111Y-25002885D01*
X82334953Y-25012829D01*
X82271397Y-24983804D01*
X82264919Y-24977772D01*
X80394073Y-23106926D01*
X80325565Y-23061151D01*
X80287527Y-23035735D01*
X80169144Y-22986699D01*
X80169140Y-22986698D01*
X80165205Y-22985915D01*
X80161269Y-22985132D01*
X80161266Y-22985131D01*
X80161266Y-22985132D01*
X80043471Y-22961700D01*
X80043469Y-22961700D01*
X76431531Y-22961700D01*
X76431529Y-22961700D01*
X76305860Y-22986697D01*
X76305854Y-22986699D01*
X76286001Y-22994923D01*
X76187477Y-23035732D01*
X76187463Y-23035740D01*
X76080932Y-23106921D01*
X76080925Y-23106927D01*
X75668175Y-23519677D01*
X75606852Y-23553162D01*
X75594388Y-23555215D01*
X75587152Y-23556030D01*
X75587144Y-23556032D01*
X75416878Y-23615610D01*
X75264137Y-23711584D01*
X75136584Y-23839137D01*
X75040611Y-23991876D01*
X74981031Y-24162145D01*
X74981030Y-24162150D01*
X74960835Y-24341396D01*
X74960835Y-24341403D01*
X74981030Y-24520649D01*
X74981031Y-24520654D01*
X75040611Y-24690923D01*
X75136584Y-24843662D01*
X75264138Y-24971216D01*
X75416878Y-25067189D01*
X75548996Y-25113419D01*
X75587145Y-25126768D01*
X75587150Y-25126769D01*
X75766396Y-25146965D01*
X75766400Y-25146965D01*
X75766404Y-25146965D01*
X75945649Y-25126769D01*
X75945652Y-25126768D01*
X75945655Y-25126768D01*
X76115922Y-25067189D01*
X76268662Y-24971216D01*
X76396216Y-24843662D01*
X76492189Y-24690922D01*
X76551768Y-24520655D01*
X76552582Y-24513425D01*
X76579645Y-24449011D01*
X76588102Y-24439643D01*
X76728728Y-24299017D01*
X76790051Y-24265534D01*
X76816408Y-24262700D01*
X78615301Y-24262700D01*
X78682340Y-24282385D01*
X78728095Y-24335189D01*
X78738039Y-24404347D01*
X78709014Y-24467903D01*
X78702982Y-24474381D01*
X72929247Y-30248116D01*
X72867924Y-30281601D01*
X72798232Y-30276617D01*
X72742299Y-30234745D01*
X72717882Y-30169281D01*
X72718346Y-30146551D01*
X72738565Y-29967102D01*
X72738565Y-29967096D01*
X72718369Y-29787850D01*
X72718368Y-29787845D01*
X72708644Y-29760055D01*
X72658789Y-29617578D01*
X72623066Y-29560726D01*
X72609763Y-29539554D01*
X72562816Y-29464838D01*
X72435262Y-29337284D01*
X72317885Y-29263531D01*
X72282521Y-29241310D01*
X72112249Y-29181730D01*
X72025330Y-29171937D01*
X71960916Y-29144870D01*
X71951533Y-29136398D01*
X71292119Y-28476983D01*
X71258634Y-28415660D01*
X71255800Y-28389302D01*
X71255800Y-23272812D01*
X71275485Y-23205773D01*
X71282855Y-23195497D01*
X71285110Y-23192667D01*
X71285116Y-23192662D01*
X71381089Y-23039922D01*
X71440668Y-22869655D01*
X71440669Y-22869649D01*
X71460865Y-22690403D01*
X71460865Y-22690396D01*
X71440669Y-22511150D01*
X71440668Y-22511145D01*
X71381088Y-22340876D01*
X71341882Y-22278480D01*
X71285116Y-22188138D01*
X71157562Y-22060584D01*
X71129063Y-22042677D01*
X71004823Y-21964611D01*
X70834554Y-21905031D01*
X70834549Y-21905030D01*
X70655304Y-21884835D01*
X70655296Y-21884835D01*
X70476050Y-21905030D01*
X70476045Y-21905031D01*
X70305776Y-21964611D01*
X70153037Y-22060584D01*
X70025484Y-22188137D01*
X69929511Y-22340876D01*
X69869931Y-22511145D01*
X69869930Y-22511150D01*
X69849735Y-22690396D01*
X69849735Y-22690403D01*
X69869930Y-22869649D01*
X69869931Y-22869654D01*
X69929511Y-23039923D01*
X70025485Y-23192663D01*
X70027745Y-23195497D01*
X70028634Y-23197675D01*
X70029189Y-23198558D01*
X70029034Y-23198655D01*
X70054155Y-23260183D01*
X70054800Y-23272812D01*
X70054800Y-28602730D01*
X70054799Y-28602748D01*
X70054799Y-28768454D01*
X70054798Y-28768454D01*
X70095723Y-28921187D01*
X70095725Y-28921190D01*
X70119012Y-28961523D01*
X70121771Y-28966301D01*
X70152470Y-29019473D01*
X70174779Y-29058114D01*
X70174781Y-29058117D01*
X70293649Y-29176985D01*
X70293655Y-29176990D01*
X71102298Y-29985633D01*
X71135783Y-30046956D01*
X71137837Y-30059430D01*
X71147630Y-30146349D01*
X71147631Y-30146354D01*
X71147632Y-30146355D01*
X71149552Y-30151841D01*
X71207210Y-30316621D01*
X71278451Y-30430000D01*
X71303184Y-30469362D01*
X71430738Y-30596916D01*
X71583478Y-30692889D01*
X71753505Y-30752384D01*
X71753745Y-30752468D01*
X71753750Y-30752469D01*
X71932996Y-30772665D01*
X71933000Y-30772665D01*
X71933004Y-30772665D01*
X72112249Y-30752469D01*
X72112251Y-30752468D01*
X72112255Y-30752468D01*
X72112258Y-30752466D01*
X72112262Y-30752466D01*
X72190261Y-30725173D01*
X72260040Y-30721611D01*
X72320667Y-30756339D01*
X72352895Y-30818332D01*
X72347105Y-30881217D01*
X72348027Y-30881464D01*
X72346589Y-30886829D01*
X72346490Y-30887908D01*
X72345930Y-30889289D01*
X72345923Y-30889314D01*
X72345923Y-30889315D01*
X72304999Y-31042043D01*
X72304999Y-31042045D01*
X72304999Y-31210146D01*
X72305000Y-31210159D01*
X72305000Y-49019217D01*
X72285315Y-49086256D01*
X72232511Y-49132011D01*
X72167117Y-49142437D01*
X72010004Y-49124735D01*
X72009996Y-49124735D01*
X71830750Y-49144930D01*
X71830745Y-49144931D01*
X71660476Y-49204511D01*
X71507737Y-49300484D01*
X71380184Y-49428037D01*
X71284211Y-49580776D01*
X71224631Y-49751045D01*
X71224630Y-49751050D01*
X71204435Y-49930296D01*
X71204435Y-49930303D01*
X71224630Y-50109549D01*
X71224631Y-50109554D01*
X71284211Y-50279823D01*
X71338294Y-50365895D01*
X71380184Y-50432562D01*
X71507738Y-50560116D01*
X71615757Y-50627988D01*
X71637464Y-50645300D01*
X71648349Y-50656185D01*
X71648355Y-50656190D01*
X72331639Y-51339474D01*
X72331649Y-51339485D01*
X72335979Y-51343815D01*
X72335980Y-51343816D01*
X72447784Y-51455620D01*
X72509640Y-51491332D01*
X72547177Y-51513004D01*
X72584712Y-51534676D01*
X72584714Y-51534676D01*
X72584715Y-51534677D01*
X72737442Y-51575600D01*
X72737443Y-51575600D01*
X77618203Y-51575600D01*
X77685242Y-51595285D01*
X77705884Y-51611919D01*
X78730181Y-52636216D01*
X78763666Y-52697539D01*
X78766500Y-52723897D01*
X78766500Y-52875500D01*
X78746815Y-52942539D01*
X78694011Y-52988294D01*
X78642500Y-52999500D01*
X61234108Y-52999500D01*
X61106812Y-53033608D01*
X60992686Y-53099500D01*
X60992683Y-53099502D01*
X60899502Y-53192683D01*
X60899500Y-53192686D01*
X60833608Y-53306812D01*
X60799500Y-53434108D01*
X60799500Y-59375500D01*
X60779815Y-59442539D01*
X60727011Y-59488294D01*
X60675500Y-59499500D01*
X12624500Y-59499500D01*
X12557461Y-59479815D01*
X12511706Y-59427011D01*
X12500500Y-59375500D01*
X12500500Y-53878711D01*
X17149500Y-53878711D01*
X17149500Y-54121288D01*
X17181161Y-54361785D01*
X17243947Y-54596104D01*
X17316819Y-54772032D01*
X17336776Y-54820212D01*
X17458064Y-55030289D01*
X17458066Y-55030292D01*
X17458067Y-55030293D01*
X17605733Y-55222736D01*
X17605739Y-55222743D01*
X17777256Y-55394260D01*
X17777263Y-55394266D01*
X17882478Y-55475000D01*
X17969711Y-55541936D01*
X18179788Y-55663224D01*
X18403900Y-55756054D01*
X18638211Y-55818838D01*
X18818586Y-55842584D01*
X18878711Y-55850500D01*
X18878712Y-55850500D01*
X19121289Y-55850500D01*
X19169388Y-55844167D01*
X19361789Y-55818838D01*
X19596100Y-55756054D01*
X19820212Y-55663224D01*
X20030289Y-55541936D01*
X20222738Y-55394265D01*
X20394265Y-55222738D01*
X20541936Y-55030289D01*
X20663224Y-54820212D01*
X20756054Y-54596100D01*
X20818838Y-54361789D01*
X20850500Y-54121288D01*
X20850500Y-53878712D01*
X20818838Y-53638211D01*
X20756054Y-53403900D01*
X20755323Y-53402135D01*
X24529500Y-53402135D01*
X24529500Y-55197870D01*
X24529501Y-55197876D01*
X24535908Y-55257483D01*
X24586202Y-55392328D01*
X24586206Y-55392335D01*
X24672452Y-55507544D01*
X24672455Y-55507547D01*
X24787664Y-55593793D01*
X24787671Y-55593797D01*
X24922517Y-55644091D01*
X24922516Y-55644091D01*
X24929444Y-55644835D01*
X24982127Y-55650500D01*
X26777872Y-55650499D01*
X26837483Y-55644091D01*
X26972331Y-55593796D01*
X27087546Y-55507546D01*
X27173796Y-55392331D01*
X27222810Y-55260916D01*
X27264681Y-55204984D01*
X27330145Y-55180566D01*
X27398418Y-55195417D01*
X27426673Y-55216569D01*
X27548599Y-55338495D01*
X27628240Y-55394260D01*
X27742165Y-55474032D01*
X27742167Y-55474033D01*
X27742170Y-55474035D01*
X27956337Y-55573903D01*
X28184592Y-55635063D01*
X28361034Y-55650500D01*
X28419999Y-55655659D01*
X28420000Y-55655659D01*
X28420001Y-55655659D01*
X28473571Y-55650972D01*
X28655408Y-55635063D01*
X28883663Y-55573903D01*
X29097830Y-55474035D01*
X29291401Y-55338495D01*
X29458495Y-55171401D01*
X29588425Y-54985842D01*
X29643002Y-54942217D01*
X29712500Y-54935023D01*
X29774855Y-54966546D01*
X29791575Y-54985842D01*
X29921500Y-55171395D01*
X29921505Y-55171401D01*
X30088599Y-55338495D01*
X30168240Y-55394260D01*
X30282165Y-55474032D01*
X30282167Y-55474033D01*
X30282170Y-55474035D01*
X30287898Y-55476706D01*
X30340339Y-55522872D01*
X30359500Y-55589090D01*
X30359500Y-57598947D01*
X30359499Y-57598965D01*
X30359499Y-57764671D01*
X30359498Y-57764671D01*
X30400422Y-57917400D01*
X30422229Y-57955170D01*
X30422231Y-57955173D01*
X30479479Y-58054331D01*
X30479481Y-58054334D01*
X30598349Y-58173202D01*
X30598355Y-58173207D01*
X30833383Y-58408235D01*
X30866868Y-58469558D01*
X30868922Y-58482032D01*
X30878715Y-58568951D01*
X30938295Y-58739223D01*
X31034269Y-58891964D01*
X31161823Y-59019518D01*
X31314563Y-59115491D01*
X31484830Y-59175070D01*
X31484835Y-59175071D01*
X31664081Y-59195267D01*
X31664085Y-59195267D01*
X31664089Y-59195267D01*
X31843334Y-59175071D01*
X31843337Y-59175070D01*
X31843340Y-59175070D01*
X32013607Y-59115491D01*
X32166347Y-59019518D01*
X32293901Y-58891964D01*
X32389874Y-58739224D01*
X32449453Y-58568957D01*
X32459247Y-58482032D01*
X32469650Y-58389705D01*
X32469650Y-58389698D01*
X32449454Y-58210452D01*
X32449453Y-58210447D01*
X32433948Y-58166137D01*
X32389874Y-58040180D01*
X32293901Y-57887440D01*
X32166347Y-57759886D01*
X32050810Y-57687289D01*
X32013606Y-57663912D01*
X31865934Y-57612240D01*
X31843340Y-57604334D01*
X31843339Y-57604333D01*
X31843334Y-57604332D01*
X31756417Y-57594539D01*
X31692003Y-57567472D01*
X31682620Y-57559000D01*
X31596819Y-57473199D01*
X31563334Y-57411876D01*
X31560500Y-57385518D01*
X31560500Y-55589090D01*
X31580185Y-55522051D01*
X31632101Y-55476706D01*
X31637830Y-55474035D01*
X31831401Y-55338495D01*
X31998495Y-55171401D01*
X32128730Y-54985405D01*
X32183307Y-54941781D01*
X32252805Y-54934587D01*
X32315160Y-54966110D01*
X32331879Y-54985405D01*
X32461890Y-55171078D01*
X32628917Y-55338105D01*
X32822421Y-55473600D01*
X33036507Y-55573429D01*
X33036516Y-55573433D01*
X33250000Y-55630634D01*
X33250000Y-54733012D01*
X33307007Y-54765925D01*
X33434174Y-54800000D01*
X33565826Y-54800000D01*
X33692993Y-54765925D01*
X33750000Y-54733012D01*
X33750000Y-55630633D01*
X33963483Y-55573433D01*
X33963492Y-55573429D01*
X34177578Y-55473600D01*
X34371082Y-55338105D01*
X34538105Y-55171082D01*
X34668119Y-54985405D01*
X34722696Y-54941781D01*
X34792195Y-54934588D01*
X34854549Y-54966110D01*
X34871269Y-54985405D01*
X35001505Y-55171401D01*
X35168599Y-55338495D01*
X35248240Y-55394260D01*
X35362165Y-55474032D01*
X35362167Y-55474033D01*
X35362170Y-55474035D01*
X35576337Y-55573903D01*
X35804592Y-55635063D01*
X35965189Y-55649113D01*
X35972596Y-55650171D01*
X35975930Y-55650499D01*
X35975931Y-55650500D01*
X35975932Y-55650500D01*
X35976175Y-55650524D01*
X35986429Y-55650972D01*
X36039999Y-55655659D01*
X36040000Y-55655659D01*
X36040001Y-55655659D01*
X36093571Y-55650972D01*
X36103825Y-55650524D01*
X36104068Y-55650500D01*
X36104069Y-55650500D01*
X36104069Y-55650499D01*
X36107405Y-55650171D01*
X36114817Y-55649113D01*
X36275408Y-55635063D01*
X36503663Y-55573903D01*
X36717830Y-55474035D01*
X36911401Y-55338495D01*
X37078495Y-55171401D01*
X37214035Y-54977830D01*
X37313903Y-54763663D01*
X37375063Y-54535408D01*
X37395659Y-54300000D01*
X37395411Y-54297171D01*
X37378504Y-54103920D01*
X37375063Y-54064592D01*
X37320723Y-53861789D01*
X37313905Y-53836344D01*
X37313904Y-53836343D01*
X37313903Y-53836337D01*
X37214035Y-53622171D01*
X37212054Y-53619341D01*
X37078494Y-53428597D01*
X36911402Y-53261506D01*
X36911401Y-53261505D01*
X36802448Y-53185215D01*
X36743376Y-53143852D01*
X36699751Y-53089275D01*
X36690500Y-53042277D01*
X36690500Y-45980907D01*
X36710185Y-45913868D01*
X36726815Y-45893230D01*
X37292524Y-45327520D01*
X37353845Y-45294037D01*
X37366319Y-45291983D01*
X37373555Y-45291168D01*
X37543822Y-45231589D01*
X37696562Y-45135616D01*
X37824116Y-45008062D01*
X37920089Y-44855322D01*
X37979668Y-44685055D01*
X37986171Y-44627345D01*
X37999865Y-44505801D01*
X37999865Y-44505796D01*
X37979669Y-44326550D01*
X37979668Y-44326545D01*
X37974918Y-44312971D01*
X37920089Y-44156278D01*
X37910360Y-44140795D01*
X37835234Y-44021232D01*
X37824116Y-44003538D01*
X37696562Y-43875984D01*
X37543823Y-43780011D01*
X37373554Y-43720431D01*
X37373549Y-43720430D01*
X37194304Y-43700235D01*
X37194296Y-43700235D01*
X37015050Y-43720430D01*
X37015045Y-43720431D01*
X36844776Y-43780011D01*
X36692037Y-43875984D01*
X36564484Y-44003537D01*
X36468510Y-44156278D01*
X36408932Y-44326544D01*
X36408930Y-44326552D01*
X36408115Y-44333788D01*
X36381043Y-44398200D01*
X36372577Y-44407575D01*
X35534724Y-45245428D01*
X35490667Y-45311364D01*
X35490668Y-45311365D01*
X35463534Y-45351974D01*
X35414499Y-45470355D01*
X35414497Y-45470361D01*
X35389500Y-45596028D01*
X35389500Y-53042278D01*
X35369815Y-53109317D01*
X35336623Y-53143853D01*
X35168597Y-53261505D01*
X35001508Y-53428594D01*
X34871269Y-53614595D01*
X34816692Y-53658219D01*
X34747193Y-53665412D01*
X34684839Y-53633890D01*
X34668119Y-53614594D01*
X34538113Y-53428926D01*
X34538108Y-53428920D01*
X34371082Y-53261894D01*
X34177578Y-53126399D01*
X33963492Y-53026570D01*
X33963486Y-53026567D01*
X33750000Y-52969364D01*
X33750000Y-53866988D01*
X33692993Y-53834075D01*
X33565826Y-53800000D01*
X33434174Y-53800000D01*
X33307007Y-53834075D01*
X33250000Y-53866988D01*
X33250000Y-52969364D01*
X33249999Y-52969364D01*
X33036513Y-53026567D01*
X33036507Y-53026570D01*
X32822422Y-53126399D01*
X32822420Y-53126400D01*
X32628926Y-53261886D01*
X32628920Y-53261891D01*
X32461891Y-53428920D01*
X32461890Y-53428922D01*
X32331880Y-53614595D01*
X32277303Y-53658219D01*
X32207804Y-53665412D01*
X32145450Y-53633890D01*
X32128730Y-53614594D01*
X31998494Y-53428597D01*
X31831402Y-53261506D01*
X31831395Y-53261501D01*
X31637834Y-53125967D01*
X31637830Y-53125965D01*
X31581080Y-53099502D01*
X31423663Y-53026097D01*
X31423659Y-53026096D01*
X31423655Y-53026094D01*
X31195413Y-52964938D01*
X31195403Y-52964936D01*
X30960001Y-52944341D01*
X30959999Y-52944341D01*
X30724596Y-52964936D01*
X30724586Y-52964938D01*
X30496344Y-53026094D01*
X30496335Y-53026098D01*
X30282171Y-53125964D01*
X30282169Y-53125965D01*
X30088597Y-53261505D01*
X29921505Y-53428597D01*
X29791575Y-53614158D01*
X29736998Y-53657783D01*
X29667500Y-53664977D01*
X29605145Y-53633454D01*
X29588425Y-53614158D01*
X29458494Y-53428597D01*
X29291402Y-53261506D01*
X29291395Y-53261501D01*
X29097834Y-53125967D01*
X29097830Y-53125965D01*
X29041080Y-53099502D01*
X28883663Y-53026097D01*
X28883659Y-53026096D01*
X28883655Y-53026094D01*
X28655413Y-52964938D01*
X28655403Y-52964936D01*
X28420001Y-52944341D01*
X28419999Y-52944341D01*
X28184596Y-52964936D01*
X28184586Y-52964938D01*
X27956344Y-53026094D01*
X27956335Y-53026098D01*
X27742171Y-53125964D01*
X27742169Y-53125965D01*
X27548600Y-53261503D01*
X27426673Y-53383430D01*
X27365350Y-53416914D01*
X27295658Y-53411930D01*
X27239725Y-53370058D01*
X27222810Y-53339081D01*
X27173797Y-53207671D01*
X27173793Y-53207664D01*
X27087547Y-53092455D01*
X27087544Y-53092452D01*
X26972335Y-53006206D01*
X26972328Y-53006202D01*
X26837482Y-52955908D01*
X26837483Y-52955908D01*
X26777883Y-52949501D01*
X26777881Y-52949500D01*
X26777873Y-52949500D01*
X26777864Y-52949500D01*
X24982129Y-52949500D01*
X24982123Y-52949501D01*
X24922516Y-52955908D01*
X24787671Y-53006202D01*
X24787664Y-53006206D01*
X24672455Y-53092452D01*
X24672452Y-53092455D01*
X24586206Y-53207664D01*
X24586202Y-53207671D01*
X24535908Y-53342517D01*
X24529501Y-53402116D01*
X24529500Y-53402135D01*
X20755323Y-53402135D01*
X20663224Y-53179788D01*
X20541936Y-52969711D01*
X20453199Y-52854066D01*
X20394266Y-52777263D01*
X20394260Y-52777256D01*
X20222743Y-52605739D01*
X20222736Y-52605733D01*
X20030293Y-52458067D01*
X20030292Y-52458066D01*
X20030289Y-52458064D01*
X19820212Y-52336776D01*
X19820205Y-52336773D01*
X19596104Y-52243947D01*
X19361785Y-52181161D01*
X19121289Y-52149500D01*
X19121288Y-52149500D01*
X18878712Y-52149500D01*
X18878711Y-52149500D01*
X18638214Y-52181161D01*
X18403895Y-52243947D01*
X18179794Y-52336773D01*
X18179785Y-52336777D01*
X17969706Y-52458067D01*
X17777263Y-52605733D01*
X17777256Y-52605739D01*
X17605739Y-52777256D01*
X17605733Y-52777263D01*
X17458067Y-52969706D01*
X17336777Y-53179785D01*
X17336773Y-53179794D01*
X17243947Y-53403895D01*
X17181161Y-53638214D01*
X17149500Y-53878711D01*
X12500500Y-53878711D01*
X12500500Y-47157854D01*
X23756298Y-47157854D01*
X23797224Y-47310589D01*
X23797225Y-47310590D01*
X23800281Y-47315883D01*
X23816115Y-47364001D01*
X23833730Y-47520349D01*
X23833731Y-47520354D01*
X23893311Y-47690623D01*
X23942067Y-47768217D01*
X23989284Y-47843362D01*
X24116838Y-47970916D01*
X24269578Y-48066889D01*
X24439845Y-48126468D01*
X24439850Y-48126469D01*
X24619096Y-48146665D01*
X24619100Y-48146665D01*
X24619104Y-48146665D01*
X24798349Y-48126469D01*
X24798352Y-48126468D01*
X24798355Y-48126468D01*
X24968622Y-48066889D01*
X25121362Y-47970916D01*
X25248916Y-47843362D01*
X25344889Y-47690622D01*
X25404468Y-47520355D01*
X25407017Y-47497738D01*
X25424665Y-47341100D01*
X25424665Y-47341096D01*
X25404469Y-47161850D01*
X25404468Y-47161845D01*
X25383935Y-47103166D01*
X25344889Y-46991578D01*
X25248916Y-46838838D01*
X25121362Y-46711284D01*
X25121356Y-46711279D01*
X25015328Y-46644657D01*
X24969037Y-46592323D01*
X24957300Y-46539664D01*
X24957300Y-45754686D01*
X24976985Y-45687647D01*
X25029789Y-45641892D01*
X25098947Y-45631948D01*
X25147270Y-45649692D01*
X25196591Y-45680682D01*
X25268375Y-45725788D01*
X25438645Y-45785368D01*
X25438650Y-45785369D01*
X25617896Y-45805565D01*
X25617900Y-45805565D01*
X25617904Y-45805565D01*
X25797149Y-45785369D01*
X25797152Y-45785368D01*
X25797155Y-45785368D01*
X25967422Y-45725789D01*
X26120162Y-45629816D01*
X26247716Y-45502262D01*
X26343689Y-45349522D01*
X26403268Y-45179255D01*
X26403269Y-45179249D01*
X26423465Y-45000003D01*
X26423465Y-44999996D01*
X26403269Y-44820750D01*
X26403268Y-44820745D01*
X26343689Y-44650478D01*
X26247716Y-44497738D01*
X26247714Y-44497736D01*
X26247713Y-44497734D01*
X26245450Y-44494896D01*
X26244559Y-44492715D01*
X26244011Y-44491842D01*
X26244164Y-44491745D01*
X26219044Y-44430209D01*
X26218400Y-44417587D01*
X26218400Y-36705259D01*
X26218401Y-36705246D01*
X26218401Y-36537145D01*
X26218401Y-36537143D01*
X26177477Y-36384415D01*
X26131293Y-36304423D01*
X26098420Y-36247484D01*
X25986616Y-36135680D01*
X25986615Y-36135679D01*
X25982285Y-36131349D01*
X25982274Y-36131339D01*
X25938515Y-36087580D01*
X25905030Y-36026257D01*
X25910014Y-35956565D01*
X25938511Y-35912223D01*
X33238837Y-28611896D01*
X33300158Y-28578413D01*
X33369850Y-28583397D01*
X33425783Y-28625269D01*
X33449736Y-28685695D01*
X33460930Y-28785050D01*
X33460931Y-28785054D01*
X33520511Y-28955323D01*
X33616485Y-29108063D01*
X33618745Y-29110897D01*
X33619634Y-29113075D01*
X33620189Y-29113958D01*
X33620034Y-29114055D01*
X33645155Y-29175583D01*
X33645800Y-29188212D01*
X33645800Y-42671502D01*
X33626115Y-42738541D01*
X33609481Y-42759183D01*
X32392765Y-43975898D01*
X32331442Y-44009383D01*
X32318968Y-44011437D01*
X32232050Y-44021230D01*
X32061778Y-44080810D01*
X31909037Y-44176784D01*
X31781484Y-44304337D01*
X31685511Y-44457076D01*
X31625931Y-44627345D01*
X31625930Y-44627350D01*
X31605735Y-44806596D01*
X31605735Y-44806603D01*
X31625930Y-44985849D01*
X31625931Y-44985854D01*
X31685511Y-45156123D01*
X31770366Y-45291168D01*
X31781484Y-45308862D01*
X31909038Y-45436416D01*
X32061778Y-45532389D01*
X32232045Y-45591968D01*
X32232050Y-45591969D01*
X32411296Y-45612165D01*
X32411300Y-45612165D01*
X32411304Y-45612165D01*
X32590549Y-45591969D01*
X32590552Y-45591968D01*
X32590555Y-45591968D01*
X32760822Y-45532389D01*
X32913562Y-45436416D01*
X33041116Y-45308862D01*
X33137089Y-45156122D01*
X33196668Y-44985855D01*
X33206461Y-44898929D01*
X33233526Y-44834518D01*
X33241990Y-44825143D01*
X34604806Y-43462328D01*
X34604811Y-43462324D01*
X34615014Y-43452120D01*
X34615016Y-43452120D01*
X34726820Y-43340316D01*
X34783981Y-43241309D01*
X34805877Y-43203385D01*
X34846801Y-43050657D01*
X34846801Y-42892543D01*
X34846801Y-42884948D01*
X34846800Y-42884930D01*
X34846800Y-33369554D01*
X46399498Y-33369554D01*
X46440423Y-33522285D01*
X46461495Y-33558781D01*
X46461496Y-33558785D01*
X46461497Y-33558785D01*
X46483327Y-33596597D01*
X46519479Y-33659214D01*
X46519481Y-33659217D01*
X46638349Y-33778085D01*
X46638355Y-33778090D01*
X51242598Y-38382334D01*
X51276083Y-38443657D01*
X51278137Y-38456131D01*
X51287930Y-38543049D01*
X51347510Y-38713321D01*
X51424573Y-38835965D01*
X51443484Y-38866062D01*
X51571038Y-38993616D01*
X51590179Y-39005643D01*
X51693875Y-39070800D01*
X51723778Y-39089589D01*
X51878541Y-39143743D01*
X51894045Y-39149168D01*
X51894050Y-39149169D01*
X52073296Y-39169365D01*
X52073300Y-39169365D01*
X52073304Y-39169365D01*
X52252549Y-39149169D01*
X52252552Y-39149168D01*
X52252555Y-39149168D01*
X52422822Y-39089589D01*
X52575562Y-38993616D01*
X52703116Y-38866062D01*
X52799089Y-38713322D01*
X52858668Y-38543055D01*
X52862227Y-38511467D01*
X52878865Y-38363803D01*
X52878865Y-38363796D01*
X52858669Y-38184550D01*
X52858668Y-38184545D01*
X52825129Y-38088696D01*
X52799089Y-38014278D01*
X52703116Y-37861538D01*
X52575562Y-37733984D01*
X52558899Y-37723514D01*
X52422821Y-37638010D01*
X52252549Y-37578430D01*
X52165631Y-37568637D01*
X52101217Y-37541570D01*
X52091834Y-37533098D01*
X50387932Y-35829196D01*
X51267735Y-35829196D01*
X51267735Y-35829203D01*
X51287930Y-36008449D01*
X51287931Y-36008454D01*
X51347511Y-36178723D01*
X51380634Y-36231437D01*
X51443484Y-36331462D01*
X51571038Y-36459016D01*
X51606032Y-36481004D01*
X51705211Y-36543323D01*
X51723778Y-36554989D01*
X51755529Y-36566099D01*
X51894045Y-36614568D01*
X51894050Y-36614569D01*
X52073296Y-36634765D01*
X52073300Y-36634765D01*
X52073304Y-36634765D01*
X52252549Y-36614569D01*
X52252552Y-36614568D01*
X52252555Y-36614568D01*
X52422822Y-36554989D01*
X52575562Y-36459016D01*
X52703116Y-36331462D01*
X52799089Y-36178722D01*
X52858668Y-36008455D01*
X52863163Y-35968562D01*
X52878865Y-35829203D01*
X52878865Y-35829196D01*
X52858669Y-35649950D01*
X52858666Y-35649937D01*
X52799090Y-35479681D01*
X52799089Y-35479678D01*
X52755768Y-35410733D01*
X52742806Y-35390103D01*
X52723800Y-35324131D01*
X52723800Y-30468196D01*
X53218135Y-30468196D01*
X53218135Y-30468203D01*
X53238330Y-30647449D01*
X53238331Y-30647454D01*
X53297911Y-30817723D01*
X53393882Y-30970459D01*
X53396141Y-30973291D01*
X53397030Y-30975468D01*
X53397589Y-30976358D01*
X53397433Y-30976455D01*
X53422554Y-31037976D01*
X53423199Y-31050610D01*
X53423199Y-31195354D01*
X53423198Y-31195354D01*
X53423199Y-31195357D01*
X53464123Y-31348085D01*
X53482425Y-31379784D01*
X53493507Y-31398978D01*
X53543179Y-31485015D01*
X53662049Y-31603885D01*
X53662055Y-31603890D01*
X54433100Y-32374935D01*
X54466585Y-32436258D01*
X54461601Y-32505950D01*
X54419729Y-32561883D01*
X54386373Y-32579658D01*
X54324778Y-32601210D01*
X54172037Y-32697184D01*
X54044484Y-32824737D01*
X53948511Y-32977476D01*
X53888931Y-33147745D01*
X53888930Y-33147750D01*
X53868735Y-33326996D01*
X53868735Y-33327003D01*
X53888930Y-33506249D01*
X53888931Y-33506254D01*
X53948511Y-33676523D01*
X54011087Y-33776111D01*
X54044484Y-33829262D01*
X54172038Y-33956816D01*
X54324778Y-34052789D01*
X54365554Y-34067057D01*
X54422330Y-34107779D01*
X54448078Y-34172732D01*
X54448600Y-34184099D01*
X54448600Y-46758687D01*
X54428915Y-46825726D01*
X54421550Y-46835996D01*
X54419286Y-46838834D01*
X54323311Y-46991576D01*
X54263731Y-47161845D01*
X54263730Y-47161850D01*
X54243535Y-47341096D01*
X54243535Y-47341100D01*
X54263730Y-47520349D01*
X54263731Y-47520354D01*
X54323311Y-47690623D01*
X54372067Y-47768217D01*
X54419284Y-47843362D01*
X54546838Y-47970916D01*
X54699578Y-48066889D01*
X54869845Y-48126468D01*
X54869850Y-48126469D01*
X55049096Y-48146665D01*
X55049100Y-48146665D01*
X55049104Y-48146665D01*
X55228349Y-48126469D01*
X55228352Y-48126468D01*
X55228355Y-48126468D01*
X55398622Y-48066889D01*
X55551362Y-47970916D01*
X55678916Y-47843362D01*
X55774889Y-47690622D01*
X55834468Y-47520355D01*
X55837017Y-47497738D01*
X55854665Y-47341100D01*
X55854665Y-47341096D01*
X55834469Y-47161850D01*
X55834468Y-47161845D01*
X55813935Y-47103166D01*
X55774889Y-46991578D01*
X55678916Y-46838838D01*
X55678914Y-46838836D01*
X55678913Y-46838834D01*
X55676650Y-46835996D01*
X55675759Y-46833815D01*
X55675211Y-46832942D01*
X55675364Y-46832845D01*
X55650244Y-46771309D01*
X55649600Y-46758687D01*
X55649600Y-33890797D01*
X55669285Y-33823758D01*
X55722089Y-33778003D01*
X55791247Y-33768059D01*
X55854803Y-33797084D01*
X55861281Y-33803116D01*
X57388081Y-35329916D01*
X57421566Y-35391239D01*
X57424400Y-35417597D01*
X57424400Y-41088087D01*
X57404715Y-41155126D01*
X57397350Y-41165396D01*
X57395086Y-41168234D01*
X57299111Y-41320976D01*
X57239531Y-41491245D01*
X57239530Y-41491250D01*
X57219335Y-41670496D01*
X57219335Y-41670503D01*
X57239530Y-41849749D01*
X57239531Y-41849754D01*
X57299111Y-42020023D01*
X57384155Y-42155368D01*
X57395084Y-42172762D01*
X57522638Y-42300316D01*
X57675378Y-42396289D01*
X57791466Y-42436910D01*
X57845645Y-42455868D01*
X57845650Y-42455869D01*
X58024896Y-42476065D01*
X58024900Y-42476065D01*
X58024904Y-42476065D01*
X58204149Y-42455869D01*
X58204152Y-42455868D01*
X58204155Y-42455868D01*
X58204156Y-42455867D01*
X58204159Y-42455867D01*
X58258334Y-42436910D01*
X58342240Y-42407549D01*
X58412017Y-42403987D01*
X58470875Y-42436910D01*
X62166723Y-46132758D01*
X62200208Y-46194081D01*
X62195224Y-46263773D01*
X62184036Y-46286411D01*
X62090810Y-46434778D01*
X62031230Y-46605050D01*
X62021437Y-46691967D01*
X61994370Y-46756381D01*
X61985898Y-46765764D01*
X56685386Y-52066278D01*
X56573581Y-52178082D01*
X56573579Y-52178085D01*
X56571803Y-52181162D01*
X56535555Y-52243946D01*
X56494523Y-52315015D01*
X56453599Y-52467743D01*
X56453599Y-52467745D01*
X56453599Y-52635846D01*
X56453600Y-52635859D01*
X56453600Y-56200287D01*
X56433915Y-56267326D01*
X56426550Y-56277596D01*
X56424286Y-56280434D01*
X56328311Y-56433176D01*
X56268731Y-56603445D01*
X56268730Y-56603450D01*
X56248535Y-56782696D01*
X56248535Y-56782703D01*
X56268730Y-56961949D01*
X56268731Y-56961954D01*
X56328311Y-57132223D01*
X56414857Y-57269959D01*
X56424284Y-57284962D01*
X56551838Y-57412516D01*
X56704578Y-57508489D01*
X56848930Y-57559000D01*
X56874845Y-57568068D01*
X56874850Y-57568069D01*
X57054096Y-57588265D01*
X57054100Y-57588265D01*
X57054104Y-57588265D01*
X57233349Y-57568069D01*
X57233352Y-57568068D01*
X57233355Y-57568068D01*
X57403622Y-57508489D01*
X57556362Y-57412516D01*
X57578526Y-57390351D01*
X57639845Y-57356868D01*
X57709536Y-57361851D01*
X57765471Y-57403722D01*
X57771195Y-57412056D01*
X57803684Y-57463762D01*
X57931238Y-57591316D01*
X58083978Y-57687289D01*
X58254245Y-57746868D01*
X58254250Y-57746869D01*
X58433496Y-57767065D01*
X58433500Y-57767065D01*
X58433504Y-57767065D01*
X58612749Y-57746869D01*
X58612752Y-57746868D01*
X58612755Y-57746868D01*
X58783022Y-57687289D01*
X58935762Y-57591316D01*
X59063316Y-57463762D01*
X59159289Y-57311022D01*
X59218868Y-57140755D01*
X59218869Y-57140749D01*
X59239065Y-56961503D01*
X59239065Y-56961496D01*
X59218869Y-56782250D01*
X59218868Y-56782245D01*
X59199607Y-56727200D01*
X59159289Y-56611978D01*
X59156299Y-56607220D01*
X59079636Y-56485211D01*
X59063316Y-56459238D01*
X58935762Y-56331684D01*
X58934131Y-56330659D01*
X58783021Y-56235710D01*
X58612749Y-56176130D01*
X58559716Y-56170155D01*
X58495302Y-56143088D01*
X58455747Y-56085493D01*
X58449600Y-56046935D01*
X58449600Y-54053291D01*
X58469285Y-53986252D01*
X58522089Y-53940497D01*
X58559717Y-53930071D01*
X58636949Y-53921369D01*
X58636952Y-53921368D01*
X58636955Y-53921368D01*
X58807222Y-53861789D01*
X58959962Y-53765816D01*
X59087516Y-53638262D01*
X59183489Y-53485522D01*
X59243068Y-53315255D01*
X59252861Y-53228329D01*
X59279926Y-53163918D01*
X59288390Y-53154543D01*
X61265316Y-51177619D01*
X61326639Y-51144134D01*
X61352997Y-51141300D01*
X63729931Y-51141300D01*
X63729947Y-51141301D01*
X63737543Y-51141301D01*
X63895654Y-51141301D01*
X63895657Y-51141301D01*
X64048385Y-51100377D01*
X64128440Y-51054157D01*
X64185316Y-51021320D01*
X64297120Y-50909516D01*
X64297120Y-50909514D01*
X64307324Y-50899311D01*
X64307328Y-50899306D01*
X66970835Y-48235798D01*
X67032156Y-48202315D01*
X67044611Y-48200263D01*
X67131555Y-48190468D01*
X67301822Y-48130889D01*
X67454562Y-48034916D01*
X67582116Y-47907362D01*
X67678089Y-47754622D01*
X67737668Y-47584355D01*
X67738265Y-47579057D01*
X67757865Y-47405103D01*
X67757865Y-47405096D01*
X67737669Y-47225850D01*
X67737668Y-47225845D01*
X67728590Y-47199902D01*
X67678089Y-47055578D01*
X67582116Y-46902838D01*
X67454562Y-46775284D01*
X67423932Y-46756038D01*
X67301823Y-46679311D01*
X67131554Y-46619731D01*
X67131549Y-46619730D01*
X66952304Y-46599535D01*
X66952296Y-46599535D01*
X66773050Y-46619730D01*
X66773045Y-46619731D01*
X66602776Y-46679311D01*
X66450037Y-46775284D01*
X66322484Y-46902837D01*
X66226510Y-47055578D01*
X66166930Y-47225850D01*
X66157137Y-47312768D01*
X66130070Y-47377182D01*
X66121598Y-47386565D01*
X65144767Y-48363396D01*
X65083444Y-48396881D01*
X65013752Y-48391897D01*
X64957819Y-48350025D01*
X64940044Y-48316669D01*
X64890989Y-48176478D01*
X64865509Y-48135927D01*
X64795016Y-48023738D01*
X64795014Y-48023736D01*
X64795013Y-48023734D01*
X64792750Y-48020896D01*
X64791859Y-48018715D01*
X64791311Y-48017842D01*
X64791464Y-48017745D01*
X64766344Y-47956209D01*
X64765700Y-47943587D01*
X64765700Y-47202943D01*
X64763420Y-47194436D01*
X64763419Y-47194432D01*
X64740612Y-47109315D01*
X64740612Y-47109313D01*
X64724778Y-47050218D01*
X64724776Y-47050213D01*
X64645724Y-46913290D01*
X64645721Y-46913286D01*
X64645720Y-46913284D01*
X64533916Y-46801480D01*
X64533915Y-46801479D01*
X64529585Y-46797149D01*
X64529574Y-46797139D01*
X59041290Y-41308855D01*
X59041288Y-41308852D01*
X58922417Y-41189981D01*
X58922416Y-41189980D01*
X58818208Y-41129816D01*
X58818207Y-41129815D01*
X58806229Y-41122900D01*
X58785485Y-41110923D01*
X58785482Y-41110922D01*
X58785479Y-41110920D01*
X58717305Y-41092653D01*
X58657645Y-41056288D01*
X58627117Y-40993441D01*
X58625400Y-40972879D01*
X58625400Y-35038443D01*
X58625399Y-35038439D01*
X58618257Y-35011785D01*
X58616215Y-35004162D01*
X58584477Y-34885715D01*
X58555539Y-34835595D01*
X58505420Y-34748784D01*
X58393616Y-34636980D01*
X58393615Y-34636979D01*
X58389285Y-34632649D01*
X58389274Y-34632639D01*
X56886815Y-33130180D01*
X56853330Y-33068857D01*
X56858314Y-32999165D01*
X56869503Y-32976526D01*
X56962689Y-32828222D01*
X57022268Y-32657955D01*
X57032061Y-32571029D01*
X57059126Y-32506618D01*
X57067590Y-32497243D01*
X58383406Y-31181428D01*
X58383411Y-31181424D01*
X58393614Y-31171220D01*
X58393616Y-31171220D01*
X58505420Y-31059416D01*
X58572670Y-30942935D01*
X58584477Y-30922485D01*
X58625401Y-30769757D01*
X58625401Y-30611643D01*
X58625401Y-30604048D01*
X58625400Y-30604030D01*
X58625400Y-27519396D01*
X59593935Y-27519396D01*
X59593935Y-27519403D01*
X59614130Y-27698649D01*
X59614131Y-27698654D01*
X59673711Y-27868923D01*
X59769684Y-28021662D01*
X59897238Y-28149216D01*
X60049978Y-28245189D01*
X60081669Y-28256278D01*
X60220245Y-28304768D01*
X60220250Y-28304769D01*
X60399496Y-28324965D01*
X60399500Y-28324965D01*
X60399504Y-28324965D01*
X60578749Y-28304769D01*
X60578752Y-28304768D01*
X60578755Y-28304768D01*
X60749022Y-28245189D01*
X60901762Y-28149216D01*
X61029316Y-28021662D01*
X61125289Y-27868922D01*
X61184868Y-27698655D01*
X61188919Y-27662700D01*
X61205065Y-27519403D01*
X61205065Y-27519396D01*
X61184869Y-27340150D01*
X61184868Y-27340145D01*
X61170959Y-27300395D01*
X61125289Y-27169878D01*
X61029316Y-27017138D01*
X61029314Y-27017136D01*
X61029313Y-27017134D01*
X61027050Y-27014296D01*
X61026159Y-27012115D01*
X61025611Y-27011242D01*
X61025764Y-27011145D01*
X61000644Y-26949609D01*
X61000000Y-26936987D01*
X61000000Y-22865197D01*
X61019685Y-22798158D01*
X61036319Y-22777516D01*
X62609284Y-21204551D01*
X64750836Y-19062998D01*
X64812157Y-19029515D01*
X64824610Y-19027463D01*
X64911555Y-19017668D01*
X65081822Y-18958089D01*
X65234562Y-18862116D01*
X65362116Y-18734562D01*
X65458089Y-18581822D01*
X65517668Y-18411555D01*
X65517669Y-18411549D01*
X65537865Y-18232303D01*
X65537865Y-18232296D01*
X65517669Y-18053050D01*
X65517668Y-18053045D01*
X65458088Y-17882776D01*
X65395445Y-17783081D01*
X65362116Y-17730038D01*
X65234562Y-17602484D01*
X65188493Y-17573537D01*
X65081823Y-17506511D01*
X64911554Y-17446931D01*
X64911549Y-17446930D01*
X64732304Y-17426735D01*
X64732296Y-17426735D01*
X64553050Y-17446930D01*
X64553045Y-17446931D01*
X64382776Y-17506511D01*
X64230037Y-17602484D01*
X64102484Y-17730037D01*
X64006510Y-17882778D01*
X63946930Y-18053050D01*
X63937137Y-18139967D01*
X63910070Y-18204381D01*
X63901598Y-18213764D01*
X60030786Y-22084578D01*
X59918981Y-22196382D01*
X59918980Y-22196384D01*
X59884636Y-22255870D01*
X59839923Y-22333315D01*
X59798999Y-22486043D01*
X59798999Y-22486045D01*
X59798999Y-22654146D01*
X59799000Y-22654159D01*
X59799000Y-26936987D01*
X59779315Y-27004026D01*
X59771950Y-27014296D01*
X59769686Y-27017134D01*
X59673711Y-27169876D01*
X59614131Y-27340145D01*
X59614130Y-27340150D01*
X59593935Y-27519396D01*
X58625400Y-27519396D01*
X58625400Y-24352912D01*
X58645085Y-24285873D01*
X58652455Y-24275597D01*
X58654710Y-24272767D01*
X58654716Y-24272762D01*
X58750689Y-24120022D01*
X58810268Y-23949755D01*
X58810779Y-23945223D01*
X58830465Y-23770503D01*
X58830465Y-23770496D01*
X58810269Y-23591250D01*
X58810268Y-23591245D01*
X58797946Y-23556030D01*
X58750689Y-23420978D01*
X58654716Y-23268238D01*
X58527162Y-23140684D01*
X58473429Y-23106921D01*
X58374423Y-23044711D01*
X58204154Y-22985131D01*
X58204149Y-22985130D01*
X58024904Y-22964935D01*
X58024896Y-22964935D01*
X57845650Y-22985130D01*
X57845645Y-22985131D01*
X57675376Y-23044711D01*
X57522637Y-23140684D01*
X57395084Y-23268237D01*
X57299111Y-23420976D01*
X57239531Y-23591245D01*
X57239530Y-23591250D01*
X57219335Y-23770496D01*
X57219335Y-23770503D01*
X57239530Y-23949749D01*
X57239531Y-23949754D01*
X57299111Y-24120023D01*
X57359415Y-24215996D01*
X57390542Y-24265534D01*
X57395085Y-24272763D01*
X57397345Y-24275597D01*
X57398234Y-24277775D01*
X57398789Y-24278658D01*
X57398634Y-24278755D01*
X57423755Y-24340283D01*
X57424400Y-24352912D01*
X57424400Y-30390602D01*
X57404715Y-30457641D01*
X57388081Y-30478283D01*
X56218365Y-31647998D01*
X56157042Y-31681483D01*
X56144568Y-31683537D01*
X56057650Y-31693330D01*
X55887377Y-31752910D01*
X55739072Y-31846097D01*
X55671835Y-31865097D01*
X55605000Y-31844729D01*
X55585419Y-31828784D01*
X54751833Y-30995198D01*
X54718348Y-30933875D01*
X54723332Y-30864183D01*
X54734521Y-30841544D01*
X54749488Y-30817724D01*
X54765255Y-30772665D01*
X54809068Y-30647455D01*
X54809843Y-30640578D01*
X54829265Y-30468203D01*
X54829265Y-30468196D01*
X54809069Y-30288950D01*
X54809068Y-30288945D01*
X54784305Y-30218176D01*
X54749489Y-30118678D01*
X54729325Y-30086588D01*
X54704423Y-30046956D01*
X54653516Y-29965938D01*
X54525962Y-29838384D01*
X54373223Y-29742411D01*
X54202954Y-29682831D01*
X54202949Y-29682830D01*
X54023704Y-29662635D01*
X54023696Y-29662635D01*
X53844450Y-29682830D01*
X53844445Y-29682831D01*
X53674176Y-29742411D01*
X53521437Y-29838384D01*
X53393884Y-29965937D01*
X53297911Y-30118676D01*
X53238331Y-30288945D01*
X53238330Y-30288950D01*
X53218135Y-30468196D01*
X52723800Y-30468196D01*
X52723800Y-29648407D01*
X52743485Y-29581368D01*
X52760114Y-29560731D01*
X54069824Y-28251020D01*
X54131145Y-28217537D01*
X54143619Y-28215483D01*
X54150855Y-28214668D01*
X54321122Y-28155089D01*
X54473862Y-28059116D01*
X54601416Y-27931562D01*
X54697389Y-27778822D01*
X54756968Y-27608555D01*
X54767013Y-27519403D01*
X54777165Y-27429303D01*
X54777165Y-27429296D01*
X54756969Y-27250050D01*
X54756968Y-27250045D01*
X54753569Y-27240331D01*
X54697389Y-27079778D01*
X54601416Y-26927038D01*
X54473862Y-26799484D01*
X54321123Y-26703511D01*
X54150854Y-26643931D01*
X54150849Y-26643930D01*
X53971604Y-26623735D01*
X53971596Y-26623735D01*
X53792350Y-26643930D01*
X53792345Y-26643931D01*
X53622076Y-26703511D01*
X53469337Y-26799484D01*
X53341784Y-26927037D01*
X53245810Y-27079778D01*
X53186232Y-27250044D01*
X53186230Y-27250052D01*
X53185415Y-27257288D01*
X53158343Y-27321700D01*
X53149877Y-27331075D01*
X51568024Y-28912928D01*
X51517401Y-28988691D01*
X51517402Y-28988692D01*
X51496834Y-29019474D01*
X51447799Y-29137855D01*
X51447798Y-29137859D01*
X51422800Y-29263528D01*
X51422800Y-35324131D01*
X51403794Y-35390103D01*
X51347511Y-35479677D01*
X51347509Y-35479681D01*
X51287933Y-35649937D01*
X51287930Y-35649950D01*
X51267735Y-35829196D01*
X50387932Y-35829196D01*
X47636819Y-33078083D01*
X47603334Y-33016760D01*
X47600500Y-32990402D01*
X47600500Y-18550396D01*
X47620185Y-18483357D01*
X47636814Y-18462720D01*
X49116035Y-16983498D01*
X49177356Y-16950015D01*
X49189811Y-16947963D01*
X49276755Y-16938168D01*
X49447022Y-16878589D01*
X49599762Y-16782616D01*
X49727316Y-16655062D01*
X49823289Y-16502322D01*
X49882868Y-16332055D01*
X49888981Y-16277799D01*
X49903065Y-16152803D01*
X49903065Y-16152796D01*
X49882869Y-15973550D01*
X49882868Y-15973545D01*
X49865105Y-15922781D01*
X49823289Y-15803278D01*
X49821276Y-15800075D01*
X49749667Y-15686110D01*
X49727316Y-15650538D01*
X49599762Y-15522984D01*
X49565607Y-15501523D01*
X49447023Y-15427011D01*
X49276754Y-15367431D01*
X49276749Y-15367430D01*
X49097504Y-15347235D01*
X49097496Y-15347235D01*
X48918250Y-15367430D01*
X48918245Y-15367431D01*
X48747976Y-15427011D01*
X48595237Y-15522984D01*
X48467684Y-15650537D01*
X48371710Y-15803278D01*
X48312130Y-15973550D01*
X48302337Y-16060468D01*
X48275270Y-16124882D01*
X48266798Y-16134265D01*
X46631286Y-17769778D01*
X46519481Y-17881582D01*
X46519479Y-17881585D01*
X46469361Y-17968394D01*
X46469359Y-17968396D01*
X46440425Y-18018509D01*
X46440424Y-18018510D01*
X46424544Y-18077772D01*
X46399499Y-18171243D01*
X46399499Y-18171245D01*
X46399499Y-18339346D01*
X46399500Y-18339359D01*
X46399500Y-33203830D01*
X46399499Y-33203848D01*
X46399499Y-33369554D01*
X46399498Y-33369554D01*
X34846800Y-33369554D01*
X34846800Y-29188212D01*
X34866485Y-29121173D01*
X34873855Y-29110897D01*
X34876110Y-29108067D01*
X34876116Y-29108062D01*
X34972089Y-28955322D01*
X35031668Y-28785055D01*
X35033538Y-28768457D01*
X35051865Y-28605803D01*
X35051865Y-28605796D01*
X35031669Y-28426550D01*
X35031668Y-28426545D01*
X34996472Y-28325962D01*
X34972089Y-28256278D01*
X34968786Y-28251022D01*
X34876115Y-28103537D01*
X34748562Y-27975984D01*
X34595823Y-27880011D01*
X34425554Y-27820431D01*
X34425550Y-27820430D01*
X34326195Y-27809236D01*
X34261781Y-27782169D01*
X34222226Y-27724574D01*
X34220089Y-27654737D01*
X34252396Y-27598337D01*
X35368713Y-26482021D01*
X35368716Y-26482020D01*
X35480520Y-26370216D01*
X35530639Y-26283404D01*
X35559577Y-26233285D01*
X35600501Y-26080557D01*
X35600501Y-25922443D01*
X35600501Y-25914848D01*
X35600500Y-25914830D01*
X35600500Y-19079840D01*
X35620185Y-19012801D01*
X35659220Y-18974415D01*
X35711432Y-18942088D01*
X35872427Y-18795322D01*
X36003712Y-18621472D01*
X36100817Y-18426459D01*
X36160435Y-18216923D01*
X36180536Y-18000000D01*
X36160435Y-17783077D01*
X36100817Y-17573541D01*
X36003712Y-17378528D01*
X35872427Y-17204678D01*
X35748423Y-17091634D01*
X35712145Y-17031927D01*
X35713905Y-16962079D01*
X35748423Y-16908365D01*
X35872427Y-16795322D01*
X36003712Y-16621472D01*
X36100817Y-16426459D01*
X36160435Y-16216923D01*
X36180536Y-16000000D01*
X36160435Y-15783077D01*
X36100817Y-15573541D01*
X36003712Y-15378528D01*
X35872427Y-15204678D01*
X35711432Y-15057912D01*
X35711428Y-15057909D01*
X35711423Y-15057906D01*
X35526213Y-14943229D01*
X35526207Y-14943226D01*
X35441113Y-14910260D01*
X35323069Y-14864530D01*
X35108926Y-14824500D01*
X34891074Y-14824500D01*
X34676931Y-14864530D01*
X34637476Y-14879815D01*
X34473792Y-14943226D01*
X34473786Y-14943229D01*
X34288576Y-15057906D01*
X34288566Y-15057913D01*
X34127573Y-15204676D01*
X34098953Y-15242576D01*
X34042844Y-15284211D01*
X33973132Y-15288902D01*
X33911950Y-15255159D01*
X33901047Y-15242576D01*
X33872426Y-15204676D01*
X33711433Y-15057913D01*
X33711423Y-15057906D01*
X33526213Y-14943229D01*
X33526207Y-14943226D01*
X33441113Y-14910260D01*
X33323069Y-14864530D01*
X33108926Y-14824500D01*
X32891074Y-14824500D01*
X32676931Y-14864530D01*
X32637476Y-14879815D01*
X32473792Y-14943226D01*
X32473786Y-14943229D01*
X32288576Y-15057906D01*
X32288566Y-15057913D01*
X32127573Y-15204676D01*
X32098953Y-15242576D01*
X32042844Y-15284211D01*
X31973132Y-15288902D01*
X31911950Y-15255159D01*
X31901047Y-15242576D01*
X31872426Y-15204676D01*
X31711433Y-15057913D01*
X31711423Y-15057906D01*
X31526213Y-14943229D01*
X31526207Y-14943226D01*
X31441113Y-14910260D01*
X31323069Y-14864530D01*
X31108926Y-14824500D01*
X30891074Y-14824500D01*
X30676931Y-14864530D01*
X30637476Y-14879815D01*
X30473792Y-14943226D01*
X30473786Y-14943229D01*
X30288576Y-15057906D01*
X30288566Y-15057913D01*
X30127573Y-15204676D01*
X30098953Y-15242576D01*
X30042844Y-15284211D01*
X29973132Y-15288902D01*
X29911950Y-15255159D01*
X29901047Y-15242576D01*
X29872426Y-15204676D01*
X29711433Y-15057913D01*
X29711423Y-15057906D01*
X29526213Y-14943229D01*
X29526207Y-14943226D01*
X29441113Y-14910260D01*
X29323069Y-14864530D01*
X29108926Y-14824500D01*
X28891074Y-14824500D01*
X28676931Y-14864530D01*
X28637476Y-14879815D01*
X28473792Y-14943226D01*
X28473786Y-14943229D01*
X28288576Y-15057906D01*
X28288566Y-15057913D01*
X28127573Y-15204676D01*
X28098953Y-15242576D01*
X28042844Y-15284211D01*
X27973132Y-15288902D01*
X27911950Y-15255159D01*
X27901047Y-15242576D01*
X27872426Y-15204676D01*
X27711433Y-15057913D01*
X27711423Y-15057906D01*
X27526213Y-14943229D01*
X27526207Y-14943226D01*
X27441113Y-14910260D01*
X27323069Y-14864530D01*
X27108926Y-14824500D01*
X26891074Y-14824500D01*
X26676931Y-14864530D01*
X26637476Y-14879815D01*
X26473792Y-14943226D01*
X26473786Y-14943229D01*
X26288576Y-15057906D01*
X26288566Y-15057913D01*
X26127574Y-15204676D01*
X25996288Y-15378527D01*
X25899184Y-15573537D01*
X25839564Y-15783081D01*
X25819464Y-15999999D01*
X25819464Y-16000000D01*
X25839564Y-16216918D01*
X25839564Y-16216920D01*
X25839565Y-16216923D01*
X25872321Y-16332049D01*
X25899184Y-16426462D01*
X25977062Y-16582862D01*
X25996288Y-16621472D01*
X26068963Y-16717710D01*
X26077747Y-16729341D01*
X26102439Y-16794702D01*
X26087874Y-16863037D01*
X26053105Y-16903334D01*
X25967452Y-16967455D01*
X25881206Y-17082664D01*
X25881202Y-17082671D01*
X25830908Y-17217517D01*
X25824501Y-17277116D01*
X25824500Y-17277135D01*
X25824500Y-18722870D01*
X25824501Y-18722876D01*
X25830908Y-18782483D01*
X25881202Y-18917328D01*
X25881206Y-18917335D01*
X25967452Y-19032544D01*
X25967455Y-19032547D01*
X26082664Y-19118793D01*
X26082671Y-19118797D01*
X26217517Y-19169091D01*
X26217516Y-19169091D01*
X26224444Y-19169835D01*
X26277127Y-19175500D01*
X27275400Y-19175499D01*
X27342439Y-19195183D01*
X27388194Y-19247987D01*
X27399400Y-19299499D01*
X27399400Y-28580801D01*
X27379715Y-28647840D01*
X27363081Y-28668483D01*
X27281464Y-28750099D01*
X27220140Y-28783583D01*
X27207667Y-28785637D01*
X27120750Y-28795430D01*
X26950478Y-28855010D01*
X26797737Y-28950984D01*
X26670184Y-29078537D01*
X26574211Y-29231276D01*
X26514631Y-29401545D01*
X26514630Y-29401550D01*
X26494435Y-29580796D01*
X26494435Y-29580803D01*
X26514630Y-29760049D01*
X26514631Y-29760054D01*
X26574211Y-29930323D01*
X26647497Y-30046956D01*
X26670184Y-30083062D01*
X26797738Y-30210616D01*
X26821932Y-30225818D01*
X26922405Y-30288950D01*
X26950478Y-30306589D01*
X27106136Y-30361056D01*
X27120745Y-30366168D01*
X27120750Y-30366169D01*
X27299996Y-30386365D01*
X27300000Y-30386365D01*
X27300004Y-30386365D01*
X27479249Y-30366169D01*
X27479252Y-30366168D01*
X27479255Y-30366168D01*
X27649522Y-30306589D01*
X27802262Y-30210616D01*
X27929816Y-30083062D01*
X28025789Y-29930322D01*
X28085368Y-29760055D01*
X28095161Y-29673129D01*
X28122226Y-29608718D01*
X28130690Y-29599343D01*
X28358406Y-29371628D01*
X28358411Y-29371624D01*
X28368614Y-29361420D01*
X28368616Y-29361420D01*
X28480420Y-29249616D01*
X28544942Y-29137858D01*
X28544944Y-29137857D01*
X28554576Y-29121173D01*
X28559477Y-29112685D01*
X28600400Y-28959957D01*
X28600400Y-28801843D01*
X28600400Y-19270491D01*
X28620085Y-19203452D01*
X28672889Y-19157697D01*
X28742047Y-19147753D01*
X28747154Y-19148596D01*
X28891074Y-19175500D01*
X28891076Y-19175500D01*
X29108924Y-19175500D01*
X29108926Y-19175500D01*
X29323069Y-19135470D01*
X29526210Y-19056772D01*
X29711432Y-18942088D01*
X29872427Y-18795322D01*
X29901047Y-18757422D01*
X29957153Y-18715787D01*
X30026865Y-18711094D01*
X30088048Y-18744836D01*
X30098946Y-18757414D01*
X30127573Y-18795322D01*
X30127576Y-18795325D01*
X30127578Y-18795327D01*
X30264677Y-18920309D01*
X30300959Y-18980020D01*
X30299198Y-19049867D01*
X30259955Y-19107675D01*
X30247113Y-19116939D01*
X30210436Y-19139985D01*
X30082884Y-19267537D01*
X29986911Y-19420276D01*
X29927331Y-19590545D01*
X29927330Y-19590550D01*
X29907135Y-19769796D01*
X29907135Y-19769803D01*
X29927330Y-19949049D01*
X29927331Y-19949054D01*
X29986911Y-20119323D01*
X30060849Y-20236994D01*
X30082884Y-20272062D01*
X30210438Y-20399616D01*
X30363178Y-20495589D01*
X30452583Y-20526873D01*
X30533445Y-20555168D01*
X30533450Y-20555169D01*
X30712696Y-20575365D01*
X30712700Y-20575365D01*
X30712704Y-20575365D01*
X30891949Y-20555169D01*
X30891952Y-20555168D01*
X30891955Y-20555168D01*
X31062222Y-20495589D01*
X31214962Y-20399616D01*
X31342516Y-20272062D01*
X31438489Y-20119322D01*
X31498068Y-19949055D01*
X31498677Y-19943656D01*
X31513122Y-19815440D01*
X31528956Y-19767321D01*
X31559574Y-19714289D01*
X31559576Y-19714286D01*
X31559577Y-19714284D01*
X31600501Y-19561557D01*
X31600501Y-19403442D01*
X31600501Y-19395847D01*
X31600500Y-19395829D01*
X31600500Y-19079840D01*
X31620185Y-19012801D01*
X31659220Y-18974415D01*
X31711432Y-18942088D01*
X31872427Y-18795322D01*
X31901047Y-18757422D01*
X31957153Y-18715787D01*
X32026865Y-18711094D01*
X32088048Y-18744836D01*
X32098946Y-18757414D01*
X32127573Y-18795322D01*
X32127576Y-18795325D01*
X32127578Y-18795327D01*
X32200843Y-18862116D01*
X32288568Y-18942088D01*
X32288575Y-18942092D01*
X32288576Y-18942093D01*
X32473786Y-19056770D01*
X32473792Y-19056773D01*
X32489866Y-19063000D01*
X32676931Y-19135470D01*
X32891074Y-19175500D01*
X32891076Y-19175500D01*
X33108924Y-19175500D01*
X33108926Y-19175500D01*
X33323069Y-19135470D01*
X33526210Y-19056772D01*
X33711432Y-18942088D01*
X33872427Y-18795322D01*
X33901047Y-18757422D01*
X33957153Y-18715787D01*
X34026865Y-18711094D01*
X34088048Y-18744836D01*
X34098946Y-18757414D01*
X34127573Y-18795322D01*
X34127576Y-18795325D01*
X34127578Y-18795327D01*
X34288564Y-18942085D01*
X34288566Y-18942086D01*
X34288568Y-18942088D01*
X34340778Y-18974414D01*
X34387412Y-19026439D01*
X34399500Y-19079840D01*
X34399500Y-25701403D01*
X34379815Y-25768442D01*
X34363181Y-25789084D01*
X25168981Y-34983284D01*
X25107658Y-35016769D01*
X25037966Y-35011785D01*
X24982033Y-34969913D01*
X24957616Y-34904449D01*
X24957300Y-34895603D01*
X24957300Y-32693397D01*
X24976985Y-32626358D01*
X24993619Y-32605716D01*
X25020135Y-32579200D01*
X25081458Y-32545715D01*
X25093915Y-32543663D01*
X25180855Y-32533868D01*
X25351122Y-32474289D01*
X25503862Y-32378316D01*
X25631416Y-32250762D01*
X25727389Y-32098022D01*
X25786968Y-31927755D01*
X25788581Y-31913443D01*
X25807165Y-31748503D01*
X25807165Y-31748496D01*
X25786969Y-31569250D01*
X25786968Y-31569245D01*
X25757495Y-31485016D01*
X25727389Y-31398978D01*
X25711807Y-31374180D01*
X25631415Y-31246237D01*
X25503862Y-31118684D01*
X25351123Y-31022711D01*
X25180854Y-30963131D01*
X25180849Y-30963130D01*
X25001604Y-30942935D01*
X25001596Y-30942935D01*
X24822350Y-30963130D01*
X24822345Y-30963131D01*
X24652076Y-31022711D01*
X24499337Y-31118684D01*
X24371784Y-31246237D01*
X24275810Y-31398978D01*
X24216230Y-31569250D01*
X24206437Y-31656168D01*
X24179370Y-31720582D01*
X24170898Y-31729965D01*
X23988086Y-31912778D01*
X23876281Y-32024582D01*
X23876280Y-32024584D01*
X23833881Y-32098022D01*
X23797223Y-32161515D01*
X23756299Y-32314243D01*
X23756299Y-32314245D01*
X23756299Y-32482346D01*
X23756300Y-32482359D01*
X23756300Y-46992130D01*
X23756299Y-46992148D01*
X23756299Y-47157854D01*
X23756298Y-47157854D01*
X12500500Y-47157854D01*
X12500500Y-44365500D01*
X12520185Y-44298461D01*
X12572989Y-44252706D01*
X12642147Y-44242762D01*
X12697387Y-44265184D01*
X12705712Y-44271232D01*
X12860055Y-44349873D01*
X13024799Y-44403402D01*
X13195889Y-44430500D01*
X13195890Y-44430500D01*
X13969110Y-44430500D01*
X13969111Y-44430500D01*
X14140201Y-44403402D01*
X14304945Y-44349873D01*
X14459288Y-44271232D01*
X14599428Y-44169414D01*
X14721914Y-44046928D01*
X14823732Y-43906788D01*
X14902373Y-43752445D01*
X14955902Y-43587701D01*
X14983000Y-43416611D01*
X14983000Y-43243389D01*
X16262000Y-43243389D01*
X16262000Y-43416611D01*
X16289098Y-43587701D01*
X16342627Y-43752445D01*
X16421268Y-43906788D01*
X16523086Y-44046928D01*
X16645572Y-44169414D01*
X16785712Y-44271232D01*
X16940055Y-44349873D01*
X17104799Y-44403402D01*
X17275889Y-44430500D01*
X17275890Y-44430500D01*
X18249110Y-44430500D01*
X18249111Y-44430500D01*
X18420201Y-44403402D01*
X18584945Y-44349873D01*
X18739288Y-44271232D01*
X18879428Y-44169414D01*
X19001914Y-44046928D01*
X19103732Y-43906788D01*
X19182373Y-43752445D01*
X19235902Y-43587701D01*
X19263000Y-43416611D01*
X19263000Y-43243389D01*
X19235902Y-43072299D01*
X19182373Y-42907555D01*
X19103732Y-42753212D01*
X19001914Y-42613072D01*
X18879428Y-42490586D01*
X18739288Y-42388768D01*
X18584945Y-42310127D01*
X18420201Y-42256598D01*
X18420199Y-42256597D01*
X18420198Y-42256597D01*
X18288771Y-42235781D01*
X18249111Y-42229500D01*
X18249110Y-42229500D01*
X18245579Y-42229500D01*
X18244284Y-42229119D01*
X18244248Y-42229117D01*
X18244248Y-42229109D01*
X18178540Y-42209815D01*
X18132785Y-42157011D01*
X18123079Y-42089513D01*
X18122906Y-42089495D01*
X18122978Y-42088807D01*
X18122841Y-42087853D01*
X18123420Y-42084595D01*
X18123585Y-42083027D01*
X18128413Y-42037080D01*
X18130117Y-42025855D01*
X18131278Y-42020023D01*
X18133276Y-42009974D01*
X18138000Y-41986232D01*
X18138000Y-41952379D01*
X18138679Y-41939418D01*
X18138762Y-41938624D01*
X18142822Y-41900000D01*
X18138679Y-41860580D01*
X18138000Y-41847620D01*
X18138000Y-41813771D01*
X18137338Y-41810441D01*
X18130115Y-41774132D01*
X18128413Y-41762910D01*
X18126363Y-41743402D01*
X18123585Y-41716971D01*
X18113364Y-41685515D01*
X18109680Y-41671397D01*
X18104355Y-41644626D01*
X18086378Y-41601225D01*
X18083011Y-41592098D01*
X18066715Y-41541943D01*
X18053461Y-41518987D01*
X18046292Y-41504452D01*
X18038358Y-41485295D01*
X18008613Y-41440779D01*
X18004335Y-41433898D01*
X17976459Y-41385616D01*
X17974695Y-41382560D01*
X17961355Y-41367744D01*
X17950411Y-41353673D01*
X17942545Y-41341901D01*
X17942543Y-41341899D01*
X17942541Y-41341896D01*
X17900071Y-41299427D01*
X17895601Y-41294717D01*
X17871668Y-41268137D01*
X17851550Y-41245793D01*
X17851543Y-41245788D01*
X17840745Y-41237942D01*
X17825951Y-41225307D01*
X17820599Y-41219955D01*
X17792247Y-41201011D01*
X17765213Y-41182947D01*
X17761219Y-41180163D01*
X17702662Y-41137619D01*
X17696472Y-41134863D01*
X17678030Y-41124693D01*
X17677206Y-41124142D01*
X17609592Y-41096135D01*
X17606612Y-41094854D01*
X17534533Y-41062763D01*
X17534347Y-41062724D01*
X17523842Y-41059466D01*
X17523707Y-41059914D01*
X17517874Y-41058145D01*
X17439707Y-41042596D01*
X17438119Y-41042269D01*
X17354520Y-41024500D01*
X17354519Y-41024500D01*
X17170481Y-41024500D01*
X17086894Y-41042267D01*
X17085306Y-41042593D01*
X17007124Y-41058144D01*
X17001301Y-41059911D01*
X17001165Y-41059462D01*
X16990657Y-41062723D01*
X16990517Y-41062753D01*
X16990465Y-41062764D01*
X16918367Y-41094863D01*
X16915389Y-41096142D01*
X16847798Y-41124140D01*
X16847789Y-41124145D01*
X16846962Y-41124698D01*
X16828529Y-41134862D01*
X16822348Y-41137614D01*
X16822340Y-41137618D01*
X16763771Y-41180169D01*
X16759782Y-41182948D01*
X16704408Y-41219949D01*
X16704392Y-41219962D01*
X16699038Y-41225316D01*
X16684255Y-41237941D01*
X16673454Y-41245788D01*
X16629396Y-41294719D01*
X16624929Y-41299425D01*
X16582461Y-41341893D01*
X16582453Y-41341903D01*
X16574588Y-41353673D01*
X16563644Y-41367744D01*
X16550305Y-41382558D01*
X16520668Y-41433892D01*
X16516385Y-41440779D01*
X16486642Y-41485293D01*
X16478708Y-41504447D01*
X16471538Y-41518985D01*
X16458287Y-41541936D01*
X16441989Y-41592095D01*
X16438621Y-41601225D01*
X16420645Y-41644624D01*
X16415319Y-41671397D01*
X16411634Y-41685516D01*
X16401415Y-41716969D01*
X16401414Y-41716972D01*
X16396585Y-41762912D01*
X16394883Y-41774135D01*
X16387000Y-41813770D01*
X16387000Y-41847620D01*
X16386321Y-41860580D01*
X16382178Y-41899999D01*
X16386321Y-41939418D01*
X16387000Y-41952379D01*
X16387000Y-41986229D01*
X16394883Y-42025863D01*
X16396585Y-42037087D01*
X16401414Y-42083027D01*
X16411635Y-42114485D01*
X16415320Y-42128607D01*
X16420643Y-42155368D01*
X16420644Y-42155370D01*
X16420645Y-42155374D01*
X16438616Y-42198760D01*
X16441984Y-42207890D01*
X16458286Y-42258060D01*
X16458287Y-42258061D01*
X16471535Y-42281008D01*
X16478706Y-42295548D01*
X16486642Y-42314705D01*
X16486643Y-42314708D01*
X16516378Y-42359209D01*
X16520663Y-42366099D01*
X16550303Y-42417438D01*
X16550304Y-42417439D01*
X16551355Y-42418606D01*
X16551750Y-42419429D01*
X16554127Y-42422701D01*
X16553528Y-42423135D01*
X16581588Y-42481596D01*
X16572968Y-42550932D01*
X16546893Y-42589264D01*
X16523088Y-42613069D01*
X16421268Y-42753211D01*
X16342628Y-42907552D01*
X16289097Y-43072302D01*
X16268336Y-43203385D01*
X16262000Y-43243389D01*
X14983000Y-43243389D01*
X14955902Y-43072299D01*
X14902373Y-42907555D01*
X14823732Y-42753212D01*
X14721914Y-42613072D01*
X14599428Y-42490586D01*
X14459288Y-42388768D01*
X14304945Y-42310127D01*
X14140201Y-42256598D01*
X14140199Y-42256597D01*
X14140198Y-42256597D01*
X14008771Y-42235781D01*
X13969111Y-42229500D01*
X13195889Y-42229500D01*
X13156228Y-42235781D01*
X13024802Y-42256597D01*
X12860052Y-42310128D01*
X12705708Y-42388769D01*
X12697384Y-42394818D01*
X12631578Y-42418297D01*
X12563524Y-42402471D01*
X12514830Y-42352364D01*
X12500500Y-42294499D01*
X12500500Y-35705500D01*
X12520185Y-35638461D01*
X12572989Y-35592706D01*
X12642147Y-35582762D01*
X12697387Y-35605184D01*
X12705712Y-35611232D01*
X12860055Y-35689873D01*
X13024799Y-35743402D01*
X13195889Y-35770500D01*
X13195890Y-35770500D01*
X13969110Y-35770500D01*
X13969111Y-35770500D01*
X14140201Y-35743402D01*
X14304945Y-35689873D01*
X14459288Y-35611232D01*
X14599428Y-35509414D01*
X14721914Y-35386928D01*
X14823732Y-35246788D01*
X14902373Y-35092445D01*
X14955902Y-34927701D01*
X14983000Y-34756611D01*
X14983000Y-34583389D01*
X16262000Y-34583389D01*
X16262000Y-34756610D01*
X16277016Y-34851422D01*
X16289098Y-34927701D01*
X16342627Y-35092445D01*
X16421268Y-35246788D01*
X16523086Y-35386928D01*
X16523088Y-35386930D01*
X16546891Y-35410733D01*
X16580376Y-35472056D01*
X16575392Y-35541748D01*
X16553926Y-35577159D01*
X16554124Y-35577303D01*
X16552411Y-35579660D01*
X16551375Y-35581370D01*
X16550307Y-35582555D01*
X16550307Y-35582556D01*
X16520668Y-35633892D01*
X16516385Y-35640779D01*
X16486642Y-35685293D01*
X16478708Y-35704447D01*
X16471538Y-35718985D01*
X16458287Y-35741936D01*
X16441989Y-35792095D01*
X16438621Y-35801225D01*
X16420645Y-35844624D01*
X16415319Y-35871397D01*
X16411634Y-35885516D01*
X16401415Y-35916969D01*
X16401414Y-35916972D01*
X16396585Y-35962912D01*
X16394883Y-35974135D01*
X16387000Y-36013770D01*
X16387000Y-36047620D01*
X16386321Y-36060580D01*
X16382178Y-36099999D01*
X16386321Y-36139418D01*
X16387000Y-36152379D01*
X16387000Y-36186229D01*
X16394883Y-36225863D01*
X16396585Y-36237087D01*
X16401414Y-36283027D01*
X16411635Y-36314485D01*
X16415320Y-36328607D01*
X16420643Y-36355368D01*
X16420644Y-36355370D01*
X16420645Y-36355374D01*
X16432674Y-36384415D01*
X16438616Y-36398760D01*
X16441984Y-36407890D01*
X16458286Y-36458060D01*
X16458287Y-36458061D01*
X16471535Y-36481008D01*
X16478706Y-36495548D01*
X16486642Y-36514705D01*
X16486643Y-36514708D01*
X16516378Y-36559209D01*
X16520663Y-36566099D01*
X16550303Y-36617438D01*
X16550308Y-36617445D01*
X16563640Y-36632251D01*
X16574591Y-36646330D01*
X16582456Y-36658100D01*
X16582458Y-36658103D01*
X16624926Y-36700570D01*
X16629397Y-36705281D01*
X16673447Y-36754205D01*
X16684252Y-36762055D01*
X16699047Y-36774691D01*
X16704401Y-36780045D01*
X16759810Y-36817067D01*
X16763785Y-36819839D01*
X16822336Y-36862379D01*
X16822339Y-36862381D01*
X16828513Y-36865130D01*
X16846965Y-36875303D01*
X16847795Y-36875858D01*
X16847797Y-36875859D01*
X16847799Y-36875860D01*
X16890973Y-36893743D01*
X16915403Y-36903862D01*
X16918309Y-36905109D01*
X16990466Y-36937236D01*
X16990630Y-36937270D01*
X17001157Y-36940543D01*
X17001296Y-36940086D01*
X17007115Y-36941850D01*
X17007126Y-36941855D01*
X17039201Y-36948234D01*
X17085332Y-36957411D01*
X17086863Y-36957725D01*
X17170481Y-36975500D01*
X17170482Y-36975500D01*
X17354517Y-36975500D01*
X17354519Y-36975500D01*
X17438156Y-36957721D01*
X17439664Y-36957411D01*
X17517874Y-36941855D01*
X17517879Y-36941853D01*
X17523703Y-36940087D01*
X17523842Y-36940547D01*
X17534375Y-36937269D01*
X17534534Y-36937236D01*
X17606637Y-36905133D01*
X17609585Y-36903866D01*
X17677205Y-36875858D01*
X17678014Y-36875317D01*
X17696481Y-36865131D01*
X17702661Y-36862381D01*
X17761241Y-36819818D01*
X17765183Y-36817071D01*
X17820599Y-36780045D01*
X17825948Y-36774694D01*
X17840746Y-36762055D01*
X17851550Y-36754207D01*
X17895634Y-36705246D01*
X17900054Y-36700588D01*
X17942545Y-36658099D01*
X17950411Y-36646325D01*
X17961352Y-36632257D01*
X17974695Y-36617440D01*
X18004359Y-36566058D01*
X18008606Y-36559229D01*
X18038358Y-36514705D01*
X18046293Y-36495548D01*
X18053458Y-36481016D01*
X18066714Y-36458059D01*
X18083016Y-36407885D01*
X18086379Y-36398771D01*
X18089828Y-36390443D01*
X18104355Y-36355374D01*
X18109680Y-36328599D01*
X18113363Y-36314485D01*
X18123585Y-36283029D01*
X18128413Y-36237080D01*
X18130117Y-36225855D01*
X18138000Y-36186232D01*
X18138000Y-36152379D01*
X18138679Y-36139418D01*
X18139528Y-36131339D01*
X18142822Y-36100000D01*
X18138679Y-36060580D01*
X18138000Y-36047620D01*
X18138000Y-36013771D01*
X18138000Y-36013770D01*
X18130115Y-35974132D01*
X18128413Y-35962910D01*
X18122906Y-35910506D01*
X18125054Y-35910280D01*
X18129600Y-35850626D01*
X18171731Y-35794888D01*
X18237309Y-35770776D01*
X18245579Y-35770500D01*
X18249110Y-35770500D01*
X18249111Y-35770500D01*
X18420201Y-35743402D01*
X18584945Y-35689873D01*
X18739288Y-35611232D01*
X18879428Y-35509414D01*
X18982819Y-35406023D01*
X19044142Y-35372538D01*
X19113834Y-35377522D01*
X19169767Y-35419394D01*
X19194184Y-35484858D01*
X19194500Y-35493704D01*
X19194500Y-39708330D01*
X19194499Y-39708348D01*
X19194499Y-39874054D01*
X19194498Y-39874054D01*
X19194499Y-39874057D01*
X19235423Y-40026785D01*
X19249933Y-40051916D01*
X19292964Y-40126449D01*
X19314479Y-40163715D01*
X19433349Y-40282585D01*
X19433355Y-40282590D01*
X19669298Y-40518533D01*
X19702783Y-40579856D01*
X19704837Y-40592330D01*
X19714630Y-40679249D01*
X19774210Y-40849521D01*
X19782773Y-40863149D01*
X19870184Y-41002262D01*
X19997738Y-41129816D01*
X20038019Y-41155126D01*
X20141183Y-41219949D01*
X20150478Y-41225789D01*
X20320745Y-41285368D01*
X20320750Y-41285369D01*
X20499996Y-41305565D01*
X20500000Y-41305565D01*
X20500004Y-41305565D01*
X20679249Y-41285369D01*
X20679252Y-41285368D01*
X20679255Y-41285368D01*
X20849522Y-41225789D01*
X21002262Y-41129816D01*
X21129816Y-41002262D01*
X21225789Y-40849522D01*
X21285368Y-40679255D01*
X21291718Y-40622899D01*
X21305565Y-40500003D01*
X21305565Y-40499996D01*
X21285369Y-40320750D01*
X21285368Y-40320745D01*
X21225788Y-40150476D01*
X21186582Y-40088080D01*
X21129816Y-39997738D01*
X21002262Y-39870184D01*
X20849521Y-39774210D01*
X20701849Y-39722538D01*
X20679255Y-39714632D01*
X20679254Y-39714631D01*
X20679249Y-39714630D01*
X20592332Y-39704837D01*
X20527918Y-39677770D01*
X20518535Y-39669298D01*
X20431819Y-39582582D01*
X20398334Y-39521259D01*
X20395500Y-39494901D01*
X20395500Y-35084312D01*
X20415185Y-35017273D01*
X20422555Y-35006997D01*
X20424816Y-35004162D01*
X20520789Y-34851422D01*
X20580368Y-34681155D01*
X20580369Y-34681149D01*
X20600565Y-34501903D01*
X20600565Y-34501896D01*
X20580369Y-34322650D01*
X20580368Y-34322645D01*
X20554092Y-34247552D01*
X20520789Y-34152378D01*
X20424816Y-33999638D01*
X20297262Y-33872084D01*
X20231222Y-33830588D01*
X20144523Y-33776111D01*
X19974254Y-33716531D01*
X19974249Y-33716530D01*
X19795004Y-33696335D01*
X19794996Y-33696335D01*
X19615750Y-33716530D01*
X19615745Y-33716531D01*
X19445476Y-33776111D01*
X19292739Y-33872083D01*
X19192875Y-33971947D01*
X19131552Y-34005431D01*
X19061860Y-34000447D01*
X19005927Y-33958575D01*
X19004922Y-33957213D01*
X19001914Y-33953072D01*
X18879428Y-33830586D01*
X18739288Y-33728768D01*
X18584945Y-33650127D01*
X18420201Y-33596598D01*
X18420199Y-33596597D01*
X18420198Y-33596597D01*
X18288771Y-33575781D01*
X18249111Y-33569500D01*
X17275889Y-33569500D01*
X17236228Y-33575781D01*
X17104802Y-33596597D01*
X16940052Y-33650128D01*
X16785711Y-33728768D01*
X16727557Y-33771020D01*
X16645572Y-33830586D01*
X16645570Y-33830588D01*
X16645569Y-33830588D01*
X16523088Y-33953069D01*
X16523088Y-33953070D01*
X16523086Y-33953072D01*
X16489254Y-33999638D01*
X16421268Y-34093211D01*
X16342628Y-34247552D01*
X16289097Y-34412302D01*
X16262000Y-34583389D01*
X14983000Y-34583389D01*
X14955902Y-34412299D01*
X14902373Y-34247555D01*
X14823732Y-34093212D01*
X14721914Y-33953072D01*
X14599428Y-33830586D01*
X14459288Y-33728768D01*
X14304945Y-33650127D01*
X14140201Y-33596598D01*
X14140199Y-33596597D01*
X14140198Y-33596597D01*
X14008771Y-33575781D01*
X13969111Y-33569500D01*
X13195889Y-33569500D01*
X13156228Y-33575781D01*
X13024802Y-33596597D01*
X12860052Y-33650128D01*
X12705708Y-33728769D01*
X12697384Y-33734818D01*
X12631578Y-33758297D01*
X12563524Y-33742471D01*
X12514830Y-33692364D01*
X12500500Y-33634499D01*
X12500500Y-18378711D01*
X18149500Y-18378711D01*
X18149500Y-18621288D01*
X18172411Y-18795322D01*
X18181162Y-18861789D01*
X18196044Y-18917328D01*
X18243947Y-19096104D01*
X18336322Y-19319117D01*
X18336776Y-19320212D01*
X18458064Y-19530289D01*
X18458066Y-19530292D01*
X18458067Y-19530293D01*
X18605733Y-19722736D01*
X18605739Y-19722743D01*
X18777256Y-19894260D01*
X18777263Y-19894266D01*
X18848666Y-19949055D01*
X18969711Y-20041936D01*
X19179788Y-20163224D01*
X19403900Y-20256054D01*
X19638211Y-20318838D01*
X19818586Y-20342584D01*
X19878711Y-20350500D01*
X19878712Y-20350500D01*
X20121289Y-20350500D01*
X20169388Y-20344167D01*
X20361789Y-20318838D01*
X20596100Y-20256054D01*
X20820212Y-20163224D01*
X21030289Y-20041936D01*
X21222738Y-19894265D01*
X21394265Y-19722738D01*
X21541936Y-19530289D01*
X21663224Y-19320212D01*
X21756054Y-19096100D01*
X21818838Y-18861789D01*
X21850500Y-18621288D01*
X21850500Y-18378712D01*
X21845317Y-18339346D01*
X21829200Y-18216918D01*
X21818838Y-18138211D01*
X21756054Y-17903900D01*
X21663224Y-17679788D01*
X21541936Y-17469711D01*
X21394265Y-17277262D01*
X21394260Y-17277256D01*
X21222743Y-17105739D01*
X21222736Y-17105733D01*
X21030293Y-16958067D01*
X21030292Y-16958066D01*
X21030289Y-16958064D01*
X20820212Y-16836776D01*
X20755120Y-16809814D01*
X20596104Y-16743947D01*
X20361785Y-16681161D01*
X20121289Y-16649500D01*
X20121288Y-16649500D01*
X19878712Y-16649500D01*
X19878711Y-16649500D01*
X19638214Y-16681161D01*
X19403895Y-16743947D01*
X19179794Y-16836773D01*
X19179785Y-16836777D01*
X18969706Y-16958067D01*
X18777263Y-17105733D01*
X18777256Y-17105739D01*
X18605739Y-17277256D01*
X18605733Y-17277263D01*
X18458067Y-17469706D01*
X18336777Y-17679785D01*
X18336773Y-17679794D01*
X18243947Y-17903895D01*
X18181161Y-18138214D01*
X18149500Y-18378711D01*
X12500500Y-18378711D01*
X12500500Y-14000000D01*
X41944815Y-14000000D01*
X41948821Y-14038114D01*
X41949500Y-14051075D01*
X41949500Y-14083770D01*
X41957126Y-14122114D01*
X41958828Y-14133336D01*
X41963502Y-14177797D01*
X41963503Y-14177804D01*
X41973366Y-14208160D01*
X41977051Y-14222281D01*
X41982183Y-14248079D01*
X41982184Y-14248084D01*
X41999586Y-14290095D01*
X42002955Y-14299226D01*
X42018750Y-14347836D01*
X42031508Y-14369933D01*
X42038682Y-14384479D01*
X42046296Y-14402862D01*
X42075110Y-14445984D01*
X42079389Y-14452865D01*
X42101074Y-14490425D01*
X42108142Y-14502667D01*
X42108143Y-14502668D01*
X42120928Y-14516867D01*
X42131878Y-14530945D01*
X42139372Y-14542160D01*
X42180554Y-14583342D01*
X42185024Y-14588052D01*
X42227770Y-14635526D01*
X42227772Y-14635528D01*
X42238039Y-14642987D01*
X42252837Y-14655626D01*
X42257834Y-14660623D01*
X42257842Y-14660629D01*
X42311556Y-14696520D01*
X42315551Y-14699304D01*
X42372405Y-14740611D01*
X42372406Y-14740611D01*
X42372407Y-14740612D01*
X42378136Y-14743162D01*
X42396606Y-14753348D01*
X42397137Y-14753703D01*
X42462729Y-14780872D01*
X42465696Y-14782147D01*
X42535724Y-14813326D01*
X42536962Y-14813728D01*
X42545940Y-14816520D01*
X42546085Y-14816046D01*
X42551912Y-14817814D01*
X42551914Y-14817814D01*
X42551918Y-14817816D01*
X42627928Y-14832934D01*
X42629393Y-14833236D01*
X42710609Y-14850500D01*
X42710610Y-14850500D01*
X42889389Y-14850500D01*
X42889391Y-14850500D01*
X42970663Y-14833224D01*
X42972068Y-14832935D01*
X43048082Y-14817816D01*
X43048087Y-14817813D01*
X43053913Y-14816046D01*
X43054057Y-14816521D01*
X43063088Y-14813711D01*
X43064251Y-14813332D01*
X43064267Y-14813329D01*
X43134329Y-14782134D01*
X43137212Y-14780895D01*
X43202863Y-14753703D01*
X43203390Y-14753350D01*
X43221865Y-14743162D01*
X43222684Y-14742796D01*
X43227593Y-14740612D01*
X43284505Y-14699261D01*
X43288388Y-14696555D01*
X43342162Y-14660626D01*
X43347164Y-14655622D01*
X43361960Y-14642987D01*
X43372230Y-14635526D01*
X43414994Y-14588030D01*
X43419428Y-14583358D01*
X43460626Y-14542162D01*
X43468120Y-14530945D01*
X43479071Y-14516866D01*
X43486697Y-14508397D01*
X43491859Y-14502665D01*
X43520610Y-14452863D01*
X43524873Y-14446007D01*
X43546900Y-14413042D01*
X43600509Y-14368241D01*
X43669834Y-14359534D01*
X43732862Y-14389689D01*
X43753100Y-14413045D01*
X43775109Y-14445983D01*
X43779389Y-14452865D01*
X43801074Y-14490425D01*
X43808142Y-14502667D01*
X43808143Y-14502668D01*
X43820928Y-14516867D01*
X43831878Y-14530945D01*
X43839372Y-14542160D01*
X43880554Y-14583342D01*
X43885024Y-14588052D01*
X43927770Y-14635526D01*
X43927772Y-14635528D01*
X43938039Y-14642987D01*
X43952837Y-14655626D01*
X43957834Y-14660623D01*
X43957842Y-14660629D01*
X44011556Y-14696520D01*
X44015551Y-14699304D01*
X44072405Y-14740611D01*
X44072406Y-14740611D01*
X44072407Y-14740612D01*
X44078136Y-14743162D01*
X44096606Y-14753348D01*
X44097137Y-14753703D01*
X44162729Y-14780872D01*
X44165696Y-14782147D01*
X44235724Y-14813326D01*
X44236962Y-14813728D01*
X44245940Y-14816520D01*
X44246085Y-14816046D01*
X44251912Y-14817814D01*
X44251914Y-14817814D01*
X44251918Y-14817816D01*
X44327928Y-14832934D01*
X44329393Y-14833236D01*
X44410609Y-14850500D01*
X44410610Y-14850500D01*
X44589389Y-14850500D01*
X44589391Y-14850500D01*
X44670663Y-14833224D01*
X44672068Y-14832935D01*
X44712048Y-14824983D01*
X59899500Y-14824983D01*
X59899500Y-16175001D01*
X59899501Y-16175018D01*
X59910000Y-16277796D01*
X59910001Y-16277799D01*
X59965185Y-16444331D01*
X59965187Y-16444336D01*
X59978220Y-16465466D01*
X60057288Y-16593656D01*
X60181344Y-16717712D01*
X60330666Y-16809814D01*
X60497203Y-16864999D01*
X60599991Y-16875500D01*
X61400008Y-16875499D01*
X61400016Y-16875498D01*
X61400019Y-16875498D01*
X61456302Y-16869748D01*
X61502797Y-16864999D01*
X61669334Y-16809814D01*
X61818656Y-16717712D01*
X61942712Y-16593656D01*
X61982581Y-16529016D01*
X62034525Y-16482294D01*
X62103488Y-16471071D01*
X62167570Y-16498914D01*
X62175799Y-16506434D01*
X62283397Y-16614032D01*
X62423475Y-16715804D01*
X62577744Y-16794408D01*
X62742415Y-16847914D01*
X62742414Y-16847914D01*
X62749999Y-16849115D01*
X62750000Y-16849114D01*
X62750000Y-15780330D01*
X62769745Y-15800075D01*
X62855255Y-15849444D01*
X62950630Y-15875000D01*
X63049370Y-15875000D01*
X63144745Y-15849444D01*
X63230255Y-15800075D01*
X63250000Y-15780330D01*
X63250000Y-16849115D01*
X63257584Y-16847914D01*
X63422255Y-16794408D01*
X63576524Y-16715804D01*
X63642805Y-16667648D01*
X89499500Y-16667648D01*
X89499500Y-17872351D01*
X89531522Y-18074534D01*
X89594781Y-18269223D01*
X89658691Y-18394653D01*
X89674899Y-18426462D01*
X89687715Y-18451613D01*
X89808028Y-18617213D01*
X89952786Y-18761971D01*
X90090625Y-18862115D01*
X90118390Y-18882287D01*
X90234607Y-18941503D01*
X90300776Y-18975218D01*
X90300778Y-18975218D01*
X90300781Y-18975220D01*
X90353456Y-18992335D01*
X90495465Y-19038477D01*
X90567378Y-19049867D01*
X90697648Y-19070500D01*
X90697649Y-19070500D01*
X90902351Y-19070500D01*
X90902352Y-19070500D01*
X91104534Y-19038477D01*
X91299219Y-18975220D01*
X91481610Y-18882287D01*
X91601301Y-18795327D01*
X91647213Y-18761971D01*
X91647215Y-18761968D01*
X91647219Y-18761966D01*
X91791966Y-18617219D01*
X91791968Y-18617215D01*
X91791971Y-18617213D01*
X91877831Y-18499035D01*
X91912287Y-18451610D01*
X92005220Y-18269219D01*
X92068477Y-18074534D01*
X92100500Y-17872352D01*
X92100500Y-16667648D01*
X92087071Y-16582862D01*
X92068477Y-16465465D01*
X92025127Y-16332049D01*
X92005220Y-16270781D01*
X92005218Y-16270778D01*
X92005218Y-16270776D01*
X91956426Y-16175018D01*
X91912287Y-16088390D01*
X91871742Y-16032584D01*
X91791971Y-15922786D01*
X91647213Y-15778028D01*
X91481613Y-15657715D01*
X91481612Y-15657714D01*
X91481610Y-15657713D01*
X91424653Y-15628691D01*
X91299223Y-15564781D01*
X91104534Y-15501522D01*
X90929995Y-15473878D01*
X90902352Y-15469500D01*
X90697648Y-15469500D01*
X90673329Y-15473351D01*
X90495465Y-15501522D01*
X90300776Y-15564781D01*
X90118386Y-15657715D01*
X89952786Y-15778028D01*
X89808028Y-15922786D01*
X89687715Y-16088386D01*
X89594781Y-16270776D01*
X89531522Y-16465465D01*
X89499500Y-16667648D01*
X63642805Y-16667648D01*
X63716602Y-16614032D01*
X63839032Y-16491602D01*
X63940804Y-16351524D01*
X64019408Y-16197257D01*
X64072914Y-16032584D01*
X64100000Y-15861571D01*
X64100000Y-15750000D01*
X63280330Y-15750000D01*
X63300075Y-15730255D01*
X63349444Y-15644745D01*
X63375000Y-15549370D01*
X63375000Y-15450630D01*
X63349444Y-15355255D01*
X63300075Y-15269745D01*
X63280330Y-15250000D01*
X64100000Y-15250000D01*
X64100000Y-15138428D01*
X64072914Y-14967415D01*
X64019408Y-14802742D01*
X63940804Y-14648475D01*
X63839032Y-14508397D01*
X63716602Y-14385967D01*
X63576524Y-14284195D01*
X63422257Y-14205591D01*
X63257589Y-14152087D01*
X63257581Y-14152085D01*
X63250000Y-14150884D01*
X63250000Y-15219670D01*
X63230255Y-15199925D01*
X63144745Y-15150556D01*
X63049370Y-15125000D01*
X62950630Y-15125000D01*
X62855255Y-15150556D01*
X62769745Y-15199925D01*
X62750000Y-15219670D01*
X62750000Y-14150884D01*
X62749999Y-14150884D01*
X62742418Y-14152085D01*
X62742410Y-14152087D01*
X62577742Y-14205591D01*
X62423475Y-14284195D01*
X62283401Y-14385964D01*
X62175799Y-14493566D01*
X62114476Y-14527050D01*
X62044784Y-14522066D01*
X61988851Y-14480194D01*
X61982585Y-14470988D01*
X61942712Y-14406344D01*
X61818656Y-14282288D01*
X61698475Y-14208160D01*
X61669336Y-14190187D01*
X61669331Y-14190185D01*
X61654794Y-14185368D01*
X61502797Y-14135001D01*
X61502795Y-14135000D01*
X61400010Y-14124500D01*
X60599998Y-14124500D01*
X60599980Y-14124501D01*
X60497203Y-14135000D01*
X60497200Y-14135001D01*
X60330668Y-14190185D01*
X60330663Y-14190187D01*
X60181342Y-14282289D01*
X60057289Y-14406342D01*
X59965187Y-14555663D01*
X59965185Y-14555668D01*
X59950653Y-14599523D01*
X59910001Y-14722203D01*
X59910001Y-14722204D01*
X59910000Y-14722204D01*
X59899500Y-14824983D01*
X44712048Y-14824983D01*
X44748082Y-14817816D01*
X44748087Y-14817813D01*
X44753913Y-14816046D01*
X44754057Y-14816521D01*
X44763088Y-14813711D01*
X44764251Y-14813332D01*
X44764267Y-14813329D01*
X44834329Y-14782134D01*
X44837212Y-14780895D01*
X44902863Y-14753703D01*
X44903390Y-14753350D01*
X44921865Y-14743162D01*
X44922684Y-14742796D01*
X44927593Y-14740612D01*
X44984505Y-14699261D01*
X44988388Y-14696555D01*
X45042162Y-14660626D01*
X45047164Y-14655622D01*
X45061960Y-14642987D01*
X45072230Y-14635526D01*
X45114994Y-14588030D01*
X45119428Y-14583358D01*
X45160626Y-14542162D01*
X45168120Y-14530945D01*
X45179071Y-14516866D01*
X45186697Y-14508397D01*
X45191859Y-14502665D01*
X45220610Y-14452863D01*
X45224887Y-14445987D01*
X45236067Y-14429256D01*
X45253703Y-14402863D01*
X45261320Y-14384469D01*
X45268491Y-14369933D01*
X45281250Y-14347835D01*
X45297047Y-14299213D01*
X45300404Y-14290115D01*
X45317816Y-14248082D01*
X45322948Y-14222278D01*
X45326630Y-14208168D01*
X45336497Y-14177803D01*
X45341171Y-14133322D01*
X45342875Y-14122098D01*
X45350500Y-14083767D01*
X45350500Y-14051075D01*
X45351179Y-14038114D01*
X45353063Y-14020185D01*
X45355185Y-14000000D01*
X45351179Y-13961885D01*
X45350500Y-13948924D01*
X45350500Y-13916232D01*
X45345513Y-13891161D01*
X45342872Y-13877885D01*
X45341171Y-13866671D01*
X45336497Y-13822197D01*
X45326633Y-13791839D01*
X45322947Y-13777712D01*
X45317817Y-13751925D01*
X45317816Y-13751918D01*
X45300401Y-13709877D01*
X45297045Y-13700780D01*
X45281250Y-13652165D01*
X45268486Y-13630058D01*
X45261314Y-13615513D01*
X45253706Y-13597144D01*
X45253705Y-13597142D01*
X45253703Y-13597137D01*
X45224885Y-13554008D01*
X45220601Y-13547119D01*
X45191860Y-13497336D01*
X45191856Y-13497331D01*
X45179070Y-13483131D01*
X45168115Y-13469047D01*
X45160629Y-13457843D01*
X45160626Y-13457838D01*
X45119441Y-13416653D01*
X45114974Y-13411946D01*
X45072234Y-13364477D01*
X45072230Y-13364474D01*
X45061952Y-13357006D01*
X45047161Y-13344372D01*
X45042165Y-13339376D01*
X45042161Y-13339373D01*
X44988442Y-13303479D01*
X44984448Y-13300695D01*
X44927594Y-13259388D01*
X44927593Y-13259387D01*
X44921855Y-13256833D01*
X44903397Y-13246654D01*
X44902866Y-13246299D01*
X44902865Y-13246298D01*
X44902863Y-13246297D01*
X44837241Y-13219115D01*
X44834289Y-13217846D01*
X44764270Y-13186672D01*
X44763316Y-13186362D01*
X44754047Y-13183492D01*
X44753908Y-13183952D01*
X44748085Y-13182185D01*
X44748082Y-13182184D01*
X44748078Y-13182183D01*
X44748071Y-13182181D01*
X44672172Y-13167084D01*
X44670620Y-13166765D01*
X44589391Y-13149500D01*
X44410609Y-13149500D01*
X44346601Y-13163104D01*
X44329428Y-13166755D01*
X44327841Y-13167081D01*
X44251921Y-13182183D01*
X44246090Y-13183952D01*
X44245949Y-13183490D01*
X44236651Y-13186372D01*
X44235731Y-13186671D01*
X44165721Y-13217840D01*
X44162745Y-13219119D01*
X44097139Y-13246295D01*
X44097132Y-13246299D01*
X44096581Y-13246668D01*
X44078157Y-13256827D01*
X44072413Y-13259384D01*
X44072406Y-13259389D01*
X44015580Y-13300675D01*
X44011590Y-13303456D01*
X43957841Y-13339371D01*
X43957834Y-13339377D01*
X43952830Y-13344381D01*
X43938050Y-13357003D01*
X43927777Y-13364467D01*
X43927767Y-13364476D01*
X43885022Y-13411948D01*
X43880557Y-13416653D01*
X43839377Y-13457834D01*
X43839369Y-13457843D01*
X43831877Y-13469056D01*
X43820932Y-13483128D01*
X43808142Y-13497333D01*
X43808138Y-13497338D01*
X43779392Y-13547127D01*
X43775108Y-13554015D01*
X43753101Y-13586951D01*
X43699489Y-13631757D01*
X43630164Y-13640464D01*
X43567137Y-13610310D01*
X43546897Y-13586952D01*
X43546896Y-13586951D01*
X43524885Y-13554008D01*
X43520601Y-13547119D01*
X43491860Y-13497336D01*
X43491856Y-13497331D01*
X43479070Y-13483131D01*
X43468115Y-13469047D01*
X43460629Y-13457843D01*
X43460626Y-13457838D01*
X43419441Y-13416653D01*
X43414974Y-13411946D01*
X43372234Y-13364477D01*
X43372230Y-13364474D01*
X43361952Y-13357006D01*
X43347161Y-13344372D01*
X43342165Y-13339376D01*
X43342161Y-13339373D01*
X43288442Y-13303479D01*
X43284448Y-13300695D01*
X43227594Y-13259388D01*
X43227593Y-13259387D01*
X43221855Y-13256833D01*
X43203397Y-13246654D01*
X43202866Y-13246299D01*
X43202865Y-13246298D01*
X43202863Y-13246297D01*
X43137241Y-13219115D01*
X43134289Y-13217846D01*
X43064270Y-13186672D01*
X43063316Y-13186362D01*
X43054047Y-13183492D01*
X43053908Y-13183952D01*
X43048085Y-13182185D01*
X43048082Y-13182184D01*
X43048078Y-13182183D01*
X43048071Y-13182181D01*
X42972172Y-13167084D01*
X42970620Y-13166765D01*
X42889391Y-13149500D01*
X42710609Y-13149500D01*
X42646601Y-13163104D01*
X42629428Y-13166755D01*
X42627841Y-13167081D01*
X42551921Y-13182183D01*
X42546090Y-13183952D01*
X42545949Y-13183490D01*
X42536651Y-13186372D01*
X42535731Y-13186671D01*
X42465721Y-13217840D01*
X42462745Y-13219119D01*
X42397139Y-13246295D01*
X42397132Y-13246299D01*
X42396581Y-13246668D01*
X42378157Y-13256827D01*
X42372413Y-13259384D01*
X42372406Y-13259389D01*
X42315580Y-13300675D01*
X42311590Y-13303456D01*
X42257841Y-13339371D01*
X42257834Y-13339377D01*
X42252830Y-13344381D01*
X42238050Y-13357003D01*
X42227777Y-13364467D01*
X42227767Y-13364476D01*
X42185022Y-13411948D01*
X42180557Y-13416653D01*
X42139377Y-13457834D01*
X42139369Y-13457843D01*
X42131877Y-13469056D01*
X42120932Y-13483128D01*
X42108142Y-13497333D01*
X42108138Y-13497338D01*
X42079392Y-13547127D01*
X42075109Y-13554014D01*
X42046302Y-13597126D01*
X42046296Y-13597137D01*
X42038683Y-13615517D01*
X42031513Y-13630055D01*
X42018752Y-13652158D01*
X42002959Y-13700761D01*
X41999592Y-13709887D01*
X41982183Y-13751919D01*
X41982183Y-13751921D01*
X41977052Y-13777714D01*
X41973367Y-13791834D01*
X41963504Y-13822192D01*
X41963502Y-13822202D01*
X41958828Y-13866664D01*
X41957126Y-13877885D01*
X41949500Y-13916228D01*
X41949500Y-13948924D01*
X41948821Y-13961885D01*
X41944815Y-14000000D01*
X12500500Y-14000000D01*
X12500500Y-12624500D01*
X12520185Y-12557461D01*
X12572989Y-12511706D01*
X12624500Y-12500500D01*
X82598524Y-12500500D01*
X82665563Y-12520185D01*
G37*
G04 #@! TD.AperFunction*
G04 #@! TD*
M02*
