M48
; DRILL file {KiCad 8.0.8} date 2025-02-16T18:20:13+0100
; FORMAT={-:-/ absolute / metric / decimal}
; #@! TF.CreationDate,2025-02-16T18:20:13+01:00
; #@! TF.GenerationSoftware,Kicad,Pcbnew,8.0.8
; #@! TF.FileFunction,MixedPlating,1,2
FMAT,2
METRIC
; #@! TA.AperFunction,Plated,PTH,ViaDrill
T1C0.300
; #@! TA.AperFunction,Plated,PTH,ComponentDrill
T2C0.700
; #@! TA.AperFunction,Plated,PTH,ComponentDrill
T3C0.750
; #@! TA.AperFunction,Plated,PTH,ComponentDrill
T4C0.800
; #@! TA.AperFunction,Plated,PTH,ComponentDrill
T5C0.800
; #@! TA.AperFunction,Plated,PTH,ComponentDrill
T6C1.000
; #@! TA.AperFunction,Plated,PTH,ComponentDrill
T7C1.000
; #@! TA.AperFunction,Plated,PTH,ComponentDrill
T8C1.400
; #@! TA.AperFunction,NonPlated,NPTH,ComponentDrill
T9C3.200
%
G90
G05
T1
X19.795Y-34.502
X20.5Y-40.5
X20.9Y-35.5
X24.619Y-47.341
X25.002Y-31.748
X25.002Y-36.0
X25.618Y-45.0
X27.3Y-29.581
X30.713Y-19.77
X31.664Y-58.39
X32.411Y-44.807
X34.246Y-28.606
X36.9Y-34.1
X37.194Y-44.506
X49.0Y-24.4
X49.097Y-16.153
X52.073Y-35.829
X52.073Y-38.364
X53.972Y-27.429
X54.024Y-30.468
X54.674Y-33.327
X55.049Y-47.341
X56.237Y-32.479
X57.054Y-56.783
X58.025Y-23.77
X58.025Y-41.67
X58.433Y-56.962
X58.458Y-53.136
X60.399Y-27.519
X62.673Y-48.012
X62.817Y-46.784
X64.165Y-48.526
X64.732Y-18.232
X66.952Y-47.405
X68.8Y-29.4
X70.655Y-22.69
X71.933Y-29.967
X72.01Y-49.93
X72.906Y-50.176
X74.35Y-14.25
X75.542Y-37.794
X75.766Y-24.341
X75.78Y-41.77
X76.009Y-36.194
X76.342Y-46.902
X76.918Y-39.422
X79.713Y-24.313
X79.797Y-49.531
X80.133Y-56.131
X80.765Y-51.047
X80.988Y-43.181
X81.567Y-52.277
X82.956Y-29.061
X83.102Y-13.4
X83.127Y-19.798
X83.274Y-48.022
X84.5Y-29.361
X86.347Y-46.84
X86.5Y-43.0
X89.0Y-53.0
X90.523Y-38.515
X90.759Y-46.182
X92.818Y-38.249
X94.0Y-48.0
X96.71Y-38.0
T2
X42.8Y-14.0
X44.5Y-14.0
T3
X17.262Y-36.1
X17.262Y-41.9
X61.0Y-15.5
X63.0Y-15.5
T5
X27.0Y-16.0
X27.0Y-18.0
X29.0Y-16.0
X29.0Y-18.0
X31.0Y-16.0
X31.0Y-18.0
X33.0Y-16.0
X33.0Y-18.0
X35.0Y-16.0
X35.0Y-18.0
T7
X25.88Y-54.3
X28.42Y-54.3
X30.96Y-54.3
X33.5Y-54.3
X36.04Y-54.3
X82.4Y-54.975
X84.94Y-54.975
X87.48Y-54.975
X90.02Y-54.975
X92.56Y-54.975
X95.1Y-54.975
X97.64Y-54.975
T8
X105.0Y-15.19
X105.0Y-19.0
X105.0Y-22.81
X105.0Y-26.62
X105.0Y-30.43
T9
X19.0Y-54.0
X20.0Y-18.5
X104.0Y-54.0
T4
X13.882Y-34.67G85X13.283Y-34.67
G05
X13.882Y-43.33G85X13.283Y-43.33
G05
X18.163Y-34.67G85X17.362Y-34.67
G05
X18.162Y-43.33G85X17.363Y-43.33
G05
T6
X90.8Y-17.82G85X90.8Y-16.72
G05
X90.8Y-31.28G85X90.8Y-30.18
G05
X94.2Y-17.82G85X94.2Y-16.72
G05
X94.2Y-31.28G85X94.2Y-30.18
G05
M30
