G04 #@! TF.GenerationSoftware,KiCad,Pcbnew,8.0.8*
G04 #@! TF.CreationDate,2025-03-24T19:57:08+01:00*
G04 #@! TF.ProjectId,cheap-wled-controller,63686561-702d-4776-9c65-642d636f6e74,rev?*
G04 #@! TF.SameCoordinates,Original*
G04 #@! TF.FileFunction,Paste,Top*
G04 #@! TF.FilePolarity,Positive*
%FSLAX46Y46*%
G04 Gerber Fmt 4.6, Leading zero omitted, Abs format (unit mm)*
G04 Created by KiCad (PCBNEW 8.0.8) date 2025-03-24 19:57:08*
%MOMM*%
%LPD*%
G01*
G04 APERTURE LIST*
G04 Aperture macros list*
%AMRoundRect*
0 Rectangle with rounded corners*
0 $1 Rounding radius*
0 $2 $3 $4 $5 $6 $7 $8 $9 X,Y pos of 4 corners*
0 Add a 4 corners polygon primitive as box body*
4,1,4,$2,$3,$4,$5,$6,$7,$8,$9,$2,$3,0*
0 Add four circle primitives for the rounded corners*
1,1,$1+$1,$2,$3*
1,1,$1+$1,$4,$5*
1,1,$1+$1,$6,$7*
1,1,$1+$1,$8,$9*
0 Add four rect primitives between the rounded corners*
20,1,$1+$1,$2,$3,$4,$5,0*
20,1,$1+$1,$4,$5,$6,$7,0*
20,1,$1+$1,$6,$7,$8,$9,0*
20,1,$1+$1,$8,$9,$2,$3,0*%
G04 Aperture macros list end*
%ADD10R,1.410000X1.350000*%
%ADD11R,1.380000X1.130000*%
%ADD12R,1.130000X1.380000*%
%ADD13RoundRect,0.150000X-0.512500X-0.150000X0.512500X-0.150000X0.512500X0.150000X-0.512500X0.150000X0*%
%ADD14RoundRect,0.250000X-0.375000X-0.850000X0.375000X-0.850000X0.375000X0.850000X-0.375000X0.850000X0*%
%ADD15R,1.300000X0.300000*%
%ADD16R,0.800000X1.300000*%
%ADD17R,1.000000X1.200000*%
%ADD18R,1.500000X0.900000*%
%ADD19R,0.900000X1.500000*%
%ADD20R,0.900000X0.900000*%
%ADD21R,0.600000X1.000000*%
%ADD22R,4.410000X4.000000*%
%ADD23R,1.500000X0.600000*%
%ADD24R,2.100000X3.300000*%
%ADD25RoundRect,0.112500X-0.237500X0.112500X-0.237500X-0.112500X0.237500X-0.112500X0.237500X0.112500X0*%
%ADD26R,1.000000X1.400000*%
%ADD27R,1.350000X1.410000*%
%ADD28O,2.050000X0.590000*%
G04 APERTURE END LIST*
D10*
G04 #@! TO.C,C8*
X47230449Y-38716816D03*
X49230449Y-38716816D03*
G04 #@! TD*
D11*
G04 #@! TO.C,R4*
X25000000Y-40500000D03*
X25000000Y-38500000D03*
G04 #@! TD*
G04 #@! TO.C,R5*
X28000000Y-40500000D03*
X28000000Y-38500000D03*
G04 #@! TD*
D12*
G04 #@! TO.C,R14*
X14000000Y-45000000D03*
X16000000Y-45000000D03*
G04 #@! TD*
D10*
G04 #@! TO.C,C29*
X37500000Y-35500000D03*
X39500000Y-35500000D03*
G04 #@! TD*
D13*
G04 #@! TO.C,U1*
X14862500Y-49050000D03*
X14862500Y-50000000D03*
X14862500Y-50950000D03*
X17137500Y-50950000D03*
X17137500Y-50000000D03*
X17137500Y-49050000D03*
G04 #@! TD*
D12*
G04 #@! TO.C,R6*
X47500000Y-19000000D03*
X49500000Y-19000000D03*
G04 #@! TD*
G04 #@! TO.C,R20*
X47230449Y-35616816D03*
X49230449Y-35616816D03*
G04 #@! TD*
D10*
G04 #@! TO.C,C4*
X47230449Y-44616816D03*
X49230449Y-44616816D03*
G04 #@! TD*
G04 #@! TO.C,C1*
X33200000Y-48900000D03*
X35200000Y-48900000D03*
G04 #@! TD*
D14*
G04 #@! TO.C,L2*
X37483856Y-42375092D03*
X39633856Y-42375092D03*
G04 #@! TD*
D15*
G04 #@! TO.C,J2*
X18740000Y-30580000D03*
X18740000Y-31380000D03*
X18740000Y-32680000D03*
X18740000Y-33680000D03*
X18740000Y-34180000D03*
X18740000Y-35180000D03*
X18740000Y-36480000D03*
X18740000Y-37280000D03*
X18740000Y-36980000D03*
X18740000Y-36180000D03*
X18740000Y-35680000D03*
X18740000Y-34680000D03*
X18740000Y-33180000D03*
X18740000Y-32180000D03*
X18740000Y-31680000D03*
X18740000Y-30880000D03*
G04 #@! TD*
D16*
G04 #@! TO.C,SW1*
X18892500Y-14985000D03*
X22252500Y-14985000D03*
D17*
X22672500Y-13285000D03*
X18472500Y-13285000D03*
G04 #@! TD*
D12*
G04 #@! TO.C,R13*
X42500000Y-43300000D03*
X44500000Y-43300000D03*
G04 #@! TD*
D11*
G04 #@! TO.C,R3*
X22000000Y-40500000D03*
X22000000Y-38500000D03*
G04 #@! TD*
D12*
G04 #@! TO.C,R10*
X27000000Y-35000000D03*
X29000000Y-35000000D03*
G04 #@! TD*
G04 #@! TO.C,R15*
X33500000Y-35000000D03*
X31500000Y-35000000D03*
G04 #@! TD*
D10*
G04 #@! TO.C,C7*
X47500000Y-15500000D03*
X49500000Y-15500000D03*
G04 #@! TD*
D12*
G04 #@! TO.C,R2*
X20000000Y-24500000D03*
X22000000Y-24500000D03*
G04 #@! TD*
D18*
G04 #@! TO.C,U5*
X26250000Y-14047500D03*
X26250000Y-15317500D03*
X26250000Y-16587500D03*
X26250000Y-17857500D03*
X26250000Y-19127500D03*
X26250000Y-20397500D03*
X26250000Y-21667500D03*
X26250000Y-22937500D03*
X26250000Y-24207500D03*
X26250000Y-25477500D03*
X26250000Y-26747500D03*
X26250000Y-28017500D03*
X26250000Y-29287500D03*
X26250000Y-30557500D03*
D19*
X28010000Y-31827500D03*
X29280000Y-31827500D03*
X30550000Y-31827500D03*
X31820000Y-31827500D03*
X33090000Y-31827500D03*
X34370000Y-31827500D03*
X35630000Y-31827500D03*
X36900000Y-31827500D03*
X38170000Y-31827500D03*
X39450000Y-31827500D03*
X40720000Y-31827500D03*
X41990000Y-31797500D03*
D18*
X43750000Y-30557500D03*
X43750000Y-29287500D03*
X43750000Y-28017500D03*
X43750000Y-26747500D03*
X43750000Y-25477500D03*
X43750000Y-24207500D03*
X43750000Y-22937500D03*
X43750000Y-21667500D03*
X43750000Y-20397500D03*
X43750000Y-19127500D03*
X43750000Y-17857500D03*
X43750000Y-16587500D03*
X43750000Y-15317500D03*
X43750000Y-14047500D03*
D20*
X32100000Y-20367500D03*
X32100000Y-21767500D03*
X32100000Y-23167500D03*
X33500000Y-20367500D03*
X33500000Y-21767500D03*
X33500000Y-23167500D03*
X34900000Y-20367500D03*
X34900000Y-21767500D03*
X34900000Y-23167500D03*
G04 #@! TD*
D21*
G04 #@! TO.C,Q3*
X52150345Y-54280345D03*
X48340345Y-48440345D03*
X49620345Y-48440345D03*
D22*
X50250345Y-50750345D03*
D21*
X50880345Y-48440345D03*
X52150345Y-48440345D03*
X48340345Y-54280345D03*
X49620345Y-54280345D03*
X50880345Y-54280345D03*
G04 #@! TD*
D12*
G04 #@! TO.C,R7*
X47500000Y-28500000D03*
X49500000Y-28500000D03*
G04 #@! TD*
G04 #@! TO.C,R22*
X42500000Y-45500000D03*
X44500000Y-45500000D03*
G04 #@! TD*
D23*
G04 #@! TO.C,U3*
X24000000Y-43000000D03*
X24000000Y-44000000D03*
X24000000Y-45000000D03*
X24000000Y-46000000D03*
X24000000Y-47000000D03*
X30000000Y-47000000D03*
X30000000Y-46000000D03*
X30000000Y-45000000D03*
X30000000Y-44000000D03*
X30000000Y-43000000D03*
D24*
X27000000Y-45000000D03*
G04 #@! TD*
D12*
G04 #@! TO.C,R16*
X22000000Y-21500000D03*
X20000000Y-21500000D03*
G04 #@! TD*
D13*
G04 #@! TO.C,U7*
X42362500Y-38550000D03*
X42362500Y-39500000D03*
X42362500Y-40450000D03*
X44637500Y-40450000D03*
X44637500Y-39500000D03*
X44637500Y-38550000D03*
G04 #@! TD*
D12*
G04 #@! TO.C,R17*
X22000000Y-18500000D03*
X20000000Y-18500000D03*
G04 #@! TD*
G04 #@! TO.C,R11*
X22500000Y-35000000D03*
X24500000Y-35000000D03*
G04 #@! TD*
D10*
G04 #@! TO.C,C6*
X47500000Y-25500000D03*
X49500000Y-25500000D03*
G04 #@! TD*
D25*
G04 #@! TO.C,D1*
X21000000Y-49350000D03*
X21000000Y-50650000D03*
X23000000Y-50000000D03*
G04 #@! TD*
D10*
G04 #@! TO.C,C5*
X42500000Y-35500000D03*
X44500000Y-35500000D03*
G04 #@! TD*
D26*
G04 #@! TO.C,D2*
X16050000Y-42400000D03*
X13950000Y-42400000D03*
G04 #@! TD*
D10*
G04 #@! TO.C,C3*
X47500000Y-22500000D03*
X49500000Y-22500000D03*
G04 #@! TD*
D27*
G04 #@! TO.C,C2*
X31500000Y-40500000D03*
X31500000Y-38500000D03*
G04 #@! TD*
D10*
G04 #@! TO.C,C9*
X47230449Y-41666816D03*
X49230449Y-41666816D03*
G04 #@! TD*
G04 #@! TO.C,C30*
X37500000Y-38400000D03*
X39500000Y-38400000D03*
G04 #@! TD*
D28*
G04 #@! TO.C,U4*
X38730000Y-48590000D03*
X38730000Y-49870000D03*
X38730000Y-51130000D03*
X38730000Y-52400000D03*
X44270000Y-52400000D03*
X44270000Y-51130000D03*
X44270000Y-49870000D03*
X44270000Y-48590000D03*
G04 #@! TD*
M02*
