G04 #@! TF.GenerationSoftware,KiCad,Pcbnew,8.0.8*
G04 #@! TF.CreationDate,2025-02-19T19:17:40+01:00*
G04 #@! TF.ProjectId,panelized,70616e65-6c69-47a6-9564-2e6b69636164,rev?*
G04 #@! TF.SameCoordinates,Original*
G04 #@! TF.FileFunction,Soldermask,Bot*
G04 #@! TF.FilePolarity,Negative*
%FSLAX46Y46*%
G04 Gerber Fmt 4.6, Leading zero omitted, Abs format (unit mm)*
G04 Created by KiCad (PCBNEW 8.0.8) date 2025-02-19 19:17:40*
%MOMM*%
%LPD*%
G01*
G04 APERTURE LIST*
G04 Aperture macros list*
%AMRoundRect*
0 Rectangle with rounded corners*
0 $1 Rounding radius*
0 $2 $3 $4 $5 $6 $7 $8 $9 X,Y pos of 4 corners*
0 Add a 4 corners polygon primitive as box body*
4,1,4,$2,$3,$4,$5,$6,$7,$8,$9,$2,$3,0*
0 Add four circle primitives for the rounded corners*
1,1,$1+$1,$2,$3*
1,1,$1+$1,$4,$5*
1,1,$1+$1,$6,$7*
1,1,$1+$1,$8,$9*
0 Add four rect primitives between the rounded corners*
20,1,$1+$1,$2,$3,$4,$5,0*
20,1,$1+$1,$4,$5,$6,$7,0*
20,1,$1+$1,$6,$7,$8,$9,0*
20,1,$1+$1,$8,$9,$2,$3,0*%
G04 Aperture macros list end*
%ADD10O,1.600000X2.600000*%
%ADD11C,3.200000*%
%ADD12C,0.750000*%
%ADD13O,2.000000X1.200000*%
%ADD14O,1.800000X1.200000*%
%ADD15R,1.700000X1.700000*%
%ADD16O,1.700000X1.700000*%
%ADD17C,2.200000*%
%ADD18C,0.700000*%
%ADD19R,1.350000X1.350000*%
%ADD20O,1.350000X1.350000*%
%ADD21RoundRect,0.250000X-0.350000X-0.625000X0.350000X-0.625000X0.350000X0.625000X-0.350000X0.625000X0*%
%ADD22O,1.200000X1.750000*%
G04 APERTURE END LIST*
D10*
G04 #@! TO.C,F2*
X78800000Y-18730000D03*
X82200000Y-18730000D03*
X78800000Y-5270000D03*
X82200000Y-5270000D03*
G04 #@! TD*
D11*
G04 #@! TO.C,H1*
X8000000Y-54500000D03*
G04 #@! TD*
D12*
G04 #@! TO.C,J2*
X5262500Y-72100000D03*
X5262500Y-77900000D03*
D13*
X5762500Y-70670000D03*
X5762500Y-79330000D03*
D14*
X1582500Y-79330000D03*
X1582500Y-70670000D03*
G04 #@! TD*
D15*
G04 #@! TO.C,J8*
X70400000Y-42975000D03*
D16*
X72940000Y-42975000D03*
X75480000Y-42975000D03*
X78020000Y-42975000D03*
X80560000Y-42975000D03*
X83100000Y-42975000D03*
X85640000Y-42975000D03*
G04 #@! TD*
D17*
G04 #@! TO.C,J10*
X93000000Y-51190000D03*
X93000000Y-55000000D03*
X93000000Y-58810000D03*
X93000000Y-62620000D03*
X93000000Y-66430000D03*
G04 #@! TD*
D18*
G04 #@! TO.C,SW1*
X30800000Y-50000000D03*
X32500000Y-50000000D03*
G04 #@! TD*
D19*
G04 #@! TO.C,J4*
X15000000Y-54000000D03*
D20*
X15000000Y-52000000D03*
X17000000Y-54000000D03*
X17000000Y-52000000D03*
X19000000Y-54000000D03*
X19000000Y-52000000D03*
X21000000Y-54000000D03*
X21000000Y-52000000D03*
X23000000Y-54000000D03*
X23000000Y-52000000D03*
G04 #@! TD*
D11*
G04 #@! TO.C,H2*
X7000000Y-90000000D03*
G04 #@! TD*
D10*
G04 #@! TO.C,F2*
X78800000Y-66730000D03*
X82200000Y-66730000D03*
X78800000Y-53270000D03*
X82200000Y-53270000D03*
G04 #@! TD*
D11*
G04 #@! TO.C,H3*
X92000000Y-90000000D03*
G04 #@! TD*
D21*
G04 #@! TO.C,J7*
X49000000Y-51500000D03*
D22*
X51000000Y-51500000D03*
G04 #@! TD*
D17*
G04 #@! TO.C,J10*
X93000000Y-3190000D03*
X93000000Y-7000000D03*
X93000000Y-10810000D03*
X93000000Y-14620000D03*
X93000000Y-18430000D03*
G04 #@! TD*
D15*
G04 #@! TO.C,J6*
X13880000Y-90300000D03*
D16*
X16420000Y-90300000D03*
X18960000Y-90300000D03*
X21500000Y-90300000D03*
X24040000Y-90300000D03*
G04 #@! TD*
D21*
G04 #@! TO.C,J7*
X49000000Y-3500000D03*
D22*
X51000000Y-3500000D03*
G04 #@! TD*
D15*
G04 #@! TO.C,J8*
X70400000Y-90975000D03*
D16*
X72940000Y-90975000D03*
X75480000Y-90975000D03*
X78020000Y-90975000D03*
X80560000Y-90975000D03*
X83100000Y-90975000D03*
X85640000Y-90975000D03*
G04 #@! TD*
D11*
G04 #@! TO.C,H1*
X8000000Y-6500000D03*
G04 #@! TD*
D15*
G04 #@! TO.C,J6*
X13880000Y-42300000D03*
D16*
X16420000Y-42300000D03*
X18960000Y-42300000D03*
X21500000Y-42300000D03*
X24040000Y-42300000D03*
G04 #@! TD*
D11*
G04 #@! TO.C,H2*
X7000000Y-42000000D03*
G04 #@! TD*
D19*
G04 #@! TO.C,J4*
X15000000Y-6000000D03*
D20*
X15000000Y-4000000D03*
X17000000Y-6000000D03*
X17000000Y-4000000D03*
X19000000Y-6000000D03*
X19000000Y-4000000D03*
X21000000Y-6000000D03*
X21000000Y-4000000D03*
X23000000Y-6000000D03*
X23000000Y-4000000D03*
G04 #@! TD*
D11*
G04 #@! TO.C,H3*
X92000000Y-42000000D03*
G04 #@! TD*
D18*
G04 #@! TO.C,SW1*
X30800000Y-2000000D03*
X32500000Y-2000000D03*
G04 #@! TD*
D12*
G04 #@! TO.C,J2*
X5262500Y-24100000D03*
X5262500Y-29900000D03*
D13*
X5762500Y-22670000D03*
X5762500Y-31330000D03*
D14*
X1582500Y-31330000D03*
X1582500Y-22670000D03*
G04 #@! TD*
M02*
