M48
; DRILL file {KiCad 8.0.8} date 2025-02-19T19:17:40+0100
; FORMAT={-:-/ absolute / metric / decimal}
; #@! TF.CreationDate,2025-02-19T19:17:40+01:00
; #@! TF.GenerationSoftware,Kicad,Pcbnew,8.0.8
; #@! TF.FileFunction,MixedPlating,1,2
FMAT,2
METRIC
; #@! TA.AperFunction,Plated,PTH,ViaDrill
T1C0.300
; #@! TA.AperFunction,Plated,PTH,ComponentDrill
T2C0.700
; #@! TA.AperFunction,Plated,PTH,ComponentDrill
T3C0.750
; #@! TA.AperFunction,Plated,PTH,ComponentDrill
T4C0.800
; #@! TA.AperFunction,Plated,PTH,ComponentDrill
T5C0.800
; #@! TA.AperFunction,Plated,PTH,ComponentDrill
T6C1.000
; #@! TA.AperFunction,Plated,PTH,ComponentDrill
T7C1.000
; #@! TA.AperFunction,Plated,PTH,ComponentDrill
T8C1.400
; #@! TA.AperFunction,NonPlated,NPTH,ComponentDrill
T9C3.200
%
G90
G05
T1
X7.795Y-22.502
X7.795Y-70.502
X8.5Y-28.5
X8.5Y-76.5
X8.9Y-23.5
X8.9Y-71.5
X12.619Y-35.341
X12.619Y-83.341
X13.002Y-19.748
X13.002Y-24.0
X13.002Y-67.748
X13.002Y-72.0
X13.618Y-33.0
X13.618Y-81.0
X15.3Y-17.581
X15.3Y-65.581
X18.713Y-7.77
X18.713Y-55.77
X19.664Y-46.39
X19.664Y-94.39
X20.411Y-32.807
X20.411Y-80.807
X22.246Y-16.606
X22.246Y-64.606
X24.9Y-22.1
X24.9Y-70.1
X25.194Y-32.506
X25.194Y-80.506
X37.0Y-12.4
X37.0Y-60.4
X37.097Y-4.153
X37.097Y-52.153
X40.073Y-23.829
X40.073Y-26.364
X40.073Y-71.829
X40.073Y-74.364
X41.972Y-15.429
X41.972Y-63.429
X42.024Y-18.468
X42.024Y-66.468
X42.674Y-21.327
X42.674Y-69.327
X43.049Y-35.341
X43.049Y-83.341
X44.237Y-20.479
X44.237Y-68.479
X45.054Y-44.783
X45.054Y-92.783
X46.025Y-11.771
X46.025Y-29.67
X46.025Y-59.77
X46.025Y-77.67
X46.433Y-44.962
X46.433Y-92.962
X46.458Y-41.136
X46.458Y-89.136
X48.399Y-15.519
X48.399Y-63.519
X50.673Y-36.012
X50.673Y-84.012
X50.817Y-34.784
X50.817Y-82.784
X52.165Y-36.526
X52.165Y-84.526
X52.732Y-6.232
X52.732Y-54.232
X54.952Y-35.405
X54.952Y-83.405
X56.8Y-17.4
X56.8Y-65.4
X58.655Y-10.69
X58.655Y-58.69
X59.933Y-17.967
X59.933Y-65.967
X60.01Y-37.93
X60.01Y-85.93
X60.905Y-38.176
X60.905Y-86.176
X62.35Y-2.25
X62.35Y-50.25
X63.542Y-25.794
X63.542Y-73.794
X63.766Y-12.341
X63.766Y-60.341
X63.78Y-29.77
X63.78Y-77.77
X64.009Y-24.194
X64.009Y-72.194
X64.342Y-34.902
X64.342Y-82.902
X64.918Y-27.422
X64.918Y-75.422
X67.713Y-12.313
X67.713Y-60.313
X67.797Y-37.531
X67.797Y-85.531
X68.133Y-44.131
X68.133Y-92.131
X68.765Y-39.047
X68.765Y-87.047
X68.988Y-31.181
X68.988Y-79.181
X69.567Y-40.277
X69.567Y-88.277
X70.956Y-17.061
X70.956Y-65.061
X71.102Y-1.4
X71.102Y-49.4
X71.127Y-7.798
X71.127Y-55.798
X71.274Y-36.022
X71.274Y-84.022
X72.5Y-17.361
X72.5Y-65.361
X74.347Y-34.84
X74.347Y-82.84
X74.5Y-31.0
X74.5Y-79.0
X77.0Y-41.0
X77.0Y-89.0
X78.523Y-26.515
X78.523Y-74.515
X78.759Y-34.182
X78.759Y-82.182
X80.818Y-26.249
X80.818Y-74.249
X82.0Y-36.0
X82.0Y-84.0
X84.71Y-26.0
X84.71Y-74.0
T2
X30.8Y-2.0
X30.8Y-50.0
X32.5Y-2.0
X32.5Y-50.0
T3
X5.263Y-24.1
X5.263Y-29.9
X5.263Y-72.1
X5.263Y-77.9
X49.0Y-3.5
X49.0Y-51.5
X51.0Y-3.5
X51.0Y-51.5
T5
X15.0Y-4.0
X15.0Y-6.0
X15.0Y-52.0
X15.0Y-54.0
X17.0Y-4.0
X17.0Y-6.0
X17.0Y-52.0
X17.0Y-54.0
X19.0Y-4.0
X19.0Y-6.0
X19.0Y-52.0
X19.0Y-54.0
X21.0Y-4.0
X21.0Y-6.0
X21.0Y-52.0
X21.0Y-54.0
X23.0Y-4.0
X23.0Y-6.0
X23.0Y-52.0
X23.0Y-54.0
T7
X13.88Y-42.3
X13.88Y-90.3
X16.42Y-42.3
X16.42Y-90.3
X18.96Y-42.3
X18.96Y-90.3
X21.5Y-42.3
X21.5Y-90.3
X24.04Y-42.3
X24.04Y-90.3
X70.4Y-42.975
X70.4Y-90.975
X72.94Y-42.975
X72.94Y-90.975
X75.48Y-42.975
X75.48Y-90.975
X78.02Y-42.975
X78.02Y-90.975
X80.56Y-42.975
X80.56Y-90.975
X83.1Y-42.975
X83.1Y-90.975
X85.64Y-42.975
X85.64Y-90.975
T8
X93.0Y-3.19
X93.0Y-7.0
X93.0Y-10.81
X93.0Y-14.62
X93.0Y-18.43
X93.0Y-51.19
X93.0Y-55.0
X93.0Y-58.81
X93.0Y-62.62
X93.0Y-66.43
T9
X7.0Y-42.0
X7.0Y-90.0
X8.0Y-6.5
X8.0Y-54.5
X92.0Y-42.0
X92.0Y-90.0
T4
X1.882Y-22.67G85X1.283Y-22.67
G05
X1.882Y-31.33G85X1.283Y-31.33
G05
X1.882Y-70.67G85X1.283Y-70.67
G05
X1.882Y-79.33G85X1.283Y-79.33
G05
X6.163Y-22.67G85X5.362Y-22.67
G05
X6.162Y-31.33G85X5.363Y-31.33
G05
X6.163Y-70.67G85X5.362Y-70.67
G05
X6.162Y-79.33G85X5.363Y-79.33
G05
T6
X78.8Y-5.82G85X78.8Y-4.72
G05
X78.8Y-19.28G85X78.8Y-18.18
G05
X78.8Y-53.82G85X78.8Y-52.72
G05
X78.8Y-67.28G85X78.8Y-66.18
G05
X82.2Y-5.82G85X82.2Y-4.72
G05
X82.2Y-19.28G85X82.2Y-18.18
G05
X82.2Y-53.82G85X82.2Y-52.72
G05
X82.2Y-67.28G85X82.2Y-66.18
G05
M30
