G04 #@! TF.GenerationSoftware,KiCad,Pcbnew,8.0.8*
G04 #@! TF.CreationDate,2025-02-19T19:45:59+01:00*
G04 #@! TF.ProjectId,panelized,70616e65-6c69-47a6-9564-2e6b69636164,rev?*
G04 #@! TF.SameCoordinates,Original*
G04 #@! TF.FileFunction,Soldermask,Top*
G04 #@! TF.FilePolarity,Negative*
%FSLAX46Y46*%
G04 Gerber Fmt 4.6, Leading zero omitted, Abs format (unit mm)*
G04 Created by KiCad (PCBNEW 8.0.8) date 2025-02-19 19:45:59*
%MOMM*%
%LPD*%
G01*
G04 APERTURE LIST*
G04 Aperture macros list*
%AMRoundRect*
0 Rectangle with rounded corners*
0 $1 Rounding radius*
0 $2 $3 $4 $5 $6 $7 $8 $9 X,Y pos of 4 corners*
0 Add a 4 corners polygon primitive as box body*
4,1,4,$2,$3,$4,$5,$6,$7,$8,$9,$2,$3,0*
0 Add four circle primitives for the rounded corners*
1,1,$1+$1,$2,$3*
1,1,$1+$1,$4,$5*
1,1,$1+$1,$6,$7*
1,1,$1+$1,$8,$9*
0 Add four rect primitives between the rounded corners*
20,1,$1+$1,$2,$3,$4,$5,0*
20,1,$1+$1,$4,$5,$6,$7,0*
20,1,$1+$1,$6,$7,$8,$9,0*
20,1,$1+$1,$8,$9,$2,$3,0*%
G04 Aperture macros list end*
%ADD10RoundRect,0.112500X-0.237500X0.112500X-0.237500X-0.112500X0.237500X-0.112500X0.237500X0.112500X0*%
%ADD11R,1.130000X1.380000*%
%ADD12RoundRect,0.150000X-0.512500X-0.150000X0.512500X-0.150000X0.512500X0.150000X-0.512500X0.150000X0*%
%ADD13R,1.700000X1.700000*%
%ADD14O,1.700000X1.700000*%
%ADD15O,1.600000X2.600000*%
%ADD16R,1.410000X1.350000*%
%ADD17RoundRect,0.250000X-0.375000X-0.850000X0.375000X-0.850000X0.375000X0.850000X-0.375000X0.850000X0*%
%ADD18R,1.000000X1.400000*%
%ADD19R,0.600000X1.000000*%
%ADD20R,4.410000X4.000000*%
%ADD21RoundRect,0.250000X-0.350000X-0.625000X0.350000X-0.625000X0.350000X0.625000X-0.350000X0.625000X0*%
%ADD22O,1.200000X1.750000*%
%ADD23C,0.750000*%
%ADD24O,2.000000X1.200000*%
%ADD25O,1.800000X1.200000*%
%ADD26R,1.300000X0.300000*%
%ADD27R,0.600000X1.500000*%
%ADD28R,3.300000X2.100000*%
%ADD29O,0.590000X2.050000*%
%ADD30R,1.100000X2.500000*%
%ADD31R,3.600000X2.340000*%
%ADD32C,0.700000*%
%ADD33R,0.800000X1.300000*%
%ADD34R,1.000000X1.200000*%
%ADD35R,1.500000X0.900000*%
%ADD36R,0.900000X1.500000*%
%ADD37R,0.900000X0.900000*%
%ADD38R,1.380000X1.130000*%
%ADD39RoundRect,0.250000X-1.000000X-0.650000X1.000000X-0.650000X1.000000X0.650000X-1.000000X0.650000X0*%
%ADD40C,3.200000*%
%ADD41R,1.350000X1.350000*%
%ADD42O,1.350000X1.350000*%
%ADD43C,2.200000*%
G04 APERTURE END LIST*
D10*
G04 #@! TO.C,D1*
X24000000Y-16200000D03*
X24000000Y-17500000D03*
X26000000Y-16850000D03*
G04 #@! TD*
D11*
G04 #@! TO.C,R7*
X38500000Y-76000000D03*
X40500000Y-76000000D03*
G04 #@! TD*
G04 #@! TO.C,R5*
X14000000Y-82500000D03*
X16000000Y-82500000D03*
G04 #@! TD*
D12*
G04 #@! TO.C,U7*
X50000000Y-61600000D03*
X50000000Y-62550000D03*
X50000000Y-63500000D03*
X52275000Y-63500000D03*
X52275000Y-62550000D03*
X52275000Y-61600000D03*
G04 #@! TD*
D11*
G04 #@! TO.C,R13*
X71500000Y-58500000D03*
X73500000Y-58500000D03*
G04 #@! TD*
D12*
G04 #@! TO.C,U7*
X50000000Y-13600000D03*
X50000000Y-14550000D03*
X50000000Y-15500000D03*
X52275000Y-15500000D03*
X52275000Y-14550000D03*
X52275000Y-13600000D03*
G04 #@! TD*
D11*
G04 #@! TO.C,R5*
X14000000Y-34500000D03*
X16000000Y-34500000D03*
G04 #@! TD*
D13*
G04 #@! TO.C,J6*
X13880000Y-90300000D03*
D14*
X16420000Y-90300000D03*
X18960000Y-90300000D03*
X21500000Y-90300000D03*
X24040000Y-90300000D03*
G04 #@! TD*
D15*
G04 #@! TO.C,F2*
X78800000Y-18730000D03*
X82200000Y-18730000D03*
X78800000Y-5270000D03*
X82200000Y-5270000D03*
G04 #@! TD*
D12*
G04 #@! TO.C,U1*
X23725000Y-23500000D03*
X23725000Y-24450000D03*
X23725000Y-25400000D03*
X26000000Y-25400000D03*
X26000000Y-24450000D03*
X26000000Y-23500000D03*
G04 #@! TD*
D16*
G04 #@! TO.C,C6*
X38500000Y-63350000D03*
X40500000Y-63350000D03*
G04 #@! TD*
G04 #@! TO.C,C29*
X38500000Y-69250000D03*
X40500000Y-69250000D03*
G04 #@! TD*
G04 #@! TO.C,C30*
X66500000Y-3500000D03*
X68500000Y-3500000D03*
G04 #@! TD*
D17*
G04 #@! TO.C,L2*
X59925000Y-6000000D03*
X62075000Y-6000000D03*
G04 #@! TD*
D11*
G04 #@! TO.C,R10*
X92500000Y-77000000D03*
X94500000Y-77000000D03*
G04 #@! TD*
D18*
G04 #@! TO.C,D4*
X5450000Y-15810000D03*
X3350000Y-15810000D03*
G04 #@! TD*
D19*
G04 #@! TO.C,REF\u002A\u002A*
X84900000Y-81420000D03*
X81090000Y-75580000D03*
X82370000Y-75580000D03*
D20*
X83000000Y-77890000D03*
D19*
X83630000Y-75580000D03*
X84900000Y-75580000D03*
X81090000Y-81420000D03*
X82370000Y-81420000D03*
X83630000Y-81420000D03*
G04 #@! TD*
D21*
G04 #@! TO.C,J7*
X49000000Y-3500000D03*
D22*
X51000000Y-3500000D03*
G04 #@! TD*
D12*
G04 #@! TO.C,U1*
X23725000Y-71500000D03*
X23725000Y-72450000D03*
X23725000Y-73400000D03*
X26000000Y-73400000D03*
X26000000Y-72450000D03*
X26000000Y-71500000D03*
G04 #@! TD*
D23*
G04 #@! TO.C,J2*
X5262500Y-72100000D03*
X5262500Y-77900000D03*
D24*
X5762500Y-70670000D03*
X5762500Y-79330000D03*
D25*
X1582500Y-79330000D03*
X1582500Y-70670000D03*
D26*
X6522500Y-71650000D03*
X6522500Y-72450000D03*
X6522500Y-73750000D03*
X6522500Y-74750000D03*
X6522500Y-75250000D03*
X6522500Y-76250000D03*
X6522500Y-77550000D03*
X6522500Y-78350000D03*
X6522500Y-78050000D03*
X6522500Y-77250000D03*
X6522500Y-76750000D03*
X6522500Y-75750000D03*
X6522500Y-74250000D03*
X6522500Y-73250000D03*
X6522500Y-72750000D03*
X6522500Y-71950000D03*
G04 #@! TD*
D11*
G04 #@! TO.C,R20*
X71500000Y-6500000D03*
X73500000Y-6500000D03*
G04 #@! TD*
D10*
G04 #@! TO.C,D1*
X24000000Y-64200000D03*
X24000000Y-65500000D03*
X26000000Y-64850000D03*
G04 #@! TD*
D27*
G04 #@! TO.C,U3*
X14500000Y-73000000D03*
X15500000Y-73000000D03*
X16500000Y-73000000D03*
X17500000Y-73000000D03*
X18500000Y-73000000D03*
X18500000Y-67000000D03*
X17500000Y-67000000D03*
X16500000Y-67000000D03*
X15500000Y-67000000D03*
X14500000Y-67000000D03*
D28*
X16500000Y-70000000D03*
G04 #@! TD*
D18*
G04 #@! TO.C,D2*
X5650000Y-11800000D03*
X3550000Y-11800000D03*
G04 #@! TD*
D21*
G04 #@! TO.C,J7*
X49000000Y-51500000D03*
D22*
X51000000Y-51500000D03*
G04 #@! TD*
D11*
G04 #@! TO.C,R3*
X14000000Y-79500000D03*
X16000000Y-79500000D03*
G04 #@! TD*
D16*
G04 #@! TO.C,C30*
X66500000Y-51500000D03*
X68500000Y-51500000D03*
G04 #@! TD*
D29*
G04 #@! TO.C,U4*
X71090000Y-80770000D03*
X72370000Y-80770000D03*
X73630000Y-80770000D03*
X74900000Y-80770000D03*
X74900000Y-75230000D03*
X73630000Y-75230000D03*
X72370000Y-75230000D03*
X71090000Y-75230000D03*
G04 #@! TD*
D30*
G04 #@! TO.C,U9*
X58700000Y-17470000D03*
X61000000Y-17470000D03*
X63300000Y-17470000D03*
D31*
X61000000Y-11530000D03*
G04 #@! TD*
D32*
G04 #@! TO.C,SW1*
X30800000Y-2000000D03*
X32500000Y-2000000D03*
D33*
X29970000Y-3200000D03*
X33330000Y-3200000D03*
D34*
X33750000Y-1500000D03*
X29550000Y-1500000D03*
G04 #@! TD*
D35*
G04 #@! TO.C,U5*
X66500000Y-40000000D03*
X66500000Y-38730000D03*
X66500000Y-37460000D03*
X66500000Y-36190000D03*
X66500000Y-34920000D03*
X66500000Y-33650000D03*
X66500000Y-32380000D03*
X66500000Y-31110000D03*
X66500000Y-29840000D03*
X66500000Y-28570000D03*
X66500000Y-27300000D03*
X66500000Y-26030000D03*
X66500000Y-24760000D03*
X66500000Y-23490000D03*
D36*
X64740000Y-22220000D03*
X63470000Y-22220000D03*
X62200000Y-22220000D03*
X60930000Y-22220000D03*
X59660000Y-22220000D03*
X58380000Y-22220000D03*
X57120000Y-22220000D03*
X55850000Y-22220000D03*
X54580000Y-22220000D03*
X53300000Y-22220000D03*
X52030000Y-22220000D03*
X50760000Y-22250000D03*
D35*
X49000000Y-23490000D03*
X49000000Y-24760000D03*
X49000000Y-26030000D03*
X49000000Y-27300000D03*
X49000000Y-28570000D03*
X49000000Y-29840000D03*
X49000000Y-31110000D03*
X49000000Y-32380000D03*
X49000000Y-33650000D03*
X49000000Y-34920000D03*
X49000000Y-36190000D03*
X49000000Y-37460000D03*
X49000000Y-38730000D03*
X49000000Y-40000000D03*
D37*
X60650000Y-33680000D03*
X60650000Y-32280000D03*
X60650000Y-30880000D03*
X59250000Y-33680000D03*
X59250000Y-32280000D03*
X59250000Y-30880000D03*
X57850000Y-33680000D03*
X57850000Y-32280000D03*
X57850000Y-30880000D03*
G04 #@! TD*
D11*
G04 #@! TO.C,R4*
X19000000Y-79500000D03*
X21000000Y-79500000D03*
G04 #@! TD*
D18*
G04 #@! TO.C,D2*
X5650000Y-59800000D03*
X3550000Y-59800000D03*
G04 #@! TD*
D38*
G04 #@! TO.C,R2*
X22000000Y-11500000D03*
X22000000Y-9500000D03*
G04 #@! TD*
D39*
G04 #@! TO.C,D3*
X37500000Y-42500000D03*
X41500000Y-42500000D03*
G04 #@! TD*
D16*
G04 #@! TO.C,C7*
X38500000Y-66300000D03*
X40500000Y-66300000D03*
G04 #@! TD*
D11*
G04 #@! TO.C,R11*
X92500000Y-33000000D03*
X94500000Y-33000000D03*
G04 #@! TD*
D27*
G04 #@! TO.C,U3*
X14500000Y-25000000D03*
X15500000Y-25000000D03*
X16500000Y-25000000D03*
X17500000Y-25000000D03*
X18500000Y-25000000D03*
X18500000Y-19000000D03*
X17500000Y-19000000D03*
X16500000Y-19000000D03*
X15500000Y-19000000D03*
X14500000Y-19000000D03*
D28*
X16500000Y-22000000D03*
G04 #@! TD*
D11*
G04 #@! TO.C,R22*
X71500000Y-51500000D03*
X73500000Y-51500000D03*
G04 #@! TD*
G04 #@! TO.C,R10*
X92500000Y-29000000D03*
X94500000Y-29000000D03*
G04 #@! TD*
G04 #@! TO.C,R6*
X38500000Y-31000000D03*
X40500000Y-31000000D03*
G04 #@! TD*
D40*
G04 #@! TO.C,H3*
X92000000Y-42000000D03*
G04 #@! TD*
D38*
G04 #@! TO.C,R2*
X22000000Y-59500000D03*
X22000000Y-57500000D03*
G04 #@! TD*
D29*
G04 #@! TO.C,U4*
X71090000Y-32770000D03*
X72370000Y-32770000D03*
X73630000Y-32770000D03*
X74900000Y-32770000D03*
X74900000Y-27230000D03*
X73630000Y-27230000D03*
X72370000Y-27230000D03*
X71090000Y-27230000D03*
G04 #@! TD*
D11*
G04 #@! TO.C,R3*
X14000000Y-31500000D03*
X16000000Y-31500000D03*
G04 #@! TD*
D40*
G04 #@! TO.C,H1*
X8000000Y-6500000D03*
G04 #@! TD*
D38*
G04 #@! TO.C,R16*
X18500000Y-59500000D03*
X18500000Y-57500000D03*
G04 #@! TD*
G04 #@! TO.C,R16*
X18500000Y-11500000D03*
X18500000Y-9500000D03*
G04 #@! TD*
D41*
G04 #@! TO.C,J4*
X15000000Y-54000000D03*
D42*
X15000000Y-52000000D03*
X17000000Y-54000000D03*
X17000000Y-52000000D03*
X19000000Y-54000000D03*
X19000000Y-52000000D03*
X21000000Y-54000000D03*
X21000000Y-52000000D03*
X23000000Y-54000000D03*
X23000000Y-52000000D03*
G04 #@! TD*
D16*
G04 #@! TO.C,C3*
X38500000Y-9450000D03*
X40500000Y-9450000D03*
G04 #@! TD*
G04 #@! TO.C,C1*
X72000000Y-38000000D03*
X74000000Y-38000000D03*
G04 #@! TD*
D11*
G04 #@! TO.C,R15*
X92500000Y-74000000D03*
X94500000Y-74000000D03*
G04 #@! TD*
D16*
G04 #@! TO.C,C2*
X19000000Y-34500000D03*
X21000000Y-34500000D03*
G04 #@! TD*
D13*
G04 #@! TO.C,J6*
X13880000Y-42300000D03*
D14*
X16420000Y-42300000D03*
X18960000Y-42300000D03*
X21500000Y-42300000D03*
X24040000Y-42300000D03*
G04 #@! TD*
D16*
G04 #@! TO.C,C5*
X38500000Y-60400000D03*
X40500000Y-60400000D03*
G04 #@! TD*
D19*
G04 #@! TO.C,REF\u002A\u002A*
X84900000Y-33420000D03*
X81090000Y-27580000D03*
X82370000Y-27580000D03*
D20*
X83000000Y-29890000D03*
D19*
X83630000Y-27580000D03*
X84900000Y-27580000D03*
X81090000Y-33420000D03*
X82370000Y-33420000D03*
X83630000Y-33420000D03*
G04 #@! TD*
D40*
G04 #@! TO.C,H1*
X8000000Y-54500000D03*
G04 #@! TD*
D17*
G04 #@! TO.C,L2*
X59925000Y-54000000D03*
X62075000Y-54000000D03*
G04 #@! TD*
D11*
G04 #@! TO.C,R20*
X71500000Y-54500000D03*
X73500000Y-54500000D03*
G04 #@! TD*
D16*
G04 #@! TO.C,C1*
X72000000Y-86000000D03*
X74000000Y-86000000D03*
G04 #@! TD*
D11*
G04 #@! TO.C,R13*
X71500000Y-10500000D03*
X73500000Y-10500000D03*
G04 #@! TD*
D32*
G04 #@! TO.C,SW1*
X30800000Y-50000000D03*
X32500000Y-50000000D03*
D33*
X29970000Y-51200000D03*
X33330000Y-51200000D03*
D34*
X33750000Y-49500000D03*
X29550000Y-49500000D03*
G04 #@! TD*
D18*
G04 #@! TO.C,D4*
X5450000Y-63810000D03*
X3350000Y-63810000D03*
G04 #@! TD*
D39*
G04 #@! TO.C,D3*
X37500000Y-90500000D03*
X41500000Y-90500000D03*
G04 #@! TD*
D43*
G04 #@! TO.C,J10*
X93000000Y-3190000D03*
X93000000Y-7000000D03*
X93000000Y-10810000D03*
X93000000Y-14620000D03*
X93000000Y-18430000D03*
G04 #@! TD*
D15*
G04 #@! TO.C,F2*
X78800000Y-66730000D03*
X82200000Y-66730000D03*
X78800000Y-53270000D03*
X82200000Y-53270000D03*
G04 #@! TD*
D11*
G04 #@! TO.C,R14*
X71500000Y-18500000D03*
X73500000Y-18500000D03*
G04 #@! TD*
G04 #@! TO.C,R15*
X92500000Y-26000000D03*
X94500000Y-26000000D03*
G04 #@! TD*
D16*
G04 #@! TO.C,C2*
X19000000Y-82500000D03*
X21000000Y-82500000D03*
G04 #@! TD*
D11*
G04 #@! TO.C,R14*
X71500000Y-66500000D03*
X73500000Y-66500000D03*
G04 #@! TD*
D16*
G04 #@! TO.C,C3*
X38500000Y-57450000D03*
X40500000Y-57450000D03*
G04 #@! TD*
D11*
G04 #@! TO.C,R7*
X38500000Y-28000000D03*
X40500000Y-28000000D03*
G04 #@! TD*
D13*
G04 #@! TO.C,J8*
X70400000Y-42975000D03*
D14*
X72940000Y-42975000D03*
X75480000Y-42975000D03*
X78020000Y-42975000D03*
X80560000Y-42975000D03*
X83100000Y-42975000D03*
X85640000Y-42975000D03*
G04 #@! TD*
D23*
G04 #@! TO.C,J2*
X5262500Y-24100000D03*
X5262500Y-29900000D03*
D24*
X5762500Y-22670000D03*
X5762500Y-31330000D03*
D25*
X1582500Y-31330000D03*
X1582500Y-22670000D03*
D26*
X6522500Y-23650000D03*
X6522500Y-24450000D03*
X6522500Y-25750000D03*
X6522500Y-26750000D03*
X6522500Y-27250000D03*
X6522500Y-28250000D03*
X6522500Y-29550000D03*
X6522500Y-30350000D03*
X6522500Y-30050000D03*
X6522500Y-29250000D03*
X6522500Y-28750000D03*
X6522500Y-27750000D03*
X6522500Y-26250000D03*
X6522500Y-25250000D03*
X6522500Y-24750000D03*
X6522500Y-23950000D03*
G04 #@! TD*
D38*
G04 #@! TO.C,R17*
X15000000Y-11500000D03*
X15000000Y-9500000D03*
G04 #@! TD*
D16*
G04 #@! TO.C,C7*
X38500000Y-18300000D03*
X40500000Y-18300000D03*
G04 #@! TD*
G04 #@! TO.C,C5*
X38500000Y-12400000D03*
X40500000Y-12400000D03*
G04 #@! TD*
D13*
G04 #@! TO.C,J8*
X70400000Y-90975000D03*
D14*
X72940000Y-90975000D03*
X75480000Y-90975000D03*
X78020000Y-90975000D03*
X80560000Y-90975000D03*
X83100000Y-90975000D03*
X85640000Y-90975000D03*
G04 #@! TD*
D38*
G04 #@! TO.C,R17*
X15000000Y-59500000D03*
X15000000Y-57500000D03*
G04 #@! TD*
D41*
G04 #@! TO.C,J4*
X15000000Y-6000000D03*
D42*
X15000000Y-4000000D03*
X17000000Y-6000000D03*
X17000000Y-4000000D03*
X19000000Y-6000000D03*
X19000000Y-4000000D03*
X21000000Y-6000000D03*
X21000000Y-4000000D03*
X23000000Y-6000000D03*
X23000000Y-4000000D03*
G04 #@! TD*
D43*
G04 #@! TO.C,J10*
X93000000Y-51190000D03*
X93000000Y-55000000D03*
X93000000Y-58810000D03*
X93000000Y-62620000D03*
X93000000Y-66430000D03*
G04 #@! TD*
D11*
G04 #@! TO.C,R11*
X92500000Y-81000000D03*
X94500000Y-81000000D03*
G04 #@! TD*
D40*
G04 #@! TO.C,H2*
X7000000Y-42000000D03*
G04 #@! TD*
D35*
G04 #@! TO.C,U5*
X66500000Y-88000000D03*
X66500000Y-86730000D03*
X66500000Y-85460000D03*
X66500000Y-84190000D03*
X66500000Y-82920000D03*
X66500000Y-81650000D03*
X66500000Y-80380000D03*
X66500000Y-79110000D03*
X66500000Y-77840000D03*
X66500000Y-76570000D03*
X66500000Y-75300000D03*
X66500000Y-74030000D03*
X66500000Y-72760000D03*
X66500000Y-71490000D03*
D36*
X64740000Y-70220000D03*
X63470000Y-70220000D03*
X62200000Y-70220000D03*
X60930000Y-70220000D03*
X59660000Y-70220000D03*
X58380000Y-70220000D03*
X57120000Y-70220000D03*
X55850000Y-70220000D03*
X54580000Y-70220000D03*
X53300000Y-70220000D03*
X52030000Y-70220000D03*
X50760000Y-70250000D03*
D35*
X49000000Y-71490000D03*
X49000000Y-72760000D03*
X49000000Y-74030000D03*
X49000000Y-75300000D03*
X49000000Y-76570000D03*
X49000000Y-77840000D03*
X49000000Y-79110000D03*
X49000000Y-80380000D03*
X49000000Y-81650000D03*
X49000000Y-82920000D03*
X49000000Y-84190000D03*
X49000000Y-85460000D03*
X49000000Y-86730000D03*
X49000000Y-88000000D03*
D37*
X60650000Y-81680000D03*
X60650000Y-80280000D03*
X60650000Y-78880000D03*
X59250000Y-81680000D03*
X59250000Y-80280000D03*
X59250000Y-78880000D03*
X57850000Y-81680000D03*
X57850000Y-80280000D03*
X57850000Y-78880000D03*
G04 #@! TD*
D16*
G04 #@! TO.C,C6*
X38500000Y-15350000D03*
X40500000Y-15350000D03*
G04 #@! TD*
D11*
G04 #@! TO.C,R6*
X38500000Y-79000000D03*
X40500000Y-79000000D03*
G04 #@! TD*
D30*
G04 #@! TO.C,U9*
X58700000Y-65470000D03*
X61000000Y-65470000D03*
X63300000Y-65470000D03*
D31*
X61000000Y-59530000D03*
G04 #@! TD*
D16*
G04 #@! TO.C,C29*
X38500000Y-21250000D03*
X40500000Y-21250000D03*
G04 #@! TD*
D40*
G04 #@! TO.C,H2*
X7000000Y-90000000D03*
G04 #@! TD*
D11*
G04 #@! TO.C,R4*
X19000000Y-31500000D03*
X21000000Y-31500000D03*
G04 #@! TD*
D40*
G04 #@! TO.C,H3*
X92000000Y-90000000D03*
G04 #@! TD*
D11*
G04 #@! TO.C,R22*
X71500000Y-3500000D03*
X73500000Y-3500000D03*
G04 #@! TD*
G04 #@! TO.C,R12*
X9000000Y-60500000D03*
X11000000Y-60500000D03*
G04 #@! TD*
G04 #@! TO.C,R12*
X9000000Y-12500000D03*
X11000000Y-12500000D03*
G04 #@! TD*
M02*
