G04 #@! TF.GenerationSoftware,KiCad,Pcbnew,8.0.8*
G04 #@! TF.CreationDate,2025-02-19T19:45:59+01:00*
G04 #@! TF.ProjectId,panelized,70616e65-6c69-47a6-9564-2e6b69636164,rev?*
G04 #@! TF.SameCoordinates,Original*
G04 #@! TF.FileFunction,Other,Comment*
%FSLAX46Y46*%
G04 Gerber Fmt 4.6, Leading zero omitted, Abs format (unit mm)*
G04 Created by KiCad (PCBNEW 8.0.8) date 2025-02-19 19:45:59*
%MOMM*%
%LPD*%
G01*
G04 APERTURE LIST*
%ADD10C,0.300000*%
%ADD11C,0.250000*%
%ADD12C,0.500000*%
%ADD13C,0.150000*%
G04 APERTURE END LIST*
D10*
X-3000000Y-48000000D02*
X101000000Y-48000000D01*
X104387844Y-46909638D02*
X105054510Y-48909638D01*
X105054510Y-48909638D02*
X105721177Y-46909638D01*
X106387844Y-48147733D02*
X107911654Y-48147733D01*
X110006891Y-48719161D02*
X109911653Y-48814400D01*
X109911653Y-48814400D02*
X109625939Y-48909638D01*
X109625939Y-48909638D02*
X109435463Y-48909638D01*
X109435463Y-48909638D02*
X109149748Y-48814400D01*
X109149748Y-48814400D02*
X108959272Y-48623923D01*
X108959272Y-48623923D02*
X108864034Y-48433447D01*
X108864034Y-48433447D02*
X108768796Y-48052495D01*
X108768796Y-48052495D02*
X108768796Y-47766780D01*
X108768796Y-47766780D02*
X108864034Y-47385828D01*
X108864034Y-47385828D02*
X108959272Y-47195352D01*
X108959272Y-47195352D02*
X109149748Y-47004876D01*
X109149748Y-47004876D02*
X109435463Y-46909638D01*
X109435463Y-46909638D02*
X109625939Y-46909638D01*
X109625939Y-46909638D02*
X109911653Y-47004876D01*
X109911653Y-47004876D02*
X110006891Y-47100114D01*
X110864034Y-46909638D02*
X110864034Y-48528685D01*
X110864034Y-48528685D02*
X110959272Y-48719161D01*
X110959272Y-48719161D02*
X111054510Y-48814400D01*
X111054510Y-48814400D02*
X111244986Y-48909638D01*
X111244986Y-48909638D02*
X111625939Y-48909638D01*
X111625939Y-48909638D02*
X111816415Y-48814400D01*
X111816415Y-48814400D02*
X111911653Y-48719161D01*
X111911653Y-48719161D02*
X112006891Y-48528685D01*
X112006891Y-48528685D02*
X112006891Y-46909638D01*
X112673558Y-46909638D02*
X113816415Y-46909638D01*
X113244986Y-48909638D02*
X113244986Y-46909638D01*
G04 #@! TO.C,REF\u002A\u002A*
X81200000Y-81580000D02*
G75*
G02*
X80900000Y-81580000I-150000J0D01*
G01*
X80900000Y-81580000D02*
G75*
G02*
X81200000Y-81580000I150000J0D01*
G01*
D11*
G04 #@! TO.C,J2*
X5382500Y-72100000D02*
G75*
G02*
X5142500Y-72100000I-120000J0D01*
G01*
X5142500Y-72100000D02*
G75*
G02*
X5382500Y-72100000I120000J0D01*
G01*
X5382500Y-77900000D02*
G75*
G02*
X5142500Y-77900000I-120000J0D01*
G01*
X5142500Y-77900000D02*
G75*
G02*
X5382500Y-77900000I120000J0D01*
G01*
D10*
G04 #@! TO.C,U3*
X14490000Y-73810000D02*
G75*
G02*
X14190000Y-73810000I-150000J0D01*
G01*
X14190000Y-73810000D02*
G75*
G02*
X14490000Y-73810000I150000J0D01*
G01*
G04 #@! TO.C,U4*
X71240000Y-81400000D02*
G75*
G02*
X70940000Y-81400000I-150000J0D01*
G01*
X70940000Y-81400000D02*
G75*
G02*
X71240000Y-81400000I150000J0D01*
G01*
D12*
G04 #@! TO.C,U9*
X59060000Y-19050000D02*
G75*
G02*
X58560000Y-19050000I-250000J0D01*
G01*
X58560000Y-19050000D02*
G75*
G02*
X59060000Y-19050000I250000J0D01*
G01*
D11*
G04 #@! TO.C,SW1*
X30920000Y-2000000D02*
G75*
G02*
X30680000Y-2000000I-120000J0D01*
G01*
X30680000Y-2000000D02*
G75*
G02*
X30920000Y-2000000I120000J0D01*
G01*
X32620000Y-2000000D02*
G75*
G02*
X32380000Y-2000000I-120000J0D01*
G01*
X32380000Y-2000000D02*
G75*
G02*
X32620000Y-2000000I120000J0D01*
G01*
D12*
G04 #@! TO.C,U5*
X65000000Y-40210000D02*
G75*
G02*
X64500000Y-40210000I-250000J0D01*
G01*
X64500000Y-40210000D02*
G75*
G02*
X65000000Y-40210000I250000J0D01*
G01*
D10*
G04 #@! TO.C,U3*
X14490000Y-25810000D02*
G75*
G02*
X14190000Y-25810000I-150000J0D01*
G01*
X14190000Y-25810000D02*
G75*
G02*
X14490000Y-25810000I150000J0D01*
G01*
D13*
G04 #@! TO.C,H3*
X95200000Y-42000000D02*
G75*
G02*
X88800000Y-42000000I-3200000J0D01*
G01*
X88800000Y-42000000D02*
G75*
G02*
X95200000Y-42000000I3200000J0D01*
G01*
D10*
G04 #@! TO.C,U4*
X71240000Y-33400000D02*
G75*
G02*
X70940000Y-33400000I-150000J0D01*
G01*
X70940000Y-33400000D02*
G75*
G02*
X71240000Y-33400000I150000J0D01*
G01*
D13*
G04 #@! TO.C,H1*
X11200000Y-6500000D02*
G75*
G02*
X4800000Y-6500000I-3200000J0D01*
G01*
X4800000Y-6500000D02*
G75*
G02*
X11200000Y-6500000I3200000J0D01*
G01*
D10*
G04 #@! TO.C,REF\u002A\u002A*
X81200000Y-33580000D02*
G75*
G02*
X80900000Y-33580000I-150000J0D01*
G01*
X80900000Y-33580000D02*
G75*
G02*
X81200000Y-33580000I150000J0D01*
G01*
D13*
G04 #@! TO.C,H1*
X11200000Y-54500000D02*
G75*
G02*
X4800000Y-54500000I-3200000J0D01*
G01*
X4800000Y-54500000D02*
G75*
G02*
X11200000Y-54500000I3200000J0D01*
G01*
D11*
G04 #@! TO.C,SW1*
X30920000Y-50000000D02*
G75*
G02*
X30680000Y-50000000I-120000J0D01*
G01*
X30680000Y-50000000D02*
G75*
G02*
X30920000Y-50000000I120000J0D01*
G01*
X32620000Y-50000000D02*
G75*
G02*
X32380000Y-50000000I-120000J0D01*
G01*
X32380000Y-50000000D02*
G75*
G02*
X32620000Y-50000000I120000J0D01*
G01*
G04 #@! TO.C,J2*
X5382500Y-24100000D02*
G75*
G02*
X5142500Y-24100000I-120000J0D01*
G01*
X5142500Y-24100000D02*
G75*
G02*
X5382500Y-24100000I120000J0D01*
G01*
X5382500Y-29900000D02*
G75*
G02*
X5142500Y-29900000I-120000J0D01*
G01*
X5142500Y-29900000D02*
G75*
G02*
X5382500Y-29900000I120000J0D01*
G01*
D13*
G04 #@! TO.C,H2*
X10200000Y-42000000D02*
G75*
G02*
X3800000Y-42000000I-3200000J0D01*
G01*
X3800000Y-42000000D02*
G75*
G02*
X10200000Y-42000000I3200000J0D01*
G01*
D12*
G04 #@! TO.C,U5*
X65000000Y-88210000D02*
G75*
G02*
X64500000Y-88210000I-250000J0D01*
G01*
X64500000Y-88210000D02*
G75*
G02*
X65000000Y-88210000I250000J0D01*
G01*
G04 #@! TO.C,U9*
X59060000Y-67050000D02*
G75*
G02*
X58560000Y-67050000I-250000J0D01*
G01*
X58560000Y-67050000D02*
G75*
G02*
X59060000Y-67050000I250000J0D01*
G01*
D13*
G04 #@! TO.C,H2*
X10200000Y-90000000D02*
G75*
G02*
X3800000Y-90000000I-3200000J0D01*
G01*
X3800000Y-90000000D02*
G75*
G02*
X10200000Y-90000000I3200000J0D01*
G01*
G04 #@! TO.C,H3*
X95200000Y-90000000D02*
G75*
G02*
X88800000Y-90000000I-3200000J0D01*
G01*
X88800000Y-90000000D02*
G75*
G02*
X95200000Y-90000000I3200000J0D01*
G01*
G04 #@! TD*
M02*
